<svg xmlns="http://www.w3.org/2000/svg" xmlns:xlink="http://www.w3.org/1999/xlink" width="70.603" height="70.604" viewBox="0 0 70.603 70.604">
  <defs>
    <clipPath id="clip-path">
      <rect id="Rectángulo_37502" data-name="Rectángulo 37502" width="32.863" height="21.25" transform="translate(0 0)" fill="none"/>
    </clipPath>
  </defs>
  <g id="_10" data-name="10" transform="translate(-0.209 -0.5)">
    <path id="Trazado_127482" data-name="Trazado 127482" d="M35.3,0A35.3,35.3,0,1,1,0,35.3,35.3,35.3,0,0,1,35.3,0Z" transform="translate(0.209 0.5)" fill="#d7e4f6"/>
    <g id="Grupo_156595" data-name="Grupo 156595" transform="translate(-2.488 -0.753)">
      <path id="Trazado_127053" data-name="Trazado 127053" d="M15.791,124.4c.5.111.616-.124.611-.592-.013-1.171.007-1.192,1.219-1.185.451,0,.591-.137.582-.583-.008-.416-.084-.609-.564-.607-1.216,0-1.247-.02-1.234-1.233.006-.549-.263-.559-.67-.563s-.618.064-.618.551c0,1.229-.025,1.251-1.225,1.246-.464,0-.574.166-.575.6s.109.6.573.594c1.224-.007,1.253.016,1.226,1.175-.013.538.186.7.674.6" transform="translate(44.527 -83.657)"/>
      <path id="Trazado_127054" data-name="Trazado 127054" d="M213.8,151.163c-.448-.085-.7.063-.622.57.062.424-.085.661-.555.588s-.628.1-.631.591c0,.518.208.638.649.578.422-.057.556.127.547.546-.013.657.394.91,1.03.711.3-.094.236-.335.216-.526-.053-.52.066-.838.679-.734.475.081.5-.217.5-.581s-.015-.659-.5-.585c-.519.08-.765-.11-.678-.658.082-.524-.254-.547-.641-.5" transform="translate(-190.74 -97.489)" fill="#29c4bb"/>
      <path id="Trazado_127055" data-name="Trazado 127055" d="M207.483,69.434c-.116.5.113.67.581.592.507-.085.714.123.625.627-.087.488.124.6.6.609s.671-.14.586-.614c-.091-.505.12-.714.622-.62.52.1.566-.174.585-.612.023-.514-.176-.648-.623-.57-.486.085-.668-.116-.585-.591.079-.454-.068-.638-.574-.62-.446.016-.7.079-.609.591s-.127.7-.625.62c-.469-.079-.7.089-.58.589" transform="translate(-189.828 -50.058)"/>
      <path id="Trazado_127056" data-name="Trazado 127056" d="M51.807,186.809c-.109.466.121.637.587.553.547-.1.677.186.6.647-.087.513.161.592.611.589.43,0,.661-.1.571-.564-.119-.609.186-.759.711-.669s.513-.248.515-.617-.008-.66-.494-.564c-.654.129-.821-.185-.733-.77.085-.56-.342-.4-.627-.416-.3-.018-.638-.057-.55.429.109.6-.1.88-.738.758-.531-.1-.466.268-.45.624" transform="translate(-7.435 -129.47)"/>
      <path id="Trazado_127057" data-name="Trazado 127057" d="M125.364,17.591c.125-.532-.169-.635-.6-.571-.452.067-.63-.12-.561-.565s-.063-.648-.576-.637c-.471.01-.686.132-.6.615s-.145.657-.61.587c-.431-.064-.647.039-.649.565s.2.684.67.609c.5-.079.665.147.588.61-.086.52.193.579.63.588.467.01.62-.166.551-.595-.075-.47.1-.685.589-.6s.683-.117.577-.6" transform="translate(-79.237 -1.816)" fill="#29c4bb"/>
    </g>
    <g id="Grupo_157370" data-name="Grupo 157370" transform="translate(19.209 24.5)">
      <g id="Grupo_157370-2" data-name="Grupo 157370" transform="translate(0 0)" clip-path="url(#clip-path)">
        <path id="Trazado_129136" data-name="Trazado 129136" d="M0,1.966c.1-.067.083-.189.115-.284A2.39,2.39,0,0,1,2.224.024C2.362.014,2.5.013,2.64.013,11.834.013,21.027.027,30.22,0a2.546,2.546,0,0,1,2.643,2.642c-.034,5.366-.012,10.733-.015,16.1a2.4,2.4,0,0,1-1.864,2.44,3.61,3.61,0,0,1-.861.069H2.737a2.441,2.441,0,0,1-2.69-1.923C.041,19.311.016,19.3,0,19.289V1.966" transform="translate(0 0)"/>
        <path id="Trazado_129137" data-name="Trazado 129137" d="M5.44,23.393A1.406,1.406,0,0,1,4.05,22.072c-.007-.107,0-.214,0-.321,0-5.325.013-10.65-.013-15.974A1.578,1.578,0,0,1,5.718,4.1q13.408.032,26.816.013c.128,0,.255.012.383.018a1,1,0,0,1,.506.551c.123.3.052.42-.266.442-.117.008-.234,0-.352,0H25.1a.839.839,0,0,0-.467.066c-.264.137-.275.382-.275.633q0,2.573,0,5.145c0,.384,0,.767,0,1.15a.523.523,0,0,0,.29.526.927.927,0,0,0,.472.059h7.759c.128,0,.256,0,.385,0a.3.3,0,0,1,.328.316c.006.075.009.149.009.224,0,1.283,0,2.565,0,3.847,0,.48-.059.536-.535.536q-3.976,0-7.952,0a.892.892,0,0,0-.47.063c-.17.1-.3.226-.241.438a.454.454,0,0,0,.409.31,2.662,2.662,0,0,0,.51.024q3.824,0,7.649,0a.786.786,0,0,1,.553.1,1.275,1.275,0,0,1,.057.722.268.268,0,0,1-.275.259c-.128.011-.256.008-.384.008H25.11a.882.882,0,0,0-.469.064c-.17.1-.3.227-.239.438a.455.455,0,0,0,.41.309,2.682,2.682,0,0,0,.51.024q3.824,0,7.647,0a.786.786,0,0,1,.553.1,1.276,1.276,0,0,1,.057.722.268.268,0,0,1-.275.258c-.128.011-.256.008-.384.008H25.11a.881.881,0,0,0-.469.063c-.17.1-.3.227-.239.439a.456.456,0,0,0,.411.309,2.713,2.713,0,0,0,.512.024q3.816,0,7.631,0a.78.78,0,0,1,.554.1.908.908,0,0,1-.948.994H5.758a.892.892,0,0,1-.318-.02" transform="translate(-3.084 -3.132)" fill="#feb489"/>
        <path id="Trazado_129138" data-name="Trazado 129138" d="M29.144,19.564c.112-.1.246-.053.37-.053,2.714,0,5.428-.007,8.142,0,.312,0,.462-.059.41-.4a3.569,3.569,0,0,1-.006-.512c.016-.131.143-.146.222-.211a.343.343,0,0,0,.15-.361.348.348,0,0,0-.323-.266,3.18,3.18,0,0,0-.416-.013q-4,0-8,0c-.185,0-.389.052-.544-.11.112-.1.246-.053.37-.053,2.726,0,5.453-.006,8.179,0,.292,0,.379-.073.376-.372q-.024-2.021,0-4.041c0-.27-.079-.339-.343-.338q-4.106.013-8.211,0c-.124,0-.258.042-.37-.055.155-.162.359-.113.545-.113q3.99-.006,7.981,0c.757,0,.8-.044.8-.8q0-2.933,0-5.865a2.478,2.478,0,0,0-.017-.416.368.368,0,0,0-.336-.333,3.164,3.164,0,0,0-.448-.016q-3.99,0-7.981,0c-.186,0-.389.048-.545-.113.112-.1.246-.053.369-.053q4.07,0,8.14,0c.4,0,.387,0,.227-.366-.094-.214-.288-.341-.4-.536.181-.006.362-.019.543-.017A1.43,1.43,0,0,1,39.535,5.66q0,8.144,0,16.288a1.422,1.422,0,0,1-1.386,1.5c-.33.025-.662.018-.993.018q-13.386,0-26.772,0a.863.863,0,0,1-.379-.03c.149,0,.3-.013.448-.013q13.225,0,26.451.007c.675,0,.761-.105,1.069-.734a2.335,2.335,0,0,0,.088-.24c.048-.118.169-.157.253-.237a.335.335,0,0,0,.119-.344.34.34,0,0,0-.3-.255,2.728,2.728,0,0,0-.447-.018q-4,0-8,0c-.185,0-.389.052-.544-.11.112-.1.246-.053.37-.053,2.714,0,5.428-.007,8.142,0,.312,0,.462-.059.41-.4a3.573,3.573,0,0,1-.006-.512c.016-.131.143-.146.222-.211a.342.342,0,0,0,.15-.361.348.348,0,0,0-.323-.266,3.18,3.18,0,0,0-.416-.013q-4,0-8,0c-.185,0-.389.052-.544-.11" transform="translate(-7.649 -3.175)" fill="#fe996b"/>
        <path id="Trazado_129139" data-name="Trazado 129139" d="M10.256,17.858a.938.938,0,0,1-.059-.988,1.316,1.316,0,0,0,.3-1.038c-.012-1.08-.007-2.159,0-3.239,0-.536.062-.6.584-.6q7.008,0,14.016,0a.746.746,0,0,1,.465.085.7.7,0,0,1,.091.461q0,5.634,0,11.267a.725.725,0,0,1-.086.462c-.21.066-.277-.116-.365-.23A3.284,3.284,0,0,0,23.571,22.9a2.819,2.819,0,0,0-.883-.13q-3.892.005-7.785,0a3.258,3.258,0,0,0-3.115,2.4,3.463,3.463,0,0,0-.132.724.5.5,0,0,0,.323.563,1.208,1.208,0,0,0,.476.041H24.993c.621,0,.768.189.643.8a.294.294,0,0,1-.3.271c-.117.006-.235.006-.352.006q-6.926,0-13.851,0a.983.983,0,0,1-.533-.063.844.844,0,0,1-.1-.586q0-4.007,0-8.013a1.591,1.591,0,0,0-.241-1.064" transform="translate(-7.711 -9.168)" fill="#fefefe"/>
        <path id="Trazado_129140" data-name="Trazado 129140" d="M24.082,9.216c-.106-.007-.212-.02-.318-.021q-7.151,0-14.3-.007c-.257,0-.339.046-.335.323.017,1.293,0,2.587.01,3.88a.532.532,0,0,1-.4.6c-.427-.034-.561-.174-.561-.605q0-2.277,0-4.554c0-.437.162-.6.6-.6q8.546,0,17.093,0c.434,0,.594.167.594.605q0,8.082,0,16.163c0,.437-.161.6-.592.617-.064,0-.128,0-.192,0H8.964c-.686,0-.792-.107-.792-.8q0-4.6,0-9.2c0-.49.15-.64.62-.629a.562.562,0,0,1,.344.617q-.007,4.337,0,8.674c0,.116.014.232.022.348a.59.59,0,0,0,.314.029q7.138,0,14.275-.006c.455,0,.912-.083,1.371-.071.188,0,.272-.092.271-.275,0-.1,0-.193,0-.289q0-7.042,0-14.083c0-.6,0-.6-.6-.6-.24,0-.5.065-.712-.108" transform="translate(-6.248 -6.295)"/>
        <path id="Trazado_129141" data-name="Trazado 129141" d="M90.232,8.257l7.6-.01c.417,0,.834,0,1.251,0,.4,0,.578.165.578.554q0,3.287,0,6.574c0,.406-.18.559-.643.56q-3.591,0-7.183,0c-.534,0-1.068-.011-1.6-.017a.567.567,0,0,1-.326-.57q.007-3.26,0-6.521a.565.565,0,0,1,.326-.569" transform="translate(-68.736 -6.304)"/>
        <path id="Trazado_129142" data-name="Trazado 129142" d="M90.242,77.743l7.473-.01H99c.424,0,.621.117.668.4s-.122.465-.508.582c-.127-.006-.255-.018-.382-.018H90.493a.5.5,0,0,1-.557-.379.483.483,0,0,1,.307-.568" transform="translate(-68.747 -59.429)" fill="#010100"/>
        <path id="Trazado_129143" data-name="Trazado 129143" d="M90.242,61.393l7.473-.01H99.03c.393,0,.59.123.636.4s-.125.469-.508.579c-.373-.005-.745-.015-1.118-.015q-3.646,0-7.291,0h-.256a.5.5,0,0,1-.557-.379.483.483,0,0,1,.307-.568" transform="translate(-68.747 -46.929)" fill="#010100"/>
        <path id="Trazado_129144" data-name="Trazado 129144" d="M90.242,69.568l7.473-.01H99.03c.393,0,.59.123.636.4s-.125.469-.508.579c-.373-.005-.745-.015-1.118-.015q-3.646,0-7.291,0h-.256a.5.5,0,0,1-.557-.379.483.483,0,0,1,.307-.568" transform="translate(-68.747 -53.179)" fill="#010100"/>
        <path id="Trazado_129145" data-name="Trazado 129145" d="M16.675,61.139a.567.567,0,0,1-.326-.6,3.4,3.4,0,0,1,3.139-3.264c1.407-.057,2.818-.023,4.227-.026,1.1,0,2.2.024,3.3-.007a3.564,3.564,0,0,1,3.271,1.635.406.406,0,0,1,.2.2,3.344,3.344,0,0,1,.391,1.475c.009.458-.191.636-.642.609-.1-.005-.192,0-.289,0H17.026a1.207,1.207,0,0,1-.35-.017" transform="translate(-12.499 -43.762)"/>
        <path id="Trazado_129146" data-name="Trazado 129146" d="M32.958,25.057A4.327,4.327,0,1,1,37.273,20.7a4.332,4.332,0,0,1-4.315,4.358" transform="translate(-21.876 -12.541)"/>
        <path id="Trazado_129147" data-name="Trazado 129147" d="M13.625,26.788c.149.006.3.018.447.018H26.984c.065,0,.128,0,.192,0,.391-.017.562-.194.555-.581a3.646,3.646,0,0,0-.5-1.7c.086-.115.046-.248.046-.372q0-5.911,0-11.822c.416-.007.831-.011,1.247-.023.121,0,.181.031.167.161a1.807,1.807,0,0,0,0,.192q0,7.374.006,14.749c0,.282-.056.37-.359.37q-7.823-.014-15.646-.006c-.113,0-.234.044-.339-.036.523,0,1.047-.008,1.571-.008q6.476,0,12.952.007c.318,0,.461-.069.4-.4a1.268,1.268,0,0,1,0-.288c.01-.155-.064-.212-.211-.2-.085.005-.171,0-.256,0q-6.4,0-12.791,0c-.134,0-.279.048-.4-.056" transform="translate(-9.449 -9.411)" fill="#fef6cb"/>
        <path id="Trazado_129148" data-name="Trazado 129148" d="M95.915,15.181c0,.877-.007,1.754.005,2.63,0,.214-.059.272-.267.266-.47-.015-.941-.013-1.411,0-.188,0-.258-.036-.256-.244q.013-2.646,0-5.293c0-.2.057-.252.251-.247.481.014.963.016,1.443,0,.212-.008.241.073.24.258-.009.877,0,1.754,0,2.63" transform="translate(-71.855 -9.398)" fill="#fee78b"/>
        <path id="Trazado_129149" data-name="Trazado 129149" d="M120.983,15.214c0,.866-.008,1.732.005,2.6,0,.214-.059.273-.267.266-.47-.014-.941-.013-1.411,0-.189,0-.258-.036-.256-.244q.013-2.646,0-5.293c0-.2.057-.252.251-.246.481.013.963.016,1.443,0,.212-.008.241.073.239.258-.008.887,0,1.775,0,2.662" transform="translate(-91.02 -9.399)" fill="#fee78b"/>
        <path id="Trazado_129150" data-name="Trazado 129150" d="M107.34,20.366c.277.03.727-.148.917.069.166.19.053.629.054.959,0,.287.1.672-.048.835-.17.19-.563.05-.859.06-.32.01-.64,0-.961,0-.136,0-.187-.043-.186-.183q.01-.785,0-1.569c0-.147.061-.179.191-.176.277.006.555,0,.892,0" transform="translate(-81.237 -15.539)" fill="#febd3b"/>
        <path id="Trazado_129151" data-name="Trazado 129151" d="M107.23,12.3h.288c.764,0,.761,0,.71.776-.008.132-.037.191-.18.189a13.7,13.7,0,0,1-1.7-.022c-.384-.053-.111-.448-.175-.681-.034-.126-.045-.28.187-.267.288.017.577,0,.865,0" transform="translate(-81.15 -9.403)" fill="#fdd25d"/>
        <path id="Trazado_129152" data-name="Trazado 129152" d="M107.142,33.715h-.352c-.719,0-.812-.115-.687-.834.016-.093.045-.129.138-.129.588,0,1.175,0,1.763,0,.011,0,.025,0,.032,0,.266.212.061.5.121.749.032.132-.01.221-.181.215-.277-.011-.555,0-.833,0" transform="translate(-81.084 -25.04)" fill="#fdd25d"/>
        <path id="Trazado_129153" data-name="Trazado 129153" d="M20.78,63.323A2.406,2.406,0,0,1,22.824,61.4a3.024,3.024,0,0,1,.32-.021q3.591,0,7.181,0c.064,0,.127.012.191.018A2.441,2.441,0,0,1,31.76,63.09c.065.225-.057.271-.257.27-.993-.006-1.986,0-2.979,0q-3.7,0-7.4,0a.6.6,0,0,1-.344-.033" transform="translate(-15.887 -46.925)" fill="#5e6ff1"/>
        <path id="Trazado_129154" data-name="Trazado 129154" d="M20.78,63.356l10.566,0c.393,0,.378,0,.276-.366a3.2,3.2,0,0,0-1.106-1.559,2.455,2.455,0,0,1,2.569,1.654c.09.263.036.324-.237.323-3.795,0-7.589,0-11.384,0a1.419,1.419,0,0,1-.684-.049" transform="translate(-15.887 -46.958)" fill="#4855ce"/>
        <path id="Trazado_129155" data-name="Trazado 129155" d="M37.194,27A3.321,3.321,0,0,1,33.16,25.54a3.363,3.363,0,0,1,3.892-4.908,1.115,1.115,0,0,1,.142.068,1.217,1.217,0,0,1,.451.683,7.083,7.083,0,0,1-.066,5.076,1.021,1.021,0,0,1-.385.537" transform="translate(-25.002 -15.658)" fill="#5e70f1"/>
        <path id="Trazado_129156" data-name="Trazado 129156" d="M51.778,27.7a6.483,6.483,0,0,0,0-6.3,3.185,3.185,0,0,1,2.154,2.406,3.356,3.356,0,0,1-2,3.857.9.9,0,0,1-.154.034" transform="translate(-39.586 -16.366)" fill="#4856ce"/>
      </g>
    </g>
  </g>
</svg>
