<svg xmlns="http://www.w3.org/2000/svg" xmlns:xlink="http://www.w3.org/1999/xlink" width="70" height="85" viewBox="0 0 70 85">
  <defs>
    <clipPath id="clip-path">
      <rect id="Rect치ngulo_37630" data-name="Rect치ngulo 37630" width="46.385" height="46.861" fill="none"/>
    </clipPath>
  </defs>
  <g id="_104" data-name="104" transform="translate(-301 -1551)">
    <g id="Grupo_156382" data-name="Grupo 156382" transform="translate(-239 -156)">
      <rect id="Rect치ngulo_36766" data-name="Rect치ngulo 36766" width="70" height="85" rx="12" transform="translate(540 1707)" fill="#0c487b"/>
    </g>
    <g id="Grupo_156899" data-name="Grupo 156899" transform="translate(301.089 1528.999)">
      <path id="Trazado_126894" data-name="Trazado 126894" d="M17.182,127.264c-.8.178-.987-.2-.979-.947.02-1.875-.011-1.908-1.952-1.9-.722,0-.946-.22-.932-.934.013-.666.135-.975.9-.972,1.946.007,2-.032,1.975-1.974-.009-.879.422-.9,1.073-.9s.989.1.989.883c0,1.967.04,2,1.962,1.995.743,0,.919.265.921.955s-.174.955-.918.951c-1.959-.011-2.006.025-1.963,1.881.02.861-.3,1.113-1.079.962" transform="translate(-8.318 -57.79)" fill="#29c4bb"/>
      <path id="Trazado_126895" data-name="Trazado 126895" d="M214.9,151.177c.717-.137,1.114.1,1,.912-.1.679.136,1.058.888.941s1,.155,1.011.947c.006.83-.333,1.021-1.04.926-.675-.091-.89.2-.876.875.021,1.053-.63,1.457-1.649,1.138-.483-.151-.378-.537-.347-.842.085-.832-.105-1.341-1.087-1.175-.76.129-.807-.347-.8-.931s.025-1.055.8-.936c.831.128,1.224-.175,1.086-1.053-.132-.839.406-.875,1.026-.8" transform="translate(-153.33 -78.505)" fill="#29c4bb"/>
      <path id="Trazado_126896" data-name="Trazado 126896" d="M213.215,70.517c.185.8-.181,1.073-.931.947-.812-.137-1.144.2-1,1,.139.781-.2.968-.956.975-.781.007-1.075-.223-.939-.983.145-.809-.192-1.143-1-.992-.833.156-.906-.279-.937-.98-.037-.822.282-1.037,1-.912.779.136,1.069-.186.937-.947-.127-.728.108-1.022.919-.993.715.025,1.127.127.975.946s.2,1.127,1,.993c.751-.126,1.116.143.929.943" transform="translate(-158.216 -16.577)" fill="#010000"/>
      <path id="Trazado_126897" data-name="Trazado 126897" d="M57.532,187.9c.175.746-.193,1.02-.939.886-.876-.158-1.083.3-.957,1.035.139.821-.258.948-.979.943-.689,0-1.059-.16-.914-.9.19-.975-.3-1.214-1.138-1.071-.862.147-.822-.4-.825-.987,0-.572.012-1.057.791-.9,1.047.207,1.315-.3,1.173-1.233-.136-.9.548-.639,1-.666.483-.029,1.022-.091.881.687-.174.962.163,1.408,1.181,1.213.85-.163.746.43.721,1" transform="translate(-17.924 -94.219)" fill="#010000"/>
      <path id="Trazado_126898" data-name="Trazado 126898" d="M121.806,18.657c-.2-.852.271-1.017.967-.914.724.107,1.009-.192.9-.905s.1-1.037.922-1.02c.754.015,1.1.211.968.985-.134.794.232,1.052.977.94.69-.1,1.035.062,1.039.9,0,.863-.321,1.095-1.073.975-.795-.127-1.064.235-.941.977.138.832-.308.928-1.008.942-.748.015-.992-.266-.882-.952.12-.753-.158-1.1-.943-.965-.767.128-1.094-.187-.923-.966" transform="translate(-106.064 17.184)" fill="#29c4bb"/>
    </g>
    <g id="Grupo_157592" data-name="Grupo 157592" transform="translate(313.567 1568.064)">
      <g id="Grupo_157592-2" data-name="Grupo 157592" clip-path="url(#clip-path)">
        <path id="Trazado_130310" data-name="Trazado 130310" d="M52.149,0a1.126,1.126,0,0,1,.42,1.026c-.022.774,0,1.55-.009,2.325-.005.526-.274.846-.686.846s-.681-.32-.686-.846c-.007-.775.014-1.55-.008-2.325A1.12,1.12,0,0,1,51.6,0Z" transform="translate(-28.681)" fill="#020202"/>
        <path id="Trazado_130311" data-name="Trazado 130311" d="M15.69,23.745a.767.767,0,0,1,.784-.828c.287-.022.572-.127.858-.122a1.335,1.335,0,0,0,1.322-.949c.891-1.9,1.855-3.763,2.773-5.649a1.886,1.886,0,0,1,3.529-.006c.979,2.009,1.986,4,2.963,6.014a.86.86,0,0,0,.72.534c2.187.309,4.371.637,6.56.936a1.951,1.951,0,0,1,1.782,1.28,1.9,1.9,0,0,1-.643,2.134c-.429.4-.819.851-1.254,1.307,1.117.258,2.225.566,3.353.757a4.483,4.483,0,0,1,2.647,1.433c1.6,1.7,3.281,3.318,4.936,4.964a.834.834,0,0,1,.33.883c-.113.364-.428.441-.746.513-1.618.364-3.233.742-4.856,1.083-.34.072-.432.192-.431.531.012,3.736.008,7.473.007,11.21a1.683,1.683,0,0,1-1.535,1.966Q31.2,53.472,23.615,55.2a1.79,1.79,0,0,1-.813.009q-4.093-.938-8.187-1.87a.758.758,0,0,1-.664-.84c.065-.507.406-.736.988-.622.688.135,1.371.3,2.055.455,1.592.36,3.18.74,4.775,1.084.527.113.554.093.555-.438,0-1.815,0-3.631,0-5.446a3.11,3.11,0,0,1,.065-.773.886.886,0,0,1,.806-.754.905.905,0,0,1,.809.807,3.518,3.518,0,0,1,.053.774q0,2.677,0,5.354c0,.582.036.61.6.478,4.486-1.039,8.98-2.048,13.467-3.087.643-.149.669-.18.669-.817q0-5.17,0-10.341c0-.542-.007-.549-.543-.436-.731.153-1.456.337-2.189.483a.822.822,0,0,1-1.094-.814.917.917,0,0,1,.826-.793c1.847-.4,3.688-.83,5.533-1.241.89-.2,1.781-.39,2.661-.608.021-.182-.11-.236-.189-.316-1.335-1.339-2.678-2.669-4-4.016a.882.882,0,0,0-.932-.275c-4.472,1.025-8.942,2.058-13.417,3.069a2.089,2.089,0,0,0-.556.166c0,.164.119.227.2.309,1.313,1.317,2.635,2.626,3.939,3.951a.906.906,0,0,0,.979.279c.722-.187,1.45-.358,2.183-.5.679-.133.938-.005,1.233.563a.823.823,0,0,1-.629.933c-1.127.33-2.282.549-3.432.787a1.053,1.053,0,0,1-.962-.424q-1.958-1.956-3.916-3.913a1.363,1.363,0,0,0-.4-.342.958.958,0,0,0-.043.48q-.005,3.226,0,6.451a2.534,2.534,0,0,1-.076.771.811.811,0,0,1-.683.651.821.821,0,0,1-.9-.725,2.818,2.818,0,0,1-.056-.726q0-3.2,0-6.4a1.461,1.461,0,0,0-.034-.5,1.061,1.061,0,0,0-.4.328c-1.284,1.279-2.574,2.552-3.84,3.849a1.411,1.411,0,0,1-1.477.422c-2.359-.543-4.72-1.081-7.087-1.594-.506-.113-1.013-.218-1.517-.335-.284-.066-.4.035-.393.319.006.228,0,.457,0,.685q0,4.869,0,9.738c0,.708.016.718.7.887.414.1.832.188,1.244.3.7.147,1.393.3,2.083.483.555.144.745.476.608.952-.3.542-.462.611-1.072.471L7.5,51.7A1.623,1.623,0,0,1,6.06,49.9q0-5.651.006-11.3c0-.342-.062-.493-.439-.571-1.639-.338-3.269-.721-4.9-1.09-.3-.069-.594-.165-.695-.512a.81.81,0,0,1,.308-.847Q3.225,32.7,6.1,29.818a1.363,1.363,0,0,1,.7-.387c1.5-.331,2.99-.681,4.492-1.026-.469-.495-.918-.98-1.38-1.452a1.821,1.821,0,0,1-.545-1.873,1.712,1.712,0,0,1,1.378-1.311c.777-.149,1.564-.247,2.348-.363a.722.722,0,0,1,.868.558c.118.485-.107.812-.658.918-.629.121-1.266.188-1.9.284-.228.035-.48.044-.558.313-.072.244.12.394.266.545,1.519,1.563,3.159,3,4.666,4.578a1.892,1.892,0,0,1,.376.4,1.617,1.617,0,0,0,1.308.778c1.655.352,3.3.735,4.948,1.129a3.257,3.257,0,0,0,1.572,0q2.624-.628,5.26-1.2a1.215,1.215,0,0,0,.922-.653c1.6-1.678,3.33-3.22,4.953-4.873.195-.2.51-.369.41-.709s-.465-.286-.738-.331c-2.046-.333-4.1-.618-6.154-.886a2.49,2.49,0,0,1-2.114-1.5c-.882-1.859-1.834-3.684-2.714-5.544-.052-.11-.107-.219-.165-.327-.1-.191-.2-.389-.465-.378-.233.009-.338.185-.429.364-.255.5-.52,1-.752,1.516-.721,1.6-1.546,3.147-2.328,4.715a1.9,1.9,0,0,1-1.547,1.074c-.5.1-1,.184-1.512.239a.724.724,0,0,1-.92-.666" transform="translate(0 -8.392)"/>
        <path id="Trazado_130312" data-name="Trazado 130312" d="M21.446,65.273q2.429.531,4.858,1.063c.773.17,1.552.319,2.314.529a1.048,1.048,0,0,0,1.139-.341c1.39-1.412,2.8-2.808,4.2-4.209.1-.105.215-.2.389-.371.011.23.025.386.025.543q0,3.59,0,7.181c0,.68.164.869.78.944a3.734,3.734,0,0,1-.09,1.808c-.579.182-.689.322-.69.958,0,2.073-.01,4.146.006,6.219,0,.381-.077.447-.458.357-2.339-.551-4.686-1.072-7.03-1.6-.612-.139-.776-.068-1.07.472l-1.731-.429a.785.785,0,0,0-.737-.86c-.648-.128-1.288-.3-1.931-.455-.305-.194-.235-.508-.236-.787q-.01-3.773,0-7.546c0-.975-.01-1.951.007-2.927,0-.206-.06-.473.256-.546" transform="translate(-11.869 -34.715)" fill="#e1996c"/>
        <path id="Trazado_130313" data-name="Trazado 130313" d="M29.291,34.927c.293.536.447.607,1.058.515.464-.07.93-.127,1.395-.19a4.265,4.265,0,0,0,.8,1.968,10.463,10.463,0,0,0,8.183,5.1,9.89,9.89,0,0,0,2.6-.113c.178-.029.362-.087.519.065a1.034,1.034,0,0,1-.924.731c-1.949.422-3.891.873-5.834,1.321a1.24,1.24,0,0,1-.582,0q-3.092-.712-6.188-1.408c-.151-.034-.3-.057-.368-.226a2.629,2.629,0,0,0-.709-.884l-4.651-4.538c-.186-.181-.4-.352-.293-.661s.359-.335.625-.371c.619-.083,1.237-.178,1.855-.268.572-.084.724-.243.785-.818l1.728-.218" transform="translate(-13.601 -19.574)" fill="#fde35a"/>
        <path id="Trazado_130314" data-name="Trazado 130314" d="M18.451,23.159a.673.673,0,0,1-1.061.542c-.78-.605-1.533-1.247-2.27-1.9a.675.675,0,0,1,.859-1.031c.773.614,1.521,1.26,2.273,1.9a.605.605,0,0,1,.2.491" transform="translate(-8.351 -11.557)"/>
        <path id="Trazado_130315" data-name="Trazado 130315" d="M67.565,14.279a.87.87,0,0,1-.21.494c-.568.674-1.127,1.354-1.7,2.025a.691.691,0,1,1-1.06-.871c.569-.693,1.148-1.377,1.728-2.06a.655.655,0,0,1,.811-.228.681.681,0,0,1,.429.64" transform="translate(-36.083 -7.61)"/>
        <path id="Trazado_130316" data-name="Trazado 130316" d="M86.075,21.353a.812.812,0,0,1-.316.583c-.677.564-1.348,1.136-2.03,1.7a.69.69,0,1,1-.873-1.057c.682-.582,1.372-1.155,2.062-1.728a.66.66,0,0,1,.762-.115.7.7,0,0,1,.394.621" transform="translate(-46.255 -11.577)"/>
        <path id="Trazado_130317" data-name="Trazado 130317" d="M37.049,16.4a.655.655,0,0,1-.362.618.563.563,0,0,1-.72-.069c-.684-.773-1.357-1.557-1.993-2.369A.669.669,0,0,1,35,13.742c.667.747,1.3,1.526,1.942,2.3a.506.506,0,0,1,.109.358" transform="translate(-18.973 -7.59)"/>
        <path id="Trazado_130318" data-name="Trazado 130318" d="M52.746,72.521a7.392,7.392,0,0,1,.09-1.808c.5-.123.6-.486.6-.941-.006-2.38,0-4.76,0-7.14v-.509c.226.008.3.18.411.289,1.4,1.388,2.795,2.772,4.171,4.178a1.125,1.125,0,0,0,1.216.368c.971-.256,1.96-.444,2.939-.667.544-.124.693-.321.707-.894a1.125,1.125,0,0,1,.666-.244,2.649,2.649,0,0,0,1.079-.4c.059.69.346.9,1.029.748.832-.185,1.665-.366,2.494-.563.269-.064.365-.029.364.286q-.017,5.535,0,11.071a.457.457,0,0,1-.425.524Q60.941,78.44,53.8,80.083c-.363.084-.369-.062-.368-.334q.009-3.134,0-6.268c0-.637-.109-.777-.688-.96" transform="translate(-29.553 -34.815)" fill="#f3a973"/>
        <path id="Trazado_130319" data-name="Trazado 130319" d="M53.2,32.838a22.33,22.33,0,0,1-2.444.192,10.707,10.707,0,0,1-9.729-6.749c-.073-.184-.146-.337.069-.464a2.042,2.042,0,0,0,1.542-1.223c.979-2.011,1.974-4.014,2.963-6.02.115-.233.212-.479.539-.482s.43.238.546.473c.982,1.992,1.974,3.98,2.94,5.979a2.124,2.124,0,0,0,1.74,1.293c2.219.3,4.433.641,6.65.96.266.038.52.075.624.372s-.084.458-.261.63l-5.18,5.04" transform="translate(-22.948 -10.139)" fill="#feee91"/>
        <path id="Trazado_130320" data-name="Trazado 130320" d="M66.364,58.673a.533.533,0,0,1-.472.4c-.428.049-.849.164-1.273.251a.808.808,0,0,0-1.06-.447c-.844.2-1.692.387-2.536.584a.424.424,0,0,1-.459-.085c-1.55-1.553-3.107-3.1-4.725-4.714l2.627-.6L70.4,51.33c.16-.036.3-.113.459.045,1.57,1.577,3.147,3.147,4.785,4.784l-2.971.675c-1.871.423-3.74.852-5.613,1.263a.819.819,0,0,0-.693.576" transform="translate(-31.293 -28.738)" fill="#fabc7f"/>
        <path id="Trazado_130321" data-name="Trazado 130321" d="M14.618,52.408c1.528.339,3.058.673,4.585,1.019q3.849.87,7.7,1.753c.088.02.173.055.265.084-.033.175-.177.247-.278.349-1.388,1.393-2.785,2.776-4.164,4.178a.768.768,0,0,1-.832.244c-3.973-.91-7.952-1.8-11.929-2.69-.1-.023-.2-.06-.307-.091-.04-.2.118-.3.229-.415.337-.349.676-.7,1.029-1.03,1.059-1,1.994-2.12,3.039-3.133.186-.181.36-.386.666-.269" transform="translate(-5.407 -29.351)" fill="#fabc7f"/>
        <path id="Trazado_130322" data-name="Trazado 130322" d="M19.047,68.918c-.168.122-.112.3-.113.463q0,5.43,0,10.859a.8.8,0,0,0,.09.484c-.578-.125-1.156-.255-1.736-.372-.289-.058-.388-.209-.388-.507q.013-5.549,0-11.1c0-.21.005-.353.29-.277.615.163,1.236.3,1.855.449" transform="translate(-9.47 -38.36)" fill="#d38b64"/>
        <path id="Trazado_130323" data-name="Trazado 130323" d="M11.91,51.817a.558.558,0,0,0-.409.165q-2.274,2.344-4.553,4.682l-2.13-.454c.018-.181.153-.248.245-.341,1.44-1.444,2.887-2.882,4.32-4.333a.558.558,0,0,1,.632-.185c.625.178,1.263.313,1.9.466" transform="translate(-2.7 -28.76)" fill="#f3a973"/>
        <path id="Trazado_130324" data-name="Trazado 130324" d="M73.575,49.694l1.4-1.5c.1-.111.22-.059.339-.032.77.178,1.54.352,2.324.6l-4.066.93" transform="translate(-41.233 -26.97)" fill="#f1a872"/>
        <path id="Trazado_130325" data-name="Trazado 130325" d="M22.737,48.718c.74-.167,1.484-.321,2.219-.51a.492.492,0,0,1,.564.138c.416.457.847.9,1.306,1.385l-4.092-.939c0-.025,0-.049,0-.073" transform="translate(-12.74 -26.999)" fill="#f1a872"/>
      </g>
    </g>
  </g>
</svg>
