<svg xmlns="http://www.w3.org/2000/svg" xmlns:xlink="http://www.w3.org/1999/xlink" width="70" height="85" viewBox="0 0 70 85">
  <defs>
    <clipPath id="clip-path">
      <rect id="Rectángulo_37633" data-name="Rectángulo 37633" width="27.203" height="27.559" fill="none"/>
    </clipPath>
    <clipPath id="clip-path-2">
      <rect id="Rectángulo_37634" data-name="Rectángulo 37634" width="23.203" height="22.163" transform="translate(0 0)" fill="none"/>
    </clipPath>
  </defs>
  <g id="_106" data-name="106" transform="translate(-301 -1551)">
    <g id="Grupo_156382" data-name="Grupo 156382" transform="translate(-239 -156)">
      <rect id="Rectángulo_36766" data-name="Rectángulo 36766" width="70" height="85" rx="12" transform="translate(540 1707)" fill="#0c487b"/>
    </g>
    <g id="Grupo_156899" data-name="Grupo 156899" transform="translate(301.089 1528.999)">
      <path id="Trazado_126894" data-name="Trazado 126894" d="M17.182,127.264c-.8.178-.987-.2-.979-.947.02-1.875-.011-1.908-1.952-1.9-.722,0-.946-.22-.932-.934.013-.666.135-.975.9-.972,1.946.007,2-.032,1.975-1.974-.009-.879.422-.9,1.073-.9s.989.1.989.883c0,1.967.04,2,1.962,1.995.743,0,.919.265.921.955s-.174.955-.918.951c-1.959-.011-2.006.025-1.963,1.881.02.861-.3,1.113-1.079.962" transform="translate(-8.318 -57.79)" fill="#29c4bb"/>
      <path id="Trazado_126895" data-name="Trazado 126895" d="M214.9,151.177c.717-.137,1.114.1,1,.912-.1.679.136,1.058.888.941s1,.155,1.011.947c.006.83-.333,1.021-1.04.926-.675-.091-.89.2-.876.875.021,1.053-.63,1.457-1.649,1.138-.483-.151-.378-.537-.347-.842.085-.832-.105-1.341-1.087-1.175-.76.129-.807-.347-.8-.931s.025-1.055.8-.936c.831.128,1.224-.175,1.086-1.053-.132-.839.406-.875,1.026-.8" transform="translate(-153.33 -78.505)" fill="#29c4bb"/>
      <path id="Trazado_126896" data-name="Trazado 126896" d="M213.215,70.517c.185.8-.181,1.073-.931.947-.812-.137-1.144.2-1,1,.139.781-.2.968-.956.975-.781.007-1.075-.223-.939-.983.145-.809-.192-1.143-1-.992-.833.156-.906-.279-.937-.98-.037-.822.282-1.037,1-.912.779.136,1.069-.186.937-.947-.127-.728.108-1.022.919-.993.715.025,1.127.127.975.946s.2,1.127,1,.993c.751-.126,1.116.143.929.943" transform="translate(-158.216 -16.577)" fill="#010000"/>
      <path id="Trazado_126897" data-name="Trazado 126897" d="M57.532,187.9c.175.746-.193,1.02-.939.886-.876-.158-1.083.3-.957,1.035.139.821-.258.948-.979.943-.689,0-1.059-.16-.914-.9.19-.975-.3-1.214-1.138-1.071-.862.147-.822-.4-.825-.987,0-.572.012-1.057.791-.9,1.047.207,1.315-.3,1.173-1.233-.136-.9.548-.639,1-.666.483-.029,1.022-.091.881.687-.174.962.163,1.408,1.181,1.213.85-.163.746.43.721,1" transform="translate(-17.924 -94.219)" fill="#010000"/>
      <path id="Trazado_126898" data-name="Trazado 126898" d="M121.806,18.657c-.2-.852.271-1.017.967-.914.724.107,1.009-.192.9-.905s.1-1.037.922-1.02c.754.015,1.1.211.968.985-.134.794.232,1.052.977.94.69-.1,1.035.062,1.039.9,0,.863-.321,1.095-1.073.975-.795-.127-1.064.235-.941.977.138.832-.308.928-1.008.942-.748.015-.992-.266-.882-.952.12-.753-.158-1.1-.943-.965-.767.128-1.094-.187-.923-.966" transform="translate(-106.064 17.184)" fill="#29c4bb"/>
    </g>
    <g id="Grupo_157598" data-name="Grupo 157598">
      <g id="Grupo_157595" data-name="Grupo 157595" transform="translate(324 1590.5)">
        <g id="Grupo_157595-2" data-name="Grupo 157595" clip-path="url(#clip-path)">
          <path id="Trazado_130374" data-name="Trazado 130374" d="M24.142,8.657c.057-.321.165-.421.479-.417a9.115,9.115,0,0,1,1.812.2A.882.882,0,0,1,27.161,9.6a6.131,6.131,0,0,1-4.238,4.495c-.281.089-.571.146-.859.21-.094.021-.161.031-.17.155a19.869,19.869,0,0,1-.822,3.686,18.85,18.85,0,0,0-.543,2.626.77.77,0,0,0,.05.386,4.645,4.645,0,0,1-.51,4.663,4.229,4.229,0,0,1-2.952,1.627,30.9,30.9,0,0,1-3.866.11c-.394.008-.789-.008-1.183,0a.438.438,0,0,1-.5-.378c.058-.286.235-.384.522-.382,1.256.008,2.511.009,3.767,0a5.312,5.312,0,0,0,2-.311.112.112,0,0,0,.119-.042l0,0a2.614,2.614,0,0,0,1.079-.627A3.549,3.549,0,0,0,20.172,22.6a3.953,3.953,0,0,0-2.689-3.432c-.09-.039-.178-.084-.269-.117a10.215,10.215,0,0,0-2.427-.555,10.2,10.2,0,0,0-5.357.788A4.1,4.1,0,0,0,7.1,24.034a3.393,3.393,0,0,0,2.973,2.648c.27.048.425.165.452.439a.4.4,0,0,1-.48.324A4.21,4.21,0,0,1,6.4,24.356a4.663,4.663,0,0,1,.161-3.03,1.732,1.732,0,0,0,.076-.938,34.256,34.256,0,0,0-.963-3.932,9.441,9.441,0,0,1-.332-1.819c-.023-.277-.143-.328-.364-.372A6.091,6.091,0,0,1,1.2,12,6.462,6.462,0,0,1,.033,9.573a.879.879,0,0,1,.7-1.127,7.4,7.4,0,0,1,5.048.535c.046.024.112.1.156.009.037-.075.123-.142.073-.243a.862.862,0,0,0-.077-.109A7.4,7.4,0,0,1,4.6,3.925,8.135,8.135,0,0,1,5.549.434,1.423,1.423,0,0,1,5.967,0h.377a.854.854,0,0,1,.549.686,8,8,0,0,0,.535,1.6,5.792,5.792,0,0,0,2.31,2.782.424.424,0,0,0,.42.034A8.718,8.718,0,0,1,16.6,4.922a1.3,1.3,0,0,0,1.534-.335c.129-.124.266-.241.388-.372A7.621,7.621,0,0,0,20.281.765,1.007,1.007,0,0,1,20.819,0H21.2a1.2,1.2,0,0,1,.564.667A7.908,7.908,0,0,1,21.779,7.8a4.352,4.352,0,0,1-.541.861.242.242,0,0,0-.02.334c.1.132.175,0,.248-.039a6.9,6.9,0,0,1,1.044-.412c.339-.1.435-.065.618.232a.442.442,0,0,1-.372.482,4.594,4.594,0,0,0-.8.3c-.434.209-.434.208-.307.679.012.043.023.086.034.129a12.677,12.677,0,0,1,.312,2.388,4.063,4.063,0,0,1-.026.508c-.046.265.055.292.284.235a5.422,5.422,0,0,0,4.122-3.892c.123-.4.095-.432-.334-.46A5.8,5.8,0,0,0,24.613,9a.425.425,0,0,1-.471-.339M19.991,7.065a9.725,9.725,0,0,1,.734,1c.04-.048.064-.075.084-.1.045-.067.089-.135.131-.2a6.755,6.755,0,0,0,.879-4.188,5.044,5.044,0,0,0-.394-1.717,4.191,4.191,0,0,0-.386-.937,7.92,7.92,0,0,1-2.931,4.65,8.261,8.261,0,0,1,1.883,1.5M5.79,1.8l-.035.085A.385.385,0,0,0,5.69,2.1a1.472,1.472,0,0,0-.082.194A7.651,7.651,0,0,0,5.522,5.9a6.209,6.209,0,0,0,.807,1.973c.1.168.159.167.269,0,.174-.258.372-.5.56-.749A8.427,8.427,0,0,1,9.13,5.585,6.259,6.259,0,0,1,7.212,3.517,10.435,10.435,0,0,1,6.16.913a4.4,4.4,0,0,0-.37.887M5.207,12.756a10.586,10.586,0,0,1,.415-2.827c.038-.122,0-.176-.1-.23a6.4,6.4,0,0,0-4.344-.554c-.458.032-.483.062-.346.5A5.424,5.424,0,0,0,4.957,13.5c.182.044.309.05.268-.207a4.176,4.176,0,0,1-.019-.537M16.621,5.715a7.986,7.986,0,0,0-2.428-.534c-.132-.012-.14.064-.157.16a4.416,4.416,0,0,0-.02,1.339c.082.63.289,1.237.324,1.878A2.047,2.047,0,0,1,12.619,10.9a3.676,3.676,0,0,1-.72.078,2.7,2.7,0,0,0-2.452,1.427c-.153.253-.312.5-.466.754A12.056,12.056,0,0,1,8.3,14.188a2.7,2.7,0,0,1-1.8,1.077c-.287.043-.294.152-.246.379.176.823.459,1.617.657,2.434.146.6.283,1.2.43,1.832A5.035,5.035,0,0,1,9.163,18.57c3.01-1.376,7.615-1.192,10.146.765l.583.52c.1-.434.2-.911.317-1.384a26.454,26.454,0,0,0,.966-4.338,10.164,10.164,0,0,0-.522-4.52,6.566,6.566,0,0,0-4.033-3.9M5.968,13.1c.021.264.071.754.1,1.244.01.2.1.218.257.192a2.094,2.094,0,0,0,1.376-.81c.473-.612.812-1.309,1.256-1.938a3.215,3.215,0,0,1,2.525-1.521,5.383,5.383,0,0,0,1.169-.145,1.122,1.122,0,0,0,.873-.886,3.13,3.13,0,0,0-.045-1.384,6.256,6.256,0,0,1-.2-2.523c.025-.154-.063-.164-.174-.15-.39.05-.785.076-1.169.157a7.305,7.305,0,0,0-4.7,3.006A8.063,8.063,0,0,0,5.968,13.1" transform="translate(0 -0.001)" fill="#040303"/>
          <path id="Trazado_130375" data-name="Trazado 130375" d="M40.987,107.524c-.026-.274-.181-.391-.451-.439a3.392,3.392,0,0,1-2.973-2.648,4.1,4.1,0,0,1,2.327-4.752,10.744,10.744,0,0,1,7.784-.234c.092.034.18.078.269.117.016.117.124.148.2.2a3.6,3.6,0,0,1,.9.835,4.622,4.622,0,0,1,.949,3.486,3.781,3.781,0,0,1-1.324,2.482c-.087.074-.232.116-.233.271l0,0a.1.1,0,0,0-.119.043,5.311,5.311,0,0,1-2,.311c-1.255.013-2.511.012-3.767,0-.287,0-.464.1-.522.382a7.306,7.306,0,0,1-1.041-.055m1.918-4.215a1.074,1.074,0,0,0-.183-.657.338.338,0,0,0-.6-.01,1.219,1.219,0,0,0,.009,1.333.329.329,0,0,0,.563.009,1.03,1.03,0,0,0,.208-.675m3.277,0a1.019,1.019,0,0,0-.2-.679.334.334,0,0,0-.581.009,1.219,1.219,0,0,0-.009,1.312.341.341,0,0,0,.612-.009,1.036,1.036,0,0,0,.173-.633" transform="translate(-30.461 -80.404)" fill="#fdc0b7"/>
          <path id="Trazado_130376" data-name="Trazado 130376" d="M116.143,50.53a12.672,12.672,0,0,0-.312-2.388c-.011-.043-.022-.087-.034-.129-.127-.471-.127-.47.307-.679a4.6,4.6,0,0,1,.8-.3.442.442,0,0,0,.372-.482,3.88,3.88,0,0,1,1.015-.117.425.425,0,0,0,.471.339,5.81,5.81,0,0,1,1.427.151,5.521,5.521,0,0,1-2.528,3.036,4.061,4.061,0,0,1-1.517.573" transform="translate(-94.149 -37.774)" fill="#fdbfb7"/>
          <path id="Trazado_130377" data-name="Trazado 130377" d="M46.5,41.936c-2.531-1.957-7.136-2.141-10.146-.765a5.035,5.035,0,0,0-1.822,1.341c-.147-.628-.284-1.231-.43-1.832-.2-.817-.481-1.611-.657-2.434-.049-.227-.041-.336.246-.379a2.7,2.7,0,0,0,1.8-1.077,12.084,12.084,0,0,0,.686-1.027c.154-.252.313-.5.466-.754a2.7,2.7,0,0,1,2.452-1.426,3.666,3.666,0,0,0,.721-.078,2.047,2.047,0,0,0,1.721-2.346c-.035-.64-.242-1.247-.324-1.877a4.417,4.417,0,0,1,.02-1.339c.017-.1.025-.171.157-.16a7.988,7.988,0,0,1,2.428.534c0,.084.058.123.125.159a7.191,7.191,0,0,1,1.164.809,6.7,6.7,0,0,1,2.091,3.126,10.608,10.608,0,0,1,.4,4.464,17,17,0,0,1-.654,3.162,9.375,9.375,0,0,0-.436,1.9M44.062,37.49a.593.593,0,0,0-.623.566.6.6,0,0,0,.579.615.592.592,0,0,0,.6-.558.582.582,0,0,0-.56-.623m-5.926.579a.592.592,0,0,0-1.185,0,.592.592,0,1,0,1.185,0" transform="translate(-27.19 -22.601)" fill="#e5e5e5"/>
          <path id="Trazado_130378" data-name="Trazado 130378" d="M32.011,35.661a8.063,8.063,0,0,1,1.268-4.76,7.305,7.305,0,0,1,4.7-3.006c.384-.08.779-.107,1.169-.157.111-.014.2,0,.174.15a6.256,6.256,0,0,0,.2,2.523,3.13,3.13,0,0,1,.045,1.384,1.122,1.122,0,0,1-.873.886,5.383,5.383,0,0,1-1.169.145A3.215,3.215,0,0,0,35,34.349c-.444.63-.784,1.326-1.256,1.938a2.094,2.094,0,0,1-1.375.81c-.156.026-.247.006-.257-.192-.025-.491-.075-.981-.1-1.244" transform="translate(-26.043 -22.564)" fill="#595b5d"/>
          <path id="Trazado_130379" data-name="Trazado 130379" d="M6.31,48.4a6.4,6.4,0,0,1,4.343.554c.1.054.141.108.1.23a10.593,10.593,0,0,0-.415,2.827,1.07,1.07,0,0,1-.239-.021,5.771,5.771,0,0,1-3.044-2.121A3.946,3.946,0,0,1,6.31,48.4" transform="translate(-5.134 -39.252)" fill="#fdbfb6"/>
          <path id="Trazado_130380" data-name="Trazado 130380" d="M91.839,44.269a9.375,9.375,0,0,1,.436-1.9,17,17,0,0,0,.654-3.162,10.608,10.608,0,0,0-.4-4.464,6.7,6.7,0,0,0-2.091-3.126,7.214,7.214,0,0,0-1.164-.809c-.067-.036-.122-.075-.125-.159a6.566,6.566,0,0,1,4.033,3.9,10.166,10.166,0,0,1,.522,4.52,26.5,26.5,0,0,1-.966,4.338c-.115.473-.218.949-.318,1.384l-.583-.52" transform="translate(-72.53 -24.934)" fill="#cbcbcb"/>
          <path id="Trazado_130381" data-name="Trazado 130381" d="M30.521,6.074a.384.384,0,0,1,.065-.212l.035-.085a4.4,4.4,0,0,1,.37-.887,10.43,10.43,0,0,0,1.052,2.6A6.26,6.26,0,0,0,33.96,9.562,8.431,8.431,0,0,0,31.989,11.1a.793.793,0,0,0-.177-.326,7.908,7.908,0,0,1-1.185-3.764,2.907,2.907,0,0,0-.106-.941" transform="translate(-24.831 -3.978)" fill="#ba7b52"/>
          <path id="Trazado_130382" data-name="Trazado 130382" d="M99.011,11.067a8.251,8.251,0,0,0-1.883-1.5,7.92,7.92,0,0,0,2.931-4.65,4.162,4.162,0,0,1,.386.937c0,.188-.019.375-.011.562a6.654,6.654,0,0,1-.073,1.3,7.651,7.651,0,0,1-.74,2.384,2.965,2.965,0,0,1-.61.959" transform="translate(-79.02 -4.003)" fill="#ba7c52"/>
          <path id="Trazado_130383" data-name="Trazado 130383" d="M117.81,52.671a4.061,4.061,0,0,0,1.517-.573,5.52,5.52,0,0,0,2.528-3.036c.429.028.457.063.334.46a5.422,5.422,0,0,1-4.122,3.892c-.229.057-.33.031-.284-.235a4.061,4.061,0,0,0,.027-.508" transform="translate(-95.816 -39.915)" fill="#fab0a5"/>
          <path id="Trazado_130384" data-name="Trazado 130384" d="M4.481,49.046a3.947,3.947,0,0,0,.748,1.469,5.771,5.771,0,0,0,3.044,2.121,1.069,1.069,0,0,0,.239.021,4.244,4.244,0,0,0,.019.537c.04.257-.086.252-.268.207a5.424,5.424,0,0,1-4.127-3.86c-.137-.433-.112-.464.346-.5" transform="translate(-3.305 -39.902)" fill="#fbb1a6"/>
          <path id="Trazado_130385" data-name="Trazado 130385" d="M107.228,15.156a2.965,2.965,0,0,0,.61-.959,7.651,7.651,0,0,0,.74-2.384,6.654,6.654,0,0,0,.073-1.3c-.008-.187.007-.375.011-.562a5.039,5.039,0,0,1,.394,1.717,6.755,6.755,0,0,1-.879,4.188c-.042.069-.086.137-.131.2-.02.029-.044.056-.084.1a9.736,9.736,0,0,0-.734-1" transform="translate(-87.237 -8.092)" fill="#ac653d"/>
          <path id="Trazado_130386" data-name="Trazado 130386" d="M29.026,11.24a2.907,2.907,0,0,1,.106.941,7.908,7.908,0,0,0,1.185,3.764.793.793,0,0,1,.177.326c-.188.249-.386.491-.56.749-.109.162-.166.163-.269,0a6.214,6.214,0,0,1-.807-1.973,7.654,7.654,0,0,1,.087-3.607,1.483,1.483,0,0,1,.082-.194" transform="translate(-23.336 -9.144)" fill="#ac653d"/>
          <path id="Trazado_130387" data-name="Trazado 130387" d="M94.264,110.072c0-.154.146-.2.233-.271a3.781,3.781,0,0,0,1.324-2.482,4.622,4.622,0,0,0-.949-3.486,3.593,3.593,0,0,0-.9-.835c-.077-.051-.185-.081-.2-.2a3.952,3.952,0,0,1,2.689,3.432,3.549,3.549,0,0,1-1.117,3.212,2.612,2.612,0,0,1-1.079.627" transform="translate(-76.288 -83.636)" fill="#fab0a5"/>
          <path id="Trazado_130388" data-name="Trazado 130388" d="M95.794,141.815a.1.1,0,0,1,.119-.042.112.112,0,0,1-.119.042" transform="translate(-77.935 -115.338)" fill="#fab0a5"/>
          <path id="Trazado_130389" data-name="Trazado 130389" d="M30.9,9.649l-.035.085.035-.085" transform="translate(-25.114 -7.85)" fill="#ac653d"/>
          <path id="Trazado_130390" data-name="Trazado 130390" d="M62.5,119.186a1.031,1.031,0,0,1-.208.675.329.329,0,0,1-.563-.009,1.219,1.219,0,0,1-.009-1.333.338.338,0,0,1,.6.01,1.073,1.073,0,0,1,.183.657" transform="translate(-50.053 -96.282)" fill="#161514"/>
          <path id="Trazado_130391" data-name="Trazado 130391" d="M80.081,119.186a1.038,1.038,0,0,1-.173.633.342.342,0,0,1-.612.009,1.22,1.22,0,0,1,.009-1.312.334.334,0,0,1,.581-.009,1.019,1.019,0,0,1,.2.679" transform="translate(-64.36 -96.28)" fill="#161514"/>
          <path id="Trazado_130392" data-name="Trazado 130392" d="M87.781,79.857a.582.582,0,0,1,.56.623.592.592,0,0,1-.6.558.6.6,0,0,1-.579-.615.593.593,0,0,1,.623-.566" transform="translate(-70.909 -64.969)" fill="#151515"/>
          <path id="Trazado_130393" data-name="Trazado 130393" d="M53.544,80.436a.592.592,0,1,1-1.185,0,.592.592,0,0,1,1.185,0" transform="translate(-42.598 -64.968)" fill="#151515"/>
        </g>
      </g>
      <g id="Grupo_157597" data-name="Grupo 157597" transform="translate(326 1565.684)">
        <g id="Grupo_157596" data-name="Grupo 157596" transform="translate(0 0)" clip-path="url(#clip-path-2)">
          <path id="Trazado_130394" data-name="Trazado 130394" d="M5.036,17.238c-.267-.143-.3-.219-.248-.527.136-.787.266-1.576.409-2.362.025-.134-.044-.192-.119-.266L1.025,10.131C.9,10.009.779,9.885.652,9.767A2.432,2.432,0,0,1,0,8.949v-.5a2,2,0,0,1,.38-.544,1.7,1.7,0,0,1,.874-.268q2.608-.383,5.216-.76c.328-.048.656-.11.986-.138a.326.326,0,0,0,.3-.223Q9.036,3.9,10.328,1.292q.165-.334.328-.669a1.028,1.028,0,0,1,1.89,0q1.449,2.937,2.9,5.875a.374.374,0,0,0,.328.243c2.165.306,4.329.625,6.493.94a1.029,1.029,0,0,1,.568,1.813q-2.354,2.291-4.706,4.584a.3.3,0,0,0-.112.31c.379,2.176.747,4.355,1.121,6.532a1.024,1.024,0,0,1-1.522,1.095L14.694,20.48c-.973-.512-1.948-1.02-2.918-1.538a.324.324,0,0,0-.351,0Q8.52,20.481,5.608,22a1.013,1.013,0,0,1-1.219-.1.963.963,0,0,1-.332-.915c.152-.907.317-1.812.463-2.72a.392.392,0,0,1,.416-.383c.266.143.3.225.249.527-.152.876-.3,1.753-.451,2.629a.35.35,0,0,0,.123.364.342.342,0,0,0,.383.025c.048-.023.094-.047.141-.072,1.96-1.03,3.922-2.056,5.876-3.1a.643.643,0,0,1,.694,0c.385.219.787.409,1.182.611a.1.1,0,0,0,.1.047l0,0c.4.256.83.454,1.248.675,1.138.6,2.28,1.2,3.42,1.8a.381.381,0,0,0,.445.008.346.346,0,0,0,.127-.363c-.378-2.2-.748-4.4-1.139-6.6a.781.781,0,0,1,.252-.8c1.6-1.533,3.174-3.083,4.759-4.626.118-.115.221-.234.164-.414s-.211-.232-.386-.258c-2.246-.325-4.492-.657-6.739-.979a.511.511,0,0,1-.423-.32Q13.469,4.03,11.975,1.011c-.048-.1-.074-.217-.195-.263h0L11.739.715c-.274-.064-.357-.019-.5.276Q9.831,3.836,8.425,6.681c-.38.765-.2.629-1.021.752-1.521.227-3.043.44-4.565.66-.612.089-1.224.176-1.834.27a.335.335,0,0,0-.229.568,2.111,2.111,0,0,0,.159.161q2.391,2.331,4.784,4.66a.507.507,0,0,1,.182.5c-.159.867-.3,1.737-.452,2.606-.051.292-.117.347-.412.382" transform="translate(0 0)" fill="#040403"/>
          <path id="Trazado_130395" data-name="Trazado 130395" d="M15.67,21.443c-.395-.2-.8-.392-1.182-.611a.643.643,0,0,0-.694,0c-1.955,1.04-3.917,2.066-5.876,3.1-.047.025-.093.049-.141.072a.341.341,0,0,1-.383-.025.349.349,0,0,1-.123-.364c.152-.876.3-1.753.451-2.629.052-.3.017-.385-.249-.528l.1-.645c.3-.035.361-.09.412-.382.152-.868.293-1.739.452-2.606a.507.507,0,0,0-.182-.5q-2.395-2.327-4.784-4.659a2.192,2.192,0,0,1-.159-.161.335.335,0,0,1,.229-.569c.611-.094,1.223-.181,1.834-.27,1.521-.22,3.044-.433,4.565-.66.825-.123.641.012,1.021-.752q1.411-2.842,2.811-5.69c.146-.295.229-.339.5-.276l.043.034h0a.535.535,0,0,0,.034.2q.673,1.882,1.341,3.765l1.212,3.4c.025.071.043.142.14.155.178.025.355.062.533.088.794.113,1.589.221,2.384.335s1.588.231,2.381.348c.292.043.583.09.909.14-.226.242-.441.427-.646.625-1.259,1.215-2.507,2.441-3.762,3.66a.358.358,0,0,0-.113.362c.106.56.2,1.122.3,1.683.234,1.383.462,2.767.7,4.148.032.185.02.234-.18.181-.821-.216-1.644-.427-2.469-.625a8.085,8.085,0,0,0-1.316-.3l0,0c-.018-.046-.056-.05-.1-.047" transform="translate(-2.537 -2.568)" fill="#fecf69"/>
          <path id="Trazado_130396" data-name="Trazado 130396" d="M57.085,21.7A8.084,8.084,0,0,1,58.4,22c.826.2,1.648.409,2.469.626.2.053.212,0,.18-.181-.241-1.382-.468-2.766-.7-4.148-.1-.562-.194-1.123-.3-1.683a.358.358,0,0,1,.113-.362c1.255-1.219,2.5-2.445,3.762-3.66.2-.2.42-.383.646-.625-.326-.05-.617-.1-.909-.14q-1.19-.176-2.381-.348c-.794-.113-1.589-.222-2.384-.335-.178-.025-.355-.063-.533-.088-.1-.013-.115-.085-.14-.155q-.606-1.7-1.212-3.4-.67-1.883-1.341-3.765a.534.534,0,0,1-.034-.2c.121.046.146.165.195.264q1.493,3.019,2.981,6.041a.511.511,0,0,0,.423.32c2.247.321,4.493.653,6.739.978.176.026.327.071.386.258s-.046.3-.164.415c-1.585,1.544-3.164,3.094-4.759,4.626a.781.781,0,0,0-.252.8c.391,2.2.761,4.4,1.139,6.6a.346.346,0,0,1-.127.363.381.381,0,0,1-.445-.008c-1.14-.6-2.282-1.2-3.42-1.8-.418-.221-.849-.419-1.248-.675" transform="translate(-43.856 -2.782)" fill="#fcb620"/>
          <path id="Trazado_130397" data-name="Trazado 130397" d="M62.031,89.146c.042,0,.08,0,.1.047a.1.1,0,0,1-.1-.047" transform="translate(-48.897 -70.271)" fill="#fcb620"/>
          <path id="Trazado_130398" data-name="Trazado 130398" d="M55.484,3.41l-.043-.033.043.033" transform="translate(-43.703 -2.662)" fill="#fcb620"/>
        </g>
      </g>
    </g>
  </g>
</svg>
