<svg xmlns="http://www.w3.org/2000/svg" xmlns:xlink="http://www.w3.org/1999/xlink" width="70" height="85" viewBox="0 0 70 85">
  <defs>
    <clipPath id="clip-path">
      <rect id="Rect치ngulo_37636" data-name="Rect치ngulo 37636" width="46.426" height="46.42" fill="none"/>
    </clipPath>
  </defs>
  <g id="_108" data-name="108" transform="translate(-301 -1551)">
    <g id="Grupo_156382" data-name="Grupo 156382" transform="translate(-239 -156)">
      <rect id="Rect치ngulo_36766" data-name="Rect치ngulo 36766" width="70" height="85" rx="12" transform="translate(540 1707)" fill="#0c487b"/>
    </g>
    <g id="Grupo_157600" data-name="Grupo 157600" transform="translate(312.814 1570)">
      <g id="Grupo_157600-2" data-name="Grupo 157600" clip-path="url(#clip-path)">
        <path id="Trazado_130422" data-name="Trazado 130422" d="M23.215,46.42H1.082C.216,46.42,0,46.207,0,45.352Q0,34.426,0,23.5c0-.821.224-1.04,1.061-1.04,1.014,0,2.028-.008,3.041.005.278,0,.4-.031.4-.365q-.019-7.884,0-15.768c0-.3-.091-.352-.366-.351C3.166,5.986,3,5.8,3,4.839c0-1.31,0-2.62,0-3.93C3,.268,3.265,0,3.907,0Q16.471,0,29.036,0c.643,0,.913.267.915.9,0,1.357,0,2.714,0,4.071,0,.77-.239,1.033-1,1-.388-.014-.523.057-.515.491.032,1.668.025,3.338,0,5.006,0,.387.059.516.491.514,4.461-.02,8.922-.012,13.383-.012.915,0,1.111.2,1.111,1.132,0,3.961.007,7.923-.011,11.884,0,.4.111.493.488.469.544-.034,1.091-.013,1.637-.008.589.006.878.275.878.846q.005,9.638,0,19.277c0,.58-.3.838-.934.838q-6.6,0-13.2,0Z" transform="translate(0 0)"/>
        <path id="Trazado_130423" data-name="Trazado 130423" d="M24.563,102.879c-.14,0-.28.014-.42.014q-9.286,0-18.572.01c-.388,0-.482-.09-.481-.48q.02-10.01,0-20.02c0-.384.083-.488.478-.484q3.3.033,6.6,0c.351,0,.436.084.433.434-.018,2.027-.01,4.054-.008,6.081,0,.734.247.98.98.981q2.035,0,4.07,0c.673,0,.938-.263.938-.93,0-2.043.01-4.085-.007-6.128,0-.341.068-.443.428-.438,1.855.025,3.71.019,5.566.024a.788.788,0,0,1,.156.615q.006,9.852,0,19.7a.788.788,0,0,1-.156.615" transform="translate(-3.602 -57.971)" fill="#f7cf8e"/>
        <path id="Trazado_130424" data-name="Trazado 130424" d="M101.41,110.135c-1.886,0-3.773,0-5.658.022-.337,0-.331-.159-.33-.4q.008-2.292,0-4.583c0-.774-.235-1.015-.992-1.016q-2.035,0-4.069,0c-.67,0-.926.261-.927.939,0,1.528-.01,3.055.006,4.583,0,.341-.051.48-.445.477-2.214-.022-4.428-.017-6.642,0-.323,0-.417-.076-.416-.409q.016-8.582,0-17.164c0-.331.089-.413.415-.411q3.344.022,6.688,0c.346,0,.4.117.4.426-.015,1.543-.008,3.087-.006,4.63,0,.678.258.939.926.941q2.058.006,4.116,0c.694,0,.945-.259.946-.969q0-2.315,0-4.63c0-.239-.007-.4.33-.4,1.886.022,3.772.018,5.658.023a.788.788,0,0,1,.156.615q.006,8.355,0,16.71a.789.789,0,0,1-.156.615" transform="translate(-57.985 -65.227)" fill="#bf8d5d"/>
        <path id="Trazado_130425" data-name="Trazado 130425" d="M28.707,28.729c0,2.589-.009,5.177.01,7.766,0,.379-.112.456-.467.454q-3.673-.022-7.346,0c-.342,0-.443-.073-.442-.432q.019-7.812,0-15.625c0-.36.1-.433.443-.431q3.672.022,7.345,0c.358,0,.469.078.466.455-.018,2.6-.009,5.208-.009,7.812" transform="translate(-14.479 -14.48)" fill="#bf8d5d"/>
        <path id="Trazado_130426" data-name="Trazado 130426" d="M70.747,36.922c-2.134,0-4.268.005-6.4.02-.27,0-.34-.082-.337-.343.013-1.09.005-2.181.005-3.272,0-4.128.006-8.256-.009-12.384,0-.384.087-.493.481-.488,2.087.026,4.175.02,6.262.025a1.905,1.905,0,0,1,.037,1.494.991.991,0,0,1-.671.132c-.809.006-1.618,0-2.428.005-.487.006-.53.064-.531.6s.042.6.522.6c.809.011,1.619,0,2.428.005a1.036,1.036,0,0,1,.674.128,2.246,2.246,0,0,1,.012,1.517.93.93,0,0,1-.666.141c-.807.006-1.615,0-2.423,0-.5.006-.544.059-.548.576,0,.556.043.617.55.623.807.009,1.615,0,2.422,0a.921.921,0,0,1,.666.144,1.215,1.215,0,0,1,.111.683q0,4.537,0,9.075a.923.923,0,0,1-.156.71" transform="translate(-45.293 -14.476)" fill="#bf8d5d"/>
        <path id="Trazado_130427" data-name="Trazado 130427" d="M98.41,49.806c-.7,0-1.4.007-2.1.015-.611.008-.881.275-.884.888q-.009,1.357,0,2.713c0,.612.275.881.884.889.7.009,1.4.011,2.1.016a.673.673,0,0,1,.152.524q.011,1.333,0,2.667a.673.673,0,0,1-.152.524q-3.531.007-7.062.014c-2.994,0-5.987-.006-8.981.009-.346,0-.443-.076-.436-.431.021-1.075,0-1.076,1.092-1.076.826,0,1.653,0,2.479,0,.668,0,.931-.265.931-.937,0-3.024.009-6.049-.009-9.073,0-.389.09-.483.48-.481,3.835.021,7.67.02,11.505.025a.673.673,0,0,1,.152.524q.011,1.333,0,2.667a.673.673,0,0,1-.152.524" transform="translate(-57.979 -32.6)" fill="#f7cf8e"/>
        <path id="Trazado_130428" data-name="Trazado 130428" d="M71.7,102.8V81.867c.481,0,1.092-.168,1.4.063s.093.871.093,1.332c.006,6.344,0,12.688.014,19.032,0,.426-.1.579-.532.528a9.523,9.523,0,0,0-.98-.021" transform="translate(-50.742 -57.893)" fill="#b99b6b"/>
        <path id="Trazado_130429" data-name="Trazado 130429" d="M148.545,110.006V92.066c.48-.011,1.087-.2,1.4.064s.094.878.1,1.338c.007,5.341,0,10.682.014,16.023,0,.42-.1.589-.532.536a9.34,9.34,0,0,0-.98-.021" transform="translate(-105.12 -65.098)" fill="#8f6b46"/>
        <path id="Trazado_130430" data-name="Trazado 130430" d="M19.469,5.107c1.232,0,2.465.009,3.7-.006.311,0,.442.058.43.4-.027.732-.02,1.466,0,2.2.007.29-.056.407-.38.405q-3.744-.02-7.488,0c-.27,0-.39-.05-.382-.356q.032-1.145,0-2.292c-.009-.306.111-.359.382-.356,1.248.011,2.5,0,3.744,0" transform="translate(-10.858 -3.609)" fill="#8f6b46"/>
        <path id="Trazado_130431" data-name="Trazado 130431" d="M55.264,28.749c0,2.587-.007,5.173.009,7.759,0,.351-.085.441-.435.435-1.071-.019-1.072,0-1.072-1.051q0-7.479-.01-14.958c0-.389.092-.493.483-.482,1.024.028,1.025.008,1.025,1.052Z" transform="translate(-38.042 -14.473)" fill="#a7afba"/>
        <path id="Trazado_130432" data-name="Trazado 130432" d="M86.685,21.845q0-.745,0-1.489c.48-.01,1.087-.2,1.4.064s.094.878.1,1.338c.007,4.857,0,9.715.013,14.573,0,.384-.088.532-.485.489-.339-.037-.684-.016-1.026-.021q0-5.238,0-10.474a1.75,1.75,0,0,1,0-1.483V23.329a1.751,1.751,0,0,1,0-1.484" transform="translate(-61.227 -14.351)" fill="#8f6b46"/>
        <path id="Trazado_130433" data-name="Trazado 130433" d="M75.881,8.09c-2.136,0-4.272,0-6.407.02-.282,0-.336-.108-.332-.357q.019-1.145,0-2.292c0-.249.05-.359.332-.357,2.136.015,4.271.015,6.407.02a6.7,6.7,0,0,1,0,2.966" transform="translate(-48.929 -3.612)" fill="#8f6b46"/>
        <path id="Trazado_130434" data-name="Trazado 130434" d="M35.845,84.886c0-.871.01-1.743-.006-2.615,0-.267.073-.343.339-.337q1.167.025,2.335,0c.27-.006.335.083.334.341q-.015,2.662,0,5.323c0,.266-.073.343-.339.337q-1.167-.025-2.335,0c-.27.006-.338-.083-.334-.342.014-.9.006-1.805.006-2.708" transform="translate(-25.361 -57.982)" fill="#a7afba"/>
        <path id="Trazado_130435" data-name="Trazado 130435" d="M50.95,5.111c.638,0,1.276.008,1.914,0,.224,0,.293.066.289.29q-.018,1.213,0,2.427c0,.227-.071.289-.292.287q-1.961-.014-3.921,0c-.224,0-.293-.066-.289-.289q.018-1.213,0-2.427c0-.227.07-.291.292-.287.669.012,1.338,0,2.007,0" transform="translate(-34.429 -3.614)" fill="#a7afba"/>
        <path id="Trazado_130436" data-name="Trazado 130436" d="M115.687,94.434c0,.653-.008,1.307,0,1.96,0,.22-.059.3-.286.292q-1.213-.018-2.427,0c-.223,0-.292-.064-.29-.289q.014-1.96,0-3.92c0-.22.059-.3.286-.292q1.213.018,2.427,0c.223,0,.295.064.291.289-.013.653,0,1.307,0,1.96" transform="translate(-79.745 -65.236)" fill="#a7afba"/>
        <path id="Trazado_130437" data-name="Trazado 130437" d="M115.684,140.56c0,.622-.009,1.245,0,1.867.005.24-.024.365-.317.357-.793-.02-1.587-.017-2.38,0-.256,0-.308-.085-.307-.321q.015-1.937,0-3.874c0-.252.08-.313.319-.309.793.013,1.587.015,2.38,0,.256-.005.312.085.307.321-.014.653,0,1.307,0,1.96" transform="translate(-79.741 -97.855)" fill="#a7afba"/>
        <path id="Trazado_130438" data-name="Trazado 130438" d="M138.3,49.723V46.009c.48,0,1.089-.169,1.4.061s.083.869.095,1.329c.017.669-.008,1.338.01,2.007.007.27-.08.352-.343.336-.388-.023-.777-.014-1.166-.019" transform="translate(-97.87 -32.517)" fill="#b99b6b"/>
        <path id="Trazado_130439" data-name="Trazado 130439" d="M138.3,77.895V74.181c.48,0,1.089-.169,1.4.061s.083.869.095,1.329c.017.669-.008,1.338.01,2.007.007.27-.08.352-.343.336-.388-.023-.777-.014-1.166-.019" transform="translate(-97.87 -52.453)" fill="#b99b6b"/>
        <path id="Trazado_130440" data-name="Trazado 130440" d="M92.194,8.095V5.129c.389,0,.779,0,1.168-.017.226-.009.342.047.338.308q-.019,1.192,0,2.385c0,.26-.112.316-.338.308-.389-.015-.779-.012-1.168-.017" transform="translate(-65.242 -3.617)" fill="#6c5034"/>
        <path id="Trazado_130441" data-name="Trazado 130441" d="M134.543,65.518h-.373c-1.258,0-1.252,0-1.126-1.266.018-.183.075-.235.249-.234q1.258.009,2.516,0c.183,0,.256.065.236.243a.652.652,0,0,0,0,.093c.034,1.164.034,1.164-1.129,1.164Z" transform="translate(-94.112 -45.303)" fill="#a7afba"/>
        <path id="Trazado_130442" data-name="Trazado 130442" d="M26.455,143.407c1.87,0,3.741.007,5.611-.007.3,0,.391.067.39.38-.005,1.124.008,1.124-1.134,1.124-3.476,0-6.951-.005-10.427.008-.342,0-.445-.07-.438-.428.021-1.077,0-1.077,1.089-1.077Z" transform="translate(-14.476 -101.479)"/>
        <path id="Trazado_130443" data-name="Trazado 130443" d="M22.437,115.337c0,1.461-.01,2.923.008,4.384,0,.333-.054.452-.423.444-1.082-.023-1.082,0-1.082-1.087v-3.9c-.3.325-.53.546-.731.788-.176.213-.3.188-.475-.008-.245-.281-.7-.524-.724-.816-.029-.306.453-.543.71-.811.444-.46.9-.911,1.356-1.357a.754.754,0,0,1,1.22-.006c.658.643,1.3,1.3,1.959,1.945.18.175.181.294-.01.442-.312.24-.521.787-.884.721-.3-.055-.53-.53-.791-.819l-.133.081" transform="translate(-13.451 -79.724)"/>
        <path id="Trazado_130444" data-name="Trazado 130444" d="M48.288,115.249v4.081c0,.824,0,.824-.82.824-.678,0-.678,0-.678-.685V115.3a2.788,2.788,0,0,0-.684.623c-.2.216-.318.247-.547.017-.8-.806-.807-.8,0-1.6.453-.452.9-.909,1.358-1.356a.765.765,0,0,1,1.255,0c.645.634,1.273,1.286,1.925,1.913.2.2.17.313-.019.477-.28.245-.52.677-.82.717-.28.038-.51-.442-.776-.679-.042-.037-.084-.072-.191-.165" transform="translate(-31.815 -79.723)"/>
        <path id="Trazado_130445" data-name="Trazado 130445" d="M77.99,25.619V27.1c-1.135,0-2.269,0-3.4.012-.258,0-.341-.064-.346-.334-.025-1.169-.035-1.169,1.139-1.168q1.306,0,2.611.006" transform="translate(-52.533 -18.125)"/>
        <path id="Trazado_130446" data-name="Trazado 130446" d="M77.99,35.864v1.483c-1.135,0-2.269,0-3.4.012-.258,0-.341-.064-.346-.334-.025-1.169-.035-1.169,1.139-1.168q1.306,0,2.611.007" transform="translate(-52.533 -25.374)"/>
        <path id="Trazado_130447" data-name="Trazado 130447" d="M105.459,51.217c.686,0,1.373,0,2.059,0,.637,0,.9.271.9.917,0,.7.021,1.4,0,2.105a2.878,2.878,0,0,1-1.857,2.726c-.325.138-.42.3-.385.609.04.366-.163.855.085,1.068.209.18.684.077,1.038.054.31-.02.385.084.384.386,0,1.118.007,1.118-1.094,1.118-1,0-2-.012-2.994.007-.311.006-.427-.051-.422-.4.014-1.1,0-1.113,1.106-1.1.328,0,.4-.083.415-.408.034-.724-.012-1.251-.857-1.611a2.5,2.5,0,0,1-1.392-2.331c-.036-.778-.018-1.559-.007-2.339a.741.741,0,0,1,.824-.8c.733-.01,1.466,0,2.2,0" transform="translate(-72.48 -36.242)"/>
        <path id="Trazado_130448" data-name="Trazado 130448" d="M111.5,56.2c.49.005,1.209-.231,1.415.082a2.577,2.577,0,0,1,.053,1.676,1.443,1.443,0,0,1-1.934,1.118.223.223,0,0,1-.01-.181,4.363,4.363,0,0,0,.35-2.262.566.566,0,0,1,.125-.434" transform="translate(-78.556 -39.713)" fill="#7d838c"/>
        <path id="Trazado_130449" data-name="Trazado 130449" d="M108.928,56.249c0,.419-.022.839.011,1.255a2.746,2.746,0,0,1-.476,1.62,1.44,1.44,0,0,1-1.026-1.344.827.827,0,0,1,0-.093c.03-.475-.208-1.128.1-1.376s.917-.058,1.4-.063" transform="translate(-75.985 -39.763)" fill="#a7afba"/>
      </g>
    </g>
    <g id="Grupo_156899" data-name="Grupo 156899" transform="translate(301.089 1528.999)">
      <path id="Trazado_126894" data-name="Trazado 126894" d="M17.182,127.264c-.8.178-.987-.2-.979-.947.02-1.875-.011-1.908-1.952-1.9-.722,0-.946-.22-.932-.934.013-.666.135-.975.9-.972,1.946.007,2-.032,1.975-1.974-.009-.879.422-.9,1.073-.9s.989.1.989.883c0,1.967.04,2,1.962,1.995.743,0,.919.265.921.955s-.174.955-.918.951c-1.959-.011-2.006.025-1.963,1.881.02.861-.3,1.113-1.079.962" transform="translate(-8.318 -57.79)" fill="#29c4bb"/>
      <path id="Trazado_126895" data-name="Trazado 126895" d="M214.9,151.177c.717-.137,1.114.1,1,.912-.1.679.136,1.058.888.941s1,.155,1.011.947c.006.83-.333,1.021-1.04.926-.675-.091-.89.2-.876.875.021,1.053-.63,1.457-1.649,1.138-.483-.151-.378-.537-.347-.842.085-.832-.105-1.341-1.087-1.175-.76.129-.807-.347-.8-.931s.025-1.055.8-.936c.831.128,1.224-.175,1.086-1.053-.132-.839.406-.875,1.026-.8" transform="translate(-153.33 -78.505)" fill="#29c4bb"/>
      <path id="Trazado_126896" data-name="Trazado 126896" d="M213.215,70.517c.185.8-.181,1.073-.931.947-.812-.137-1.144.2-1,1,.139.781-.2.968-.956.975-.781.007-1.075-.223-.939-.983.145-.809-.192-1.143-1-.992-.833.156-.906-.279-.937-.98-.037-.822.282-1.037,1-.912.779.136,1.069-.186.937-.947-.127-.728.108-1.022.919-.993.715.025,1.127.127.975.946s.2,1.127,1,.993c.751-.126,1.116.143.929.943" transform="translate(-158.216 -16.577)" fill="#010000"/>
      <path id="Trazado_126897" data-name="Trazado 126897" d="M57.532,187.9c.175.746-.193,1.02-.939.886-.876-.158-1.083.3-.957,1.035.139.821-.258.948-.979.943-.689,0-1.059-.16-.914-.9.19-.975-.3-1.214-1.138-1.071-.862.147-.822-.4-.825-.987,0-.572.012-1.057.791-.9,1.047.207,1.315-.3,1.173-1.233-.136-.9.548-.639,1-.666.483-.029,1.022-.091.881.687-.174.962.163,1.408,1.181,1.213.85-.163.746.43.721,1" transform="translate(-17.924 -94.219)" fill="#010000"/>
      <path id="Trazado_126898" data-name="Trazado 126898" d="M121.806,18.657c-.2-.852.271-1.017.967-.914.724.107,1.009-.192.9-.905s.1-1.037.922-1.02c.754.015,1.1.211.968.985-.134.794.232,1.052.977.94.69-.1,1.035.062,1.039.9,0,.863-.321,1.095-1.073.975-.795-.127-1.064.235-.941.977.138.832-.308.928-1.008.942-.748.015-.992-.266-.882-.952.12-.753-.158-1.1-.943-.965-.767.128-1.094-.187-.923-.966" transform="translate(-106.064 17.184)" fill="#29c4bb"/>
    </g>
  </g>
</svg>
