<svg xmlns="http://www.w3.org/2000/svg" xmlns:xlink="http://www.w3.org/1999/xlink" width="70" height="85" viewBox="0 0 70 85">
  <defs>
    <clipPath id="clip-path">
      <rect id="Rect치ngulo_37635" data-name="Rect치ngulo 37635" width="47.923" height="47.939" fill="none"/>
    </clipPath>
  </defs>
  <g id="_109" data-name="109" transform="translate(-301 -1551.193)">
    <g id="Grupo_156382" data-name="Grupo 156382" transform="translate(-239 -155.807)">
      <rect id="Rect치ngulo_36766" data-name="Rect치ngulo 36766" width="70" height="85" rx="12" transform="translate(540 1707)" fill="#0c487b"/>
    </g>
    <g id="Grupo_156899" data-name="Grupo 156899" transform="translate(301.089 1528.999)">
      <path id="Trazado_126894" data-name="Trazado 126894" d="M17.182,127.264c-.8.178-.987-.2-.979-.947.02-1.875-.011-1.908-1.952-1.9-.722,0-.946-.22-.932-.934.013-.666.135-.975.9-.972,1.946.007,2-.032,1.975-1.974-.009-.879.422-.9,1.073-.9s.989.1.989.883c0,1.967.04,2,1.962,1.995.743,0,.919.265.921.955s-.174.955-.918.951c-1.959-.011-2.006.025-1.963,1.881.02.861-.3,1.113-1.079.962" transform="translate(-8.318 -57.79)" fill="#29c4bb"/>
      <path id="Trazado_126895" data-name="Trazado 126895" d="M214.9,151.177c.717-.137,1.114.1,1,.912-.1.679.136,1.058.888.941s1,.155,1.011.947c.006.83-.333,1.021-1.04.926-.675-.091-.89.2-.876.875.021,1.053-.63,1.457-1.649,1.138-.483-.151-.378-.537-.347-.842.085-.832-.105-1.341-1.087-1.175-.76.129-.807-.347-.8-.931s.025-1.055.8-.936c.831.128,1.224-.175,1.086-1.053-.132-.839.406-.875,1.026-.8" transform="translate(-153.33 -78.505)" fill="#29c4bb"/>
      <path id="Trazado_126896" data-name="Trazado 126896" d="M213.215,70.517c.185.8-.181,1.073-.931.947-.812-.137-1.144.2-1,1,.139.781-.2.968-.956.975-.781.007-1.075-.223-.939-.983.145-.809-.192-1.143-1-.992-.833.156-.906-.279-.937-.98-.037-.822.282-1.037,1-.912.779.136,1.069-.186.937-.947-.127-.728.108-1.022.919-.993.715.025,1.127.127.975.946s.2,1.127,1,.993c.751-.126,1.116.143.929.943" transform="translate(-158.216 -16.577)" fill="#010000"/>
      <path id="Trazado_126897" data-name="Trazado 126897" d="M57.532,187.9c.175.746-.193,1.02-.939.886-.876-.158-1.083.3-.957,1.035.139.821-.258.948-.979.943-.689,0-1.059-.16-.914-.9.19-.975-.3-1.214-1.138-1.071-.862.147-.822-.4-.825-.987,0-.572.012-1.057.791-.9,1.047.207,1.315-.3,1.173-1.233-.136-.9.548-.639,1-.666.483-.029,1.022-.091.881.687-.174.962.163,1.408,1.181,1.213.85-.163.746.43.721,1" transform="translate(-17.924 -94.219)" fill="#010000"/>
      <path id="Trazado_126898" data-name="Trazado 126898" d="M121.806,18.657c-.2-.852.271-1.017.967-.914.724.107,1.009-.192.9-.905s.1-1.037.922-1.02c.754.015,1.1.211.968.985-.134.794.232,1.052.977.94.69-.1,1.035.062,1.039.9,0,.863-.321,1.095-1.073.975-.795-.127-1.064.235-.941.977.138.832-.308.928-1.008.942-.748.015-.992-.266-.882-.952.12-.753-.158-1.1-.943-.965-.767.128-1.094-.187-.923-.966" transform="translate(-106.064 17.184)" fill="#29c4bb"/>
    </g>
    <g id="Grupo_157599" data-name="Grupo 157599" transform="translate(312.028 1569.219)">
      <g id="Grupo_157599-2" data-name="Grupo 157599" clip-path="url(#clip-path)">
        <path id="Trazado_130399" data-name="Trazado 130399" d="M21.582,40.736c-.173.631-.377.8-1.011.8q-9.034,0-18.067,0A2.392,2.392,0,0,1,0,39.017Q0,20.775,0,2.533A2.4,2.4,0,0,1,2.536,0Q22.375,0,42.214,0a2.391,2.391,0,0,1,2.513,2.5q.005,13.825,0,27.65c0,.634-.165.837-.8,1.011a.723.723,0,0,1-.906-.6,3.488,3.488,0,0,1-.054-.894q0-10.254,0-20.507c0-1.091.028-1.017-1-1.019-.15,0-.3-.007-.449-.013-.266.025-.532.015-.8.015H2.75c-1.057,0-.987-.054-.988.966q0,13.474,0,26.948a5.842,5.842,0,0,1-.014.648c.025.73,0,1.461.015,2.191.017.617.232.83.846.865.2.012.4.006.6.006H20.143a3.245,3.245,0,0,1,.843.054.722.722,0,0,1,.6.905" transform="translate(0 0)" fill="#231f20"/>
        <path id="Trazado_130400" data-name="Trazado 130400" d="M70.43,77.111q1.5.008,2.992.017c.715,0,1,.282,1,.993q0,6.985,0,13.971c0,.737-.28,1.008-1.034,1.009q-2.969,0-5.938,0c-.743,0-1.048-.278-1-1.027.031-.5-.125-.613-.6-.582a2.744,2.744,0,0,0-1.572.545,5.315,5.315,0,0,1-3.536,1.079c-3.076-.047-6.154-.025-9.231-.009a2.444,2.444,0,0,1-2.336-1.236,2.267,2.267,0,0,1,.161-2.578c.083-.118.132-.2.025-.341a2.414,2.414,0,0,1,.065-3.036,1.858,1.858,0,0,1-.691-1.72c.022-.421-.106-.553-.521-.545-1.06.021-2.121.006-3.182.007a2.6,2.6,0,0,1-2.554-1.706A2.54,2.54,0,0,1,45,78.589c3.21-.01,6.419,0,9.742,0-.395-.268-.711-.481-1.01-.718A3.346,3.346,0,0,1,53.99,72.4a.877.877,0,0,1,1.071.009c.938.6,1.872,1.208,2.8,1.827q1.119.75,2.242,1.493c1.128.76,2.277,1.49,3.39,2.272a3.643,3.643,0,0,0,2.413.583c.272-.015.365-.141.394-.4.11-1,.334-1.193,1.32-1.2q1.095,0,2.19,0a.94.94,0,0,1,.622.12" transform="translate(-26.499 -45.178)" fill="#231f20"/>
        <path id="Trazado_130401" data-name="Trazado 130401" d="M99.937,45.2l-2.983.016c-.741,0-1.044.278-1,1.025.03.491-.128.569-.594.592a4.14,4.14,0,0,1-2.782-.839c-.983-.726-2.019-1.381-3.032-2.066a.147.147,0,0,1,.039-.179,33.769,33.769,0,0,0,2.395-2.533.39.39,0,0,1,.174-.094c.813-.09,1.629-.021,2.443-.042a3.741,3.741,0,0,0,.6-.026.635.635,0,0,0-.029-1.265,9.519,9.519,0,0,0-1-.02,2.228,2.228,0,0,1-.741-.061c-.209-.132-.106-.3-.02-.429.28-.429.526-.881.832-1.294a1.534,1.534,0,0,1,.724-.087c.35-.009.666-.084.791-.456a.678.678,0,0,0-.352-.832.489.489,0,0,1-.231-.246.8.8,0,0,1,.109-.526,23.684,23.684,0,0,0,1.983-7.278c.233-2.169.1-4.349.131-6.523,0-.26-.055-.537.144-.763.513,0,1.166-.181,1.5.066.316.236.1.931.1,1.423q.01,10.308,0,20.615c0,.686.152.883.8,1.058V45.2" transform="translate(-56.006 -13.266)" fill="#fde27e"/>
        <path id="Trazado_130402" data-name="Trazado 130402" d="M18.749,97.841a2.607,2.607,0,0,0,2.71,1.608c1.111-.044,2.226,0,3.339-.013.279,0,.378.038.293.355a2.53,2.53,0,0,0,.51,2.048h-1.35c-.174-.647-.372-.8-1.056-.8H5.406c-.908,0-1.139-.233-1.137-1.154,0-.681.01-1.361.016-2.042a.85.85,0,0,1,.658-.16q6.572-.006,13.144,0a.93.93,0,0,1,.662.16" transform="translate(-2.67 -61.102)" fill="#fde27e"/>
        <path id="Trazado_130403" data-name="Trazado 130403" d="M18.729,50.065H4.265c-.006-.166-.016-.332-.016-.5q0-13.851-.012-27.7c0-.455.114-.564.565-.564q19.441.02,38.882.011c.166,0,.332.01.5.016,0,1.676.011,3.353,0,5.03A23.934,23.934,0,0,1,42.4,35.191a4.766,4.766,0,0,0-.511,1.283c-.213.224-.492.166-.75.167-2.257.006-4.514,0-6.77,0a2.429,2.429,0,0,0-.693.05.607.607,0,0,0,0,1.186,2.246,2.246,0,0,0,.643.049c1.941,0,3.883,0,5.824,0,.257,0,.538-.058.749.169a8.75,8.75,0,0,1-.9,1.565c-.162.193-.389.156-.6.159-.644.009-1.289,0-1.934,0a3.158,3.158,0,0,0-.445.017.651.651,0,0,0-.638.634.632.632,0,0,0,.629.637c.361.043.726.007,1.089.021.209.008.437-.034.6.16a17.381,17.381,0,0,1-2.5,2.689q-2.328-1.535-4.655-3.071c-.929-.614-1.07-.6-1.853.207a3.181,3.181,0,0,0,.325,4.82c.378.3.779.561,1.292.929h-.64c-3.06,0-6.122.073-9.178-.027a2.533,2.533,0,0,0-2.756,3.221" transform="translate(-2.65 -13.325)" fill="#fde99d"/>
        <path id="Trazado_130404" data-name="Trazado 130404" d="M25.008,9.06q-10.1,0-20.21.012c-.473,0-.573-.142-.561-.58.03-1.08.007-2.162.011-3.243,0-.69.282-.979.961-.979q19.811,0,39.621,0c.654,0,.945.292.949.942.006,1.114-.019,2.229.012,3.343.012.421-.114.516-.524.515q-10.13-.02-20.259-.009" transform="translate(-2.651 -2.669)" fill="#1371eb"/>
        <path id="Trazado_130405" data-name="Trazado 130405" d="M54.148,83.733c2.046,0,4.092-.006,6.138,0,.461,0,.837-.107.982-.582s-.129-.744-.48-.992q-1.506-1.065-3-2.151a1.607,1.607,0,0,1-.626-1.972c.14-.348.274-.495.674-.224,2.352,1.593,4.75,3.12,7.079,4.746a5.609,5.609,0,0,0,3.909,1.167c.354-.037.48.051.477.446-.019,2.911-.015,5.822,0,8.733,0,.319-.072.436-.408.415a3.934,3.934,0,0,0-2.7.841,3.839,3.839,0,0,1-2.51.764c-3.044-.037-6.088-.014-9.132-.014-.116,0-.233,0-.349,0a.814.814,0,0,1-.879-.814.8.8,0,0,1,.86-.78c.465-.011.932,0,1.4,0,.576-.007.941-.327.934-.809s-.369-.781-.956-.786c-.466,0-.932.01-1.4,0a.8.8,0,1,1,.013-1.591c.482-.013.965,0,1.447-.005a.8.8,0,1,0,0-1.594c-.465-.008-.932,0-1.4,0a.8.8,0,1,1-.005-1.594c.432-.009.865,0,1.3,0,.628,0,1-.3,1-.791s-.367-.8-.988-.8q-3.718,0-7.435,0c-.116,0-.233.006-.349,0a.807.807,0,0,1-.809-.783.793.793,0,0,1,.831-.808c.7-.015,1.4,0,2.1,0h4.292" transform="translate(-29.356 -48.589)" fill="#fdbbac"/>
        <path id="Trazado_130406" data-name="Trazado 130406" d="M115.694,96.01c0,1.961-.011,3.923.01,5.885,0,.383-.109.469-.474.463-1.313-.022-2.627-.018-3.94,0-.3,0-.4-.075-.395-.388q.016-6.009,0-12.019c0-.316.1-.389.4-.385,1.313.015,2.626.02,3.939,0,.369-.006.476.086.472.465-.02,1.994-.009,3.99-.009,5.984" transform="translate(-69.369 -56.023)" fill="#1371eb"/>
        <path id="Trazado_130407" data-name="Trazado 130407" d="M88.945,63.446l-6.721-.016a3.64,3.64,0,0,1-.448-.007.79.79,0,0,1-.714-.817.774.774,0,0,1,.715-.765,3.279,3.279,0,0,1,.5-.008l7.668-.014a.825.825,0,0,1,.686.937c-.055.444-.409.668-.993.674-.23,0-.459.01-.689.016" transform="translate(-50.706 -38.67)" fill="#231f20"/>
        <path id="Trazado_130408" data-name="Trazado 130408" d="M92.081,71.974c-.529-.006-1.057-.007-1.586-.018a.8.8,0,1,1,.008-1.595c.959-.011,1.917-.013,2.876-.018.562.005,1.124.007,1.686.018a.8.8,0,1,1-.007,1.595c-.992.01-1.984.012-2.977.018" transform="translate(-56.04 -44.003)" fill="#231f20"/>
        <path id="Trazado_130409" data-name="Trazado 130409" d="M22.386,49.031c-1.779,0-3.559-.013-5.338.008a1.035,1.035,0,0,1-1.1-.665c-.225-.516-.521-1-.753-1.515a2.73,2.73,0,0,0-1.257-1.412,2.332,2.332,0,0,1,.081-4.085.6.6,0,0,0,.373-.6,7.934,7.934,0,0,1,5.389-7.246c.367-.123.431-.225.3-.6a2.312,2.312,0,0,1,.881-2.6,2.391,2.391,0,0,1,2.757-.028,2.307,2.307,0,0,1,.92,2.63c-.135.394-.034.478.316.6a7.96,7.96,0,0,1,5.377,7.261.614.614,0,0,0,.382.594,2.369,2.369,0,0,1-.283,4.28.942.942,0,0,0-.555.508c-.364.764-.762,1.512-1.127,2.276a.969.969,0,0,1-.983.607c-1.8-.015-3.592-.006-5.388-.006" transform="translate(-7.991 -18.68)" fill="#231f20"/>
        <path id="Trazado_130410" data-name="Trazado 130410" d="M78.9,37.05q-2.668,0-5.336,0c-.776,0-1.04-.268-1.04-1.052q0-2.568,0-5.136c0-.717.279-1,.992-1q5.385,0,10.77,0c.745,0,1.015.274,1.016,1.026q0,2.568,0,5.136c0,.75-.273,1.024-1.018,1.025q-2.693,0-5.385,0" transform="translate(-45.363 -18.679)" fill="#231f20"/>
        <path id="Trazado_130411" data-name="Trazado 130411" d="M78.963,53.324q2.666,0,5.333,0c.629,0,1,.292,1.005.786s-.365.81-.981.81q-5.408,0-10.816,0c-.615,0-.988-.315-.98-.811s.376-.784,1.005-.785q2.716,0,5.433,0" transform="translate(-45.367 -33.356)" fill="#231f20"/>
        <path id="Trazado_130412" data-name="Trazado 130412" d="M9.7,10.119c-.132,0-.265.01-.4,0A.8.8,0,0,1,8.537,9.3a.79.79,0,0,1,.755-.775,7.365,7.365,0,0,1,.744,0,.8.8,0,1,1,.015,1.6c-.116,0-.232,0-.348,0v0" transform="translate(-5.34 -5.328)" fill="#231f21"/>
        <path id="Trazado_130413" data-name="Trazado 130413" d="M20.4,8.531c.814,0,1.188.245,1.2.785s-.379.813-1.22.813c-.116,0-.232,0-.348,0a.8.8,0,1,1,.022-1.595c.116-.005.232,0,.348,0" transform="translate(-12.011 -5.335)" fill="#231f21"/>
        <path id="Trazado_130414" data-name="Trazado 130414" d="M31.068,10.13c-.816,0-1.189-.242-1.2-.78-.013-.555.377-.817,1.214-.817h.1c.706,0,1.083.283,1.079.8s-.378.792-1.091.793h-.1" transform="translate(-18.682 -5.337)" fill="#231f21"/>
        <path id="Trazado_130415" data-name="Trazado 130415" d="M116.777,114.252c0,.809-.251,1.186-.793,1.191s-.8-.379-.805-1.178c0-.838.262-1.228.817-1.215.539.013.781.386.781,1.2" transform="translate(-72.048 -70.717)" fill="#231f21"/>
        <path id="Trazado_130416" data-name="Trazado 130416" d="M27.691,49.033c-1.961,0-3.921-.011-5.882.009-.389,0-.505-.087-.476-.489A6.4,6.4,0,0,1,33.9,47.434c.4,1.6.4,1.6-1.229,1.6H27.691" transform="translate(-13.342 -26.669)" fill="#fdc27d"/>
        <path id="Trazado_130417" data-name="Trazado 130417" d="M25,65.582H18.22a3.925,3.925,0,0,1-.4-.005.795.795,0,0,1-.017-1.586,3.541,3.541,0,0,1,.4-.006h13.71c.116,0,.233-.007.349,0a.8.8,0,0,1,.017,1.59c-.131.013-.265,0-.4,0H25" transform="translate(-10.677 -40.023)" fill="#fca542"/>
        <path id="Trazado_130418" data-name="Trazado 130418" d="M34.455,72.574c-.245.5-.475.95-.694,1.409-.083.174-.222.169-.375.169q-4.811,0-9.623,0c-.154,0-.29,0-.372-.174-.218-.46-.448-.914-.691-1.4Z" transform="translate(-14.2 -45.398)" fill="#fdc27d"/>
        <path id="Trazado_130419" data-name="Trazado 130419" d="M37.858,34.932a.8.8,0,1,1-.782-.8.807.807,0,0,1,.782.8" transform="translate(-22.684 -21.35)" fill="#fa952c"/>
        <path id="Trazado_130420" data-name="Trazado 130420" d="M81.619,34.111c1.43,0,2.859.015,4.288-.01.386-.007.469.113.461.476-.024,1.047-.019,2.094,0,3.141,0,.3-.076.4-.388.394q-4.413-.017-8.826,0c-.319,0-.388-.1-.383-.4.016-1.063.018-2.128,0-3.191-.006-.322.082-.423.413-.419,1.479.017,2.959.007,4.438.007" transform="translate(-48.021 -21.331)" fill="#fb634a"/>
        <path id="Trazado_130421" data-name="Trazado 130421" d="M37.3,44.8a5.608,5.608,0,0,1,4.964,3.563c.2.552.054.972-.413,1.157a.8.8,0,0,1-1.06-.55A3.969,3.969,0,0,0,37.108,46.4a.812.812,0,0,1-.844-.845c.031-.494.405-.764,1.037-.747" transform="translate(-22.683 -28.026)" fill="#231f20"/>
      </g>
    </g>
  </g>
</svg>
