<svg xmlns="http://www.w3.org/2000/svg" xmlns:xlink="http://www.w3.org/1999/xlink" width="70.603" height="70.604" viewBox="0 0 70.603 70.604">
  <defs>
    <clipPath id="clip-path">
      <rect id="Rectángulo_37503" data-name="Rectángulo 37503" width="36.526" height="36.53" fill="none"/>
    </clipPath>
  </defs>
  <g id="_11" data-name="11" transform="translate(-0.209 -0.5)">
    <path id="Trazado_127482" data-name="Trazado 127482" d="M35.3,0A35.3,35.3,0,1,1,0,35.3,35.3,35.3,0,0,1,35.3,0Z" transform="translate(0.209 0.5)" fill="#d7e4f6"/>
    <g id="Grupo_156595" data-name="Grupo 156595" transform="translate(-2.488 -0.753)">
      <path id="Trazado_127053" data-name="Trazado 127053" d="M15.791,124.4c.5.111.616-.124.611-.592-.013-1.171.007-1.192,1.219-1.185.451,0,.591-.137.582-.583-.008-.416-.084-.609-.564-.607-1.216,0-1.247-.02-1.234-1.233.006-.549-.263-.559-.67-.563s-.618.064-.618.551c0,1.229-.025,1.251-1.225,1.246-.464,0-.574.166-.575.6s.109.6.573.594c1.224-.007,1.253.016,1.226,1.175-.013.538.186.7.674.6" transform="translate(44.527 -83.657)"/>
      <path id="Trazado_127054" data-name="Trazado 127054" d="M213.8,151.163c-.448-.085-.7.063-.622.57.062.424-.085.661-.555.588s-.628.1-.631.591c0,.518.208.638.649.578.422-.057.556.127.547.546-.013.657.394.91,1.03.711.3-.094.236-.335.216-.526-.053-.52.066-.838.679-.734.475.081.5-.217.5-.581s-.015-.659-.5-.585c-.519.08-.765-.11-.678-.658.082-.524-.254-.547-.641-.5" transform="translate(-190.74 -97.489)" fill="#29c4bb"/>
      <path id="Trazado_127055" data-name="Trazado 127055" d="M207.483,69.434c-.116.5.113.67.581.592.507-.085.714.123.625.627-.087.488.124.6.6.609s.671-.14.586-.614c-.091-.505.12-.714.622-.62.52.1.566-.174.585-.612.023-.514-.176-.648-.623-.57-.486.085-.668-.116-.585-.591.079-.454-.068-.638-.574-.62-.446.016-.7.079-.609.591s-.127.7-.625.62c-.469-.079-.7.089-.58.589" transform="translate(-189.828 -50.058)"/>
      <path id="Trazado_127056" data-name="Trazado 127056" d="M51.807,186.809c-.109.466.121.637.587.553.547-.1.677.186.6.647-.087.513.161.592.611.589.43,0,.661-.1.571-.564-.119-.609.186-.759.711-.669s.513-.248.515-.617-.008-.66-.494-.564c-.654.129-.821-.185-.733-.77.085-.56-.342-.4-.627-.416-.3-.018-.638-.057-.55.429.109.6-.1.88-.738.758-.531-.1-.466.268-.45.624" transform="translate(-7.435 -129.47)"/>
      <path id="Trazado_127057" data-name="Trazado 127057" d="M125.364,17.591c.125-.532-.169-.635-.6-.571-.452.067-.63-.12-.561-.565s-.063-.648-.576-.637c-.471.01-.686.132-.6.615s-.145.657-.61.587c-.431-.064-.647.039-.649.565s.2.684.67.609c.5-.079.665.147.588.61-.086.52.193.579.63.588.467.01.62-.166.551-.595-.075-.47.1-.685.589-.6s.683-.117.577-.6" transform="translate(-79.237 -1.816)" fill="#29c4bb"/>
    </g>
    <g id="Grupo_157376" data-name="Grupo 157376" transform="translate(17.248 17.537)">
      <g id="Grupo_157376-2" data-name="Grupo 157376" clip-path="url(#clip-path)">
        <path id="Trazado_129157" data-name="Trazado 129157" d="M0,16.7a3.651,3.651,0,0,0,.2-1.128,18.26,18.26,0,1,1,22.262,20.47,17.766,17.766,0,0,1-2.635.416c-.056,0-.122-.01-.138.071h-.214c-.064-.063-.145-.027-.218-.037h-.183c-.058,0-.122-.015-.17.037H17.617c-.047-.05-.109-.033-.166-.037H17.14c-.057,0-.118-.013-.165.037H16.69a21.811,21.811,0,0,1-2.281-.309A18.476,18.476,0,0,1,1.8,26.414a17.556,17.556,0,0,1-1.71-5.557A9.292,9.292,0,0,0,0,19.84v-.286c.052-.048.032-.111.037-.17s0-.122,0-.183.026-.154-.037-.218V17.557c.062-.064.027-.144.037-.217V17.2c-.01-.073.025-.153-.037-.217Z" transform="translate(0 0)"/>
        <path id="Trazado_129158" data-name="Trazado 129158" d="M0,67.35c.12.042.055.135.059.209-.017.037-.036.038-.059,0Z" transform="translate(0 -50.364)" fill="#878787"/>
        <path id="Trazado_129159" data-name="Trazado 129159" d="M.063,68.689c.008.081.026.165-.063.218v-.214c.019-.03.04-.033.063,0" transform="translate(0 -51.349)" fill="#424242"/>
        <path id="Trazado_129160" data-name="Trazado 129160" d="M0,75.269c.089.055.072.138.059.22-.023.026-.042.022-.059-.006Z" transform="translate(0 -56.285)" fill="#424242"/>
        <path id="Trazado_129161" data-name="Trazado 129161" d="M0,76.117a.584.584,0,0,0,.059.006q0,.106,0,.211c-.022.029-.043.027-.062,0Z" transform="translate(0 -56.92)" fill="#696969"/>
        <path id="Trazado_129162" data-name="Trazado 129162" d="M68.356,144.59l.213,0c.026.011.036.024.028.038s-.015.022-.024.022H68.36c-.022-.013-.03-.026-.024-.041s.013-.022.02-.022" transform="translate(-51.099 -108.123)" fill="#4f4f4f"/>
        <path id="Trazado_129163" data-name="Trazado 129163" d="M75.434,144.6h.214c.019.015.025.029.017.042s-.015.018-.022.018H75.43c-.024-.015-.032-.029-.022-.042a.037.037,0,0,1,.027-.018" transform="translate(-56.386 -108.131)" fill="#505050"/>
        <path id="Trazado_129164" data-name="Trazado 129164" d="M76.355,144.622a.4.4,0,0,1,.005-.06c.074,0,.168-.06.209.06Z" transform="translate(-57.098 -108.092)" fill="#7b7b7b"/>
        <path id="Trazado_129165" data-name="Trazado 129165" d="M.063,68.324c-.021,0-.042,0-.063,0v-.143c.02,0,.039,0,.059,0l0,.143" transform="translate(0 -50.985)" fill="#606060"/>
        <path id="Trazado_129166" data-name="Trazado 129166" d="M0,76.966l.062,0c.007.059.028.123-.062.139Z" transform="translate(0 -57.554)" fill="#8f8f8f"/>
        <path id="Trazado_129167" data-name="Trazado 129167" d="M67.305,144.639c.017-.089.081-.068.14-.06.025.012.034.025.026.039s-.015.021-.023.021Z" transform="translate(-50.33 -108.109)" fill="#929292"/>
        <path id="Trazado_129168" data-name="Trazado 129168" d="M67.862,144.652a.48.48,0,0,0,0-.06l.142,0a.355.355,0,0,1,0,.063Z" transform="translate(-50.744 -108.122)" fill="#737373"/>
        <path id="Trazado_129169" data-name="Trazado 129169" d="M69.271,144.649c0-.02,0-.04,0-.06a.12.12,0,0,1,.148.06Z" transform="translate(-51.796 -108.119)" fill="#373737"/>
        <path id="Trazado_129170" data-name="Trazado 129170" d="M75.089,144.59c0,.02,0,.04,0,.06h-.143a.119.119,0,0,1,.148-.06" transform="translate(-56.04 -108.119)" fill="#373737"/>
        <path id="Trazado_129171" data-name="Trazado 129171" d="M5.658,22.534A16.832,16.832,0,1,1,22.5,39.364,16.833,16.833,0,0,1,5.658,22.534" transform="translate(-4.231 -4.261)" fill="#fe7c96"/>
        <path id="Trazado_129172" data-name="Trazado 129172" d="M34.325,18.183l1.757.211c.01.007.026.013.028.021.1.6.558.739,1.059.88a13.093,13.093,0,0,1,9.4,10.911A12.772,12.772,0,0,1,44.281,39.4a13.008,13.008,0,0,1-9.509,5.487,12.507,12.507,0,0,1-6.884-1.266,12.863,12.863,0,0,1-6.92-8.4,12.234,12.234,0,0,1-.436-3.916A12.9,12.9,0,0,1,23.7,23.34,13.069,13.069,0,0,1,29.656,19.4c.226-.074.456-.134.688-.189a.763.763,0,0,0,.683-.672.186.186,0,0,1,.093-.145l1.757-.211c.1.054.122.167.174.256a.609.609,0,0,0,1.1,0c.052-.089.07-.2.174-.256" transform="translate(-15.342 -13.597)" fill="#fefefe"/>
        <path id="Trazado_129173" data-name="Trazado 129173" d="M27.2,17.365c-.015.584-.166.744-.784.916a12.65,12.65,0,0,0-8.827,7.858A12.973,12.973,0,1,0,32.95,18.276c-.633-.171-.77-.329-.785-.911a.754.754,0,0,1,1.085-.488C38.96,18.555,42.6,22.259,43.795,28.1A14.392,14.392,0,1,1,26.083,16.885c.624-.163.871-.057,1.119.48" transform="translate(-11.425 -12.568)"/>
        <path id="Trazado_129174" data-name="Trazado 129174" d="M70.971,16.043c-.115.478-.362.71-.743.7s-.6-.236-.707-.7c.1-.48.341-.722.725-.722s.625.241.725.722" transform="translate(-51.988 -11.457)" fill="#010101"/>
        <path id="Trazado_129175" data-name="Trazado 129175" d="M65.29,62.071a3.352,3.352,0,0,1-3.135-2.217,3.3,3.3,0,0,1,1-3.7c.2-.16.191-.234.044-.427a2.63,2.63,0,1,1,4.207-.007c-.168.22-.125.292.062.449a3.32,3.32,0,0,1,.963,3.744,3.363,3.363,0,0,1-3.143,2.157" transform="translate(-46.327 -38.523)"/>
        <path id="Trazado_129176" data-name="Trazado 129176" d="M43.238,56.805q0,2.139,0,4.279a3.1,3.1,0,0,1-.01.356.7.7,0,0,1-.638.615.714.714,0,0,1-.724-.467,1.375,1.375,0,0,1-.054-.493c0-2.615,0-5.23.007-7.844,0-.267-.061-.352-.329-.328a7.289,7.289,0,0,1-.891,0,.711.711,0,1,1,.009-1.421c.606-.01,1.212-.006,1.818,0a.713.713,0,0,1,.811.809c0,1.5,0,2.995,0,4.493" transform="translate(-29.815 -38.511)"/>
        <path id="Trazado_129177" data-name="Trazado 129177" d="M95.941,53.795a.735.735,0,0,1,.709.745c.019.246-.106.562.05.72s.472.032.718.052a.728.728,0,0,1,.746.741.715.715,0,0,1-.757.686c-.245.014-.568-.114-.711.062-.119.146-.035.455-.046.691a.717.717,0,1,1-1.425-.032c-.016-.706-.016-.706-.72-.723-.493-.012-.81-.288-.811-.707s.316-.693.808-.722c.232-.014.546.113.674-.062.115-.158.04-.454.048-.69a.717.717,0,0,1,.716-.763" transform="translate(-70.064 -40.227)"/>
        <path id="Trazado_129178" data-name="Trazado 129178" d="M71.449,74.38a1.925,1.925,0,1,1-1.91-1.938,1.925,1.925,0,0,1,1.91,1.938" transform="translate(-50.55 -54.171)" fill="#fefefe"/>
        <path id="Trazado_129179" data-name="Trazado 129179" d="M71.647,57.172a1.211,1.211,0,1,1-1.215,1.19,1.211,1.211,0,0,1,1.215-1.19" transform="translate(-52.668 -42.753)" fill="#fefefe"/>
      </g>
    </g>
  </g>
</svg>
