<svg xmlns="http://www.w3.org/2000/svg" width="504" height="476" viewBox="0 0 504 476">
  <g id="Grupo_157612" data-name="Grupo 157612" transform="translate(-496 -5168)">
    <rect id="Rectángulo_37348" data-name="Rectángulo 37348" width="400" height="33" transform="translate(600 5168)" fill="#b0c8cb"/>
    <path id="Trazado_130977" data-name="Trazado 130977" d="M22.82,10.992V15H20.477V3.625h4.438a5.134,5.134,0,0,1,2.254.469,3.454,3.454,0,0,1,1.5,1.332,3.714,3.714,0,0,1,.523,1.965,3.266,3.266,0,0,1-1.145,2.637,4.767,4.767,0,0,1-3.168.965Zm0-1.9h2.094a2.059,2.059,0,0,0,1.418-.437,1.591,1.591,0,0,0,.488-1.25,1.876,1.876,0,0,0-.492-1.352,1.839,1.839,0,0,0-1.359-.531H22.82ZM35.461,15a2.507,2.507,0,0,1-.227-.758,2.732,2.732,0,0,1-2.133.914,3,3,0,0,1-2.059-.719,2.312,2.312,0,0,1-.816-1.812,2.389,2.389,0,0,1,1-2.062A4.915,4.915,0,0,1,34.1,9.836h1.039V9.352a1.393,1.393,0,0,0-.3-.937,1.183,1.183,0,0,0-.949-.352A1.345,1.345,0,0,0,33,8.336a.929.929,0,0,0-.324.75H30.414a2.268,2.268,0,0,1,.453-1.359,3,3,0,0,1,1.281-.98,4.669,4.669,0,0,1,1.859-.355,3.689,3.689,0,0,1,2.48.785,2.747,2.747,0,0,1,.918,2.207v3.664a4.041,4.041,0,0,0,.336,1.82V15Zm-1.867-1.57a1.945,1.945,0,0,0,.922-.223,1.462,1.462,0,0,0,.625-.6V11.156H34.3q-1.7,0-1.8,1.172l-.008.133a.9.9,0,0,0,.3.7A1.153,1.153,0,0,0,33.594,13.43Zm10.3-4.766a6.134,6.134,0,0,0-.812-.062,1.654,1.654,0,0,0-1.68.867V15H39.141V6.547h2.133l.063,1.008a2.092,2.092,0,0,1,1.883-1.164,2.366,2.366,0,0,1,.7.1Zm4.18-4.2V6.547h1.445V8.2H48.07v4.219a1.007,1.007,0,0,0,.18.672.9.9,0,0,0,.688.2,3.6,3.6,0,0,0,.664-.055v1.711a4.648,4.648,0,0,1-1.367.2,2.156,2.156,0,0,1-2.422-2.4V8.2H44.578V6.547h1.234V4.469ZM53.156,15H50.891V6.547h2.266Zm-2.4-10.641a1.112,1.112,0,0,1,.34-.836,1.465,1.465,0,0,1,1.848,0,1.105,1.105,0,0,1,.344.836,1.108,1.108,0,0,1-.348.844,1.448,1.448,0,0,1-1.836,0A1.108,1.108,0,0,1,50.758,4.359Zm7.773,8.977a1.481,1.481,0,0,0,1.016-.344,1.2,1.2,0,0,0,.406-.914H62.07a2.9,2.9,0,0,1-.469,1.574,3.093,3.093,0,0,1-1.262,1.109,3.949,3.949,0,0,1-1.77.395A3.67,3.67,0,0,1,55.711,14a4.56,4.56,0,0,1-1.047-3.184v-.148A4.508,4.508,0,0,1,55.7,7.555a3.627,3.627,0,0,1,2.852-1.164,3.555,3.555,0,0,1,2.543.9,3.2,3.2,0,0,1,.973,2.4H59.953a1.551,1.551,0,0,0-.406-1.072,1.51,1.51,0,0,0-2.223.163,3.333,3.333,0,0,0-.4,1.866v.235a3.375,3.375,0,0,0,.4,1.878A1.377,1.377,0,0,0,58.531,13.336ZM65.742,15H63.477V6.547h2.266Zm-2.4-10.641a1.112,1.112,0,0,1,.34-.836,1.465,1.465,0,0,1,1.848,0,1.105,1.105,0,0,1,.344.836,1.108,1.108,0,0,1-.348.844,1.448,1.448,0,0,1-1.836,0A1.108,1.108,0,0,1,63.344,4.359Zm11.867,6.492a5.07,5.07,0,0,1-.887,3.129,2.843,2.843,0,0,1-2.395,1.176,2.633,2.633,0,0,1-2.07-.891V18.25H67.6V6.547H69.7l.078.828a2.654,2.654,0,0,1,2.141-.984,2.862,2.862,0,0,1,2.43,1.156,5.207,5.207,0,0,1,.867,3.188Zm-2.258-.172a3.345,3.345,0,0,0-.418-1.826,1.36,1.36,0,0,0-1.215-.643,1.478,1.478,0,0,0-1.461.815V12.5a1.5,1.5,0,0,0,1.477.839Q72.953,13.336,72.953,10.679ZM81.508,15a2.507,2.507,0,0,1-.227-.758,2.732,2.732,0,0,1-2.133.914,3,3,0,0,1-2.059-.719,2.312,2.312,0,0,1-.816-1.812,2.389,2.389,0,0,1,1-2.062,4.915,4.915,0,0,1,2.879-.727h1.039V9.352a1.393,1.393,0,0,0-.3-.937,1.183,1.183,0,0,0-.949-.352,1.345,1.345,0,0,0-.895.273.929.929,0,0,0-.324.75H76.461a2.268,2.268,0,0,1,.453-1.359,3,3,0,0,1,1.281-.98,4.669,4.669,0,0,1,1.859-.355,3.689,3.689,0,0,1,2.48.785,2.747,2.747,0,0,1,.918,2.207v3.664a4.041,4.041,0,0,0,.336,1.82V15Zm-1.867-1.57a1.945,1.945,0,0,0,.922-.223,1.462,1.462,0,0,0,.625-.6V11.156h-.844q-1.7,0-1.8,1.172l-.008.133a.9.9,0,0,0,.3.7A1.153,1.153,0,0,0,79.641,13.43Zm9.063-.094a1.481,1.481,0,0,0,1.016-.344,1.2,1.2,0,0,0,.406-.914h2.117a2.9,2.9,0,0,1-.469,1.574,3.093,3.093,0,0,1-1.262,1.109,3.949,3.949,0,0,1-1.77.395A3.67,3.67,0,0,1,85.883,14a4.56,4.56,0,0,1-1.047-3.184v-.148a4.508,4.508,0,0,1,1.039-3.117,3.627,3.627,0,0,1,2.852-1.164,3.555,3.555,0,0,1,2.543.9,3.2,3.2,0,0,1,.973,2.4H90.125a1.551,1.551,0,0,0-.406-1.072,1.51,1.51,0,0,0-2.223.163,3.333,3.333,0,0,0-.4,1.866v.235a3.375,3.375,0,0,0,.4,1.878A1.377,1.377,0,0,0,88.7,13.336ZM95.914,15H93.648V6.547h2.266Zm-2.4-10.641a1.112,1.112,0,0,1,.34-.836,1.465,1.465,0,0,1,1.848,0,1.105,1.105,0,0,1,.344.836A1.108,1.108,0,0,1,95.7,5.2a1.448,1.448,0,0,1-1.836,0A1.108,1.108,0,0,1,93.516,4.359ZM97.422,10.7a5.013,5.013,0,0,1,.484-2.242A3.546,3.546,0,0,1,99.3,6.93a4.069,4.069,0,0,1,2.113-.539,3.849,3.849,0,0,1,2.793,1.047,4.2,4.2,0,0,1,1.207,2.844l.016.578a4.418,4.418,0,0,1-1.086,3.121,4.209,4.209,0,0,1-5.832,0,4.5,4.5,0,0,1-1.09-3.187Zm2.258.16a3.16,3.16,0,0,0,.453,1.843,1.628,1.628,0,0,0,2.578.008,3.457,3.457,0,0,0,.461-2.015,3.128,3.128,0,0,0-.461-1.831,1.5,1.5,0,0,0-1.3-.649,1.474,1.474,0,0,0-1.281.646A3.516,3.516,0,0,0,99.68,10.856ZM101.859,3h2.461l-2.164,2.422H100.32ZM108.9,6.547l.07.977a2.951,2.951,0,0,1,2.43-1.133,2.453,2.453,0,0,1,2,.789,3.682,3.682,0,0,1,.672,2.359V15h-2.258V9.581a1.47,1.47,0,0,0-.312-1.045,1.4,1.4,0,0,0-1.039-.325,1.553,1.553,0,0,0-1.43.814V15h-2.258V6.547Zm14.758,8.609a4.15,4.15,0,0,1-3.027-1.141,4.054,4.054,0,0,1-1.168-3.039v-.219a5.106,5.106,0,0,1,.492-2.277,3.612,3.612,0,0,1,1.395-1.547,3.914,3.914,0,0,1,2.059-.543,3.508,3.508,0,0,1,2.73,1.094,4.444,4.444,0,0,1,1,3.1v.922H121.75a2.1,2.1,0,0,0,.66,1.328,2,2,0,0,0,1.395.5,2.437,2.437,0,0,0,2.039-.945l1.109,1.242a3.389,3.389,0,0,1-1.375,1.121A4.511,4.511,0,0,1,123.656,15.156ZM123.4,8.211a1.411,1.411,0,0,0-1.09.455,2.357,2.357,0,0,0-.535,1.3h3.141V9.788a1.681,1.681,0,0,0-.406-1.165A1.456,1.456,0,0,0,123.4,8.211Zm7.094-1.664.07.977a2.951,2.951,0,0,1,2.43-1.133,2.453,2.453,0,0,1,2,.789,3.682,3.682,0,0,1,.672,2.359V15h-2.258V9.581a1.47,1.47,0,0,0-.312-1.045,1.4,1.4,0,0,0-1.039-.325,1.553,1.553,0,0,0-1.43.814V15h-2.258V6.547Zm14.758,8.609a4.15,4.15,0,0,1-3.027-1.141,4.054,4.054,0,0,1-1.168-3.039v-.219a5.106,5.106,0,0,1,.492-2.277,3.612,3.612,0,0,1,1.395-1.547A3.914,3.914,0,0,1,145,6.391a3.508,3.508,0,0,1,2.73,1.094,4.444,4.444,0,0,1,1,3.1v.922h-5.383a2.1,2.1,0,0,0,.66,1.328,2,2,0,0,0,1.395.5,2.437,2.437,0,0,0,2.039-.945l1.109,1.242a3.389,3.389,0,0,1-1.375,1.121A4.511,4.511,0,0,1,145.25,15.156Zm-.258-6.945a1.411,1.411,0,0,0-1.09.455,2.357,2.357,0,0,0-.535,1.3h3.141V9.788a1.681,1.681,0,0,0-.406-1.165A1.456,1.456,0,0,0,144.992,8.211Zm7.4,6.789h-2.266V3h2.266Zm7.961-8.453.07.945a2.971,2.971,0,0,1,2.43-1.1,2.255,2.255,0,0,1,2.242,1.289,2.9,2.9,0,0,1,2.539-1.289,2.521,2.521,0,0,1,2.047.8,3.681,3.681,0,0,1,.672,2.41V15h-2.266V9.6a1.616,1.616,0,0,0-.281-1.053,1.245,1.245,0,0,0-.992-.333,1.409,1.409,0,0,0-1.406.971L165.414,15h-2.258V9.6a1.6,1.6,0,0,0-.289-1.065,1.257,1.257,0,0,0-.984-.329,1.463,1.463,0,0,0-1.391.8V15h-2.258V6.547Zm15.625,8.609a4.15,4.15,0,0,1-3.027-1.141,4.054,4.054,0,0,1-1.168-3.039v-.219a5.106,5.106,0,0,1,.492-2.277,3.612,3.612,0,0,1,1.395-1.547,3.914,3.914,0,0,1,2.059-.543,3.508,3.508,0,0,1,2.73,1.094,4.444,4.444,0,0,1,1,3.1v.922H174.07a2.1,2.1,0,0,0,.66,1.328,2,2,0,0,0,1.395.5,2.437,2.437,0,0,0,2.039-.945l1.109,1.242a3.389,3.389,0,0,1-1.375,1.121A4.511,4.511,0,0,1,175.977,15.156Zm-.258-6.945a1.411,1.411,0,0,0-1.09.455,2.357,2.357,0,0,0-.535,1.3h3.141V9.788a1.681,1.681,0,0,0-.406-1.165A1.456,1.456,0,0,0,175.719,8.211Zm9.766.453a6.134,6.134,0,0,0-.812-.062,1.654,1.654,0,0,0-1.68.867V15h-2.258V6.547h2.133l.063,1.008a2.092,2.092,0,0,1,1.883-1.164,2.366,2.366,0,0,1,.7.1Zm4.453,4.672a1.481,1.481,0,0,0,1.016-.344,1.2,1.2,0,0,0,.406-.914h2.117a2.9,2.9,0,0,1-.469,1.574,3.093,3.093,0,0,1-1.262,1.109,3.949,3.949,0,0,1-1.77.395A3.67,3.67,0,0,1,187.117,14a4.56,4.56,0,0,1-1.047-3.184v-.148a4.508,4.508,0,0,1,1.039-3.117,3.627,3.627,0,0,1,2.852-1.164,3.555,3.555,0,0,1,2.543.9,3.2,3.2,0,0,1,.973,2.4h-2.117a1.551,1.551,0,0,0-.406-1.072,1.51,1.51,0,0,0-2.223.163,3.333,3.333,0,0,0-.4,1.866v.235a3.375,3.375,0,0,0,.4,1.878A1.377,1.377,0,0,0,189.938,13.336ZM199.664,15a2.507,2.507,0,0,1-.227-.758,2.732,2.732,0,0,1-2.133.914,3,3,0,0,1-2.059-.719,2.312,2.312,0,0,1-.816-1.812,2.389,2.389,0,0,1,1-2.062,4.915,4.915,0,0,1,2.879-.727h1.039V9.352a1.393,1.393,0,0,0-.3-.937,1.183,1.183,0,0,0-.949-.352,1.345,1.345,0,0,0-.895.273.929.929,0,0,0-.324.75h-2.258a2.268,2.268,0,0,1,.453-1.359,3,3,0,0,1,1.281-.98,4.669,4.669,0,0,1,1.859-.355,3.689,3.689,0,0,1,2.48.785,2.747,2.747,0,0,1,.918,2.207v3.664a4.041,4.041,0,0,0,.336,1.82V15ZM197.8,13.43a1.945,1.945,0,0,0,.922-.223,1.462,1.462,0,0,0,.625-.6V11.156H198.5q-1.7,0-1.8,1.172l-.008.133a.9.9,0,0,0,.3.7A1.153,1.153,0,0,0,197.8,13.43Zm5.2-2.719a5.094,5.094,0,0,1,.887-3.148A2.877,2.877,0,0,1,206.3,6.391a2.589,2.589,0,0,1,2.039.922V3h2.266V15H208.57l-.109-.9a2.657,2.657,0,0,1-2.172,1.055,2.869,2.869,0,0,1-2.395-1.176A5.258,5.258,0,0,1,202.992,10.711Zm2.258.161a3.355,3.355,0,0,0,.414,1.829,1.348,1.348,0,0,0,1.2.636,1.51,1.51,0,0,0,1.477-.887V9.1a1.489,1.489,0,0,0-1.461-.887Q205.25,8.211,205.25,10.872Zm6.758-.176a5.013,5.013,0,0,1,.484-2.242,3.546,3.546,0,0,1,1.395-1.523A4.069,4.069,0,0,1,216,6.391a3.849,3.849,0,0,1,2.793,1.047A4.2,4.2,0,0,1,220,10.281l.016.578a4.418,4.418,0,0,1-1.086,3.121,4.209,4.209,0,0,1-5.832,0,4.5,4.5,0,0,1-1.09-3.187Zm2.258.16a3.16,3.16,0,0,0,.453,1.843,1.628,1.628,0,0,0,2.578.008,3.457,3.457,0,0,0,.461-2.015A3.128,3.128,0,0,0,217.3,8.86a1.5,1.5,0,0,0-1.3-.649,1.474,1.474,0,0,0-1.281.646A3.516,3.516,0,0,0,214.266,10.856Z" transform="translate(680 5175)" fill="#12263f"/>
    <g id="Grupo_157611" data-name="Grupo 157611">
      <rect id="Rectángulo_37344" data-name="Rectángulo 37344" width="190" height="190" transform="translate(600 5240)" fill="#c9f0ee"/>
      <rect id="Rectángulo_37347" data-name="Rectángulo 37347" width="190" height="190" transform="translate(600 5454)" fill="#c9f0ee"/>
      <rect id="Rectángulo_37345" data-name="Rectángulo 37345" width="190" height="190" transform="translate(810 5240)" fill="#c9f0ee"/>
      <rect id="Rectángulo_37346" data-name="Rectángulo 37346" width="190" height="190" transform="translate(810 5454)" fill="#c9f0ee"/>
      <path id="Trazado_130978" data-name="Trazado 130978" d="M27.324,12.656H23.215L22.434,15H19.941L24.176,3.625h2.172L30.605,15H28.113Zm-3.477-1.9h2.844L25.262,6.5ZM33.9,15H31.637V3H33.9ZM38.465,4.469V6.547H39.91V8.2H38.465v4.219a1.007,1.007,0,0,0,.18.672.9.9,0,0,0,.688.2A3.6,3.6,0,0,0,40,13.242v1.711a4.648,4.648,0,0,1-1.367.2,2.156,2.156,0,0,1-2.422-2.4V8.2H34.973V6.547h1.234V4.469ZM40.582,10.7a5.013,5.013,0,0,1,.484-2.242A3.546,3.546,0,0,1,42.461,6.93a4.069,4.069,0,0,1,2.113-.539,3.849,3.849,0,0,1,2.793,1.047,4.2,4.2,0,0,1,1.207,2.844l.016.578A4.418,4.418,0,0,1,47.5,13.98a4.209,4.209,0,0,1-5.832,0,4.5,4.5,0,0,1-1.09-3.187Zm2.258.16a3.16,3.16,0,0,0,.453,1.843,1.628,1.628,0,0,0,2.578.008,3.457,3.457,0,0,0,.461-2.015,3.128,3.128,0,0,0-.461-1.831,1.5,1.5,0,0,0-1.3-.649,1.474,1.474,0,0,0-1.281.646A3.516,3.516,0,0,0,42.84,10.856Z" transform="translate(661 5209)" fill="#12263f"/>
      <path id="Trazado_130984" data-name="Trazado 130984" d="M27.324,12.656H23.215L22.434,15H19.941L24.176,3.625h2.172L30.605,15H28.113Zm-3.477-1.9h2.844L25.262,6.5ZM33.9,15H31.637V3H33.9ZM38.465,4.469V6.547H39.91V8.2H38.465v4.219a1.007,1.007,0,0,0,.18.672.9.9,0,0,0,.688.2A3.6,3.6,0,0,0,40,13.242v1.711a4.648,4.648,0,0,1-1.367.2,2.156,2.156,0,0,1-2.422-2.4V8.2H34.973V6.547h1.234V4.469ZM40.582,10.7a5.013,5.013,0,0,1,.484-2.242A3.546,3.546,0,0,1,42.461,6.93a4.069,4.069,0,0,1,2.113-.539,3.849,3.849,0,0,1,2.793,1.047,4.2,4.2,0,0,1,1.207,2.844l.016.578A4.418,4.418,0,0,1,47.5,13.98a4.209,4.209,0,0,1-5.832,0,4.5,4.5,0,0,1-1.09-3.187Zm2.258.16a3.16,3.16,0,0,0,.453,1.843,1.628,1.628,0,0,0,2.578.008,3.457,3.457,0,0,0,.461-2.015,3.128,3.128,0,0,0-.461-1.831,1.5,1.5,0,0,0-1.3-.649,1.474,1.474,0,0,0-1.281.646A3.516,3.516,0,0,0,42.84,10.856Z" transform="translate(549 5584) rotate(-90)" fill="#12263f"/>
      <path id="Trazado_130981" data-name="Trazado 130981" d="M15.344,10.055h-4.5v3.063h5.281V15H8.5V3.625h7.609v1.9H10.844V8.234h4.5Zm6.586,2.609a.727.727,0,0,0-.41-.652,4.659,4.659,0,0,0-1.316-.426q-3.016-.633-3.016-2.562a2.323,2.323,0,0,1,.934-1.879,3.766,3.766,0,0,1,2.441-.754,4.053,4.053,0,0,1,2.574.758A2.388,2.388,0,0,1,24.1,9.117H21.844a1.092,1.092,0,0,0-.312-.8A1.322,1.322,0,0,0,20.555,8a1.351,1.351,0,0,0-.883.258.814.814,0,0,0-.312.656.7.7,0,0,0,.355.605,3.657,3.657,0,0,0,1.2.4,9.8,9.8,0,0,1,1.422.379,2.336,2.336,0,0,1,1.789,2.273,2.2,2.2,0,0,1-.992,1.871,4.28,4.28,0,0,1-2.562.715,4.47,4.47,0,0,1-1.887-.379,3.166,3.166,0,0,1-1.293-1.039,2.414,2.414,0,0,1-.469-1.426h2.141a1.179,1.179,0,0,0,.445.922,1.766,1.766,0,0,0,1.109.32,1.635,1.635,0,0,0,.98-.246A.766.766,0,0,0,21.93,12.664Zm6.352-8.2V6.547h1.445V8.2H28.281v4.219a1.007,1.007,0,0,0,.18.672.9.9,0,0,0,.688.2,3.6,3.6,0,0,0,.664-.055v1.711a4.648,4.648,0,0,1-1.367.2,2.156,2.156,0,0,1-2.422-2.4V8.2H24.789V6.547h1.234V4.469Zm7.453,4.2a6.134,6.134,0,0,0-.812-.062,1.654,1.654,0,0,0-1.68.867V15H30.984V6.547h2.133l.063,1.008a2.092,2.092,0,0,1,1.883-1.164,2.366,2.366,0,0,1,.7.1Zm4.828,6.492a4.15,4.15,0,0,1-3.027-1.141,4.054,4.054,0,0,1-1.168-3.039v-.219a5.106,5.106,0,0,1,.492-2.277,3.612,3.612,0,0,1,1.395-1.547,3.914,3.914,0,0,1,2.059-.543,3.508,3.508,0,0,1,2.73,1.094,4.444,4.444,0,0,1,1,3.1v.922H38.656a2.1,2.1,0,0,0,.66,1.328,2,2,0,0,0,1.395.5,2.437,2.437,0,0,0,2.039-.945l1.109,1.242a3.389,3.389,0,0,1-1.375,1.121A4.511,4.511,0,0,1,40.563,15.156ZM40.3,8.211a1.411,1.411,0,0,0-1.09.455,2.357,2.357,0,0,0-.535,1.3H41.82V9.788a1.681,1.681,0,0,0-.406-1.165A1.456,1.456,0,0,0,40.3,8.211ZM47.7,15H45.438V3H47.7Zm4.242,0H49.68V3h2.266ZM58.7,15a2.507,2.507,0,0,1-.227-.758,2.732,2.732,0,0,1-2.133.914,3,3,0,0,1-2.059-.719,2.312,2.312,0,0,1-.816-1.812,2.389,2.389,0,0,1,1-2.062,4.915,4.915,0,0,1,2.879-.727h1.039V9.352a1.393,1.393,0,0,0-.3-.937,1.183,1.183,0,0,0-.949-.352,1.345,1.345,0,0,0-.895.273.929.929,0,0,0-.324.75H53.656a2.268,2.268,0,0,1,.453-1.359,3,3,0,0,1,1.281-.98,4.669,4.669,0,0,1,1.859-.355,3.689,3.689,0,0,1,2.48.785,2.747,2.747,0,0,1,.918,2.207v3.664a4.041,4.041,0,0,0,.336,1.82V15Zm-1.867-1.57a1.945,1.945,0,0,0,.922-.223,1.462,1.462,0,0,0,.625-.6V11.156h-.844q-1.7,0-1.8,1.172l-.008.133a.9.9,0,0,0,.3.7A1.153,1.153,0,0,0,56.836,13.43Z" transform="translate(661 5394)" fill="#12263f"/>
      <path id="Trazado_130985" data-name="Trazado 130985" d="M7.418,12.18,10,3.625h2.609L8.645,15H6.2L2.254,3.625h2.6ZM18.066,15a2.507,2.507,0,0,1-.227-.758,2.732,2.732,0,0,1-2.133.914,3,3,0,0,1-2.059-.719,2.312,2.312,0,0,1-.816-1.812,2.389,2.389,0,0,1,1-2.062,4.915,4.915,0,0,1,2.879-.727h1.039V9.352a1.393,1.393,0,0,0-.3-.937,1.183,1.183,0,0,0-.949-.352,1.345,1.345,0,0,0-.895.273.929.929,0,0,0-.324.75H13.02a2.268,2.268,0,0,1,.453-1.359,3,3,0,0,1,1.281-.98,4.669,4.669,0,0,1,1.859-.355,3.689,3.689,0,0,1,2.48.785,2.747,2.747,0,0,1,.918,2.207v3.664a4.041,4.041,0,0,0,.336,1.82V15ZM16.2,13.43a1.945,1.945,0,0,0,.922-.223,1.462,1.462,0,0,0,.625-.6V11.156H16.9q-1.7,0-1.8,1.172l-.008.133a.9.9,0,0,0,.3.7A1.153,1.153,0,0,0,16.2,13.43Zm9.063-.094a1.481,1.481,0,0,0,1.016-.344,1.2,1.2,0,0,0,.406-.914H28.8a2.9,2.9,0,0,1-.469,1.574,3.093,3.093,0,0,1-1.262,1.109,3.949,3.949,0,0,1-1.77.395A3.67,3.67,0,0,1,22.441,14a4.56,4.56,0,0,1-1.047-3.184v-.148a4.508,4.508,0,0,1,1.039-3.117,3.627,3.627,0,0,1,2.852-1.164,3.555,3.555,0,0,1,2.543.9A3.2,3.2,0,0,1,28.8,9.7H26.684a1.551,1.551,0,0,0-.406-1.072,1.51,1.51,0,0,0-2.223.163,3.333,3.333,0,0,0-.4,1.866v.235a3.375,3.375,0,0,0,.4,1.878A1.377,1.377,0,0,0,25.262,13.336ZM34.988,15a2.507,2.507,0,0,1-.227-.758,2.732,2.732,0,0,1-2.133.914,3,3,0,0,1-2.059-.719,2.312,2.312,0,0,1-.816-1.812,2.389,2.389,0,0,1,1-2.062,4.915,4.915,0,0,1,2.879-.727h1.039V9.352a1.393,1.393,0,0,0-.3-.937,1.183,1.183,0,0,0-.949-.352,1.345,1.345,0,0,0-.895.273.929.929,0,0,0-.324.75H29.941a2.268,2.268,0,0,1,.453-1.359,3,3,0,0,1,1.281-.98,4.669,4.669,0,0,1,1.859-.355,3.689,3.689,0,0,1,2.48.785,2.747,2.747,0,0,1,.918,2.207v3.664a4.041,4.041,0,0,0,.336,1.82V15Zm-1.867-1.57a1.945,1.945,0,0,0,.922-.223,1.462,1.462,0,0,0,.625-.6V11.156h-.844q-1.7,0-1.8,1.172l-.008.133a.9.9,0,0,0,.3.7A1.153,1.153,0,0,0,33.121,13.43ZM45.035,15H42.77V3h2.266Zm5.75.156a4.15,4.15,0,0,1-3.027-1.141,4.054,4.054,0,0,1-1.168-3.039v-.219a5.106,5.106,0,0,1,.492-2.277,3.612,3.612,0,0,1,1.395-1.547,3.914,3.914,0,0,1,2.059-.543,3.508,3.508,0,0,1,2.73,1.094,4.444,4.444,0,0,1,1,3.1v.922H48.879a2.1,2.1,0,0,0,.66,1.328,2,2,0,0,0,1.395.5,2.437,2.437,0,0,0,2.039-.945l1.109,1.242a3.389,3.389,0,0,1-1.375,1.121A4.511,4.511,0,0,1,50.785,15.156Zm-.258-6.945a1.411,1.411,0,0,0-1.09.455,2.357,2.357,0,0,0-.535,1.3h3.141V9.788a1.681,1.681,0,0,0-.406-1.165A1.456,1.456,0,0,0,50.527,8.211Zm8.531,5.125a1.481,1.481,0,0,0,1.016-.344,1.2,1.2,0,0,0,.406-.914H62.6a2.9,2.9,0,0,1-.469,1.574,3.093,3.093,0,0,1-1.262,1.109,3.949,3.949,0,0,1-1.77.395A3.67,3.67,0,0,1,56.238,14a4.56,4.56,0,0,1-1.047-3.184v-.148A4.508,4.508,0,0,1,56.23,7.555a3.627,3.627,0,0,1,2.852-1.164,3.555,3.555,0,0,1,2.543.9A3.2,3.2,0,0,1,62.6,9.7H60.48a1.551,1.551,0,0,0-.406-1.072,1.51,1.51,0,0,0-2.223.163,3.333,3.333,0,0,0-.4,1.866v.235a3.375,3.375,0,0,0,.4,1.878A1.377,1.377,0,0,0,59.059,13.336ZM66.09,7.469a2.818,2.818,0,0,1,2.258-1.078q2.75,0,2.789,3.2V15H68.879V9.636a1.577,1.577,0,0,0-.312-1.077,1.338,1.338,0,0,0-1.039-.348,1.536,1.536,0,0,0-1.437.767V15H63.832V3H66.09ZM76.73,15.156A4.15,4.15,0,0,1,73.7,14.016a4.054,4.054,0,0,1-1.168-3.039v-.219a5.106,5.106,0,0,1,.492-2.277,3.612,3.612,0,0,1,1.395-1.547,3.914,3.914,0,0,1,2.059-.543,3.508,3.508,0,0,1,2.73,1.094,4.444,4.444,0,0,1,1,3.1v.922H74.824a2.1,2.1,0,0,0,.66,1.328,2,2,0,0,0,1.395.5,2.437,2.437,0,0,0,2.039-.945l1.109,1.242a3.389,3.389,0,0,1-1.375,1.121A4.511,4.511,0,0,1,76.73,15.156Zm-.258-6.945a1.411,1.411,0,0,0-1.09.455,2.357,2.357,0,0,0-.535,1.3h3.141V9.788a1.681,1.681,0,0,0-.406-1.165A1.456,1.456,0,0,0,76.473,8.211Zm9.766.453a6.134,6.134,0,0,0-.812-.062,1.654,1.654,0,0,0-1.68.867V15H81.488V6.547h2.133l.063,1.008a2.092,2.092,0,0,1,1.883-1.164,2.366,2.366,0,0,1,.7.1ZM91.988,15a2.507,2.507,0,0,1-.227-.758,2.732,2.732,0,0,1-2.133.914,3,3,0,0,1-2.059-.719,2.312,2.312,0,0,1-.816-1.812,2.389,2.389,0,0,1,1-2.062,4.915,4.915,0,0,1,2.879-.727h1.039V9.352a1.393,1.393,0,0,0-.3-.937,1.183,1.183,0,0,0-.949-.352,1.345,1.345,0,0,0-.895.273.929.929,0,0,0-.324.75H86.941a2.268,2.268,0,0,1,.453-1.359,3,3,0,0,1,1.281-.98,4.669,4.669,0,0,1,1.859-.355,3.689,3.689,0,0,1,2.48.785,2.747,2.747,0,0,1,.918,2.207v3.664a4.041,4.041,0,0,0,.336,1.82V15Zm-1.867-1.57a1.945,1.945,0,0,0,.922-.223,1.462,1.462,0,0,0,.625-.6V11.156h-.844q-1.7,0-1.8,1.172l-.008.133a.9.9,0,0,0,.3.7A1.153,1.153,0,0,0,90.121,13.43Z" transform="translate(647 5606)" fill="#12263f"/>
      <path id="Trazado_130979" data-name="Trazado 130979" d="M19.52,15V3.625H23.5a5.232,5.232,0,0,1,3.141.793,2.712,2.712,0,0,1,1.07,2.324,2.57,2.57,0,0,1-.43,1.473,2.482,2.482,0,0,1-1.2.934,2.4,2.4,0,0,1,1.379.883,2.61,2.61,0,0,1,.5,1.625,3,3,0,0,1-1.047,2.484A4.713,4.713,0,0,1,23.941,15Zm2.344-4.953v3.07h2.008a1.938,1.938,0,0,0,1.293-.395,1.353,1.353,0,0,0,.465-1.09,1.428,1.428,0,0,0-1.617-1.586Zm0-1.656H23.6q1.773-.031,1.773-1.414a1.307,1.307,0,0,0-.449-1.113,2.363,2.363,0,0,0-1.418-.34H21.863ZM34.48,15a2.507,2.507,0,0,1-.227-.758,2.732,2.732,0,0,1-2.133.914,3,3,0,0,1-2.059-.719,2.312,2.312,0,0,1-.816-1.812,2.389,2.389,0,0,1,1-2.062,4.915,4.915,0,0,1,2.879-.727H34.16V9.352a1.393,1.393,0,0,0-.3-.937,1.183,1.183,0,0,0-.949-.352,1.345,1.345,0,0,0-.895.273.929.929,0,0,0-.324.75H29.434a2.268,2.268,0,0,1,.453-1.359,3,3,0,0,1,1.281-.98,4.669,4.669,0,0,1,1.859-.355,3.689,3.689,0,0,1,2.48.785,2.747,2.747,0,0,1,.918,2.207v3.664a4.041,4.041,0,0,0,.336,1.82V15Zm-1.867-1.57a1.945,1.945,0,0,0,.922-.223,1.462,1.462,0,0,0,.625-.6V11.156h-.844q-1.7,0-1.8,1.172l-.008.133a.9.9,0,0,0,.3.7A1.153,1.153,0,0,0,32.613,13.43Zm7.938-6.883v8.914a3.024,3.024,0,0,1-.742,2.176,2.821,2.821,0,0,1-2.141.777,4.591,4.591,0,0,1-1.117-.133V16.492a4.238,4.238,0,0,0,.711.07q1.023,0,1.023-1.086V6.547ZM38.105,4.359a1.112,1.112,0,0,1,.34-.836,1.47,1.47,0,0,1,1.852,0,1.112,1.112,0,0,1,.34.836,1.108,1.108,0,0,1-.348.844,1.448,1.448,0,0,1-1.836,0A1.108,1.108,0,0,1,38.105,4.359ZM41.965,10.7a5.013,5.013,0,0,1,.484-2.242A3.546,3.546,0,0,1,43.844,6.93a4.069,4.069,0,0,1,2.113-.539A3.849,3.849,0,0,1,48.75,7.438a4.2,4.2,0,0,1,1.207,2.844l.016.578a4.418,4.418,0,0,1-1.086,3.121,4.209,4.209,0,0,1-5.832,0,4.5,4.5,0,0,1-1.09-3.187Zm2.258.16a3.16,3.16,0,0,0,.453,1.843,1.628,1.628,0,0,0,2.578.008,3.457,3.457,0,0,0,.461-2.015,3.128,3.128,0,0,0-.461-1.831,1.5,1.5,0,0,0-1.3-.649,1.474,1.474,0,0,0-1.281.646A3.516,3.516,0,0,0,44.223,10.856Z" transform="translate(871 5209)" fill="#12263f"/>
      <path id="Trazado_130982" data-name="Trazado 130982" d="M19.52,15V3.625H23.5a5.232,5.232,0,0,1,3.141.793,2.712,2.712,0,0,1,1.07,2.324,2.57,2.57,0,0,1-.43,1.473,2.482,2.482,0,0,1-1.2.934,2.4,2.4,0,0,1,1.379.883,2.61,2.61,0,0,1,.5,1.625,3,3,0,0,1-1.047,2.484A4.713,4.713,0,0,1,23.941,15Zm2.344-4.953v3.07h2.008a1.938,1.938,0,0,0,1.293-.395,1.353,1.353,0,0,0,.465-1.09,1.428,1.428,0,0,0-1.617-1.586Zm0-1.656H23.6q1.773-.031,1.773-1.414a1.307,1.307,0,0,0-.449-1.113,2.363,2.363,0,0,0-1.418-.34H21.863ZM34.48,15a2.507,2.507,0,0,1-.227-.758,2.732,2.732,0,0,1-2.133.914,3,3,0,0,1-2.059-.719,2.312,2.312,0,0,1-.816-1.812,2.389,2.389,0,0,1,1-2.062,4.915,4.915,0,0,1,2.879-.727H34.16V9.352a1.393,1.393,0,0,0-.3-.937,1.183,1.183,0,0,0-.949-.352,1.345,1.345,0,0,0-.895.273.929.929,0,0,0-.324.75H29.434a2.268,2.268,0,0,1,.453-1.359,3,3,0,0,1,1.281-.98,4.669,4.669,0,0,1,1.859-.355,3.689,3.689,0,0,1,2.48.785,2.747,2.747,0,0,1,.918,2.207v3.664a4.041,4.041,0,0,0,.336,1.82V15Zm-1.867-1.57a1.945,1.945,0,0,0,.922-.223,1.462,1.462,0,0,0,.625-.6V11.156h-.844q-1.7,0-1.8,1.172l-.008.133a.9.9,0,0,0,.3.7A1.153,1.153,0,0,0,32.613,13.43Zm7.938-6.883v8.914a3.024,3.024,0,0,1-.742,2.176,2.821,2.821,0,0,1-2.141.777,4.591,4.591,0,0,1-1.117-.133V16.492a4.238,4.238,0,0,0,.711.07q1.023,0,1.023-1.086V6.547ZM38.105,4.359a1.112,1.112,0,0,1,.34-.836,1.47,1.47,0,0,1,1.852,0,1.112,1.112,0,0,1,.34.836,1.108,1.108,0,0,1-.348.844,1.448,1.448,0,0,1-1.836,0A1.108,1.108,0,0,1,38.105,4.359ZM41.965,10.7a5.013,5.013,0,0,1,.484-2.242A3.546,3.546,0,0,1,43.844,6.93a4.069,4.069,0,0,1,2.113-.539A3.849,3.849,0,0,1,48.75,7.438a4.2,4.2,0,0,1,1.207,2.844l.016.578a4.418,4.418,0,0,1-1.086,3.121,4.209,4.209,0,0,1-5.832,0,4.5,4.5,0,0,1-1.09-3.187Zm2.258.16a3.16,3.16,0,0,0,.453,1.843,1.628,1.628,0,0,0,2.578.008,3.457,3.457,0,0,0,.461-2.015,3.128,3.128,0,0,0-.461-1.831,1.5,1.5,0,0,0-1.3-.649,1.474,1.474,0,0,0-1.281.646A3.516,3.516,0,0,0,44.223,10.856Z" transform="translate(549 5370) rotate(-90)" fill="#12263f"/>
      <path id="Trazado_130980" data-name="Trazado 130980" d="M5.586,15H3.242V3.625H5.586Zm4.1-8.453.07.977a2.951,2.951,0,0,1,2.43-1.133,2.453,2.453,0,0,1,2,.789,3.682,3.682,0,0,1,.672,2.359V15H12.6V9.581a1.47,1.47,0,0,0-.312-1.045,1.4,1.4,0,0,0-1.039-.325,1.553,1.553,0,0,0-1.43.814V15H7.563V6.547Zm9.586-2.078V6.547h1.445V8.2H19.273v4.219a1.007,1.007,0,0,0,.18.672.9.9,0,0,0,.688.2,3.6,3.6,0,0,0,.664-.055v1.711a4.648,4.648,0,0,1-1.367.2,2.156,2.156,0,0,1-2.422-2.4V8.2H15.781V6.547h1.234V4.469Zm6.594,10.688a4.15,4.15,0,0,1-3.027-1.141,4.054,4.054,0,0,1-1.168-3.039v-.219a5.106,5.106,0,0,1,.492-2.277,3.612,3.612,0,0,1,1.395-1.547,3.914,3.914,0,0,1,2.059-.543,3.508,3.508,0,0,1,2.73,1.094,4.444,4.444,0,0,1,1,3.1v.922H23.961a2.1,2.1,0,0,0,.66,1.328,2,2,0,0,0,1.395.5,2.437,2.437,0,0,0,2.039-.945l1.109,1.242a3.389,3.389,0,0,1-1.375,1.121A4.511,4.511,0,0,1,25.867,15.156Zm-.258-6.945a1.411,1.411,0,0,0-1.09.455,2.357,2.357,0,0,0-.535,1.3h3.141V9.788a1.681,1.681,0,0,0-.406-1.165A1.456,1.456,0,0,0,25.609,8.211Zm9.766.453a6.134,6.134,0,0,0-.812-.062,1.654,1.654,0,0,0-1.68.867V15H30.625V6.547h2.133l.063,1.008A2.092,2.092,0,0,1,34.7,6.391a2.366,2.366,0,0,1,.7.1Zm5.836,0A6.134,6.134,0,0,0,40.4,8.6a1.654,1.654,0,0,0-1.68.867V15H36.461V6.547h2.133l.063,1.008a2.092,2.092,0,0,1,1.883-1.164,2.366,2.366,0,0,1,.7.1Zm.453,2.031a5.013,5.013,0,0,1,.484-2.242A3.546,3.546,0,0,1,43.543,6.93a4.069,4.069,0,0,1,2.113-.539,3.849,3.849,0,0,1,2.793,1.047,4.2,4.2,0,0,1,1.207,2.844l.016.578a4.418,4.418,0,0,1-1.086,3.121,4.209,4.209,0,0,1-5.832,0,4.5,4.5,0,0,1-1.09-3.187Zm2.258.16a3.16,3.16,0,0,0,.453,1.843,1.628,1.628,0,0,0,2.578.008,3.457,3.457,0,0,0,.461-2.015,3.128,3.128,0,0,0-.461-1.831,1.5,1.5,0,0,0-1.3-.649,1.474,1.474,0,0,0-1.281.646A3.516,3.516,0,0,0,43.922,10.856Zm6.813-.145a4.954,4.954,0,0,1,.926-3.133,3,3,0,0,1,2.5-1.187,2.631,2.631,0,0,1,2.164.953l.094-.8h2.047v8.172a3.613,3.613,0,0,1-.5,1.93,3.236,3.236,0,0,1-1.418,1.25,4.985,4.985,0,0,1-2.141.43,4.635,4.635,0,0,1-1.812-.371A3.217,3.217,0,0,1,51.25,17l1-1.375a2.645,2.645,0,0,0,2.047.945,1.936,1.936,0,0,0,1.4-.48,1.8,1.8,0,0,0,.5-1.363v-.453a2.612,2.612,0,0,1-2.055.883,2.992,2.992,0,0,1-2.465-1.191,4.953,4.953,0,0,1-.941-3.16Zm2.258.161a3.1,3.1,0,0,0,.461,1.809,1.465,1.465,0,0,0,1.266.655,1.567,1.567,0,0,0,1.477-.777V8.988a1.563,1.563,0,0,0-1.461-.777,1.474,1.474,0,0,0-1.277.667A3.5,3.5,0,0,0,52.992,10.872ZM65.094,15a2.507,2.507,0,0,1-.227-.758,2.732,2.732,0,0,1-2.133.914,3,3,0,0,1-2.059-.719,2.312,2.312,0,0,1-.816-1.812,2.389,2.389,0,0,1,1-2.062,4.915,4.915,0,0,1,2.879-.727h1.039V9.352a1.393,1.393,0,0,0-.3-.937,1.183,1.183,0,0,0-.949-.352,1.345,1.345,0,0,0-.895.273.929.929,0,0,0-.324.75H60.047A2.268,2.268,0,0,1,60.5,7.727a3,3,0,0,1,1.281-.98,4.669,4.669,0,0,1,1.859-.355,3.689,3.689,0,0,1,2.48.785,2.747,2.747,0,0,1,.918,2.207v3.664a4.041,4.041,0,0,0,.336,1.82V15Zm-1.867-1.57a1.945,1.945,0,0,0,.922-.223,1.462,1.462,0,0,0,.625-.6V11.156H63.93q-1.7,0-1.8,1.172l-.008.133a.9.9,0,0,0,.3.7A1.153,1.153,0,0,0,63.227,13.43Zm7.625-6.883.07.977a2.951,2.951,0,0,1,2.43-1.133,2.453,2.453,0,0,1,2,.789,3.682,3.682,0,0,1,.672,2.359V15H73.766V9.581a1.47,1.47,0,0,0-.312-1.045,1.4,1.4,0,0,0-1.039-.325,1.553,1.553,0,0,0-1.43.814V15H68.727V6.547Zm9.586-2.078V6.547h1.445V8.2H80.438v4.219a1.007,1.007,0,0,0,.18.672.9.9,0,0,0,.688.2,3.6,3.6,0,0,0,.664-.055v1.711a4.648,4.648,0,0,1-1.367.2,2.156,2.156,0,0,1-2.422-2.4V8.2H76.945V6.547H78.18V4.469Zm6.594,10.688A4.15,4.15,0,0,1,84,14.016a4.054,4.054,0,0,1-1.168-3.039v-.219a5.106,5.106,0,0,1,.492-2.277,3.612,3.612,0,0,1,1.395-1.547,3.914,3.914,0,0,1,2.059-.543,3.508,3.508,0,0,1,2.73,1.094,4.444,4.444,0,0,1,1,3.1v.922H85.125a2.1,2.1,0,0,0,.66,1.328,2,2,0,0,0,1.395.5,2.437,2.437,0,0,0,2.039-.945l1.109,1.242a3.389,3.389,0,0,1-1.375,1.121A4.511,4.511,0,0,1,87.031,15.156Zm-.258-6.945a1.411,1.411,0,0,0-1.09.455,2.357,2.357,0,0,0-.535,1.3h3.141V9.788a1.681,1.681,0,0,0-.406-1.165A1.456,1.456,0,0,0,86.773,8.211Z" transform="translate(859 5394)" fill="#12263f"/>
      <path id="Trazado_130986" data-name="Trazado 130986" d="M30.207,10.992V15H27.863V3.625H32.3a5.134,5.134,0,0,1,2.254.469,3.454,3.454,0,0,1,1.5,1.332,3.714,3.714,0,0,1,.523,1.965,3.266,3.266,0,0,1-1.145,2.637,4.767,4.767,0,0,1-3.168.965Zm0-1.9H32.3a2.059,2.059,0,0,0,1.418-.437,1.591,1.591,0,0,0,.488-1.25,1.876,1.876,0,0,0-.492-1.352,1.839,1.839,0,0,0-1.359-.531H30.207Zm11.617,6.063A4.15,4.15,0,0,1,38.8,14.016a4.054,4.054,0,0,1-1.168-3.039v-.219a5.106,5.106,0,0,1,.492-2.277,3.612,3.612,0,0,1,1.395-1.547,3.914,3.914,0,0,1,2.059-.543A3.508,3.508,0,0,1,44.3,7.484a4.444,4.444,0,0,1,1,3.1v.922H39.918a2.1,2.1,0,0,0,.66,1.328,2,2,0,0,0,1.395.5,2.437,2.437,0,0,0,2.039-.945l1.109,1.242a3.389,3.389,0,0,1-1.375,1.121A4.511,4.511,0,0,1,41.824,15.156Zm-.258-6.945a1.411,1.411,0,0,0-1.09.455,2.357,2.357,0,0,0-.535,1.3h3.141V9.788a1.681,1.681,0,0,0-.406-1.165A1.456,1.456,0,0,0,41.566,8.211Zm9.766.453A6.134,6.134,0,0,0,50.52,8.6a1.654,1.654,0,0,0-1.68.867V15H46.582V6.547h2.133l.063,1.008A2.092,2.092,0,0,1,50.66,6.391a2.366,2.366,0,0,1,.7.1Zm5.836,0a6.134,6.134,0,0,0-.812-.062,1.654,1.654,0,0,0-1.68.867V15H52.418V6.547h2.133l.063,1.008A2.092,2.092,0,0,1,56.5,6.391a2.366,2.366,0,0,1,.7.1Zm.453,2.031a5.013,5.013,0,0,1,.484-2.242A3.546,3.546,0,0,1,59.5,6.93a4.069,4.069,0,0,1,2.113-.539,3.849,3.849,0,0,1,2.793,1.047,4.2,4.2,0,0,1,1.207,2.844l.016.578a4.418,4.418,0,0,1-1.086,3.121,4.209,4.209,0,0,1-5.832,0,4.5,4.5,0,0,1-1.09-3.187Zm2.258.16a3.16,3.16,0,0,0,.453,1.843,1.628,1.628,0,0,0,2.578.008,3.457,3.457,0,0,0,.461-2.015A3.128,3.128,0,0,0,62.91,8.86a1.5,1.5,0,0,0-1.3-.649,1.474,1.474,0,0,0-1.281.646A3.516,3.516,0,0,0,59.879,10.856Z" transform="translate(859 5606)" fill="#12263f"/>
      <rect id="Rectángulo_37349" data-name="Rectángulo 37349" width="400" height="33" transform="translate(496 5640) rotate(-90)" fill="#b0c8cb"/>
      <path id="Trazado_130983" data-name="Trazado 130983" d="M66.289,11.211A4.025,4.025,0,0,1,64.934,14.1a4.76,4.76,0,0,1-3.223,1.055,4.281,4.281,0,0,1-3.441-1.473,6.038,6.038,0,0,1-1.254-4.043v-.7a6.819,6.819,0,0,1,.578-2.891,4.332,4.332,0,0,1,1.652-1.918,5.164,5.164,0,0,1,5.668.387A4.326,4.326,0,0,1,66.3,7.484H63.961a2.376,2.376,0,0,0-.613-1.6,2.271,2.271,0,0,0-1.605-.5,1.991,1.991,0,0,0-1.754.84,4.707,4.707,0,0,0-.6,2.605V9.7a5.038,5.038,0,0,0,.559,2.7,1.954,1.954,0,0,0,1.762.852,2.314,2.314,0,0,0,1.621-.5,2.241,2.241,0,0,0,.613-1.535ZM72.43,8.664a6.134,6.134,0,0,0-.812-.062,1.654,1.654,0,0,0-1.68.867V15H67.68V6.547h2.133l.063,1.008a2.092,2.092,0,0,1,1.883-1.164,2.366,2.366,0,0,1,.7.1Zm4.828,6.492a4.15,4.15,0,0,1-3.027-1.141,4.054,4.054,0,0,1-1.168-3.039v-.219a5.106,5.106,0,0,1,.492-2.277,3.612,3.612,0,0,1,1.395-1.547,3.914,3.914,0,0,1,2.059-.543,3.508,3.508,0,0,1,2.73,1.094,4.444,4.444,0,0,1,1,3.1v.922H75.352a2.1,2.1,0,0,0,.66,1.328,2,2,0,0,0,1.395.5,2.437,2.437,0,0,0,2.039-.945l1.109,1.242a3.389,3.389,0,0,1-1.375,1.121A4.511,4.511,0,0,1,77.258,15.156ZM77,8.211a1.411,1.411,0,0,0-1.09.455,2.357,2.357,0,0,0-.535,1.3h3.141V9.788a1.681,1.681,0,0,0-.406-1.165A1.456,1.456,0,0,0,77,8.211Zm8.531,5.125a1.481,1.481,0,0,0,1.016-.344,1.2,1.2,0,0,0,.406-.914H89.07a2.9,2.9,0,0,1-.469,1.574,3.093,3.093,0,0,1-1.262,1.109,3.949,3.949,0,0,1-1.77.395A3.67,3.67,0,0,1,82.711,14a4.56,4.56,0,0,1-1.047-3.184v-.148A4.508,4.508,0,0,1,82.7,7.555a3.627,3.627,0,0,1,2.852-1.164,3.555,3.555,0,0,1,2.543.9,3.2,3.2,0,0,1,.973,2.4H86.953a1.551,1.551,0,0,0-.406-1.072,1.51,1.51,0,0,0-2.223.163,3.333,3.333,0,0,0-.4,1.866v.235a3.375,3.375,0,0,0,.4,1.878A1.377,1.377,0,0,0,85.531,13.336ZM92.742,15H90.477V6.547h2.266Zm-2.4-10.641a1.112,1.112,0,0,1,.34-.836,1.465,1.465,0,0,1,1.848,0,1.105,1.105,0,0,1,.344.836,1.108,1.108,0,0,1-.348.844,1.448,1.448,0,0,1-1.836,0A1.108,1.108,0,0,1,90.344,4.359Zm6.375,2.188.07.945a2.971,2.971,0,0,1,2.43-1.1,2.255,2.255,0,0,1,2.242,1.289A2.9,2.9,0,0,1,104,6.391a2.521,2.521,0,0,1,2.047.8,3.681,3.681,0,0,1,.672,2.41V15h-2.266V9.6a1.616,1.616,0,0,0-.281-1.053,1.245,1.245,0,0,0-.992-.333,1.409,1.409,0,0,0-1.406.971L101.781,15H99.523V9.6a1.6,1.6,0,0,0-.289-1.065,1.257,1.257,0,0,0-.984-.329,1.463,1.463,0,0,0-1.391.8V15H94.6V6.547ZM110.836,15H108.57V6.547h2.266Zm-2.4-10.641a1.112,1.112,0,0,1,.34-.836,1.465,1.465,0,0,1,1.848,0,1.105,1.105,0,0,1,.344.836,1.108,1.108,0,0,1-.348.844,1.448,1.448,0,0,1-1.836,0A1.108,1.108,0,0,1,108.438,4.359Zm8.148,10.8a4.15,4.15,0,0,1-3.027-1.141,4.054,4.054,0,0,1-1.168-3.039v-.219a5.106,5.106,0,0,1,.492-2.277,3.612,3.612,0,0,1,1.395-1.547,3.914,3.914,0,0,1,2.059-.543,3.508,3.508,0,0,1,2.73,1.094,4.444,4.444,0,0,1,1,3.1v.922H114.68a2.1,2.1,0,0,0,.66,1.328,2,2,0,0,0,1.395.5,2.437,2.437,0,0,0,2.039-.945l1.109,1.242a3.389,3.389,0,0,1-1.375,1.121A4.511,4.511,0,0,1,116.586,15.156Zm-.258-6.945a1.411,1.411,0,0,0-1.09.455,2.357,2.357,0,0,0-.535,1.3h3.141V9.788a1.681,1.681,0,0,0-.406-1.165A1.456,1.456,0,0,0,116.328,8.211Zm7.094-1.664.07.977a2.951,2.951,0,0,1,2.43-1.133,2.453,2.453,0,0,1,2,.789,3.682,3.682,0,0,1,.672,2.359V15h-2.258V9.581a1.47,1.47,0,0,0-.312-1.045,1.4,1.4,0,0,0-1.039-.325,1.553,1.553,0,0,0-1.43.814V15H121.3V6.547Zm9.586-2.078V6.547h1.445V8.2h-1.445v4.219a1.007,1.007,0,0,0,.18.672.9.9,0,0,0,.688.2,3.6,3.6,0,0,0,.664-.055v1.711a4.648,4.648,0,0,1-1.367.2,2.156,2.156,0,0,1-2.422-2.4V8.2h-1.234V6.547h1.234V4.469Zm2.117,6.227a5.013,5.013,0,0,1,.484-2.242A3.546,3.546,0,0,1,137,6.93a4.069,4.069,0,0,1,2.113-.539,3.849,3.849,0,0,1,2.793,1.047,4.2,4.2,0,0,1,1.207,2.844l.016.578a4.418,4.418,0,0,1-1.086,3.121,4.209,4.209,0,0,1-5.832,0,4.5,4.5,0,0,1-1.09-3.187Zm2.258.16a3.16,3.16,0,0,0,.453,1.843,1.628,1.628,0,0,0,2.578.008,3.457,3.457,0,0,0,.461-2.015,3.128,3.128,0,0,0-.461-1.831,1.5,1.5,0,0,0-1.3-.649,1.474,1.474,0,0,0-1.281.646A3.516,3.516,0,0,0,137.383,10.856Z" transform="translate(503 5540) rotate(-90)" fill="#12263f"/>
      <g id="Grupo_157610" data-name="Grupo 157610" transform="translate(619 5256.081)">
        <rect id="Rectángulo_37639" data-name="Rectángulo 37639" width="70.77" height="70.77" transform="translate(245.022 16.771)" fill="#fff"/>
        <path id="Rectángulo_37640" data-name="Rectángulo 37640" d="M-1.158-2.5h70.77a1.342,1.342,0,0,1,1.342,1.342v70.77a1.342,1.342,0,0,1-1.342,1.342H-1.158A1.342,1.342,0,0,1-2.5,69.613V-1.158A1.342,1.342,0,0,1-1.158-2.5ZM68.27.184H.184V68.27H68.27Z" transform="translate(246.18 17.929)"/>
        <rect id="Rectángulo_37641" data-name="Rectángulo 37641" width="83.449" height="83.449" transform="translate(238.683 34.817)" fill="#29c4bb"/>
        <path id="Rectángulo_37642" data-name="Rectángulo 37642" d="M-1.158-2.5H82.291a1.342,1.342,0,0,1,1.342,1.342V82.292a1.342,1.342,0,0,1-1.342,1.342H-1.158A1.342,1.342,0,0,1-2.5,82.292V-1.158A1.342,1.342,0,0,1-1.158-2.5ZM80.949.184H.184V80.949H80.949Z" transform="translate(239.841 35.975)"/>
        <path id="Trazado_130450" data-name="Trazado 130450" d="M521.7,31.241l6.34,18.045H444.594l6.339-18.045Z" transform="translate(-205.911 -14.469)" fill="#32e3d9"/>
        <path id="Trazado_130451" data-name="Trazado 130451" d="M449.775,28.741h70.77a1.342,1.342,0,0,1,1.266.9l6.34,18.045a1.342,1.342,0,0,1-1.266,1.787H443.436a1.342,1.342,0,0,1-1.266-1.787l6.339-18.045A1.342,1.342,0,0,1,449.775,28.741Zm69.819,2.684H450.726l-5.4,15.361h79.661Z" transform="translate(-204.753 -13.311)"/>
        <g id="Grupo_157613" data-name="Grupo 157613">
          <path id="Trazado_130452" data-name="Trazado 130452" d="M519.736,97.01l-7.8,10.2a18.63,18.63,0,0,0-3.7,7.536,11.446,11.446,0,0,1-2.593,4.879,8.389,8.389,0,0,1-14.628-5.917c0-3.964,1.037-7.282,4.678-11.829l9.685-12.22c2.085-2.6,3.768-5.462,3.768-9.034,0-5.721-4.022-10.14-10.267-10.14a10.249,10.249,0,0,0-7.992,3.117,14.836,14.836,0,0,0-3.25,6.177,12.993,12.993,0,0,1-2.339,4.292c-1.492,1.556-3.451,2.08-5.917,2.08a7.628,7.628,0,0,1-5.653-2.276A8.123,8.123,0,0,1,471.7,77.9c0-4.223,2.276-10.6,7.484-15.406a28.223,28.223,0,0,1,19.5-7.214c15.073,0,27.362,9.426,27.362,25.351,0,7.214-2.339,11.178-6.309,16.38M499.329,128.6a10.206,10.206,0,1,1-10.2,10.209,10.265,10.265,0,0,1,10.2-10.209" transform="translate(-218.466 -25.602)" fill="#00fff2"/>
          <path id="Trazado_130453" data-name="Trazado 130453" d="M497.525,52.779a33.773,33.773,0,0,1,11.073,1.8,27.318,27.318,0,0,1,9.145,5.241,24.228,24.228,0,0,1,6.214,8.432,27.46,27.46,0,0,1,2.271,11.224,23.463,23.463,0,0,1-1.773,9.469,35.953,35.953,0,0,1-4.811,7.725l-7.8,10.2a17.326,17.326,0,0,0-3.476,7.067l0,.013a12.713,12.713,0,0,1-2.911,5.445l-.01.011a9.564,9.564,0,0,1-7.275,2.877,10.373,10.373,0,0,1-4.12-.8,9.615,9.615,0,0,1-3.147-2.213,9.475,9.475,0,0,1-2.395-6.713,16.956,16.956,0,0,1,1.06-6.17,23.93,23.93,0,0,1,3.91-6.495l9.684-12.218.005-.006a18.557,18.557,0,0,0,2.493-3.871,10.2,10.2,0,0,0,.98-4.323,9.634,9.634,0,0,0-.634-3.511,8.014,8.014,0,0,0-4.552-4.6,10,10,0,0,0-3.739-.683,11.093,11.093,0,0,0-3.983.643,7.975,7.975,0,0,0-3.031,2.051l-.008.009a13.488,13.488,0,0,0-2.936,5.643,14.289,14.289,0,0,1-2.611,4.78l-.042.046a7.51,7.51,0,0,1-3.141,1.969,11.855,11.855,0,0,1-3.745.524,9.691,9.691,0,0,1-3.7-.7,8.453,8.453,0,0,1-2.921-1.988,8.019,8.019,0,0,1-1.823-3.02,11.945,11.945,0,0,1-.571-3.887,20.343,20.343,0,0,1,1.906-8.031,25.893,25.893,0,0,1,6.009-8.361,27.817,27.817,0,0,1,9.086-5.582A31.962,31.962,0,0,1,497.525,52.779Zm8.252,60.464a19.847,19.847,0,0,1,3.931-8l0,0,7.8-10.2a33.61,33.61,0,0,0,4.474-7.146,20.879,20.879,0,0,0,1.559-8.419,24.8,24.8,0,0,0-2.04-10.134,21.562,21.562,0,0,0-5.531-7.5,24.647,24.647,0,0,0-8.253-4.723,31.1,31.1,0,0,0-10.2-1.648,29.289,29.289,0,0,0-10.374,1.816,25.144,25.144,0,0,0-8.213,5.043c-4.871,4.5-7.051,10.484-7.051,14.419a9.338,9.338,0,0,0,.427,3.022,5.391,5.391,0,0,0,1.223,2.031,6.285,6.285,0,0,0,4.682,1.861,9.257,9.257,0,0,0,2.9-.389,4.889,4.889,0,0,0,2.024-1.256,11.732,11.732,0,0,0,2.045-3.775l0-.006a22.812,22.812,0,0,1,1.421-3.641,12.623,12.623,0,0,1,2.138-3.064,10.6,10.6,0,0,1,4.028-2.716,13.708,13.708,0,0,1,4.937-.818,12.667,12.667,0,0,1,4.739.876,10.744,10.744,0,0,1,3.695,2.45,11.516,11.516,0,0,1,3.176,8.155c0,4.262-2.17,7.514-4.061,9.871l-9.683,12.217,0,.005a21.381,21.381,0,0,0-3.5,5.767,14.17,14.17,0,0,0-.887,5.222,6.428,6.428,0,0,0,3.918,6.46,7.607,7.607,0,0,0,3.059.581,6.928,6.928,0,0,0,5.337-2.05A10.079,10.079,0,0,0,505.776,113.243ZM498.171,126.1a11.349,11.349,0,0,1,4.479.916,11.709,11.709,0,0,1,6.151,6.153,11.414,11.414,0,0,1,0,8.961,11.71,11.71,0,0,1-6.151,6.151,11.407,11.407,0,0,1-8.958,0,11.709,11.709,0,0,1-6.151-6.151,11.414,11.414,0,0,1,0-8.961,11.709,11.709,0,0,1,6.151-6.153A11.348,11.348,0,0,1,498.171,126.1Zm0,20.413a8.681,8.681,0,0,0,3.425-.7,9.025,9.025,0,0,0,4.736-4.735,8.73,8.73,0,0,0,0-6.854,9.024,9.024,0,0,0-4.736-4.738,8.722,8.722,0,0,0-6.851,0,9.024,9.024,0,0,0-4.736,4.738,8.73,8.73,0,0,0,0,6.854,9.026,9.026,0,0,0,4.736,4.735A8.681,8.681,0,0,0,498.171,146.508Z" transform="translate(-217.308 -24.444)"/>
          <path id="Trazado_130454" data-name="Trazado 130454" d="M458.624,75.935a2.949,2.949,0,1,1-2.949-2.948,2.949,2.949,0,0,1,2.949,2.948" transform="translate(-209.678 -33.804)" fill="#fff"/>
          <path id="Trazado_130455" data-name="Trazado 130455" d="M454.518,70.487a4.291,4.291,0,1,1-4.291,4.291A4.3,4.3,0,0,1,454.518,70.487Zm0,5.9a1.607,1.607,0,1,0-1.606-1.607A1.609,1.609,0,0,0,454.518,76.384Z" transform="translate(-208.52 -32.646)"/>
          <path id="Trazado_130456" data-name="Trazado 130456" d="M586.813,75.935a2.949,2.949,0,1,1-2.949-2.948,2.949,2.949,0,0,1,2.949,2.948" transform="translate(-269.048 -33.804)" fill="#fff"/>
          <path id="Trazado_130457" data-name="Trazado 130457" d="M582.707,70.487a4.291,4.291,0,1,1-4.291,4.291A4.3,4.3,0,0,1,582.707,70.487Zm0,5.9a1.607,1.607,0,1,0-1.606-1.607A1.609,1.609,0,0,0,582.707,76.384Z" transform="translate(-267.89 -32.646)"/>
          <path id="Trazado_130458" data-name="Trazado 130458" d="M458.624,204.124a2.949,2.949,0,1,1-2.949-2.949,2.949,2.949,0,0,1,2.949,2.949" transform="translate(-209.678 -93.173)" fill="#fff"/>
          <path id="Trazado_130459" data-name="Trazado 130459" d="M454.518,198.675a4.291,4.291,0,1,1-4.291,4.291A4.3,4.3,0,0,1,454.518,198.675Zm0,5.9a1.607,1.607,0,1,0-1.606-1.607A1.609,1.609,0,0,0,454.518,204.573Z" transform="translate(-208.52 -92.015)"/>
          <path id="Trazado_130460" data-name="Trazado 130460" d="M586.813,204.124a2.949,2.949,0,1,1-2.949-2.949,2.949,2.949,0,0,1,2.949,2.949" transform="translate(-269.048 -93.173)" fill="#fff"/>
          <path id="Trazado_130461" data-name="Trazado 130461" d="M582.707,198.675a4.291,4.291,0,1,1-4.291,4.291A4.3,4.3,0,0,1,582.707,198.675Zm0,5.9a1.607,1.607,0,1,0-1.606-1.607A1.609,1.609,0,0,0,582.707,204.573Z" transform="translate(-267.89 -92.015)"/>
          <line id="Línea_225" data-name="Línea 225" x1="20.157" y2="20.157" transform="translate(292.964 81.105)" fill="#fff"/>
          <path id="Línea_226" data-name="Línea 226" d="M-1.158,20.341a1.338,1.338,0,0,1-.949-.393,1.342,1.342,0,0,1,0-1.9L18.05-2.107a1.342,1.342,0,0,1,1.9,0,1.342,1.342,0,0,1,0,1.9L-.209,19.948A1.338,1.338,0,0,1-1.158,20.341Z" transform="translate(294.122 82.263)"/>
          <line id="Línea_227" data-name="Línea 227" x1="7.944" y2="7.944" transform="translate(305.176 90.859)" fill="#fff"/>
          <path id="Línea_228" data-name="Línea 228" d="M-1.158,8.129a1.338,1.338,0,0,1-.949-.393,1.342,1.342,0,0,1,0-1.9L5.838-2.107a1.342,1.342,0,0,1,1.9,0,1.342,1.342,0,0,1,0,1.9L-.209,7.736A1.338,1.338,0,0,1-1.158,8.129Z" transform="translate(306.334 92.016)"/>
          <line id="Línea_229" data-name="Línea 229" x1="11.594" y2="11.594" transform="translate(253.808 75.307)" fill="#fff"/>
          <path id="Línea_230" data-name="Línea 230" d="M-1.158,11.779a1.338,1.338,0,0,1-.949-.393,1.342,1.342,0,0,1,0-1.9L9.488-2.107a1.342,1.342,0,0,1,1.9,0,1.342,1.342,0,0,1,0,1.9L-.209,11.386A1.338,1.338,0,0,1-1.158,11.779Z" transform="translate(254.966 76.465)"/>
          <path id="Trazado_130462" data-name="Trazado 130462" d="M617.7,239.3h-2.926a1.342,1.342,0,1,1,0-2.684h1.584v-1.584a1.342,1.342,0,1,1,2.684,0v2.926A1.342,1.342,0,0,1,617.7,239.3Z" transform="translate(-284.107 -108.233)"/>
          <path id="Línea_231" data-name="Línea 231" d="M93.04.184H87.127a1.342,1.342,0,0,1-1.342-1.342A1.342,1.342,0,0,1,87.127-2.5H93.04a1.342,1.342,0,0,1,1.342,1.342A1.342,1.342,0,0,1,93.04.184Zm-11.826,0H75.3a1.342,1.342,0,0,1-1.342-1.342A1.342,1.342,0,0,1,75.3-2.5h5.913a1.342,1.342,0,0,1,1.342,1.342A1.342,1.342,0,0,1,81.214.184Zm-11.826,0H63.475a1.342,1.342,0,0,1-1.342-1.342A1.342,1.342,0,0,1,63.475-2.5h5.913a1.342,1.342,0,0,1,1.342,1.342A1.342,1.342,0,0,1,69.388.184Zm-11.826,0H51.65a1.342,1.342,0,0,1-1.342-1.342A1.342,1.342,0,0,1,51.65-2.5h5.913A1.342,1.342,0,0,1,58.9-1.158,1.342,1.342,0,0,1,57.563.184Zm-11.826,0H39.824a1.342,1.342,0,0,1-1.342-1.342A1.342,1.342,0,0,1,39.824-2.5h5.913a1.342,1.342,0,0,1,1.342,1.342A1.342,1.342,0,0,1,45.737.184Zm-11.826,0H28a1.342,1.342,0,0,1-1.342-1.342A1.342,1.342,0,0,1,28-2.5h5.913a1.342,1.342,0,0,1,1.342,1.342A1.342,1.342,0,0,1,33.911.184Zm-11.826,0H16.172A1.342,1.342,0,0,1,14.83-1.158,1.342,1.342,0,0,1,16.172-2.5h5.913a1.342,1.342,0,0,1,1.342,1.342A1.342,1.342,0,0,1,22.085.184Zm-11.826,0H4.346A1.342,1.342,0,0,1,3-1.158,1.342,1.342,0,0,1,4.346-2.5h5.913A1.342,1.342,0,0,1,11.6-1.158,1.342,1.342,0,0,1,10.259.184Z" transform="translate(231.713 130.884)"/>
          <path id="Trazado_130463" data-name="Trazado 130463" d="M425.015,239.3h-2.926a1.342,1.342,0,0,1-1.342-1.342v-2.926a1.342,1.342,0,1,1,2.684,0v1.584h1.584a1.342,1.342,0,1,1,0,2.684Z" transform="translate(-194.867 -108.233)"/>
          <path id="Línea_232" data-name="Línea 232" d="M-1.158,94.381A1.342,1.342,0,0,1-2.5,93.039V87.126a1.342,1.342,0,0,1,1.342-1.342A1.342,1.342,0,0,1,.184,87.126v5.913A1.342,1.342,0,0,1-1.158,94.381Zm0-11.826A1.342,1.342,0,0,1-2.5,81.213V75.3a1.342,1.342,0,0,1,1.342-1.342A1.342,1.342,0,0,1,.184,75.3v5.913A1.342,1.342,0,0,1-1.158,82.555Zm0-11.826A1.342,1.342,0,0,1-2.5,69.387V63.474a1.342,1.342,0,0,1,1.342-1.342A1.342,1.342,0,0,1,.184,63.474v5.913A1.342,1.342,0,0,1-1.158,70.729Zm0-11.826A1.342,1.342,0,0,1-2.5,57.561V51.649a1.342,1.342,0,0,1,1.342-1.342A1.342,1.342,0,0,1,.184,51.649v5.913A1.342,1.342,0,0,1-1.158,58.9Zm0-11.826A1.342,1.342,0,0,1-2.5,45.736V39.823a1.342,1.342,0,0,1,1.342-1.342A1.342,1.342,0,0,1,.184,39.823v5.913A1.342,1.342,0,0,1-1.158,47.078Zm0-11.826A1.342,1.342,0,0,1-2.5,33.91V28a1.342,1.342,0,0,1,1.342-1.342A1.342,1.342,0,0,1,.184,28V33.91A1.342,1.342,0,0,1-1.158,35.252Zm0-11.826A1.342,1.342,0,0,1-2.5,22.084V16.171a1.342,1.342,0,0,1,1.342-1.342A1.342,1.342,0,0,1,.184,16.171v5.913A1.342,1.342,0,0,1-1.158,23.426Zm0-11.826A1.342,1.342,0,0,1-2.5,10.258V4.345A1.342,1.342,0,0,1-1.158,3,1.342,1.342,0,0,1,.184,4.345v5.913A1.342,1.342,0,0,1-1.158,11.6Z" transform="translate(228.38 27.849)"/>
          <path id="Trazado_130464" data-name="Trazado 130464" d="M422.089,46.617a1.342,1.342,0,0,1-1.342-1.342V42.349a1.342,1.342,0,0,1,1.342-1.342h2.926a1.342,1.342,0,0,1,0,2.684h-1.584v1.584A1.342,1.342,0,0,1,422.089,46.617Z" transform="translate(-194.866 -18.992)"/>
          <path id="Línea_233" data-name="Línea 233" d="M87.536.184H81.623a1.342,1.342,0,0,1-1.342-1.342A1.342,1.342,0,0,1,81.623-2.5h5.913a1.342,1.342,0,0,1,1.342,1.342A1.342,1.342,0,0,1,87.536.184ZM75.71.184H69.8a1.342,1.342,0,0,1-1.342-1.342A1.342,1.342,0,0,1,69.8-2.5H75.71a1.342,1.342,0,0,1,1.342,1.342A1.342,1.342,0,0,1,75.71.184Zm-11.826,0H57.971a1.342,1.342,0,0,1-1.342-1.342A1.342,1.342,0,0,1,57.971-2.5h5.913a1.342,1.342,0,0,1,1.342,1.342A1.342,1.342,0,0,1,63.884.184Zm-11.826,0H46.146A1.342,1.342,0,0,1,44.8-1.158,1.342,1.342,0,0,1,46.146-2.5h5.913A1.342,1.342,0,0,1,53.4-1.158,1.342,1.342,0,0,1,52.058.184Zm-11.826,0H34.32a1.342,1.342,0,0,1-1.342-1.342A1.342,1.342,0,0,1,34.32-2.5h5.913a1.342,1.342,0,0,1,1.342,1.342A1.342,1.342,0,0,1,40.233.184Zm-11.826,0H22.494a1.342,1.342,0,0,1-1.342-1.342A1.342,1.342,0,0,1,22.494-2.5h5.913a1.342,1.342,0,0,1,1.342,1.342A1.342,1.342,0,0,1,28.407.184Zm-11.826,0H10.668A1.342,1.342,0,0,1,9.326-1.158,1.342,1.342,0,0,1,10.668-2.5h5.913a1.342,1.342,0,0,1,1.342,1.342A1.342,1.342,0,0,1,16.581.184ZM4.755.184H-1.158A1.342,1.342,0,0,1-2.5-1.158,1.342,1.342,0,0,1-1.158-2.5H4.755A1.342,1.342,0,0,1,6.1-1.158,1.342,1.342,0,0,1,4.755.184Z" transform="translate(237.219 24.515)"/>
          <path id="Trazado_130465" data-name="Trazado 130465" d="M617.7,46.617a1.342,1.342,0,0,1-1.342-1.342V43.691h-1.584a1.342,1.342,0,0,1,0-2.684H617.7a1.342,1.342,0,0,1,1.342,1.342v2.926A1.342,1.342,0,0,1,617.7,46.617Z" transform="translate(-284.107 -18.992)"/>
          <path id="Línea_234" data-name="Línea 234" d="M-1.158,88.878A1.342,1.342,0,0,1-2.5,87.536V81.623a1.342,1.342,0,0,1,1.342-1.342A1.342,1.342,0,0,1,.184,81.623v5.913A1.342,1.342,0,0,1-1.158,88.878Zm0-11.826A1.342,1.342,0,0,1-2.5,75.71V69.8a1.342,1.342,0,0,1,1.342-1.342A1.342,1.342,0,0,1,.184,69.8V75.71A1.342,1.342,0,0,1-1.158,77.052Zm0-11.826A1.342,1.342,0,0,1-2.5,63.884V57.971a1.342,1.342,0,0,1,1.342-1.342A1.342,1.342,0,0,1,.184,57.971v5.913A1.342,1.342,0,0,1-1.158,65.226Zm0-11.826A1.342,1.342,0,0,1-2.5,52.058V46.146A1.342,1.342,0,0,1-1.158,44.8,1.342,1.342,0,0,1,.184,46.146v5.913A1.342,1.342,0,0,1-1.158,53.4Zm0-11.826A1.342,1.342,0,0,1-2.5,40.233V34.32a1.342,1.342,0,0,1,1.342-1.342A1.342,1.342,0,0,1,.184,34.32v5.913A1.342,1.342,0,0,1-1.158,41.575Zm0-11.826A1.342,1.342,0,0,1-2.5,28.407V22.494a1.342,1.342,0,0,1,1.342-1.342A1.342,1.342,0,0,1,.184,22.494v5.913A1.342,1.342,0,0,1-1.158,29.749Zm0-11.826A1.342,1.342,0,0,1-2.5,16.581V10.668A1.342,1.342,0,0,1-1.158,9.326,1.342,1.342,0,0,1,.184,10.668v5.913A1.342,1.342,0,0,1-1.158,17.923Zm0-11.826A1.342,1.342,0,0,1-2.5,4.755V-1.158A1.342,1.342,0,0,1-1.158-2.5,1.342,1.342,0,0,1,.184-1.158V4.755A1.342,1.342,0,0,1-1.158,6.1Z" transform="translate(334.75 33.353)"/>
          <path id="Trazado_130466" data-name="Trazado 130466" d="M140.52,179.732a14.622,14.622,0,0,0,.406-3.206,21.905,21.905,0,0,0-26.56-21.392,21.015,21.015,0,0,1-1.6-7.077,21.892,21.892,0,0,1,43.785,0c0,7.983-9.542,22.637-16.026,31.675" transform="translate(-52.225 -58.433)" fill="#c77025"/>
          <path id="Trazado_130467" data-name="Trazado 130467" d="M139.361,179.917a1.342,1.342,0,0,1-1.308-1.64,13.334,13.334,0,0,0,.372-2.908,20.532,20.532,0,0,0-20.55-20.55,20.673,20.673,0,0,0-4.383.47,1.342,1.342,0,0,1-1.54-.836,22.225,22.225,0,0,1-1.691-7.552,23.235,23.235,0,1,1,46.469,0,22.168,22.168,0,0,1-1.679,7.52,67.645,67.645,0,0,1-4.07,8.57,168.113,168.113,0,0,1-10.529,16.367A1.342,1.342,0,0,1,139.361,179.917Zm-21.486-27.782a23.216,23.216,0,0,1,23.184,21.682c2.991-4.37,5.574-8.5,7.572-12.123a65,65,0,0,0,3.909-8.221,19.621,19.621,0,0,0,1.506-6.572,20.55,20.55,0,1,0-41.1,0,17.8,17.8,0,0,0,1.135,5.545A23.4,23.4,0,0,1,117.875,152.134Z" transform="translate(-51.067 -57.275)"/>
          <path id="Trazado_130468" data-name="Trazado 130468" d="M131.371,198.22s-2.672-24.374,1.853-31.513a15.305,15.305,0,0,1,21.121-4.734l.093.061c1.62-3.836,2.631-7.356,2.631-10.17a25.7,25.7,0,0,0-51.4,0c0,14.192,25.7,46.356,25.7,46.356" transform="translate(-48.942 -58.433)" fill="#fea134"/>
          <path id="Trazado_130469" data-name="Trazado 130469" d="M130.213,198.4a1.342,1.342,0,0,1-1.049-.5c-.065-.081-6.538-8.2-12.923-17.959a138.829,138.829,0,0,1-8.92-15.423,56.061,56.061,0,0,1-2.982-7.343,22.155,22.155,0,0,1-1.166-6.469,27.04,27.04,0,1,1,54.08,0,19.982,19.982,0,0,1-.753,5.047,43.5,43.5,0,0,1-1.983,5.645,1.342,1.342,0,0,1-1.958.609l-.057-.037-.027-.018-.005,0a13.918,13.918,0,0,0-7.46-2.171,13.953,13.953,0,0,0-11.808,6.49c-.924,1.457-1.6,3.938-2,7.374a80.581,80.581,0,0,0-.416,10.322c.1,6.843.756,12.892.763,12.953a1.342,1.342,0,0,1-1.334,1.488Zm0-72.054a24.334,24.334,0,0,0-24.356,24.356c0,5.541,4.367,15.142,12.63,27.765,3.753,5.733,7.533,10.892,10,14.153-.168-2.356-.336-5.4-.383-8.621a83.217,83.217,0,0,1,.434-10.674c.457-3.893,1.241-6.673,2.4-8.5a16.643,16.643,0,0,1,21.685-5.888,21.163,21.163,0,0,0,.039-17.716,24.334,24.334,0,0,0-22.442-14.875Z" transform="translate(-47.784 -57.275)"/>
          <path id="Trazado_130470" data-name="Trazado 130470" d="M161.206,43.567V32.829l-39.836,6.509-16-16.837L91.9,36.669l-42.374-3.84V43.567L77.447,57.7l-.816,2.47-5.775,6.746V77.652l34.511-9.421,34.511,9.421V66.914l-5.207-5.025-1.384-4.19Z" transform="translate(-22.938 -10.421)" fill="#d19817"/>
          <path id="Trazado_130471" data-name="Trazado 130471" d="M104.209,20a1.342,1.342,0,0,1,.973.417L120.7,36.742l39.135-6.395a1.342,1.342,0,0,1,1.559,1.325V42.409a1.342,1.342,0,0,1-.736,1.2l-26.889,13.61L134.683,60l4.969,4.8a1.342,1.342,0,0,1,.41.966V76.495a1.342,1.342,0,0,1-1.7,1.295l-34.157-9.325L70.052,77.789a1.342,1.342,0,0,1-1.7-1.295V65.756a1.342,1.342,0,0,1,.323-.873l5.6-6.545.371-1.122-26.89-13.61a1.342,1.342,0,0,1-.736-1.2V31.671a1.342,1.342,0,0,1,1.463-1.337l41.727,3.781,13.019-13.7A1.342,1.342,0,0,1,104.209,20Zm16,19.522a1.342,1.342,0,0,1-.973-.418L104.209,23.292,91.716,36.436a1.342,1.342,0,0,1-1.094.412L49.711,33.141v8.443L76.9,55.343a1.342,1.342,0,0,1,.668,1.618l-.816,2.47a1.342,1.342,0,0,1-.255.452l-5.452,6.369v8.485l32.815-8.958a1.342,1.342,0,0,1,.707,0l32.815,8.958V66.326l-4.8-4.63a1.342,1.342,0,0,1-.342-.545l-1.384-4.19a1.342,1.342,0,0,1,.668-1.618l27.184-13.759V33.251l-38.277,6.255A1.343,1.343,0,0,1,120.213,39.523Z" transform="translate(-21.78 -9.263)"/>
          <path id="Trazado_130472" data-name="Trazado 130472" d="M105.367,2.5l17.256,18.154,38.584,2.911L133.287,37.7l6.591,19.954L105.367,48.23,70.857,57.651,77.448,37.7,49.528,23.565l38.584-2.911Z" transform="translate(-22.939 -1.158)" fill="#fee734"/>
          <path id="Trazado_130473" data-name="Trazado 130473" d="M104.209,0a1.342,1.342,0,0,1,.973.417l16.9,17.78,38.068,2.872a1.342,1.342,0,0,1,.505,2.536l-26.889,13.61,6.229,18.857a1.342,1.342,0,0,1-1.628,1.716l-34.157-9.325L70.052,57.788a1.342,1.342,0,0,1-1.628-1.716l6.229-18.857L47.764,23.605a1.342,1.342,0,0,1,.505-2.536L86.337,18.2l16.9-17.78A1.342,1.342,0,0,1,104.209,0Zm50.939,23.384-33.784-2.549a1.342,1.342,0,0,1-.872-.414L104.209,3.29,87.926,20.421a1.342,1.342,0,0,1-.872.414L53.27,23.384,76.9,35.342a1.342,1.342,0,0,1,.668,1.618L71.757,54.54l32.1-8.763a1.342,1.342,0,0,1,.707,0l32.1,8.763-5.807-17.58a1.342,1.342,0,0,1,.668-1.618Z" transform="translate(-21.781 0)"/>
          <line id="Línea_235" data-name="Línea 235" y2="34.448" transform="translate(26.589 38.653)" fill="#fff"/>
          <path id="Línea_236" data-name="Línea 236" d="M-1.158,34.633A1.342,1.342,0,0,1-2.5,33.291V-1.158A1.342,1.342,0,0,1-1.158-2.5,1.342,1.342,0,0,1,.184-1.158V33.291A1.342,1.342,0,0,1-1.158,34.633Z" transform="translate(27.747 39.811)"/>
          <line id="Línea_237" data-name="Línea 237" y2="40.499" transform="translate(37.327 56.493)" fill="#fff"/>
          <path id="Línea_238" data-name="Línea 238" d="M-1.158,40.683A1.342,1.342,0,0,1-2.5,39.341v-40.5A1.342,1.342,0,0,1-1.158-2.5,1.342,1.342,0,0,1,.184-1.158v40.5A1.342,1.342,0,0,1-1.158,40.683Z" transform="translate(38.485 57.651)"/>
          <line id="Línea_239" data-name="Línea 239" y2="13.063" transform="translate(127.531 49.391)" fill="#fff"/>
          <path id="Línea_240" data-name="Línea 240" d="M-1.158,13.247A1.342,1.342,0,0,1-2.5,11.9V-1.158A1.342,1.342,0,0,1-1.158-2.5,1.342,1.342,0,0,1,.184-1.158V11.9A1.342,1.342,0,0,1-1.158,13.247Z" transform="translate(128.688 50.549)"/>
          <line id="Línea_241" data-name="Línea 241" y2="34.448" transform="translate(138.268 38.653)" fill="#fff"/>
          <path id="Línea_242" data-name="Línea 242" d="M-1.158,34.633A1.342,1.342,0,0,1-2.5,33.291V-1.158A1.342,1.342,0,0,1-1.158-2.5,1.342,1.342,0,0,1,.184-1.158V33.291A1.342,1.342,0,0,1-1.158,34.633Z" transform="translate(139.426 39.811)"/>
          <line id="Línea_243" data-name="Línea 243" y2="26.125" transform="translate(127.531 70.867)" fill="#fff"/>
          <path id="Línea_244" data-name="Línea 244" d="M-1.158,26.309A1.342,1.342,0,0,1-2.5,24.967V-1.158A1.342,1.342,0,0,1-1.158-2.5,1.342,1.342,0,0,1,.184-1.158V24.967A1.342,1.342,0,0,1-1.158,26.309Z" transform="translate(128.688 72.025)"/>
          <line id="Línea_245" data-name="Línea 245" y2="10.916" transform="translate(48.065 75.339)" fill="#fff"/>
          <path id="Línea_246" data-name="Línea 246" d="M-1.158,11.1A1.342,1.342,0,0,1-2.5,9.758V-1.158A1.342,1.342,0,0,1-1.158-2.5,1.342,1.342,0,0,1,.184-1.158V9.758A1.342,1.342,0,0,1-1.158,11.1Z" transform="translate(49.222 76.496)"/>
          <line id="Línea_247" data-name="Línea 247" y2="24.695" transform="translate(116.793 86.255)" fill="#fff"/>
          <path id="Línea_248" data-name="Línea 248" d="M-1.158,24.88A1.342,1.342,0,0,1-2.5,23.537v-24.7A1.342,1.342,0,0,1-1.158-2.5,1.342,1.342,0,0,1,.184-1.158v24.7A1.342,1.342,0,0,1-1.158,24.88Z" transform="translate(117.951 87.412)"/>
          <path id="Trazado_130474" data-name="Trazado 130474" d="M122.208,152.048a1.342,1.342,0,0,1-1.342-1.342,40.19,40.19,0,0,1,1.318-10.348,30.908,30.908,0,0,1,3.633-8.538,19.525,19.525,0,0,1,5.536-5.906,12.513,12.513,0,0,1,7.053-2.247,11.994,11.994,0,0,1,4.449.865,14.617,14.617,0,0,1,3.964,2.4,19.925,19.925,0,0,1,3.355,3.661,26.87,26.87,0,0,1,2.671,4.692,1.342,1.342,0,1,1-2.45,1.1,20.579,20.579,0,0,0-5.3-7.392,11.943,11.943,0,0,0-3.233-1.968,9.322,9.322,0,0,0-3.457-.675,9.879,9.879,0,0,0-5.557,1.792,16.875,16.875,0,0,0-4.761,5.108,28.235,28.235,0,0,0-3.31,7.8,37.507,37.507,0,0,0-1.228,9.657A1.342,1.342,0,0,1,122.208,152.048Z" transform="translate(-55.978 -57.275)"/>
          <path id="Trazado_130475" data-name="Trazado 130475" d="M127.808,599.514H2.5l35.255-23.195H163.062Z" transform="translate(-1.158 -266.919)" fill="#328e36"/>
          <path id="Trazado_130476" data-name="Trazado 130476" d="M126.65,599.7H1.342A1.342,1.342,0,0,1,.6,597.235L35.859,574.04a1.342,1.342,0,0,1,.738-.221H161.9a1.342,1.342,0,0,1,.738,2.463l-35.255,23.195A1.343,1.343,0,0,1,126.65,599.7ZM5.823,597.014H126.248L157.423,576.5H37Z" transform="translate(0 -265.761)"/>
          <path id="Trazado_130477" data-name="Trazado 130477" d="M127.808,590.323H2.5l35.255-23.195H163.062Z" transform="translate(-1.158 -262.662)" fill="#328e36"/>
          <path id="Trazado_130478" data-name="Trazado 130478" d="M126.65,590.507H1.342A1.342,1.342,0,0,1,.6,588.044l35.255-23.195a1.342,1.342,0,0,1,.738-.221H161.9a1.342,1.342,0,0,1,.738,2.463l-35.255,23.195A1.342,1.342,0,0,1,126.65,590.507ZM5.823,587.823H126.248l31.175-20.51H37Z" transform="translate(0 -261.504)"/>
          <path id="Trazado_130479" data-name="Trazado 130479" d="M127.808,581.132H2.5l35.255-23.195H163.062Z" transform="translate(-1.158 -258.405)" fill="#328e36"/>
          <path id="Trazado_130480" data-name="Trazado 130480" d="M126.65,581.316H1.342A1.342,1.342,0,0,1,.6,578.852l35.255-23.195a1.342,1.342,0,0,1,.738-.221H161.9a1.342,1.342,0,0,1,.738,2.463l-35.255,23.195A1.342,1.342,0,0,1,126.65,581.316ZM5.823,578.632H126.248l31.175-20.51H37Z" transform="translate(0 -257.247)"/>
          <path id="Trazado_130481" data-name="Trazado 130481" d="M227.97,587.183h0l-11.39,7.494H194.172c6.291-4.139,21.423-7.494,33.8-7.494" transform="translate(-89.93 -271.951)" fill="#53d335"/>
          <path id="Trazado_130482" data-name="Trazado 130482" d="M226.812,584.683a1.342,1.342,0,0,1,.738,2.463l-11.39,7.494a1.342,1.342,0,0,1-.738.221H193.014a1.342,1.342,0,0,1-.738-2.463c3.176-2.089,8.526-4.038,15.064-5.488A92.886,92.886,0,0,1,226.812,584.683Zm-11.792,7.494,7.08-4.658a93.386,93.386,0,0,0-14.178,2.011,68.577,68.577,0,0,0-8.26,2.335q-.431.155-.843.312Z" transform="translate(-88.772 -270.793)"/>
          <path id="Trazado_130483" data-name="Trazado 130483" d="M13.89,587.183h0L2.5,594.677H24.908c6.29-4.139,1.358-7.494-11.017-7.494" transform="translate(-1.158 -271.951)" fill="#53d335"/>
          <path id="Trazado_130484" data-name="Trazado 130484" d="M12.733,584.683a40.013,40.013,0,0,1,9.992,1.039c2.829.768,4.5,1.953,4.972,3.523a3.422,3.422,0,0,1-.562,2.968,9.157,9.157,0,0,1-2.647,2.428,1.342,1.342,0,0,1-.738.221H1.342A1.342,1.342,0,0,1,.6,592.4l11.39-7.494A1.342,1.342,0,0,1,12.733,584.683Zm10.6,7.494a6,6,0,0,0,1.567-1.458.91.91,0,0,0,.221-.7c-.129-.432-1.02-1.136-3.1-1.7a36.56,36.56,0,0,0-8.888-.944l-7.309,4.808Z" transform="translate(0 -270.793)"/>
          <path id="Trazado_130485" data-name="Trazado 130485" d="M46.952,565.431h0l11.39-7.494H80.75c-6.291,4.139-21.423,7.494-33.8,7.494" transform="translate(-21.746 -258.405)" fill="#53d335"/>
          <path id="Trazado_130486" data-name="Trazado 130486" d="M45.794,565.615a1.342,1.342,0,0,1-.738-2.463l11.39-7.494a1.342,1.342,0,0,1,.738-.221H79.592a1.342,1.342,0,0,1,.738,2.463c-3.176,2.089-8.526,4.038-15.064,5.488A92.883,92.883,0,0,1,45.794,565.615Zm11.792-7.494-7.08,4.658a93.387,93.387,0,0,0,14.178-2.012,68.556,68.556,0,0,0,8.26-2.335q.431-.155.843-.312Z" transform="translate(-20.588 -257.248)"/>
          <path id="Trazado_130487" data-name="Trazado 130487" d="M268.5,565.431h0l11.39-7.494H257.481c-6.29,4.139-1.358,7.494,11.017,7.494" transform="translate(-117.985 -258.405)" fill="#53d335"/>
          <path id="Trazado_130488" data-name="Trazado 130488" d="M267.341,565.615a40.016,40.016,0,0,1-9.992-1.039c-2.829-.768-4.5-1.953-4.972-3.523a3.422,3.422,0,0,1,.562-2.968,9.156,9.156,0,0,1,2.647-2.428,1.342,1.342,0,0,1,.738-.221h22.408a1.342,1.342,0,0,1,.738,2.463l-11.39,7.494A1.343,1.343,0,0,1,267.341,565.615Zm-10.6-7.494a5.993,5.993,0,0,0-1.567,1.458.909.909,0,0,0-.221.7c.129.432,1.02,1.136,3.1,1.7a36.563,36.563,0,0,0,8.888.944l7.309-4.808Z" transform="translate(-116.827 -257.248)"/>
          <path id="Trazado_130489" data-name="Trazado 130489" d="M121.6,580.559l-10.916-7.425,33.487-7.425,10.916,7.425Z" transform="translate(-51.263 -262.005)" fill="#53d335"/>
          <path id="Trazado_130490" data-name="Trazado 130490" d="M120.443,580.743a1.342,1.342,0,0,1-.755-.232l-10.916-7.425a1.342,1.342,0,0,1,.464-2.42l33.487-7.425a1.343,1.343,0,0,1,1.045.2l10.916,7.425a1.342,1.342,0,0,1-.464,2.42l-33.487,7.425A1.34,1.34,0,0,1,120.443,580.743Zm-7.592-8.13,7.868,5.352,29.888-6.627-7.868-5.352Z" transform="translate(-50.105 -260.847)"/>
          <path id="Trazado_130491" data-name="Trazado 130491" d="M102.057,574.028H92.341v-6.389h8.153Z" transform="translate(-42.767 -262.899)" fill="#9f5213"/>
          <path id="Trazado_130492" data-name="Trazado 130492" d="M100.9,574.212H91.183a1.342,1.342,0,0,1-1.342-1.342v-6.389a1.342,1.342,0,0,1,1.342-1.342h8.153a1.342,1.342,0,0,1,1.3,1.023l1.563,6.389a1.342,1.342,0,0,1-1.3,1.661Zm-8.374-2.684h6.664l-.906-3.7H92.525Z" transform="translate(-41.609 -261.741)"/>
          <path id="Trazado_130493" data-name="Trazado 130493" d="M100.494,480.759v-3.792h18.9a3.349,3.349,0,0,1,3.349,3.349V491.2a11.89,11.89,0,0,1-11.89,11.889h-2.21a8.153,8.153,0,0,0-8.153,8.153v14.4H92.341V488.913a8.153,8.153,0,0,0,8.153-8.153" transform="translate(-42.767 -220.905)" fill="#fff"/>
          <path id="Trazado_130494" data-name="Trazado 130494" d="M99.336,474.467h18.9a4.7,4.7,0,0,1,4.692,4.691v10.885A13.222,13.222,0,0,1,109.7,503.275h-2.21a6.811,6.811,0,0,0-6.811,6.811v14.4a1.342,1.342,0,0,1-1.342,1.342H91.183a1.342,1.342,0,0,1-1.342-1.342V487.755a1.342,1.342,0,0,1,1.342-1.342,6.811,6.811,0,0,0,6.811-6.811v-3.792A1.342,1.342,0,0,1,99.336,474.467ZM109.7,500.59a10.547,10.547,0,0,0,10.548-10.547V479.158a2.009,2.009,0,0,0-2.007-2.007H100.679v2.45a9.492,9.492,0,0,1-8.153,9.4v34.142h5.469V510.086a9.489,9.489,0,0,1,9.5-9.5Z" transform="translate(-41.609 -219.747)"/>
          <path id="Trazado_130495" data-name="Trazado 130495" d="M123.963,535.606a2.657,2.657,0,0,1-2.654-2.654v-1.471q-.431.03-.862.03t-.862-.03v1.471a2.654,2.654,0,0,1-5.308,0v-3.106a12.263,12.263,0,1,1,12.339,0v3.106a2.657,2.657,0,0,1-2.654,2.654" transform="translate(-50.105 -234.808)" fill="#efaaaa"/>
          <path id="Trazado_130496" data-name="Trazado 130496" d="M119.29,507.17a10.921,10.921,0,0,1,4.828,20.717v3.908a1.312,1.312,0,0,1-2.624,0v-3.006a11.017,11.017,0,0,1-4.409,0v3.006a1.312,1.312,0,0,1-2.624,0v-3.908a10.921,10.921,0,0,1,4.828-20.717m0-2.684a13.607,13.607,0,0,0-7.512,24.95v2.358a4,4,0,0,0,7.512,1.9,4,4,0,0,0,7.512-1.9v-2.358a13.607,13.607,0,0,0-7.512-24.95" transform="translate(-48.947 -233.65)"/>
          <path id="Trazado_130497" data-name="Trazado 130497" d="M194.2,531.929h8.153V494.613a4.077,4.077,0,1,0-8.153,0Z" transform="translate(-89.943 -227.189)" fill="#fff"/>
          <path id="Trazado_130498" data-name="Trazado 130498" d="M201.2,532.113h-8.153a1.342,1.342,0,0,1-1.342-1.342V493.455a5.419,5.419,0,1,1,10.838,0v37.316A1.342,1.342,0,0,1,201.2,532.113Zm-6.811-2.684h5.469V493.455a2.734,2.734,0,1,0-5.469,0Z" transform="translate(-88.785 -226.031)"/>
          <path id="Trazado_130499" data-name="Trazado 130499" d="M203.916,574.028H194.2v-6.389h8.153Z" transform="translate(-89.943 -262.899)" fill="#9f5213"/>
          <path id="Trazado_130500" data-name="Trazado 130500" d="M202.758,574.212h-9.716a1.342,1.342,0,0,1-1.342-1.342v-6.389a1.342,1.342,0,0,1,1.342-1.342H201.2a1.342,1.342,0,0,1,1.3,1.023l1.563,6.389a1.342,1.342,0,0,1-1.3,1.661Zm-8.374-2.684h6.664l-.906-3.7h-5.758Z" transform="translate(-88.785 -261.741)"/>
          <path id="Trazado_130501" data-name="Trazado 130501" d="M96.5,495.595h58.49a10.6,10.6,0,0,0,10.6-10.6V455.913H104a7.5,7.5,0,0,0-7.5,7.5Z" transform="translate(-44.693 -211.154)" fill="#fff"/>
          <path id="Trazado_130502" data-name="Trazado 130502" d="M153.833,495.779H95.342A1.342,1.342,0,0,1,94,494.437V462.26a8.841,8.841,0,0,1,8.847-8.847h61.582a1.342,1.342,0,0,1,1.342,1.342V483.84a11.93,11.93,0,0,1-11.939,11.939Zm-57.148-2.684h57.148a9.254,9.254,0,0,0,9.254-9.254V456.1h-60.24a6.163,6.163,0,0,0-6.163,6.163Z" transform="translate(-43.536 -209.996)"/>
          <path id="Trazado_130503" data-name="Trazado 130503" d="M255.1,452.951c-.581,2.577-4.4,3.91-8.54,2.978s-7.018-3.777-6.438-6.354,4.4-3.91,8.541-2.978,7.018,3.777,6.437,6.354" transform="translate(-111.178 -206.702)"/>
          <path id="Trazado_130504" data-name="Trazado 130504" d="M248.014,456.411a13.247,13.247,0,0,1-2.905-.33,11.744,11.744,0,0,1-5.636-2.914,6.738,6.738,0,0,1-1.577-2.309,4.6,4.6,0,0,1-.24-2.735,4.505,4.505,0,0,1,.979-1.937,5.842,5.842,0,0,1,1.693-1.343A9.645,9.645,0,0,1,244.9,443.8a13.245,13.245,0,0,1,2.9.33,11.747,11.747,0,0,1,5.635,2.914,6.738,6.738,0,0,1,1.577,2.309,4.6,4.6,0,0,1,.239,2.735,4.506,4.506,0,0,1-.979,1.937,5.841,5.841,0,0,1-1.693,1.344A9.644,9.644,0,0,1,248.014,456.411Zm-3.117-9.926a7.079,7.079,0,0,0-3.292.719,2.477,2.477,0,0,0-1.33,1.509,2.759,2.759,0,0,0,1.084,2.543,9.172,9.172,0,0,0,4.34,2.206,10.556,10.556,0,0,0,2.315.264,7.078,7.078,0,0,0,3.291-.719,2.477,2.477,0,0,0,1.33-1.509,2.758,2.758,0,0,0-1.083-2.543,9.175,9.175,0,0,0-4.34-2.206A10.558,10.558,0,0,0,244.9,446.485Z" transform="translate(-110.019 -205.544)"/>
          <path id="Trazado_130505" data-name="Trazado 130505" d="M182.224,452.951c.581,2.577,4.4,3.91,8.54,2.978s7.018-3.777,6.438-6.354-4.4-3.91-8.541-2.978-7.018,3.777-6.437,6.354" transform="translate(-84.361 -206.702)"/>
          <path id="Trazado_130506" data-name="Trazado 130506" d="M187,456.411h0a9.645,9.645,0,0,1-4.568-1.042,5.841,5.841,0,0,1-1.693-1.343,4.505,4.505,0,0,1-.979-1.937,4.6,4.6,0,0,1,.239-2.735,6.737,6.737,0,0,1,1.577-2.309,11.747,11.747,0,0,1,5.635-2.914,13.244,13.244,0,0,1,2.9-.33,9.646,9.646,0,0,1,4.569,1.042,5.842,5.842,0,0,1,1.693,1.343,4.505,4.505,0,0,1,.979,1.937,4.6,4.6,0,0,1-.24,2.735,6.739,6.739,0,0,1-1.577,2.309,11.744,11.744,0,0,1-5.636,2.914A13.245,13.245,0,0,1,187,456.411Zm3.117-9.926a10.558,10.558,0,0,0-2.315.264,9.176,9.176,0,0,0-4.34,2.206,2.758,2.758,0,0,0-1.083,2.543,2.477,2.477,0,0,0,1.33,1.509,7.078,7.078,0,0,0,3.291.719h0a10.555,10.555,0,0,0,2.315-.264,9.172,9.172,0,0,0,4.34-2.206,2.759,2.759,0,0,0,1.084-2.544,2.477,2.477,0,0,0-1.33-1.509A7.079,7.079,0,0,0,190.112,446.485Z" transform="translate(-83.203 -205.544)"/>
          <path id="Trazado_130507" data-name="Trazado 130507" d="M183.173,508.559V541.12h8.153V503.8a4.077,4.077,0,0,0-4.077-4.077" transform="translate(-84.836 -231.446)" fill="#fff"/>
          <path id="Trazado_130508" data-name="Trazado 130508" d="M190.168,541.3h-8.153a1.342,1.342,0,0,1-1.342-1.342V507.4a1.342,1.342,0,1,1,2.684,0V538.62h5.469V502.646a2.738,2.738,0,0,0-2.735-2.735,1.342,1.342,0,1,1,0-2.684,5.425,5.425,0,0,1,5.419,5.419v37.316A1.342,1.342,0,0,1,190.168,541.3Z" transform="translate(-83.678 -230.288)"/>
          <path id="Trazado_130509" data-name="Trazado 130509" d="M192.889,583.219h-9.716V576.83h8.153Z" transform="translate(-84.835 -267.155)" fill="#9f5213"/>
          <path id="Trazado_130510" data-name="Trazado 130510" d="M191.731,583.4h-9.716a1.342,1.342,0,0,1-1.342-1.342v-6.389a1.342,1.342,0,0,1,1.342-1.342h8.153a1.342,1.342,0,0,1,1.3,1.023l1.563,6.389a1.342,1.342,0,0,1-1.3,1.661Zm-8.374-2.684h6.664l-.906-3.7h-5.758Z" transform="translate(-83.678 -265.998)"/>
          <path id="Trazado_130511" data-name="Trazado 130511" d="M246.724,421.239l-.013-.025a.566.566,0,0,0-1.068.286,12.953,12.953,0,0,1-7.1,12.281c-.426.215-.223,1.477.453,2.818s1.571,2.254,2,2.039a12.952,12.952,0,0,0,5.73-17.4" transform="translate(-110.377 -194.941)" fill="#9f5213"/>
          <path id="Trazado_130512" data-name="Trazado 130512" d="M245.059,418.407h0a1.888,1.888,0,0,1,1.688,1.038l.013.025,0,.006a14.284,14.284,0,0,1-6.324,19.2,1.634,1.634,0,0,1-.743.175,2.565,2.565,0,0,1-1.87-1.025,8.237,8.237,0,0,1-1.187-1.783,7.975,7.975,0,0,1-.767-2.223,3.25,3.25,0,0,1-.013-1.094,1.741,1.741,0,0,1,.92-1.3,11.611,11.611,0,0,0,6.364-11.009,1.876,1.876,0,0,1,.511-1.407A1.94,1.94,0,0,1,245.059,418.407Zm-5.278,17.578a11.627,11.627,0,0,0,5.808-10.855q-.031-.457-.1-.908a14.293,14.293,0,0,1-6.944,9.3,5.716,5.716,0,0,0,.489,1.312A5.794,5.794,0,0,0,239.781,435.985Z" transform="translate(-109.219 -193.783)"/>
          <path id="Trazado_130513" data-name="Trazado 130513" d="M195.2,421.239l.013-.025a.566.566,0,0,1,1.068.286,12.953,12.953,0,0,0,7.1,12.281c.426.215.223,1.477-.453,2.818s-1.571,2.254-2,2.039a12.952,12.952,0,0,1-5.73-17.4" transform="translate(-89.763 -194.941)" fill="#9f5213"/>
          <path id="Trazado_130514" data-name="Trazado 130514" d="M194.552,418.407a1.94,1.94,0,0,1,1.4.6,1.876,1.876,0,0,1,.51,1.408,11.611,11.611,0,0,0,6.364,11.008,1.741,1.741,0,0,1,.921,1.3,3.25,3.25,0,0,1-.013,1.094,7.972,7.972,0,0,1-.767,2.223,8.238,8.238,0,0,1-1.187,1.783,2.565,2.565,0,0,1-1.87,1.025,1.635,1.635,0,0,1-.744-.176,14.284,14.284,0,0,1-6.323-19.2l0-.006.013-.025A1.888,1.888,0,0,1,194.552,418.407Zm6.512,15.117a14.293,14.293,0,0,1-6.944-9.3q-.066.451-.1.908a11.6,11.6,0,0,0,5.808,10.855,5.794,5.794,0,0,0,.744-1.15A5.712,5.712,0,0,0,201.063,433.524Z" transform="translate(-88.605 -193.783)"/>
          <path id="Trazado_130515" data-name="Trazado 130515" d="M199.59,449.179c0,8.779,6.153,22.468,13.743,22.468s13.743-13.689,13.743-22.468-6.153-8.976-13.743-8.976-13.743.2-13.743,8.976" transform="translate(-92.439 -203.878)" fill="#fff"/>
          <path id="Trazado_130516" data-name="Trazado 130516" d="M212.175,437.7c1.917,0,3.779.013,5.476.174a14.585,14.585,0,0,1,4.8,1.145c3.234,1.491,4.805,4.435,4.805,9a33.706,33.706,0,0,1-4.191,15.173,21.777,21.777,0,0,1-4.667,6.034,8.75,8.75,0,0,1-12.454,0,21.777,21.777,0,0,1-4.667-6.034,33.705,33.705,0,0,1-4.191-15.173c0-4.564,1.572-7.508,4.805-9a14.585,14.585,0,0,1,4.8-1.145C208.4,437.716,210.258,437.7,212.175,437.7Zm0,31.444a6.928,6.928,0,0,0,4.472-1.95,19.413,19.413,0,0,0,4.07-5.3,33.011,33.011,0,0,0,2.827-7.022,26.411,26.411,0,0,0,1.032-6.857,9.253,9.253,0,0,0-.911-4.455,4.9,4.9,0,0,0-2.334-2.107c-2.155-.994-5.286-1.073-9.156-1.073s-7,.079-9.156,1.073a4.9,4.9,0,0,0-2.334,2.107,9.253,9.253,0,0,0-.911,4.455,26.411,26.411,0,0,0,1.032,6.857,33.011,33.011,0,0,0,2.827,7.022,19.413,19.413,0,0,0,4.07,5.3A6.928,6.928,0,0,0,212.175,469.147Z" transform="translate(-91.281 -202.72)"/>
          <path id="Trazado_130517" data-name="Trazado 130517" d="M205.844,481.118c0,4.319,4.65,7.82,10.385,7.82s10.385-3.5,10.385-7.82-4.649-7.82-10.385-7.82-10.385,3.5-10.385,7.82" transform="translate(-95.335 -219.205)" fill="#efaaaa"/>
          <path id="Elipse_4898" data-name="Elipse 4898" d="M9.227-2.5A13.584,13.584,0,0,1,17.378.06a9.426,9.426,0,0,1,2.588,2.9,7.426,7.426,0,0,1,0,7.4,9.426,9.426,0,0,1-2.588,2.9,13.584,13.584,0,0,1-8.151,2.56,13.584,13.584,0,0,1-8.151-2.56,9.426,9.426,0,0,1-2.588-2.9,7.426,7.426,0,0,1,0-7.4A9.426,9.426,0,0,1,1.076.06,13.584,13.584,0,0,1,9.227-2.5Zm0,15.64a11.961,11.961,0,0,0,3.635-.551,9.685,9.685,0,0,0,2.9-1.469A5.653,5.653,0,0,0,18.27,6.662,5.653,5.653,0,0,0,15.763,2.2a9.685,9.685,0,0,0-2.9-1.469,12.261,12.261,0,0,0-7.27,0A9.685,9.685,0,0,0,2.691,2.2,5.653,5.653,0,0,0,.184,6.662a5.653,5.653,0,0,0,2.507,4.457,9.685,9.685,0,0,0,2.9,1.469A11.961,11.961,0,0,0,9.227,13.14Z" transform="translate(111.667 255.251)"/>
          <path id="Trazado_130518" data-name="Trazado 130518" d="M91.029,583.219H81.313V576.83h8.153Z" transform="translate(-37.66 -267.155)" fill="#9f5213"/>
          <path id="Trazado_130519" data-name="Trazado 130519" d="M89.871,583.4H80.155a1.342,1.342,0,0,1-1.342-1.342v-6.389a1.342,1.342,0,0,1,1.342-1.342h8.153a1.342,1.342,0,0,1,1.3,1.023l1.563,6.389a1.342,1.342,0,0,1-1.3,1.661ZM81.5,580.719h6.664l-.906-3.7H81.5Z" transform="translate(-36.502 -265.998)"/>
          <path id="Trazado_130520" data-name="Trazado 130520" d="M111.719,489.506v10.885a11.889,11.889,0,0,1-11.89,11.89h-2.21a8.153,8.153,0,0,0-8.153,8.153v14.4H81.313V498.1a8.153,8.153,0,0,0,8.153-8.153v-3.793" transform="translate(-37.66 -225.161)" fill="#fff"/>
          <path id="Trazado_130521" data-name="Trazado 130521" d="M88.308,535.02H80.155a1.342,1.342,0,0,1-1.342-1.342V496.945a1.342,1.342,0,0,1,1.342-1.342,6.811,6.811,0,0,0,6.811-6.811V485a1.342,1.342,0,0,1,2.684,0v3.793a9.492,9.492,0,0,1-8.153,9.4v34.142h5.469V519.276a9.488,9.488,0,0,1,9.5-9.5h2.21a10.547,10.547,0,0,0,10.548-10.548V488.349a1.342,1.342,0,1,1,2.684,0v10.885a13.222,13.222,0,0,1-13.232,13.232h-2.21a6.811,6.811,0,0,0-6.811,6.811v14.4A1.342,1.342,0,0,1,88.308,535.02Z" transform="translate(-36.502 -224.003)"/>
          <path id="Trazado_130522" data-name="Trazado 130522" d="M69.4,489.258a1.342,1.342,0,0,1-1.342-1.342V474.552a20.98,20.98,0,0,1,21-21h.712a1.342,1.342,0,0,1,0,2.684h-.712a18.3,18.3,0,0,0-18.312,18.312v13.363A1.342,1.342,0,0,1,69.4,489.258Z" transform="translate(-31.52 -210.062)"/>
          <path id="Trazado_130523" data-name="Trazado 130523" d="M70.9,516.078a7.716,7.716,0,0,1-2.466,5.656,7.718,7.718,0,0,1,0-11.313,7.716,7.716,0,0,1,2.466,5.656" transform="translate(-30.55 -236.399)" fill="#fff"/>
          <path id="Trazado_130524" data-name="Trazado 130524" d="M67.271,507.922a1.338,1.338,0,0,1,.916.361,9.087,9.087,0,0,1,2.111,2.954,9.065,9.065,0,0,1,0,7.366,9.087,9.087,0,0,1-2.111,2.954,1.342,1.342,0,0,1-1.832,0,9.086,9.086,0,0,1-2.111-2.955,9.065,9.065,0,0,1,0-7.366,9.086,9.086,0,0,1,2.111-2.954A1.339,1.339,0,0,1,67.271,507.922Zm0,10.613a6.4,6.4,0,0,0,.575-1.026,6.381,6.381,0,0,0,0-5.179,6.4,6.4,0,0,0-.575-1.026,6.394,6.394,0,0,0-.575,1.026,6.38,6.38,0,0,0,0,5.179A6.4,6.4,0,0,0,67.271,518.535Z" transform="translate(-29.392 -235.241)"/>
          <path id="Trazado_130525" data-name="Trazado 130525" d="M211.669,457.352a1.807,1.807,0,1,1-1.807-1.807,1.806,1.806,0,0,1,1.807,1.807" transform="translate(-96.36 -210.983)"/>
          <path id="Trazado_130526" data-name="Trazado 130526" d="M239.205,457.352a1.807,1.807,0,1,1-1.807-1.807,1.806,1.806,0,0,1,1.807,1.807" transform="translate(-109.113 -210.983)"/>
          <path id="Línea_249" data-name="Línea 249" d="M11.816.184H-1.158A1.342,1.342,0,0,1-2.5-1.158,1.342,1.342,0,0,1-1.158-2.5H11.816a1.342,1.342,0,0,1,1.342,1.342A1.342,1.342,0,0,1,11.816.184Z" transform="translate(17.084 339.122)"/>
          <path id="Línea_250" data-name="Línea 250" d="M78.591.184H-1.158A1.342,1.342,0,0,1-2.5-1.158,1.342,1.342,0,0,1-1.158-2.5H78.591a1.342,1.342,0,0,1,1.342,1.342A1.342,1.342,0,0,1,78.591.184Z" transform="translate(49.67 339.122)"/>
          <path id="Línea_251" data-name="Línea 251" d="M-1.157,13.076a1.341,1.341,0,0,1-1.122-.6A1.342,1.342,0,0,1-1.9,10.612L17.7-2.279a1.342,1.342,0,0,1,1.859.384,1.342,1.342,0,0,1-.384,1.859L-.42,12.855A1.336,1.336,0,0,1-1.157,13.076Z" transform="translate(145.079 315.927)"/>
          <path id="Trazado_130527" data-name="Trazado 130527" d="M59.4,473.7a1.342,1.342,0,0,1-1.342-1.342,25.1,25.1,0,0,1,10.777-20.632,1.342,1.342,0,1,1,1.535,2.2,22.64,22.64,0,0,0-7,7.875,22.344,22.344,0,0,0-2.63,10.554A1.342,1.342,0,0,1,59.4,473.7Z" transform="translate(-26.888 -209.105)"/>
          <path id="Línea_252" data-name="Línea 252" d="M1.963.184H-1.158A1.342,1.342,0,0,1-2.5-1.158,1.342,1.342,0,0,1-1.158-2.5H1.963A1.342,1.342,0,0,1,3.306-1.158,1.342,1.342,0,0,1,1.963.184Z" transform="translate(57.458 240.625)"/>
          <path id="Línea_253" data-name="Línea 253" d="M102.992.184H-1.158A1.342,1.342,0,0,1-2.5-1.158,1.342,1.342,0,0,1-1.158-2.5h104.15a1.342,1.342,0,0,1,1.342,1.342A1.342,1.342,0,0,1,102.992.184Z" transform="translate(236.882 316.39)"/>
          <path id="Línea_254" data-name="Línea 254" d="M93.956.184H-1.158A1.342,1.342,0,0,1-2.5-1.158,1.342,1.342,0,0,1-1.158-2.5H93.956A1.342,1.342,0,0,1,95.3-1.158,1.342,1.342,0,0,1,93.956.184Z" transform="translate(260.413 322.156)"/>
          <path id="Línea_255" data-name="Línea 255" d="M28.325.184H-1.158A1.342,1.342,0,0,1-2.5-1.158,1.342,1.342,0,0,1-1.158-2.5H28.325a1.342,1.342,0,0,1,1.342,1.342A1.342,1.342,0,0,1,28.325.184Z" transform="translate(220.508 331.015)"/>
          <path id="Trazado_130528" data-name="Trazado 130528" d="M539.642,507.448v19.1a14.138,14.138,0,0,0,14.138,14.138h4.963V560.1a4.781,4.781,0,0,0,9.562,0V530.452a6.46,6.46,0,0,1-6.46-6.461V507.448" transform="translate(-249.932 -235.022)" fill="#9f5211"/>
          <path id="Trazado_130529" data-name="Trazado 130529" d="M562.367,565.063a6.123,6.123,0,0,1-6.123-6.123v-18.07h-3.621a15.469,15.469,0,0,1-15.48-15.48v-19.1a1.342,1.342,0,0,1,2.684,0v19.1a12.784,12.784,0,0,0,12.8,12.8h4.963a1.342,1.342,0,0,1,1.342,1.342v19.412a3.439,3.439,0,0,0,6.878,0V530.522a7.807,7.807,0,0,1-6.46-7.688V506.29a1.342,1.342,0,1,1,2.684,0v16.543a5.124,5.124,0,0,0,5.118,5.118,1.342,1.342,0,0,1,1.342,1.342v29.647a6.123,6.123,0,0,1-6.123,6.123Z" transform="translate(-248.774 -233.864)"/>
          <path id="Trazado_130530" data-name="Trazado 130530" d="M460.969,507.448v9.792a21.273,21.273,0,0,0,4.543,13.139,21.271,21.271,0,0,1,4.543,13.14V559.9a4.914,4.914,0,0,0,4.634,4.979,4.781,4.781,0,0,0,4.928-4.779V515.537" transform="translate(-213.495 -235.022)" fill="#9f5211"/>
          <path id="Trazado_130531" data-name="Trazado 130531" d="M473.681,565.064l-.191,0a5.97,5.97,0,0,1-4.247-1.973,6.422,6.422,0,0,1-1.688-4.348V542.361A19.929,19.929,0,0,0,463.3,530.05a22.615,22.615,0,0,1-4.829-13.968V506.29a1.342,1.342,0,1,1,2.684,0v9.792a19.931,19.931,0,0,0,4.256,12.31,22.614,22.614,0,0,1,4.83,13.969V558.74a3.571,3.571,0,0,0,3.332,3.638,3.439,3.439,0,0,0,3.546-3.437V514.379a1.342,1.342,0,1,1,2.684,0v44.561a6.123,6.123,0,0,1-6.12,6.123Z" transform="translate(-212.337 -233.864)"/>
          <path id="Trazado_130532" data-name="Trazado 130532" d="M589.772,489.829s19.016,2.366,27.586-24.988c-8.728,23.674-31.042,18.619-31.042,18.619" transform="translate(-271.549 -215.289)" fill="#9f5211"/>
          <path id="Trazado_130533" data-name="Trazado 130533" d="M589.768,490.066a11.528,11.528,0,0,1-1.32-.062l.331-2.664h0a14.222,14.222,0,0,0,2.944-.076,21.6,21.6,0,0,0,7.033-2.107,25.458,25.458,0,0,0,7.633-5.891,26.61,26.61,0,0,1-8.648,3.905,31.278,31.278,0,0,1-9.018.892,24.154,24.154,0,0,1-3.857-.452,1.342,1.342,0,1,1,.593-2.618,22.247,22.247,0,0,0,3.494.393,28.528,28.528,0,0,0,8.231-.843,23.683,23.683,0,0,0,9.665-5.025,29.364,29.364,0,0,0,8.1-12.3,1.342,1.342,0,0,1,2.54.866,46.849,46.849,0,0,1-8.171,15.9,28.545,28.545,0,0,1-9.531,7.661A23.282,23.282,0,0,1,589.768,490.066Z" transform="translate(-270.391 -214.13)"/>
          <path id="Trazado_130534" data-name="Trazado 130534" d="M511.809,472.409H486.56a13.083,13.083,0,0,1-13.083-13.083v-2.538H456.6v26.218a27.74,27.74,0,0,0,33.423,27.287l39.672-7.63V490.295a17.886,17.886,0,0,0-17.886-17.886" transform="translate(-211.472 -211.559)" fill="#9f5211"/>
          <path id="Trazado_130535" data-name="Trazado 130535" d="M455.442,454.288h16.877a1.342,1.342,0,0,1,1.342,1.342v2.538A11.73,11.73,0,0,0,485.4,469.909h25.248a19.213,19.213,0,0,1,19.228,19.228V501.5a1.342,1.342,0,0,1-1.089,1.318l-39.672,7.63a30.161,30.161,0,0,1-5.681.542,29.823,29.823,0,0,1-15.617-4.394A28.478,28.478,0,0,1,456.9,494.43a29.456,29.456,0,0,1-2.072-6.037,29.788,29.788,0,0,1-.726-6.544V455.63A1.342,1.342,0,0,1,455.442,454.288Zm15.535,2.684H456.784v24.876a27.1,27.1,0,0,0,.66,5.954,26.771,26.771,0,0,0,1.883,5.486,25.8,25.8,0,0,0,9.9,11.025,27.14,27.14,0,0,0,14.212,4,27.462,27.462,0,0,0,5.174-.493l38.583-7.421V489.137a16.529,16.529,0,0,0-16.544-16.544H485.4a14.415,14.415,0,0,1-14.425-14.425Z" transform="translate(-210.314 -210.401)"/>
          <path id="Trazado_130536" data-name="Trazado 130536" d="M551.4,519.2v19.1a14.138,14.138,0,0,0,14.138,14.138H570.5v19.412a4.781,4.781,0,0,0,9.562,0V542.2a6.461,6.461,0,0,1-6.46-6.461V519.2" transform="translate(-255.376 -240.465)" fill="#9f5211"/>
          <path id="Trazado_130537" data-name="Trazado 130537" d="M574.12,576.816A6.123,6.123,0,0,1,568,570.694V552.624h-3.621a15.468,15.468,0,0,1-15.48-15.48v-19.1a1.342,1.342,0,0,1,2.684,0v19.1a12.784,12.784,0,0,0,12.8,12.8h4.963a1.342,1.342,0,0,1,1.342,1.342v19.412a3.439,3.439,0,0,0,6.878,0V542.275a7.808,7.808,0,0,1-6.46-7.688V518.043a1.342,1.342,0,0,1,2.684,0v16.543A5.124,5.124,0,0,0,578.9,539.7a1.342,1.342,0,0,1,1.342,1.342v29.647a6.123,6.123,0,0,1-6.123,6.123Z" transform="translate(-254.218 -239.307)"/>
          <path id="Trazado_130538" data-name="Trazado 130538" d="M472.722,519.2v9.792a21.273,21.273,0,0,0,4.543,13.139,21.271,21.271,0,0,1,4.543,13.14v16.379a4.914,4.914,0,0,0,4.634,4.979,4.781,4.781,0,0,0,4.928-4.779V527.29" transform="translate(-218.939 -240.465)" fill="#9f5211"/>
          <path id="Trazado_130539" data-name="Trazado 130539" d="M485.434,576.817l-.191,0A5.97,5.97,0,0,1,481,574.841a6.422,6.422,0,0,1-1.688-4.348V554.114a19.929,19.929,0,0,0-4.257-12.311,22.614,22.614,0,0,1-4.83-13.968v-9.792a1.342,1.342,0,0,1,2.684,0v9.792a19.931,19.931,0,0,0,4.256,12.31,22.612,22.612,0,0,1,4.83,13.969v16.379a3.571,3.571,0,0,0,3.332,3.638,3.439,3.439,0,0,0,3.546-3.437V526.132a1.342,1.342,0,0,1,2.684,0v44.561a6.123,6.123,0,0,1-6.12,6.123Z" transform="translate(-217.781 -239.307)"/>
          <path id="Trazado_130540" data-name="Trazado 130540" d="M459.836,454.445c-2.363,12.211-12.915,20.439-23.569,18.378s-17.375-13.632-15.013-25.843,12.915-20.439,23.569-18.378,17.375,13.632,15.013,25.843" transform="translate(-194.882 -198.358)" fill="#9f5211"/>
          <path id="Trazado_130541" data-name="Trazado 130541" d="M438.4,473.323a18.743,18.743,0,0,1-11.271-3.775,21.007,21.007,0,0,1-5.571-6.325,24.213,24.213,0,0,1-2.938-8.285,27.026,27.026,0,0,1,3.033-17.309,24.692,24.692,0,0,1,4.922-6.252,21.908,21.908,0,0,1,6.423-4.11,19.272,19.272,0,0,1,7.37-1.483,18.743,18.743,0,0,1,11.271,3.775,21.006,21.006,0,0,1,5.571,6.325,24.212,24.212,0,0,1,2.938,8.285,27.028,27.028,0,0,1-3.033,17.309,24.692,24.692,0,0,1-4.922,6.252,21.908,21.908,0,0,1-6.423,4.11A19.273,19.273,0,0,1,438.4,473.323Zm1.967-44.854a16.6,16.6,0,0,0-6.347,1.28,19.233,19.233,0,0,0-5.636,3.611A22.014,22.014,0,0,0,424,438.935a24.343,24.343,0,0,0-2.73,15.569,21.538,21.538,0,0,0,2.61,7.371,18.337,18.337,0,0,0,4.859,5.525,16.058,16.058,0,0,0,9.663,3.239,16.6,16.6,0,0,0,6.348-1.28,19.232,19.232,0,0,0,5.636-3.611,22.011,22.011,0,0,0,4.386-5.574A24.345,24.345,0,0,0,457.5,444.6a21.539,21.539,0,0,0-2.61-7.371,18.338,18.338,0,0,0-4.859-5.525,16.058,16.058,0,0,0-9.663-3.239Z" transform="translate(-193.723 -197.2)"/>
          <path id="Trazado_130542" data-name="Trazado 130542" d="M445.539,505.562h0a3.822,3.822,0,0,1-3.026-4.478l2.049-10.59,7.5,1.452-2.049,10.59a3.822,3.822,0,0,1-4.478,3.026" transform="translate(-204.915 -227.17)" fill="#d85353"/>
          <path id="Trazado_130543" data-name="Trazado 130543" d="M445.11,505.816a5.2,5.2,0,0,1-.985-.095,5.164,5.164,0,0,1-4.089-6.051l2.049-10.589a1.342,1.342,0,0,1,1.573-1.063l7.5,1.452a1.342,1.342,0,0,1,1.063,1.573l-2.049,10.59A5.17,5.17,0,0,1,445.11,505.816Zm-.645-14.908-1.794,9.272a2.48,2.48,0,0,0,1.964,2.906,2.509,2.509,0,0,0,.475.046,2.482,2.482,0,0,0,2.431-2.009l1.794-9.272Z" transform="translate(-203.756 -226.011)"/>
          <path id="Trazado_130544" data-name="Trazado 130544" d="M457.4,480.687a8.1,8.1,0,0,1-11.6,6.2,18.575,18.575,0,0,0-9.353-1.861,8.105,8.105,0,0,1-8.348-10.168" transform="translate(-198.142 -219.927)" fill="#9f5211"/>
          <path id="Trazado_130545" data-name="Trazado 130545" d="M448.22,487.9a9.526,9.526,0,0,1-4.177-.97,17.2,17.2,0,0,0-8.675-1.726,9.471,9.471,0,0,1-2.449-.164,9.436,9.436,0,0,1-7.282-11.687,1.342,1.342,0,0,1,2.6.686,6.752,6.752,0,0,0,5.211,8.368,6.779,6.779,0,0,0,1.754.118,19.89,19.89,0,0,1,10.03,2,6.785,6.785,0,0,0,1.665.563,6.758,6.758,0,0,0,8.016-5.736,1.342,1.342,0,0,1,2.66.36,9.443,9.443,0,0,1-9.349,8.193Z" transform="translate(-196.984 -218.769)"/>
          <path id="Trazado_130546" data-name="Trazado 130546" d="M444.592,473.533c-.65,3.265,2.059,3.483,5.325,4.133s5.851,1.485,6.5-1.78a6.029,6.029,0,0,0-11.825-2.352" transform="translate(-205.866 -217.067)"/>
          <path id="Trazado_130547" data-name="Trazado 130547" d="M449.342,466.18h0a7.418,7.418,0,0,1,1.445.143,7.371,7.371,0,0,1,5.791,8.667,4.288,4.288,0,0,1-1.473,2.676,4,4,0,0,1-2.572.785,16.844,16.844,0,0,1-3.263-.469c-.251-.052-.511-.106-.771-.158s-.52-.1-.771-.149a20.494,20.494,0,0,1-2.778-.658,4.432,4.432,0,0,1-2.35-1.637,4.205,4.205,0,0,1-.479-3.266,7.372,7.372,0,0,1,7.222-5.933Zm3.191,9.586a1.493,1.493,0,0,0,.913-.212,1.96,1.96,0,0,0,.5-1.089,4.686,4.686,0,0,0-3.682-5.51,4.685,4.685,0,0,0-5.51,3.682,1.725,1.725,0,0,0,.072,1.243c.393.584,1.925.876,3.406,1.159.257.049.522.1.792.153s.535.109.791.162A15.209,15.209,0,0,0,452.533,475.766Z" transform="translate(-204.709 -215.909)"/>
          <path id="Trazado_130548" data-name="Trazado 130548" d="M420.538,434l-10.869,9.226a5.573,5.573,0,1,1-7.213-8.5l9.212-7.82a11.146,11.146,0,0,1,15.711,1.284" transform="translate(-185.484 -196.491)" fill="#9f5211"/>
          <path id="Trazado_130549" data-name="Trazado 130549" d="M404.916,444.73q-.286,0-.575-.024a6.915,6.915,0,0,1-3.912-12.164l9.212-7.82a12.479,12.479,0,0,1,17.6,1.439A1.342,1.342,0,0,1,425.2,427.9a9.8,9.8,0,0,0-13.819-1.13l-9.212,7.82a4.231,4.231,0,1,0,5.476,6.451l10.869-9.226a1.342,1.342,0,1,1,1.737,2.046l-10.869,9.226A6.863,6.863,0,0,1,404.916,444.73Z" transform="translate(-184.326 -195.333)"/>
          <path id="Trazado_130550" data-name="Trazado 130550" d="M482.641,443.807l6.643,12.615a5.573,5.573,0,1,0,9.863-5.194l-5.631-10.693a11.146,11.146,0,0,0-15.056-4.669" transform="translate(-221.596 -201.273)" fill="#9f5211"/>
          <path id="Trazado_130551" data-name="Trazado 130551" d="M493.065,459.585a6.935,6.935,0,0,1-6.127-3.7l-6.642-12.614a1.342,1.342,0,1,1,2.375-1.251l6.643,12.615a4.231,4.231,0,1,0,7.487-3.943L491.169,440a9.8,9.8,0,0,0-13.243-4.107,1.342,1.342,0,0,1-1.251-2.375,12.479,12.479,0,0,1,16.869,5.231l5.631,10.693a6.921,6.921,0,0,1-6.11,10.141Z" transform="translate(-220.438 -200.115)"/>
          <path id="Trazado_130552" data-name="Trazado 130552" d="M446.709,449.965a1.9,1.9,0,1,1-1.5-2.227,1.9,1.9,0,0,1,1.5,2.227" transform="translate(-205.146 -207.351)"/>
          <path id="Trazado_130553" data-name="Trazado 130553" d="M475.15,455.468a1.9,1.9,0,1,1-1.5-2.227,1.9,1.9,0,0,1,1.5,2.227" transform="translate(-218.318 -209.9)"/>
          <path id="Trazado_130554" data-name="Trazado 130554" d="M603.629,473.969a1.342,1.342,0,0,1-.374-2.631,23.572,23.572,0,0,0,9.286-5.142,29.636,29.636,0,0,0,7.734-11.978,1.342,1.342,0,1,1,2.519.929,32.277,32.277,0,0,1-8.455,13.043A26.234,26.234,0,0,1,604,473.915,1.343,1.343,0,0,1,603.629,473.969Z" transform="translate(-278.946 -209.962)"/>
          <path id="Trazado_130555" data-name="Trazado 130555" d="M616.174,465.125a1.342,1.342,0,0,1-.935-2.305,26.31,26.31,0,0,0,3.636-4.425,1.342,1.342,0,1,1,2.243,1.475,28.99,28.99,0,0,1-4.01,4.876A1.337,1.337,0,0,1,616.174,465.125Z" transform="translate(-284.756 -212.023)"/>
        </g>
      </g>
    </g>
  </g>
</svg>
