<svg xmlns="http://www.w3.org/2000/svg" width="190" height="190" viewBox="0 0 190 190">
  <g id="_105" data-name="105" transform="translate(-7822 6609)">
    <line id="Línea_241" data-name="Línea 241" y2="34.448" transform="translate(7979.269 -6554.266)" fill="#fff"/>
    <path id="Línea_242" data-name="Línea 242" d="M-1.158,34.633A1.342,1.342,0,0,1-2.5,33.291V-1.158A1.342,1.342,0,0,1-1.158-2.5,1.342,1.342,0,0,1,.184-1.158V33.291A1.342,1.342,0,0,1-1.158,34.633Z" transform="translate(7980.426 -6553.108)"/>
    <g id="Grupo_157614" data-name="Grupo 157614">
      <rect id="Rectángulo_37344" data-name="Rectángulo 37344" width="190" height="190" transform="translate(7822 -6609)" fill="#c9f0ee"/>
      <path id="Trazado_130988" data-name="Trazado 130988" d="M15.344,10.055h-4.5v3.063h5.281V15H8.5V3.625h7.609v1.9H10.844V8.234h4.5Zm6.586,2.609a.727.727,0,0,0-.41-.652,4.659,4.659,0,0,0-1.316-.426q-3.016-.633-3.016-2.562a2.323,2.323,0,0,1,.934-1.879,3.766,3.766,0,0,1,2.441-.754,4.053,4.053,0,0,1,2.574.758A2.388,2.388,0,0,1,24.1,9.117H21.844a1.092,1.092,0,0,0-.312-.8A1.322,1.322,0,0,0,20.555,8a1.351,1.351,0,0,0-.883.258.814.814,0,0,0-.312.656.7.7,0,0,0,.355.605,3.657,3.657,0,0,0,1.2.4,9.8,9.8,0,0,1,1.422.379,2.336,2.336,0,0,1,1.789,2.273,2.2,2.2,0,0,1-.992,1.871,4.28,4.28,0,0,1-2.562.715,4.47,4.47,0,0,1-1.887-.379,3.166,3.166,0,0,1-1.293-1.039,2.414,2.414,0,0,1-.469-1.426h2.141a1.179,1.179,0,0,0,.445.922,1.766,1.766,0,0,0,1.109.32,1.635,1.635,0,0,0,.98-.246A.766.766,0,0,0,21.93,12.664Zm6.352-8.2V6.547h1.445V8.2H28.281v4.219a1.007,1.007,0,0,0,.18.672.9.9,0,0,0,.688.2,3.6,3.6,0,0,0,.664-.055v1.711a4.648,4.648,0,0,1-1.367.2,2.156,2.156,0,0,1-2.422-2.4V8.2H24.789V6.547h1.234V4.469Zm7.453,4.2a6.134,6.134,0,0,0-.812-.062,1.654,1.654,0,0,0-1.68.867V15H30.984V6.547h2.133l.063,1.008a2.092,2.092,0,0,1,1.883-1.164,2.366,2.366,0,0,1,.7.1Zm4.828,6.492a4.15,4.15,0,0,1-3.027-1.141,4.054,4.054,0,0,1-1.168-3.039v-.219a5.106,5.106,0,0,1,.492-2.277,3.612,3.612,0,0,1,1.395-1.547,3.914,3.914,0,0,1,2.059-.543,3.508,3.508,0,0,1,2.73,1.094,4.444,4.444,0,0,1,1,3.1v.922H38.656a2.1,2.1,0,0,0,.66,1.328,2,2,0,0,0,1.395.5,2.437,2.437,0,0,0,2.039-.945l1.109,1.242a3.389,3.389,0,0,1-1.375,1.121A4.511,4.511,0,0,1,40.563,15.156ZM40.3,8.211a1.411,1.411,0,0,0-1.09.455,2.357,2.357,0,0,0-.535,1.3H41.82V9.788a1.681,1.681,0,0,0-.406-1.165A1.456,1.456,0,0,0,40.3,8.211ZM47.7,15H45.438V3H47.7Zm4.242,0H49.68V3h2.266ZM58.7,15a2.507,2.507,0,0,1-.227-.758,2.732,2.732,0,0,1-2.133.914,3,3,0,0,1-2.059-.719,2.312,2.312,0,0,1-.816-1.812,2.389,2.389,0,0,1,1-2.062,4.915,4.915,0,0,1,2.879-.727h1.039V9.352a1.393,1.393,0,0,0-.3-.937,1.183,1.183,0,0,0-.949-.352,1.345,1.345,0,0,0-.895.273.929.929,0,0,0-.324.75H53.656a2.268,2.268,0,0,1,.453-1.359,3,3,0,0,1,1.281-.98,4.669,4.669,0,0,1,1.859-.355,3.689,3.689,0,0,1,2.48.785,2.747,2.747,0,0,1,.918,2.207v3.664a4.041,4.041,0,0,0,.336,1.82V15Zm-1.867-1.57a1.945,1.945,0,0,0,.922-.223,1.462,1.462,0,0,0,.625-.6V11.156h-.844q-1.7,0-1.8,1.172l-.008.133a.9.9,0,0,0,.3.7A1.153,1.153,0,0,0,56.836,13.43Z" transform="translate(7883 -6455)" fill="#12263f"/>
      <path id="Trazado_130466" data-name="Trazado 130466" d="M140.52,179.732a14.622,14.622,0,0,0,.406-3.206,21.905,21.905,0,0,0-26.56-21.392,21.015,21.015,0,0,1-1.6-7.077,21.892,21.892,0,0,1,43.785,0c0,7.983-9.542,22.637-16.026,31.675" transform="translate(7788.775 -6651.352)" fill="#c77025"/>
      <path id="Trazado_130467" data-name="Trazado 130467" d="M139.361,179.917a1.342,1.342,0,0,1-1.308-1.64,13.334,13.334,0,0,0,.372-2.908,20.532,20.532,0,0,0-20.55-20.55,20.673,20.673,0,0,0-4.383.47,1.342,1.342,0,0,1-1.54-.836,22.225,22.225,0,0,1-1.691-7.552,23.235,23.235,0,1,1,46.469,0,22.168,22.168,0,0,1-1.679,7.52,67.645,67.645,0,0,1-4.07,8.57,168.113,168.113,0,0,1-10.529,16.367A1.342,1.342,0,0,1,139.361,179.917Zm-21.486-27.782a23.216,23.216,0,0,1,23.184,21.682c2.991-4.37,5.574-8.5,7.572-12.123a65,65,0,0,0,3.909-8.221,19.621,19.621,0,0,0,1.506-6.572,20.55,20.55,0,1,0-41.1,0,17.8,17.8,0,0,0,1.135,5.545A23.4,23.4,0,0,1,117.875,152.134Z" transform="translate(7789.933 -6650.194)"/>
      <path id="Trazado_130468" data-name="Trazado 130468" d="M131.371,198.22s-2.672-24.374,1.853-31.513a15.305,15.305,0,0,1,21.121-4.734l.093.061c1.62-3.836,2.631-7.356,2.631-10.17a25.7,25.7,0,0,0-51.4,0c0,14.192,25.7,46.356,25.7,46.356" transform="translate(7792.058 -6651.353)" fill="#fea134"/>
      <path id="Trazado_130469" data-name="Trazado 130469" d="M130.213,198.4a1.342,1.342,0,0,1-1.049-.5c-.065-.081-6.538-8.2-12.923-17.959a138.829,138.829,0,0,1-8.92-15.423,56.061,56.061,0,0,1-2.982-7.343,22.155,22.155,0,0,1-1.166-6.469,27.04,27.04,0,1,1,54.08,0,19.982,19.982,0,0,1-.753,5.047,43.5,43.5,0,0,1-1.983,5.645,1.342,1.342,0,0,1-1.958.609l-.057-.037-.027-.018-.005,0a13.918,13.918,0,0,0-7.46-2.171,13.953,13.953,0,0,0-11.808,6.49c-.924,1.457-1.6,3.938-2,7.374a80.581,80.581,0,0,0-.416,10.322c.1,6.843.756,12.892.763,12.953a1.342,1.342,0,0,1-1.334,1.488Zm0-72.054a24.334,24.334,0,0,0-24.356,24.356c0,5.541,4.367,15.142,12.63,27.765,3.753,5.733,7.533,10.892,10,14.153-.168-2.356-.336-5.4-.383-8.621a83.217,83.217,0,0,1,.434-10.674c.457-3.893,1.241-6.673,2.4-8.5a16.643,16.643,0,0,1,21.685-5.888,21.163,21.163,0,0,0,.039-17.716,24.334,24.334,0,0,0-22.442-14.875Z" transform="translate(7793.216 -6650.195)"/>
      <path id="Trazado_130470" data-name="Trazado 130470" d="M161.206,43.567V32.829l-39.836,6.509-16-16.837L91.9,36.669l-42.374-3.84V43.567L77.447,57.7l-.816,2.47-5.775,6.746V77.652l34.511-9.421,34.511,9.421V66.914l-5.207-5.025-1.384-4.19Z" transform="translate(7818.062 -6603.341)" fill="#d19817"/>
      <path id="Trazado_130471" data-name="Trazado 130471" d="M104.209,20a1.342,1.342,0,0,1,.973.417L120.7,36.742l39.135-6.395a1.342,1.342,0,0,1,1.559,1.325V42.409a1.342,1.342,0,0,1-.736,1.2l-26.889,13.61L134.683,60l4.969,4.8a1.342,1.342,0,0,1,.41.966V76.495a1.342,1.342,0,0,1-1.7,1.295l-34.157-9.325L70.052,77.789a1.342,1.342,0,0,1-1.7-1.295V65.756a1.342,1.342,0,0,1,.323-.873l5.6-6.545.371-1.122-26.89-13.61a1.342,1.342,0,0,1-.736-1.2V31.671a1.342,1.342,0,0,1,1.463-1.337l41.727,3.781,13.019-13.7A1.342,1.342,0,0,1,104.209,20Zm16,19.522a1.342,1.342,0,0,1-.973-.418L104.209,23.292,91.716,36.436a1.342,1.342,0,0,1-1.094.412L49.711,33.141v8.443L76.9,55.343a1.342,1.342,0,0,1,.668,1.618l-.816,2.47a1.342,1.342,0,0,1-.255.452l-5.452,6.369v8.485l32.815-8.958a1.342,1.342,0,0,1,.707,0l32.815,8.958V66.326l-4.8-4.63a1.342,1.342,0,0,1-.342-.545l-1.384-4.19a1.342,1.342,0,0,1,.668-1.618l27.184-13.759V33.251l-38.277,6.255A1.343,1.343,0,0,1,120.213,39.523Z" transform="translate(7819.22 -6602.183)"/>
      <path id="Trazado_130472" data-name="Trazado 130472" d="M105.367,2.5l17.256,18.154,38.584,2.911L133.287,37.7l6.591,19.954L105.367,48.23,70.857,57.651,77.448,37.7,49.528,23.565l38.584-2.911Z" transform="translate(7818.062 -6594.077)" fill="#fee734"/>
      <path id="Trazado_130473" data-name="Trazado 130473" d="M104.209,0a1.342,1.342,0,0,1,.973.417l16.9,17.78,38.068,2.872a1.342,1.342,0,0,1,.505,2.536l-26.889,13.61,6.229,18.857a1.342,1.342,0,0,1-1.628,1.716l-34.157-9.325L70.052,57.788a1.342,1.342,0,0,1-1.628-1.716l6.229-18.857L47.764,23.605a1.342,1.342,0,0,1,.505-2.536L86.337,18.2l16.9-17.78A1.342,1.342,0,0,1,104.209,0Zm50.939,23.384-33.784-2.549a1.342,1.342,0,0,1-.872-.414L104.209,3.29,87.926,20.421a1.342,1.342,0,0,1-.872.414L53.27,23.384,76.9,35.342a1.342,1.342,0,0,1,.668,1.618L71.757,54.54l32.1-8.763a1.342,1.342,0,0,1,.707,0l32.1,8.763-5.807-17.58a1.342,1.342,0,0,1,.668-1.618Z" transform="translate(7819.219 -6592.919)"/>
      <line id="Línea_235" data-name="Línea 235" y2="34.448" transform="translate(7867.589 -6554.266)" fill="#fff"/>
      <path id="Línea_236" data-name="Línea 236" d="M-1.158,34.633A1.342,1.342,0,0,1-2.5,33.291V-1.158A1.342,1.342,0,0,1-1.158-2.5,1.342,1.342,0,0,1,.184-1.158V33.291A1.342,1.342,0,0,1-1.158,34.633Z" transform="translate(7868.747 -6553.108)"/>
      <line id="Línea_237" data-name="Línea 237" y2="40.499" transform="translate(7878.327 -6536.426)" fill="#fff"/>
      <path id="Línea_238" data-name="Línea 238" d="M-1.158,40.683A1.342,1.342,0,0,1-2.5,39.341v-40.5A1.342,1.342,0,0,1-1.158-2.5,1.342,1.342,0,0,1,.184-1.158v40.5A1.342,1.342,0,0,1-1.158,40.683Z" transform="translate(7879.485 -6535.269)"/>
      <line id="Línea_239" data-name="Línea 239" y2="13.063" transform="translate(7968.531 -6543.528)" fill="#fff"/>
      <path id="Línea_240" data-name="Línea 240" d="M-1.158,13.247A1.342,1.342,0,0,1-2.5,11.9V-1.158A1.342,1.342,0,0,1-1.158-2.5,1.342,1.342,0,0,1,.184-1.158V11.9A1.342,1.342,0,0,1-1.158,13.247Z" transform="translate(7969.688 -6542.371)"/>
      <line id="Línea_243" data-name="Línea 243" y2="26.125" transform="translate(7968.531 -6522.053)" fill="#fff"/>
      <path id="Línea_244" data-name="Línea 244" d="M-1.158,26.309A1.342,1.342,0,0,1-2.5,24.967V-1.158A1.342,1.342,0,0,1-1.158-2.5,1.342,1.342,0,0,1,.184-1.158V24.967A1.342,1.342,0,0,1-1.158,26.309Z" transform="translate(7969.688 -6520.895)"/>
      <line id="Línea_245" data-name="Línea 245" y2="10.916" transform="translate(7889.064 -6517.581)" fill="#fff"/>
      <path id="Línea_246" data-name="Línea 246" d="M-1.158,11.1A1.342,1.342,0,0,1-2.5,9.758V-1.158A1.342,1.342,0,0,1-1.158-2.5,1.342,1.342,0,0,1,.184-1.158V9.758A1.342,1.342,0,0,1-1.158,11.1Z" transform="translate(7890.223 -6516.423)"/>
      <line id="Línea_247" data-name="Línea 247" y2="24.695" transform="translate(7957.793 -6506.665)" fill="#fff"/>
      <path id="Línea_248" data-name="Línea 248" d="M-1.158,24.88A1.342,1.342,0,0,1-2.5,23.537v-24.7A1.342,1.342,0,0,1-1.158-2.5,1.342,1.342,0,0,1,.184-1.158v24.7A1.342,1.342,0,0,1-1.158,24.88Z" transform="translate(7958.951 -6505.507)"/>
      <path id="Trazado_130474" data-name="Trazado 130474" d="M122.208,152.048a1.342,1.342,0,0,1-1.342-1.342,40.19,40.19,0,0,1,1.318-10.348,30.908,30.908,0,0,1,3.633-8.538,19.525,19.525,0,0,1,5.536-5.906,12.513,12.513,0,0,1,7.053-2.247,11.994,11.994,0,0,1,4.449.865,14.617,14.617,0,0,1,3.964,2.4,19.925,19.925,0,0,1,3.355,3.661,26.87,26.87,0,0,1,2.671,4.692,1.342,1.342,0,1,1-2.45,1.1,20.579,20.579,0,0,0-5.3-7.392,11.943,11.943,0,0,0-3.233-1.968,9.322,9.322,0,0,0-3.457-.675,9.879,9.879,0,0,0-5.557,1.792,16.875,16.875,0,0,0-4.761,5.108,28.235,28.235,0,0,0-3.31,7.8,37.507,37.507,0,0,0-1.228,9.657A1.342,1.342,0,0,1,122.208,152.048Z" transform="translate(7785.021 -6650.195)"/>
    </g>
  </g>
</svg>
