<svg xmlns="http://www.w3.org/2000/svg" width="190" height="190" viewBox="0 0 190 190">
  <g id="_106" data-name="106" transform="translate(-7822 6395)">
    <g id="Grupo_157616" data-name="Grupo 157616">
      <rect id="Rectángulo_37347" data-name="Rectángulo 37347" width="190" height="190" transform="translate(7822 -6395)" fill="#c9f0ee"/>
      <path id="Trazado_130989" data-name="Trazado 130989" d="M7.418,12.18,10,3.625h2.609L8.645,15H6.2L2.254,3.625h2.6ZM18.066,15a2.507,2.507,0,0,1-.227-.758,2.732,2.732,0,0,1-2.133.914,3,3,0,0,1-2.059-.719,2.312,2.312,0,0,1-.816-1.812,2.389,2.389,0,0,1,1-2.062,4.915,4.915,0,0,1,2.879-.727h1.039V9.352a1.393,1.393,0,0,0-.3-.937,1.183,1.183,0,0,0-.949-.352,1.345,1.345,0,0,0-.895.273.929.929,0,0,0-.324.75H13.02a2.268,2.268,0,0,1,.453-1.359,3,3,0,0,1,1.281-.98,4.669,4.669,0,0,1,1.859-.355,3.689,3.689,0,0,1,2.48.785,2.747,2.747,0,0,1,.918,2.207v3.664a4.041,4.041,0,0,0,.336,1.82V15ZM16.2,13.43a1.945,1.945,0,0,0,.922-.223,1.462,1.462,0,0,0,.625-.6V11.156H16.9q-1.7,0-1.8,1.172l-.008.133a.9.9,0,0,0,.3.7A1.153,1.153,0,0,0,16.2,13.43Zm9.063-.094a1.481,1.481,0,0,0,1.016-.344,1.2,1.2,0,0,0,.406-.914H28.8a2.9,2.9,0,0,1-.469,1.574,3.093,3.093,0,0,1-1.262,1.109,3.949,3.949,0,0,1-1.77.395A3.67,3.67,0,0,1,22.441,14a4.56,4.56,0,0,1-1.047-3.184v-.148a4.508,4.508,0,0,1,1.039-3.117,3.627,3.627,0,0,1,2.852-1.164,3.555,3.555,0,0,1,2.543.9A3.2,3.2,0,0,1,28.8,9.7H26.684a1.551,1.551,0,0,0-.406-1.072,1.51,1.51,0,0,0-2.223.163,3.333,3.333,0,0,0-.4,1.866v.235a3.375,3.375,0,0,0,.4,1.878A1.377,1.377,0,0,0,25.262,13.336ZM34.988,15a2.507,2.507,0,0,1-.227-.758,2.732,2.732,0,0,1-2.133.914,3,3,0,0,1-2.059-.719,2.312,2.312,0,0,1-.816-1.812,2.389,2.389,0,0,1,1-2.062,4.915,4.915,0,0,1,2.879-.727h1.039V9.352a1.393,1.393,0,0,0-.3-.937,1.183,1.183,0,0,0-.949-.352,1.345,1.345,0,0,0-.895.273.929.929,0,0,0-.324.75H29.941a2.268,2.268,0,0,1,.453-1.359,3,3,0,0,1,1.281-.98,4.669,4.669,0,0,1,1.859-.355,3.689,3.689,0,0,1,2.48.785,2.747,2.747,0,0,1,.918,2.207v3.664a4.041,4.041,0,0,0,.336,1.82V15Zm-1.867-1.57a1.945,1.945,0,0,0,.922-.223,1.462,1.462,0,0,0,.625-.6V11.156h-.844q-1.7,0-1.8,1.172l-.008.133a.9.9,0,0,0,.3.7A1.153,1.153,0,0,0,33.121,13.43ZM45.035,15H42.77V3h2.266Zm5.75.156a4.15,4.15,0,0,1-3.027-1.141,4.054,4.054,0,0,1-1.168-3.039v-.219a5.106,5.106,0,0,1,.492-2.277,3.612,3.612,0,0,1,1.395-1.547,3.914,3.914,0,0,1,2.059-.543,3.508,3.508,0,0,1,2.73,1.094,4.444,4.444,0,0,1,1,3.1v.922H48.879a2.1,2.1,0,0,0,.66,1.328,2,2,0,0,0,1.395.5,2.437,2.437,0,0,0,2.039-.945l1.109,1.242a3.389,3.389,0,0,1-1.375,1.121A4.511,4.511,0,0,1,50.785,15.156Zm-.258-6.945a1.411,1.411,0,0,0-1.09.455,2.357,2.357,0,0,0-.535,1.3h3.141V9.788a1.681,1.681,0,0,0-.406-1.165A1.456,1.456,0,0,0,50.527,8.211Zm8.531,5.125a1.481,1.481,0,0,0,1.016-.344,1.2,1.2,0,0,0,.406-.914H62.6a2.9,2.9,0,0,1-.469,1.574,3.093,3.093,0,0,1-1.262,1.109,3.949,3.949,0,0,1-1.77.395A3.67,3.67,0,0,1,56.238,14a4.56,4.56,0,0,1-1.047-3.184v-.148A4.508,4.508,0,0,1,56.23,7.555a3.627,3.627,0,0,1,2.852-1.164,3.555,3.555,0,0,1,2.543.9A3.2,3.2,0,0,1,62.6,9.7H60.48a1.551,1.551,0,0,0-.406-1.072,1.51,1.51,0,0,0-2.223.163,3.333,3.333,0,0,0-.4,1.866v.235a3.375,3.375,0,0,0,.4,1.878A1.377,1.377,0,0,0,59.059,13.336ZM66.09,7.469a2.818,2.818,0,0,1,2.258-1.078q2.75,0,2.789,3.2V15H68.879V9.636a1.577,1.577,0,0,0-.312-1.077,1.338,1.338,0,0,0-1.039-.348,1.536,1.536,0,0,0-1.437.767V15H63.832V3H66.09ZM76.73,15.156A4.15,4.15,0,0,1,73.7,14.016a4.054,4.054,0,0,1-1.168-3.039v-.219a5.106,5.106,0,0,1,.492-2.277,3.612,3.612,0,0,1,1.395-1.547,3.914,3.914,0,0,1,2.059-.543,3.508,3.508,0,0,1,2.73,1.094,4.444,4.444,0,0,1,1,3.1v.922H74.824a2.1,2.1,0,0,0,.66,1.328,2,2,0,0,0,1.395.5,2.437,2.437,0,0,0,2.039-.945l1.109,1.242a3.389,3.389,0,0,1-1.375,1.121A4.511,4.511,0,0,1,76.73,15.156Zm-.258-6.945a1.411,1.411,0,0,0-1.09.455,2.357,2.357,0,0,0-.535,1.3h3.141V9.788a1.681,1.681,0,0,0-.406-1.165A1.456,1.456,0,0,0,76.473,8.211Zm9.766.453a6.134,6.134,0,0,0-.812-.062,1.654,1.654,0,0,0-1.68.867V15H81.488V6.547h2.133l.063,1.008a2.092,2.092,0,0,1,1.883-1.164,2.366,2.366,0,0,1,.7.1ZM91.988,15a2.507,2.507,0,0,1-.227-.758,2.732,2.732,0,0,1-2.133.914,3,3,0,0,1-2.059-.719,2.312,2.312,0,0,1-.816-1.812,2.389,2.389,0,0,1,1-2.062,4.915,4.915,0,0,1,2.879-.727h1.039V9.352a1.393,1.393,0,0,0-.3-.937,1.183,1.183,0,0,0-.949-.352,1.345,1.345,0,0,0-.895.273.929.929,0,0,0-.324.75H86.941a2.268,2.268,0,0,1,.453-1.359,3,3,0,0,1,1.281-.98,4.669,4.669,0,0,1,1.859-.355,3.689,3.689,0,0,1,2.48.785,2.747,2.747,0,0,1,.918,2.207v3.664a4.041,4.041,0,0,0,.336,1.82V15Zm-1.867-1.57a1.945,1.945,0,0,0,.922-.223,1.462,1.462,0,0,0,.625-.6V11.156h-.844q-1.7,0-1.8,1.172l-.008.133a.9.9,0,0,0,.3.7A1.153,1.153,0,0,0,90.121,13.43Z" transform="translate(7869 -6243)" fill="#12263f"/>
      <path id="Trazado_130475" data-name="Trazado 130475" d="M127.808,599.514H2.5l35.255-23.195H163.062Z" transform="translate(7839.842 -6859.838)" fill="#328e36"/>
      <path id="Trazado_130476" data-name="Trazado 130476" d="M126.65,599.7H1.342A1.342,1.342,0,0,1,.6,597.235L35.859,574.04a1.342,1.342,0,0,1,.738-.221H161.9a1.342,1.342,0,0,1,.738,2.463l-35.255,23.195A1.343,1.343,0,0,1,126.65,599.7ZM5.823,597.014H126.248L157.423,576.5H37Z" transform="translate(7841 -6858.681)"/>
      <path id="Trazado_130477" data-name="Trazado 130477" d="M127.808,590.323H2.5l35.255-23.195H163.062Z" transform="translate(7839.842 -6855.582)" fill="#328e36"/>
      <path id="Trazado_130478" data-name="Trazado 130478" d="M126.65,590.507H1.342A1.342,1.342,0,0,1,.6,588.044l35.255-23.195a1.342,1.342,0,0,1,.738-.221H161.9a1.342,1.342,0,0,1,.738,2.463l-35.255,23.195A1.342,1.342,0,0,1,126.65,590.507ZM5.823,587.823H126.248l31.175-20.51H37Z" transform="translate(7841 -6854.424)"/>
      <path id="Trazado_130479" data-name="Trazado 130479" d="M127.808,581.132H2.5l35.255-23.195H163.062Z" transform="translate(7839.842 -6851.325)" fill="#328e36"/>
      <path id="Trazado_130480" data-name="Trazado 130480" d="M126.65,581.316H1.342A1.342,1.342,0,0,1,.6,578.852l35.255-23.195a1.342,1.342,0,0,1,.738-.221H161.9a1.342,1.342,0,0,1,.738,2.463l-35.255,23.195A1.342,1.342,0,0,1,126.65,581.316ZM5.823,578.632H126.248l31.175-20.51H37Z" transform="translate(7841 -6850.167)"/>
      <path id="Trazado_130481" data-name="Trazado 130481" d="M227.97,587.183h0l-11.39,7.494H194.172c6.291-4.139,21.423-7.494,33.8-7.494" transform="translate(7751.07 -6864.87)" fill="#53d335"/>
      <path id="Trazado_130482" data-name="Trazado 130482" d="M226.812,584.683a1.342,1.342,0,0,1,.738,2.463l-11.39,7.494a1.342,1.342,0,0,1-.738.221H193.014a1.342,1.342,0,0,1-.738-2.463c3.176-2.089,8.526-4.038,15.064-5.488A92.886,92.886,0,0,1,226.812,584.683Zm-11.792,7.494,7.08-4.658a93.386,93.386,0,0,0-14.178,2.011,68.577,68.577,0,0,0-8.26,2.335q-.431.155-.843.312Z" transform="translate(7752.229 -6863.712)"/>
      <path id="Trazado_130483" data-name="Trazado 130483" d="M13.89,587.183h0L2.5,594.677H24.908c6.29-4.139,1.358-7.494-11.017-7.494" transform="translate(7839.842 -6864.87)" fill="#53d335"/>
      <path id="Trazado_130484" data-name="Trazado 130484" d="M12.733,584.683a40.013,40.013,0,0,1,9.992,1.039c2.829.768,4.5,1.953,4.972,3.523a3.422,3.422,0,0,1-.562,2.968,9.157,9.157,0,0,1-2.647,2.428,1.342,1.342,0,0,1-.738.221H1.342A1.342,1.342,0,0,1,.6,592.4l11.39-7.494A1.342,1.342,0,0,1,12.733,584.683Zm10.6,7.494a6,6,0,0,0,1.567-1.458.91.91,0,0,0,.221-.7c-.129-.432-1.02-1.136-3.1-1.7a36.56,36.56,0,0,0-8.888-.944l-7.309,4.808Z" transform="translate(7841 -6863.712)"/>
      <path id="Trazado_130485" data-name="Trazado 130485" d="M46.952,565.431h0l11.39-7.494H80.75c-6.291,4.139-21.423,7.494-33.8,7.494" transform="translate(7819.254 -6851.325)" fill="#53d335"/>
      <path id="Trazado_130486" data-name="Trazado 130486" d="M45.794,565.615a1.342,1.342,0,0,1-.738-2.463l11.39-7.494a1.342,1.342,0,0,1,.738-.221H79.592a1.342,1.342,0,0,1,.738,2.463c-3.176,2.089-8.526,4.038-15.064,5.488A92.883,92.883,0,0,1,45.794,565.615Zm11.792-7.494-7.08,4.658a93.387,93.387,0,0,0,14.178-2.012,68.556,68.556,0,0,0,8.26-2.335q.431-.155.843-.312Z" transform="translate(7820.413 -6850.167)"/>
      <path id="Trazado_130487" data-name="Trazado 130487" d="M268.5,565.431h0l11.39-7.494H257.481c-6.29,4.139-1.358,7.494,11.017,7.494" transform="translate(7723.015 -6851.325)" fill="#53d335"/>
      <path id="Trazado_130488" data-name="Trazado 130488" d="M267.341,565.615a40.016,40.016,0,0,1-9.992-1.039c-2.829-.768-4.5-1.953-4.972-3.523a3.422,3.422,0,0,1,.562-2.968,9.156,9.156,0,0,1,2.647-2.428,1.342,1.342,0,0,1,.738-.221h22.408a1.342,1.342,0,0,1,.738,2.463l-11.39,7.494A1.343,1.343,0,0,1,267.341,565.615Zm-10.6-7.494a5.993,5.993,0,0,0-1.567,1.458.909.909,0,0,0-.221.7c.129.432,1.02,1.136,3.1,1.7a36.563,36.563,0,0,0,8.888.944l7.309-4.808Z" transform="translate(7724.173 -6850.167)"/>
      <path id="Trazado_130489" data-name="Trazado 130489" d="M121.6,580.559l-10.916-7.425,33.487-7.425,10.916,7.425Z" transform="translate(7789.737 -6854.924)" fill="#53d335"/>
      <path id="Trazado_130490" data-name="Trazado 130490" d="M120.443,580.743a1.342,1.342,0,0,1-.755-.232l-10.916-7.425a1.342,1.342,0,0,1,.464-2.42l33.487-7.425a1.343,1.343,0,0,1,1.045.2l10.916,7.425a1.342,1.342,0,0,1-.464,2.42l-33.487,7.425A1.34,1.34,0,0,1,120.443,580.743Zm-7.592-8.13,7.868,5.352,29.888-6.627-7.868-5.352Z" transform="translate(7790.895 -6853.766)"/>
      <path id="Trazado_130491" data-name="Trazado 130491" d="M102.057,574.028H92.341v-6.389h8.153Z" transform="translate(7798.233 -6855.818)" fill="#9f5213"/>
      <path id="Trazado_130492" data-name="Trazado 130492" d="M100.9,574.212H91.183a1.342,1.342,0,0,1-1.342-1.342v-6.389a1.342,1.342,0,0,1,1.342-1.342h8.153a1.342,1.342,0,0,1,1.3,1.023l1.563,6.389a1.342,1.342,0,0,1-1.3,1.661Zm-8.374-2.684h6.664l-.906-3.7H92.525Z" transform="translate(7799.391 -6854.66)"/>
      <path id="Trazado_130493" data-name="Trazado 130493" d="M100.494,480.759v-3.792h18.9a3.349,3.349,0,0,1,3.349,3.349V491.2a11.89,11.89,0,0,1-11.89,11.889h-2.21a8.153,8.153,0,0,0-8.153,8.153v14.4H92.341V488.913a8.153,8.153,0,0,0,8.153-8.153" transform="translate(7798.233 -6813.824)" fill="#fff"/>
      <path id="Trazado_130494" data-name="Trazado 130494" d="M99.336,474.467h18.9a4.7,4.7,0,0,1,4.692,4.691v10.885A13.222,13.222,0,0,1,109.7,503.275h-2.21a6.811,6.811,0,0,0-6.811,6.811v14.4a1.342,1.342,0,0,1-1.342,1.342H91.183a1.342,1.342,0,0,1-1.342-1.342V487.755a1.342,1.342,0,0,1,1.342-1.342,6.811,6.811,0,0,0,6.811-6.811v-3.792A1.342,1.342,0,0,1,99.336,474.467ZM109.7,500.59a10.547,10.547,0,0,0,10.548-10.547V479.158a2.009,2.009,0,0,0-2.007-2.007H100.679v2.45a9.492,9.492,0,0,1-8.153,9.4v34.142h5.469V510.086a9.489,9.489,0,0,1,9.5-9.5Z" transform="translate(7799.391 -6812.666)"/>
      <path id="Trazado_130495" data-name="Trazado 130495" d="M123.963,535.606a2.657,2.657,0,0,1-2.654-2.654v-1.471q-.431.03-.862.03t-.862-.03v1.471a2.654,2.654,0,0,1-5.308,0v-3.106a12.263,12.263,0,1,1,12.339,0v3.106a2.657,2.657,0,0,1-2.654,2.654" transform="translate(7790.895 -6827.727)" fill="#efaaaa"/>
      <path id="Trazado_130496" data-name="Trazado 130496" d="M119.29,507.17a10.921,10.921,0,0,1,4.828,20.717v3.908a1.312,1.312,0,0,1-2.624,0v-3.006a11.017,11.017,0,0,1-4.409,0v3.006a1.312,1.312,0,0,1-2.624,0v-3.908a10.921,10.921,0,0,1,4.828-20.717m0-2.684a13.607,13.607,0,0,0-7.512,24.95v2.358a4,4,0,0,0,7.512,1.9,4,4,0,0,0,7.512-1.9v-2.358a13.607,13.607,0,0,0-7.512-24.95" transform="translate(7792.053 -6826.569)"/>
      <path id="Trazado_130497" data-name="Trazado 130497" d="M194.2,531.929h8.153V494.613a4.077,4.077,0,1,0-8.153,0Z" transform="translate(7751.057 -6820.108)" fill="#fff"/>
      <path id="Trazado_130498" data-name="Trazado 130498" d="M201.2,532.113h-8.153a1.342,1.342,0,0,1-1.342-1.342V493.455a5.419,5.419,0,1,1,10.838,0v37.316A1.342,1.342,0,0,1,201.2,532.113Zm-6.811-2.684h5.469V493.455a2.734,2.734,0,1,0-5.469,0Z" transform="translate(7752.215 -6818.951)"/>
      <path id="Trazado_130499" data-name="Trazado 130499" d="M203.916,574.028H194.2v-6.389h8.153Z" transform="translate(7751.057 -6855.818)" fill="#9f5213"/>
      <path id="Trazado_130500" data-name="Trazado 130500" d="M202.758,574.212h-9.716a1.342,1.342,0,0,1-1.342-1.342v-6.389a1.342,1.342,0,0,1,1.342-1.342H201.2a1.342,1.342,0,0,1,1.3,1.023l1.563,6.389a1.342,1.342,0,0,1-1.3,1.661Zm-8.374-2.684h6.664l-.906-3.7h-5.758Z" transform="translate(7752.215 -6854.66)"/>
      <path id="Trazado_130501" data-name="Trazado 130501" d="M96.5,495.595h58.49a10.6,10.6,0,0,0,10.6-10.6V455.913H104a7.5,7.5,0,0,0-7.5,7.5Z" transform="translate(7796.307 -6804.073)" fill="#fff"/>
      <path id="Trazado_130502" data-name="Trazado 130502" d="M153.833,495.779H95.342A1.342,1.342,0,0,1,94,494.437V462.26a8.841,8.841,0,0,1,8.847-8.847h61.582a1.342,1.342,0,0,1,1.342,1.342V483.84a11.93,11.93,0,0,1-11.939,11.939Zm-57.148-2.684h57.148a9.254,9.254,0,0,0,9.254-9.254V456.1h-60.24a6.163,6.163,0,0,0-6.163,6.163Z" transform="translate(7797.464 -6802.915)"/>
      <path id="Trazado_130503" data-name="Trazado 130503" d="M255.1,452.951c-.581,2.577-4.4,3.91-8.54,2.978s-7.018-3.777-6.438-6.354,4.4-3.91,8.541-2.978,7.018,3.777,6.437,6.354" transform="translate(7729.822 -6799.621)"/>
      <path id="Trazado_130504" data-name="Trazado 130504" d="M248.014,456.411a13.247,13.247,0,0,1-2.905-.33,11.744,11.744,0,0,1-5.636-2.914,6.738,6.738,0,0,1-1.577-2.309,4.6,4.6,0,0,1-.24-2.735,4.505,4.505,0,0,1,.979-1.937,5.842,5.842,0,0,1,1.693-1.343A9.645,9.645,0,0,1,244.9,443.8a13.245,13.245,0,0,1,2.9.33,11.747,11.747,0,0,1,5.635,2.914,6.738,6.738,0,0,1,1.577,2.309,4.6,4.6,0,0,1,.239,2.735,4.506,4.506,0,0,1-.979,1.937,5.841,5.841,0,0,1-1.693,1.344A9.644,9.644,0,0,1,248.014,456.411Zm-3.117-9.926a7.079,7.079,0,0,0-3.292.719,2.477,2.477,0,0,0-1.33,1.509,2.759,2.759,0,0,0,1.084,2.543,9.172,9.172,0,0,0,4.34,2.206,10.556,10.556,0,0,0,2.315.264,7.078,7.078,0,0,0,3.291-.719,2.477,2.477,0,0,0,1.33-1.509,2.758,2.758,0,0,0-1.083-2.543,9.175,9.175,0,0,0-4.34-2.206A10.558,10.558,0,0,0,244.9,446.485Z" transform="translate(7730.981 -6798.463)"/>
      <path id="Trazado_130505" data-name="Trazado 130505" d="M182.224,452.951c.581,2.577,4.4,3.91,8.54,2.978s7.018-3.777,6.438-6.354-4.4-3.91-8.541-2.978-7.018,3.777-6.437,6.354" transform="translate(7756.639 -6799.621)"/>
      <path id="Trazado_130506" data-name="Trazado 130506" d="M187,456.411h0a9.645,9.645,0,0,1-4.568-1.042,5.841,5.841,0,0,1-1.693-1.343,4.505,4.505,0,0,1-.979-1.937,4.6,4.6,0,0,1,.239-2.735,6.737,6.737,0,0,1,1.577-2.309,11.747,11.747,0,0,1,5.635-2.914,13.244,13.244,0,0,1,2.9-.33,9.646,9.646,0,0,1,4.569,1.042,5.842,5.842,0,0,1,1.693,1.343,4.505,4.505,0,0,1,.979,1.937,4.6,4.6,0,0,1-.24,2.735,6.739,6.739,0,0,1-1.577,2.309,11.744,11.744,0,0,1-5.636,2.914A13.245,13.245,0,0,1,187,456.411Zm3.117-9.926a10.558,10.558,0,0,0-2.315.264,9.176,9.176,0,0,0-4.34,2.206,2.758,2.758,0,0,0-1.083,2.543,2.477,2.477,0,0,0,1.33,1.509,7.078,7.078,0,0,0,3.291.719h0a10.555,10.555,0,0,0,2.315-.264,9.172,9.172,0,0,0,4.34-2.206,2.759,2.759,0,0,0,1.084-2.544,2.477,2.477,0,0,0-1.33-1.509A7.079,7.079,0,0,0,190.112,446.485Z" transform="translate(7757.797 -6798.463)"/>
      <path id="Trazado_130507" data-name="Trazado 130507" d="M183.173,508.559V541.12h8.153V503.8a4.077,4.077,0,0,0-4.077-4.077" transform="translate(7756.165 -6824.365)" fill="#fff"/>
      <path id="Trazado_130508" data-name="Trazado 130508" d="M190.168,541.3h-8.153a1.342,1.342,0,0,1-1.342-1.342V507.4a1.342,1.342,0,1,1,2.684,0V538.62h5.469V502.646a2.738,2.738,0,0,0-2.735-2.735,1.342,1.342,0,1,1,0-2.684,5.425,5.425,0,0,1,5.419,5.419v37.316A1.342,1.342,0,0,1,190.168,541.3Z" transform="translate(7757.322 -6823.208)"/>
      <path id="Trazado_130509" data-name="Trazado 130509" d="M192.889,583.219h-9.716V576.83h8.153Z" transform="translate(7756.165 -6860.075)" fill="#9f5213"/>
      <path id="Trazado_130510" data-name="Trazado 130510" d="M191.731,583.4h-9.716a1.342,1.342,0,0,1-1.342-1.342v-6.389a1.342,1.342,0,0,1,1.342-1.342h8.153a1.342,1.342,0,0,1,1.3,1.023l1.563,6.389a1.342,1.342,0,0,1-1.3,1.661Zm-8.374-2.684h6.664l-.906-3.7h-5.758Z" transform="translate(7757.322 -6858.917)"/>
      <path id="Trazado_130511" data-name="Trazado 130511" d="M246.724,421.239l-.013-.025a.566.566,0,0,0-1.068.286,12.953,12.953,0,0,1-7.1,12.281c-.426.215-.223,1.477.453,2.818s1.571,2.254,2,2.039a12.952,12.952,0,0,0,5.73-17.4" transform="translate(7730.623 -6787.86)" fill="#9f5213"/>
      <path id="Trazado_130512" data-name="Trazado 130512" d="M245.059,418.407h0a1.888,1.888,0,0,1,1.688,1.038l.013.025,0,.006a14.284,14.284,0,0,1-6.324,19.2,1.634,1.634,0,0,1-.743.175,2.565,2.565,0,0,1-1.87-1.025,8.237,8.237,0,0,1-1.187-1.783,7.975,7.975,0,0,1-.767-2.223,3.25,3.25,0,0,1-.013-1.094,1.741,1.741,0,0,1,.92-1.3,11.611,11.611,0,0,0,6.364-11.009,1.876,1.876,0,0,1,.511-1.407A1.94,1.94,0,0,1,245.059,418.407Zm-5.278,17.578a11.627,11.627,0,0,0,5.808-10.855q-.031-.457-.1-.908a14.293,14.293,0,0,1-6.944,9.3,5.716,5.716,0,0,0,.489,1.312A5.794,5.794,0,0,0,239.781,435.985Z" transform="translate(7731.781 -6786.702)"/>
      <path id="Trazado_130513" data-name="Trazado 130513" d="M195.2,421.239l.013-.025a.566.566,0,0,1,1.068.286,12.953,12.953,0,0,0,7.1,12.281c.426.215.223,1.477-.453,2.818s-1.571,2.254-2,2.039a12.952,12.952,0,0,1-5.73-17.4" transform="translate(7751.237 -6787.86)" fill="#9f5213"/>
      <path id="Trazado_130514" data-name="Trazado 130514" d="M194.552,418.407a1.94,1.94,0,0,1,1.4.6,1.876,1.876,0,0,1,.51,1.408,11.611,11.611,0,0,0,6.364,11.008,1.741,1.741,0,0,1,.921,1.3,3.25,3.25,0,0,1-.013,1.094,7.972,7.972,0,0,1-.767,2.223,8.238,8.238,0,0,1-1.187,1.783,2.565,2.565,0,0,1-1.87,1.025,1.635,1.635,0,0,1-.744-.176,14.284,14.284,0,0,1-6.323-19.2l0-.006.013-.025A1.888,1.888,0,0,1,194.552,418.407Zm6.512,15.117a14.293,14.293,0,0,1-6.944-9.3q-.066.451-.1.908a11.6,11.6,0,0,0,5.808,10.855,5.794,5.794,0,0,0,.744-1.15A5.712,5.712,0,0,0,201.063,433.524Z" transform="translate(7752.395 -6786.702)"/>
      <path id="Trazado_130515" data-name="Trazado 130515" d="M199.59,449.179c0,8.779,6.153,22.468,13.743,22.468s13.743-13.689,13.743-22.468-6.153-8.976-13.743-8.976-13.743.2-13.743,8.976" transform="translate(7748.561 -6796.797)" fill="#fff"/>
      <path id="Trazado_130516" data-name="Trazado 130516" d="M212.175,437.7c1.917,0,3.779.013,5.476.174a14.585,14.585,0,0,1,4.8,1.145c3.234,1.491,4.805,4.435,4.805,9a33.706,33.706,0,0,1-4.191,15.173,21.777,21.777,0,0,1-4.667,6.034,8.75,8.75,0,0,1-12.454,0,21.777,21.777,0,0,1-4.667-6.034,33.705,33.705,0,0,1-4.191-15.173c0-4.564,1.572-7.508,4.805-9a14.585,14.585,0,0,1,4.8-1.145C208.4,437.716,210.258,437.7,212.175,437.7Zm0,31.444a6.928,6.928,0,0,0,4.472-1.95,19.413,19.413,0,0,0,4.07-5.3,33.011,33.011,0,0,0,2.827-7.022,26.411,26.411,0,0,0,1.032-6.857,9.253,9.253,0,0,0-.911-4.455,4.9,4.9,0,0,0-2.334-2.107c-2.155-.994-5.286-1.073-9.156-1.073s-7,.079-9.156,1.073a4.9,4.9,0,0,0-2.334,2.107,9.253,9.253,0,0,0-.911,4.455,26.411,26.411,0,0,0,1.032,6.857,33.011,33.011,0,0,0,2.827,7.022,19.413,19.413,0,0,0,4.07,5.3A6.928,6.928,0,0,0,212.175,469.147Z" transform="translate(7749.719 -6795.639)"/>
      <path id="Trazado_130517" data-name="Trazado 130517" d="M205.844,481.118c0,4.319,4.65,7.82,10.385,7.82s10.385-3.5,10.385-7.82-4.649-7.82-10.385-7.82-10.385,3.5-10.385,7.82" transform="translate(7745.665 -6812.125)" fill="#efaaaa"/>
      <path id="Elipse_4898" data-name="Elipse 4898" d="M9.227-2.5A13.584,13.584,0,0,1,17.378.06a9.426,9.426,0,0,1,2.588,2.9,7.426,7.426,0,0,1,0,7.4,9.426,9.426,0,0,1-2.588,2.9,13.584,13.584,0,0,1-8.151,2.56,13.584,13.584,0,0,1-8.151-2.56,9.426,9.426,0,0,1-2.588-2.9,7.426,7.426,0,0,1,0-7.4A9.426,9.426,0,0,1,1.076.06,13.584,13.584,0,0,1,9.227-2.5Zm0,15.64a11.961,11.961,0,0,0,3.635-.551,9.685,9.685,0,0,0,2.9-1.469A5.653,5.653,0,0,0,18.27,6.662,5.653,5.653,0,0,0,15.763,2.2a9.685,9.685,0,0,0-2.9-1.469,12.261,12.261,0,0,0-7.27,0A9.685,9.685,0,0,0,2.691,2.2,5.653,5.653,0,0,0,.184,6.662a5.653,5.653,0,0,0,2.507,4.457,9.685,9.685,0,0,0,2.9,1.469A11.961,11.961,0,0,0,9.227,13.14Z" transform="translate(7952.667 -6337.668)"/>
      <path id="Trazado_130518" data-name="Trazado 130518" d="M91.029,583.219H81.313V576.83h8.153Z" transform="translate(7803.34 -6860.075)" fill="#9f5213"/>
      <path id="Trazado_130519" data-name="Trazado 130519" d="M89.871,583.4H80.155a1.342,1.342,0,0,1-1.342-1.342v-6.389a1.342,1.342,0,0,1,1.342-1.342h8.153a1.342,1.342,0,0,1,1.3,1.023l1.563,6.389a1.342,1.342,0,0,1-1.3,1.661ZM81.5,580.719h6.664l-.906-3.7H81.5Z" transform="translate(7804.498 -6858.917)"/>
      <path id="Trazado_130520" data-name="Trazado 130520" d="M111.719,489.506v10.885a11.889,11.889,0,0,1-11.89,11.89h-2.21a8.153,8.153,0,0,0-8.153,8.153v14.4H81.313V498.1a8.153,8.153,0,0,0,8.153-8.153v-3.793" transform="translate(7803.34 -6818.081)" fill="#fff"/>
      <path id="Trazado_130521" data-name="Trazado 130521" d="M88.308,535.02H80.155a1.342,1.342,0,0,1-1.342-1.342V496.945a1.342,1.342,0,0,1,1.342-1.342,6.811,6.811,0,0,0,6.811-6.811V485a1.342,1.342,0,0,1,2.684,0v3.793a9.492,9.492,0,0,1-8.153,9.4v34.142h5.469V519.276a9.488,9.488,0,0,1,9.5-9.5h2.21a10.547,10.547,0,0,0,10.548-10.548V488.349a1.342,1.342,0,1,1,2.684,0v10.885a13.222,13.222,0,0,1-13.232,13.232h-2.21a6.811,6.811,0,0,0-6.811,6.811v14.4A1.342,1.342,0,0,1,88.308,535.02Z" transform="translate(7804.498 -6816.922)"/>
      <path id="Trazado_130522" data-name="Trazado 130522" d="M69.4,489.258a1.342,1.342,0,0,1-1.342-1.342V474.552a20.98,20.98,0,0,1,21-21h.712a1.342,1.342,0,0,1,0,2.684h-.712a18.3,18.3,0,0,0-18.312,18.312v13.363A1.342,1.342,0,0,1,69.4,489.258Z" transform="translate(7809.48 -6802.981)"/>
      <path id="Trazado_130523" data-name="Trazado 130523" d="M70.9,516.078a7.716,7.716,0,0,1-2.466,5.656,7.718,7.718,0,0,1,0-11.313,7.716,7.716,0,0,1,2.466,5.656" transform="translate(7810.45 -6829.318)" fill="#fff"/>
      <path id="Trazado_130524" data-name="Trazado 130524" d="M67.271,507.922a1.338,1.338,0,0,1,.916.361,9.087,9.087,0,0,1,2.111,2.954,9.065,9.065,0,0,1,0,7.366,9.087,9.087,0,0,1-2.111,2.954,1.342,1.342,0,0,1-1.832,0,9.086,9.086,0,0,1-2.111-2.955,9.065,9.065,0,0,1,0-7.366,9.086,9.086,0,0,1,2.111-2.954A1.339,1.339,0,0,1,67.271,507.922Zm0,10.613a6.4,6.4,0,0,0,.575-1.026,6.381,6.381,0,0,0,0-5.179,6.4,6.4,0,0,0-.575-1.026,6.394,6.394,0,0,0-.575,1.026,6.38,6.38,0,0,0,0,5.179A6.4,6.4,0,0,0,67.271,518.535Z" transform="translate(7811.608 -6828.161)"/>
      <path id="Trazado_130525" data-name="Trazado 130525" d="M211.669,457.352a1.807,1.807,0,1,1-1.807-1.807,1.806,1.806,0,0,1,1.807,1.807" transform="translate(7744.64 -6803.902)"/>
      <path id="Trazado_130526" data-name="Trazado 130526" d="M239.205,457.352a1.807,1.807,0,1,1-1.807-1.807,1.806,1.806,0,0,1,1.807,1.807" transform="translate(7731.887 -6803.902)"/>
      <path id="Línea_249" data-name="Línea 249" d="M11.816.184H-1.158A1.342,1.342,0,0,1-2.5-1.158,1.342,1.342,0,0,1-1.158-2.5H11.816a1.342,1.342,0,0,1,1.342,1.342A1.342,1.342,0,0,1,11.816.184Z" transform="translate(7858.084 -6253.797)"/>
      <path id="Línea_250" data-name="Línea 250" d="M78.591.184H-1.158A1.342,1.342,0,0,1-2.5-1.158,1.342,1.342,0,0,1-1.158-2.5H78.591a1.342,1.342,0,0,1,1.342,1.342A1.342,1.342,0,0,1,78.591.184Z" transform="translate(7890.669 -6253.797)"/>
      <path id="Línea_251" data-name="Línea 251" d="M-1.157,13.076a1.341,1.341,0,0,1-1.122-.6A1.342,1.342,0,0,1-1.9,10.612L17.7-2.279a1.342,1.342,0,0,1,1.859.384,1.342,1.342,0,0,1-.384,1.859L-.42,12.855A1.336,1.336,0,0,1-1.157,13.076Z" transform="translate(7986.079 -6276.992)"/>
      <path id="Trazado_130527" data-name="Trazado 130527" d="M59.4,473.7a1.342,1.342,0,0,1-1.342-1.342,25.1,25.1,0,0,1,10.777-20.632,1.342,1.342,0,1,1,1.535,2.2,22.64,22.64,0,0,0-7,7.875,22.344,22.344,0,0,0-2.63,10.554A1.342,1.342,0,0,1,59.4,473.7Z" transform="translate(7814.112 -6802.024)"/>
      <path id="Línea_252" data-name="Línea 252" d="M1.963.184H-1.158A1.342,1.342,0,0,1-2.5-1.158,1.342,1.342,0,0,1-1.158-2.5H1.963A1.342,1.342,0,0,1,3.306-1.158,1.342,1.342,0,0,1,1.963.184Z" transform="translate(7898.458 -6352.294)"/>
    </g>
  </g>
</svg>
