<svg xmlns="http://www.w3.org/2000/svg" xmlns:xlink="http://www.w3.org/1999/xlink" width="70.604" height="70.604" viewBox="0 0 70.604 70.604">
  <defs>
    <clipPath id="clip-path">
      <rect id="Rectángulo_37506" data-name="Rectángulo 37506" width="36.24" height="37.491" fill="none"/>
    </clipPath>
  </defs>
  <g id="_12" data-name="12" transform="translate(-0.209 -0.5)">
    <path id="Trazado_127482" data-name="Trazado 127482" d="M35.3,0A35.3,35.3,0,1,1,0,35.3,35.3,35.3,0,0,1,35.3,0Z" transform="translate(0.209 0.5)" fill="#d7e4f6"/>
    <g id="Grupo_156595" data-name="Grupo 156595" transform="translate(-2.488 -0.753)">
      <path id="Trazado_127053" data-name="Trazado 127053" d="M15.791,124.4c.5.111.616-.124.611-.592-.013-1.171.007-1.192,1.219-1.185.451,0,.591-.137.582-.583-.008-.416-.084-.609-.564-.607-1.216,0-1.247-.02-1.234-1.233.006-.549-.263-.559-.67-.563s-.618.064-.618.551c0,1.229-.025,1.251-1.225,1.246-.464,0-.574.166-.575.6s.109.6.573.594c1.224-.007,1.253.016,1.226,1.175-.013.538.186.7.674.6" transform="translate(44.527 -83.657)"/>
      <path id="Trazado_127054" data-name="Trazado 127054" d="M213.8,151.163c-.448-.085-.7.063-.622.57.062.424-.085.661-.555.588s-.628.1-.631.591c0,.518.208.638.649.578.422-.057.556.127.547.546-.013.657.394.91,1.03.711.3-.094.236-.335.216-.526-.053-.52.066-.838.679-.734.475.081.5-.217.5-.581s-.015-.659-.5-.585c-.519.08-.765-.11-.678-.658.082-.524-.254-.547-.641-.5" transform="translate(-190.74 -97.489)" fill="#29c4bb"/>
      <path id="Trazado_127055" data-name="Trazado 127055" d="M207.483,69.434c-.116.5.113.67.581.592.507-.085.714.123.625.627-.087.488.124.6.6.609s.671-.14.586-.614c-.091-.505.12-.714.622-.62.52.1.566-.174.585-.612.023-.514-.176-.648-.623-.57-.486.085-.668-.116-.585-.591.079-.454-.068-.638-.574-.62-.446.016-.7.079-.609.591s-.127.7-.625.62c-.469-.079-.7.089-.58.589" transform="translate(-189.828 -50.058)"/>
      <path id="Trazado_127056" data-name="Trazado 127056" d="M51.807,186.809c-.109.466.121.637.587.553.547-.1.677.186.6.647-.087.513.161.592.611.589.43,0,.661-.1.571-.564-.119-.609.186-.759.711-.669s.513-.248.515-.617-.008-.66-.494-.564c-.654.129-.821-.185-.733-.77.085-.56-.342-.4-.627-.416-.3-.018-.638-.057-.55.429.109.6-.1.88-.738.758-.531-.1-.466.268-.45.624" transform="translate(-7.435 -129.47)"/>
      <path id="Trazado_127057" data-name="Trazado 127057" d="M125.364,17.591c.125-.532-.169-.635-.6-.571-.452.067-.63-.12-.561-.565s-.063-.648-.576-.637c-.471.01-.686.132-.6.615s-.145.657-.61.587c-.431-.064-.647.039-.649.565s.2.684.67.609c.5-.079.665.147.588.61-.086.52.193.579.63.588.467.01.62-.166.551-.595-.075-.47.1-.685.589-.6s.683-.117.577-.6" transform="translate(-79.237 -1.816)" fill="#29c4bb"/>
    </g>
    <g id="Grupo_157379" data-name="Grupo 157379" transform="translate(17.209 17.5)">
      <g id="Grupo_157379-2" data-name="Grupo 157379" clip-path="url(#clip-path)">
        <path id="Trazado_129197" data-name="Trazado 129197" d="M35.745,37.484c-3.683,0-7.365-.011-11.048.005-1.447.006-1.482-.041-1.456-1.478a7.085,7.085,0,0,1,.149-1.471,5.447,5.447,0,0,1,1.405-2.607c.532-.553,1.072-1.1,1.628-1.629A5.5,5.5,0,0,1,30.3,28.739c.872-.007,1.744-.015,2.615.006.283.007.35-.08.333-.346a4.168,4.168,0,0,0-.034-1.122c-.129-.344-.612-.362-.925-.554a5.572,5.572,0,0,1-2.71-3.948c-.041-.235-.115-.3-.341-.291a2.642,2.642,0,0,1-.852-.062A1.871,1.871,0,0,1,27,20.693c-.014-.416-.007-.833,0-1.249a1.874,1.874,0,0,1,1.934-1.951c.564-.006.564-.006.564-.569,0-.638-.007-1.275,0-1.913a.375.375,0,0,0-.22-.395,3.036,3.036,0,0,1-1.652-2.84.532.532,0,0,0-.169-.406,3.7,3.7,0,0,1,.01-5.257.535.535,0,0,0,.158-.41A3.086,3.086,0,0,1,29.936,2.61a.369.369,0,0,0,.292-.3A3.107,3.107,0,0,1,33.364,0q2.342,0,4.684,0c.608,0,.812.209.814.823,0,.429.007.859,0,1.288a.294.294,0,0,0,.2.323c.161.074.235,0,.329-.1.274-.278.547-.557.828-.828a.63.63,0,0,1,1.018-.016q1.2,1.178,2.374,2.373a.63.63,0,0,1,0,1.018c-.261.272-.531.536-.8.8-.111.11-.22.194-.124.392.083.173.2.172.344.171.455,0,.911-.006,1.366,0a.637.637,0,0,1,.715.725q.007,1.776,0,3.552a.637.637,0,0,1-.722.718c-.468.006-.937.006-1.405,0a.265.265,0,0,0-.3.181.257.257,0,0,0,.071.335c.292.278.577.564.857.855a.632.632,0,0,1-.006,1.018c-.463.475-.931.946-1.408,1.407a.621.621,0,0,0-.216.506c.015.559.016,1.119,0,1.678-.007.227.068.285.284.275a2.547,2.547,0,0,1,.813.058,1.869,1.869,0,0,1,1.4,1.758c.012.429.009.859,0,1.288A1.876,1.876,0,0,1,42.6,22.49c-.631.014-.622.016-.768.618a5.508,5.508,0,0,1-3.3,3.932c-.226.1-.32.2-.3.45.027.4-.138.943.065,1.167.231.256.781.064,1.192.08a15.853,15.853,0,0,1,2.878.132,5.6,5.6,0,0,1,2.766,1.508c.492.484.981.97,1.463,1.463a5.565,5.565,0,0,1,1.639,4c0,.286,0,.573,0,.859,0,.56-.22.781-.777.782q-2.5,0-5,0Z" transform="translate(-17.62 0.001)"/>
        <path id="Trazado_129198" data-name="Trazado 129198" d="M122.643,18.09c.39,0,.78-.006,1.17,0a.641.641,0,0,1,.7.7c.019.385-.168.9.078,1.115.214.189.717.046,1.093.056a.631.631,0,0,1,.7.7q.011,1.17,0,2.341a.64.64,0,0,1-.694.709c-.385.018-.9-.167-1.118.073-.19.207-.051.715-.061,1.089a.64.64,0,0,1-.731.709q-1.15.008-2.3,0a.638.638,0,0,1-.715-.724c0-.312-.011-.625,0-.936.008-.176-.055-.222-.222-.216-.325.012-.65.01-.975,0a.623.623,0,0,1-.678-.68q-.012-1.19,0-2.38a.622.622,0,0,1,.674-.684c.3-.009.6-.016.9,0,.228.014.333-.033.307-.291a7.492,7.492,0,0,1-.006-.78c0-.606.208-.806.827-.808.351,0,.7,0,1.053,0" transform="translate(-90.149 -13.716)"/>
        <path id="Trazado_129199" data-name="Trazado 129199" d="M0,24.406c0-.364,0-.728,0-1.092,0-.556.22-.766.787-.77.273,0,.547-.016.819,0,.231.017.284-.071.273-.284-.017-.311-.012-.624,0-.936a.613.613,0,0,1,.662-.656q1.209-.015,2.419,0a.621.621,0,0,1,.665.656c.023.4-.168.93.078,1.155.214.2.739.049,1.127.062a.615.615,0,0,1,.666.653q.016,1.209,0,2.419a.624.624,0,0,1-.686.673c-.312.008-.625.016-.936,0-.217-.014-.262.07-.253.265.014.311.01.624,0,.936a.616.616,0,0,1-.645.674q-1.229.017-2.458,0a.608.608,0,0,1-.641-.637c-.013-.325-.014-.651,0-.975.009-.2-.043-.276-.255-.262-.3.019-.6.009-.9,0A.64.64,0,0,1,0,25.576c-.006-.39,0-.78,0-1.17" transform="translate(0 -15.67)"/>
        <path id="Trazado_129200" data-name="Trazado 129200" d="M20,70.956a.62.62,0,0,1-.63-.569,1.921,1.921,0,0,1,0-.428c.025-.212-.062-.273-.261-.253a2,2,0,0,1-.428,0,.61.61,0,0,1-.56-.636.6.6,0,0,1,.556-.6c.215-.03.5.055.637-.054s.028-.413.055-.629a.624.624,0,0,1,1.244.014c.026.215-.1.5.063.626.131.1.4.021.6.04a.618.618,0,0,1,.583.617.631.631,0,0,1-.577.625c-.215.027-.5-.1-.629.058-.1.125-.027.4-.045.6a.621.621,0,0,1-.609.592" transform="translate(-13.736 -50.966)"/>
        <path id="Trazado_129201" data-name="Trazado 129201" d="M120.071,84.586a.634.634,0,0,1-.691.63c-.541.02-.541.02-.556.536-.012.431-.245.7-.611.711s-.629-.271-.639-.722a1.707,1.707,0,0,1,0-.272c.029-.206-.053-.278-.257-.256a1.95,1.95,0,0,1-.428,0,.609.609,0,0,1-.562-.633.6.6,0,0,1,.554-.6c.215-.031.5.056.638-.053s.029-.412.057-.628a.624.624,0,0,1,1.244.009c.027.215-.1.5.061.627.129.1.4.023.6.042a.618.618,0,0,1,.585.614" transform="translate(-88.211 -62.725)"/>
        <path id="Trazado_129202" data-name="Trazado 129202" d="M54.277,63.431A3.227,3.227,0,0,0,56.3,64.609a4.4,4.4,0,0,0,.621.042q2.322.005,4.644,0c.617,0,.825-.2.828-.81,0-.429.006-.859,0-1.288a.3.3,0,0,1,.19-.332c.18-.084.252.021.361.112.423.355.7.881,1.261,1.075.117.041.061.158.061.239,0,1.86.032,3.721-.012,5.58a4.335,4.335,0,0,1-4.167,4.157,8.856,8.856,0,0,1-2.522-.131,4.35,4.35,0,0,1-3.285-4.149c-.022-1.821-.006-3.642-.007-5.463,0-.046,0-.092.009-.213" transform="translate(-41.147 -47.159)" fill="#f6cba8"/>
        <path id="Trazado_129203" data-name="Trazado 129203" d="M48.848,12.641c0,2.38-.006,4.761.007,7.141,0,.289-.063.379-.36.364-.519-.027-1.041.007-1.56-.012A1.853,1.853,0,0,1,45.3,19.107c-.1-.186-.135-.289.133-.38a3.054,3.054,0,0,0,2.127-2.507,2.162,2.162,0,0,0,.033-.349A.636.636,0,0,0,47,15.143c-.365-.017-.62.243-.654.669a1.87,1.87,0,1,1-3.718-.328.855.855,0,0,0-.346-.909,2.467,2.467,0,0,1,0-3.867A.847.847,0,0,0,42.63,9.8a1.87,1.87,0,1,1,3.712-.446.928.928,0,0,0,.125.521.586.586,0,0,0,.687.236.627.627,0,0,0,.445-.657A3.079,3.079,0,0,0,45.544,6.6c-.373-.127-.358-.266-.189-.527a1.863,1.863,0,0,1,1.578-.925c.52-.014,1.042.015,1.56-.011.294-.015.364.07.362.362-.013,2.38-.007,4.761-.007,7.141" transform="translate(-31.354 -3.895)" fill="#dfb898"/>
        <path id="Trazado_129204" data-name="Trazado 129204" d="M33.684,130.318c-1.638,0-3.276-.008-4.914.007-.29,0-.369-.067-.365-.362a4.392,4.392,0,0,1,1.263-3.132c.536-.548,1.074-1.1,1.632-1.621a4.358,4.358,0,0,1,2.554-1.131.371.371,0,0,1,.471.312c.285.916.6,1.825.9,2.735.2.607.32.693.951.693.845,0,1.69.009,2.535-.005.246,0,.338.051.329.317-.02.623-.019,1.248,0,1.872.008.259-.073.323-.325.321-1.677-.011-3.354-.006-5.031-.006" transform="translate(-21.539 -94.082)" fill="#3396e7"/>
        <path id="Trazado_129205" data-name="Trazado 129205" d="M82.814,130.319c-1.651,0-3.3-.006-4.953.006-.269,0-.356-.061-.346-.34.022-.623.02-1.248,0-1.872-.007-.249.075-.3.308-.3.858.013,1.716.006,2.574.005.605,0,.73-.09.925-.674.308-.923.623-1.844.913-2.772a.352.352,0,0,1,.444-.295,4.316,4.316,0,0,1,2.559,1.117c.577.543,1.138,1.105,1.687,1.677a4.376,4.376,0,0,1,1.224,3.109c0,.274-.07.345-.343.343-1.664-.013-3.328-.007-4.992-.007" transform="translate(-58.778 -94.084)" fill="#3396e7"/>
        <path id="Trazado_129206" data-name="Trazado 129206" d="M77.524,18.585c0-.4.014-.807-.005-1.21-.011-.25.034-.349.324-.37a4.366,4.366,0,0,0,0-8.71c-.248-.018-.328-.075-.323-.331q.025-1.248,0-2.5c-.006-.265.083-.318.329-.318.927,0,.927-.007.927.923,0,.143,0,.286,0,.429,0,.513.111.659.583.839.278.106.553.226.82.357A.655.655,0,0,0,81,7.565c.25-.246.5-.491.744-.746.117-.124.2-.12.317,0,.427.437.858.872,1.3,1.3.147.142.1.228-.021.345-.237.223-.46.459-.693.687a.678.678,0,0,0-.148.881,7.745,7.745,0,0,1,.364.859.7.7,0,0,0,.733.517c.39-.009.781.008,1.17-.006.2-.007.269.053.265.261q-.019.995,0,1.99c0,.215-.075.262-.271.255-.39-.013-.78,0-1.17-.005a.681.681,0,0,0-.714.485q-.18.472-.4.93a.649.649,0,0,0,.118.788c.053.057.112.109.164.167.229.261.687.473.66.761s-.432.513-.675.764c-.217.224-.45.434-.658.666-.142.157-.237.141-.373-.007-.228-.249-.475-.481-.716-.719a.655.655,0,0,0-.819-.128c-.3.147-.615.275-.93.4a.664.664,0,0,0-.471.683c0,.39-.009.781,0,1.171.007.206-.034.292-.27.3-.983.022-.983.031-.983-.946Z" transform="translate(-58.78 -3.904)" fill="#3396e7"/>
        <path id="Trazado_129207" data-name="Trazado 129207" d="M77.527,26.395c0-.936.008-1.872-.005-2.808,0-.246.045-.337.314-.31a3.133,3.133,0,0,1,0,6.234c-.268.028-.319-.061-.316-.308.014-.936.006-1.872.006-2.808" transform="translate(-58.783 -17.647)" fill="#e8edf1"/>
        <path id="Trazado_129208" data-name="Trazado 129208" d="M71.033,113.663c.325,0,.651.02.974-.007.236-.02.281.066.276.277-.013.507,0,1.014-.006,1.521a.639.639,0,0,1-.725.715c-.364.006-.728.008-1.092,0a.623.623,0,0,1-.678-.682c-.009-.533,0-1.066-.006-1.6,0-.189.051-.243.243-.232.337.02.676.006,1.014.006v0" transform="translate(-52.91 -86.182)" fill="#dfb898"/>
        <path id="Trazado_129209" data-name="Trazado 129209" d="M60.757,126.552c-.609,0-1.218.006-1.827.014a.249.249,0,0,1-.285-.194c-.242-.75-.5-1.5-.765-2.305.562,0,1.084,0,1.606,0,.11,0,.153.064.195.154a2.142,2.142,0,0,0,1.081,1.011,1.6,1.6,0,0,1-.006,1.321" transform="translate(-43.89 -94.078)" fill="#2977b7"/>
        <path id="Trazado_129210" data-name="Trazado 129210" d="M79.677,125.227a2.1,2.1,0,0,0,1.079-1.012.248.248,0,0,1,.275-.154c.491,0,.983,0,1.526,0-.266.8-.523,1.573-.774,2.343-.047.144-.149.157-.273.156-.609-.006-1.218-.009-1.827-.013a1.6,1.6,0,0,1-.006-1.321" transform="translate(-60.312 -94.074)" fill="#2977b7"/>
        <path id="Trazado_129211" data-name="Trazado 129211" d="M45.184,78.574c0,.338-.007.676,0,1.014,0,.163-.04.218-.215.228-.807.048-1.037-.156-1.037-.956,0-.3-.01-.6,0-.9a.843.843,0,0,1,1.177-.644c.106.059.067.159.068.242,0,.338,0,.676,0,1.014" transform="translate(-33.312 -58.568)" fill="#dfb898"/>
        <path id="Trazado_129212" data-name="Trazado 129212" d="M100.789,78.76c0-.312.012-.624,0-.935-.011-.221.027-.316.288-.315.784,0,.965.167.966.952,0,.286.007.572,0,.858a.836.836,0,0,1-1.173.692c-.111-.057-.072-.155-.073-.237,0-.338,0-.676,0-1.014" transform="translate(-76.422 -58.774)" fill="#dfb898"/>
        <path id="Trazado_129213" data-name="Trazado 129213" d="M69.781,130.205l.006-1.321c.621.1.621.1.621.705a1.168,1.168,0,0,0,0,.193c.06.353-.083.5-.437.436a1.818,1.818,0,0,0-.192-.013" transform="translate(-52.914 -97.731)" fill="#12619f"/>
        <path id="Trazado_129214" data-name="Trazado 129214" d="M78.166,128.884l.006,1.321c-.627.033-.627.033-.627-.577v-.039c0-.6,0-.6.621-.706" transform="translate(-58.801 -97.731)" fill="#12619f"/>
        <path id="Trazado_129215" data-name="Trazado 129215" d="M127.172,23.983c0,.13,0,.26,0,.39.008.529.229.745.769.751.065,0,.131,0,.2,0,.294.02.742-.131.848.061.15.27.049.678.062,1.026.007.189-.122.161-.235.161-.325,0-.651-.007-.976,0a.618.618,0,0,0-.661.659c-.011.325-.013.651,0,.976.008.189-.057.234-.241.242-1.012.044-1.011.049-1.012-.951,0-.763-.168-.928-.945-.928-.947,0-.939,0-.936-.95,0-.234.05-.324.3-.3a8.172,8.172,0,0,0,.936,0,.614.614,0,0,0,.641-.64c.013-.338.012-.677,0-1.015-.006-.173.054-.236.223-.218.1.01.208,0,.312,0,.718,0,.718,0,.718.732" transform="translate(-94.059 -17.627)" fill="#fed23a"/>
        <path id="Trazado_129216" data-name="Trazado 129216" d="M6.983,30.049c0-.13,0-.26,0-.39a.643.643,0,0,0-.733-.708c-.3,0-.6-.01-.9,0-.181.008-.239-.043-.248-.235C5.055,27.7,5.049,27.7,6.049,27.7c.768,0,.933-.167.934-.94,0-.951,0-.938.945-.942.275,0,.324.1.308.335-.017.272-.008.546,0,.819a.641.641,0,0,0,.714.727c.312.006.625.009.937,0,.165-.005.249.04.223.216a.209.209,0,0,0,0,.039c.041,1,.041,1-.961,1-.756,0-.913.166-.913.958,0,.926,0,.919-.925.921-.239,0-.366-.038-.328-.312a3.394,3.394,0,0,0,0-.468" transform="translate(-3.857 -19.577)" fill="#fed23a"/>
        <path id="Trazado_129217" data-name="Trazado 129217" d="M67.231,90.375a3.241,3.241,0,0,1-1.711-.394,1.816,1.816,0,0,1-.882-1.269.663.663,0,0,1,.469-.823.64.64,0,0,1,.76.543.58.58,0,0,0,.022.114c.3.571.844.583,1.383.571.619-.014.986-.251,1.1-.675s.406-.632.751-.554a.668.668,0,0,1,.474.853,1.966,1.966,0,0,1-1.623,1.539,2.532,2.532,0,0,1-.744.1" transform="translate(-49.001 -66.631)"/>
        <path id="Trazado_129218" data-name="Trazado 129218" d="M65.255,77.55a.623.623,0,1,1-.625.61.627.627,0,0,1,.625-.61" transform="translate(-49.008 -58.805)" fill="#030202"/>
        <path id="Trazado_129219" data-name="Trazado 129219" d="M80.763,77.55a.623.623,0,1,1-.625.61.627.627,0,0,1,.625-.61" transform="translate(-60.768 -58.805)" fill="#030202"/>
        <path id="Trazado_129220" data-name="Trazado 129220" d="M53.588,33.516a1.892,1.892,0,0,1-1.874-1.643c-.058-.464.152-.8.534-.849s.632.189.705.651a.616.616,0,0,0,.614.587c.338.02.569-.212.634-.605.072-.434.326-.67.684-.634a.656.656,0,0,1,.561.791,1.889,1.889,0,0,1-1.858,1.7" transform="translate(-39.207 -23.52)"/>
      </g>
    </g>
  </g>
</svg>
