<svg id="Grupo_157225" data-name="Grupo 157225" xmlns="http://www.w3.org/2000/svg" xmlns:xlink="http://www.w3.org/1999/xlink" width="250" height="192" viewBox="0 0 250 192">
  <defs>
    <clipPath id="clip-path">
      <rect id="Rect치ngulo_37238" data-name="Rect치ngulo 37238" width="236.861" height="146.652" fill="none"/>
    </clipPath>
  </defs>
  <rect id="Rect치ngulo_37256" data-name="Rect치ngulo 37256" width="250" height="192" fill="none"/>
  <g id="Grupo_156780" data-name="Grupo 156780" transform="translate(7.139 23)">
    <g id="Grupo_156775" data-name="Grupo 156775" clip-path="url(#clip-path)">
      <path id="Trazado_127930" data-name="Trazado 127930" d="M102.368,48.313h125.7l3.663,30.978,5.112,48.284a1.947,1.947,0,0,1-1.933,2.174h-3.343s1.086,15.9-.36,15.9c-1.949,0-9.251-15.9-9.251-15.9H111.45a1.947,1.947,0,0,1-1.934-1.721l-9.082-77.541a1.947,1.947,0,0,1,1.934-2.174" transform="translate(-100.42)" fill="#ccb16c"/>
      <path id="Trazado_127931" data-name="Trazado 127931" d="M11.029,92.283H134.492a1.948,1.948,0,0,0,1.935-2.174l-9.083-77.541a1.947,1.947,0,0,0-1.934-1.721H1.947A1.947,1.947,0,0,0,.013,13.021L9.1,90.562a1.947,1.947,0,0,0,1.934,1.721" transform="translate(100.421)" fill="#8498d9"/>
      <path id="Trazado_127932" data-name="Trazado 127932" d="M124.522,17.918a3,3,0,1,0,3-3,3,3,0,0,0-3,3" transform="translate(-18.183)" fill="#fff"/>
      <path id="Trazado_127933" data-name="Trazado 127933" d="M114.522,17.918a3,3,0,1,0,3-3,3,3,0,0,0-3,3" transform="translate(1.817)" fill="#fff"/>
      <path id="Trazado_127934" data-name="Trazado 127934" d="M64.278,28.627c-3.295-1.855-5.585-5.893-5.585-10.589,0-6.45,5.253-11.735,12.517-14.344,5-1.8,6.736,7.894,6.736,14.344a13.359,13.359,0,0,1-1.8,6.79,10.739,10.739,0,0,1,5.993,3.307c5.1,5.92,4.468,21.562-7.907,23a14.7,14.7,0,0,1-9.781-2.914c-2.829-1.969-4.866-5.3-4.629-8.737.182-2.639,1.614-5,2.826-7.35q.885-1.718,1.634-3.5" transform="translate(93.032)" fill="#2b244a"/>
      <path id="Trazado_127935" data-name="Trazado 127935" d="M74.616,43.293a5.71,5.71,0,1,0-5.711-5.71,5.716,5.716,0,0,0,5.711,5.71m0-10.421A4.71,4.71,0,1,1,69.9,37.583a4.716,4.716,0,0,1,4.711-4.711" transform="translate(87.63)" fill="#ffc37a"/>
      <path id="Trazado_127936" data-name="Trazado 127936" d="M37.742,18.882c-.246,3.106.111,7.431,6.333,11.209s10.294,4.663,14.5,10.517c4.14,5.76,4.624,13.069,2.957,21.733-1.607,8.352-17.561,7.975-30.415,3.728s-7.708-11.533-7.708-19.533-3.135-14.774.766-22.387,13.567-5.267,13.567-5.267" transform="translate(152.216)" fill="#2b244a"/>
      <path id="Trazado_127937" data-name="Trazado 127937" d="M2.688,92.282H98.439c-1.529-7.32-3.069-14.27-3.838-16.85a64.863,64.863,0,0,0-3.776-10.34,31.959,31.959,0,0,0-5.013-7.52c-6.949-7.68-15.748-10.11-24.3-10.88a123.43,123.43,0,0,0-20.668.21c-7.032.55-13.8,1.68-19.68,4.06-5.877,2.41-10.63,6.17-13.574,11.5-3.047,5.56-5.167,25.9-4.9,29.82" transform="translate(135.756)" fill="#ffc37a"/>
      <path id="Trazado_127938" data-name="Trazado 127938" d="M54.751,44.882q.227,3.048.207,6.107a41.591,41.591,0,0,1-.312,5.777,6.921,6.921,0,0,1-2.527,4.4,53.448,53.448,0,0,1-4.473,3.381,63.734,63.734,0,0,1-5.623,3.445c-.565.308-1.07-.555-.5-.863a63.915,63.915,0,0,0,5.908-3.643q1.467-1.021,2.874-2.126a11.767,11.767,0,0,0,2.47-2.317,6.38,6.38,0,0,0,.979-3.15c.109-1.18.154-2.37.185-3.554a74.106,74.106,0,0,0-.184-7.452c-.048-.642.952-.639,1,0" transform="translate(140.63)" fill="#2b244a"/>
      <path id="Trazado_127939" data-name="Trazado 127939" d="M71.373,46.6q-1.7,2.877-3.184,5.877c-.488.992-.971,1.991-1.4,3.008a5.294,5.294,0,0,0-.552,3.3,5.708,5.708,0,0,0,1.56,2.411c.725.763,1.479,1.5,2.233,2.234q2.4,2.325,4.9,4.532c.484.428-.226,1.133-.707.708-1.843-1.631-3.653-3.3-5.408-5.028-1.362-1.339-3.187-2.81-3.588-4.783-.44-2.166.884-4.368,1.787-6.246q1.608-3.334,3.5-6.521a.5.5,0,0,1,.863.505" transform="translate(96.635)" fill="#2b244a"/>
      <path id="Trazado_127940" data-name="Trazado 127940" d="M50.649,92.282h1.21c1.97-7.88,9.67-38.04,13.86-45.93a10.793,10.793,0,0,1,.69-1.12l-18.09,2.08a.077.077,0,0,1-.01.03c-.25.91-6.05,22.68,2.34,44.94" transform="translate(124.328)" fill="#e0785e"/>
      <path id="Trazado_127941" data-name="Trazado 127941" d="M59.94,25.554,65.652,46.62s-8.617,6.239-18.472.693l-1.436-9.4Z" transform="translate(125.465)" fill="#e0785e"/>
      <path id="Trazado_127942" data-name="Trazado 127942" d="M78.411,9.517C75.52-.57,67.319-1.64,58.28,2.251s-10.73,8.316-10.671,16.74a176.35,176.35,0,0,0,1.5,20.872c.436,2.644,4.483,7.662,11.3,4.184A36.775,36.775,0,0,0,74.468,31.715c2.011-3,6.834-12.111,3.943-22.2" transform="translate(109.942)" fill="#e0785e"/>
      <path id="Trazado_127943" data-name="Trazado 127943" d="M65.533,22.221c.585,1.541,1.954.3,3.834.689,1.728.356,2.883.131,2.862-.778-.025-1.1-1.709-2.294-4.163-2.156-2.3.13-2.96,1.121-2.533,2.245" transform="translate(99.22)" fill="#2b244a"/>
      <path id="Trazado_127944" data-name="Trazado 127944" d="M76.405,24.023c1.672-.632,3.165.163,3.4-1.411.174-1.185-.679-2.019-2.954-1.654-.177.029-.354.068-.521.106a2.074,2.074,0,0,0,.076,2.959" transform="translate(81.29)" fill="#2b244a"/>
      <path id="Trazado_127945" data-name="Trazado 127945" d="M68.484,24.614a1.2,1.2,0,0,1,.9-.714,1.138,1.138,0,0,1,1.078.666,3.957,3.957,0,0,1,.372,1.353,2.506,2.506,0,0,1-.238,1.608,1.052,1.052,0,0,1-1.833-.142,3.478,3.478,0,0,1-.28-2.771" transform="translate(97.681)" fill="#2b244a"/>
      <path id="Trazado_127946" data-name="Trazado 127946" d="M76.724,25.5a1.2,1.2,0,0,1,.9-.714,1.138,1.138,0,0,1,1.078.666,3.951,3.951,0,0,1,.372,1.353,2.5,2.5,0,0,1-.238,1.607,1.051,1.051,0,0,1-1.832-.141,3.474,3.474,0,0,1-.281-2.771" transform="translate(81.201)" fill="#2b244a"/>
      <path id="Trazado_127947" data-name="Trazado 127947" d="M75.467,32.336a3.931,3.931,0,0,1-1.984-.383A1.987,1.987,0,0,1,72.566,30a25.1,25.1,0,0,1,.465-2.647l.534-2.822c.119-.631,1.083-.364.964.266q-.437,2.306-.871,4.612c-.1.529-.264,1.262.251,1.633a2.7,2.7,0,0,0,1.558.3.5.5,0,0,1,0,1" transform="translate(88.353)" fill="#2b244a"/>
      <path id="Trazado_127948" data-name="Trazado 127948" d="M38.752,4.869A24,24,0,0,1,50.47.146C54.237-.214,57.9-.109,61.9,2.891c2.975,2.232,6.416,9.006,4.25,15.991-.63,2.031-.706,11.576-.706,11.576L78.673,47.521c-23.937,7.639-21.5-6.265-23.8-17.8-1.733-8.7-7.693-7.428-11.449-10.825-4.229-3.824-3.895-10.407-3.895-10.407L34.383,12.13a10.072,10.072,0,0,1,4.369-7.261" transform="translate(123.805)" fill="#2b244a"/>
      <path id="Trazado_127949" data-name="Trazado 127949" d="M55.129,25.791a5.688,5.688,0,1,0,7.037-3.9,5.688,5.688,0,0,0-7.037,3.9" transform="translate(115.669)" fill="#e0785e"/>
      <path id="Trazado_127950" data-name="Trazado 127950" d="M54.46,42.023a5.71,5.71,0,1,0-5.71-5.71,5.717,5.717,0,0,0,5.71,5.71m0-10.421a4.71,4.71,0,1,1-4.71,4.711A4.716,4.716,0,0,1,54.46,31.6" transform="translate(127.94)" fill="#ffc37a"/>
      <path id="Trazado_127951" data-name="Trazado 127951" d="M64.823,40.257a15.778,15.778,0,0,1-1.613,1.756c-.606.558-1.262,1.06-1.916,1.561a.5.5,0,0,1-.684-.18.514.514,0,0,1,.18-.684c.57-.437,1.193-.923,1.748-1.437a15.7,15.7,0,0,0,1.578-1.723.5.5,0,0,1,.707,0,.513.513,0,0,1,0,.707" transform="translate(111.354)" fill="#2b244a"/>
      <path id="Trazado_127952" data-name="Trazado 127952" d="M59.938,29.364a2.524,2.524,0,0,0-.376-3.8,2.667,2.667,0,0,0-1.581-.448.5.5,0,0,1,0-1,3.524,3.524,0,0,1,3.557,4.337,3.494,3.494,0,0,1-.892,1.617c-.445.467-1.151-.241-.708-.707" transform="translate(117.735)" fill="#2b244a"/>
      <path id="Trazado_127953" data-name="Trazado 127953" d="M72.546,36.658A4.1,4.1,0,0,0,75.378,34.6a.439.439,0,0,0-.439-.679,42.586,42.586,0,0,1-4.842.516.435.435,0,0,0-.362.656,3.079,3.079,0,0,0,2.811,1.565" transform="translate(91.738)" fill="#fff"/>
      <path id="Trazado_127954" data-name="Trazado 127954" d="M31.128,82.571c.48,3.215.909,6.439,1.223,9.675.062.64-.939.636-1,0-.306-3.147-.721-6.282-1.187-9.409-.094-.63.869-.9.964-.266" transform="translate(174.35)" fill="#2b244a"/>
      <path id="Trazado_127955" data-name="Trazado 127955" d="M79.436,84.449q.377,3.761.752,7.521c.064.64-.937.636-1,0q-.376-3.761-.752-7.521c-.064-.64.937-.635,1,0" transform="translate(78.237)" fill="#2b244a"/>
      <path id="Trazado_127956" data-name="Trazado 127956" d="M224.942,55.383a3,3,0,1,0,3-3,3,3,0,0,0-3,3" transform="translate(-219.023)" fill="#fff"/>
      <path id="Trazado_127957" data-name="Trazado 127957" d="M214.942,55.383a3,3,0,1,0,3-3,3,3,0,0,0-3,3" transform="translate(-199.023)" fill="#fff"/>
      <path id="Trazado_127958" data-name="Trazado 127958" d="M131.363,107.971l2.35,20.06a1.926,1.926,0,0,0,1.81,1.71h94.59c-.21-1.14-1.58-15.77-2.02-16.99-2.91-8.19-2.38-16.84-6.12-22.72-3.61-5.64-5.93-7.3-12.46-10.08-6.46-2.75-14.43-4.57-21.92-5.75a140.534,140.534,0,0,0-21.89-2.06c-8.97,0-18.06,1.67-24.7,8.79a25.213,25.213,0,0,0-4.61,7.13,53.042,53.042,0,0,0-3.03,10.09c-.22.99-1.09,5.09-2,9.82" transform="translate(-124.615)" fill="#ffeae0"/>
      <path id="Trazado_127959" data-name="Trazado 127959" d="M166.43,55.714l-3.181,17.342s5.525,9.545,16.457,2.72L181.981,65.2Z" transform="translate(-108.369)" fill="#ffa58f"/>
      <path id="Trazado_127960" data-name="Trazado 127960" d="M149.816,46.362a5.549,5.549,0,1,0,5.549-5.549,5.549,5.549,0,0,0-5.549,5.549" transform="translate(-73.868)" fill="#2b244a"/>
      <path id="Trazado_127961" data-name="Trazado 127961" d="M151.7,44.12c1.656-9.519,9.059-11.3,17.716-8.629s10.639,6.559,11.413,14.277a162.347,162.347,0,0,1,.674,19.255c-.14,2.463-3.352,7.455-9.933,4.941a33.877,33.877,0,0,1-14.08-9.909c-2.136-2.552-7.445-10.416-5.79-19.935" transform="translate(-96.095)" fill="#ffa58f"/>
      <path id="Trazado_127962" data-name="Trazado 127962" d="M169.851,72.921a16.443,16.443,0,0,1-5.767-5.042.5.5,0,0,1,.18-.684.51.51,0,0,1,.684.179,15.356,15.356,0,0,0,5.408,4.683c.571.3.065,1.162-.505.864" transform="translate(-97.758)" fill="#2b244a"/>
      <path id="Trazado_127963" data-name="Trazado 127963" d="M151.853,69.2l.051-.028a2.349,2.349,0,0,1,1.076-.206c1.634,0,3.023.771,4.539,1.243a4.757,4.757,0,0,0,1.626.309c.624-.031.909-.485,1.214-.984a1.938,1.938,0,0,1,3.238-.378,8.025,8.025,0,0,0,.5.683c.559.571,1.219-.028,1.786-.276.339-.148,1.264-.562,1.309.112a5.876,5.876,0,0,1-5.918,6.152,13.51,13.51,0,0,1-5.606-1.47,10.3,10.3,0,0,1-3.932-2.8c-.511-.712-.756-1.861.117-2.357" transform="translate(-81.619)" fill="#2b244a"/>
      <path id="Trazado_127964" data-name="Trazado 127964" d="M151.649,50.08c.543,1.418,1.795.276,3.526.635.129.028.249.046.369.065.71-.359.678-2.186-.3-2.707a5.6,5.6,0,0,0-1.262-.065c-2.108.12-2.725,1.032-2.329,2.072" transform="translate(-70.708)" fill="#2b244a"/>
      <path id="Trazado_127965" data-name="Trazado 127965" d="M164.846,50.078c-.539,1.419-1.8.278-3.53.634-1.591.328-2.654.121-2.635-.716.023-1.012,1.574-2.113,3.833-1.985,2.115.119,2.725,1.032,2.332,2.067" transform="translate(-86.778)" fill="#2b244a"/>
      <path id="Trazado_127966" data-name="Trazado 127966" d="M160.6,53.079a1.107,1.107,0,0,1,.879-.591,1.044,1.044,0,0,1,.942.688,3.609,3.609,0,0,1,.245,1.268,2.3,2.3,0,0,1-.331,1.458.969.969,0,0,1-1.673-.259,3.206,3.206,0,0,1-.062-2.564" transform="translate(-86.182)" fill="#2b244a"/>
      <path id="Trazado_127967" data-name="Trazado 127967" d="M152.6,53.079a1.1,1.1,0,0,1,.878-.591,1.044,1.044,0,0,1,.942.688,3.609,3.609,0,0,1,.245,1.268,2.3,2.3,0,0,1-.331,1.458.969.969,0,0,1-1.673-.259,3.2,3.2,0,0,1-.061-2.564" transform="translate(-70.174)" fill="#2b244a"/>
      <path id="Trazado_127968" data-name="Trazado 127968" d="M154.774,57.307c-.931-1.606-3.579-6.8-3.927-8.623a5.628,5.628,0,0,1,1.366-5.157,6.071,6.071,0,0,0,.907-.876c.8-1.133.042-2.692.2-4.068a3.749,3.749,0,0,1,2.839-3.013,5.3,5.3,0,0,1,2.24-.061,12.989,12.989,0,0,1,6.285-3.919,4.655,4.655,0,0,1,2.382-.124,2.074,2.074,0,0,1,1.573,1.638,20.216,20.216,0,0,1,10.521,1.239,9.229,9.229,0,0,1,2.986,1.988,6.584,6.584,0,0,1,.885,1.134,4.8,4.8,0,0,1,.247,4.918,5.509,5.509,0,0,1-4.289,2.443c-1.462.133-5.533-.6-10.406-2.9-1.875-.554-3.075,1.545-3.256,3.2-.24,2.164.635,4.255.672,6.409.027,1.74-.534,3.582-2.33,4.19a4.051,4.051,0,0,1-2.117.1c-.157,2.2-.792,4.354-2.827,5.552a10.926,10.926,0,0,1-4.246,1.376l.806-4.394c-.174-.387-.507-1.053-.507-1.053" transform="translate(-97.705)" fill="#2b244a"/>
      <path id="Trazado_127969" data-name="Trazado 127969" d="M166.76,55.5a4.647,4.647,0,1,0,5.363-3.8,4.647,4.647,0,0,0-5.363,3.8" transform="translate(-105.82)" fill="#ffa58f"/>
      <path id="Trazado_127970" data-name="Trazado 127970" d="M159.942,64.185a.445.445,0,0,0-.37-.67,43.384,43.384,0,0,1-4.942-.526.448.448,0,0,0-.448.693,4.187,4.187,0,0,0,2.89,2.1,3.142,3.142,0,0,0,2.87-1.6" transform="translate(-77.252)" fill="#2b244a"/>
      <path id="Trazado_127971" data-name="Trazado 127971" d="M156.3,54.621q.41,1.181.82,2.362a12.141,12.141,0,0,1,.737,2.344,1.594,1.594,0,0,1-.87,1.742,3.384,3.384,0,0,1-1.059.177l-1.268.1c-.642.049-.639-.951,0-1l1.038-.079a3.759,3.759,0,0,0,.834-.091c.553-.175.314-.922.183-1.312-.446-1.329-.92-2.65-1.379-3.974-.212-.609.754-.871.964-.266" transform="translate(-75.188)" fill="#2b244a"/>
      <path id="Trazado_127972" data-name="Trazado 127972" d="M173.623,54.278a1.882,1.882,0,0,0-1.957.7,2.441,2.441,0,0,0-.17,2.439.512.512,0,0,1-.179.684.5.5,0,0,1-.683-.179,3.463,3.463,0,0,1,.2-3.493,2.885,2.885,0,0,1,3.055-1.117.5.5,0,0,1-.267.964" transform="translate(-107.64)" fill="#2b244a"/>
      <path id="Trazado_127973" data-name="Trazado 127973" d="M188.8,78.585c-3.368,3.022-8.212,4.435-12.667,4.557a19.3,19.3,0,0,1-12.282-4.19,31.412,31.412,0,0,1-5.423-5.847c-.39-.512.478-1.011.863-.5a32.606,32.606,0,0,0,4.583,5.08,18.532,18.532,0,0,0,5.06,3.074,17.215,17.215,0,0,0,6.285,1.391,21.452,21.452,0,0,0,6.707-.976,16.418,16.418,0,0,0,6.167-3.292c.478-.429,1.187.276.707.707" transform="translate(-110.432)" fill="#2b244a"/>
      <path id="Trazado_127974" data-name="Trazado 127974" d="M100.421,93.2s3.045-8.22,6.879-16.357c3.526-7.484,8.96-20,12.291-18.371,1.119.548,1.941,2.048,1.128,4.39-1.353,3.9-3.647,11.445-3.647,11.445s6.37-2.1,6.383,4.606c0,0,4.245-.286,3.049,5.967,0,.022-.011.041-.015.062a35.956,35.956,0,0,1-3.176,8.365c-.72,1.448-5.532,11.415-5.532,11.415Z" transform="translate(9.724)" fill="#ffa58f"/>
      <path id="Trazado_127975" data-name="Trazado 127975" d="M110.812,93.2l-3.675,9.269L127.59,114.1l2.8-7.825Z" transform="translate(-0.667)" fill="#ffeae0"/>
      <path id="Trazado_127976" data-name="Trazado 127976" d="M109.411,77.685a33.364,33.364,0,0,1,4.976.228c.8.1,1.6.214,2.387.373a3.352,3.352,0,0,1,1.624.7,1.931,1.931,0,0,1-.286,2.919,12.419,12.419,0,0,1-3.8,1.905q-2.624,1.068-5.287,2.031c-.606.22-.868-.746-.266-.964q2.492-.9,4.949-1.894c.845-.342,1.7-.673,2.53-1.054a3.6,3.6,0,0,0,1.551-1.162c.957-1.478-2.128-1.683-2.895-1.791a32.756,32.756,0,0,0-5.484-.3.5.5,0,0,1,0-1" transform="translate(9.49)" fill="#2b244a"/>
      <path id="Trazado_127977" data-name="Trazado 127977" d="M104.5,84.563c-.066.853-.174,2.421.815,2.824,1.258.514,2.674-1.408,3.416-2.176,2.008-2.078,3.939-4.229,5.981-6.274a.5.5,0,0,1,.707.707c-2.412,2.416-4.646,5.007-7.084,7.4-.988.967-2.521,2.02-3.85,1.007-1.034-.788-1.077-2.3-.985-3.484.05-.637,1.05-.643,1,0" transform="translate(17.819)" fill="#2b244a"/>
      <path id="Trazado_127978" data-name="Trazado 127978" d="M112.839,75.05l-2.563,3.471a.515.515,0,0,1-.684.179.5.5,0,0,1-.18-.684l2.564-3.471a.514.514,0,0,1,.684-.179.5.5,0,0,1,.179.684" transform="translate(14.61)" fill="#2b244a"/>
      <path id="Trazado_127979" data-name="Trazado 127979" d="M101.648,86.3a4.2,4.2,0,0,0,1.021,2.5c.849.79,2.079.245,2.874-.34a23.224,23.224,0,0,0,1.976-1.8q1.327-1.237,2.675-2.455c.477-.43,1.187.275.707.707q-1.539,1.389-3.051,2.807a10.538,10.538,0,0,1-2.708,2.137,2.8,2.8,0,0,1-3.3-.47,5.607,5.607,0,0,1-1.192-3.083c-.085-.636.916-.63,1,0" transform="translate(25.157)" fill="#2b244a"/>
      <path id="Trazado_127980" data-name="Trazado 127980" d="M186.323,98.151a53.042,53.042,0,0,1,3.03-10.09,25.213,25.213,0,0,1,4.61-7.13c6.64-7.12,15.73-8.79,24.7-8.79a108.165,108.165,0,0,1,11.45.65,193.215,193.215,0,0,0-5.87,50.93c.04,2.07.14,6.02.14,6.02h-35.9a1.926,1.926,0,0,1-1.81-1.71l-2.35-20.06c.91-4.73,1.78-8.83,2-9.82" transform="translate(-177.575)" fill="#2b244a"/>
      <path id="Trazado_127981" data-name="Trazado 127981" d="M134.7,113.125a184.929,184.929,0,0,0,5.48-24.7q.93-6.075,1.41-12.19c.52.12,1.03.25,1.54.38s1.02.26,1.52.4,1.01.28,1.51.43.97.29,1.46.45h.03c.47.15.93.3,1.39.46.98.33,1.93.68,2.86,1.05.46.18.91.36,1.35.55,6.53,2.78,8.85,4.44,12.46,10.08,3.74,5.88,5.57,14.63,7.75,25.29.26,1.27,2.66,13.28,2.87,14.42H128.884c2.17-5.41,4.163-11.03,5.813-16.62" transform="translate(-68.35)" fill="#2b244a"/>
      <path id="Trazado_127982" data-name="Trazado 127982" d="M120.753,102.47,141.206,114.1l-5.692,15.647H109.938Z" transform="translate(-14.283)" fill="#2b244a"/>
      <path id="Trazado_127983" data-name="Trazado 127983" d="M142.16,109.846c-2.519,5.5-4.772,11.137-7.16,16.7-.422.984-.835,1.972-1.28,2.946-.268.584-1.13.076-.864-.505,2.519-5.5,4.772-11.138,7.16-16.7.422-.984.835-1.973,1.281-2.946.267-.584,1.129-.077.863.5" transform="translate(-38.155)" fill="#8c75b5"/>
      <path id="Trazado_127984" data-name="Trazado 127984" d="M157.464,78.118c.642,5.5,1.171,11.019,1.528,16.547.041.642-.959.64-1,0-.357-5.528-.886-11.045-1.528-16.547-.074-.638.926-.633,1,0" transform="translate(-78.592)" fill="#8c75b5"/>
      <path id="Trazado_127985" data-name="Trazado 127985" d="M198.317,73.105c-2.327,5.127-4.8,10.2-6.676,15.521-.213.6-1.179.343-.964-.266,1.906-5.4,4.414-10.554,6.777-15.76.265-.585,1.127-.077.863.505" transform="translate(-152.152)" fill="#8c75b5"/>
      <path id="Trazado_127986" data-name="Trazado 127986" d="M194.678,91.377c1.167,10.032,2.719,20.031,4.43,29.983.433,2.518.883,5.033,1.367,7.541.121.629-.843.9-.965.266-1.927-9.99-3.476-20.066-4.855-30.145-.348-2.546-.68-5.093-.977-7.645-.074-.638.926-.633,1,0" transform="translate(-157.299)" fill="#8c75b5"/>
      <path id="Trazado_127987" data-name="Trazado 127987" d="M169.21,98.92c-3.176,8.259-6.665,16.4-10.166,24.529q-1.3,3.015-2.62,6.022c-.259.587-1.12.079-.863-.5q5.3-12.051,10.276-24.248c.819-2.015,1.628-4.034,2.409-6.064.228-.594,1.2-.336.964.266" transform="translate(-87.898)" fill="#8c75b5"/>
      <path id="Trazado_127988" data-name="Trazado 127988" d="M197.721,91.314l-6.022-2.34a.514.514,0,0,1-.349-.615.5.5,0,0,1,.615-.349l6.022,2.34a.514.514,0,0,1,.349.615.5.5,0,0,1-.615.349" transform="translate(-152.825)" fill="#8c75b5"/>
      <path id="Trazado_127989" data-name="Trazado 127989" d="M162.975,95.165c-2-.093-4.009-.175-6.014-.268-.64-.03-.644-1.03,0-1,2.005.093,4.01.175,6.014.268.641.03.644,1.03,0,1" transform="translate(-83.075)" fill="#8c75b5"/>
      <path id="Trazado_127990" data-name="Trazado 127990" d="M199.98,91.332l-8.148.545c-.643.043-.64-.957,0-1l8.148-.545c.644-.043.641.957,0,1" transform="translate(-154.952)" fill="#8c75b5"/>
      <path id="Trazado_127991" data-name="Trazado 127991" d="M209.651,108.046c-1,5.818-2.246,11.6-3.525,17.366-.305,1.374-.616,2.747-.945,4.116-.151.625-1.116.36-.965-.266,1.373-5.7,2.555-11.448,3.675-17.2.278-1.425.549-2.852.8-4.283.109-.633,1.073-.364.964.266" transform="translate(-176.999)" fill="#8c75b5"/>
      <path id="Trazado_127992" data-name="Trazado 127992" d="M155.9,118.395q-1.339,5.478-2.68,10.956c-.153.625-1.117.36-.964-.266q1.34-5.478,2.68-10.956c.153-.625,1.117-.36.964.266" transform="translate(-71.289)" fill="#8c75b5"/>
      <path id="Trazado_127993" data-name="Trazado 127993" d="M162.738,99.219q-3.4-2.307-6.943-4.391a.5.5,0,0,1,.505-.863q3.54,2.079,6.943,4.391c.529.359.029,1.226-.5.863" transform="translate(-82.161)" fill="#8c75b5"/>
      <path id="Trazado_127994" data-name="Trazado 127994" d="M91.556,59.127H125.28a5.832,5.832,0,0,0,5.815-5.814V50.045a5.832,5.832,0,0,0-5.815-5.815H91.556a5.832,5.832,0,0,0-5.814,5.815v3.268a5.831,5.831,0,0,0,5.814,5.814" transform="translate(20.024)" fill="#ffeae0"/>
      <path id="Trazado_127995" data-name="Trazado 127995" d="M121.881,53.312V61.2a1,1,0,0,0,1.357.934l7.857-3.008Z" transform="translate(-16.115)" fill="#ffeae0"/>
      <path id="Trazado_127996" data-name="Trazado 127996" d="M99.444,50.755a.924.924,0,0,1,0,1.846.924.924,0,0,1,0-1.846" transform="translate(37.973)" fill="#2b244a"/>
      <path id="Trazado_127997" data-name="Trazado 127997" d="M108.419,50.755a.924.924,0,0,1,0,1.846.924.924,0,0,1,0-1.846" transform="translate(20.023)" fill="#2b244a"/>
      <path id="Trazado_127998" data-name="Trazado 127998" d="M117.393,50.755a.924.924,0,0,1,0,1.846.924.924,0,0,1,0-1.846" transform="translate(2.075)" fill="#2b244a"/>
    </g>
  </g>
</svg>
