<svg xmlns="http://www.w3.org/2000/svg" xmlns:xlink="http://www.w3.org/1999/xlink" width="69" height="84" viewBox="0 0 69 84">
  <defs>
    <clipPath id="clip-path">
      <rect id="Rect치ngulo_37156" data-name="Rect치ngulo 37156" width="49.461" height="42.531" fill="none"/>
    </clipPath>
  </defs>
  <g id="Grupo_157248" data-name="Grupo 157248" transform="translate(-323 -10917)">
    <g id="Grupo_156377" data-name="Grupo 156377" transform="translate(323.373 10917.392)">
      <rect id="Rect치ngulo_36766" data-name="Rect치ngulo 36766" width="69" height="84" rx="12" transform="translate(-0.373 -0.391)" fill="#0c487b"/>
    </g>
    <g id="Grupo_156647" data-name="Grupo 156647" transform="translate(1)">
      <g id="Grupo_156645" data-name="Grupo 156645" transform="translate(-292 14.563)">
        <g id="Grupo_156644" data-name="Grupo 156644" transform="translate(623 10922.437)">
          <g id="Grupo_156643" data-name="Grupo 156643" clip-path="url(#clip-path)">
            <path id="Trazado_127582" data-name="Trazado 127582" d="M49.461,24.756c-.566,1.864-2.049,2.456-3.77,2.706-.676.1-.665.082-.681.75a37.662,37.662,0,0,1-.085,4.388,5.159,5.159,0,0,1-4.845,4.333,32.357,32.357,0,0,0-3.565.18,1.785,1.785,0,0,0-1.832,1.7,16.73,16.73,0,0,0-.3,2.537c-.048.861-.376,1.176-1.243,1.176q-8.427,0-16.854,0c-.832,0-1.169-.325-1.216-1.153a16.815,16.815,0,0,0-.3-2.585,1.772,1.772,0,0,0-1.8-1.677,24.075,24.075,0,0,0-3.179-.169,5.2,5.2,0,0,1-5.34-5.38c0-1.143-.032-2.287.014-3.428.02-.506-.148-.647-.622-.677a5.264,5.264,0,0,1-2.159-.624A2.915,2.915,0,0,1,.165,23.179a5.592,5.592,0,0,1,.683-1.428c.158-.243.327-.477.49-.716,1.247-1.821,2.375-3.686,2.207-6.025a16.169,16.169,0,0,1,9.934-13.6A15.88,15.88,0,0,1,24.37.593a1.416,1.416,0,0,0,.751-.01A16.66,16.66,0,0,1,45.21,11.509a13,13,0,0,1,.737,4.113,7.286,7.286,0,0,0,1.135,3.773c.249.431.5.863.789,1.268a9.12,9.12,0,0,1,1.59,3.032Z" transform="translate(0 0)"/>
            <path id="Trazado_127583" data-name="Trazado 127583" d="M60.3,41.769c-.741.16-.984.441-.971,1.193.017,1,.045,1.995.1,2.991.016.3-.07.374-.367.373q-3.766-.018-7.533,0c-.353,0-.424-.1-.4-.433a39.272,39.272,0,0,0,.016-5.209,21.917,21.917,0,0,0-2.653-9.036c-.637-1.19-1.412-2.3-1.974-3.533A14.464,14.464,0,0,1,54.931,8.539a.866.866,0,0,1,.647-.008c5.59,2.2,8.892,6.233,9.641,12.228a13.618,13.618,0,0,1-2,8.866,34.7,34.7,0,0,0-2.141,4.042,1.014,1.014,0,0,0,.461,1.5,11.187,11.187,0,0,1-.624,2.261c-.135.132-.325.121-.487.183a.775.775,0,0,0-.582.634.855.855,0,0,0,.335.847c.137.1.316.166.382.351a8.244,8.244,0,0,1-.271,2.324" transform="translate(-30.539 -5.72)" fill="#fec044"/>
            <path id="Trazado_127584" data-name="Trazado 127584" d="M88.08,40.109a21.5,21.5,0,0,1,.194-2.386c.073-.131.216-.123.334-.163a.866.866,0,0,0,.637-.66.815.815,0,0,0-.372-.832c-.1-.074-.231-.125-.243-.278a12.639,12.639,0,0,1,.7-2.281,1,1,0,0,0,1.3-.7,33.939,33.939,0,0,1,2.028-3.83A16.3,16.3,0,0,0,87.061,6.5c-.19-.115-.381-.229-.688-.413a11.369,11.369,0,0,1,2.072-.056,14.638,14.638,0,0,1,13.8,12.58c.115.81.071,1.642.184,2.452a10.962,10.962,0,0,0,1.849,4.254c.376.6.809,1.163,1.167,1.772.766,1.3.448,2.031-1.015,2.391a8.254,8.254,0,0,1-1.865.214c-.827.012-1.157.362-1.16,1.2a3.792,3.792,0,0,1-.046,1.524c-.218.438-.908.23-1.373.4a11.54,11.54,0,0,0-1.887.843.967.967,0,1,0,.952,1.676,6.611,6.611,0,0,1,1.965-.768c.284-.049.422-.026.4.31a13.255,13.255,0,0,1-.061,1.492,3.243,3.243,0,0,1-3.182,2.7c-1.142.025-2.284.024-3.422.162a3.742,3.742,0,0,0-3.669,3.45c-.094.538-.156,1.082-.207,1.625-.024.251-.088.377-.372.358-.431-.03-.973.132-1.266-.074-.277-.195-.115-.777-.141-1.188-.043-.69-.041-1.383-.05-2.075-.01-.758-.227-1.038-.959-1.219" transform="translate(-58.324 -4.06)" fill="#66dff6"/>
            <path id="Trazado_127585" data-name="Trazado 127585" d="M25.3,6.157a16.5,16.5,0,0,0-5.508,5.013c-3.821,5.723-4.062,11.639-.734,17.658A33.368,33.368,0,0,1,21.8,34.451a20.321,20.321,0,0,1,.971,6.024q.036,1.932-.078,3.862c-.018.307-.113.381-.4.362-.417-.028-.936.126-1.225-.071-.308-.21-.115-.782-.216-1.187-.093-.373-.124-.761-.214-1.135a3.63,3.63,0,0,0-3.42-3.025,32.093,32.093,0,0,0-3.47-.175,3.259,3.259,0,0,1-3.342-3.366,2.476,2.476,0,0,1,.039-1.047c.162-.317.635-.145.965-.228a8.882,8.882,0,0,0,2.391-1,.958.958,0,0,0-.921-1.678,8.65,8.65,0,0,1-1.954.806c-.363.083-.573.045-.53-.418a12.635,12.635,0,0,0,.007-1.3,1,1,0,0,0-1.124-1.136,6.759,6.759,0,0,1-2.414-.389,1.131,1.131,0,0,1-.75-1.71A6.548,6.548,0,0,1,6.9,26.309,15.841,15.841,0,0,0,9.273,21.7,14.861,14.861,0,0,0,9.5,19.16,14.616,14.616,0,0,1,22.715,6.127a10.78,10.78,0,0,1,2.588.03" transform="translate(-4.03 -4.095)" fill="#fe5d7c"/>
            <path id="Trazado_127586" data-name="Trazado 127586" d="M90.919,97.709a1.033,1.033,0,0,1,.759.9.943.943,0,0,1-.424.868,1.172,1.172,0,0,1-.69.164c-.627-.244-.871-.6-.784-1.14.081-.5.471-.774,1.14-.792" transform="translate(-60.612 -65.978)" fill="#010101"/>
            <path id="Trazado_127587" data-name="Trazado 127587" d="M124.9,55.527a.941.941,0,0,1-.934.953.964.964,0,0,1-.982-.963.978.978,0,0,1,.944-.961.957.957,0,0,1,.972.971" transform="translate(-83.046 -36.839)" fill="#000101"/>
            <path id="Trazado_127588" data-name="Trazado 127588" d="M23.414,55.5a.959.959,0,0,1,.946-.949.985.985,0,0,1,.969.986.966.966,0,0,1-1.007.939.938.938,0,0,1-.909-.976" transform="translate(-15.81 -36.837)" fill="#010000"/>
          </g>
        </g>
      </g>
      <g id="Grupo_156582" data-name="Grupo 156582" transform="translate(-26 6270)">
        <path id="Trazado_127053" data-name="Trazado 127053" d="M15.507,123.96c-.454.1-.559-.113-.555-.537.012-1.063-.007-1.081-1.106-1.075-.409,0-.536-.124-.528-.529.007-.377.077-.553.512-.551,1.1,0,1.131-.018,1.119-1.119-.005-.5.239-.507.608-.511s.56.058.56.5c0,1.115.023,1.135,1.112,1.131.421,0,.521.15.522.541s-.1.541-.52.539c-1.11-.006-1.137.014-1.112,1.066.012.488-.169.631-.611.545" transform="translate(339.683 4573.993)" fill="#29c4bb"/>
        <path id="Trazado_127054" data-name="Trazado 127054" d="M213.642,151.161c.406-.078.632.057.565.517-.056.385.077.6.5.533s.57.088.573.537c0,.47-.189.578-.589.525-.383-.052-.5.115-.5.5.012.6-.357.826-.934.645-.274-.086-.214-.3-.2-.477.048-.472-.06-.76-.616-.666-.431.073-.457-.2-.456-.527s.014-.6.451-.53c.471.073.694-.1.616-.6-.075-.475.23-.5.582-.454" transform="translate(195.806 4552.685)" fill="#29c4bb"/>
        <path id="Trazado_127055" data-name="Trazado 127055" d="M210.718,69.268c.1.453-.1.608-.527.537-.46-.078-.648.111-.567.569s-.113.548-.542.553-.609-.127-.532-.557c.082-.459-.109-.648-.565-.562-.472.089-.513-.158-.531-.555-.021-.466.16-.588.566-.517.441.077.606-.106.531-.537-.072-.412.061-.579.521-.563.4.014.639.072.552.536s.115.639.567.563c.425-.072.632.081.526.534" transform="translate(199.254 4608.526)" fill="#010000"/>
        <path id="Trazado_127056" data-name="Trazado 127056" d="M55.04,186.64c.1.423-.11.578-.532.5-.5-.09-.614.169-.543.587.079.465-.146.537-.555.535-.39,0-.6-.091-.518-.511.108-.553-.169-.688-.645-.607s-.466-.225-.467-.559.007-.6.448-.512c.593.117.745-.168.665-.7-.077-.508.311-.362.569-.377.274-.016.579-.052.5.389-.1.545.092.8.67.687.482-.092.423.243.409.566" transform="translate(311.829 4530.025)" fill="#010000"/>
        <path id="Trazado_127057" data-name="Trazado 127057" d="M121.786,17.426c-.114-.483.153-.577.548-.518.41.061.572-.109.509-.513s.058-.588.522-.578c.427.009.623.119.548.558s.131.6.553.533c.391-.059.587.035.589.513s-.182.62-.608.553c-.45-.072-.6.133-.533.553.078.472-.175.526-.572.534-.424.009-.562-.151-.5-.54.068-.427-.09-.622-.535-.547s-.62-.106-.523-.547" transform="translate(261.153 4643.184)" fill="#29c4bb"/>
      </g>
    </g>
  </g>
</svg>
