<svg xmlns="http://www.w3.org/2000/svg" xmlns:xlink="http://www.w3.org/1999/xlink" width="69" height="84" viewBox="0 0 69 84">
  <defs>
    <clipPath id="clip-path">
      <rect id="Rect치ngulo_37601" data-name="Rect치ngulo 37601" width="39.481" height="40.844" fill="none"/>
    </clipPath>
  </defs>
  <g id="_36" data-name="36" transform="translate(-323 -10917)">
    <g id="Grupo_156377" data-name="Grupo 156377" transform="translate(323.373 10917.391)">
      <rect id="Rect치ngulo_36766" data-name="Rect치ngulo 36766" width="69" height="84" rx="12" transform="translate(-0.373 -0.391)" fill="#0c487b"/>
    </g>
    <g id="Grupo_156647" data-name="Grupo 156647" transform="translate(1)">
      <g id="Grupo_156582" data-name="Grupo 156582" transform="translate(-26 6270)">
        <path id="Trazado_127053" data-name="Trazado 127053" d="M15.507,123.96c-.454.1-.559-.113-.555-.537.012-1.063-.007-1.081-1.106-1.075-.409,0-.536-.124-.528-.529.007-.377.077-.553.512-.551,1.1,0,1.131-.018,1.119-1.119-.005-.5.239-.507.608-.511s.56.058.56.5c0,1.115.023,1.135,1.112,1.131.421,0,.521.15.522.541s-.1.541-.52.539c-1.11-.006-1.137.014-1.112,1.066.012.488-.169.631-.611.545" transform="translate(339.683 4573.993)" fill="#29c4bb"/>
        <path id="Trazado_127054" data-name="Trazado 127054" d="M213.642,151.161c.406-.078.632.057.565.517-.056.385.077.6.5.533s.57.088.573.537c0,.47-.189.578-.589.525-.383-.052-.5.115-.5.5.012.6-.357.826-.934.645-.274-.086-.214-.3-.2-.477.048-.472-.06-.76-.616-.666-.431.073-.457-.2-.456-.527s.014-.6.451-.53c.471.073.694-.1.616-.6-.075-.475.23-.5.582-.454" transform="translate(195.806 4552.685)" fill="#29c4bb"/>
        <path id="Trazado_127055" data-name="Trazado 127055" d="M210.718,69.268c.1.453-.1.608-.527.537-.46-.078-.648.111-.567.569s-.113.548-.542.553-.609-.127-.532-.557c.082-.459-.109-.648-.565-.562-.472.089-.513-.158-.531-.555-.021-.466.16-.588.566-.517.441.077.606-.106.531-.537-.072-.412.061-.579.521-.563.4.014.639.072.552.536s.115.639.567.563c.425-.072.632.081.526.534" transform="translate(199.254 4608.526)" fill="#010000"/>
        <path id="Trazado_127056" data-name="Trazado 127056" d="M55.04,186.64c.1.423-.11.578-.532.5-.5-.09-.614.169-.543.587.079.465-.146.537-.555.535-.39,0-.6-.091-.518-.511.108-.553-.169-.688-.645-.607s-.466-.225-.467-.559.007-.6.448-.512c.593.117.745-.168.665-.7-.077-.508.311-.362.569-.377.274-.016.579-.052.5.389-.1.545.092.8.67.687.482-.092.423.243.409.566" transform="translate(311.829 4530.025)" fill="#010000"/>
        <path id="Trazado_127057" data-name="Trazado 127057" d="M121.786,17.426c-.114-.483.153-.577.548-.518.41.061.572-.109.509-.513s.058-.588.522-.578c.427.009.623.119.548.558s.131.6.553.533c.391-.059.587.035.589.513s-.182.62-.608.553c-.45-.072-.6.133-.533.553.078.472-.175.526-.572.534-.424.009-.562-.151-.5-.54.068-.427-.09-.622-.535-.547s-.62-.106-.523-.547" transform="translate(261.153 4643.184)" fill="#29c4bb"/>
      </g>
      <g id="Grupo_157510" data-name="Grupo 157510" transform="translate(337 10939)">
        <g id="Grupo_157510-2" data-name="Grupo 157510" clip-path="url(#clip-path)">
          <path id="Trazado_129652" data-name="Trazado 129652" d="M36.863,40.837c-4.012,0-8.024-.012-12.036.006-1.577.007-1.614-.045-1.587-1.61a7.719,7.719,0,0,1,.162-1.6,5.934,5.934,0,0,1,1.531-2.84c.58-.6,1.168-1.2,1.773-1.775a5.99,5.99,0,0,1,4.222-1.706c.95-.007,1.9-.016,2.849.007.308.007.381-.087.363-.377a4.54,4.54,0,0,0-.037-1.222c-.14-.374-.667-.395-1.007-.6a6.07,6.07,0,0,1-2.952-4.3c-.045-.256-.126-.329-.372-.317a2.878,2.878,0,0,1-.928-.067,2.039,2.039,0,0,1-1.512-1.886c-.015-.453-.008-.907,0-1.361a2.042,2.042,0,0,1,2.107-2.125c.614-.007.614-.007.614-.62,0-.695-.007-1.389,0-2.084a.408.408,0,0,0-.239-.43,3.308,3.308,0,0,1-1.8-3.094.58.58,0,0,0-.184-.443,4.032,4.032,0,0,1,.011-5.727.583.583,0,0,0,.172-.447,3.362,3.362,0,0,1,2.52-3.369.4.4,0,0,0,.318-.322A3.384,3.384,0,0,1,34.27,0q2.552-.005,5.1,0c.662,0,.885.227.887.9,0,.468.008.936,0,1.4a.321.321,0,0,0,.221.352c.176.08.256,0,.358-.105.3-.3.6-.607.9-.9a.686.686,0,0,1,1.109-.018q1.3,1.283,2.587,2.586a.687.687,0,0,1,0,1.109c-.285.3-.579.584-.871.873-.121.12-.239.211-.135.427.091.188.216.187.375.186.5,0,.992-.007,1.488,0a.694.694,0,0,1,.779.789q.008,1.935,0,3.87a.694.694,0,0,1-.786.782c-.51.006-1.021.007-1.531,0a.289.289,0,0,0-.324.2.28.28,0,0,0,.078.365c.319.3.629.614.933.931a.688.688,0,0,1-.007,1.109c-.5.517-1.014,1.031-1.534,1.533a.676.676,0,0,0-.236.551c.017.609.018,1.219,0,1.829-.007.248.074.311.309.3a2.775,2.775,0,0,1,.886.063,2.036,2.036,0,0,1,1.529,1.916c.013.467.01.936,0,1.4A2.043,2.043,0,0,1,44.336,24.5c-.688.015-.678.017-.837.673a6,6,0,0,1-3.6,4.283c-.246.108-.349.218-.33.49.029.436-.15,1.027.07,1.272.251.279.851.069,1.3.087a17.271,17.271,0,0,1,3.135.144,6.1,6.1,0,0,1,3.013,1.642c.536.527,1.069,1.056,1.593,1.594a6.063,6.063,0,0,1,1.785,4.362c0,.312,0,.624,0,.936,0,.61-.24.851-.847.852q-2.722,0-5.444,0Z" transform="translate(-17.117 0.001)"/>
          <path id="Trazado_129653" data-name="Trazado 129653" d="M122.979,18.09c.425,0,.85-.006,1.275,0a.7.7,0,0,1,.762.766c.02.419-.184.979.085,1.215.233.206.782.051,1.191.061a.688.688,0,0,1,.763.762q.012,1.275,0,2.55a.7.7,0,0,1-.756.773c-.42.02-.979-.182-1.218.079-.207.226-.056.778-.066,1.187a.7.7,0,0,1-.8.773q-1.253.009-2.507,0a.7.7,0,0,1-.779-.789c-.005-.34-.012-.68,0-1.02.008-.192-.06-.242-.242-.235-.354.013-.708.011-1.062,0a.678.678,0,0,1-.739-.741q-.013-1.3,0-2.593a.677.677,0,0,1,.734-.745c.325-.009.653-.018.977,0,.248.015.362-.036.334-.317a8.163,8.163,0,0,1-.006-.85c0-.66.226-.878.9-.88.383,0,.765,0,1.148,0" transform="translate(-87.579 -13.325)"/>
          <path id="Trazado_129654" data-name="Trazado 129654" d="M0,24.741c0-.4,0-.793,0-1.19,0-.605.24-.835.857-.839.3,0,.6-.017.892.005.251.019.31-.078.3-.31-.018-.339-.013-.68,0-1.02a.668.668,0,0,1,.721-.714q1.317-.016,2.635,0a.677.677,0,0,1,.724.715c.025.433-.183,1.013.085,1.258.233.214.806.053,1.228.067a.67.67,0,0,1,.725.712q.018,1.317,0,2.635a.679.679,0,0,1-.748.733c-.34.008-.681.018-1.019,0-.236-.015-.285.077-.275.289.015.339.011.68,0,1.02a.671.671,0,0,1-.7.734q-1.339.019-2.677,0a.662.662,0,0,1-.7-.694c-.014-.354-.016-.709,0-1.062.01-.216-.047-.3-.278-.286-.324.02-.651.009-.977,0A.7.7,0,0,1,0,26.016c-.007-.425,0-.85,0-1.275" transform="translate(0 -15.223)"/>
          <path id="Trazado_129655" data-name="Trazado 129655" d="M20.164,71.291a.675.675,0,0,1-.686-.62,2.093,2.093,0,0,1,0-.466c.027-.231-.068-.3-.284-.276a2.174,2.174,0,0,1-.466,0,.664.664,0,0,1-.61-.693.648.648,0,0,1,.606-.652c.234-.033.541.06.694-.059s.03-.45.06-.685a.679.679,0,0,1,1.355.016c.029.234-.109.543.068.682.143.112.434.023.658.043a.673.673,0,0,1,.635.672.687.687,0,0,1-.629.68c-.235.03-.543-.107-.685.063-.114.136-.03.431-.05.654a.677.677,0,0,1-.663.645" transform="translate(-13.344 -49.513)"/>
          <path id="Trazado_129656" data-name="Trazado 129656" d="M120.406,84.753a.69.69,0,0,1-.753.687c-.59.021-.59.021-.605.584-.013.47-.267.765-.665.775-.414.01-.685-.295-.7-.786a1.861,1.861,0,0,1,0-.3c.031-.224-.057-.3-.28-.279a2.125,2.125,0,0,1-.466,0,.664.664,0,0,1-.613-.69.648.648,0,0,1,.6-.655c.234-.034.54.061.695-.057.17-.13.032-.449.062-.684a.679.679,0,0,1,1.355.009c.029.234-.108.543.067.683.141.112.433.025.656.045a.674.674,0,0,1,.638.669" transform="translate(-85.696 -60.937)"/>
          <path id="Trazado_129657" data-name="Trazado 129657" d="M54.279,63.541a3.515,3.515,0,0,0,2.2,1.284,4.8,4.8,0,0,0,.676.046q2.53.006,5.059,0c.673,0,.9-.223.9-.882,0-.468.006-.936,0-1.4a.326.326,0,0,1,.208-.362c.2-.092.275.023.394.122.461.386.762.959,1.374,1.171.128.045.067.172.067.26,0,2.027.035,4.054-.013,6.08a4.723,4.723,0,0,1-4.54,4.529,9.648,9.648,0,0,1-2.748-.143,4.739,4.739,0,0,1-3.579-4.52c-.024-1.984-.007-3.968-.007-5.952,0-.05,0-.1.01-.232" transform="translate(-39.974 -45.815)" fill="#f6cba8"/>
          <path id="Trazado_129658" data-name="Trazado 129658" d="M49.519,13.312c0,2.593-.006,5.187.008,7.78,0,.314-.068.413-.392.4-.565-.03-1.134.007-1.7-.013a2.018,2.018,0,0,1-1.779-1.119c-.113-.2-.147-.315.145-.414a3.327,3.327,0,0,0,2.318-2.731,2.355,2.355,0,0,0,.036-.38.693.693,0,0,0-.645-.792c-.4-.019-.675.265-.713.729a2.037,2.037,0,1,1-4.051-.357.931.931,0,0,0-.377-.991,2.688,2.688,0,0,1,0-4.213.923.923,0,0,0,.377-.99,2.038,2.038,0,1,1,4.044-.486,1.011,1.011,0,0,0,.137.567.639.639,0,0,0,.748.257.683.683,0,0,0,.485-.716,3.355,3.355,0,0,0-2.239-3.107c-.406-.138-.39-.29-.206-.574A2.03,2.03,0,0,1,47.433,5.15c.566-.016,1.135.017,1.7-.012.32-.016.4.077.394.394-.014,2.593-.008,5.187-.008,7.78" transform="translate(-30.46 -3.784)" fill="#dfb898"/>
          <path id="Trazado_129659" data-name="Trazado 129659" d="M34.156,130.876c-1.784,0-3.569-.008-5.353.008-.315,0-.4-.073-.4-.394a4.785,4.785,0,0,1,1.376-3.412c.584-.6,1.171-1.193,1.778-1.766a4.748,4.748,0,0,1,2.782-1.232.4.4,0,0,1,.513.34c.311,1,.65,1.988.98,2.98.22.662.349.754,1.036.755.921,0,1.841.009,2.762-.006.268,0,.368.056.359.345-.022.679-.021,1.36,0,2.039.008.282-.079.352-.354.35-1.827-.012-3.654-.006-5.48-.006" transform="translate(-20.925 -91.4)" fill="#3396e7"/>
          <path id="Trazado_129660" data-name="Trazado 129660" d="M83.288,130.878c-1.8,0-3.6-.007-5.4.007-.293,0-.388-.067-.377-.371.024-.679.021-1.36,0-2.039-.008-.271.082-.329.336-.325.934.014,1.869.006,2.8.006.66,0,.8-.1,1.008-.734.335-1.005.679-2.008.995-3.02a.383.383,0,0,1,.483-.321,4.7,4.7,0,0,1,2.788,1.217c.629.592,1.239,1.2,1.838,1.827a4.767,4.767,0,0,1,1.333,3.387c0,.3-.076.376-.374.374-1.813-.014-3.625-.007-5.438-.007" transform="translate(-57.102 -91.401)" fill="#3396e7"/>
          <path id="Trazado_129661" data-name="Trazado 129661" d="M77.524,19.786c0-.439.015-.879-.006-1.318-.012-.272.037-.38.353-.4a4.757,4.757,0,0,0,0-9.489c-.27-.02-.357-.082-.352-.361q.027-1.36,0-2.72c-.006-.289.091-.347.359-.347,1.01,0,1.01-.008,1.01,1.006,0,.156,0,.312,0,.468,0,.559.121.718.635.914.3.116.6.246.893.389a.713.713,0,0,0,.892-.144c.273-.268.547-.535.81-.813.128-.135.217-.131.345,0,.465.476.934.95,1.414,1.412.16.155.112.248-.023.376-.258.243-.5.5-.754.749a.739.739,0,0,0-.161.959,8.44,8.44,0,0,1,.4.936.76.76,0,0,0,.8.564c.425-.01.851.009,1.275-.007.221-.008.293.057.289.285q-.021,1.083,0,2.168c0,.234-.082.285-.295.278-.424-.014-.85,0-1.275-.006a.742.742,0,0,0-.778.529q-.2.514-.433,1.013a.707.707,0,0,0,.128.858c.058.062.122.118.179.182.25.284.748.515.719.829-.028.3-.47.559-.735.832-.237.244-.49.473-.717.725-.154.171-.259.154-.407-.007-.249-.271-.517-.525-.78-.783a.714.714,0,0,0-.892-.14c-.33.16-.67.3-1.013.433a.724.724,0,0,0-.513.744c0,.425-.009.851.005,1.275.008.224-.037.318-.294.323-1.071.023-1.071.033-1.071-1.031Z" transform="translate(-57.104 -3.793)" fill="#3396e7"/>
          <path id="Trazado_129662" data-name="Trazado 129662" d="M77.528,26.674c0-1.02.009-2.04-.006-3.059,0-.268.049-.367.343-.337a3.414,3.414,0,0,1,0,6.792c-.292.03-.348-.066-.344-.336.015-1.019.006-2.039.006-3.059" transform="translate(-57.108 -17.144)" fill="#e8edf1"/>
          <path id="Trazado_129663" data-name="Trazado 129663" d="M71.145,113.664c.354,0,.71.022,1.061-.007.258-.021.306.072.3.3-.014.552,0,1.1-.006,1.657a.7.7,0,0,1-.79.779c-.4.006-.793.009-1.189,0a.679.679,0,0,1-.738-.743c-.01-.58,0-1.161-.007-1.742,0-.205.056-.264.265-.252.367.021.736.006,1.1.006v0" transform="translate(-51.402 -83.725)" fill="#dfb898"/>
          <path id="Trazado_129664" data-name="Trazado 129664" d="M61.014,126.774c-.663,0-1.327.006-1.99.016a.272.272,0,0,1-.311-.211c-.263-.817-.539-1.63-.833-2.512.613,0,1.181,0,1.75,0,.12,0,.166.069.212.167a2.333,2.333,0,0,0,1.178,1.1,1.74,1.74,0,0,1-.006,1.44" transform="translate(-42.638 -91.396)" fill="#2977b7"/>
          <path id="Trazado_129665" data-name="Trazado 129665" d="M79.689,125.332a2.291,2.291,0,0,0,1.176-1.1.27.27,0,0,1,.3-.167c.535,0,1.071,0,1.662,0-.29.876-.57,1.714-.844,2.553-.051.157-.162.171-.3.17-.663-.006-1.327-.01-1.99-.014a1.741,1.741,0,0,1-.006-1.44" transform="translate(-58.592 -91.393)" fill="#2977b7"/>
          <path id="Trazado_129666" data-name="Trazado 129666" d="M45.3,78.693c0,.368-.008.737,0,1.1.005.178-.043.237-.234.249-.879.052-1.13-.17-1.13-1.042,0-.326-.011-.652,0-.977a.919.919,0,0,1,1.282-.7c.116.064.073.173.074.264.005.368,0,.736,0,1.1" transform="translate(-32.363 -56.898)" fill="#dfb898"/>
          <path id="Trazado_129667" data-name="Trazado 129667" d="M100.789,78.872c0-.34.013-.68,0-1.019-.012-.24.029-.345.314-.344.854,0,1.052.181,1.052,1.037,0,.312.007.623,0,.934a.91.91,0,0,1-1.278.754c-.121-.062-.078-.169-.08-.258-.005-.368,0-.736,0-1.1" transform="translate(-74.243 -57.098)" fill="#dfb898"/>
          <path id="Trazado_129668" data-name="Trazado 129668" d="M69.781,130.324l.006-1.44c.677.112.677.112.677.768a1.274,1.274,0,0,0,0,.21c.065.385-.09.542-.476.475a1.975,1.975,0,0,0-.21-.014" transform="translate(-51.405 -94.945)" fill="#12619f"/>
          <path id="Trazado_129669" data-name="Trazado 129669" d="M78.222,128.884l.006,1.44c-.683.036-.683.036-.683-.629v-.042c0-.657,0-.657.677-.769" transform="translate(-57.125 -94.945)" fill="#12619f"/>
          <path id="Trazado_129670" data-name="Trazado 129670" d="M127.451,24.049c0,.142,0,.284,0,.425.009.576.25.811.838.819.071,0,.142,0,.213,0,.32.022.808-.142.923.066.163.295.053.738.068,1.118.008.206-.133.175-.256.176-.354,0-.709-.008-1.063,0a.673.673,0,0,0-.72.718c-.012.354-.014.709,0,1.063.008.206-.062.255-.263.264-1.1.047-1.1.053-1.1-1.036,0-.832-.183-1.011-1.029-1.011-1.032,0-1.023,0-1.019-1.035,0-.255.054-.353.326-.332a8.9,8.9,0,0,0,1.02,0,.669.669,0,0,0,.7-.7c.014-.368.013-.737,0-1.105-.006-.189.059-.257.243-.238.112.011.226,0,.34,0,.782,0,.782,0,.782.8" transform="translate(-91.377 -17.125)" fill="#fed23a"/>
          <path id="Trazado_129671" data-name="Trazado 129671" d="M7.152,30.428c0-.142,0-.284,0-.425a.7.7,0,0,0-.8-.772c-.326,0-.653-.011-.978,0-.2.008-.261-.046-.27-.256-.052-1.109-.059-1.108,1.031-1.109.836,0,1.017-.182,1.017-1.024,0-1.036,0-1.022,1.03-1.027.3,0,.353.106.336.364-.019.3-.008.6,0,.893a.7.7,0,0,0,.778.792c.34.007.681.009,1.02,0,.179-.006.271.043.243.236a.228.228,0,0,0,0,.042c.044,1.085.044,1.085-1.047,1.087-.823,0-.995.18-1,1.044,0,1.009,0,1-1.008,1-.26,0-.4-.042-.358-.34a3.7,3.7,0,0,0,0-.51" transform="translate(-3.747 -19.019)" fill="#fed23a"/>
          <path id="Trazado_129672" data-name="Trazado 129672" d="M67.464,90.6A3.531,3.531,0,0,1,65.6,90.17a1.978,1.978,0,0,1-.961-1.383.722.722,0,0,1,.511-.9.7.7,0,0,1,.828.591.631.631,0,0,0,.024.124c.33.622.919.636,1.507.622.674-.016,1.074-.273,1.2-.736s.442-.688.819-.6a.728.728,0,0,1,.516.93,2.142,2.142,0,0,1-1.768,1.676,2.759,2.759,0,0,1-.811.1" transform="translate(-47.604 -64.732)"/>
          <path id="Trazado_129673" data-name="Trazado 129673" d="M65.311,77.55a.679.679,0,1,1-.68.665.683.683,0,0,1,.68-.665" transform="translate(-47.611 -57.129)" fill="#030202"/>
          <path id="Trazado_129674" data-name="Trazado 129674" d="M80.819,77.55a.679.679,0,1,1-.68.665.683.683,0,0,1,.68-.665" transform="translate(-59.036 -57.129)" fill="#030202"/>
          <path id="Trazado_129675" data-name="Trazado 129675" d="M53.756,33.739a2.062,2.062,0,0,1-2.041-1.79c-.063-.506.165-.869.582-.925s.689.205.768.709a.671.671,0,0,0,.669.639c.368.022.62-.231.691-.659.078-.473.355-.73.745-.691a.714.714,0,0,1,.611.862,2.058,2.058,0,0,1-2.024,1.854" transform="translate(-38.089 -22.85)"/>
        </g>
      </g>
    </g>
  </g>
</svg>
