<svg xmlns="http://www.w3.org/2000/svg" xmlns:xlink="http://www.w3.org/1999/xlink" width="69" height="84" viewBox="0 0 69 84">
  <defs>
    <clipPath id="clip-path">
      <rect id="Rect치ngulo_37602" data-name="Rect치ngulo 37602" width="41.804" height="42.968" fill="none"/>
    </clipPath>
  </defs>
  <g id="_37" data-name="37" transform="translate(-323 -10916.999)">
    <g id="Grupo_156377" data-name="Grupo 156377" transform="translate(323.373 10917.391)">
      <rect id="Rect치ngulo_36766" data-name="Rect치ngulo 36766" width="69" height="84" rx="12" transform="translate(-0.373 -0.391)" fill="#0c487b"/>
    </g>
    <g id="Grupo_156647" data-name="Grupo 156647" transform="translate(1)">
      <g id="Grupo_156582" data-name="Grupo 156582" transform="translate(-26 6270)">
        <path id="Trazado_127053" data-name="Trazado 127053" d="M15.507,123.96c-.454.1-.559-.113-.555-.537.012-1.063-.007-1.081-1.106-1.075-.409,0-.536-.124-.528-.529.007-.377.077-.553.512-.551,1.1,0,1.131-.018,1.119-1.119-.005-.5.239-.507.608-.511s.56.058.56.5c0,1.115.023,1.135,1.112,1.131.421,0,.521.15.522.541s-.1.541-.52.539c-1.11-.006-1.137.014-1.112,1.066.012.488-.169.631-.611.545" transform="translate(339.683 4573.993)" fill="#29c4bb"/>
        <path id="Trazado_127054" data-name="Trazado 127054" d="M213.642,151.161c.406-.078.632.057.565.517-.056.385.077.6.5.533s.57.088.573.537c0,.47-.189.578-.589.525-.383-.052-.5.115-.5.5.012.6-.357.826-.934.645-.274-.086-.214-.3-.2-.477.048-.472-.06-.76-.616-.666-.431.073-.457-.2-.456-.527s.014-.6.451-.53c.471.073.694-.1.616-.6-.075-.475.23-.5.582-.454" transform="translate(195.806 4552.685)" fill="#29c4bb"/>
        <path id="Trazado_127055" data-name="Trazado 127055" d="M210.718,69.268c.1.453-.1.608-.527.537-.46-.078-.648.111-.567.569s-.113.548-.542.553-.609-.127-.532-.557c.082-.459-.109-.648-.565-.562-.472.089-.513-.158-.531-.555-.021-.466.16-.588.566-.517.441.077.606-.106.531-.537-.072-.412.061-.579.521-.563.4.014.639.072.552.536s.115.639.567.563c.425-.072.632.081.526.534" transform="translate(199.254 4608.526)" fill="#010000"/>
        <path id="Trazado_127056" data-name="Trazado 127056" d="M55.04,186.64c.1.423-.11.578-.532.5-.5-.09-.614.169-.543.587.079.465-.146.537-.555.535-.39,0-.6-.091-.518-.511.108-.553-.169-.688-.645-.607s-.466-.225-.467-.559.007-.6.448-.512c.593.117.745-.168.665-.7-.077-.508.311-.362.569-.377.274-.016.579-.052.5.389-.1.545.092.8.67.687.482-.092.423.243.409.566" transform="translate(311.829 4530.025)" fill="#010000"/>
        <path id="Trazado_127057" data-name="Trazado 127057" d="M121.786,17.426c-.114-.483.153-.577.548-.518.41.061.572-.109.509-.513s.058-.588.522-.578c.427.009.623.119.548.558s.131.6.553.533c.391-.059.587.035.589.513s-.182.62-.608.553c-.45-.072-.6.133-.533.553.078.472-.175.526-.572.534-.424.009-.562-.151-.5-.54.068-.427-.09-.622-.535-.547s-.62-.106-.523-.547" transform="translate(261.153 4643.184)" fill="#29c4bb"/>
      </g>
      <g id="Grupo_157511" data-name="Grupo 157511" transform="translate(336 10938)">
        <g id="Grupo_157511-2" data-name="Grupo 157511" clip-path="url(#clip-path)">
          <path id="Trazado_129676" data-name="Trazado 129676" d="M40.453,4.76c.372-.083.559.085.7.427a8.375,8.375,0,0,1-6.244,11.448,8.146,8.146,0,0,1-8.376-3.43c-.161-.215-.249-.286-.515-.133q-3.851,2.219-7.724,4.4c-.234.132-.27.225-.155.476a9.309,9.309,0,0,1,.009,8.031c-.125.277-.066.37.17.5q3.633,2.046,7.25,4.119c.291.167.412.128.524-.163a4.282,4.282,0,0,1,.236-.4.516.516,0,0,1,.7-.3c.386.16.277.453.159.709-.171.372-.394.718-.572,1.088a7.429,7.429,0,0,0,1.627,8.357c.023.021.046.031.11.026,0-.444-.005-.893,0-1.342a3.53,3.53,0,0,1,1.947-3.2c.409-.229.415-.218.195-.613a3.387,3.387,0,1,1,6.215-2.45,3.222,3.222,0,0,1-.453,2.517c-.136.216-.173.355.108.493a3.8,3.8,0,0,1,2.144,3.662,8.05,8.05,0,0,0,.019.881A5.381,5.381,0,0,0,39.8,38.336,7.451,7.451,0,0,0,34.56,27.216a7.209,7.209,0,0,0-4.411.673,5.337,5.337,0,0,1-.729.342c-.245.077-.486.092-.573-.237-.123-.312.017-.5.28-.66a8.433,8.433,0,1,1-3.665,4.521c.082-.239.034-.337-.18-.457q-3.7-2.089-7.394-4.2c-.242-.139-.336-.1-.494.119a9.123,9.123,0,0,1-9.3,4.032A9.069,9.069,0,0,1,.343,24.335a9.1,9.1,0,0,1,1.174-7.476c.167-.269.346-.5.712-.337.305.188.363.385.169.727-.181.32-.377.632-.531.966a8.271,8.271,0,0,0,.523,8.4,8.214,8.214,0,0,0,7.378,3.9,8.122,8.122,0,0,0,5.218-1.96,8.139,8.139,0,0,0,3.062-5.848,8.158,8.158,0,0,0-3.834-7.865,8.275,8.275,0,0,0-9.29-.063c-.492.291-.638.294-.9-.024-.173-.37.031-.567.318-.757a9.507,9.507,0,0,1,12.993,2.55c.212.312.347.311.645.139q3.78-2.172,7.579-4.31c.277-.156.315-.284.184-.579A8.386,8.386,0,0,1,33.9.016a8.3,8.3,0,0,1,4.911,1.958c.284.234.383.476.174.8-.276.315-.529.148-.768-.046a7.924,7.924,0,0,0-2.066-1.236,7.435,7.435,0,0,0-8.306,11.844,1.315,1.315,0,0,0,.461.4,2.76,2.76,0,0,0,.044-.937,3.613,3.613,0,0,1,2.137-3.677c.295-.147.162-.3.055-.469a3.252,3.252,0,0,1-.138-3.35,3.385,3.385,0,0,1,3.28-1.838,3.456,3.456,0,0,1,3.015,2.6,3.228,3.228,0,0,1-.45,2.6c-.146.234-.187.336.12.484a3.588,3.588,0,0,1,2.064,2.864,14.321,14.321,0,0,1,.083,1.752,7.171,7.171,0,0,0,1.951-3.081,7.334,7.334,0,0,0-.176-5.065c-.2-.506-.164-.649.164-.861" transform="translate(0 -0.001)"/>
          <path id="Trazado_129677" data-name="Trazado 129677" d="M6.039,45.351c.3.254.562.107.841-.07a8.528,8.528,0,0,1,10.183.62,8.233,8.233,0,0,1,2.849,8.841,8.184,8.184,0,0,1-6.795,6.323A8.621,8.621,0,0,1,2.909,51.995a8.431,8.431,0,0,1,1.353-4.1c.176-.272.282-.529-.018-.782l.539-.635a.117.117,0,0,1,.036-.019c.555-.065.555-.065.606-.59l.614-.52" transform="translate(-2.014 -30.594)" fill="#efbf20"/>
          <path id="Trazado_129678" data-name="Trazado 129678" d="M88.356,90.165c.23.276.477.216.749.057a7.537,7.537,0,0,1,11.173,4.916,7.417,7.417,0,0,1-2.14,7.021c-.056.057-.123.1-.264.219,0-.37-.012-.659,0-.946a3.731,3.731,0,0,0-2.5-4.054,3.362,3.362,0,0,0,.78-2.606A3.243,3.243,0,0,0,95.03,92.7a3.281,3.281,0,0,0-4.244,0c-1.371,1.165-1.5,2.805-.366,4.7-2.342.87-2.643,2.779-2.422,5.032a5.363,5.363,0,0,1-.859-.837,7.526,7.526,0,0,1-.649-8.813c.177-.287.36-.559.047-.866l.528-.623c.576-.061.576-.061.654-.6l.636-.524" transform="translate(-59.508 -62.171)" fill="#fb5d3d"/>
          <path id="Trazado_129679" data-name="Trazado 129679" d="M99.911,6.706c-.272.25-.184.515-.065.809A7.511,7.511,0,0,1,98.2,15.664c-.1.1-.2.186-.374.348,0-.456-.009-.817,0-1.176a3.66,3.66,0,0,0-2.5-3.845,3.337,3.337,0,0,0,.741-2.846A3.236,3.236,0,0,0,94.89,6.237a3.286,3.286,0,0,0-4.211.116,3.332,3.332,0,0,0-.3,4.647c-2.334.871-2.671,2.76-2.443,4.884-.183.084-.234-.031-.294-.092a7.259,7.259,0,0,1-1.933-7.783,7.525,7.525,0,0,1,12-3.433.64.64,0,0,0,.731.146l.6.549c-.045.527-.045.527.5.731a2.627,2.627,0,0,1,.374.7" transform="translate(-59.458 -1.947)" fill="#72c0e7"/>
          <path id="Trazado_129680" data-name="Trazado 129680" d="M62.357,22.109a.387.387,0,0,1-.313.4,1.913,1.913,0,0,0-1.417,1.667c0,.014-.011.026-.015.04-.056.242-.182.425-.453.42s-.4-.195-.436-.438a1.9,1.9,0,0,0-1.408-1.673.423.423,0,0,1-.34-.432.4.4,0,0,1,.316-.4,1.938,1.938,0,0,0,1.424-1.666,1.519,1.519,0,0,1,.065-.2.421.421,0,0,1,.781.014c.065.2.112.408.18.608A1.686,1.686,0,0,0,61.9,21.636c.234.067.465.16.455.473" transform="translate(-40.416 -13.642)"/>
          <path id="Trazado_129681" data-name="Trazado 129681" d="M45.159,113.383a.39.39,0,0,1-.392-.268,1.518,1.518,0,0,1-.078-.285,1.807,1.807,0,0,0-1.3-1.52c-.22-.069-.426-.179-.419-.463s.208-.38.435-.447a1.682,1.682,0,0,0,1.185-1.216c.053-.175.112-.349.158-.526a.408.408,0,0,1,.426-.339.423.423,0,0,1,.419.353c.054.189.109.379.168.567a1.624,1.624,0,0,0,1.137,1.152c.246.073.467.177.466.469,0,.269-.206.39-.436.45a1.893,1.893,0,0,0-1.311,1.615c-.064.254-.153.458-.458.459" transform="translate(-29.955 -75.509)"/>
          <path id="Trazado_129682" data-name="Trazado 129682" d="M121.96,61.2a.4.4,0,0,1-.384-.38,1.978,1.978,0,0,0-1.452-1.744.415.415,0,0,1-.32-.4.392.392,0,0,1,.305-.412,1.977,1.977,0,0,0,1.453-1.7c.007-.028.01-.056.017-.083a.429.429,0,0,1,.843-.013c.058.2.112.408.18.608A1.646,1.646,0,0,0,123.72,58.2c.24.073.469.161.477.459s-.224.4-.461.472a1.834,1.834,0,0,0-1.253,1.514c-.111.439-.22.551-.523.557" transform="translate(-83.516 -39.123)"/>
          <path id="Trazado_129683" data-name="Trazado 129683" d="M9.522,50.172a.456.456,0,0,1-.024.585.462.462,0,0,1-.619.024.435.435,0,0,1,.025-.609.475.475,0,0,1,.617,0" transform="translate(-6.112 -34.895)" fill="#050403"/>
          <path id="Trazado_129684" data-name="Trazado 129684" d="M91.4,93.87a.452.452,0,0,1-.034.584.468.468,0,0,1-.62.013c-.116-.212-.169-.426.039-.61a.469.469,0,0,1,.615.012" transform="translate(-63.188 -65.352)" fill="#060404"/>
          <path id="Trazado_129685" data-name="Trazado 129685" d="M130.769,11.6c-.222.054-.444.1-.6-.135a.451.451,0,0,1,.1-.6c.224-.067.441-.092.6.132s.048.418-.1.6" transform="translate(-90.69 -7.54)" fill="#030404"/>
          <path id="Trazado_129686" data-name="Trazado 129686" d="M96.712,109.819a6.644,6.644,0,0,1,.086-1.48,2.636,2.636,0,0,1,1.707-1.856c.891-.329,1.023-.77.434-1.5a2.43,2.43,0,1,1,3.729.025c-.559.677-.42,1.175.407,1.464A2.659,2.659,0,0,1,104.922,109c.029.678,0,1.358.015,2.036a.43.43,0,0,1-.28.422,7.488,7.488,0,0,1-7.709-.015.419.419,0,0,1-.239-.44c.013-.367,0-.735,0-1.185" transform="translate(-67.416 -70.409)" fill="#72c0e7"/>
          <path id="Trazado_129687" data-name="Trazado 129687" d="M96.71,23.439a6.85,6.85,0,0,1,.06-1.362,2.653,2.653,0,0,1,1.791-1.983c.8-.283.948-.787.418-1.434a2.43,2.43,0,1,1,4.255-1.813,2.371,2.371,0,0,1-.58,1.806c-.542.657-.4,1.146.4,1.438a2.583,2.583,0,0,1,1.844,2.353c.058.745.02,1.5.035,2.247a.373.373,0,0,1-.224.367,7.488,7.488,0,0,1-7.782.009.391.391,0,0,1-.22-.408c.012-.382,0-.764,0-1.221" transform="translate(-67.414 -10.206)" fill="#efbf20"/>
          <path id="Trazado_129688" data-name="Trazado 129688" d="M14.693,55.387H14.9a7.208,7.208,0,0,0,4.8-1.128c.188-.094.3-.192.269-.413a2.388,2.388,0,0,1,0-.339.419.419,0,1,1,.838-.019c.016.466.007.933.008,1.4,0,.155,0,.311,0,.466a2.924,2.924,0,0,0,.019.843c.1.316.481.168.725.279a1.773,1.773,0,0,1,1.063,1.766,1.663,1.663,0,0,1-1.346,1.5c-.389.065-.49.21-.472.593.037.748.011,1.5.011,2.247,0,.29-.056.564-.414.574-.391.011-.478-.28-.427-.582.077-.459-.146-.658-.535-.8a5.938,5.938,0,0,1-1-.459,4.455,4.455,0,0,0-2.641-.556c-.311.019-.343.123-.3.377.131.837.246,1.677.376,2.514a.94.94,0,0,1-1.013,1.211c-.254,0-.509.007-.764,0a.92.92,0,0,1-.976-.86c-.146-.963-.3-1.926-.421-2.892-.035-.27-.137-.346-.4-.347a1.3,1.3,0,0,1-1.219-.772.363.363,0,0,0-.413-.254,3.647,3.647,0,0,1-.508,0,.779.779,0,0,1-.87-.862c-.007-.537-.008-1.074,0-1.611a.763.763,0,0,1,.847-.836,2.061,2.061,0,0,1,.3,0,.615.615,0,0,0,.726-.378,1.219,1.219,0,0,1,1.156-.656c.792-.005,1.584,0,2.375,0v0" transform="translate(-6.473 -36.988)"/>
          <path id="Trazado_129689" data-name="Trazado 129689" d="M64.474,25.984a3.3,3.3,0,0,0-.7.788c-.032-.02-.065-.028-.073-.047-.145-.315-.663-.476-.589-.775.065-.263.447-.476.628-.8a2.863,2.863,0,0,0,.738.836" transform="translate(-43.988 -17.531)" fill="#ecbd20"/>
          <path id="Trazado_129690" data-name="Trazado 129690" d="M47.741,114.792a2.992,2.992,0,0,0,.746-.836,4.98,4.98,0,0,1,.581.736c.156.36-.365.478-.5.778-.083.188-.178-.025-.227-.092a3.551,3.551,0,0,0-.6-.587" transform="translate(-33.281 -79.44)" fill="#ecbd20"/>
          <path id="Trazado_129691" data-name="Trazado 129691" d="M125.382,63.4a3.038,3.038,0,0,0-.761-.777,4.223,4.223,0,0,0,.736-.871,3.106,3.106,0,0,0,.606.727c.15.116.045.181-.042.256a2.494,2.494,0,0,0-.538.665" transform="translate(-86.874 -43.044)" fill="#ecbd1f"/>
          <path id="Trazado_129692" data-name="Trazado 129692" d="M20.194,67.215c-.692,0-1.383.006-2.075,0a.574.574,0,0,1-.654-.649q-.016-1.186,0-2.372c.005-.449.2-.653.646-.655,1.4-.007,2.795,0,4.192-.009.267,0,.33.088.327.34-.013,1-.017,2,0,3.006.005.291-.095.353-.362.346-.691-.017-1.383-.005-2.075-.006" transform="translate(-12.17 -44.286)" fill="#72c0e7"/>
          <path id="Trazado_129693" data-name="Trazado 129693" d="M37.32,61.637c-.055-.842-.055-.842.691-1.182l1.408-.642c.12.1.075.2.075.292,0,1.751,0,3.5.008,5.254,0,.338-.055.436-.39.266-.49-.249-.993-.472-1.5-.688a.428.428,0,0,1-.318-.469c.028-.634.02-1.27.026-1.9.2-.292.556-.3.829-.464.1-.056.21-.08.308-.134.175-.094.307-.229.234-.438-.081-.231-.277-.184-.463-.144-.309.067-.566.32-.911.254" transform="translate(-25.998 -41.696)" fill="#fa5c3d"/>
          <path id="Trazado_129694" data-name="Trazado 129694" d="M23.945,78.447c.355-.093.488.084.527.506.074.8.211,1.594.348,2.386.044.255.025.365-.266.353-.927-.038-.735.167-.879-.755-.1-.627-.184-1.256-.285-1.883-.1-.608-.1-.607.556-.607" transform="translate(-16.271 -54.669)" fill="#fa5c3d"/>
          <path id="Trazado_129695" data-name="Trazado 129695" d="M37.378,64.846c.3-.124.6-.249.9-.37.251-.1.492-.091.6.185s-.023.488-.3.6l-1.2.508,0-.926" transform="translate(-26.056 -44.905)" fill="#fec9c0"/>
          <path id="Trazado_129696" data-name="Trazado 129696" d="M47.329,67.561c0-.141-.008-.282,0-.422s-.07-.321.062-.393c.155-.084.331.017.473.106a.82.82,0,0,1,.415.858.85.85,0,0,1-.669.73c-.194.054-.3.023-.286-.2s0-.45,0-.675" transform="translate(-32.984 -46.507)" fill="#71bfe6"/>
          <path id="Trazado_129697" data-name="Trazado 129697" d="M12.861,67.678a2.469,2.469,0,0,0,0,.379c.057.354-.083.456-.434.439-.272-.013-.375-.078-.351-.357s0-.533,0-.8c0-.451.2-.588.645-.469.139.037.13.122.131.218,0,.2,0,.393,0,.59" transform="translate(-8.418 -46.587)" fill="#fb5d3d"/>
          <path id="Trazado_129698" data-name="Trazado 129698" d="M22.49,66.66c.551,0,1.1.021,1.653-.008.365-.019.374.172.371.441,0,.25-.005.428-.348.422-1.088-.018-2.176-.006-3.264-.008a.945.945,0,0,1-.291-.038c-.218-.072-.377-.2-.347-.463s.2-.348.446-.347c.594,0,1.187,0,1.781,0" transform="translate(-14.123 -46.463)" fill="#c4e4fe"/>
        </g>
      </g>
    </g>
  </g>
</svg>
