<svg xmlns="http://www.w3.org/2000/svg" xmlns:xlink="http://www.w3.org/1999/xlink" width="69" height="84" viewBox="0 0 69 84">
  <defs>
    <clipPath id="clip-path">
      <rect id="Rect치ngulo_37607" data-name="Rect치ngulo 37607" width="44.229" height="44.229" fill="none"/>
    </clipPath>
  </defs>
  <g id="Grupo_157282" data-name="Grupo 157282" transform="translate(-323 -10917)">
    <g id="Grupo_156377" data-name="Grupo 156377" transform="translate(323.373 10917.392)">
      <rect id="Rect치ngulo_36766" data-name="Rect치ngulo 36766" width="69" height="84" rx="12" transform="translate(-0.373 -0.391)" fill="#0c487b"/>
    </g>
    <g id="Grupo_156647" data-name="Grupo 156647" transform="translate(1)">
      <g id="Grupo_156582" data-name="Grupo 156582" transform="translate(-26 6270)">
        <path id="Trazado_127053" data-name="Trazado 127053" d="M15.507,123.96c-.454.1-.559-.113-.555-.537.012-1.063-.007-1.081-1.106-1.075-.409,0-.536-.124-.528-.529.007-.377.077-.553.512-.551,1.1,0,1.131-.018,1.119-1.119-.005-.5.239-.507.608-.511s.56.058.56.5c0,1.115.023,1.135,1.112,1.131.421,0,.521.15.522.541s-.1.541-.52.539c-1.11-.006-1.137.014-1.112,1.066.012.488-.169.631-.611.545" transform="translate(339.683 4573.993)" fill="#29c4bb"/>
        <path id="Trazado_127054" data-name="Trazado 127054" d="M213.642,151.161c.406-.078.632.057.565.517-.056.385.077.6.5.533s.57.088.573.537c0,.47-.189.578-.589.525-.383-.052-.5.115-.5.5.012.6-.357.826-.934.645-.274-.086-.214-.3-.2-.477.048-.472-.06-.76-.616-.666-.431.073-.457-.2-.456-.527s.014-.6.451-.53c.471.073.694-.1.616-.6-.075-.475.23-.5.582-.454" transform="translate(195.806 4552.685)" fill="#29c4bb"/>
        <path id="Trazado_127055" data-name="Trazado 127055" d="M210.718,69.268c.1.453-.1.608-.527.537-.46-.078-.648.111-.567.569s-.113.548-.542.553-.609-.127-.532-.557c.082-.459-.109-.648-.565-.562-.472.089-.513-.158-.531-.555-.021-.466.16-.588.566-.517.441.077.606-.106.531-.537-.072-.412.061-.579.521-.563.4.014.639.072.552.536s.115.639.567.563c.425-.072.632.081.526.534" transform="translate(199.254 4608.526)" fill="#010000"/>
        <path id="Trazado_127056" data-name="Trazado 127056" d="M55.04,186.64c.1.423-.11.578-.532.5-.5-.09-.614.169-.543.587.079.465-.146.537-.555.535-.39,0-.6-.091-.518-.511.108-.553-.169-.688-.645-.607s-.466-.225-.467-.559.007-.6.448-.512c.593.117.745-.168.665-.7-.077-.508.311-.362.569-.377.274-.016.579-.052.5.389-.1.545.092.8.67.687.482-.092.423.243.409.566" transform="translate(311.829 4530.025)" fill="#010000"/>
        <path id="Trazado_127057" data-name="Trazado 127057" d="M121.786,17.426c-.114-.483.153-.577.548-.518.41.061.572-.109.509-.513s.058-.588.522-.578c.427.009.623.119.548.558s.131.6.553.533c.391-.059.587.035.589.513s-.182.62-.608.553c-.45-.072-.6.133-.533.553.078.472-.175.526-.572.534-.424.009-.562-.151-.5-.54.068-.427-.09-.622-.535-.547s-.62-.106-.523-.547" transform="translate(261.153 4643.184)" fill="#29c4bb"/>
      </g>
      <g id="Grupo_157520" data-name="Grupo 157520" transform="translate(331.273 10935.915)">
        <g id="Grupo_157520-2" data-name="Grupo 157520" clip-path="url(#clip-path)">
          <path id="Trazado_129728" data-name="Trazado 129728" d="M37.6,0c.478.112.962.206,1.434.34a8.456,8.456,0,0,1,5.271,11.8c-.161.33-.074.414.209.537a6.866,6.866,0,0,1,2.539,1.95c.327.392.314.622-.026,1.016-.316.338-.664.308-1.033-.112a6.67,6.67,0,0,0-1.084-1.025,3.272,3.272,0,0,0-.623-.37c-.039-.018-.077-.038-.116-.058-.691-.351-.706-.312-1.227.243a8.363,8.363,0,0,1-4.969,2.626,6.5,6.5,0,0,1-1.2.1c-.094,0-.221-.027-.26.1s.065.18.138.246a6.914,6.914,0,0,0,4.75,1.94,12.294,12.294,0,0,1,1.971.153,4.824,4.824,0,0,1,3.572,2.5c.083.108.081.327.249.311.149-.014.172-.212.219-.343a5.9,5.9,0,0,0,.008-3.55,2.711,2.711,0,0,1-.123-.543.6.6,0,0,1,.494-.672c.571-.062.769.056.923.59a7.86,7.86,0,0,1,.2,4.129,4.052,4.052,0,0,1-.6,1.371c-.09.128-.118.207.042.3a2.767,2.767,0,0,1,.126,4.447,2.931,2.931,0,0,1-1.531.738.466.466,0,0,0-.382.285,13.376,13.376,0,0,1-3.07,3.752.491.491,0,0,0-.215.507c.076.468.133.941.164,1.414a.324.324,0,0,0,.3.342,2.813,2.813,0,0,1,.288.086c.378.127.709.242,1.076-.131a1.154,1.154,0,0,1,1.187-.152c.673.2,1.349.4,2.021.6a5.983,5.983,0,0,1,4.4,5.113,24.028,24.028,0,0,0,.517,2.695V43.8c-.191.259-.4.495-.767.418a.725.725,0,0,1-.557-.679,1.606,1.606,0,0,1-.251-.812,26.874,26.874,0,0,0-.6-2.958,4.324,4.324,0,0,0-2.736-2.8c-.607-.226-1.232-.4-1.85-.59-.6-.186-.608-.177-.664.45A24.072,24.072,0,0,1,44.8,41.8a4.331,4.331,0,0,1-.791,1.746,1.928,1.928,0,0,0-.107.184.675.675,0,0,1-.722.482.659.659,0,0,1-.588-.678c-.1-.184.017-.331.086-.484A20.251,20.251,0,0,0,44.21,37.3a1.368,1.368,0,0,0,.009-.172c0-.193.07-.4-.184-.517a.431.431,0,0,0-.587.178A4.2,4.2,0,0,1,39.412,39.4a.7.7,0,0,1-.706-.455c-.142-.575.106-.9.738-.958a3.722,3.722,0,0,0,1.712-.5,2.061,2.061,0,0,0,.936-1.232,7.1,7.1,0,0,0-.13-2c-.009-.131-.091-.168-.212-.127a1.349,1.349,0,0,0-.157.069,5.426,5.426,0,0,1-4.852.016c-.143-.066-.35-.26-.407.1-.034.328-.05.662-.115.982a2.036,2.036,0,0,0,.691,2.049.664.664,0,0,1,.09,1.01c-.45.347-.676.346-1.1-.021a2.688,2.688,0,0,1-.986-1.482c-.1-.527-.342-.468-.687-.294-.225.214-.154.482-.114.731a28.827,28.827,0,0,0,1.446,5.484c.1.27.3.537.146.857a.666.666,0,0,1-.636.6c-.428.022-.585-.295-.724-.621a1.112,1.112,0,0,1-.319-.6,29.949,29.949,0,0,1-1.538-6.319c-.054-.451-.084-.474-.511-.34-.672.211-1.358.382-2.015.636a4.386,4.386,0,0,0-2.865,3.3c-.205.927-.346,1.867-.514,2.8a.845.845,0,0,1-.2.514c-.168.494-.463.708-.832.605s-.529-.431-.437-.941c.194-1.075.347-2.158.582-3.224a5.866,5.866,0,0,1,4.08-4.5c.718-.248,1.457-.434,2.184-.657a1.346,1.346,0,0,1,1.472.318c.192.2.354.11.542.054.861-.259.792-.272.968-1.152a1.667,1.667,0,0,0-.657-1.794,10.952,10.952,0,0,1-2.558-3.282.474.474,0,0,0-.4-.26,3.106,3.106,0,0,1-2.466-3.767,2.482,2.482,0,0,1,.787-1.211c.1-.089.236-.129.11-.332a7.047,7.047,0,0,1-.482-6.338.968.968,0,0,0,.024-.151H22.774a2.727,2.727,0,0,1-.793,2.58,2.634,2.634,0,0,1-2.045.75A2.748,2.748,0,0,1,17.45,16.95a8.86,8.86,0,0,1-2.9-.534,8.792,8.792,0,0,1-1.867-.97c-.434-.3-.494-.507-.3-1.026a.636.636,0,0,1,.9-.258c.228.113.432.269.65.4a7.085,7.085,0,0,0,3.93.944,1.18,1.18,0,0,0,.592-.237,2.794,2.794,0,0,1,3.314.006,1.39,1.39,0,0,0,.809.237c4.82,0,9.64.017,14.459-.014a6.463,6.463,0,0,0,4.143-1.618,6.684,6.684,0,0,0,2.388-3.948,6.945,6.945,0,0,0-1.279-5.715,6.9,6.9,0,0,0-5.579-2.8c-1.064-.022-2.129,0-3.194-.007-.543-.006-.723-.146-.925-.667A.716.716,0,0,1,33.107,0Z" transform="translate(-9)"/>
          <path id="Trazado_129729" data-name="Trazado 129729" d="M2.139,13.2a.8.8,0,0,1-.985-.473A8.469,8.469,0,0,1,7.393.079C7.451.071,7.506.067,7.526,0h13.99a.659.659,0,0,1,.524.756.81.81,0,0,1-.842.659c-.172.009-.345.006-.518.006q-6.081,0-12.162,0A7.064,7.064,0,0,0,1.443,8.879a6.7,6.7,0,0,0,.873,3,2,2,0,0,1,.241.551.607.607,0,0,1-.418.774" transform="translate(0)"/>
          <path id="Trazado_129730" data-name="Trazado 129730" d="M81.083.691A.9.9,0,0,0,80.642,0h2.591a1.031,1.031,0,0,0-.422.691,2.394,2.394,0,0,1-1.728,0" transform="translate(-59.126)" fill="#fdfdfd"/>
          <path id="Trazado_129731" data-name="Trazado 129731" d="M25.585,2.589h1.728a.8.8,0,0,0,.9.613,29.787,29.787,0,0,1,4.173.083,6.776,6.776,0,0,1,4.6,2.74,6.342,6.342,0,0,1,.3,4.506,8.02,8.02,0,0,1-7.006,6.017,12.444,12.444,0,0,1-1.419.077q-5.567,0-11.133,0a1.325,1.325,0,0,1-.83-.167c-.057-.042-.125-.087-.119-.168.007-.108.1-.126.184-.145.2-.047.4,0,.6-.064A4.173,4.173,0,0,0,19.906,14.8a2.524,2.524,0,0,0,.622-1.163c.1-.449.225-.5.606-.222A8.341,8.341,0,0,0,23.14,14.59a5.017,5.017,0,0,0,2.918.313,1.874,1.874,0,0,1,1.093.106,5.273,5.273,0,0,0,6.256-2.265,4.282,4.282,0,0,0-1.23-5.612A4.552,4.552,0,0,0,30.8,6.425a1.049,1.049,0,0,1-.629-.487,9.041,9.041,0,0,0-.827-1.158,1.635,1.635,0,0,0-.272-.277.488.488,0,0,0-.67,0,.48.48,0,0,0-.092.662,5.564,5.564,0,0,0,.358.487c.077.1.183.21.125.347-.068.159-.234.152-.375.153a9.447,9.447,0,0,0-2.5.455,5.659,5.659,0,0,0-.972.355.44.44,0,0,1-.624-.167A5.606,5.606,0,0,0,18.638,4.73a3.391,3.391,0,0,0-1.774.838.842.842,0,0,1-.827.2A5.187,5.187,0,0,0,11.8,6.56,4.237,4.237,0,0,0,10.53,7.9a2.754,2.754,0,0,1-.186.291c-.07.091-.144.206-.269.187-.148-.022-.185-.166-.222-.291a1.787,1.787,0,0,1-.023-.9c.118-.569,0-.843-.346-.917s-.6.193-.709.751a2.639,2.639,0,0,0,.92,2.669.735.735,0,0,1,.273.517,4.1,4.1,0,0,0,3.126,3.7,1.309,1.309,0,0,1,.855.647,2.3,2.3,0,0,0,.734.779c.126.093.322.162.265.39a.54.54,0,0,1-.4.117,3.36,3.36,0,0,0-1.755.527,1.872,1.872,0,0,1-.987.258c-.878-.006-1.756,0-2.633,0a1.913,1.913,0,0,1-.719-.12,3.833,3.833,0,0,1-.4-.235.721.721,0,0,0-1.04.045c-.47-.348-.74-.9-1.239-1.218.415-.4.443-.59.163-1.09A7.167,7.167,0,0,1,10.766,3.322a7.545,7.545,0,0,1,1.543-.131c4.126,0,8.252,0,12.379.008.464,0,.782-.136.9-.61" transform="translate(-3.628 -1.898)" fill="#f9f7f7"/>
          <path id="Trazado_129732" data-name="Trazado 129732" d="M65.176,142.815c.2-1.132.355-2.273.605-3.393a4.5,4.5,0,0,1,2.985-3.365c.737-.278,1.508-.466,2.263-.7.188-.058.326-.087.35.191a28.629,28.629,0,0,0,1.741,7.183.582.582,0,0,1,.017.084l-7.96,0" transform="translate(-47.786 -99.216)" fill="#f4dd46"/>
          <path id="Trazado_129733" data-name="Trazado 129733" d="M131.215,144.435a21.6,21.6,0,0,0,1.638-6.5,1.827,1.827,0,0,1,.059-.249.463.463,0,0,1,.489-.029c.34.115.689.2,1.028.314a5.255,5.255,0,0,1,3.64,4.1c.136.616.235,1.239.354,1.859a.514.514,0,0,1-.059.49l-7.148.022" transform="translate(-96.206 -100.885)" fill="#f4dd46"/>
          <path id="Trazado_129734" data-name="Trazado 129734" d="M107.493,130.387a2.1,2.1,0,0,1-1.421,1.537,3.393,3.393,0,0,1-1.254.274c-.626.031-.808.227-.8.85-.1-.106-.191-.226-.345-.23a6.252,6.252,0,0,1-1.36-.366.727.727,0,0,0-.221-.987,1.931,1.931,0,0,1-.7-1.96c.063-.367.1-.739.149-1.108.163-.112.3-.009.441.054a5.494,5.494,0,0,0,4.3.271c.649-.232.888-.055,1,.618a3.61,3.61,0,0,0,.216,1.047" transform="translate(-74.307 -94.103)" fill="#f1d0a4"/>
          <path id="Trazado_129735" data-name="Trazado 129735" d="M56.047,72.2a1.943,1.943,0,1,1,1.942-1.955A1.952,1.952,0,0,1,56.047,72.2" transform="translate(-39.669 -50.088)"/>
          <path id="Trazado_129736" data-name="Trazado 129736" d="M143.026,142.83c-.285-1.649-.369-3.358-1.541-4.726a5.344,5.344,0,0,0-2.836-1.736,3.545,3.545,0,0,0-1.074-.27c0-.754,0-.754.732-.534.48.144.958.293,1.44.432a4.63,4.63,0,0,1,3.5,3.834c.191,1,.351,2,.524,3.006l-.747-.006" transform="translate(-100.869 -99.301)" fill="#f2d232"/>
          <path id="Trazado_129737" data-name="Trazado 129737" d="M125.954,136.791c.071-.137-.087-.42.235-.4.482.037.706.224.673.539a18.92,18.92,0,0,1-1.661,6.324,2.754,2.754,0,0,0-.1.283c-.214.009-.392,0-.231-.3a16.635,16.635,0,0,0,1.511-4.853,9.051,9.051,0,0,0,.113-.976.514.514,0,0,0-.537-.625" transform="translate(-91.506 -100.003)" fill="#eee7e4"/>
          <path id="Trazado_129738" data-name="Trazado 129738" d="M95.249,144.067c-.333-1.051-.683-2.1-1-3.155a22.135,22.135,0,0,1-.765-3.574c-.031-.253.042-.348.282-.342.16,1.01.281,2.025.5,3.029a13.988,13.988,0,0,0,1.248,3.632c.191.362.1.452-.267.412" transform="translate(-68.541 -100.444)" fill="#eee7e4"/>
          <path id="Trazado_129739" data-name="Trazado 129739" d="M135.866,55.84a.748.748,0,0,0-.319,1,6.512,6.512,0,0,1,.227,3.218,2.791,2.791,0,0,1-.558,1.266l-.288-.647c-.017-.418.125-.815.142-1.234a7.936,7.936,0,0,0-2.384-6.228c-.133-.132-.338-.242-.274-.491a4.854,4.854,0,0,1,1.717,1.39.659.659,0,0,0,.971.192l.766,1.539" transform="translate(-97.074 -38.654)" fill="#685e68"/>
          <path id="Trazado_129740" data-name="Trazado 129740" d="M90.564,71.077c.144-.292.221-.728.45-.832.208-.095.479.319.74.483.132.082.251.184.376.277A7.539,7.539,0,0,0,96.4,72.525c.646.021,1.29.07,1.934.117a3.2,3.2,0,0,1,1.576.527,2.648,2.648,0,0,1,1.136,1.991,15.8,15.8,0,0,1-.179,3.609,3.64,3.64,0,0,1-.387,1.137,11.561,11.561,0,0,1-3.871,4.2,4.352,4.352,0,0,1-5.258-.281A12.2,12.2,0,0,1,88.1,80.248a4.7,4.7,0,0,1-.651-1.988,20.506,20.506,0,0,1-.073-3.013,3.975,3.975,0,0,1,1.616-2.156,4.932,4.932,0,0,0,1.57-2.014" transform="translate(-64.047 -51.492)" fill="#f1d0a4"/>
          <path id="Trazado_129741" data-name="Trazado 129741" d="M18.068,25.95q1.747-.006,3.494-.011a.949.949,0,0,0,.541-.1,3.793,3.793,0,0,1,2.352-.684c.037,0,.077-.034.115-.053.147-.1.279-.013.4.047a3.469,3.469,0,0,0,1.671.33c.207-.007.436-.056.606.132-.235.164-.506.03-.78.1a.7.7,0,0,0,.586.23c4.069,0,8.139.057,12.206-.022a7.765,7.765,0,0,0,6.33-3.37,7.469,7.469,0,0,0,1.427-4.941,9.846,9.846,0,0,0-.417-2.14A6.643,6.643,0,0,1,48.1,19.9a7.137,7.137,0,0,1-7.181,7.083c-4.773.012-9.547,0-14.321.006a.81.81,0,0,1-.545-.182,2.656,2.656,0,0,0-3.38-.006.833.833,0,0,1-.542.19,6.972,6.972,0,0,1-4.06-1.036" transform="translate(-13.247 -11.34)" fill="#efe8e5"/>
          <path id="Trazado_129742" data-name="Trazado 129742" d="M110.324,51.651a18.785,18.785,0,0,1,1.489,1.772,8.24,8.24,0,0,1,1.276,4.05,4.5,4.5,0,0,1-.248,2.132,5,5,0,0,0-4.424-2.525,9.351,9.351,0,0,1-3.637-.564,9.077,9.077,0,0,1-2.351-1.58c-.1-.089-.2-.19-.133-.332s.2-.078.307-.079a8.352,8.352,0,0,0,6.573-3.062c.17-.2.319-.26.545-.134.2.111.4.216.6.323" transform="translate(-74.986 -37.585)" fill="#7a6d79"/>
          <path id="Trazado_129743" data-name="Trazado 129743" d="M79.966,69.49a2.094,2.094,0,0,1-.661-1.006,6.238,6.238,0,0,1,.172-4.66.534.534,0,0,1,.579-.38c1.12.022,2.241.008,3.362.009.411,0,.554.13.44.506a4.4,4.4,0,0,1-1.743,2.684,4.49,4.49,0,0,0-2.15,2.848" transform="translate(-57.874 -46.516)" fill="#796d78"/>
          <path id="Trazado_129744" data-name="Trazado 129744" d="M36.586,62.789A1.4,1.4,0,0,1,38.633,60.9a.5.5,0,0,1,.067.447,2.214,2.214,0,0,1-1.627,1.536.578.578,0,0,1-.487-.092" transform="translate(-26.619 -44.391)" fill="#f9f7f7"/>
          <path id="Trazado_129745" data-name="Trazado 129745" d="M107.988,129.487a.3.3,0,0,1-.26-.34,7.1,7.1,0,0,0-.1-.806c-.035-.46-.23-.6-.684-.454a6.427,6.427,0,0,1-1.834.384,5.97,5.97,0,0,1-2.727-.632c-.115-.054-.237-.1-.356-.143-.021-.3-.037-.5.39-.282a5.2,5.2,0,0,0,5.1-.013c.29-.153.353-.1.372.207.028.428.105.853.144,1.281a1.328,1.328,0,0,1-.049.8" transform="translate(-74.803 -93.203)" fill="#f0ba87"/>
          <path id="Trazado_129746" data-name="Trazado 129746" d="M37.356,63.759A1.956,1.956,0,0,0,39.4,61.868a1.287,1.287,0,0,1,.474,1.406,1.337,1.337,0,0,1-1.109,1.061,1.3,1.3,0,0,1-1.411-.576" transform="translate(-27.389 -45.361)" fill="#eee7e5"/>
          <path id="Trazado_129747" data-name="Trazado 129747" d="M113.035,75.294a11.719,11.719,0,0,0-3.748-.529,6.992,6.992,0,0,1-3.914-1.465.708.708,0,0,1-.123-.172,10.515,10.515,0,0,0,5.609,1.3,3.021,3.021,0,0,1,2.175.861" transform="translate(-77.169 -53.618)" fill="#f0b987"/>
          <path id="Trazado_129748" data-name="Trazado 129748" d="M80.06,94.806a1.571,1.571,0,0,1-.671-2.522c.132-.112.3-.256.45-.207.177.056.07.274.079.418.023.386.01.774.033,1.16s.07.758.109,1.152" transform="translate(-57.905 -67.502)" fill="#efb986"/>
          <path id="Trazado_129749" data-name="Trazado 129749" d="M142.974,94.893a19.505,19.505,0,0,0,.165-2.561c.005-.243.094-.256.285-.165a1.193,1.193,0,0,1,.62,1.3,1.829,1.829,0,0,1-1.07,1.424" transform="translate(-104.827 -67.538)" fill="#efb886"/>
          <path id="Trazado_129750" data-name="Trazado 129750" d="M90.625,73.4a3.324,3.324,0,0,1-1.313,1.949A5.041,5.041,0,0,0,87.564,77.4a1.2,1.2,0,0,1-.125.17A2.583,2.583,0,0,1,88.682,75.3a6.489,6.489,0,0,0,1.943-1.9" transform="translate(-64.109 -53.818)" fill="#f0b987"/>
          <path id="Trazado_129751" data-name="Trazado 129751" d="M27.594,20.673a4.656,4.656,0,0,1-2.68-.509,3.2,3.2,0,0,1-1.29-1.351c-.087-.2-.279-.178-.435-.224A4.293,4.293,0,0,1,19.895,15.3a2.788,2.788,0,0,0-.7-1.426,2.633,2.633,0,0,1-.456-2.789.646.646,0,1,1,1.229.393,1.826,1.826,0,0,0,.062,1.373.145.145,0,0,0,.138-.1,5.167,5.167,0,0,1,5.917-2.578.581.581,0,0,0,.638-.154,3.94,3.94,0,0,1,2.472-.993,6.093,6.093,0,0,1,4.489,1.395,2.7,2.7,0,0,1,.336.334c.2.237.354.628.592.685s.567-.214.864-.318a10.18,10.18,0,0,1,3.239-.607,2.12,2.12,0,0,0-.466-.658.652.652,0,0,1,.021-.959.64.64,0,0,1,.95.106,7.146,7.146,0,0,1,1,1.351.939.939,0,0,0,.571.46,4.479,4.479,0,0,1,3.234,3.818,4.3,4.3,0,0,1-1.87,4.154,5.2,5.2,0,0,1-5.289.753.743.743,0,0,0-.454-.088,6.167,6.167,0,0,1-5.342-1.415c-.111-.084-.225-.162-.356-.256a3.586,3.586,0,0,1-3.111,2.888" transform="translate(-13.591 -6.406)"/>
          <path id="Trazado_129752" data-name="Trazado 129752" d="M59.869,73.435a.559.559,0,0,1,.4.73.585.585,0,0,1-.615.487.6.6,0,0,1-.639-.6,2.611,2.611,0,0,0,.854-.621" transform="translate(-43.269 -53.842)" fill="#ede6e3"/>
          <path id="Trazado_129753" data-name="Trazado 129753" d="M59.869,73.313c-.178.353-.384.669-.854.621q.074-.837.854-.621" transform="translate(-43.269 -53.72)" fill="#f4f2f2"/>
          <path id="Trazado_129754" data-name="Trazado 129754" d="M110.414,109c.071,0,.186.006.3.014.47.034.751.292.734.673a.671.671,0,0,1-.783.619,3.055,3.055,0,0,0-1.393.212,3.4,3.4,0,0,0-.861.564.657.657,0,0,1-.991-.013.638.638,0,0,1,.134-.949A4.1,4.1,0,0,1,110.414,109" transform="translate(-78.645 -79.917)"/>
          <path id="Trazado_129755" data-name="Trazado 129755" d="M109.656,100.565a1.619,1.619,0,0,1-.935-.263.649.649,0,0,1-.275-.851.623.623,0,0,1,.835-.294.86.86,0,0,0,.775,0,.622.622,0,0,1,.838.285.639.639,0,0,1-.261.854,1.647,1.647,0,0,1-.977.267" transform="translate(-79.463 -72.655)" fill="#010000"/>
          <path id="Trazado_129756" data-name="Trazado 129756" d="M101.029,89.569c0-.187-.013-.375,0-.561a.631.631,0,0,1,.656-.608.6.6,0,0,1,.624.592,9.544,9.544,0,0,1,0,1.208.633.633,0,0,1-.654.611.645.645,0,0,1-.629-.638c-.014-.2,0-.4,0-.6" transform="translate(-74.07 -64.814)"/>
          <path id="Trazado_129757" data-name="Trazado 129757" d="M120.449,89.592c0-.187-.011-.375,0-.561a.646.646,0,0,1,.63-.637.632.632,0,0,1,.653.612,9.547,9.547,0,0,1,0,1.208.605.605,0,0,1-.625.592.631.631,0,0,1-.654-.609c-.017-.2,0-.4,0-.6" transform="translate(-88.308 -64.809)"/>
          <path id="Trazado_129758" data-name="Trazado 129758" d="M80.419,23.1a8.331,8.331,0,0,0-.089-1.619c-.051-.213.045-.308.224-.387a8.669,8.669,0,0,1,4.013-.779.35.35,0,0,1,.363.277,4.618,4.618,0,0,1-2.748,5.837.415.415,0,0,1-.431-.086,2.733,2.733,0,0,1-1.331-2.326c-.012-.344,0-.689,0-.917" transform="translate(-58.887 -14.884)" fill="#f9f7f7"/>
          <path id="Trazado_129759" data-name="Trazado 129759" d="M55.624,19.361a12.875,12.875,0,0,0-1.049-2.4,5.012,5.012,0,0,0-1.323-1.574c-.257-.188-.2-.272.04-.4a4.3,4.3,0,0,1,3.473-.1,3.455,3.455,0,0,1,1.857,1.33c.087.13.194.244,0,.394a31.174,31.174,0,0,0-2.868,2.678.663.663,0,0,1-.125.073" transform="translate(-38.92 -10.683)" fill="#f9f7f7"/>
          <path id="Trazado_129760" data-name="Trazado 129760" d="M96.053,22.429A3.067,3.067,0,0,1,97.2,26.853,4.024,4.024,0,0,1,93.68,28.68c-.068,0-.146.012-.19-.065,2.427-2.272,2.743-3.033,2.564-6.186" transform="translate(-68.546 -16.445)" fill="#f9f7f7"/>
          <path id="Trazado_129761" data-name="Trazado 129761" d="M35.739,23.413a3.893,3.893,0,0,0-3.584-.191A2.715,2.715,0,0,0,30.33,25.8c-.018.4-.125.411-.434.249a3.03,3.03,0,0,1-1.723-2.217,5.888,5.888,0,0,0,3.881-1.1A6.768,6.768,0,0,0,33.7,21.16c.192-.262.312-.225.526-.046a5.893,5.893,0,0,1,1.509,2.3" transform="translate(-20.656 -15.376)" fill="#f9f7f7"/>
          <path id="Trazado_129762" data-name="Trazado 129762" d="M67.96,26.882c.069.885-.023,1.7.087,2.514a4.093,4.093,0,0,0,1.065,2.223,6.841,6.841,0,0,1-3.98-2.031c.933-.888,1.789-1.837,2.828-2.706" transform="translate(-47.754 -19.71)" fill="#f9f7f7"/>
          <path id="Trazado_129763" data-name="Trazado 129763" d="M41.694,35.269c-.66.013-.689-.014-.661-.566.052-1.053.544-1.528,1.913-1.747a2.967,2.967,0,0,1,2.37.913c.229.187.006.23-.086.295A5.885,5.885,0,0,1,42.44,35.2c-.285.032-.572.055-.745.072" transform="translate(-30.08 -24.143)" fill="#f9f7f7"/>
          <path id="Trazado_129764" data-name="Trazado 129764" d="M33.162,18.455a5.369,5.369,0,0,1-3.879,2.161c-.149.008-.359.079-.439-.058-.094-.161.075-.322.164-.459a3.755,3.755,0,0,1,2.843-1.721,3.3,3.3,0,0,1,1.311.077" transform="translate(-21.128 -13.451)" fill="#f9f7f7"/>
          <path id="Trazado_129765" data-name="Trazado 129765" d="M43.653,43.013a7.812,7.812,0,0,0,4.16-1.295,1.868,1.868,0,0,1-1.274,1.619,2.875,2.875,0,0,1-2.886-.324" transform="translate(-32.006 -30.587)" fill="#f8f6f6"/>
        </g>
      </g>
    </g>
  </g>
</svg>
