<svg xmlns="http://www.w3.org/2000/svg" width="658.901" height="376.226" viewBox="0 0 658.901 376.226">
  <g id="Grupo_157648" data-name="Grupo 157648" transform="translate(-292.416 -2497.758)">
    <g id="Grupo_157647" data-name="Grupo 157647" transform="translate(584.363 11668.063)">
      <path id="Trazado_130934" data-name="Trazado 130934" d="M7.871,9.067A3.4,3.4,0,0,1,6.789,11.33a3.547,3.547,0,0,1-2.422.8,3.257,3.257,0,0,1-2.625-1.174A4.724,4.724,0,0,1,.755,7.811V6.922a5.266,5.266,0,0,1,.46-2.266,3.438,3.438,0,0,1,1.3-1.5,3.632,3.632,0,0,1,1.955-.524,3.34,3.34,0,0,1,2.361.822A3.441,3.441,0,0,1,7.871,5.729H6.646a2.655,2.655,0,0,0-.689-1.6,2.084,2.084,0,0,0-1.482-.5,2.181,2.181,0,0,0-1.831.864A3.966,3.966,0,0,0,1.98,6.95v.9a4.077,4.077,0,0,0,.628,2.4,2.031,2.031,0,0,0,1.758.889,2.345,2.345,0,0,0,1.558-.46,2.554,2.554,0,0,0,.72-1.6Zm4.8-2.882a3.519,3.519,0,0,0-.578-.044,1.547,1.547,0,0,0-1.568.984V12H9.35V5.132h1.143l.019.793A1.829,1.829,0,0,1,12.149,5a1.2,1.2,0,0,1,.521.089Zm3.809,5.941a3,3,0,0,1-2.272-.917,3.4,3.4,0,0,1-.876-2.453V8.541a4.121,4.121,0,0,1,.39-1.825,3.045,3.045,0,0,1,1.092-1.257A2.745,2.745,0,0,1,16.333,5a2.572,2.572,0,0,1,2.082.882,3.82,3.82,0,0,1,.743,2.526V8.9H14.5a2.441,2.441,0,0,0,.594,1.641,1.866,1.866,0,0,0,1.444.625,2.045,2.045,0,0,0,1.054-.254,2.648,2.648,0,0,0,.755-.673l.717.559A2.884,2.884,0,0,1,16.479,12.127ZM16.333,5.97a1.566,1.566,0,0,0-1.193.517,2.515,2.515,0,0,0-.6,1.45h3.44V7.849A2.237,2.237,0,0,0,17.5,6.462,1.475,1.475,0,0,0,16.333,5.97Zm6.938,5.2a1.692,1.692,0,0,0,1.1-.381,1.34,1.34,0,0,0,.521-.952H26a2.13,2.13,0,0,1-.406,1.124,2.676,2.676,0,0,1-1,.851,2.885,2.885,0,0,1-1.323.317,2.829,2.829,0,0,1-2.231-.936,3.729,3.729,0,0,1-.828-2.561v-.2a4.135,4.135,0,0,1,.368-1.784,2.8,2.8,0,0,1,1.057-1.212A3,3,0,0,1,23.264,5a2.755,2.755,0,0,1,1.92.692A2.473,2.473,0,0,1,26,7.493H24.889a1.618,1.618,0,0,0-.5-1.095,1.57,1.57,0,0,0-1.12-.428,1.644,1.644,0,0,0-1.387.644,3.026,3.026,0,0,0-.492,1.863V8.7a2.966,2.966,0,0,0,.489,1.828A1.651,1.651,0,0,0,23.271,11.168ZM28.6,12H27.422V5.132H28.6Zm-1.27-8.69a.7.7,0,0,1,.175-.482.655.655,0,0,1,.517-.2.666.666,0,0,1,.521.2.694.694,0,0,1,.178.482.671.671,0,0,1-.178.476.678.678,0,0,1-.521.19.667.667,0,0,1-.517-.19A.678.678,0,0,1,27.327,3.31ZM31.58,5.132l.032.762A2.536,2.536,0,0,1,33.649,5a1.964,1.964,0,0,1,1.961,1.1,2.6,2.6,0,0,1,.892-.8A2.634,2.634,0,0,1,37.8,5Q40.06,5,40.1,7.4V12H38.924V7.468a1.577,1.577,0,0,0-.336-1.1A1.482,1.482,0,0,0,37.458,6a1.557,1.557,0,0,0-1.085.39,1.584,1.584,0,0,0-.5,1.051V12H34.69V7.5A1.31,1.31,0,0,0,33.224,6a1.571,1.571,0,0,0-1.581.984V12H30.469V5.132ZM43.145,12H41.971V5.132h1.174Zm-1.27-8.69a.7.7,0,0,1,.175-.482.655.655,0,0,1,.517-.2.666.666,0,0,1,.521.2.694.694,0,0,1,.178.482.671.671,0,0,1-.178.476.678.678,0,0,1-.521.19.667.667,0,0,1-.517-.19A.678.678,0,0,1,41.875,3.31Zm6,8.817A3,3,0,0,1,45.6,11.21a3.4,3.4,0,0,1-.876-2.453V8.541a4.121,4.121,0,0,1,.39-1.825,3.045,3.045,0,0,1,1.092-1.257A2.745,2.745,0,0,1,47.728,5a2.572,2.572,0,0,1,2.082.882,3.82,3.82,0,0,1,.743,2.526V8.9H45.9a2.441,2.441,0,0,0,.594,1.641,1.866,1.866,0,0,0,1.444.625,2.045,2.045,0,0,0,1.054-.254,2.648,2.648,0,0,0,.755-.673l.717.559A2.884,2.884,0,0,1,47.874,12.127ZM47.728,5.97a1.566,1.566,0,0,0-1.193.517,2.515,2.515,0,0,0-.6,1.45h3.44V7.849A2.237,2.237,0,0,0,48.9,6.462,1.475,1.475,0,0,0,47.728,5.97Zm5.294-.838L53.06,6A2.5,2.5,0,0,1,55.117,5q2.177,0,2.2,2.457V12H56.139V7.455a1.581,1.581,0,0,0-.34-1.1A1.361,1.361,0,0,0,54.761,6a1.7,1.7,0,0,0-1,.3,2.069,2.069,0,0,0-.673.8V12H51.911V5.132Zm7.655-1.663V5.132h1.282V6.04H60.677V10.3a.953.953,0,0,0,.171.62.721.721,0,0,0,.584.207,2.843,2.843,0,0,0,.559-.076V12a3.424,3.424,0,0,1-.9.126,1.462,1.462,0,0,1-1.187-.476,2.045,2.045,0,0,1-.4-1.352V6.04h-1.25V5.132H59.5V3.469ZM62.893,8.5a4.057,4.057,0,0,1,.4-1.815,2.96,2.96,0,0,1,1.1-1.244A3.007,3.007,0,0,1,66.009,5a2.9,2.9,0,0,1,2.269.971,3.736,3.736,0,0,1,.866,2.583v.083a4.092,4.092,0,0,1-.384,1.8,2.916,2.916,0,0,1-1.1,1.241,3.041,3.041,0,0,1-1.641.444,2.889,2.889,0,0,1-2.263-.971,3.718,3.718,0,0,1-.866-2.571Zm1.181.14a2.938,2.938,0,0,0,.53,1.834,1.8,1.8,0,0,0,2.841-.01A3.213,3.213,0,0,0,67.971,8.5a2.933,2.933,0,0,0-.536-1.831,1.705,1.705,0,0,0-1.425-.7,1.686,1.686,0,0,0-1.4.692A3.189,3.189,0,0,0,64.073,8.642Z" transform="translate(23.026 -8864.404)" fill="#12263f"/>
      <path id="Trazado_130925" data-name="Trazado 130925" d="M2.647,2.758,5.668,10.3,8.69,2.758h1.581V12H9.052V8.4l.114-3.885L6.132,12H5.2L2.171,4.535,2.292,8.4V12H1.073V2.758ZM16.479,12a2.467,2.467,0,0,1-.165-.724,2.62,2.62,0,0,1-1.955.851,2.424,2.424,0,0,1-1.666-.574,1.859,1.859,0,0,1-.651-1.457,1.942,1.942,0,0,1,.816-1.666,3.846,3.846,0,0,1,2.295-.594h1.143V7.3a1.319,1.319,0,0,0-.368-.981,1.48,1.48,0,0,0-1.085-.365,1.712,1.712,0,0,0-1.054.317.935.935,0,0,0-.425.768H12.181a1.621,1.621,0,0,1,.365-.993,2.491,2.491,0,0,1,.99-.759A3.331,3.331,0,0,1,14.911,5a2.715,2.715,0,0,1,1.86.594,2.141,2.141,0,0,1,.7,1.635v3.161a3.865,3.865,0,0,0,.241,1.5V12Zm-1.949-.9a2.064,2.064,0,0,0,1.047-.286,1.728,1.728,0,0,0,.717-.743V8.667h-.92q-2.158,0-2.158,1.263a1.069,1.069,0,0,0,.368.863A1.415,1.415,0,0,0,14.53,11.1Zm4.494-2.6a4.023,4.023,0,0,1,.749-2.542,2.548,2.548,0,0,1,3.872-.136V2.25h1.174V12H23.74l-.057-.736a2.391,2.391,0,0,1-1.961.863,2.346,2.346,0,0,1-1.946-.978A4.069,4.069,0,0,1,19.024,8.6Zm1.174.133a3.046,3.046,0,0,0,.482,1.828,1.56,1.56,0,0,0,1.333.66,1.713,1.713,0,0,0,1.631-1V6.973A1.726,1.726,0,0,0,22.026,6a1.567,1.567,0,0,0-1.346.667A3.354,3.354,0,0,0,20.2,8.642Zm10.683,2.679a2.494,2.494,0,0,1-2.012.806,2.135,2.135,0,0,1-1.673-.638A2.761,2.761,0,0,1,26.616,9.6V5.132H27.79V9.569q0,1.562,1.27,1.562a1.758,1.758,0,0,0,1.79-1v-5h1.174V12H30.907Zm6.246-5.135a3.519,3.519,0,0,0-.578-.044,1.547,1.547,0,0,0-1.568.984V12H33.808V5.132H34.95l.019.793A1.829,1.829,0,0,1,36.607,5a1.2,1.2,0,0,1,.521.089Zm3.809,5.941a3,3,0,0,1-2.272-.917,3.4,3.4,0,0,1-.876-2.453V8.541a4.121,4.121,0,0,1,.39-1.825A3.045,3.045,0,0,1,39.27,5.459,2.745,2.745,0,0,1,40.79,5a2.572,2.572,0,0,1,2.082.882,3.82,3.82,0,0,1,.743,2.526V8.9H38.962a2.441,2.441,0,0,0,.594,1.641A1.866,1.866,0,0,0,41,11.168a2.045,2.045,0,0,0,1.054-.254,2.648,2.648,0,0,0,.755-.673l.717.559A2.884,2.884,0,0,1,40.936,12.127ZM40.79,5.97a1.566,1.566,0,0,0-1.193.517,2.515,2.515,0,0,0-.6,1.45h3.44V7.849a2.237,2.237,0,0,0-.482-1.387A1.475,1.475,0,0,0,40.79,5.97Zm5.288,5.072H50.1V12H44.643v-.863L48.433,6.1H44.7V5.132h5.205v.832Z" transform="translate(132.299 -8864.404)" fill="#12263f"/>
      <path id="Trazado_130926" data-name="Trazado 130926" d="M1.073,12V2.758H3.682a4.2,4.2,0,0,1,2.133.533A3.606,3.606,0,0,1,7.246,4.808a4.938,4.938,0,0,1,.511,2.26v.59a4.955,4.955,0,0,1-.5,2.292A3.55,3.55,0,0,1,5.811,11.46a4.467,4.467,0,0,1-2.18.54ZM2.292,3.754V11H3.574a2.79,2.79,0,0,0,2.193-.877,3.622,3.622,0,0,0,.784-2.5V7.09a3.68,3.68,0,0,0-.74-2.449,2.632,2.632,0,0,0-2.1-.886Zm9.972,8.373a3,3,0,0,1-2.272-.917,3.4,3.4,0,0,1-.876-2.453V8.541a4.121,4.121,0,0,1,.39-1.825A3.045,3.045,0,0,1,10.6,5.459,2.745,2.745,0,0,1,12.118,5a2.572,2.572,0,0,1,2.082.882,3.82,3.82,0,0,1,.743,2.526V8.9H10.29a2.441,2.441,0,0,0,.594,1.641,1.866,1.866,0,0,0,1.444.625,2.045,2.045,0,0,0,1.054-.254,2.648,2.648,0,0,0,.755-.673l.717.559A2.884,2.884,0,0,1,12.264,12.127ZM12.118,5.97a1.566,1.566,0,0,0-1.193.517,2.515,2.515,0,0,0-.6,1.45h3.44V7.849a2.237,2.237,0,0,0-.482-1.387A1.475,1.475,0,0,0,12.118,5.97Zm6.938,5.2a1.692,1.692,0,0,0,1.1-.381,1.34,1.34,0,0,0,.521-.952h1.111a2.13,2.13,0,0,1-.406,1.124,2.676,2.676,0,0,1-1,.851,2.885,2.885,0,0,1-1.323.317,2.829,2.829,0,0,1-2.231-.936A3.729,3.729,0,0,1,16,8.629v-.2a4.135,4.135,0,0,1,.368-1.784,2.8,2.8,0,0,1,1.057-1.212A3,3,0,0,1,19.049,5a2.755,2.755,0,0,1,1.92.692,2.473,2.473,0,0,1,.816,1.8H20.674a1.618,1.618,0,0,0-.5-1.095,1.57,1.57,0,0,0-1.12-.428,1.644,1.644,0,0,0-1.387.644,3.026,3.026,0,0,0-.492,1.863V8.7a2.966,2.966,0,0,0,.489,1.828A1.651,1.651,0,0,0,19.056,11.168Zm8.29.832a2.467,2.467,0,0,1-.165-.724,2.62,2.62,0,0,1-1.955.851,2.424,2.424,0,0,1-1.666-.574,1.859,1.859,0,0,1-.651-1.457,1.942,1.942,0,0,1,.816-1.666,3.846,3.846,0,0,1,2.295-.594h1.143V7.3a1.319,1.319,0,0,0-.368-.981,1.48,1.48,0,0,0-1.085-.365,1.712,1.712,0,0,0-1.054.317.935.935,0,0,0-.425.768H23.048a1.621,1.621,0,0,1,.365-.993,2.491,2.491,0,0,1,.99-.759A3.331,3.331,0,0,1,25.778,5a2.715,2.715,0,0,1,1.86.594,2.141,2.141,0,0,1,.7,1.635v3.161a3.865,3.865,0,0,0,.241,1.5V12ZM25.4,11.1a2.064,2.064,0,0,0,1.047-.286,1.728,1.728,0,0,0,.717-.743V8.667h-.92q-2.158,0-2.158,1.263a1.069,1.069,0,0,0,.368.863A1.415,1.415,0,0,0,25.4,11.1Zm4.494-2.6a4.023,4.023,0,0,1,.749-2.542,2.548,2.548,0,0,1,3.872-.136V2.25h1.174V12H34.607l-.057-.736a2.391,2.391,0,0,1-1.961.863,2.346,2.346,0,0,1-1.946-.978A4.069,4.069,0,0,1,29.891,8.6Zm1.174.133a3.046,3.046,0,0,0,.482,1.828,1.56,1.56,0,0,0,1.333.66,1.713,1.713,0,0,0,1.631-1V6.973A1.726,1.726,0,0,0,32.894,6a1.567,1.567,0,0,0-1.346.667A3.354,3.354,0,0,0,31.065,8.642Zm9.293,3.485a3,3,0,0,1-2.272-.917,3.4,3.4,0,0,1-.876-2.453V8.541a4.121,4.121,0,0,1,.39-1.825,3.045,3.045,0,0,1,1.092-1.257A2.745,2.745,0,0,1,40.212,5a2.572,2.572,0,0,1,2.082.882,3.82,3.82,0,0,1,.743,2.526V8.9H38.384a2.441,2.441,0,0,0,.594,1.641,1.866,1.866,0,0,0,1.444.625,2.045,2.045,0,0,0,1.054-.254,2.648,2.648,0,0,0,.755-.673l.717.559A2.884,2.884,0,0,1,40.358,12.127ZM40.212,5.97a1.566,1.566,0,0,0-1.193.517,2.515,2.515,0,0,0-.6,1.45h3.44V7.849a2.237,2.237,0,0,0-.482-1.387A1.475,1.475,0,0,0,40.212,5.97Zm5.294-.838L45.544,6A2.5,2.5,0,0,1,47.6,5q2.177,0,2.2,2.457V12H48.623V7.455a1.581,1.581,0,0,0-.34-1.1A1.361,1.361,0,0,0,47.246,6a1.7,1.7,0,0,0-1,.3,2.069,2.069,0,0,0-.673.8V12H44.4V5.132Zm8.817,6.037a1.692,1.692,0,0,0,1.1-.381,1.34,1.34,0,0,0,.521-.952h1.111a2.13,2.13,0,0,1-.406,1.124,2.676,2.676,0,0,1-1,.851,2.885,2.885,0,0,1-1.323.317,2.829,2.829,0,0,1-2.231-.936,3.729,3.729,0,0,1-.828-2.561v-.2a4.135,4.135,0,0,1,.368-1.784,2.8,2.8,0,0,1,1.057-1.212A3,3,0,0,1,54.317,5a2.755,2.755,0,0,1,1.92.692,2.473,2.473,0,0,1,.816,1.8H55.942a1.618,1.618,0,0,0-.5-1.095,1.57,1.57,0,0,0-1.12-.428,1.644,1.644,0,0,0-1.387.644,3.026,3.026,0,0,0-.492,1.863V8.7a2.965,2.965,0,0,0,.489,1.828A1.651,1.651,0,0,0,54.323,11.168ZM59.649,12H58.475V5.132h1.174Zm-1.27-8.69a.7.7,0,0,1,.175-.482.655.655,0,0,1,.517-.2.666.666,0,0,1,.521.2.694.694,0,0,1,.178.482.671.671,0,0,1-.178.476.678.678,0,0,1-.521.19.667.667,0,0,1-.517-.19A.678.678,0,0,1,58.379,3.31ZM65.768,12a2.467,2.467,0,0,1-.165-.724,2.62,2.62,0,0,1-1.955.851,2.424,2.424,0,0,1-1.666-.574,1.859,1.859,0,0,1-.651-1.457,1.942,1.942,0,0,1,.816-1.666,3.846,3.846,0,0,1,2.295-.594h1.143V7.3a1.319,1.319,0,0,0-.368-.981,1.48,1.48,0,0,0-1.085-.365,1.712,1.712,0,0,0-1.054.317.935.935,0,0,0-.425.768H61.471a1.621,1.621,0,0,1,.365-.993,2.491,2.491,0,0,1,.99-.759A3.331,3.331,0,0,1,64.2,5a2.715,2.715,0,0,1,1.86.594,2.141,2.141,0,0,1,.7,1.635v3.161A3.865,3.865,0,0,0,67,11.9V12Zm-1.949-.9a2.064,2.064,0,0,0,1.047-.286,1.728,1.728,0,0,0,.717-.743V8.667h-.92q-2.158,0-2.158,1.263a1.069,1.069,0,0,0,.368.863A1.415,1.415,0,0,0,63.819,11.1Z" transform="translate(241.572 -8864.404)" fill="#12263f"/>
      <path id="Trazado_130928" data-name="Trazado 130928" d="M19.231,2.758V8.845a3.117,3.117,0,0,1-.949,2.4,3.659,3.659,0,0,1-2.593.882,3.7,3.7,0,0,1-2.571-.857,3.063,3.063,0,0,1-.971-2.355V2.758h1.9v6.1a1.761,1.761,0,0,0,.435,1.323,1.669,1.669,0,0,0,1.2.416q1.606,0,1.631-1.688V2.758Zm3.637.686V5.132h1.174V6.478H22.869V9.905a.818.818,0,0,0,.146.546.733.733,0,0,0,.559.165,2.926,2.926,0,0,0,.54-.044v1.39A3.777,3.777,0,0,1,23,12.127a1.752,1.752,0,0,1-1.968-1.949v-3.7h-1V5.132h1V3.443ZM27,12H25.16V5.132H27ZM25.052,3.354a.9.9,0,0,1,.276-.679,1.19,1.19,0,0,1,1.5,0,.9.9,0,0,1,.279.679.9.9,0,0,1-.282.686,1.177,1.177,0,0,1-1.492,0A.9.9,0,0,1,25.052,3.354ZM30.448,12H28.607V2.25h1.841Zm3.447,0H32.054V5.132h1.841ZM31.946,3.354a.9.9,0,0,1,.276-.679,1.19,1.19,0,0,1,1.5,0A.9.9,0,0,1,34,3.354a.9.9,0,0,1-.282.686,1.177,1.177,0,0,1-1.492,0A.9.9,0,0,1,31.946,3.354ZM35.12,8.515a4.139,4.139,0,0,1,.72-2.558A2.338,2.338,0,0,1,37.811,5a2.1,2.1,0,0,1,1.657.749V2.25h1.841V12H39.652l-.089-.73a2.159,2.159,0,0,1-1.765.857,2.331,2.331,0,0,1-1.946-.955A4.272,4.272,0,0,1,35.12,8.515Zm1.834.131a2.726,2.726,0,0,0,.336,1.486,1.1,1.1,0,0,0,.978.517,1.227,1.227,0,0,0,1.2-.721V7.2a1.21,1.21,0,0,0-1.187-.721Q36.954,6.484,36.954,8.646ZM46.71,12a2.037,2.037,0,0,1-.184-.616,2.22,2.22,0,0,1-1.733.743,2.439,2.439,0,0,1-1.673-.584,1.878,1.878,0,0,1-.663-1.473,1.941,1.941,0,0,1,.809-1.676,3.994,3.994,0,0,1,2.339-.59h.844V7.411a1.132,1.132,0,0,0-.244-.762.961.961,0,0,0-.771-.286,1.093,1.093,0,0,0-.727.222.755.755,0,0,0-.263.609H42.61a1.843,1.843,0,0,1,.368-1.1,2.434,2.434,0,0,1,1.041-.8A3.794,3.794,0,0,1,45.53,5a3,3,0,0,1,2.015.638,2.232,2.232,0,0,1,.746,1.793v2.977a3.284,3.284,0,0,0,.273,1.479V12Zm-1.517-1.276a1.58,1.58,0,0,0,.749-.181,1.188,1.188,0,0,0,.508-.486V8.877h-.686q-1.377,0-1.466.952l-.006.108a.734.734,0,0,0,.241.565A.937.937,0,0,0,45.193,10.724Zm4.221-2.209a4.139,4.139,0,0,1,.72-2.558A2.338,2.338,0,0,1,52.106,5a2.1,2.1,0,0,1,1.657.749V2.25H55.6V12H53.947l-.089-.73a2.159,2.159,0,0,1-1.765.857,2.331,2.331,0,0,1-1.946-.955A4.272,4.272,0,0,1,49.415,8.515Zm1.834.131a2.726,2.726,0,0,0,.336,1.486,1.1,1.1,0,0,0,.978.517,1.227,1.227,0,0,0,1.2-.721V7.2a1.21,1.21,0,0,0-1.187-.721Q51.249,6.484,51.249,8.646Zm8.938,3.481a3.372,3.372,0,0,1-2.46-.927,3.294,3.294,0,0,1-.949-2.469V8.553a4.149,4.149,0,0,1,.4-1.85,2.935,2.935,0,0,1,1.133-1.257A3.18,3.18,0,0,1,59.983,5a2.85,2.85,0,0,1,2.219.889,3.611,3.611,0,0,1,.809,2.52v.749H58.638a1.7,1.7,0,0,0,.536,1.079,1.621,1.621,0,0,0,1.133.406,1.98,1.98,0,0,0,1.657-.768l.9,1.009a2.754,2.754,0,0,1-1.117.911A3.665,3.665,0,0,1,60.187,12.127Zm-.209-5.643a1.146,1.146,0,0,0-.885.37,1.915,1.915,0,0,0-.435,1.058h2.552V7.765a1.366,1.366,0,0,0-.33-.947A1.183,1.183,0,0,0,59.977,6.484ZM67.772,10.1a.591.591,0,0,0-.333-.53,3.785,3.785,0,0,0-1.07-.346q-2.45-.514-2.45-2.082a1.887,1.887,0,0,1,.759-1.527A3.06,3.06,0,0,1,66.661,5a3.293,3.293,0,0,1,2.092.616,1.94,1.94,0,0,1,.784,1.6H67.7a.888.888,0,0,0-.254-.651,1.075,1.075,0,0,0-.793-.257,1.1,1.1,0,0,0-.717.209.661.661,0,0,0-.254.533.565.565,0,0,0,.289.492,2.971,2.971,0,0,0,.974.324,7.958,7.958,0,0,1,1.155.308,1.9,1.9,0,0,1,1.454,1.847,1.792,1.792,0,0,1-.806,1.52,3.478,3.478,0,0,1-2.082.581,3.632,3.632,0,0,1-1.533-.308,2.572,2.572,0,0,1-1.051-.844A1.962,1.962,0,0,1,63.7,9.816h1.739a.958.958,0,0,0,.362.749,1.435,1.435,0,0,0,.9.26,1.328,1.328,0,0,0,.8-.2A.622.622,0,0,0,67.772,10.1Z" transform="translate(104.076 -9008.405)" fill="#dd0a16"/>
      <path id="Trazado_130929" data-name="Trazado 130929" d="M24.675,9.708l2.095-6.951h2.12L25.671,12H23.684L20.479,2.758h2.114Zm7.846,2.418a3.372,3.372,0,0,1-2.46-.927,3.294,3.294,0,0,1-.949-2.469V8.553a4.149,4.149,0,0,1,.4-1.85,2.935,2.935,0,0,1,1.133-1.257A3.18,3.18,0,0,1,32.317,5a2.85,2.85,0,0,1,2.219.889,3.611,3.611,0,0,1,.809,2.52v.749H30.971a1.7,1.7,0,0,0,.536,1.079,1.621,1.621,0,0,0,1.133.406A1.98,1.98,0,0,0,34.3,9.88l.9,1.009a2.754,2.754,0,0,1-1.117.911A3.665,3.665,0,0,1,32.52,12.127Zm-.209-5.643a1.146,1.146,0,0,0-.885.37,1.915,1.915,0,0,0-.435,1.058h2.552V7.765a1.366,1.366,0,0,0-.33-.947A1.183,1.183,0,0,0,32.311,6.484Zm5.764-1.352.057.793A2.4,2.4,0,0,1,40.106,5a1.993,1.993,0,0,1,1.625.641,2.991,2.991,0,0,1,.546,1.917V12H40.442V7.6a1.2,1.2,0,0,0-.254-.849,1.135,1.135,0,0,0-.844-.264,1.261,1.261,0,0,0-1.162.662V12H36.348V5.132Zm7.789-1.688V5.132h1.174V6.478H45.863V9.905a.818.818,0,0,0,.146.546.733.733,0,0,0,.559.165,2.925,2.925,0,0,0,.54-.044v1.39A3.776,3.776,0,0,1,46,12.127a1.752,1.752,0,0,1-1.968-1.949v-3.7h-1V5.132h1V3.443ZM52.039,12a2.037,2.037,0,0,1-.184-.616,2.22,2.22,0,0,1-1.733.743,2.439,2.439,0,0,1-1.673-.584,1.878,1.878,0,0,1-.663-1.473A1.941,1.941,0,0,1,48.6,8.395a3.994,3.994,0,0,1,2.339-.59h.844V7.411a1.132,1.132,0,0,0-.244-.762.961.961,0,0,0-.771-.286,1.093,1.093,0,0,0-.727.222.755.755,0,0,0-.263.609H47.939a1.843,1.843,0,0,1,.368-1.1,2.434,2.434,0,0,1,1.041-.8A3.794,3.794,0,0,1,50.859,5a3,3,0,0,1,2.015.638,2.232,2.232,0,0,1,.746,1.793v2.977a3.284,3.284,0,0,0,.273,1.479V12Zm-1.517-1.276a1.58,1.58,0,0,0,.749-.181,1.188,1.188,0,0,0,.508-.486V8.877h-.686q-1.377,0-1.466.952l-.006.108a.734.734,0,0,0,.241.565A.937.937,0,0,0,50.522,10.724Zm8.227-.622a.591.591,0,0,0-.333-.53,3.785,3.785,0,0,0-1.07-.346Q54.9,8.712,54.9,7.144a1.887,1.887,0,0,1,.759-1.527A3.06,3.06,0,0,1,57.638,5a3.293,3.293,0,0,1,2.092.616,1.94,1.94,0,0,1,.784,1.6H58.679a.888.888,0,0,0-.254-.651,1.075,1.075,0,0,0-.793-.257,1.1,1.1,0,0,0-.717.209.661.661,0,0,0-.254.533.565.565,0,0,0,.289.492,2.971,2.971,0,0,0,.974.324,7.958,7.958,0,0,1,1.155.308,1.9,1.9,0,0,1,1.454,1.847,1.792,1.792,0,0,1-.806,1.52,3.478,3.478,0,0,1-2.082.581,3.632,3.632,0,0,1-1.533-.308,2.572,2.572,0,0,1-1.051-.844,1.962,1.962,0,0,1-.381-1.158h1.739a.958.958,0,0,0,.362.749,1.435,1.435,0,0,0,.9.26,1.328,1.328,0,0,0,.8-.2A.622.622,0,0,0,58.749,10.1Z" transform="translate(213.349 -9112.612)" fill="#3b9f33"/>
      <path id="Trazado_130935" data-name="Trazado 130935" d="M9.668,11.771a6.11,6.11,0,0,1-1.165,4,4.024,4.024,0,0,1-3.283,1.406,4.046,4.046,0,0,1-3.3-1.415,6.1,6.1,0,0,1-1.169-3.99V9.433a6.11,6.11,0,0,1,1.165-4A4.034,4.034,0,0,1,5.2,4.027,4.036,4.036,0,0,1,8.5,5.442a6.116,6.116,0,0,1,1.169,4ZM6.706,9.055a4.564,4.564,0,0,0-.36-2.061A1.2,1.2,0,0,0,5.2,6.313a1.176,1.176,0,0,0-1.112.633,4.3,4.3,0,0,0-.374,1.916v3.27a4.6,4.6,0,0,0,.36,2.1,1.209,1.209,0,0,0,1.143.664,1.193,1.193,0,0,0,1.116-.646,4.39,4.39,0,0,0,.369-2.026Z" transform="translate(-284.363 -8945.063)" fill="#12263f"/>
      <path id="Trazado_130927" data-name="Trazado 130927" d="M7.458,3.754H4.488V12H3.275V3.754H.311v-1H7.458ZM9.921,12H8.747V5.132H9.921ZM8.652,3.31a.7.7,0,0,1,.175-.482.655.655,0,0,1,.517-.2.666.666,0,0,1,.521.2.694.694,0,0,1,.178.482.671.671,0,0,1-.178.476.678.678,0,0,1-.521.19.667.667,0,0,1-.517-.19A.678.678,0,0,1,8.652,3.31Zm6,8.817a3,3,0,0,1-2.272-.917A3.4,3.4,0,0,1,11.5,8.756V8.541a4.121,4.121,0,0,1,.39-1.825,3.045,3.045,0,0,1,1.092-1.257A2.745,2.745,0,0,1,14.5,5a2.572,2.572,0,0,1,2.082.882,3.82,3.82,0,0,1,.743,2.526V8.9H12.676a2.441,2.441,0,0,0,.594,1.641,1.866,1.866,0,0,0,1.444.625,2.045,2.045,0,0,0,1.054-.254,2.648,2.648,0,0,0,.755-.673l.717.559A2.884,2.884,0,0,1,14.65,12.127ZM14.5,5.97a1.566,1.566,0,0,0-1.193.517,2.515,2.515,0,0,0-.6,1.45h3.44V7.849a2.237,2.237,0,0,0-.482-1.387A1.475,1.475,0,0,0,14.5,5.97Zm5.288-.838.032.762A2.536,2.536,0,0,1,21.861,5a1.964,1.964,0,0,1,1.961,1.1,2.6,2.6,0,0,1,.892-.8,2.634,2.634,0,0,1,1.3-.3q2.26,0,2.3,2.393V12H27.136V7.468a1.577,1.577,0,0,0-.336-1.1A1.482,1.482,0,0,0,25.67,6a1.557,1.557,0,0,0-1.085.39,1.584,1.584,0,0,0-.5,1.051V12H22.9V7.5A1.31,1.31,0,0,0,21.436,6a1.571,1.571,0,0,0-1.581.984V12H18.681V5.132Zm16.091,3.51a4.113,4.113,0,0,1-.717,2.526,2.3,2.3,0,0,1-1.942.958,2.519,2.519,0,0,1-1.968-.793v3.307H30.082V5.132h1.073l.057.762A2.419,2.419,0,0,1,33.2,5a2.342,2.342,0,0,1,1.958.933,4.157,4.157,0,0,1,.72,2.6Zm-1.174-.133a3.035,3.035,0,0,0-.5-1.834A1.6,1.6,0,0,0,32.855,6a1.726,1.726,0,0,0-1.6.946v3.282a1.73,1.73,0,0,0,1.612.939,1.587,1.587,0,0,0,1.343-.67A3.312,3.312,0,0,0,34.709,8.509ZM37.064,8.5a4.057,4.057,0,0,1,.4-1.815,2.96,2.96,0,0,1,1.1-1.244A3.007,3.007,0,0,1,40.181,5a2.9,2.9,0,0,1,2.269.971,3.736,3.736,0,0,1,.866,2.583v.083a4.092,4.092,0,0,1-.384,1.8,2.916,2.916,0,0,1-1.1,1.241,3.041,3.041,0,0,1-1.641.444,2.889,2.889,0,0,1-2.263-.971,3.718,3.718,0,0,1-.866-2.571Zm1.181.14a2.938,2.938,0,0,0,.53,1.834,1.8,1.8,0,0,0,2.841-.01A3.213,3.213,0,0,0,42.142,8.5a2.933,2.933,0,0,0-.536-1.831,1.705,1.705,0,0,0-1.425-.7,1.686,1.686,0,0,0-1.4.692A3.189,3.189,0,0,0,38.245,8.642Z" transform="translate(323.637 -8945.063)" fill="#12263f"/>
      <path id="Trazado_130932" data-name="Trazado 130932" d="M16.821,12V2.758H19.43a4.2,4.2,0,0,1,2.133.533,3.606,3.606,0,0,1,1.431,1.517,4.938,4.938,0,0,1,.511,2.26v.59A4.955,4.955,0,0,1,23,9.95,3.55,3.55,0,0,1,21.56,11.46a4.467,4.467,0,0,1-2.18.54ZM18.04,3.754V11h1.282a2.79,2.79,0,0,0,2.193-.877,3.622,3.622,0,0,0,.784-2.5V7.09a3.68,3.68,0,0,0-.74-2.449,2.632,2.632,0,0,0-2.1-.886Zm9.972,8.373a3,3,0,0,1-2.272-.917,3.4,3.4,0,0,1-.876-2.453V8.541a4.121,4.121,0,0,1,.39-1.825,3.045,3.045,0,0,1,1.092-1.257A2.745,2.745,0,0,1,27.866,5a2.572,2.572,0,0,1,2.082.882,3.82,3.82,0,0,1,.743,2.526V8.9H26.038a2.441,2.441,0,0,0,.594,1.641,1.866,1.866,0,0,0,1.444.625,2.045,2.045,0,0,0,1.054-.254,2.648,2.648,0,0,0,.755-.673l.717.559A2.884,2.884,0,0,1,28.012,12.127ZM27.866,5.97a1.566,1.566,0,0,0-1.193.517,2.515,2.515,0,0,0-.6,1.45h3.44V7.849a2.237,2.237,0,0,0-.482-1.387A1.475,1.475,0,0,0,27.866,5.97Zm8.182,4.208a.865.865,0,0,0-.359-.74,3.452,3.452,0,0,0-1.25-.454,5.912,5.912,0,0,1-1.416-.457,2.014,2.014,0,0,1-.774-.635A1.518,1.518,0,0,1,32,7.017a1.782,1.782,0,0,1,.714-1.428A2.789,2.789,0,0,1,34.538,5a2.87,2.87,0,0,1,1.895.6,1.915,1.915,0,0,1,.727,1.542H35.978a1.06,1.06,0,0,0-.409-.832,1.534,1.534,0,0,0-1.031-.349,1.605,1.605,0,0,0-1,.279.879.879,0,0,0-.362.73.712.712,0,0,0,.336.641,4.139,4.139,0,0,0,1.216.413,6.334,6.334,0,0,1,1.425.47,2.079,2.079,0,0,1,.809.657,1.615,1.615,0,0,1,.263.936,1.758,1.758,0,0,1-.736,1.476,3.089,3.089,0,0,1-1.911.555,3.459,3.459,0,0,1-1.46-.292,2.375,2.375,0,0,1-.993-.816,1.966,1.966,0,0,1-.359-1.133h1.174a1.216,1.216,0,0,0,.473.936,1.835,1.835,0,0,0,1.165.346,1.894,1.894,0,0,0,1.07-.27A.829.829,0,0,0,36.048,10.178ZM42.993,12a2.467,2.467,0,0,1-.165-.724,2.62,2.62,0,0,1-1.955.851,2.424,2.424,0,0,1-1.666-.574,1.859,1.859,0,0,1-.651-1.457,1.942,1.942,0,0,1,.816-1.666,3.846,3.846,0,0,1,2.295-.594h1.143V7.3a1.319,1.319,0,0,0-.368-.981,1.48,1.48,0,0,0-1.085-.365,1.712,1.712,0,0,0-1.054.317.935.935,0,0,0-.425.768H38.7a1.621,1.621,0,0,1,.365-.993,2.491,2.491,0,0,1,.99-.759A3.331,3.331,0,0,1,41.425,5a2.715,2.715,0,0,1,1.86.594,2.141,2.141,0,0,1,.7,1.635v3.161a3.865,3.865,0,0,0,.241,1.5V12Zm-1.949-.9a2.064,2.064,0,0,0,1.047-.286,1.728,1.728,0,0,0,.717-.743V8.667h-.92q-2.158,0-2.158,1.263a1.069,1.069,0,0,0,.368.863A1.415,1.415,0,0,0,41.044,11.1Zm8.1-4.919a3.519,3.519,0,0,0-.578-.044A1.547,1.547,0,0,0,47,7.125V12H45.824V5.132h1.143l.019.793A1.829,1.829,0,0,1,48.623,5a1.2,1.2,0,0,1,.521.089Zm4.4,0a3.519,3.519,0,0,0-.578-.044,1.547,1.547,0,0,0-1.568.984V12H50.223V5.132h1.143l.019.793A1.829,1.829,0,0,1,53.022,5a1.2,1.2,0,0,1,.521.089ZM54.184,8.5a4.057,4.057,0,0,1,.4-1.815,2.96,2.96,0,0,1,1.1-1.244A3.007,3.007,0,0,1,57.3,5a2.9,2.9,0,0,1,2.269.971,3.736,3.736,0,0,1,.866,2.583v.083a4.092,4.092,0,0,1-.384,1.8,2.916,2.916,0,0,1-1.1,1.241,3.041,3.041,0,0,1-1.641.444,2.889,2.889,0,0,1-2.263-.971,3.718,3.718,0,0,1-.866-2.571Zm1.181.14a2.938,2.938,0,0,0,.53,1.834,1.8,1.8,0,0,0,2.841-.01A3.213,3.213,0,0,0,59.262,8.5a2.933,2.933,0,0,0-.536-1.831,1.705,1.705,0,0,0-1.425-.7,1.686,1.686,0,0,0-1.4.692A3.189,3.189,0,0,0,55.364,8.642ZM63.185,12H62.01V2.25h1.174Zm3.155,0H65.165V2.25h1.174Zm1.568-3.5a4.057,4.057,0,0,1,.4-1.815,2.96,2.96,0,0,1,1.1-1.244A3.007,3.007,0,0,1,71.024,5a2.9,2.9,0,0,1,2.269.971A3.736,3.736,0,0,1,74.16,8.56v.083a4.092,4.092,0,0,1-.384,1.8,2.916,2.916,0,0,1-1.1,1.241,3.041,3.041,0,0,1-1.641.444,2.889,2.889,0,0,1-2.263-.971,3.718,3.718,0,0,1-.866-2.571Zm1.181.14a2.938,2.938,0,0,0,.53,1.834,1.8,1.8,0,0,0,2.841-.01A3.213,3.213,0,0,0,72.985,8.5a2.933,2.933,0,0,0-.536-1.831,1.705,1.705,0,0,0-1.425-.7,1.686,1.686,0,0,0-1.4.692A3.189,3.189,0,0,0,69.088,8.642ZM9.645,26.509a4.023,4.023,0,0,1,.749-2.542A2.369,2.369,0,0,1,12.356,23a2.382,2.382,0,0,1,1.911.825V20.25h1.174V30H14.362l-.057-.736a2.391,2.391,0,0,1-1.961.863,2.346,2.346,0,0,1-1.946-.978A4.069,4.069,0,0,1,9.645,26.6Zm1.174.133A3.046,3.046,0,0,0,11.3,28.47a1.56,1.56,0,0,0,1.333.66,1.713,1.713,0,0,0,1.631-1V24.973A1.726,1.726,0,0,0,12.648,24a1.567,1.567,0,0,0-1.346.667A3.354,3.354,0,0,0,10.82,26.642Zm9.293,3.485a3,3,0,0,1-2.272-.917,3.4,3.4,0,0,1-.876-2.453v-.216a4.121,4.121,0,0,1,.39-1.825,3.045,3.045,0,0,1,1.092-1.257A2.745,2.745,0,0,1,19.966,23a2.572,2.572,0,0,1,2.082.882,3.82,3.82,0,0,1,.743,2.526V26.9H18.138a2.441,2.441,0,0,0,.594,1.641,1.866,1.866,0,0,0,1.444.625,2.045,2.045,0,0,0,1.054-.254,2.648,2.648,0,0,0,.755-.673l.717.559A2.884,2.884,0,0,1,20.112,30.127Zm-.146-6.157a1.566,1.566,0,0,0-1.193.517,2.515,2.515,0,0,0-.6,1.45h3.44v-.089a2.237,2.237,0,0,0-.482-1.387A1.475,1.475,0,0,0,19.966,23.97ZM25.425,30H24.251V20.25h1.174Zm10.9-3.358a4.113,4.113,0,0,1-.717,2.526,2.3,2.3,0,0,1-1.942.958,2.519,2.519,0,0,1-1.968-.793v3.307H30.523V23.132H31.6l.057.762A2.419,2.419,0,0,1,33.646,23a2.342,2.342,0,0,1,1.958.933,4.157,4.157,0,0,1,.72,2.6Zm-1.174-.133a3.035,3.035,0,0,0-.5-1.834A1.6,1.6,0,0,0,33.3,24a1.726,1.726,0,0,0-1.6.946v3.282a1.73,1.73,0,0,0,1.612.939,1.587,1.587,0,0,0,1.343-.67A3.312,3.312,0,0,0,35.15,26.509Zm5.986-2.323a3.519,3.519,0,0,0-.578-.044,1.547,1.547,0,0,0-1.568.984V30H37.816V23.132h1.143l.019.793A1.829,1.829,0,0,1,40.615,23a1.2,1.2,0,0,1,.521.089Zm.641,2.317a4.057,4.057,0,0,1,.4-1.815,2.96,2.96,0,0,1,1.1-1.244A3.007,3.007,0,0,1,44.894,23a2.9,2.9,0,0,1,2.269.971,3.736,3.736,0,0,1,.866,2.583v.083a4.092,4.092,0,0,1-.384,1.8,2.916,2.916,0,0,1-1.1,1.241,3.041,3.041,0,0,1-1.641.444,2.889,2.889,0,0,1-2.263-.971,3.718,3.718,0,0,1-.866-2.571Zm1.181.14a2.938,2.938,0,0,0,.53,1.834,1.8,1.8,0,0,0,2.841-.01,3.213,3.213,0,0,0,.527-1.965,2.933,2.933,0,0,0-.536-1.831,1.705,1.705,0,0,0-1.425-.7,1.686,1.686,0,0,0-1.4.692A3.189,3.189,0,0,0,42.958,26.642Zm6.259-.133a4.023,4.023,0,0,1,.749-2.542,2.548,2.548,0,0,1,3.872-.136V20.25h1.174V30H53.933l-.057-.736a2.391,2.391,0,0,1-1.961.863,2.346,2.346,0,0,1-1.946-.978,4.069,4.069,0,0,1-.752-2.552Zm1.174.133a3.046,3.046,0,0,0,.482,1.828,1.56,1.56,0,0,0,1.333.66,1.713,1.713,0,0,0,1.631-1V24.973A1.726,1.726,0,0,0,52.219,24a1.567,1.567,0,0,0-1.346.667A3.354,3.354,0,0,0,50.391,26.642Zm10.683,2.679a2.494,2.494,0,0,1-2.012.806,2.135,2.135,0,0,1-1.673-.638,2.761,2.761,0,0,1-.581-1.888V23.132h1.174v4.437q0,1.562,1.27,1.562a1.758,1.758,0,0,0,1.79-1v-5h1.174V30H61.1Zm5.681-.152a1.691,1.691,0,0,0,1.1-.381,1.34,1.34,0,0,0,.521-.952h1.111a2.13,2.13,0,0,1-.406,1.124,2.676,2.676,0,0,1-1,.851,2.885,2.885,0,0,1-1.323.317,2.829,2.829,0,0,1-2.231-.936,3.729,3.729,0,0,1-.828-2.561v-.2a4.135,4.135,0,0,1,.368-1.784,2.8,2.8,0,0,1,1.057-1.212A3,3,0,0,1,66.749,23a2.755,2.755,0,0,1,1.92.692,2.473,2.473,0,0,1,.816,1.8H68.374a1.618,1.618,0,0,0-.5-1.095,1.57,1.57,0,0,0-1.12-.428,1.644,1.644,0,0,0-1.387.644,3.026,3.026,0,0,0-.492,1.863V26.7a2.966,2.966,0,0,0,.489,1.828A1.651,1.651,0,0,0,66.755,29.168Zm5.643-7.7v1.663H73.68v.908H72.4V28.3a.953.953,0,0,0,.171.62.721.721,0,0,0,.584.207,2.843,2.843,0,0,0,.559-.076V30a3.424,3.424,0,0,1-.9.126,1.462,1.462,0,0,1-1.187-.476,2.045,2.045,0,0,1-.4-1.352V24.04h-1.25v-.908h1.25V21.469ZM74.613,26.5a4.057,4.057,0,0,1,.4-1.815,2.96,2.96,0,0,1,1.1-1.244A3.007,3.007,0,0,1,77.73,23,2.9,2.9,0,0,1,80,23.976a3.736,3.736,0,0,1,.866,2.583v.083a4.092,4.092,0,0,1-.384,1.8,2.916,2.916,0,0,1-1.1,1.241,3.041,3.041,0,0,1-1.641.444,2.889,2.889,0,0,1-2.263-.971,3.718,3.718,0,0,1-.866-2.571Zm1.181.14a2.938,2.938,0,0,0,.53,1.834,1.8,1.8,0,0,0,2.841-.01,3.213,3.213,0,0,0,.527-1.965,2.933,2.933,0,0,0-.536-1.831,1.705,1.705,0,0,0-1.425-.7,1.686,1.686,0,0,0-1.4.692A3.189,3.189,0,0,0,75.794,26.642Z" transform="translate(-239.302 -8899.377)" fill="#12263f"/>
      <line id="Línea_196" data-name="Línea 196" y2="290.912" transform="translate(-132.562 -9130.711)" fill="none" stroke="#1169e3" stroke-width="2"/>
      <line id="Línea_197" data-name="Línea 197" y2="194.665" transform="translate(12.894 -9130.711)" fill="none" stroke="#1169e3" stroke-width="2"/>
      <line id="Línea_198" data-name="Línea 198" y2="194.665" transform="translate(103.352 -9130.711)" fill="none" stroke="#1169e3" stroke-width="2"/>
      <line id="Línea_199" data-name="Línea 199" y2="194.665" transform="translate(208.283 -9130.711)" fill="none" stroke="#1169e3" stroke-width="2"/>
      <path id="Trazado_128924" data-name="Trazado 128924" d="M1939.066-8248.747s-48.587-52.779-76.632-92.957-53.921-101.516-121.007-37.226-68.578,113.386-144.693,136.647S1499-8225.929,1499-8225.929" transform="translate(-1631.562 -717.233)" fill="none" stroke="#3b9f33" stroke-width="7"/>
      <path id="Trazado_128925" data-name="Trazado 128925" d="M0,0H12.3V584.719H0Z" transform="translate(314.661 -8942.197) rotate(90)" fill="#12263f"/>
      <path id="Trazado_128923" data-name="Trazado 128923" d="M1321.938-8158.5s46.887-.4,87.908,11.25,52.01,37.548,85.7,35.83,96.815-68.562,106.494-74.029,40.834-27.847,113.606-25.221,69.327,36.257,177.484,37.882" transform="translate(-1582.633 -771.393)" fill="none" stroke="#dd0a0a" stroke-width="7"/>
      <path id="Trazado_130930" data-name="Trazado 130930" d="M24.411,10.381l2.641-7.624h1.333L24.957,12H23.878L20.457,2.758h1.327Zm7.6,1.746a3,3,0,0,1-2.272-.917,3.4,3.4,0,0,1-.876-2.453V8.541a4.121,4.121,0,0,1,.39-1.825,3.045,3.045,0,0,1,1.092-1.257A2.745,2.745,0,0,1,31.864,5a2.572,2.572,0,0,1,2.082.882,3.82,3.82,0,0,1,.743,2.526V8.9H30.035a2.441,2.441,0,0,0,.594,1.641,1.866,1.866,0,0,0,1.444.625,2.045,2.045,0,0,0,1.054-.254,2.648,2.648,0,0,0,.755-.673l.717.559A2.884,2.884,0,0,1,32.01,12.127ZM31.864,5.97a1.566,1.566,0,0,0-1.193.517,2.515,2.515,0,0,0-.6,1.45h3.44V7.849a2.237,2.237,0,0,0-.482-1.387A1.475,1.475,0,0,0,31.864,5.97Zm5.294-.838L37.2,6A2.5,2.5,0,0,1,39.252,5q2.177,0,2.2,2.457V12H40.274V7.455a1.581,1.581,0,0,0-.34-1.1A1.361,1.361,0,0,0,38.9,6a1.7,1.7,0,0,0-1,.3,2.069,2.069,0,0,0-.673.8V12H36.047V5.132Zm7.655-1.663V5.132h1.282V6.04H44.813V10.3a.953.953,0,0,0,.171.62.721.721,0,0,0,.584.207,2.843,2.843,0,0,0,.559-.076V12a3.424,3.424,0,0,1-.9.126,1.462,1.462,0,0,1-1.187-.476,2.045,2.045,0,0,1-.4-1.352V6.04h-1.25V5.132h1.25V3.469ZM51.706,12a2.467,2.467,0,0,1-.165-.724,2.62,2.62,0,0,1-1.955.851,2.424,2.424,0,0,1-1.666-.574,1.859,1.859,0,0,1-.651-1.457,1.942,1.942,0,0,1,.816-1.666,3.846,3.846,0,0,1,2.295-.594h1.143V7.3a1.319,1.319,0,0,0-.368-.981,1.48,1.48,0,0,0-1.085-.365,1.712,1.712,0,0,0-1.054.317.935.935,0,0,0-.425.768H47.409a1.621,1.621,0,0,1,.365-.993,2.491,2.491,0,0,1,.99-.759A3.331,3.331,0,0,1,50.138,5,2.715,2.715,0,0,1,52,5.6a2.141,2.141,0,0,1,.7,1.635v3.161a3.865,3.865,0,0,0,.241,1.5V12Zm-1.949-.9a2.064,2.064,0,0,0,1.047-.286,1.728,1.728,0,0,0,.717-.743V8.667H50.6q-2.158,0-2.158,1.263a1.069,1.069,0,0,0,.368.863A1.415,1.415,0,0,0,49.758,11.1Zm8.779-.927a.865.865,0,0,0-.359-.74,3.452,3.452,0,0,0-1.25-.454,5.912,5.912,0,0,1-1.416-.457,2.014,2.014,0,0,1-.774-.635,1.518,1.518,0,0,1-.251-.876A1.782,1.782,0,0,1,55.2,5.589,2.789,2.789,0,0,1,57.026,5a2.87,2.87,0,0,1,1.895.6,1.915,1.915,0,0,1,.727,1.542H58.467a1.06,1.06,0,0,0-.409-.832,1.534,1.534,0,0,0-1.031-.349,1.605,1.605,0,0,0-1,.279.879.879,0,0,0-.362.73A.712.712,0,0,0,56,7.62a4.139,4.139,0,0,0,1.216.413,6.334,6.334,0,0,1,1.425.47,2.079,2.079,0,0,1,.809.657,1.615,1.615,0,0,1,.263.936,1.758,1.758,0,0,1-.736,1.476,3.089,3.089,0,0,1-1.911.555,3.459,3.459,0,0,1-1.46-.292,2.375,2.375,0,0,1-.993-.816,1.966,1.966,0,0,1-.359-1.133h1.174a1.216,1.216,0,0,0,.473.936,1.835,1.835,0,0,0,1.165.346,1.894,1.894,0,0,0,1.07-.27A.829.829,0,0,0,58.536,10.178Zm8.169.1,1.6-5.148h1.257L66.8,13.06q-.641,1.714-2.038,1.714l-.222-.019-.438-.083V13.72l.317.025a1.563,1.563,0,0,0,.93-.241,1.746,1.746,0,0,0,.549-.882l.26-.7L63.71,5.132h1.282Zm-52.6,10.478v6.284a2.948,2.948,0,0,1-.822,2.139,3.312,3.312,0,0,1-2.212.933l-.324.013a3.459,3.459,0,0,1-2.418-.819,2.929,2.929,0,0,1-.914-2.253v-6.3H8.622v6.259a2.114,2.114,0,0,0,.552,1.558,2.123,2.123,0,0,0,1.574.555,2.137,2.137,0,0,0,1.584-.552,2.11,2.11,0,0,0,.549-1.555V20.758Zm3.333.711v1.663h1.282v.908H17.438V28.3a.953.953,0,0,0,.171.62.721.721,0,0,0,.584.207,2.843,2.843,0,0,0,.559-.076V30a3.424,3.424,0,0,1-.9.126,1.462,1.462,0,0,1-1.187-.476,2.045,2.045,0,0,1-.4-1.352V24.04h-1.25v-.908h1.25V21.469ZM21.368,30H20.193V23.132h1.174ZM20.1,21.31a.7.7,0,0,1,.175-.482.655.655,0,0,1,.517-.2.666.666,0,0,1,.521.2.694.694,0,0,1,.178.482.671.671,0,0,1-.178.476.678.678,0,0,1-.521.19.667.667,0,0,1-.517-.19A.678.678,0,0,1,20.1,21.31ZM24.522,30H23.348V20.25h1.174Zm3.155,0H26.5V23.132h1.174Zm-1.27-8.69a.7.7,0,0,1,.175-.482.655.655,0,0,1,.517-.2.666.666,0,0,1,.521.2.694.694,0,0,1,.178.482.671.671,0,0,1-.178.476.678.678,0,0,1-.521.19.667.667,0,0,1-.517-.19A.678.678,0,0,1,26.408,21.31Zm2.863,5.2a4.023,4.023,0,0,1,.749-2.542,2.548,2.548,0,0,1,3.872-.136V20.25h1.174V30H33.987l-.057-.736a2.391,2.391,0,0,1-1.961.863,2.346,2.346,0,0,1-1.946-.978,4.069,4.069,0,0,1-.752-2.552Zm1.174.133a3.046,3.046,0,0,0,.482,1.828,1.56,1.56,0,0,0,1.333.66,1.713,1.713,0,0,0,1.631-1V24.973A1.726,1.726,0,0,0,32.273,24a1.567,1.567,0,0,0-1.346.667A3.354,3.354,0,0,0,30.445,26.642ZM41.128,30a2.467,2.467,0,0,1-.165-.724,2.62,2.62,0,0,1-1.955.851,2.424,2.424,0,0,1-1.666-.574,1.859,1.859,0,0,1-.651-1.457,1.942,1.942,0,0,1,.816-1.666,3.846,3.846,0,0,1,2.295-.594h1.143V25.3a1.319,1.319,0,0,0-.368-.981,1.48,1.48,0,0,0-1.085-.365,1.712,1.712,0,0,0-1.054.317.935.935,0,0,0-.425.768H36.831a1.621,1.621,0,0,1,.365-.993,2.491,2.491,0,0,1,.99-.759A3.331,3.331,0,0,1,39.56,23a2.715,2.715,0,0,1,1.86.594,2.141,2.141,0,0,1,.7,1.635v3.161a3.865,3.865,0,0,0,.241,1.5V30Zm-1.949-.9a2.064,2.064,0,0,0,1.047-.286,1.728,1.728,0,0,0,.717-.743V26.667h-.92q-2.158,0-2.158,1.263a1.069,1.069,0,0,0,.368.863A1.415,1.415,0,0,0,39.179,29.1Zm4.494-2.6a4.023,4.023,0,0,1,.749-2.542,2.548,2.548,0,0,1,3.872-.136V20.25h1.174V30H48.39l-.057-.736a2.391,2.391,0,0,1-1.961.863,2.346,2.346,0,0,1-1.946-.978,4.069,4.069,0,0,1-.752-2.552Zm1.174.133a3.046,3.046,0,0,0,.482,1.828,1.56,1.56,0,0,0,1.333.66,1.713,1.713,0,0,0,1.631-1V24.973A1.726,1.726,0,0,0,46.676,24a1.567,1.567,0,0,0-1.346.667A3.354,3.354,0,0,0,44.848,26.642Zm9.293,3.485a3,3,0,0,1-2.272-.917,3.4,3.4,0,0,1-.876-2.453v-.216a4.121,4.121,0,0,1,.39-1.825,3.045,3.045,0,0,1,1.092-1.257A2.745,2.745,0,0,1,53.995,23a2.572,2.572,0,0,1,2.082.882,3.82,3.82,0,0,1,.743,2.526V26.9H52.167a2.441,2.441,0,0,0,.594,1.641,1.866,1.866,0,0,0,1.444.625,2.045,2.045,0,0,0,1.054-.254,2.648,2.648,0,0,0,.755-.673l.717.559A2.884,2.884,0,0,1,54.141,30.127Zm-.146-6.157a1.566,1.566,0,0,0-1.193.517,2.515,2.515,0,0,0-.6,1.45h3.44v-.089a2.237,2.237,0,0,0-.482-1.387A1.475,1.475,0,0,0,53.995,23.97Zm8.182,4.208a.865.865,0,0,0-.359-.74,3.452,3.452,0,0,0-1.25-.454,5.912,5.912,0,0,1-1.416-.457,2.014,2.014,0,0,1-.774-.635,1.518,1.518,0,0,1-.251-.876,1.782,1.782,0,0,1,.714-1.428A2.789,2.789,0,0,1,60.666,23a2.87,2.87,0,0,1,1.895.6,1.915,1.915,0,0,1,.727,1.542H62.107a1.06,1.06,0,0,0-.409-.832,1.534,1.534,0,0,0-1.031-.349,1.606,1.606,0,0,0-1,.279.879.879,0,0,0-.362.73.712.712,0,0,0,.336.641,4.139,4.139,0,0,0,1.216.413,6.334,6.334,0,0,1,1.425.47,2.079,2.079,0,0,1,.809.657,1.615,1.615,0,0,1,.263.936,1.758,1.758,0,0,1-.736,1.476,3.089,3.089,0,0,1-1.911.555,3.459,3.459,0,0,1-1.46-.292,2.375,2.375,0,0,1-.993-.816,1.966,1.966,0,0,1-.359-1.133h1.174a1.216,1.216,0,0,0,.473.936,1.835,1.835,0,0,0,1.165.346,1.894,1.894,0,0,0,1.07-.27A.829.829,0,0,0,62.177,28.178Zm5.878-1.93a9.814,9.814,0,0,1,.384-2.755,8,8,0,0,1,1.146-2.4,4.874,4.874,0,0,1,1.581-1.523l.241.774a5.056,5.056,0,0,0-1.52,2.171,9.411,9.411,0,0,0-.651,3.269l-.006.54a9.46,9.46,0,0,0,.9,4.253,5.079,5.079,0,0,0,1.282,1.688l-.241.717a5.031,5.031,0,0,1-1.612-1.574A8.823,8.823,0,0,1,68.055,26.249Zm9.033,1.371a1.321,1.321,0,0,0-.409-.984,3.662,3.662,0,0,0-1.381-.724,4.426,4.426,0,0,1-1.971-1.076,2.373,2.373,0,0,1-.619-1.685,2.44,2.44,0,0,1,.606-1.708,2.576,2.576,0,0,1,1.666-.793V19.26h.946v1.4a2.446,2.446,0,0,1,1.66.9,3.217,3.217,0,0,1,.594,2.05H77.011a2.211,2.211,0,0,0-.425-1.426,1.4,1.4,0,0,0-1.149-.529,1.585,1.585,0,0,0-1.155.391,1.455,1.455,0,0,0-.4,1.091,1.33,1.33,0,0,0,.422,1.033,3.889,3.889,0,0,0,1.39.7,5.852,5.852,0,0,1,1.511.692,2.43,2.43,0,0,1,.8.879,2.541,2.541,0,0,1,.257,1.174,2.353,2.353,0,0,1-.644,1.727,2.857,2.857,0,0,1-1.806.774V31.32h-.939V30.108a2.737,2.737,0,0,1-1.85-.841,2.838,2.838,0,0,1-.67-1.99h1.174a1.868,1.868,0,0,0,.463,1.358,1.75,1.75,0,0,0,1.314.476,1.971,1.971,0,0,0,1.308-.4A1.35,1.35,0,0,0,77.087,27.62Zm5.465-1.308a9.819,9.819,0,0,1-.371,2.714,8.024,8.024,0,0,1-1.136,2.4,4.978,4.978,0,0,1-1.6,1.562l-.248-.717a5.1,5.1,0,0,0,1.571-2.326,10.065,10.065,0,0,0,.606-3.5v-.2a10.45,10.45,0,0,0-.279-2.479,8.366,8.366,0,0,0-.778-2.053,4.743,4.743,0,0,0-1.12-1.416l.248-.717a4.959,4.959,0,0,1,1.6,1.549,8.041,8.041,0,0,1,1.136,2.393A10.045,10.045,0,0,1,82.553,26.312Z" transform="translate(-299.363 -9173.063)" fill="#12263f"/>
      <path id="Trazado_130931" data-name="Trazado 130931" d="M17.565,8.382V12H16.347V2.758h3.409a3.425,3.425,0,0,1,2.377.774,2.625,2.625,0,0,1,.86,2.05,2.591,2.591,0,0,1-.841,2.073,3.578,3.578,0,0,1-2.409.727Zm0-1h2.19a2.19,2.19,0,0,0,1.5-.461,1.686,1.686,0,0,0,.521-1.332,1.742,1.742,0,0,0-.521-1.323,2.051,2.051,0,0,0-1.428-.515h-2.26Zm9.566,4.742a3,3,0,0,1-2.272-.917,3.4,3.4,0,0,1-.876-2.453V8.541a4.121,4.121,0,0,1,.39-1.825,3.045,3.045,0,0,1,1.092-1.257A2.745,2.745,0,0,1,26.985,5a2.572,2.572,0,0,1,2.082.882,3.82,3.82,0,0,1,.743,2.526V8.9H25.157a2.441,2.441,0,0,0,.594,1.641,1.866,1.866,0,0,0,1.444.625,2.045,2.045,0,0,0,1.054-.254A2.648,2.648,0,0,0,29,10.242l.717.559A2.884,2.884,0,0,1,27.131,12.127ZM26.985,5.97a1.566,1.566,0,0,0-1.193.517,2.515,2.515,0,0,0-.6,1.45h3.44V7.849a2.237,2.237,0,0,0-.482-1.387A1.475,1.475,0,0,0,26.985,5.97Zm.571-3.707h1.422l-1.7,1.866-.946,0Zm6.932,3.923a3.519,3.519,0,0,0-.578-.044,1.547,1.547,0,0,0-1.568.984V12H31.168V5.132h1.143l.019.793A1.829,1.829,0,0,1,33.968,5a1.2,1.2,0,0,1,.521.089Zm.673,2.323a4.023,4.023,0,0,1,.749-2.542,2.548,2.548,0,0,1,3.872-.136V2.25h1.174V12H39.877l-.057-.736a2.391,2.391,0,0,1-1.961.863,2.346,2.346,0,0,1-1.946-.978A4.069,4.069,0,0,1,35.161,8.6Zm1.174.133a3.046,3.046,0,0,0,.482,1.828,1.56,1.56,0,0,0,1.333.66,1.713,1.713,0,0,0,1.631-1V6.973A1.726,1.726,0,0,0,38.164,6a1.567,1.567,0,0,0-1.346.667A3.354,3.354,0,0,0,36.335,8.642ZM44.054,12H42.88V5.132h1.174Zm-1.27-8.69a.7.7,0,0,1,.175-.482.655.655,0,0,1,.517-.2.666.666,0,0,1,.521.2.694.694,0,0,1,.178.482A.671.671,0,0,1,44,3.786a.678.678,0,0,1-.521.19.667.667,0,0,1-.517-.19A.678.678,0,0,1,42.785,3.31Zm2.863,5.2A4.023,4.023,0,0,1,46.4,5.967a2.548,2.548,0,0,1,3.872-.136V2.25h1.174V12H50.364l-.057-.736a2.391,2.391,0,0,1-1.961.863,2.346,2.346,0,0,1-1.946-.978A4.069,4.069,0,0,1,45.647,8.6Zm1.174.133A3.046,3.046,0,0,0,47.3,10.47a1.56,1.56,0,0,0,1.333.66,1.713,1.713,0,0,0,1.631-1V6.973A1.726,1.726,0,0,0,48.65,6a1.567,1.567,0,0,0-1.346.667A3.354,3.354,0,0,0,46.822,8.642ZM57.5,12a2.467,2.467,0,0,1-.165-.724,2.62,2.62,0,0,1-1.955.851,2.424,2.424,0,0,1-1.666-.574,1.859,1.859,0,0,1-.651-1.457,1.942,1.942,0,0,1,.816-1.666,3.846,3.846,0,0,1,2.295-.594h1.143V7.3a1.319,1.319,0,0,0-.368-.981,1.48,1.48,0,0,0-1.085-.365,1.712,1.712,0,0,0-1.054.317.935.935,0,0,0-.425.768H53.208a1.621,1.621,0,0,1,.365-.993,2.491,2.491,0,0,1,.99-.759A3.331,3.331,0,0,1,55.937,5,2.715,2.715,0,0,1,57.8,5.6a2.141,2.141,0,0,1,.7,1.635v3.161a3.865,3.865,0,0,0,.241,1.5V12Zm-1.949-.9a2.064,2.064,0,0,0,1.047-.286,1.728,1.728,0,0,0,.717-.743V8.667H56.4q-2.158,0-2.158,1.263a1.069,1.069,0,0,0,.368.863A1.415,1.415,0,0,0,55.556,11.1Zm8.779-.927a.864.864,0,0,0-.359-.74,3.452,3.452,0,0,0-1.25-.454,5.912,5.912,0,0,1-1.416-.457,2.014,2.014,0,0,1-.774-.635,1.518,1.518,0,0,1-.251-.876A1.782,1.782,0,0,1,61,5.589,2.789,2.789,0,0,1,62.824,5a2.87,2.87,0,0,1,1.895.6,1.915,1.915,0,0,1,.727,1.542H64.265a1.06,1.06,0,0,0-.409-.832,1.534,1.534,0,0,0-1.031-.349,1.605,1.605,0,0,0-1,.279.879.879,0,0,0-.362.73.712.712,0,0,0,.336.641,4.139,4.139,0,0,0,1.216.413,6.334,6.334,0,0,1,1.425.47,2.079,2.079,0,0,1,.809.657,1.615,1.615,0,0,1,.263.936,1.758,1.758,0,0,1-.736,1.476,3.089,3.089,0,0,1-1.911.555,3.459,3.459,0,0,1-1.46-.292,2.375,2.375,0,0,1-.993-.816,1.966,1.966,0,0,1-.359-1.133h1.174a1.216,1.216,0,0,0,.473.936,1.835,1.835,0,0,0,1.165.346,1.894,1.894,0,0,0,1.07-.27A.829.829,0,0,0,64.335,10.178Zm6.157,2.615H69.483L73.342,2.758h1ZM11.288,30H10.113V23.132h1.174Zm-1.27-8.69a.7.7,0,0,1,.175-.482.655.655,0,0,1,.517-.2.666.666,0,0,1,.521.2.694.694,0,0,1,.178.482.671.671,0,0,1-.178.476.678.678,0,0,1-.521.19.667.667,0,0,1-.517-.19A.678.678,0,0,1,10.018,21.31Zm4.259,1.822.038.863A2.5,2.5,0,0,1,16.372,23q2.177,0,2.2,2.457V30H17.394V25.455a1.581,1.581,0,0,0-.34-1.1A1.361,1.361,0,0,0,16.017,24a1.7,1.7,0,0,0-1,.3,2.069,2.069,0,0,0-.673.8V30H13.167V23.132Zm8.328,5.275,1.7-5.275h1.2L23.043,30h-.9L19.66,23.132h1.2Zm6.8,1.72a3,3,0,0,1-2.272-.917,3.4,3.4,0,0,1-.876-2.453v-.216a4.121,4.121,0,0,1,.39-1.825,3.045,3.045,0,0,1,1.092-1.257A2.745,2.745,0,0,1,29.258,23a2.572,2.572,0,0,1,2.082.882,3.82,3.82,0,0,1,.743,2.526V26.9H27.43a2.441,2.441,0,0,0,.594,1.641,1.866,1.866,0,0,0,1.444.625,2.045,2.045,0,0,0,1.054-.254,2.648,2.648,0,0,0,.755-.673l.717.559A2.884,2.884,0,0,1,29.4,30.127Zm-.146-6.157a1.566,1.566,0,0,0-1.193.517,2.515,2.515,0,0,0-.6,1.45h3.44v-.089a2.237,2.237,0,0,0-.482-1.387A1.475,1.475,0,0,0,29.258,23.97Zm7.5.216a3.519,3.519,0,0,0-.578-.044,1.547,1.547,0,0,0-1.568.984V30H33.441V23.132h1.143l.019.793A1.829,1.829,0,0,1,36.24,23a1.2,1.2,0,0,1,.521.089Zm5.078,3.993a.865.865,0,0,0-.359-.74,3.452,3.452,0,0,0-1.25-.454,5.912,5.912,0,0,1-1.416-.457,2.014,2.014,0,0,1-.774-.635,1.518,1.518,0,0,1-.251-.876,1.782,1.782,0,0,1,.714-1.428A2.789,2.789,0,0,1,40.328,23a2.87,2.87,0,0,1,1.895.6,1.915,1.915,0,0,1,.727,1.542H41.769a1.06,1.06,0,0,0-.409-.832,1.534,1.534,0,0,0-1.031-.349,1.606,1.606,0,0,0-1,.279.879.879,0,0,0-.362.73.712.712,0,0,0,.336.641,4.139,4.139,0,0,0,1.216.413,6.334,6.334,0,0,1,1.425.47,2.079,2.079,0,0,1,.809.657,1.615,1.615,0,0,1,.263.936,1.758,1.758,0,0,1-.736,1.476,3.089,3.089,0,0,1-1.911.555,3.459,3.459,0,0,1-1.46-.292,2.375,2.375,0,0,1-.993-.816,1.966,1.966,0,0,1-.359-1.133h1.174a1.216,1.216,0,0,0,.473.936,1.835,1.835,0,0,0,1.165.346,1.894,1.894,0,0,0,1.07-.27A.829.829,0,0,0,41.839,28.178ZM45.819,30H44.645V23.132h1.174Zm-1.27-8.69a.7.7,0,0,1,.175-.482.655.655,0,0,1,.517-.2.666.666,0,0,1,.521.2.694.694,0,0,1,.178.482.671.671,0,0,1-.178.476.678.678,0,0,1-.521.19.667.667,0,0,1-.517-.19A.678.678,0,0,1,44.549,21.31ZM47.387,26.5a4.057,4.057,0,0,1,.4-1.815,2.96,2.96,0,0,1,1.1-1.244A3.007,3.007,0,0,1,50.5,23a2.9,2.9,0,0,1,2.269.971,3.736,3.736,0,0,1,.866,2.583v.083a4.092,4.092,0,0,1-.384,1.8,2.916,2.916,0,0,1-1.1,1.241,3.041,3.041,0,0,1-1.641.444,2.889,2.889,0,0,1-2.263-.971,3.718,3.718,0,0,1-.866-2.571Zm1.181.14a2.938,2.938,0,0,0,.53,1.834,1.8,1.8,0,0,0,2.841-.01,3.213,3.213,0,0,0,.527-1.965,2.933,2.933,0,0,0-.536-1.831,1.705,1.705,0,0,0-1.425-.7,1.686,1.686,0,0,0-1.4.692A3.189,3.189,0,0,0,48.567,26.642Zm2.469-6.379h1.422l-1.7,1.866-.946,0Zm5.186,2.869.038.863A2.5,2.5,0,0,1,58.317,23q2.177,0,2.2,2.457V30H59.339V25.455a1.581,1.581,0,0,0-.34-1.1A1.361,1.361,0,0,0,57.962,24a1.7,1.7,0,0,0-1,.3,2.069,2.069,0,0,0-.673.8V30H55.112V23.132Zm9.236,3.117a9.814,9.814,0,0,1,.384-2.755,8,8,0,0,1,1.146-2.4,4.874,4.874,0,0,1,1.581-1.523l.241.774a5.056,5.056,0,0,0-1.52,2.171,9.411,9.411,0,0,0-.651,3.269l-.006.54a9.46,9.46,0,0,0,.9,4.253,5.079,5.079,0,0,0,1.282,1.688l-.241.717a5.031,5.031,0,0,1-1.612-1.574A8.823,8.823,0,0,1,65.458,26.249Zm9.033,1.371a1.321,1.321,0,0,0-.409-.984,3.662,3.662,0,0,0-1.381-.724,4.426,4.426,0,0,1-1.971-1.076,2.373,2.373,0,0,1-.619-1.685,2.44,2.44,0,0,1,.606-1.708,2.576,2.576,0,0,1,1.666-.793V19.26h.946v1.4a2.446,2.446,0,0,1,1.66.9,3.217,3.217,0,0,1,.594,2.05H74.415a2.211,2.211,0,0,0-.425-1.426,1.4,1.4,0,0,0-1.149-.529,1.585,1.585,0,0,0-1.155.391,1.455,1.455,0,0,0-.4,1.091,1.33,1.33,0,0,0,.422,1.033,3.889,3.889,0,0,0,1.39.7,5.852,5.852,0,0,1,1.511.692,2.43,2.43,0,0,1,.8.879,2.541,2.541,0,0,1,.257,1.174,2.353,2.353,0,0,1-.644,1.727,2.857,2.857,0,0,1-1.806.774V31.32h-.939V30.108a2.737,2.737,0,0,1-1.85-.841,2.838,2.838,0,0,1-.67-1.99H70.93a1.868,1.868,0,0,0,.463,1.358,1.75,1.75,0,0,0,1.314.476,1.971,1.971,0,0,0,1.308-.4A1.35,1.35,0,0,0,74.491,27.62Zm5.465-1.308a9.819,9.819,0,0,1-.371,2.714,8.024,8.024,0,0,1-1.136,2.4,4.978,4.978,0,0,1-1.6,1.562l-.248-.717A5.1,5.1,0,0,0,78.17,29.94a10.065,10.065,0,0,0,.606-3.5v-.2a10.45,10.45,0,0,0-.279-2.479,8.366,8.366,0,0,0-.778-2.053,4.743,4.743,0,0,0-1.12-1.416l.248-.717a4.959,4.959,0,0,1,1.6,1.549,8.041,8.041,0,0,1,1.136,2.393A10.045,10.045,0,0,1,79.957,26.312Z" transform="translate(-299.363 -8827.063)" fill="#12263f"/>
      <rect id="Rectángulo_37392" data-name="Rectángulo 37392" width="12.302" height="290.912" transform="translate(-259.926 -9130.711)" fill="#12263f"/>
      <path id="Trazado_130933" data-name="Trazado 130933" d="M2.38,12H1.162V2.758H2.38ZM5.535,5.132,5.573,6A2.5,2.5,0,0,1,7.63,5q2.177,0,2.2,2.457V12H8.652V7.455a1.581,1.581,0,0,0-.34-1.1A1.361,1.361,0,0,0,7.274,6a1.7,1.7,0,0,0-1,.3,2.069,2.069,0,0,0-.673.8V12H4.424V5.132ZM13.19,3.469V5.132h1.282V6.04H13.19V10.3a.953.953,0,0,0,.171.62.721.721,0,0,0,.584.207,2.843,2.843,0,0,0,.559-.076V12a3.424,3.424,0,0,1-.9.126,1.462,1.462,0,0,1-1.187-.476,2.045,2.045,0,0,1-.4-1.352V6.04h-1.25V5.132h1.25V3.469Zm5.973,2.717a3.519,3.519,0,0,0-.578-.044,1.547,1.547,0,0,0-1.568.984V12H15.844V5.132h1.143l.019.793A1.829,1.829,0,0,1,18.643,5a1.2,1.2,0,0,1,.521.089ZM19.8,8.5a4.057,4.057,0,0,1,.4-1.815,2.96,2.96,0,0,1,1.1-1.244A3.007,3.007,0,0,1,22.921,5a2.9,2.9,0,0,1,2.269.971,3.736,3.736,0,0,1,.866,2.583v.083a4.092,4.092,0,0,1-.384,1.8,2.916,2.916,0,0,1-1.1,1.241,3.041,3.041,0,0,1-1.641.444,2.889,2.889,0,0,1-2.263-.971A3.718,3.718,0,0,1,19.8,8.585Zm1.181.14a2.938,2.938,0,0,0,.53,1.834,1.8,1.8,0,0,0,2.841-.01A3.213,3.213,0,0,0,24.883,8.5a2.933,2.933,0,0,0-.536-1.831,1.705,1.705,0,0,0-1.425-.7,1.686,1.686,0,0,0-1.4.692A3.189,3.189,0,0,0,20.985,8.642Zm6.259-.133a4.023,4.023,0,0,1,.749-2.542,2.548,2.548,0,0,1,3.872-.136V2.25H33.04V12H31.96l-.057-.736a2.391,2.391,0,0,1-1.961.863A2.346,2.346,0,0,1,28,11.149,4.069,4.069,0,0,1,27.244,8.6Zm1.174.133A3.046,3.046,0,0,0,28.9,10.47a1.56,1.56,0,0,0,1.333.66,1.713,1.713,0,0,0,1.631-1V6.973A1.726,1.726,0,0,0,30.247,6a1.567,1.567,0,0,0-1.346.667A3.354,3.354,0,0,0,28.418,8.642ZM39.1,11.321a2.494,2.494,0,0,1-2.012.806,2.135,2.135,0,0,1-1.673-.638A2.761,2.761,0,0,1,34.836,9.6V5.132H36.01V9.569q0,1.562,1.27,1.562a1.758,1.758,0,0,0,1.79-1v-5h1.174V12H39.127Zm5.681-.152a1.692,1.692,0,0,0,1.1-.381,1.34,1.34,0,0,0,.521-.952h1.111a2.13,2.13,0,0,1-.406,1.124,2.676,2.676,0,0,1-1,.851,2.885,2.885,0,0,1-1.323.317,2.829,2.829,0,0,1-2.231-.936,3.729,3.729,0,0,1-.828-2.561v-.2a4.135,4.135,0,0,1,.368-1.784,2.8,2.8,0,0,1,1.057-1.212A3,3,0,0,1,44.776,5,2.755,2.755,0,0,1,46.7,5.7a2.473,2.473,0,0,1,.816,1.8H46.4A1.618,1.618,0,0,0,45.9,6.4a1.57,1.57,0,0,0-1.12-.428,1.644,1.644,0,0,0-1.387.644A3.026,3.026,0,0,0,42.9,8.477V8.7a2.965,2.965,0,0,0,.489,1.828A1.651,1.651,0,0,0,44.783,11.168Zm6.8,0a1.692,1.692,0,0,0,1.1-.381,1.34,1.34,0,0,0,.521-.952h1.111a2.13,2.13,0,0,1-.406,1.124,2.676,2.676,0,0,1-1,.851,2.885,2.885,0,0,1-1.323.317,2.829,2.829,0,0,1-2.231-.936,3.729,3.729,0,0,1-.828-2.561v-.2A4.135,4.135,0,0,1,48.9,6.649a2.8,2.8,0,0,1,1.057-1.212A3,3,0,0,1,51.581,5,2.755,2.755,0,0,1,53.5,5.7a2.473,2.473,0,0,1,.816,1.8H53.206A1.618,1.618,0,0,0,52.7,6.4a1.57,1.57,0,0,0-1.12-.428,1.644,1.644,0,0,0-1.387.644A3.026,3.026,0,0,0,49.7,8.477V8.7a2.965,2.965,0,0,0,.489,1.828A1.651,1.651,0,0,0,51.587,11.168ZM56.913,12H55.739V5.132h1.174Zm-1.27-8.69a.7.7,0,0,1,.175-.482.655.655,0,0,1,.517-.2.666.666,0,0,1,.521.2.694.694,0,0,1,.178.482.671.671,0,0,1-.178.476.678.678,0,0,1-.521.19.667.667,0,0,1-.517-.19A.678.678,0,0,1,55.644,3.31ZM58.481,8.5a4.057,4.057,0,0,1,.4-1.815,2.96,2.96,0,0,1,1.1-1.244A3.007,3.007,0,0,1,61.6,5a2.9,2.9,0,0,1,2.269.971,3.736,3.736,0,0,1,.866,2.583v.083a4.092,4.092,0,0,1-.384,1.8,2.916,2.916,0,0,1-1.1,1.241,3.041,3.041,0,0,1-1.641.444,2.889,2.889,0,0,1-2.263-.971,3.718,3.718,0,0,1-.866-2.571Zm1.181.14a2.938,2.938,0,0,0,.53,1.834,1.8,1.8,0,0,0,2.841-.01A3.213,3.213,0,0,0,63.559,8.5a2.933,2.933,0,0,0-.536-1.831,1.705,1.705,0,0,0-1.425-.7,1.686,1.686,0,0,0-1.4.692A3.189,3.189,0,0,0,59.662,8.642Zm2.469-6.379h1.422l-1.7,1.866-.946,0Zm5.186,2.869L67.355,6A2.5,2.5,0,0,1,69.412,5q2.177,0,2.2,2.457V12H70.434V7.455a1.581,1.581,0,0,0-.34-1.1A1.361,1.361,0,0,0,69.056,6a1.7,1.7,0,0,0-1,.3,2.069,2.069,0,0,0-.673.8V12H66.206V5.132Z" transform="translate(-86.247 -8864.404)" fill="#12263f"/>
    </g>
  </g>
</svg>
