<svg xmlns="http://www.w3.org/2000/svg" xmlns:xlink="http://www.w3.org/1999/xlink" width="69" height="84" viewBox="0 0 69 84">
  <defs>
    <clipPath id="clip-path">
      <rect id="Rect치ngulo_37645" data-name="Rect치ngulo 37645" width="43.406" height="51.6" fill="none"/>
    </clipPath>
  </defs>
  <g id="_78" data-name="78" transform="translate(-323 -10917)">
    <g id="Grupo_156377" data-name="Grupo 156377" transform="translate(323.373 10917.391)">
      <rect id="Rect치ngulo_36766" data-name="Rect치ngulo 36766" width="69" height="84" rx="12" transform="translate(-0.373 -0.391)" fill="#0c487b"/>
    </g>
    <g id="Grupo_156647" data-name="Grupo 156647" transform="translate(1)">
      <g id="Grupo_156582" data-name="Grupo 156582" transform="translate(-26 6270)">
        <path id="Trazado_127053" data-name="Trazado 127053" d="M15.507,123.96c-.454.1-.559-.113-.555-.537.012-1.063-.007-1.081-1.106-1.075-.409,0-.536-.124-.528-.529.007-.377.077-.553.512-.551,1.1,0,1.131-.018,1.119-1.119-.005-.5.239-.507.608-.511s.56.058.56.5c0,1.115.023,1.135,1.112,1.131.421,0,.521.15.522.541s-.1.541-.52.539c-1.11-.006-1.137.014-1.112,1.066.012.488-.169.631-.611.545" transform="translate(339.683 4573.993)" fill="#29c4bb"/>
        <path id="Trazado_127054" data-name="Trazado 127054" d="M213.642,151.161c.406-.078.632.057.565.517-.056.385.077.6.5.533s.57.088.573.537c0,.47-.189.578-.589.525-.383-.052-.5.115-.5.5.012.6-.357.826-.934.645-.274-.086-.214-.3-.2-.477.048-.472-.06-.76-.616-.666-.431.073-.457-.2-.456-.527s.014-.6.451-.53c.471.073.694-.1.616-.6-.075-.475.23-.5.582-.454" transform="translate(195.806 4552.685)" fill="#29c4bb"/>
        <path id="Trazado_127055" data-name="Trazado 127055" d="M210.718,69.268c.1.453-.1.608-.527.537-.46-.078-.648.111-.567.569s-.113.548-.542.553-.609-.127-.532-.557c.082-.459-.109-.648-.565-.562-.472.089-.513-.158-.531-.555-.021-.466.16-.588.566-.517.441.077.606-.106.531-.537-.072-.412.061-.579.521-.563.4.014.639.072.552.536s.115.639.567.563c.425-.072.632.081.526.534" transform="translate(199.254 4608.526)" fill="#010000"/>
        <path id="Trazado_127056" data-name="Trazado 127056" d="M55.04,186.64c.1.423-.11.578-.532.5-.5-.09-.614.169-.543.587.079.465-.146.537-.555.535-.39,0-.6-.091-.518-.511.108-.553-.169-.688-.645-.607s-.466-.225-.467-.559.007-.6.448-.512c.593.117.745-.168.665-.7-.077-.508.311-.362.569-.377.274-.016.579-.052.5.389-.1.545.092.8.67.687.482-.092.423.243.409.566" transform="translate(311.829 4530.025)" fill="#010000"/>
        <path id="Trazado_127057" data-name="Trazado 127057" d="M121.786,17.426c-.114-.483.153-.577.548-.518.41.061.572-.109.509-.513s.058-.588.522-.578c.427.009.623.119.548.558s.131.6.553.533c.391-.059.587.035.589.513s-.182.62-.608.553c-.45-.072-.6.133-.533.553.078.472-.175.526-.572.534-.424.009-.562-.151-.5-.54.068-.427-.09-.622-.535-.547s-.62-.106-.523-.547" transform="translate(261.153 4643.184)" fill="#29c4bb"/>
      </g>
      <g id="Grupo_157649" data-name="Grupo 157649" transform="translate(335.113 10933.701)">
        <g id="Grupo_157649-2" data-name="Grupo 157649" clip-path="url(#clip-path)">
          <path id="Trazado_130556" data-name="Trazado 130556" d="M2.156,0H8.707c.6.153.646.629.648,1.128-.017.318.14.448.451.444s.6-.012.9,0c1.719-.028,3.438-.018,5.156-.005.52,0,1.052.046,1.312.627.1,1.425.016,2.852.045,4.279a2.315,2.315,0,0,0,.048.747c.1.2.3.259.481.338a3.212,3.212,0,0,1,1.7,1.635,4.032,4.032,0,0,1,.306,1.7c0,2.345.017,4.689-.005,7.033.025.65,0,1.3.005,1.949.006,2.372.019,4.745-.005,7.117.026.651,0,1.3.005,1.953.006,2.373.019,4.745-.005,7.117.025.65,0,1.3,0,1.951q.014,3.511,0,7.021c.044.231.22.266.412.273.215.009.431,0,.647,0,.314.008.455-.138.451-.449-.007-.5.014-1-.009-1.494,0-2.353-.018-4.7.007-7.056-.025-.651,0-1.3-.005-1.952-.006-2.371-.019-4.743.005-7.114-.023-.646,0-1.291,0-1.937-.012-2.037-.006-4.075,0-6.112a2.437,2.437,0,0,1,.2-1.024,2.742,2.742,0,0,1,1.281-1.338,2.139,2.139,0,0,1,.924-.238q7.174-.01,14.345,0a1.785,1.785,0,0,1,.686.133,2.488,2.488,0,0,1,1.367,1.129,2.594,2.594,0,0,1,.338,1.047c.02,7.323,0,14.646,0,21.968a3.485,3.485,0,0,1-.013.352.81.81,0,0,1-.784.735c-.688-.044-.992-.357-1.005-1.1-.022-1.255-.009-2.51,0-3.765-.014-.633,0-1.265,0-1.9-.014-.637,0-1.273-.006-1.911-.009-.524-.048-.568-.585-.568-.972,0-1.944-.028-2.916-.015-.2,0-.41-.046-.549.158a1.58,1.58,0,0,0-.068.647q0,2.391,0,4.782a3.625,3.625,0,0,1-.047.752,1.031,1.031,0,0,1-.818.856,2.388,2.388,0,0,1-.548.072c-1.477.008-2.953.015-4.429,0a1.208,1.208,0,0,1-1.24-.6.761.761,0,0,1-.055-.184c-.036-1.926-.006-3.852-.016-5.778,0-.668-.039-.7-.716-.707-.988-.009-1.976.028-2.965.014-.412-.006-.573.161-.557.567.018.468.007.938-.012,1.407-.02,3.306.025,6.612,0,9.918,0,.212-.05.443.151.607a1.365,1.365,0,0,0,.688.084c1.516.007,3.032-.007,4.549.006.646.009,1.293-.02,1.939,0,2.028-.01,4.056-.025,6.083,0,.337-.01.675-.008,1.013-.005,1.1.036,1.1.036,1.118-1.04.149-.761.412-.973,1.146-.931.487.133.619.5.647.952.02.322-.117.667.116.963a7.262,7.262,0,0,0,1.646.068A1.161,1.161,0,0,1,43.4,46.658a4.715,4.715,0,0,1-4.389,4.379H16.289A1.593,1.593,0,0,1,15.846,51a3.409,3.409,0,0,1-2.3-1.841c-.106-.27-.23-.221-.389-.033A7.506,7.506,0,0,1,9.676,51.4c-.451.149-.921.094-1.372.2H7.4a.77.77,0,0,0-.6,0h-.3a6.319,6.319,0,0,1-1.929-.471A7.551,7.551,0,0,1,.856,47.673,8.507,8.507,0,0,1,.244,46.11a7.31,7.31,0,0,1,.972-5.934,7.461,7.461,0,0,1,8.158-3.189,10.307,10.307,0,0,1,1.611.63,8.322,8.322,0,0,1,2.222,1.729c-.007-1.438.011-2.8-.015-4.166-.014-.618.006-1.235-.008-1.853,0-2.367-.018-4.733.008-7.1-.025-.649,0-1.3,0-1.949,0-2.347-.026-4.694.01-7.04-.012-.6-.005-1.19.709-1.429a1.073,1.073,0,0,1,.706.113.873.873,0,0,1,.379.723C15,24.462,14.983,32.278,15,40.093c.007,2.6-.05,5.2.013,7.8a1.565,1.565,0,0,0,.665,1.133c.565.357,1.2.173,1.8.217,2.344-.036,4.687-.014,7.029-.014.65.015,1.3-.02,1.95.006,2.368-.019,4.737-.01,7.1-.008.629.02,1.258-.01,1.887.005,1.138.022,2.277.036,3.414,0a2.7,2.7,0,0,0,2.416-1.544c.234-.447.162-.564-.337-.569-1.055-.01-2.109,0-3.164,0-.629.013-1.258.021-1.887.005-2.369.022-4.737.013-7.105.008-.65-.017-1.3.019-1.949-.006-2.352.017-4.7.011-7.055.006a7.025,7.025,0,0,0-.754-.014,1.029,1.029,0,0,1-1.038-.65.813.813,0,0,1-.049-.287q-.023-17.473,0-34.946a8.321,8.321,0,0,0-.017-.854c-.259-1.021-.928-1.5-1.811-1.264a1.464,1.464,0,0,0-1.079,1.207c-.079,1.056-.009,2.113-.037,3.168-.018.7-.281.95-.991.958a.887.887,0,0,1-.78-.91,23.083,23.083,0,0,1,.014-3.261,3.1,3.1,0,0,1,1.759-2.635,1.041,1.041,0,0,0,.439-.324A2.727,2.727,0,0,0,15.5,5.928a16.682,16.682,0,0,1-.087-2c.026-.4-.156-.561-.565-.559q-2.46.017-4.921,0c-.411,0-.577.146-.563.556.02.557-.05,1.084-.673,1.322-2.1.09-4.194.018-6.29.027A2.469,2.469,0,0,1,.3,2.8c0-.271,0-.542.006-.812A2.863,2.863,0,0,1,1.276.353,1.907,1.907,0,0,1,2.156,0" transform="translate(0)"/>
          <path id="Trazado_130557" data-name="Trazado 130557" d="M18.86,143.066a.447.447,0,0,1,.6,0Z" transform="translate(-12.068 -91.466)" fill="#181818"/>
          <path id="Trazado_130558" data-name="Trazado 130558" d="M10.26,6.333c-1.355.008-2.71.028-4.065.019a.735.735,0,0,1-.764-.766,3.913,3.913,0,0,1,0-.6.761.761,0,0,1,.813-.774c1.607-.005,3.213.008,4.82.013.155.865.143,1.665-.8,2.11" transform="translate(-3.468 -2.693)" fill="#bdd8fc"/>
          <path id="Trazado_130559" data-name="Trazado 130559" d="M15.989,110.716h0a5.485,5.485,0,0,0-3.238-3.6,4.717,4.717,0,0,0-2.012-.487,4.9,4.9,0,0,0-1.349.078,5.794,5.794,0,0,0-4.713,5.01,1.121,1.121,0,0,0-.042.242,4.9,4.9,0,0,0,.443,2.743,5.488,5.488,0,0,0,3.63,3.3.233.233,0,0,0,.13.043,4.4,4.4,0,0,0,2.337.171,5.776,5.776,0,0,0,5.09-5.659,4.174,4.174,0,0,0-.276-1.845m-7.608,3.958a3.549,3.549,0,0,1-.976-1.786l-.049-.089a.8.8,0,0,0,.089-.5,2.908,2.908,0,0,1,2.885-2.837.962.962,0,0,0,.522-.071l.1.042a2.922,2.922,0,0,0,.283.1,2.909,2.909,0,0,1,2.194,3,2.019,2.019,0,0,0,.043.6l.016.022c-.123.031-.136.164-.173.264a3.048,3.048,0,0,1-1.912,1.913c-.1.037-.228.053-.269.169a.374.374,0,0,0-.034-.017,2.535,2.535,0,0,0-.7-.036,2.887,2.887,0,0,1-2.018-.779" transform="translate(-2.937 -68.215)" fill="#9dc7fb"/>
          <path id="Trazado_130560" data-name="Trazado 130560" d="M84.239,90.716c0-.316-.183-.341-.425-.339-.887,0-1.774-.009-2.66.005-.239,0-.5-.1-.718.086l-.01,3.123v1.915l.019.5a27.78,27.78,0,0,0,3.706,0h0c.028-.057.08-.114.08-.172,0-1.706,0-3.413.007-5.119m-.1,1.161.015-.015v.026l-.015-.012" transform="translate(-51.46 -57.814)" fill="#8c552f"/>
          <path id="Trazado_130561" data-name="Trazado 130561" d="M84.113,50.647h0l-2.419-.013c-1.617,0-1.3-.3-1.308,1.3-.005,1.324,0,2.649-.022,3.972,0,.293.107.372.382.366.855-.018,1.71-.015,2.564-.021.083.005.166.015.249.016.637.009.637.008.638-.648,0-1.485,0-2.97,0-4.455,0-.173.081-.368-.082-.519" transform="translate(-51.422 -32.385)" fill="#85512c"/>
          <path id="Trazado_130562" data-name="Trazado 130562" d="M18.86,6.359c.024-.044.038-.1.075-.128a1.858,1.858,0,0,0,.729-1.982,6.97,6.97,0,0,1,.079,2.031c0,.146-.182.109-.29.108-.2,0-.4-.018-.594-.029" transform="translate(-12.068 -2.719)" fill="#b0c9eb"/>
          <path id="Trazado_130563" data-name="Trazado 130563" d="M103.238,60.42h0q0-.958,0-1.915c.007-.784.023-1.567.021-2.351-.005-1.6-.02-3.2-.031-4.8-.2-.637-.723-.757-1.6-.7h-.82V63.438c.621.006,1.545.009,2.166.024.218.005.292-.079.289-.292-.014-.917-.017-1.833-.024-2.75" transform="translate(-64.502 -32.402)" fill="#c6855a"/>
          <path id="Trazado_130564" data-name="Trazado 130564" d="M80.479,106.052h3.706a1.222,1.222,0,0,1-.777.076,18.982,18.982,0,0,1-2.929-.075" transform="translate(-51.495 -67.857)" fill="#85512c"/>
          <path id="Trazado_130565" data-name="Trazado 130565" d="M77.19,50.908A.535.535,0,0,0,77,50.633c-.584-.007-1.168-.009-1.752-.025-.213-.006-.3.068-.293.287.016.951.02,1.9.028,2.853a15.091,15.091,0,0,0,0,1.915c-.009.418-.009.836-.028,1.254a.785.785,0,0,1-.882.861c-.4.009-.8.012-1.205.018H70.949c-.629-.006-1.259-.029-1.888-.011a.932.932,0,0,1-.939-.511c0-2.038,0-4.077-.014-6.115,0-.17.091-.366-.079-.514-1.205-.009-2.411-.03-3.616-.022a.721.721,0,0,0-.727.578c-.137.158-.089.35-.089.529q0,5.621,0,11.242c0,.148-.1.336.1.448l1.714,0h9.07l1.915,0h.794Z" transform="translate(-40.678 -32.382)" fill="#cd9673"/>
          <path id="Trazado_130566" data-name="Trazado 130566" d="M12.1,117.669c.019-1.892.831-3.062,2.4-3.475a5.246,5.246,0,0,1,1.246-.068c1.968.538,2.722,1.644,2.615,3.833a3.4,3.4,0,0,1-2.433,2.42,3.51,3.51,0,0,1-2.395-.467,3.276,3.276,0,0,1-1.433-2.244" transform="translate(-7.74 -73.022)"/>
          <path id="Trazado_130567" data-name="Trazado 130567" d="M66.222,62.792c-1.174.016-2.348.015-3.522.021H44.559a4.507,4.507,0,0,0-.54-.013.973.973,0,0,1-1.068-.518q-.011-.1-.021-.192h0c.005-.084.015-.167.015-.251q0-17.689,0-35.378a.711.711,0,0,0-.077-.485A1.556,1.556,0,0,0,39.817,26a.953.953,0,0,0-.081.585c0,.886,0,1.773,0,2.659,0,.684-.187.887-.865.958-.01.031,0,.055.041.073a1.976,1.976,0,0,1-.03,1.449,1.346,1.346,0,0,1,.543.113,1.013,1.013,0,0,1,.322.53.933.933,0,0,0-.01.1q0,15.5,0,31a.764.764,0,0,0,.074.487,1.247,1.247,0,0,0,.62.967c.543.472,1.193.3,1.814.3H60.384c1.173,0,2.349.04,3.52,0a2.986,2.986,0,0,0,2.584-2.081c.088-.294,0-.339-.267-.336M39.832,38.4h0v-.02l.008.013-.008.008m3.014-10.065v.079a.373.373,0,0,0-.031-.05Zm-3.029.972a.209.209,0,0,0,.041.022l-.041.04Z" transform="translate(-24.868 -15.832)" fill="#e9d65f"/>
          <path id="Trazado_130568" data-name="Trazado 130568" d="M77.225,97.25h0l0-.2a3.091,3.091,0,0,0,.062-1.846l-.015-.016a1,1,0,0,0,.087-.28c.062-1.1.012-2.207.026-3.311a4.774,4.774,0,0,0-.025-.8c-.031-.2-.1-.355-.345-.344a17.3,17.3,0,0,0-2,.048c-.012.183-.034.365-.035.548,0,1.858,0,3.717,0,5.575,0,.718-.254.984-.964.989-1.64.011-3.281,0-4.922.006a1,1,0,0,1-.935-.466l-.022-.105c0-2.065,0-4.131.008-6.2,0-.305-.047-.452-.406-.446-1.259.022-2.519.017-3.778.006-.266,0-.352.08-.343.344.021.587.015,1.174.021,1.762q-.009,5.288-.017,10.575c0,.079-.015.172.1.192h13.5a.537.537,0,0,0,.152-.413c0-1.809.054-3.619-.029-5.429a.723.723,0,0,0-.127-.186m-9.178-1.92c0,.009,0,.017,0,.026l-.021-.007.019-.019M63.673,102.8c0,.014,0,.028,0,.043,0-.014,0-.028,0-.043" transform="translate(-40.708 -57.843)" fill="#ce9775"/>
          <path id="Trazado_130569" data-name="Trazado 130569" d="M17.95,118.295a1.638,1.638,0,1,1-1.66,1.588,1.613,1.613,0,0,1,1.66-1.588" transform="translate(-10.422 -75.691)" fill="#62a3fa"/>
          <path id="Trazado_130570" data-name="Trazado 130570" d="M100.607,101.179a2.488,2.488,0,0,1-.022-1.472c-.627-.054-.858-.288-.864-.915-.013-1.285-.016-2.57-.023-3.855V93.022c.007-.75,0-1.5.028-2.251.009-.3-.115-.36-.384-.358-1.268.009-2.537,0-3.8,0-.093,0-.2-.033-.261.087.587,0,1.176.021,1.762,0,.359-.015.458.116.453.462-.017,1.392-.009,2.785-.009,4.178h0q0,.928,0,1.855l-.05.059a.208.208,0,0,0,.048.2q0,3.014,0,6.029h1.012c1.485,0,1.217.3,1.2-1.191.151-.7.317-.836.983-.825.04-.083.018-.114-.073-.089" transform="translate(-60.963 -57.849)" fill="#bb7f56"/>
        </g>
      </g>
    </g>
  </g>
</svg>
