<svg xmlns="http://www.w3.org/2000/svg" xmlns:xlink="http://www.w3.org/1999/xlink" width="69" height="84" viewBox="0 0 69 84">
  <defs>
    <clipPath id="clip-path">
      <rect id="Rectángulo_37646" data-name="Rectángulo 37646" width="44.203" height="45" fill="none"/>
    </clipPath>
  </defs>
  <g id="_79" data-name="79" transform="translate(-632 -10917)">
    <g id="Grupo_156378" data-name="Grupo 156378" transform="translate(632.373 10917.391)">
      <rect id="Rectángulo_36766" data-name="Rectángulo 36766" width="69" height="84" rx="12" transform="translate(-0.373 -0.391)" fill="#0c487b"/>
    </g>
    <g id="Grupo_156652" data-name="Grupo 156652" transform="translate(4)">
      <g id="Grupo_156651" data-name="Grupo 156651" transform="translate(280 6270)">
        <path id="Trazado_127053" data-name="Trazado 127053" d="M15.507,123.96c-.454.1-.559-.113-.555-.537.012-1.063-.007-1.081-1.106-1.075-.409,0-.536-.124-.528-.529.007-.377.077-.553.512-.551,1.1,0,1.131-.018,1.119-1.119-.005-.5.239-.507.608-.511s.56.058.56.5c0,1.115.023,1.135,1.112,1.131.421,0,.521.15.522.541s-.1.541-.52.539c-1.11-.006-1.137.014-1.112,1.066.012.488-.169.631-.611.545" transform="translate(339.683 4573.993)" fill="#29c4bb"/>
        <path id="Trazado_127054" data-name="Trazado 127054" d="M213.642,151.161c.406-.078.632.057.565.517-.056.385.077.6.5.533s.57.088.573.537c0,.47-.189.578-.589.525-.383-.052-.5.115-.5.5.012.6-.357.826-.934.645-.274-.086-.214-.3-.2-.477.048-.472-.06-.76-.616-.666-.431.073-.457-.2-.456-.527s.014-.6.451-.53c.471.073.694-.1.616-.6-.075-.475.23-.5.582-.454" transform="translate(195.806 4552.685)" fill="#29c4bb"/>
        <path id="Trazado_127055" data-name="Trazado 127055" d="M210.718,69.268c.1.453-.1.608-.527.537-.46-.078-.648.111-.567.569s-.113.548-.542.553-.609-.127-.532-.557c.082-.459-.109-.648-.565-.562-.472.089-.513-.158-.531-.555-.021-.466.16-.588.566-.517.441.077.606-.106.531-.537-.072-.412.061-.579.521-.563.4.014.639.072.552.536s.115.639.567.563c.425-.072.632.081.526.534" transform="translate(199.254 4608.526)" fill="#010000"/>
        <path id="Trazado_127056" data-name="Trazado 127056" d="M55.04,186.64c.1.423-.11.578-.532.5-.5-.09-.614.169-.543.587.079.465-.146.537-.555.535-.39,0-.6-.091-.518-.511.108-.553-.169-.688-.645-.607s-.466-.225-.467-.559.007-.6.448-.512c.593.117.745-.168.665-.7-.077-.508.311-.362.569-.377.274-.016.579-.052.5.389-.1.545.092.8.67.687.482-.092.423.243.409.566" transform="translate(311.829 4530.025)" fill="#010000"/>
        <path id="Trazado_127057" data-name="Trazado 127057" d="M121.786,17.426c-.114-.483.153-.577.548-.518.41.061.572-.109.509-.513s.058-.588.522-.578c.427.009.623.119.548.558s.131.6.553.533c.391-.059.587.035.589.513s-.182.62-.608.553c-.45-.072-.6.133-.533.553.078.472-.175.526-.572.534-.424.009-.562-.151-.5-.54.068-.427-.09-.622-.535-.547s-.62-.106-.523-.547" transform="translate(261.153 4643.184)" fill="#29c4bb"/>
      </g>
      <g id="Grupo_157650" data-name="Grupo 157650" transform="translate(640 10937)">
        <g id="Grupo_157650-2" data-name="Grupo 157650" transform="translate(0 0)" clip-path="url(#clip-path)">
          <path id="Trazado_130571" data-name="Trazado 130571" d="M69.48,27.207q0,3.214,0,6.43,0,6.66.006,13.32l-.057.033c-.16.092-.311.179-.449.247-1.456.711-2.912,1.461-4.321,2.188q-1.132.584-2.267,1.163c-2.707,1.375-5.36,2.724-8.054,4.122-.5.261-1.008.512-1.515.762-.885.439-1.8.89-2.688,1.394q0-9.822,0-19.645v-.092c.76-.369,1.51-.762,2.236-1.141s1.481-.775,2.223-1.134c.408-.2.8-.409,1.177-.613l.082-.044c0,.153,0,.306,0,.459,0,.444,0,.888,0,1.327v.037a2.119,2.119,0,0,0,.236,1.148l.58,1.084,1.163-.4a2.121,2.121,0,0,0,1.033-.808l.04-.052c.535-.649,1.085-1.317,1.626-1.987l.054.021c.151.06.3.12.455.176a2.671,2.671,0,0,0,.925.2c.283,0,1.7-.1,1.7-2q.006-1.367,0-2.735c0-.154,0-.311.005-.459.194-.112.411-.219.634-.33.13-.064.259-.128.386-.194q1.31-.675,2.618-1.353,1.083-.561,2.168-1.121m1.156-2.123a1.923,1.923,0,0,0-.709.268C67.96,26.363,66,27.385,64.034,28.4a10.1,10.1,0,0,0-1.568.878.444.444,0,0,0-.139.174,4.822,4.822,0,0,0-.1,1.22q.006,1.361,0,2.722c0,.4-.052.566-.26.566a1.367,1.367,0,0,1-.425-.107c-.356-.132-.705-.284-1.066-.406a.765.765,0,0,0-.246-.045.6.6,0,0,0-.476.272c-.648.811-1.309,1.613-1.969,2.414-.121.146-.216.333-.42.4a.938.938,0,0,1-.064-.5c0-1.039,0-2.078-.005-3.117a.971.971,0,0,0-.131-.673.523.523,0,0,0-.253-.065,1.312,1.312,0,0,0-.53.177c-.821.383-1.6.854-2.413,1.249-1.539.745-3.03,1.585-4.57,2.328a1.1,1.1,0,0,0-.664.6,3.679,3.679,0,0,0-.04.742q0,10.329,0,20.658a3.6,3.6,0,0,0,.066.829.376.376,0,0,0,.063.159H49a6.093,6.093,0,0,0,1.566-.581C52,57.446,53.523,56.758,55,55.99q4.01-2.08,8.043-4.116c2.19-1.112,4.361-2.263,6.568-3.341.354-.173.684-.393,1.038-.57a.405.405,0,0,0,.279-.444q-.019-10.787-.007-21.576c0-.6-.043-.861-.288-.861" transform="translate(-26.916 -13.867)"/>
          <path id="Trazado_130572" data-name="Trazado 130572" d="M39.1,1.627l.071.034c.055.025.109.051.162.078,6.58,3.367,12.585,6.439,18.605,9.508l-1.774.915q-1.427.735-2.858,1.465l-.708.363-.013-.007c-1.611-.805-3.242-1.648-4.819-2.463q-1.612-.832-3.226-1.659Q42.34,8.742,40.15,7.6l-1.3-.673-1.4-.724c-1.189-.615-2.407-1.245-3.629-1.867L39.1,1.627M39.2,0H39.02a1.652,1.652,0,0,1-.208.152q-3.887,2-7.777,3.993c-.161.206-.017.322.136.419a6.942,6.942,0,0,0,.6.36C33.92,6,36.049,7.112,38.183,8.213c1.9.98,3.8,1.965,5.7,2.935,2.689,1.368,5.357,2.777,8.055,4.126a2.935,2.935,0,0,0,.784.273q2.051-1.051,4.1-2.1,1.893-.975,3.781-1.96a.573.573,0,0,1,.242-.08c.111,0,.164.09.155.306-.006.146,0,.293,0,.439q0,10.434,0,20.867c0,.249.01.5.015.747.111-.143.063-.31.063-.466q0-10.785.009-21.57a.676.676,0,0,0-.421-.71Q50.324,5.749,39.991.453A3.3,3.3,0,0,1,39.2,0" transform="translate(-17.117 0)"/>
          <path id="Trazado_130573" data-name="Trazado 130573" d="M1.572,27.253c1.194.6,2.386,1.221,3.55,1.826l.706.367q1.437.747,2.882,1.478l1.151.587q1.725.882,3.444,1.773c1.6.825,3.247,1.677,4.881,2.5.881.446,1.678.855,2.424,1.242V37.8l0,18.721-.972-.493L5.507,48.8,1.574,46.786q0-9.767,0-19.533M.38,25.119c-.189,0-.251.168-.251.535q0,10.8,0,21.61a.724.724,0,0,0,.043.428q9.4,4.81,18.809,9.62c.987.5,1.981,1,2.972,1.5a.8.8,0,0,0,.1-.506q0-10.951,0-21.9c.022-.29-.216-.358-.4-.456q-1.4-.732-2.812-1.444c-2.782-1.408-5.544-2.854-8.32-4.274-1.342-.686-2.687-1.367-4.025-2.062C4.6,27.18,2.7,26.187.783,25.249a1.019,1.019,0,0,0-.4-.13" transform="translate(-0.066 -13.886)"/>
          <path id="Trazado_130574" data-name="Trazado 130574" d="M8.527,17.191c2.654,1.342,5.426,2.769,8.466,4.358.653.342,1.312.675,1.97,1.008q.643.325,1.285.653l1.04.534q1.957,1,3.911,2.015c.453.235.91.463,1.367.691l.745.373q-2.148,1.1-4.294,2.2l-1.029.528-.728-.373L3.194,19.9c1.323-.67,2.643-1.342,3.934-2Zm-.042-1.52a.849.849,0,0,0-.2.025C5.66,17.03,3.041,18.369.414,19.69A.64.64,0,0,0,0,20.36Q.018,31.189.013,42.019c0,.152-.065.327.095.449-.008-.2-.024-.409-.024-.614q0-10.588,0-21.176c0-.117,0-.235,0-.351,0-.182.042-.282.152-.282a.423.423,0,0,1,.192.064c.115.063.235.119.352.179L21.987,31.177q3.647-1.871,7.3-3.741a3.616,3.616,0,0,1,.873-.4.161.161,0,0,0,.062-.116c-.01-.219-.193-.277-.341-.363-1.3-.757-2.675-1.389-4.011-2.083-1.649-.856-3.3-1.7-4.957-2.551-1.08-.555-2.169-1.093-3.245-1.656Q13.345,18.012,9,15.811a1.142,1.142,0,0,0-.514-.14" transform="translate(0 -8.663)"/>
          <path id="Trazado_130575" data-name="Trazado 130575" d="M24.024,10.952q4.273,2.2,8.549,4.4l4.569,2.351,5.893,3.032-.13.068c-.725.379-1.472.769-2.214,1.127l-2.311-1.193q-3.006-1.552-6.013-3.1-5.246-2.7-10.494-5.4l-.2-.1q1.006-.511,2.012-1.019Zm.131-1.684c-1.287.651-2.574,1.3-3.859,1.954-.6.3-1.185.622-1.777.934.158.076.318.148.474.229q6.358,3.268,12.715,6.538,4.347,2.238,8.691,4.484a.332.332,0,0,0,.242.114,1.011,1.011,0,0,0,.395-.151c1.437-.68,2.826-1.453,4.247-2.163a1.032,1.032,0,0,0,.463-.445l.1-.092c-.08-.176-.25-.239-.4-.319L33.234,14.071q-4.367-2.247-8.734-4.5c-.138-.071-.312-.111-.345-.3" transform="translate(-10.237 -5.123)"/>
          <path id="Trazado_130576" data-name="Trazado 130576" d="M71.346,37.294v.488a1.991,1.991,0,0,0-.646-.149l.44-.232.195-.1ZM69.093,38.45l-.216.268v-.165l.216-.1m3.694-3.479c-.728.308-1.424.683-2.123,1.051-1.061.559-2.119,1.124-3.225,1.594,0,.031,0,.062-.006.093v4.886a.475.475,0,0,0,.275-.171c.864-1.051,1.732-2.1,2.583-3.16a.4.4,0,0,1,.314-.189.555.555,0,0,1,.206.048c.528.214,1.067.4,1.594.618a.657.657,0,0,0,.232.063c.113,0,.167-.084.165-.308-.013-1.508-.011-3.016-.015-4.525" transform="translate(-37.278 -19.332)"/>
          <path id="Trazado_130577" data-name="Trazado 130577" d="M31.836,6.155q3.72-1.909,7.439-3.819a1.538,1.538,0,0,0,.2-.145h.168a3.173,3.173,0,0,0,.76.434q9.887,5.059,19.78,10.1a.647.647,0,0,1,.4.679q-.013,10.315-.009,20.631c0,.149.047.309-.06.445-.005-.238-.015-.476-.015-.714q0-9.979,0-19.959c0-.14-.006-.28,0-.42.013-.323-.119-.353-.38-.216q-1.8.944-3.616,1.875-1.959,1.008-3.923,2.011a2.8,2.8,0,0,1-.75-.261c-2.581-1.291-5.133-2.637-7.7-3.946-1.822-.928-3.637-1.87-5.453-2.807C36.632,8.993,34.6,7.931,32.543,6.9a6.632,6.632,0,0,1-.577-.344c-.146-.093-.284-.2-.13-.4" transform="translate(-17.562 -1.211)" fill="#d8ab7f"/>
          <path id="Trazado_130578" data-name="Trazado 130578" d="M23.182,32.01,2.9,21.6c-.112-.058-.227-.11-.337-.171-.24-.132-.334-.043-.329.209,0,.112,0,.224,0,.336q0,10.127,0,20.254c0,.2.015.392.022.587-.152-.117-.091-.284-.091-.43q0-10.358-.01-20.715a.612.612,0,0,1,.394-.641c2.514-1.263,5.018-2.545,7.525-3.82a.969.969,0,0,1,.686.11q4.16,2.1,8.286,4.264c1.029.538,2.07,1.054,3.1,1.584q2.371,1.217,4.741,2.44c1.279.664,2.59,1.268,3.837,1.992.142.082.317.138.326.347a.155.155,0,0,1-.059.111,3.464,3.464,0,0,0-.835.38q-3.491,1.785-6.978,3.578" transform="translate(-1.19 -9.497)" fill="#d8ab7f"/>
          <path id="Trazado_130579" data-name="Trazado 130579" d="M49.014,58.494h-.169a.356.356,0,0,1-.06-.152,3.439,3.439,0,0,1-.064-.792q0-9.879,0-19.758a3.519,3.519,0,0,1,.038-.71,1.049,1.049,0,0,1,.635-.571C50.87,35.8,52.3,35,53.768,34.284c.78-.378,1.523-.828,2.308-1.195.233-.109.474-.255.749-.107a.929.929,0,0,1,.125.644c.008.994,0,1.988,0,2.981a.9.9,0,0,0,.062.483c.195-.067.286-.246.4-.385.632-.766,1.263-1.533,1.884-2.309a.555.555,0,0,1,.69-.217c.345.116.679.262,1.02.388.546.2.653.132.656-.438q0-1.3,0-2.6a4.568,4.568,0,0,1,.1-1.167.416.416,0,0,1,.133-.166,9.74,9.74,0,0,1,1.5-.84c1.88-.969,3.756-1.946,5.637-2.913.846-.435.953-.362.953.567,0,6.879-.006,13.758.007,20.636a.388.388,0,0,1-.267.425c-.338.169-.654.379-.993.545-2.112,1.031-4.187,2.132-6.282,3.2q-3.853,1.956-7.693,3.937c-1.415.734-2.869,1.393-4.248,2.195a5.829,5.829,0,0,1-1.5.556" transform="translate(-26.934 -14.474)" fill="#a57e4f"/>
          <path id="Trazado_130580" data-name="Trazado 130580" d="M23.151,58.437c-.948-.477-1.9-.948-2.843-1.431q-9-4.6-17.99-9.2a.7.7,0,0,1-.041-.409q0-10.334,0-20.668c0-.532.135-.627.626-.387,1.837.9,3.647,1.846,5.461,2.788,1.28.664,2.566,1.316,3.85,1.972,2.655,1.358,5.3,2.741,7.957,4.088q1.348.682,2.689,1.381c.18.094.407.159.386.436q0,10.474,0,20.948a.764.764,0,0,1-.1.484" transform="translate(-1.253 -14.492)" fill="#916e43"/>
          <path id="Trazado_130581" data-name="Trazado 130581" d="M31.4,32.549,23.218,36.4,2.523,25.33" transform="translate(-1.395 -14.003)" fill="none" stroke="#000" stroke-linecap="round" stroke-linejoin="round" stroke-width="2"/>
          <path id="Trazado_130582" data-name="Trazado 130582" d="M66.654,38.169c1.057-.449,2.069-.99,3.084-1.524.669-.352,1.334-.71,2.03-1,0,1.443,0,2.885.014,4.327,0,.329-.118.343-.379.235-.5-.208-1.02-.387-1.525-.592a.366.366,0,0,0-.5.135c-.814,1.015-1.645,2.017-2.471,3.023a.451.451,0,0,1-.263.163V38.258l.005-.089" transform="translate(-36.844 -19.702)" fill="#d6b9a3"/>
          <path id="Trazado_130583" data-name="Trazado 130583" d="M40.792,24.579q-4.156-2.145-8.312-4.289Q26.4,17.161,20.318,14.037c-.149-.077-.3-.146-.453-.219.567-.3,1.13-.6,1.7-.893,1.228-.627,2.46-1.247,3.691-1.869.032.185.2.224.33.292q4.176,2.153,8.354,4.3,5.837,3,11.675,6.007a.711.711,0,0,1,.387.3l-.094.088a.985.985,0,0,1-.443.425c-1.359.679-2.688,1.418-4.062,2.069-.192.091-.393.254-.609.036" transform="translate(-10.982 -6.112)" fill="#f1d2b9"/>
          <line id="Línea_248" data-name="Línea 248" y1="4.331" x2="8.182" transform="translate(35.059 11.568)" fill="none" stroke="#000" stroke-linecap="round" stroke-linejoin="round" stroke-width="2"/>
          <line id="Línea_249" data-name="Línea 249" y2="21.658" transform="translate(21.823 22.397)" fill="none" stroke="#000" stroke-linecap="round" stroke-linejoin="round" stroke-width="2"/>
          <line id="Línea_250" data-name="Línea 250" x2="16.41" y2="8.448" transform="translate(10.901 8.729)" fill="none" stroke="#000" stroke-linecap="round" stroke-linejoin="round" stroke-width="2"/>
          <line id="Línea_251" data-name="Línea 251" x2="20.695" y2="11.069" transform="translate(14.364 4.83)" fill="none" stroke="#000" stroke-linecap="round" stroke-linejoin="round" stroke-width="2"/>
          <path id="Trazado_130584" data-name="Trazado 130584" d="M66.6,40.985l-.044,3.46,2.647-3.629,2.647,1.037V37.707" transform="translate(-36.794 -20.845)" fill="none" stroke="#000" stroke-linecap="round" stroke-linejoin="round" stroke-width="2"/>
        </g>
      </g>
    </g>
  </g>
</svg>
