<svg xmlns="http://www.w3.org/2000/svg" xmlns:xlink="http://www.w3.org/1999/xlink" width="207" height="170" viewBox="0 0 207 170">
  <defs>
    <clipPath id="clip-path">
      <rect id="Rect치ngulo_37648" data-name="Rect치ngulo 37648" width="113.25" height="110.793" fill="none"/>
    </clipPath>
  </defs>
  <g id="Grupo_157654" data-name="Grupo 157654" transform="translate(-256 -10917)">
    <g id="Grupo_156377" data-name="Grupo 156377" transform="translate(255.949 10917)">
      <rect id="Rect치ngulo_36766" data-name="Rect치ngulo 36766" width="207" height="170" rx="12" transform="translate(0.051 -0.001)" fill="#0c487b"/>
    </g>
    <g id="Grupo_157655" data-name="Grupo 157655" transform="translate(302.816 10946.603)" clip-path="url(#clip-path)">
      <path id="Trazado_130598" data-name="Trazado 130598" d="M106.338,63.228a1.845,1.845,0,0,1,1.373,2.292c-.634,5.891-1.279,11.782-1.864,17.678-.76,7.649-1.938,15.268-1.651,23,.042,1.106.337,1.337,1.361,1.289,1.838-.085,3.683.022,5.524-.042a2.126,2.126,0,0,1,2.17,1.164v1.106a2.638,2.638,0,0,1-2.458,1.079q-54.16-.024-108.321-.014a6.749,6.749,0,0,1-.883-.02,1.682,1.682,0,0,1-1.583-1.787,1.627,1.627,0,0,1,1.725-1.5c2.21-.023,4.421-.027,6.631,0,.655.01.965-.074.961-.868q-.054-9.063-.005-18.127c0-.671-.163-.858-.854-.865a2.729,2.729,0,0,1-3-3.027c-.026-2.468-.029-4.937,0-7.405a2.793,2.793,0,0,1,3.051-3.015c2.063-.031,4.127,0,6.19-.009a1.769,1.769,0,0,1,1.963,1.406c.222,1.34-.273,2.046-1.624,2.164-1.432.125-2.872.029-4.308.048-1.466.02-1.533.082-1.539,1.584-.005,1.179-.008,2.357.006,3.536.008.678.31,1.021,1,1.018.368,0,.736.011,1.1.011H56.072c1.963,0,1.966,0,1.966-1.928,0-.994-.016-1.99,0-2.983.014-.9-.4-1.275-1.274-1.237-.4.017-.81,0-1.215,0q-15.527,0-31.054,0a10.616,10.616,0,0,1-1.654-.058c-1.291-.2-1.731-.853-1.475-2.154.288-1.154,1.125-1.412,2.185-1.41,6.745.013,13.489-.014,20.233.031.936.006,1.155-.24,1.13-1.149-.068-2.467-.032-4.938-.021-7.406a7.039,7.039,0,0,1,4.266-6.772,1.5,1.5,0,0,0,1-1.522q-.033-3.814,0-7.628a1.543,1.543,0,0,0-.976-1.545,7.071,7.071,0,0,1-4.047-6.7q-.019-8.4,0-16.8a7.169,7.169,0,0,1,7.406-7.492c.921-.017,1.846-.046,2.763.011.708.044.915-.228.843-.89a10.625,10.625,0,0,1-.008-1.325c.018-1.119.329-2.253-1.483-2.456a2.133,2.133,0,0,1-1.595-2.274c-.024-2.542-.045-5.086.007-7.627A2.6,2.6,0,0,1,55.718.024q9.452-.048,18.906,0a2.663,2.663,0,0,1,2.72,2.762c.066,2.394.057,4.791.007,7.186a2.681,2.681,0,0,1-2.441,2.808c-.525.089-.671.23-.651.738.039.957.017,1.917.008,2.875,0,.429-.014.908.6.751.574-.146,1.477.554,1.694-.562a17.726,17.726,0,0,1,3.252-7.4A16.818,16.818,0,1,1,92.57,36.241a17,17,0,0,1-3.7-.559,22.285,22.285,0,0,1-3.652-1.4c0,2.055-.01,4.014.005,5.973.005.612.51.412.83.413,3.206.013,6.413.008,9.62.008,3.611,0,7.224-.008,10.834,0,2.4.008,3.634,1.288,3.409,3.68-.407,4.326-.886,8.645-1.343,12.966a1.82,1.82,0,0,1-1.912,1.752c-1.106-.077-1.59-.562-1.682-1.728a20.429,20.429,0,0,1,.3-3.739c.1-.915.123-1.838.28-2.747.147-.856-.224-1.2-1.089-1.2-2.616.017-5.231.006-7.848.006q-7.958,0-15.917,0c-1.517,0-1.552.013-1.405,1.551.5,5.242,1.1,10.475,1.633,15.713q.937,9.12,1.913,18.237c.358,3.332.682,6.667,1.061,10,.094.824.436,1.159,1.258,1.158,4.827,0,9.653-.012,14.48,0,1.017,0,1.216-.6,1.3-1.408.433-4.361.9-8.719,1.368-13.076.6-5.566,1.139-11.137,1.776-16.7.148-1.29.784-2.012,1.748-2.087a.7.7,0,0,1,.511.167" transform="translate(0 0)"/>
      <path id="Trazado_130599" data-name="Trazado 130599" d="M131.881,79.226c-1.368.144-1.8.584-1.939,1.914-1.045,10.036-2.111,20.07-3.121,30.109-.112,1.113-.5,1.4-1.6,1.387-4.975-.066-9.951-.048-14.926-.01-.843.006-1.092-.215-1.18-1.081-.889-8.793-1.839-17.579-2.768-26.368-.674-6.372-1.332-12.746-2.021-19.116-.068-.632.162-.727.715-.726q12.881.022,25.762,0c.692,0,.779.265.714.846-.246,2.2-.438,4.4-.7,6.591a1.908,1.908,0,0,0,1.384,2.307q-.159,2.075-.318,4.151" transform="translate(-25.543 -15.998)" fill="#d4e862"/>
      <path id="Trazado_130600" data-name="Trazado 130600" d="M14.811,45.348c1.617.2,3.52.421,5.414.689a1.455,1.455,0,0,0,1.582-.659C22.864,43.916,24,42.509,25.128,41.1c1.392-1.726,3.027-1.716,4.4.014,1.122,1.412,2.244,2.826,3.319,4.275a1.4,1.4,0,0,0,1.482.65c1.859-.262,3.721-.51,5.589-.683,2.124-.2,3.209.909,2.987,3.014-.189,1.793-.422,3.583-.675,5.368a1.529,1.529,0,0,0,.682,1.677c1.469,1.045,2.877,2.176,4.288,3.3,1.687,1.346,1.7,3,.029,4.34-1.406,1.13-2.82,2.255-4.286,3.3a1.606,1.606,0,0,0-.708,1.772c.27,1.82.508,3.646.689,5.478a2.491,2.491,0,0,1-3.065,2.872c-1.9-.251-3.8-.468-5.692-.751a1.135,1.135,0,0,0-1.2.54C31.9,77.682,30.8,79.07,29.717,80.463q-2.389,3.057-4.757.038c-1.09-1.39-2.2-2.771-3.255-4.184a1.278,1.278,0,0,0-1.4-.552c-1.89.294-3.792.517-5.694.739a2.436,2.436,0,0,1-2.912-2.723c.154-1.979.42-3.953.711-5.919a1.284,1.284,0,0,0-.583-1.393c-1.358-1.011-2.682-2.068-4.024-3.1-2.189-1.686-2.186-3.227.017-4.941,1.279-.994,2.543-2.009,3.851-2.964a1.49,1.49,0,0,0,.729-1.649c-.306-1.851-.53-3.718-.7-5.586-.173-1.926.921-3,3.114-2.88" transform="translate(-1.508 -9.75)"/>
      <path id="Trazado_130601" data-name="Trazado 130601" d="M24.205,100.065c.117,1.51.564,1.91,2.206,1.91,11.128,0,22.257.017,33.385-.021,1.062,0,1.509.171,1.418,1.361-.121,1.575-.051,3.167-.019,4.75.011.572-.168.828-.751.757a3.747,3.747,0,0,0-.442,0q-23.6,0-47.2.024c-.983,0-1.256-.242-1.2-1.213.087-1.58.065-3.169.006-4.751-.029-.763.253-.933.951-.915,1.657.042,3.316.026,4.974.009,1.42-.015,1.871-.467,1.982-1.91,1.195.644,2.478.136,3.711.285a.939.939,0,0,0,.985-.283" transform="translate(-2.838 -24.503)" fill="#fa8176"/>
      <path id="Trazado_130602" data-name="Trazado 130602" d="M37.482,135.871c-6.561,0-13.123-.014-19.684.018-.836,0-1.123-.163-1.116-1.073q.068-8.846,0-17.693c-.006-.859.2-1.1,1.087-1.1q19.85.045,39.7-.011c1.211,0,1,.621,1.068,1.346.079.88-.143,1.191-1.112,1.178-4.386-.059-8.773-.029-13.16-.025-2.506,0-3.5.986-3.5,3.46q-.007,3.318,0,6.634c.006,2.382.979,3.373,3.338,3.377,4.461.008,8.921.022,13.381-.015.8-.007,1.146.146,1.056,1.018-.094.909.285,2.134-.179,2.67-.544.628-1.8.2-2.743.208-6.045.018-12.09.009-18.136.009" transform="translate(-4.085 -28.408)" fill="#feb889"/>
      <path id="Trazado_130603" data-name="Trazado 130603" d="M75.9,110.792c0,4.8,0,9.4,0,14.007a7.259,7.259,0,0,0,.075,1.321,1.616,1.616,0,0,0,3.158.011,4.741,4.741,0,0,0,.079-.988q.006-9.786.007-19.571c0-1.125-.189-2.095-1.556-2.242-.464-.051-.37-.378-.377-.651-.014-.588,0-1.179-.006-1.768-.038-2.1-1.124-3.213-3.217-3.226q-4.644-.029-9.289,0c-.625,0-.991-.017-.982-.846.008-.792.367-.774.933-.773q13.933.015,27.866-.011c.722,0,.885.22.955.9.832,8.1,1.783,16.182,2.521,24.286.273,3,.057,6.041.091,9.061.006.535-.168.685-.694.684q-10.671-.023-21.342,0c-.574,0-.759-.159-.757-.747q.028-9.177,0-18.355c0-.586.178-.79.755-.745a3.1,3.1,0,0,0,1.777-.356" transform="translate(-15.622 -23.523)" fill="#c6fefc"/>
      <path id="Trazado_130604" data-name="Trazado 130604" d="M87.455,43.293c-.228-1.166-1.016-1.488-2.1-1.485-6.709.014-13.416-.008-20.125.026-.844,0-1.109-.18-1.093-1.069.06-3.132.017-6.265.026-9.4a3.876,3.876,0,0,1,4.259-4.25c7.556-.014,15.112.012,22.668-.028.853,0,1.037.311,1.121,1.05A16.415,16.415,0,0,0,97,37.969a6.219,6.219,0,0,1,.581,3.64c-.16.313-.442.2-.675.2-.958.014-1.917.009-2.876,0a1.688,1.688,0,0,0-1.881,1.48c-.766.883-3.927.882-4.694,0" transform="translate(-15.705 -6.634)" fill="#c6fefc"/>
      <path id="Trazado_130605" data-name="Trazado 130605" d="M87.378,48.548a11.106,11.106,0,0,0,4.695,0c.165,1.424.615,1.827,2.069,1.839.774.007,1.55-.02,2.322.011.338.013.871-.211.971.23a4.818,4.818,0,0,1-.013,1.747c-.043.28-.437.187-.683.189-1.069.01-2.139-.016-3.207.014a3.037,3.037,0,0,0-3.041,3.613c.655,6.039,1.268,12.083,1.9,18.125.207,1.978.412,3.955.649,5.929.079.654-.072.9-.8.9q-13.769-.036-27.538,0c-.655,0-.927-.14-.883-.85a26.056,26.056,0,0,0,.006-2.984c-.055-1.028.377-1.281,1.37-1.273,6.046.045,12.091.025,18.137.022,2.576,0,3.7-1.126,3.7-3.706q.006-6.912,0-13.823c0-2.817-1.075-3.9-3.858-3.9-5.972,0-11.944-.021-17.916.021-.95.007-1.247-.322-1.191-1.207a13.076,13.076,0,0,0-.006-2.1c-.079-.813.263-.964,1-.961,6.746.026,13.493.018,20.239.013,1.454,0,1.9-.416,2.07-1.837" transform="translate(-15.627 -11.888)" fill="#0480be"/>
      <path id="Trazado_130606" data-name="Trazado 130606" d="M69.339,75.68c1.594-2.809,1.553-11.741-.135-14.7H70.31c4.6,0,9.2.014,13.8-.016.715,0,.942.18.936.918-.033,4.343-.022,8.686-.009,13.03,0,.534,0,.884-.729.88-4.932-.031-9.865-.018-14.8-.024-.058,0-.116-.057-.174-.088" transform="translate(-16.946 -14.929)" fill="#75e9e6"/>
      <path id="Trazado_130607" data-name="Trazado 130607" d="M119.53,132.332c2.5,0,5.009.029,7.513-.017.787-.014,1.105.145,1.073,1.018-.069,1.875-.041,3.755-.011,5.633.01.628-.113.918-.838.914q-7.734-.042-15.467,0c-.671,0-.788-.266-.78-.851.027-1.951.039-3.9-.005-5.854-.017-.706.245-.861.893-.853,2.541.03,5.082.012,7.623.012" transform="translate(-27.185 -32.401)" fill="#88c847"/>
      <path id="Trazado_130608" data-name="Trazado 130608" d="M83.42,10.581c-2.615,0-5.231-.02-7.846.014-.692.009-.981-.148-.951-.906.057-1.471.045-2.947,0-4.419-.018-.652.142-.893.85-.89q8.011.043,16.023.005c.594,0,.862.123.843.788q-.065,2.319,0,4.64c.02.677-.277.782-.856.778-2.689-.022-5.378-.01-8.067-.01" transform="translate(-18.273 -1.073)" fill="#0480be"/>
      <path id="Trazado_130609" data-name="Trazado 130609" d="M60.074,130.546c-2.064,0-4.128-.023-6.191.014-.668.012-.975-.091-.944-.875.066-1.693.043-3.39.008-5.084-.012-.62.069-.918.819-.911,4.275.039,8.55.029,12.825.007.6,0,.841.131.825.787q-.066,2.652,0,5.306c.018.662-.226.779-.82.77-2.174-.032-4.349-.013-6.523-.013" transform="translate(-12.963 -30.289)" fill="#fefefe"/>
      <path id="Trazado_130610" data-name="Trazado 130610" d="M118.961,7.81a13.523,13.523,0,1,1-13.49,13.5,13.491,13.491,0,0,1,13.49-13.5" transform="translate(-25.827 -1.912)" fill="#fec402"/>
      <path id="Trazado_130611" data-name="Trazado 130611" d="M117.759,58.259c4.416,0,8.832-.006,13.247.011.393,0,1.121-.273.921.594-.128.561.259,1.442-.955,1.438q-13.192-.053-26.385,0c-1.328.006-.833-.922-.949-1.519-.164-.84.543-.507.874-.509,4.415-.023,8.831-.015,13.247-.015" transform="translate(-25.373 -14.254)" fill="#88c847"/>
      <path id="Trazado_130612" data-name="Trazado 130612" d="M84.378,21.281c-1.621,0-3.242-.022-4.863.011-.6.013-.883-.13-.825-.79.1-1.16-.476-2.675.239-3.381.568-.561,2.09-.17,3.19-.175,2.395-.01,4.79.029,7.183-.022.755-.016.948.235.9.936a17.169,17.169,0,0,0,0,2.43c.055.751-.161,1.038-.963,1.008-1.619-.06-3.242-.018-4.863-.018" transform="translate(-19.239 -4.119)" fill="#a1f7f7"/>
      <path id="Trazado_130613" data-name="Trazado 130613" d="M126.45,92.112c0,2.617.012,5.233,0,7.85q-.018,3.055-3.043,3.091-3.04.033-6.081,0a2.788,2.788,0,0,1-3.048-3.118q-.019-7.9,0-15.81a2.846,2.846,0,0,1,3.13-3.178q2.985-.048,5.97,0a2.783,2.783,0,0,1,3.071,3.094c.017,2.69,0,5.38,0,8.071" transform="translate(-27.981 -19.816)"/>
      <path id="Trazado_130614" data-name="Trazado 130614" d="M121,72.941c.846,0,1.693-.024,2.538.007a1.648,1.648,0,1,1,0,3.295c-1.691.039-3.384.036-5.076,0a1.654,1.654,0,1,1,0-3.3c.846-.025,1.692,0,2.538,0" transform="translate(-28.575 -17.859)"/>
      <path id="Trazado_130615" data-name="Trazado 130615" d="M45.936,62.224c-1.445,1.128-2.767,2.184-4.115,3.2a3.733,3.733,0,0,0-1.6,3.541c.151,1.5.3,3.006.557,4.491.134.772-.025.979-.79.863-1.346-.2-2.709-.3-4.05-.533a4,4,0,0,0-4.153,1.656c-1,1.315-2.034,2.607-3.126,4-1.039-1.329-2.05-2.569-3-3.853a4.126,4.126,0,0,0-4.414-1.788c-1.263.239-2.556.314-3.83.5-.689.1-1.01,0-.877-.822.228-1.416.337-2.851.537-4.272a3.77,3.77,0,0,0-1.471-3.7c-1.151-.919-2.3-1.836-3.5-2.7-.583-.422-.706-.675-.038-1.149,1.171-.829,2.284-1.74,3.418-2.62a3.875,3.875,0,0,0,1.58-3.871c-.213-1.456-.336-2.925-.537-4.383-.086-.626.094-.739.706-.647,1.528.23,3.067.386,4.6.554a3.8,3.8,0,0,0,3.643-1.624c.89-1.173,1.831-2.308,2.706-3.492.375-.507.589-.479.95.007.856,1.152,1.786,2.25,2.638,3.406A3.934,3.934,0,0,0,35.7,50.687c1.5-.191,3-.328,4.492-.556.591-.09.7.054.618.609-.2,1.309-.322,2.631-.538,3.937a4.321,4.321,0,0,0,1.851,4.618c1.283.908,2.5,1.914,3.808,2.929" transform="translate(-2.843 -11.073)" fill="#fec402"/>
      <path id="Trazado_130616" data-name="Trazado 130616" d="M27.257,129.145c1.8,0,3.609-.01,5.413,0,1.223.008,1.935.617,1.947,1.62a1.7,1.7,0,0,1-1.911,1.687q-5.469.026-10.937,0c-1.2-.007-1.9-.681-1.878-1.7s.708-1.6,1.952-1.6c1.8-.012,3.609,0,5.413,0" transform="translate(-4.871 -31.624)"/>
      <path id="Trazado_130617" data-name="Trazado 130617" d="M32.653,122.415c.806,0,1.615-.031,2.419.008a1.639,1.639,0,0,1,.09,3.274c-1.722.062-3.448.061-5.17,0a1.607,1.607,0,0,1-1.577-1.654,1.661,1.661,0,0,1,1.707-1.634c.073,0,.146,0,.22,0h2.311v.008" transform="translate(-6.958 -29.974)" fill="#010000"/>
      <path id="Trazado_130618" data-name="Trazado 130618" d="M22.58,122.419c.366,0,.735-.027,1.1.006a1.529,1.529,0,0,1,1.543,1.542,1.5,1.5,0,0,1-1.366,1.7,10.951,10.951,0,0,1-2.412.033,1.642,1.642,0,0,1,.037-3.282c.364-.028.732,0,1.1,0" transform="translate(-4.871 -29.975)" fill="#010100"/>
      <path id="Trazado_130619" data-name="Trazado 130619" d="M88.447,117.685q0-4.967,0-9.933c0-1.348.546-2.043,1.593-2.074,1.093-.032,1.72.7,1.722,2.071q.007,9.988,0,19.977c0,1.269-.655,2.052-1.664,2.052s-1.646-.769-1.648-2.049c-.008-3.347,0-6.7,0-10.043" transform="translate(-21.658 -25.878)"/>
      <path id="Trazado_130620" data-name="Trazado 130620" d="M100.345,117.787c0,3.28.005,6.561,0,9.842,0,1.38-.621,2.163-1.663,2.146s-1.651-.819-1.651-2.189q-.008-9.9,0-19.793c0-.11,0-.221,0-.331.076-1.133.705-1.794,1.694-1.783,1,.011,1.608.653,1.614,1.826.018,3.428.007,6.856.007,10.283" transform="translate(-23.759 -25.878)" fill="#000101"/>
      <path id="Trazado_130621" data-name="Trazado 130621" d="M131.708,21.739A12.381,12.381,0,1,1,119.422,9.311a12.437,12.437,0,0,1,12.286,12.428" transform="translate(-26.189 -2.28)"/>
      <path id="Trazado_130622" data-name="Trazado 130622" d="M118.66,92.995c0-2.243.025-4.486-.015-6.728-.012-.691.131-.984.895-.948,1.321.063,2.647.037,3.97.008.517-.011.706.138.7.681q-.027,7.059,0,14.118c0,.5-.1.721-.657.706-1.4-.037-2.795-.04-4.191,0-.617.018-.721-.235-.716-.778.025-2.353.011-4.706.011-7.059" transform="translate(-29.053 -20.892)" fill="#fefefe"/>
      <path id="Trazado_130623" data-name="Trazado 130623" d="M29.105,61.081a6.685,6.685,0,0,1-.1.853c-.578,2.71-2.82,4.337-5.161,3.761-2.481-.612-4-3.492-3.292-6.253a4.383,4.383,0,0,1,4.738-3.557c2.172.268,3.819,2.408,3.815,5.2" transform="translate(-4.99 -13.677)"/>
      <path id="Trazado_130624" data-name="Trazado 130624" d="M40.775,66.467c2.575,0,4.665,2.62,4.345,5.454a6.621,6.621,0,0,1-.238,1.188,4.371,4.371,0,0,1-4.835,3.274,4.987,4.987,0,0,1-3.639-5.358c.273-2.67,2.086-4.562,4.367-4.559" transform="translate(-8.909 -16.276)"/>
      <path id="Trazado_130625" data-name="Trazado 130625" d="M37.741,58.018c-.106.282-.222.669-.392,1.03Q34.217,65.676,31.07,72.3c-.55,1.154-1.448,1.564-2.386,1.132s-1.173-1.38-.612-2.564c2.108-4.45,4.234-8.892,6.341-13.342A1.706,1.706,0,0,1,36.4,56.327a1.727,1.727,0,0,1,1.343,1.691" transform="translate(-6.801 -13.783)"/>
      <path id="Trazado_130626" data-name="Trazado 130626" d="M120.382,13.7a9.017,9.017,0,0,1,9.086,9.024,9.063,9.063,0,1,1-9.086-9.024" transform="translate(-27.265 -3.356)" fill="#fbda67"/>
      <path id="Trazado_130627" data-name="Trazado 130627" d="M26.9,61.923c-.091.727-.18,1.636-1.092,1.614-.817-.02-.987-.881-.973-1.6.014-.743.1-1.648,1.054-1.62.84.024.933.887,1.011,1.611" transform="translate(-6.08 -14.769)" fill="#fbfbfb"/>
      <path id="Trazado_130628" data-name="Trazado 130628" d="M42.951,72.492c-.165.758-.223,1.663-1.072,1.668-.924.006-1.067-.923-1.064-1.648,0-.683.134-1.571,1.01-1.587.982-.017.9.967,1.125,1.568" transform="translate(-9.995 -17.368)" fill="#f7f7f7"/>
      <path id="Trazado_130629" data-name="Trazado 130629" d="M120.651,25.671c.774,0,1.547.008,2.321,0,.4-.006.767-.14.74-.617-.024-.424-.383-.48-.735-.48-.884,0-1.769.01-2.653,0a3.965,3.965,0,0,1-4.225-3.526,3.833,3.833,0,0,1,3.268-4.165c.487-.115.549-.338.6-.739a1.51,1.51,0,0,1,1.617-1.472,1.49,1.49,0,0,1,1.6,1.371c.087.567.257.788.877.806a1.581,1.581,0,0,1,1.688,1.64,1.654,1.654,0,0,1-1.735,1.636c-1.029.048-2.065-.026-3.093.032-.518.029-1.433-.356-1.433.5,0,.916.944.55,1.506.587.77.052,1.547,0,2.32.019a3.842,3.842,0,0,1,.862,7.566c-.5.131-.944.187-1.113.843a1.388,1.388,0,0,1-1.446.987,1.409,1.409,0,0,1-1.538-1.015c-.159-.684-.543-.659-1.036-.649a4.2,4.2,0,0,1-.99-.046,1.552,1.552,0,0,1-1.381-1.714,1.5,1.5,0,0,1,1.553-1.535c.808-.043,1.62-.009,2.431-.009v-.013" transform="translate(-28.423 -3.591)"/>
    </g>
    <g id="Grupo_156647" data-name="Grupo 156647" transform="translate(318.278 10926.153)">
      <g id="Grupo_156582" data-name="Grupo 156582" transform="translate(-32.13 0.687)">
        <path id="Trazado_127053" data-name="Trazado 127053" d="M18.874,130.6c-1.152.257-1.419-.286-1.407-1.362.029-2.7-.016-2.744-2.807-2.727-1.038.006-1.361-.316-1.341-1.343.019-.957.194-1.4,1.3-1.4,2.8.01,2.87-.046,2.84-2.839-.013-1.264.607-1.287,1.544-1.3s1.422.147,1.422,1.269c0,2.829.057,2.88,2.821,2.869,1.069,0,1.322.381,1.324,1.374s-.25,1.373-1.32,1.367c-2.817-.016-2.884.037-2.823,2.705.029,1.239-.428,1.6-1.552,1.383" transform="translate(-13.318 -31.769)" fill="#29c4bb"/>
        <path id="Trazado_127054" data-name="Trazado 127054" d="M216.176,151.193c1.031-.2,1.6.144,1.432,1.311-.142.977.2,1.521,1.277,1.354s1.445.224,1.454,1.362c.009,1.193-.479,1.468-1.5,1.331-.971-.131-1.279.291-1.26,1.258.031,1.514-.907,2.1-2.371,1.636-.7-.217-.543-.772-.5-1.211.122-1.2-.151-1.929-1.564-1.69-1.093.186-1.16-.5-1.157-1.338s.035-1.517,1.145-1.346c1.195.184,1.761-.252,1.562-1.515-.189-1.206.584-1.259,1.476-1.153" transform="translate(-72.947 -37.404)" fill="#29c4bb"/>
        <path id="Trazado_127055" data-name="Trazado 127055" d="M215.738,71.78c.266,1.15-.26,1.544-1.338,1.362-1.168-.2-1.644.282-1.438,1.443.2,1.123-.286,1.392-1.374,1.4-1.123.01-1.545-.321-1.35-1.414.209-1.164-.277-1.643-1.432-1.426-1.2.225-1.3-.4-1.348-1.409-.053-1.183.406-1.491,1.436-1.311,1.12.2,1.537-.268,1.347-1.362-.182-1.046.156-1.47,1.321-1.428,1.028.037,1.621.182,1.4,1.36s.291,1.621,1.44,1.428c1.079-.181,1.6.205,1.336,1.355" transform="translate(-71.179 -24.093)" fill="#010000"/>
        <path id="Trazado_127056" data-name="Trazado 127056" d="M60.052,189.178c.252,1.073-.278,1.467-1.351,1.274-1.26-.228-1.558.428-1.377,1.489.2,1.18-.371,1.363-1.407,1.357-.991-.006-1.523-.23-1.315-1.3.273-1.4-.428-1.746-1.636-1.54-1.239.211-1.181-.571-1.186-1.42,0-.822.018-1.52,1.137-1.3,1.506.3,1.891-.425,1.687-1.773-.195-1.29.788-.919,1.445-.958.7-.042,1.47-.131,1.267.988-.25,1.384.235,2.025,1.7,1.744,1.222-.235,1.073.618,1.037,1.436" transform="translate(-24.861 -42.86)" fill="#010000"/>
        <path id="Trazado_127057" data-name="Trazado 127057" d="M121.826,19.9c-.288-1.225.389-1.463,1.391-1.315,1.042.155,1.451-.276,1.293-1.3s.146-1.492,1.326-1.467c1.084.022,1.58.3,1.392,1.416-.193,1.142.334,1.513,1.4,1.352.992-.148,1.489.089,1.494,1.3.006,1.241-.462,1.574-1.543,1.4-1.143-.182-1.53.338-1.353,1.4.2,1.2-.444,1.334-1.45,1.355-1.076.022-1.427-.382-1.269-1.37.173-1.082-.227-1.577-1.357-1.388-1.1.184-1.574-.269-1.327-1.389" transform="translate(-45.862 -15.817)" fill="#29c4bb"/>
      </g>
    </g>
  </g>
</svg>
