<svg xmlns="http://www.w3.org/2000/svg" xmlns:xlink="http://www.w3.org/1999/xlink" width="207" height="170" viewBox="0 0 207 170">
  <defs>
    <clipPath id="clip-path">
      <rect id="Rect치ngulo_37650" data-name="Rect치ngulo 37650" width="123.992" height="100.623" fill="none"/>
    </clipPath>
  </defs>
  <g id="_83" data-name="83" transform="translate(-256 -10917)">
    <g id="Grupo_156377" data-name="Grupo 156377" transform="translate(255.949 10917)">
      <rect id="Rect치ngulo_36766" data-name="Rect치ngulo 36766" width="207" height="170" rx="12" transform="translate(0.051 -0.001)" fill="#0c487b"/>
    </g>
    <g id="Grupo_156647" data-name="Grupo 156647" transform="translate(318.278 10926.153)">
      <g id="Grupo_156582" data-name="Grupo 156582" transform="translate(-32.13 0.687)">
        <path id="Trazado_127053" data-name="Trazado 127053" d="M18.874,130.6c-1.152.257-1.419-.286-1.407-1.362.029-2.7-.016-2.744-2.807-2.727-1.038.006-1.361-.316-1.341-1.343.019-.957.194-1.4,1.3-1.4,2.8.01,2.87-.046,2.84-2.839-.013-1.264.607-1.287,1.544-1.3s1.422.147,1.422,1.269c0,2.829.057,2.88,2.821,2.869,1.069,0,1.322.381,1.324,1.374s-.25,1.373-1.32,1.367c-2.817-.016-2.884.037-2.823,2.705.029,1.239-.428,1.6-1.552,1.383" transform="translate(-13.318 -31.769)" fill="#29c4bb"/>
        <path id="Trazado_127054" data-name="Trazado 127054" d="M216.176,151.193c1.031-.2,1.6.144,1.432,1.311-.142.977.2,1.521,1.277,1.354s1.445.224,1.454,1.362c.009,1.193-.479,1.468-1.5,1.331-.971-.131-1.279.291-1.26,1.258.031,1.514-.907,2.1-2.371,1.636-.7-.217-.543-.772-.5-1.211.122-1.2-.151-1.929-1.564-1.69-1.093.186-1.16-.5-1.157-1.338s.035-1.517,1.145-1.346c1.195.184,1.761-.252,1.562-1.515-.189-1.206.584-1.259,1.476-1.153" transform="translate(-72.947 -37.404)" fill="#29c4bb"/>
        <path id="Trazado_127055" data-name="Trazado 127055" d="M215.738,71.78c.266,1.15-.26,1.544-1.338,1.362-1.168-.2-1.644.282-1.438,1.443.2,1.123-.286,1.392-1.374,1.4-1.123.01-1.545-.321-1.35-1.414.209-1.164-.277-1.643-1.432-1.426-1.2.225-1.3-.4-1.348-1.409-.053-1.183.406-1.491,1.436-1.311,1.12.2,1.537-.268,1.347-1.362-.182-1.046.156-1.47,1.321-1.428,1.028.037,1.621.182,1.4,1.36s.291,1.621,1.44,1.428c1.079-.181,1.6.205,1.336,1.355" transform="translate(-71.179 -24.093)" fill="#010000"/>
        <path id="Trazado_127056" data-name="Trazado 127056" d="M60.052,189.178c.252,1.073-.278,1.467-1.351,1.274-1.26-.228-1.558.428-1.377,1.489.2,1.18-.371,1.363-1.407,1.357-.991-.006-1.523-.23-1.315-1.3.273-1.4-.428-1.746-1.636-1.54-1.239.211-1.181-.571-1.186-1.42,0-.822.018-1.52,1.137-1.3,1.506.3,1.891-.425,1.687-1.773-.195-1.29.788-.919,1.445-.958.7-.042,1.47-.131,1.267.988-.25,1.384.235,2.025,1.7,1.744,1.222-.235,1.073.618,1.037,1.436" transform="translate(-24.861 -42.86)" fill="#010000"/>
        <path id="Trazado_127057" data-name="Trazado 127057" d="M121.826,19.9c-.288-1.225.389-1.463,1.391-1.315,1.042.155,1.451-.276,1.293-1.3s.146-1.492,1.326-1.467c1.084.022,1.58.3,1.392,1.416-.193,1.142.334,1.513,1.4,1.352.992-.148,1.489.089,1.494,1.3.006,1.241-.462,1.574-1.543,1.4-1.143-.182-1.53.338-1.353,1.4.2,1.2-.444,1.334-1.45,1.355-1.076.022-1.427-.382-1.269-1.37.173-1.082-.227-1.577-1.357-1.388-1.1.184-1.574-.269-1.327-1.389" transform="translate(-45.862 -15.817)" fill="#29c4bb"/>
      </g>
    </g>
    <g id="Grupo_157662" data-name="Grupo 157662" transform="translate(298 10951.999)">
      <g id="Grupo_157662-2" data-name="Grupo 157662" clip-path="url(#clip-path)">
        <path id="Trazado_130641" data-name="Trazado 130641" d="M16.921,1.87C17.292.446,17.763.026,19.17.025Q44.832.014,70.5.03a3.108,3.108,0,0,1,3.358,3.428c.015,1.25.03,2.5-.007,3.752A2.938,2.938,0,0,1,71.3,10.27c-.809.125-.867.473-.814,1.084a3.2,3.2,0,0,1,0,.725c-.145.984.1,1.449,1.257,1.369a1.8,1.8,0,1,1,.076,3.561c-1.136-.061-1.377.325-1.367,1.395.011,1.14.029,1.873,1.532,1.716a1.725,1.725,0,0,1,1.863,1.8,1.77,1.77,0,0,1-2.015,1.757c-1.116-.076-1.375.282-1.368,1.375q.075,11.923-.005,23.845c-.008,1.118.327,1.3,1.34,1.286q5.931-.087,11.862,0c.9.013,1.086-.2.85-1.049q-.7-2.5-1.255-5.037a5.88,5.88,0,0,1,5.571-7.282c2.176-.08,4.36-.087,6.535,0a5.922,5.922,0,0,1,5.519,7.548c-.4,1.683-.833,3.36-1.28,5.03-.155.581-.029.833.607.775.4-.038.807,0,1.21-.009a1.987,1.987,0,0,1,2.264,1.847A1.7,1.7,0,0,1,102.261,54a7.8,7.8,0,0,1-1.806.1q-15.4,0-30.805.007a3.236,3.236,0,0,0-1.878.257,1.443,1.443,0,0,0-.344,1.234c.02,5.322-.047,10.645.036,15.967.024,1.514.031,1.514,1.535,1.644,1.665.146,2.31.757,2.493,2.365-.454,1.492-1.063,1.974-2.738,2-3.267.048-6.536,0-9.8.025-1.238.011-1.551.4-1.363,1.526a.814.814,0,0,0,.761.79,10.728,10.728,0,0,0,1.329.047h58.345c.283,0,.566-.014.847-.005.757.025,1.1-.321,1.093-1.089-.01-.737-.18-1.274-1.064-1.267-.443,0-.888-.011-1.331-.011H79.8c-.565,0-1.131.021-1.694-.029a2.3,2.3,0,0,1-2.349-2.017,2.252,2.252,0,0,1,2.273-2.322,16.752,16.752,0,0,1,1.692-.036H114.06c.4,0,.807-.02,1.209,0,.912.046,1.315-.351,1.315-1.28q-.007-8.282,0-16.564c0-.858-.353-1.246-1.226-1.238-1.41.016-2.821.011-4.232,0a3.769,3.769,0,0,1-1.774-.273c-.572-.469-1.286-.871-.892-1.816a1.969,1.969,0,0,1,2.24-1.847c3.694,0,7.389.019,11.084-.009a2.733,2.733,0,0,1,2.212,1.141v1.454a1.917,1.917,0,0,1-1.847,1.309c-1.1-.007-1.184.7-1.183,1.54q.009,6.768,0,13.533c0,.645.036,1.291-.008,1.932-.081,1.208-.009,2.2,1.556,2.443.845.131,1.234.959,1.479,1.759v7.023a3.148,3.148,0,0,1-2.836,1.639c-.783-.04-.512.573-.514.942-.018,3.269,0,6.536-.013,9.8-.011,3.694-2.256,5.951-5.957,5.952q-55.436.007-110.873,0c-2.64,0-3.778-1.13-3.784-3.728,0-1.171-.025-2.342.008-3.51a2.906,2.906,0,0,1,2.463-3c.844-.127.949-.472.894-1.144a6.341,6.341,0,0,1,0-1.209c.073-.658-.215-.87-.83-.809a4.049,4.049,0,0,1-.845-.023,1.689,1.689,0,0,1-1.67-1.733,1.674,1.674,0,0,1,1.569-1.821c.551-.089,1.363.107,1.615-.2.415-.5.065-1.319.161-1.992.115-.8-.254-.965-.957-.906a2.991,2.991,0,0,1-1.185-.139,1.648,1.648,0,0,1-1.2-1.867A1.7,1.7,0,0,1,1.6,76.956a2.477,2.477,0,0,1,.724-.014c.843.133,1.071-.191,1.07-1.046q-.039-25.538,0-51.074c0-.886-.187-1.3-1.115-1.119a1.086,1.086,0,0,1-.242,0A1.835,1.835,0,0,1,.02,21.93a1.884,1.884,0,0,1,1.968-1.862c.456-.038,1.208.261,1.31-.218a10.565,10.565,0,0,0-.007-2.635c0-.061-.258-.142-.4-.159-.239-.027-.484,0-.725-.013C.818,16.988.038,16.333.021,15.248S.779,13.506,2.113,13.4c.456-.037,1.391.385,1.212-.578-.16-.856.973-2.206-.884-2.559A2.943,2.943,0,0,1,.022,7.213q-.045-2,0-3.993A3.028,3.028,0,0,1,3.118.042C5.456-.027,7.8.006,10.138.028a1.92,1.92,0,0,1,2.017,1.845c.081,1.265-.527,1.975-1.9,2.066-1.651.111-3.307.047-4.961.036-.937-.006-1.31.386-1.251,1.31.044.685.33,1.042,1.034,1.051.4,0,.807.014,1.21.014H67.65c.322,0,.646-.018.968,0,.87.042,1.235-.349,1.22-1.228-.014-.835-.409-1.155-1.2-1.137-.443.01-.888,0-1.331,0H20.354a9.371,9.371,0,0,1-1.931-.088,1.669,1.669,0,0,1-1.5-2.021"/>
        <path id="Trazado_130642" data-name="Trazado 130642" d="M67.317,53.932c.444-.293.942-.144,1.411-.144q16.2-.015,32.41-.01c1.739,0,2.077-.243,2.546-1.773h4.773a2.642,2.642,0,0,0,.752,1.495c.666,1.127.329,2.364.333,3.546a14.218,14.218,0,0,1-2,7.488c-.326.545-.6,1.158-1.3,1.353-.6-.153-.648-.676-.686-1.143a7.121,7.121,0,0,1,.695-4.349,6.617,6.617,0,0,0,.373-.761c.639-1.488,0-2.464-1.643-2.453a9.413,9.413,0,0,0-4.49,1.287,18.487,18.487,0,0,0-2.961,2.091,1.276,1.276,0,0,1-1.927,0,11.342,11.342,0,0,0-1.054-.812c-5.2-3.938-10.129-3.241-14.826.8a18.06,18.06,0,0,0-1.71,1.712,1.812,1.812,0,0,0-.129,2.711,15.364,15.364,0,0,0,6.488,4.7,5.013,5.013,0,0,1,1.108.478c.265.189.412.4.077.664a3.183,3.183,0,0,1-1.537.237q-7.482.01-14.966,0c-1.779,0-1.844-.089-1.844-1.807q0-7,.005-14a2.977,2.977,0,0,1,.1-1.309" fill="#e84444"/>
        <path id="Trazado_130643" data-name="Trazado 130643" d="M16.921,1.87c.429,1.5.811,1.776,2.54,1.776q24.633,0,49.264.014c.485,0,1.271-.3,1.4.26a7.065,7.065,0,0,1,0,2.629c-.052.345-.645.174-.99.175-3.591.011-7.182.006-10.773.006q-26.689,0-53.379-.013c-.436,0-1.162.288-1.268-.266a8.371,8.371,0,0,1,.037-2.637c.039-.29.574-.159.884-.161,1.735-.01,3.471-.039,5.2.006a2.005,2.005,0,0,0,2.313-1.786q2.384,0,4.766,0" fill="#6baac9"/>
        <path id="Trazado_130644" data-name="Trazado 130644" d="M58.848,43.556c-3.285-3.445-6.995-4.351-10.627-2.507a8.2,8.2,0,0,0-4.679,6.735,14.822,14.822,0,0,1-.3,2.27A4.814,4.814,0,0,1,38.525,53.5a8.5,8.5,0,0,0-.8,16.947c8.307.649,16.826-4.467,20.617-12.383l.572-1.2c.575.159.544.67.538,1.078-.063,4.688.295,9.383-.223,14.063a2.129,2.129,0,0,1-.613,1.52c-.806.014-1.612.025-2.418.043a2.379,2.379,0,0,0-2.651,2.481c-.017.814-.333.893-1,.892Q30.272,76.924,8,76.952c-.782,0-1.014-.2-1.013-1Q7.025,50.3,7,24.642c0-.59.021-.954.808-.953q25.475.045,50.95.042a.818.818,0,0,1,.119.019c.614.325.6.924.6,1.48q.035,8.469-.008,16.938c0,.509.158,1.184-.619,1.388" fill="#fcb341"/>
        <path id="Trazado_130645" data-name="Trazado 130645" d="M67.317,53.932c.006,5.159.029,10.318,0,15.476,0,.883.145,1.283,1.176,1.273,5.4-.053,10.8-.023,16.2-.028.352,0,.734.1,1.03-.205,1.189-.5,2.446-.008,3.653-.258,3.828.2,7.651.352,11.375-.835,1.074-.076,1.947.664,2.989.741.435.032.857.2,1.3.2,1.508.01,2.165-.983,1.611-2.375-.269-.675-.886-1.273-.541-2.109a11,11,0,0,0,2.836-5.97,30.011,30.011,0,0,0,.257-6.344c1.655.557,3.361.223,5.041.26,2.745.059,2.746.016,2.746,2.8,0,5.286-.027,10.571.025,15.856.009.987-.3,1.184-1.221,1.182q-18.642-.043-37.284-.019c-1.663,0-2.092.319-2.506,1.826a5.666,5.666,0,0,1-4.772,0c-.443-1.544-.847-1.908-2.621-1.8-1.233.078-1.53-.294-1.515-1.514.067-5.632.018-11.265.028-16.9,0-.419-.182-.887.187-1.259" fill="#d73131"/>
        <path id="Trazado_130646" data-name="Trazado 130646" d="M39.348,66.841a4.9,4.9,0,0,1-5.451-6.1,4.84,4.84,0,0,1,4.637-3.585,8.738,8.738,0,0,0,8.587-8.282c.133-3.731,3.079-5.855,6.271-4.87a4.941,4.941,0,0,1,3.47,4.975A18.274,18.274,0,0,1,39.348,66.841" fill="#e84444"/>
        <path id="Trazado_130647" data-name="Trazado 130647" d="M71.238,75.4H76.01c.439,1.509.842,1.8,2.531,1.8q20.155,0,40.312.013c.487,0,1.281-.294,1.412.248a8.669,8.669,0,0,1,.006,2.638c-.019.236-.406.188-.643.191-.525.006-1.049,0-1.574,0q-29.78,0-59.56-.012c-.437,0-1.14.282-1.268-.3a4.85,4.85,0,0,1,.054-2.615c.118-.335.663-.156,1.011-.157,3.511-.01,7.021,0,10.532-.008,1.554,0,1.967-.322,2.415-1.8" fill="#0680ae"/>
        <path id="Trazado_130648" data-name="Trazado 130648" d="M58.848,43.556c.333-.277.241-.661.241-1.012q.006-8.814.005-17.627a2.048,2.048,0,0,0-.217-1.167c2.415-.015,4.83-.014,7.245-.055.589-.011.749.2.748.763q-.021,12.441,0,24.884c0,.626-.174.852-.814.825-1.085-.044-2.174.006-3.261-.017a2.839,2.839,0,0,0-2.526,1.023,10.027,10.027,0,0,0-1.423-7.617" fill="#fda613"/>
        <path id="Trazado_130649" data-name="Trazado 130649" d="M57.056,97H55.827q-25.419,0-50.838-.013c-.435,0-1.158.287-1.265-.282a11.608,11.608,0,0,1,.011-2.634c0-.056.268-.134.415-.145.321-.023.645-.009.968-.009q25.116,0,50.232-.025c1.144,0,1.748.164,1.549,1.471A6.934,6.934,0,0,0,57.056,97" fill="#6baac9"/>
        <path id="Trazado_130650" data-name="Trazado 130650" d="M59.087,20.026c-.4.016-.8.046-1.207.046q-24.751,0-49.5.025c-1.056,0-1.474-.194-1.4-1.351.11-1.69.027-1.7,1.768-1.7q24.448,0,48.9,0c.482,0,.963.045,1.445.069a2.714,2.714,0,0,1,0,2.9" fill="#fcb341"/>
        <path id="Trazado_130651" data-name="Trazado 130651" d="M7.123,13.292a.414.414,0,0,1-.051-.109c-.33-2.821-.33-2.821,2.451-2.821q24.059,0,48.115,0c.483,0,.965.027,1.448.042a2.765,2.765,0,0,1,.306,2.316.717.717,0,0,1-.843.672c-.241-.014-.484,0-.726,0q-24.753,0-49.507-.005a2.61,2.61,0,0,1-1.193-.1" fill="#fbb340"/>
        <path id="Trazado_130652" data-name="Trazado 130652" d="M53.038,83.526c-.4.022-.8.063-1.2.063q-21.728,0-43.455.025c-1.066,0-1.474-.212-1.4-1.363.107-1.678.025-1.683,1.765-1.683q21.484,0,42.97-.021c1.15,0,2.079-.043,1.878,1.517-.028.215.137.455.213.684-.05.462-.527.5-.767.778" fill="#fcb341"/>
        <path id="Trazado_130653" data-name="Trazado 130653" d="M56.649,87.356c.465.823.13,1.708.194,2.563.024.323-.259.355-.511.358-.322,0-.645,0-.967,0H8.714c-1.713,0-1.715,0-1.7-1.711,0-.321.027-.642.042-.963a1.449,1.449,0,0,1,1.033-.237c4.547-.026,9.1.057,13.639.163,6.354.147,12.7.431,19.061.421a19.452,19.452,0,0,0,3.238-.308c4.192-.709,8.413-.381,12.627-.29" fill="#fda613"/>
        <path id="Trazado_130654" data-name="Trazado 130654" d="M58.613,73.531c.872-4.781.341-9.609.463-14.414a4.364,4.364,0,0,0-.165-2.247,28.6,28.6,0,0,0,1.217-4.376,2.449,2.449,0,0,0,2.667,1.293c.629-.07.719.286.718.808q-.013,9.075.005,18.15c0,.6-.127.87-.794.842-1.369-.059-2.741-.042-4.111-.056" fill="#fda613"/>
        <path id="Trazado_130655" data-name="Trazado 130655" d="M110.64,90.49c0-1.851.029-3.7-.014-5.553-.018-.738.124-1.079.97-1.039,1.526.07,3.059.044,4.587.008.618-.015.835.16.83.807-.03,3.42,0,6.84-.024,10.261a1.812,1.812,0,0,1-1.927,2c-1.2.055-2.415-.017-3.621.028-.652.024-.821-.229-.812-.84.03-1.891.011-3.783.011-5.674" fill="#89bad4"/>
        <path id="Trazado_130656" data-name="Trazado 130656" d="M92.069,40.428c1.006,0,2.014-.039,3.018.008a2.2,2.2,0,0,1,2.287,2.728c-.421,2.166-1.02,4.3-1.531,6.445-.123.516-.478.555-.914.553-1.892-.012-3.784-.024-5.675.005-.589.01-.832-.192-.966-.774-.46-2-1.008-3.971-1.478-5.964a2.3,2.3,0,0,1,2.241-2.991c1-.053,2.012-.01,3.018-.01" fill="#89bad4"/>
        <path id="Trazado_130657" data-name="Trazado 130657" d="M60.552,93.9c-.018-3.092-.022-6.185-.066-9.277-.009-.617.246-.729.784-.72q2.41.039,4.822,0c.537-.009.791.09.782.714-.043,3.093-.041,6.186-.056,9.279a1.358,1.358,0,0,1-.982.363q-2.148.066-4.3,0a1.475,1.475,0,0,1-.988-.36" fill="#b3d1e1"/>
        <path id="Trazado_130658" data-name="Trazado 130658" d="M56.649,87.356c-1.935,0-3.872.074-5.8-.008a23.99,23.99,0,0,0-7.626.84,6.207,6.207,0,0,1-1.553.148c-6.08.178-12.153-.2-18.228-.319-3.051-.06-6.12.055-9.159-.211-2.415-.212-4.82-.136-7.229-.2.13-.714.7-.382,1.052-.382q19.518-.025,39.036-.009c2.78,0,5.56,0,8.339.009.39,0,.806-.129,1.171.131" fill="#eba73c"/>
        <path id="Trazado_130659" data-name="Trazado 130659" d="M7.123,13.292,56.9,13.275c2.2,0,2.2,0,2.194-2.145,0-.241,0-.483-.006-.724,2.338-.015,4.676-.017,7.014-.054.552-.009.751.13.779.729.107,2.342.133,2.34-2.21,2.34q-28.128,0-56.257,0c-.428,0-.883.147-1.289-.128" fill="#fba513"/>
        <path id="Trazado_130660" data-name="Trazado 130660" d="M77.264,93.9c-.017-3.1-.027-6.191-.06-9.286-.005-.5.127-.68.668-.717,2.353-.161,2.359-.184,2.35,2.167-.011,2.613-.036,5.225-.055,7.838a2.784,2.784,0,0,1-2.9,0" fill="#b3d1e1"/>
        <path id="Trazado_130661" data-name="Trazado 130661" d="M84.036,84.006c2.9-.349,2.906-.349,2.9,2.439-.006,2.484-.024,4.969-.037,7.453a2.772,2.772,0,0,1-2.3.3.668.668,0,0,1-.668-.71c.056-3.16-.148-6.324.109-9.482" fill="#b2d0e0"/>
        <path id="Trazado_130662" data-name="Trazado 130662" d="M90.607,93.9c-.013-3.092-.019-6.184-.046-9.276,0-.483.08-.771.65-.713a11.2,11.2,0,0,1,2.269.112c.265,2.153.051,4.314.116,6.47.019.641,0,1.283,0,1.924,0,1.758-.376,2.083-2.123,1.844a1.375,1.375,0,0,1-.869-.361" fill="#b2d0e0"/>
        <path id="Trazado_130663" data-name="Trazado 130663" d="M97.328,93.911c-.022-3.1-.037-6.193-.073-9.29-.006-.5.14-.679.673-.719,2.36-.179,2.364-.2,2.356,2.155-.008,2.615-.028,5.23-.043,7.845a2.806,2.806,0,0,1-2.913.009" fill="#b3d1e1"/>
        <path id="Trazado_130664" data-name="Trazado 130664" d="M70.712,83.974A10.6,10.6,0,0,1,73.387,84a55.088,55.088,0,0,1,.109,5.761c.026.923,0,1.848,0,2.771,0,1.6-.727,2.134-2.239,1.676-.376-.114-.661-.285-.654-.733.054-3.166-.138-6.335.1-9.5" fill="#b2d0e0"/>
        <path id="Trazado_130665" data-name="Trazado 130665" d="M104.129,83.982a10.421,10.421,0,0,1,2.676.008c.245,2.642.1,5.289.081,7.933-.005.879-1.519,1.967-2.369,1.869a.485.485,0,0,1-.493-.551c.059-3.086-.145-6.175.1-9.259" fill="#b2d0e0"/>
        <path id="Trazado_130666" data-name="Trazado 130666" d="M59.087,20.026l0-2.9c2.375-.023,4.75-.04,7.125-.075.448-.006.61.138.659.614.246,2.364.221,2.419-2.108,2.411-1.893-.007-3.786-.03-5.679-.046" fill="#fda613"/>
        <path id="Trazado_130667" data-name="Trazado 130667" d="M60.552,93.9l6.266,0c.175,3.093.175,3.093-2.816,3.093h-.6c-2.527,0-3.026-.543-2.847-3.089" fill="#89b9d3"/>
        <path id="Trazado_130668" data-name="Trazado 130668" d="M104.129,83.982c0,2.895.028,5.79-.008,8.684-.011.9.2,1.018,1.019.644a2.462,2.462,0,0,0,1.689-2.688c-.125-2.2-.027-4.421-.024-6.632.426.244.209.652.21.973.013,3.662-.027,7.325.015,10.986.01.868-.266,1.079-1.093,1.066-2.02-.033-2.019.007-2.021-2.046,0-3.3-.019-6.6,0-9.9,0-.36-.232-.8.217-1.088" fill="#87b7d1"/>
        <path id="Trazado_130669" data-name="Trazado 130669" d="M70.712,83.974c0,2.972.05,5.945-.022,8.915-.029,1.2.693,1.01,1.4,1.022s1.324.093,1.3-1c-.062-2.97-.014-5.943-.01-8.914.391.206.2.572.205.858.009,3.7-.03,7.4.012,11.1.011.889-.311,1.063-1.113,1.052-2-.026-2,.01-2-1.938,0-3.339-.019-6.679,0-10.019,0-.358-.236-.8.225-1.082" fill="#87b7d0"/>
        <path id="Trazado_130670" data-name="Trazado 130670" d="M84.036,84.006c0,2.85.071,5.7-.013,8.549-.034,1.158.365,1.5,1.431,1.364A12.4,12.4,0,0,1,86.9,93.9c.013.4.037.8.039,1.2.005,1.91,0,1.862-1.887,1.918-.925.027-1.238-.205-1.224-1.189.055-3.731.011-7.465.01-11.2,0-.22-.1-.492.2-.625" fill="#87b7d0"/>
        <path id="Trazado_130671" data-name="Trazado 130671" d="M90.607,93.9c2.851.032,2.849.032,2.852-2.777q0-3.551.021-7.1c.256.164.174.427.174.654,0,3.784-.026,7.567-.007,11.351,0,.706-.164.983-.937.988-2.148.014-2.149.053-2.142-2.032,0-.362.025-.723.039-1.084" fill="#87b7d0"/>
        <path id="Trazado_130672" data-name="Trazado 130672" d="M77.264,93.9l2.9,0a13.9,13.9,0,0,0,.068,1.686c.191,1.207-.319,1.5-1.461,1.427C77,96.9,77.232,97.2,77.215,95.471c0-.522.031-1.045.049-1.567" fill="#89b9d2"/>
        <path id="Trazado_130673" data-name="Trazado 130673" d="M97.328,93.911l2.913-.009a11.677,11.677,0,0,0,.057,1.568c.218,1.3-.352,1.546-1.569,1.576-1.289.032-1.647-.4-1.476-1.57a15.355,15.355,0,0,0,.075-1.565" fill="#89b9d2"/>
        <path id="Trazado_130674" data-name="Trazado 130674" d="M53.038,83.526a1.531,1.531,0,0,1,.767-.778c.261.155.521.311,1.009.6a2.954,2.954,0,0,1-1.776.174" fill="#f3a116"/>
        <path id="Trazado_130675" data-name="Trazado 130675" d="M89.382,70.465a12.52,12.52,0,0,1-3.652-.017,16.155,16.155,0,0,1-8.1-5.244,1.975,1.975,0,0,1,.047-3.085,20.118,20.118,0,0,1,3.025-2.777c4.692-3.468,9.483-3.375,14.222.283,1.619,1.249,1.6,1.231,3.2.029a11.931,11.931,0,0,1,6.931-2.828c1.92-.045,2.734,1.25,1.806,2.944a7.349,7.349,0,0,0-.751,6.044,6.821,6.821,0,0,0,.8,1.87c.824,1.643-.065,3.03-1.9,2.919a11.306,11.306,0,0,1-4.043-1.082,6.946,6.946,0,0,1-3.528-1.971,1.238,1.238,0,0,0-1.862.036c-1.831,1.427-3.668,2.92-6.195,2.879"/>
        <path id="Trazado_130676" data-name="Trazado 130676" d="M34.371,30.165c4.886-.135,8.6,2.77,9.25,7.046A8.462,8.462,0,0,1,37.539,46.8a11.243,11.243,0,0,1-2.506.36,4.745,4.745,0,0,0-4.573,4.2c-.117.838-.11,1.7-.3,2.518A8.5,8.5,0,0,1,13.371,52,22.021,22.021,0,0,1,31.245,30.485a18.326,18.326,0,0,1,3.126-.32"/>
        <path id="Trazado_130677" data-name="Trazado 130677" d="M89.382,70.465A14.386,14.386,0,0,0,95.9,66.926c.494-.457.8-.453,1.29,0a16.51,16.51,0,0,0,3.781,2.59c-1.41.953-3.062.885-4.639,1.014a28.277,28.277,0,0,1-6.946-.07" fill="#e74343"/>
        <path id="Trazado_130678" data-name="Trazado 130678" d="M44.592,62.419a1.726,1.726,0,0,1-1.674-1.167A1.666,1.666,0,0,1,43.4,59.27a12.647,12.647,0,0,1,1.228-.765,12.089,12.089,0,0,0,4.456-4.983c.617-1.257,1.625-1.645,2.642-1.1.942.509,1.173,1.521.582,2.74a15.125,15.125,0,0,1-6.576,6.876,2.271,2.271,0,0,1-1.136.377"/>
        <path id="Trazado_130679" data-name="Trazado 130679" d="M92.1,43.518c.565,0,1.131-.028,1.693.006a1.741,1.741,0,0,1,1.778,1.758,1.708,1.708,0,0,1-1.612,1.807,22.931,22.931,0,0,1-3.743,0,1.791,1.791,0,0,1,.191-3.569c.563-.025,1.128,0,1.693,0" fill="#000101"/>
        <path id="Trazado_130680" data-name="Trazado 130680" d="M87.593,60.435c2.58.076,4.382,1.413,6.116,2.889.359.307.183.546-.087.789-4.133,3.718-7.714,3.855-11.937.026-.335-.3-.4-.568-.035-.89,1.762-1.529,3.639-2.8,5.943-2.814" fill="#017196"/>
        <path id="Trazado_130681" data-name="Trazado 130681" d="M102.245,66.023a7.983,7.983,0,0,1-2.007-1.261c-1.37-1.076-1.375-1.08.032-2.174.412-.319.846-.611,1.282-.9a8.271,8.271,0,0,1,.765-.382,24.876,24.876,0,0,0-.072,4.714" fill="#017094"/>
        <path id="Trazado_130682" data-name="Trazado 130682" d="M17,51.635A18.264,18.264,0,0,1,35.017,33.787a4.862,4.862,0,0,1,5.127,4.692,4.969,4.969,0,0,1-4.72,5.025c-5.407.428-8.152,3.155-8.7,8.641a4.852,4.852,0,0,1-4.611,4.707A4.939,4.939,0,0,1,17,51.635" fill="#e84444"/>
        <path id="Trazado_130683" data-name="Trazado 130683" d="M23.239,47.836A1.8,1.8,0,0,1,21.657,45.3,14.494,14.494,0,0,1,29.4,38.022a1.655,1.655,0,0,1,2.233.915A1.725,1.725,0,0,1,30.8,41.3a12.619,12.619,0,0,0-5.961,5.615,1.754,1.754,0,0,1-1.6.919"/>
      </g>
    </g>
  </g>
</svg>
