<svg xmlns="http://www.w3.org/2000/svg" xmlns:xlink="http://www.w3.org/1999/xlink" width="207" height="170" viewBox="0 0 207 170">
  <defs>
    <clipPath id="clip-path">
      <rect id="Rect치ngulo_37651" data-name="Rect치ngulo 37651" width="94.342" height="99.215" fill="none"/>
    </clipPath>
  </defs>
  <g id="_84" data-name="84" transform="translate(-256 -10917)">
    <g id="Grupo_156377" data-name="Grupo 156377" transform="translate(255.949 10917)">
      <rect id="Rect치ngulo_36766" data-name="Rect치ngulo 36766" width="207" height="170" rx="12" transform="translate(0.051 -0.001)" fill="#0c487b"/>
    </g>
    <g id="Grupo_156647" data-name="Grupo 156647" transform="translate(318.278 10926.153)">
      <g id="Grupo_156582" data-name="Grupo 156582" transform="translate(-32.13 0.687)">
        <path id="Trazado_127053" data-name="Trazado 127053" d="M18.874,130.6c-1.152.257-1.419-.286-1.407-1.362.029-2.7-.016-2.744-2.807-2.727-1.038.006-1.361-.316-1.341-1.343.019-.957.194-1.4,1.3-1.4,2.8.01,2.87-.046,2.84-2.839-.013-1.264.607-1.287,1.544-1.3s1.422.147,1.422,1.269c0,2.829.057,2.88,2.821,2.869,1.069,0,1.322.381,1.324,1.374s-.25,1.373-1.32,1.367c-2.817-.016-2.884.037-2.823,2.705.029,1.239-.428,1.6-1.552,1.383" transform="translate(-13.318 -31.769)" fill="#29c4bb"/>
        <path id="Trazado_127054" data-name="Trazado 127054" d="M216.176,151.193c1.031-.2,1.6.144,1.432,1.311-.142.977.2,1.521,1.277,1.354s1.445.224,1.454,1.362c.009,1.193-.479,1.468-1.5,1.331-.971-.131-1.279.291-1.26,1.258.031,1.514-.907,2.1-2.371,1.636-.7-.217-.543-.772-.5-1.211.122-1.2-.151-1.929-1.564-1.69-1.093.186-1.16-.5-1.157-1.338s.035-1.517,1.145-1.346c1.195.184,1.761-.252,1.562-1.515-.189-1.206.584-1.259,1.476-1.153" transform="translate(-72.947 -37.404)" fill="#29c4bb"/>
        <path id="Trazado_127055" data-name="Trazado 127055" d="M215.738,71.78c.266,1.15-.26,1.544-1.338,1.362-1.168-.2-1.644.282-1.438,1.443.2,1.123-.286,1.392-1.374,1.4-1.123.01-1.545-.321-1.35-1.414.209-1.164-.277-1.643-1.432-1.426-1.2.225-1.3-.4-1.348-1.409-.053-1.183.406-1.491,1.436-1.311,1.12.2,1.537-.268,1.347-1.362-.182-1.046.156-1.47,1.321-1.428,1.028.037,1.621.182,1.4,1.36s.291,1.621,1.44,1.428c1.079-.181,1.6.205,1.336,1.355" transform="translate(-71.179 -24.093)" fill="#010000"/>
        <path id="Trazado_127056" data-name="Trazado 127056" d="M60.052,189.178c.252,1.073-.278,1.467-1.351,1.274-1.26-.228-1.558.428-1.377,1.489.2,1.18-.371,1.363-1.407,1.357-.991-.006-1.523-.23-1.315-1.3.273-1.4-.428-1.746-1.636-1.54-1.239.211-1.181-.571-1.186-1.42,0-.822.018-1.52,1.137-1.3,1.506.3,1.891-.425,1.687-1.773-.195-1.29.788-.919,1.445-.958.7-.042,1.47-.131,1.267.988-.25,1.384.235,2.025,1.7,1.744,1.222-.235,1.073.618,1.037,1.436" transform="translate(-24.861 -42.86)" fill="#010000"/>
        <path id="Trazado_127057" data-name="Trazado 127057" d="M121.826,19.9c-.288-1.225.389-1.463,1.391-1.315,1.042.155,1.451-.276,1.293-1.3s.146-1.492,1.326-1.467c1.084.022,1.58.3,1.392,1.416-.193,1.142.334,1.513,1.4,1.352.992-.148,1.489.089,1.494,1.3.006,1.241-.462,1.574-1.543,1.4-1.143-.182-1.53.338-1.353,1.4.2,1.2-.444,1.334-1.45,1.355-1.076.022-1.427-.382-1.269-1.37.173-1.082-.227-1.577-1.357-1.388-1.1.184-1.574-.269-1.327-1.389" transform="translate(-45.862 -15.817)" fill="#29c4bb"/>
      </g>
    </g>
    <g id="Grupo_157663" data-name="Grupo 157663" transform="translate(312 10951.999)">
      <g id="Grupo_157663-2" data-name="Grupo 157663" transform="translate(0 0)" clip-path="url(#clip-path)">
        <path id="Trazado_130684" data-name="Trazado 130684" d="M28.977,74.331q-.019-2.879-.038-5.759c1.293-.367,1.345-1.327,1.343-2.471q-.042-28.152-.03-56.3a5.844,5.844,0,0,1,1.66-4.506,5.292,5.292,0,0,1,3.513-1.539c.309-.016.619-.013.93-.013q27.328,0,54.656-.011a5.822,5.822,0,0,1,4.573,1.743,5.254,5.254,0,0,1,1.459,3.44c.02.413.012.827.012,1.24q0,38.69,0,77.38a6.124,6.124,0,0,1-.153,2.047A6.6,6.6,0,0,1,91.454,92c-5.194.018-10.39,0-15.585.006-.894,0-1.789.008-2.683,0a2.147,2.147,0,0,1-1.294-.253c-.223-1.3-1.1-1.437-2.239-1.42-4.015.059-8.031.022-12.046.023-1.6,0-1.6,0-2.153,1.363A2.062,2.062,0,0,1,54.071,92c-6.114.006-12.229.019-18.342-.006a6.62,6.62,0,0,1-5.277-2.345,3.735,3.735,0,0,1-.178-1.516c-.006-2.394-.044-4.789.016-7.181.028-1.15,0-2.165-1.351-2.526q.017-1.721.035-3.444a5.806,5.806,0,0,1,2.144-.111c.733,0,1.115-.249,1.046-1.023-.015-.17.013-.345,0-.516-.04-.39.149-.927-.35-1.088a2.61,2.61,0,0,0-1.916.049c-.329.154-.267.6-.37.926-.126.4.016.929-.546,1.11" transform="translate(-5.688 -0.733)" fill="#004fa7"/>
        <path id="Trazado_130685" data-name="Trazado 130685" d="M28.527,77.7c1.658.08,1.654.08,1.658,1.721q.013,4.736.035,9.473a3.464,3.464,0,0,1,.288,1.709,4.735,4.735,0,0,0,5.011,4.984c5.646.024,11.291.007,16.937.007q19.106,0,38.211.01A5.1,5.1,0,0,0,94.752,94,4.608,4.608,0,0,0,95.99,90.81a3.722,3.722,0,0,1,.286-1.915c.012-.378.034-.756.034-1.134,0-26.233-.033-52.467.044-78.7A5.483,5.483,0,0,0,90.6,3.3c-18.248.092-36.5.043-54.745.044C32.139,3.347,30.185,5.3,30.185,9q0,28.557,0,57.114c0,1.65,0,1.65-1.658,1.73-1.65-.079-1.65-.079-1.65-1.786q0-28.508,0-57.015c0-5.588,3.41-9,8.988-9h54.85c5.445,0,8.9,3.45,8.9,8.887q0,40.7,0,81.39c0,5.443-3.454,8.9-8.886,8.9q-27.476,0-54.954,0c-5.442,0-8.9-3.452-8.9-8.888,0-3.788.043-7.575-.029-11.361-.019-1.035.234-1.441,1.268-1.245a1.618,1.618,0,0,0,.41-.027" transform="translate(-5.277 -0.008)"/>
        <path id="Trazado_130686" data-name="Trazado 130686" d="M1.763,27.318c-1.652-.087-1.516-.1-1.681-1.784a15.224,15.224,0,0,1,2.384-9.988,18.194,18.194,0,0,0,1.069-2.112A1.571,1.571,0,0,1,5.019,12.5a1.6,1.6,0,0,1,1.587.94c1.052,2.124,2.12,4.239,3.183,6.357a2.814,2.814,0,0,1,.243,1.3q-.006,37.7-.008,75.41a4.96,4.96,0,1,1-9.912-.012Q.1,64,.092,31.516c0-.775.181-1.065.952-.934a3.443,3.443,0,0,0,.719-.027c1.339-.548,1.908-.216,1.974,1.159.022.448.01.9.01,1.343V83.982c0,.31,0,.62,0,.93.008,1.445.694,1.923,2.092,1.492a.69.69,0,0,0,.525-.672A9.83,9.83,0,0,0,6.392,84.7q0-30.989.017-61.977a6.687,6.687,0,0,0-.9-3.338c-.344-.617-.585-.547-.893.023a6.053,6.053,0,0,0-.883,3.239c.055,1.167.042,2.341,0,3.511-.051,1.376-.632,1.707-1.972,1.159" transform="translate(0 -2.456)"/>
        <path id="Trazado_130687" data-name="Trazado 130687" d="M2.194,28.615c1.654-.087,1.654-.087,1.654-1.784a13,13,0,0,0-.014-1.856c-.308-2.144.5-3.952,1.732-5.881.569,1.584,1.621,2.758,1.617,4.513Q7.118,55.3,7.175,86.994c0,.882-.168,1.155-1.1,1.121-2.226-.08-2.227-.024-2.227-2.24V33.636c0-1.7,0-1.7-1.654-1.784V28.615" transform="translate(-0.431 -3.752)" fill="#f1f7fe"/>
        <path id="Trazado_130688" data-name="Trazado 130688" d="M20.38,30.361c1.573,0,1.573,0,1.573,1.609s0,1.622-1.581,1.622c-1.727,0-1.727,0-1.727-1.682a2.938,2.938,0,0,0,0-.512c-.148-.835.151-1.2,1.024-1.045a4.09,4.09,0,0,0,.716.006" transform="translate(-3.656 -5.959)" fill="#020202"/>
        <path id="Trazado_130689" data-name="Trazado 130689" d="M20.25,41.647c-1.6,0-1.6,0-1.6-1.613,0-1.65,0-1.65,1.661-1.65s1.647,0,1.647,1.663c0,1.6,0,1.6-1.712,1.6" transform="translate(-3.666 -7.544)" fill="#010101"/>
        <path id="Trazado_130690" data-name="Trazado 130690" d="M20.28,49.669c-1.625,0-1.625,0-1.625-1.662,0-1.573,0-1.573,1.632-1.573,1.676,0,1.676,0,1.676,1.632,0,1.6,0,1.6-1.683,1.6" transform="translate(-3.666 -9.126)" fill="#020202"/>
        <path id="Trazado_130691" data-name="Trazado 130691" d="M20.253,17.5c-1.6,0-1.6,0-1.6-1.592,0-1.658,0-1.658,1.658-1.658s1.65,0,1.65,1.666c0,1.584,0,1.584-1.71,1.584" transform="translate(-3.666 -2.801)" fill="#010101"/>
        <path id="Trazado_130692" data-name="Trazado 130692" d="M21.962,64.11c0,1.67,0,1.671-1.645,1.671-1.663,0-1.663,0-1.663-1.653,0-1.6,0-1.6,1.593-1.6h.1c1.612,0,1.612,0,1.612,1.577" transform="translate(-3.666 -12.29)" fill="#010101"/>
        <path id="Trazado_130693" data-name="Trazado 130693" d="M20.243,73.811c-1.588,0-1.588,0-1.588-1.612,0-1.647,0-1.647,1.668-1.647,1.639,0,1.639,0,1.639,1.676,0,1.583,0,1.583-1.719,1.583" transform="translate(-3.666 -13.866)" fill="#010101"/>
        <path id="Trazado_130694" data-name="Trazado 130694" d="M28.985,90.961a1.952,1.952,0,0,0,.145-.375c.364-2.323.51-2.422,2.806-2.114.893.12.546.822.477,1.184-.132.707.633,1.8-.484,2.07a5.8,5.8,0,0,1-2.948-.114c0-.216,0-.434,0-.651" transform="translate(-5.696 -17.363)" fill="#000001"/>
        <path id="Trazado_130695" data-name="Trazado 130695" d="M18.69,9.642c-.284,0-.37-.087-.489-.351-.878-1.939-.839-1.867.9-3.193.9-.685,1.182-.36,1.58.442,1.165,2.348.7,3.1-1.989,3.1" transform="translate(-3.466 -1.125)" fill="#010101"/>
        <path id="Trazado_130696" data-name="Trazado 130696" d="M16.1,1.907c-.532.794-1.053,1.647-1.661,2.434-.2.252-.473-.13-.709-.223-.563-.219-1.389-.33-1.6-.742-.222-.44.146-1.176.256-1.784.253-1.41.258-1.425,1.632-.913a17.8,17.8,0,0,1,1.683.767c.168.083.406.144.4.461" transform="translate(-2.371 -0.073)" fill="#010101"/>
        <path id="Trazado_130697" data-name="Trazado 130697" d="M25.493,86.961c-.558.847-1.121,1.7-1.7,2.553-.019.029-.2-.011-.271-.062A10.151,10.151,0,0,1,21.2,87.289c-.233-.292-.034-.415.171-.56.644-.456,1.283-.916,1.927-1.372.133-.094.307-.289.44-.137a11.858,11.858,0,0,0,1.644,1.544c.047.037.065.113.111.2" transform="translate(-4.146 -16.738)" fill="#010101"/>
        <path id="Trazado_130698" data-name="Trazado 130698" d="M18.659,79.951c-.015-1.329-.015-1.329,1.351-1.329,1.835,0,1.763.009,2,1.858.112.869-.133,1.171-.926,1.221a3.148,3.148,0,0,0-.5.117c-1.885.444-1.885.444-1.93-1.559,0-.1,0-.206,0-.309" transform="translate(-3.667 -15.452)" fill="#010101"/>
        <path id="Trazado_130699" data-name="Trazado 130699" d="M5.994,3.339c-.068,0-.15.025-.2,0-.5-.268-1.538.685-1.548-.713C4.228.812,4.668.113,5.964.035c1.593-.1,1.593-.1,1.593,1.482v.308c0,1.515,0,1.515-1.563,1.515" transform="translate(-0.834 0)"/>
        <path id="Trazado_130700" data-name="Trazado 130700" d="M20.307,25.536c-1.652,0-1.652,0-1.652-1.652,0-1.547,0-1.547,1.551-1.547,1.755,0,1.755,0,1.755,1.756a2.888,2.888,0,0,0,0,.514c.142.778-.172,1.065-.939.935a4.3,4.3,0,0,0-.72-.006" transform="translate(-3.666 -4.39)"/>
        <path id="Trazado_130701" data-name="Trazado 130701" d="M20.266,57.709c-1.61,0-1.61,0-1.61-1.591,0-1.608,0-1.608,1.592-1.608,1.714,0,1.714,0,1.714,1.694a1.171,1.171,0,0,0,0,.206c.194,1.049-.206,1.506-1.286,1.3a2.267,2.267,0,0,0-.411,0" transform="translate(-3.667 -10.713)"/>
        <path id="Trazado_130702" data-name="Trazado 130702" d="M37.179,80.045l.024-3.264a1.118,1.118,0,0,1,.273-.2,6.511,6.511,0,0,1,1.826-.108c.58-.01.9-.228.881-.847-.011-.34-.01-.681,0-1.02.018-.617-.3-.84-.88-.849a6.651,6.651,0,0,1-1.829-.106,1.131,1.131,0,0,1-.272-.2l-.024-3.264c1.3-.374,1.331-1.353,1.329-2.487q-.04-26.6-.018-53.2c0-2.5.04-2.542,2.527-2.542q24.328,0,48.656,0c2.333,0,2.394.059,2.394,2.346q0,34.346,0,68.69c0,2.293-.078,2.371-2.381,2.371q-24.432,0-48.863,0c-2.223,0-2.328-.108-2.334-2.323a4.26,4.26,0,0,1,0-.517c.135-1.134-.009-2.116-1.314-2.488" transform="translate(-7.307 -2.351)" fill="#f1f7fe"/>
        <path id="Trazado_130703" data-name="Trazado 130703" d="M36.768,79.319c1.649.079,1.643.079,1.651,1.789,0,1.028-.368,2.413.15,2.991.593.661,2,.2,3.055.2q24.28.018,48.559.031c.94,0,1.159-.235,1.158-1.164q-.042-35.227,0-70.455c0-.937-.229-1.161-1.162-1.159q-25.313.046-50.625,0c-.938,0-1.161.229-1.16,1.162q.046,27.48.022,54.959c0,1.71,0,1.71-1.649,1.789-1.658-.08-1.658-.08-1.658-1.73V10.717c0-2,.439-2.447,2.4-2.447H92.258c1.9,0,2.366.466,2.366,2.377q0,37.288,0,74.576c0,1.922-.462,2.392-2.353,2.392q-27.427,0-54.852,0c-1.829,0-2.307-.484-2.308-2.331,0-1.584.05-3.17-.02-4.75-.04-.91.178-1.365,1.163-1.189a2.275,2.275,0,0,0,.514-.026" transform="translate(-6.896 -1.625)"/>
        <path id="Trazado_130704" data-name="Trazado 130704" d="M97.093,110.63a11.149,11.149,0,0,1-.159,3.383,4.919,4.919,0,0,1-4.727,3.63q-28.142.016-56.286,0a4.94,4.94,0,0,1-4.916-4.949c-.01-.688.02-1.376.031-2.063a8.32,8.32,0,0,0,5.738,2.087c6.33-.071,12.66-.027,18.99-.027a.718.718,0,0,1,.3.518c.09.656.516.814,1.1.813,1.029,0,2.059,0,3.089,0,3.227,0,6.453-.042,9.679.023,1.148.023,2.088-.059,2.43-1.356,6.33,0,12.661-.043,18.99.027a8.322,8.322,0,0,0,5.739-2.087" transform="translate(-6.093 -21.743)" fill="#064c99"/>
        <path id="Trazado_130705" data-name="Trazado 130705" d="M78.422,112.789c-.085,1.656-.085,1.656-1.739,1.656H63.561c-1.653,0-1.653,0-1.738-1.656.084-1.65.084-1.65,1.739-1.65H76.682c1.654,0,1.654,0,1.739,1.65" transform="translate(-12.151 -21.843)"/>
        <path id="Trazado_130706" data-name="Trazado 130706" d="M37.408,91.786a.448.448,0,0,1-.2.036V88.495a.427.427,0,0,1,.2.036,3.989,3.989,0,0,1,0,3.255" transform="translate(-7.313 -17.392)" fill="#7b7e81"/>
        <path id="Trazado_130707" data-name="Trazado 130707" d="M7.555,112.7c0,.963.022,1.926-.007,2.888a1.647,1.647,0,1,1-3.289,0c-.027-1.959,0-3.919-.019-5.879-.006-.487.137-.625.632-.648,2.684-.125,2.684-.141,2.684,2.508q0,.568,0,1.134" transform="translate(-0.833 -21.425)" fill="#57a4fe"/>
        <path id="Trazado_130708" data-name="Trazado 130708" d="M85.485,45.374c1.649.084,1.649.084,1.649,1.789,0,5.818-.018,11.636.018,17.454a2.588,2.588,0,0,1-1.178,2.343c-1.9,1.362-3.759,2.784-5.619,4.2a3.258,3.258,0,0,1-2.088.707q-14.3-.031-28.609-.014c-1.673,0-2.2-.536-2.2-2.234q0-14.3-.016-28.606a2.822,2.822,0,0,1,.926-2.181c2.286-2.241,4.526-4.528,6.808-6.775a1.675,1.675,0,0,0,.56-1.343c-.034-1.686-.027-3.374-.008-5.06a4.927,4.927,0,0,1,5.027-5.036q5.732-.035,11.464,0a4.928,4.928,0,0,1,4.99,4.969c.023,1.515.047,3.031-.013,4.544a1.33,1.33,0,0,0,.889,1.481c2.574,1.218,5.088,2.558,7.653,3.794a2.142,2.142,0,0,1,1.408,2.254,26.759,26.759,0,0,0,.007,3.406c.063.863-.19,1.2-1.053,1.042a2.753,2.753,0,0,0-.616.027c-1.364.54-1.926.219-1.957-1.167-.067-2.913.415-2.379-2.552-3.872a14.936,14.936,0,0,0-1.5-.707,9.885,9.885,0,0,0,.842,2.381,6.833,6.833,0,0,1,.52,2.712q-.02,11.672,0,23.346a2.444,2.444,0,0,0,.088,1.113,3.237,3.237,0,0,0,2.593-3.388c0-5.3-.013-10.606.01-15.909.006-1.486.56-1.824,1.959-1.27" transform="translate(-9.324 -4.049)"/>
        <path id="Trazado_130709" data-name="Trazado 130709" d="M93.141,49.051c-1.658.084-1.658.084-1.658,1.8,0,5.434-.014,10.868.017,16.3a1.607,1.607,0,0,1-.769,1.529c-.822.547-1.595,1.168-2.554,1.88V69.321c0-7.67-.031-15.339.024-23.008a10.475,10.475,0,0,0-.97-4.879c-.3-.6-.5-1.257-.834-2.124,1.731.861,3.244,1.617,4.763,2.362.359.177.324.483.324.792a22.216,22.216,0,0,1-.017,2.267c-.091.861.192,1.2,1.058,1.054a2.794,2.794,0,0,1,.615.027v3.24" transform="translate(-16.98 -7.726)" fill="#5397e6"/>
        <path id="Trazado_130710" data-name="Trazado 130710" d="M94.214,16.5c.964,0,1.928-.016,2.892,0a1.646,1.646,0,0,1,1.817,1.78c.025,1.962,0,3.924.015,5.886,0,.418-.076.579-.553.61-2.762.177-2.756.194-2.765-2.526,0-.784.25-1.81-.145-2.286-.416-.5-1.481-.15-2.26-.156-2.633-.018-2.618-.006-2.563-2.625.011-.51.1-.732.672-.7.961.05,1.927.014,2.891.014" transform="translate(-17.814 -3.239)"/>
        <path id="Trazado_130711" data-name="Trazado 130711" d="M43.342,21.134c0-.964-.022-1.928.006-2.892A1.62,1.62,0,0,1,45.1,16.505c1.962-.027,3.925.008,5.887-.019.5-.007.615.145.634.634.1,2.684.117,2.68-2.5,2.685-.787,0-1.834-.27-2.292.127-.544.469-.164,1.547-.173,2.358-.027,2.5-.01,2.475-2.5,2.492-.7,0-.869-.2-.831-.86.055-.926.014-1.858.014-2.788" transform="translate(-8.515 -3.24)"/>
        <path id="Trazado_130712" data-name="Trazado 130712" d="M98.922,85.925c0,.93.014,1.859,0,2.788a1.671,1.671,0,0,1-1.828,1.878c-1.928.021-3.855-.006-5.783.014-.453,0-.644-.063-.668-.6-.121-2.717-.141-2.7,2.573-2.723.779-.006,1.843.349,2.259-.158.394-.48.139-1.5.141-2.288.008-2.56,0-2.528,2.562-2.526.689,0,.787.241.759.827-.044.928-.012,1.858-.012,2.788" transform="translate(-17.806 -16.177)"/>
        <path id="Trazado_130713" data-name="Trazado 130713" d="M47.008,91.814c-1.6,0-1.6,0-1.6-1.6,0-1.707,0-1.707,1.7-1.707,1.6,0,1.6,0,1.6,1.6,0,1.707,0,1.707-1.7,1.707" transform="translate(-8.924 -17.395)"/>
        <path id="Trazado_130714" data-name="Trazado 130714" d="M37.457,91.789V88.534c.24-.009.48-.024.721-.025,2.586-.01,2.791.256,2.39,2.892-.06.395-.235.419-.533.415-.859-.014-1.719-.019-2.578-.027" transform="translate(-7.362 -17.395)"/>
        <path id="Trazado_130715" data-name="Trazado 130715" d="M51.606,51.49c-.011-1.17,0-2.34-.043-3.51-.018-.5.137-.633.632-.632q12.6.022,25.208,0c.5,0,.635.137.632.632q-.031,5.165,0,10.33c0,.5-.145.631-.636.629Q66.449,58.9,55.5,58.9a1.349,1.349,0,0,1-.643-.49c-1.313-2.2-2.713-4.356-3.251-6.918" transform="translate(-10.134 -9.306)" fill="#f1f7fe"/>
        <path id="Trazado_130716" data-name="Trazado 130716" d="M77.724,39.575H54.47c1.48-1.462,2.733-2.86,4.155-4.059A4.718,4.718,0,0,0,60.44,31.1a41.6,41.6,0,0,1-.026-4.433c.013-1.338.616-1.936,1.972-1.94q5.468-.014,10.936,0c1.35,0,2.055.615,1.946,1.945a22.324,22.324,0,0,0,2.376,12.544,1.655,1.655,0,0,1,.08.354" transform="translate(-10.705 -4.859)" fill="#57a4fe"/>
        <path id="Trazado_130717" data-name="Trazado 130717" d="M59.556,65.91q9.7-.018,19.4-.044c.485,0,.649.129.646.632q-.029,5.159,0,10.32c0,.495-.144.656-.64.638-1.168-.041-2.337-.033-3.506-.044a22.624,22.624,0,0,1-6.842-3.23,35.8,35.8,0,0,1-8.635-7.387c-.208-.254-.518-.477-.423-.884" transform="translate(-11.701 -12.945)" fill="#57a4fe"/>
        <path id="Trazado_130718" data-name="Trazado 130718" d="M57.988,65.91A38,38,0,0,0,70.907,76.047c.978.487,1.987.91,2.982,1.363q-10.837.017-21.673.043c-.481,0-.654-.125-.652-.631q.03-5.161,0-10.321c0-.5.157-.645.646-.636,1.926.035,3.852.033,5.778.044" transform="translate(-10.134 -12.945)" fill="#5397e6"/>
        <path id="Trazado_130719" data-name="Trazado 130719" d="M51.607,52.5A39.817,39.817,0,0,0,55.5,59.911c-1.1.01-2.2,0-3.3.042-.5.019-.641-.141-.633-.636.035-2.271.032-4.543.043-6.814" transform="translate(-10.134 -10.319)" fill="#dbe0e6"/>
        <path id="Trazado_130720" data-name="Trazado 130720" d="M69.993,32.147c-1.134,0-2.267-.022-3.4.01-.493.014-.62-.145-.643-.636-.122-2.68-.137-2.68,2.5-2.68,1.682,0,3.364.025,5.045-.013.585-.014.739.157.748.742.043,2.578.063,2.577-2.5,2.577h-1.75" transform="translate(-12.954 -5.666)"/>
      </g>
    </g>
  </g>
</svg>
