<svg xmlns="http://www.w3.org/2000/svg" xmlns:xlink="http://www.w3.org/1999/xlink" width="207" height="170" viewBox="0 0 207 170">
  <defs>
    <clipPath id="clip-path">
      <rect id="Rect치ngulo_37652" data-name="Rect치ngulo 37652" width="122.693" height="123.173" transform="translate(0 0)" fill="none"/>
    </clipPath>
  </defs>
  <g id="_85" data-name="85" transform="translate(-256 -10917)">
    <g id="Grupo_156377" data-name="Grupo 156377" transform="translate(255.949 10917)">
      <rect id="Rect치ngulo_36766" data-name="Rect치ngulo 36766" width="207" height="170" rx="12" transform="translate(0.051 -0.001)" fill="#0c487b"/>
    </g>
    <g id="Grupo_156647" data-name="Grupo 156647" transform="translate(318.278 10926.153)">
      <g id="Grupo_156582" data-name="Grupo 156582" transform="translate(-32.13 0.687)">
        <path id="Trazado_127053" data-name="Trazado 127053" d="M18.874,130.6c-1.152.257-1.419-.286-1.407-1.362.029-2.7-.016-2.744-2.807-2.727-1.038.006-1.361-.316-1.341-1.343.019-.957.194-1.4,1.3-1.4,2.8.01,2.87-.046,2.84-2.839-.013-1.264.607-1.287,1.544-1.3s1.422.147,1.422,1.269c0,2.829.057,2.88,2.821,2.869,1.069,0,1.322.381,1.324,1.374s-.25,1.373-1.32,1.367c-2.817-.016-2.884.037-2.823,2.705.029,1.239-.428,1.6-1.552,1.383" transform="translate(-13.318 -31.769)" fill="#29c4bb"/>
        <path id="Trazado_127054" data-name="Trazado 127054" d="M216.176,151.193c1.031-.2,1.6.144,1.432,1.311-.142.977.2,1.521,1.277,1.354s1.445.224,1.454,1.362c.009,1.193-.479,1.468-1.5,1.331-.971-.131-1.279.291-1.26,1.258.031,1.514-.907,2.1-2.371,1.636-.7-.217-.543-.772-.5-1.211.122-1.2-.151-1.929-1.564-1.69-1.093.186-1.16-.5-1.157-1.338s.035-1.517,1.145-1.346c1.195.184,1.761-.252,1.562-1.515-.189-1.206.584-1.259,1.476-1.153" transform="translate(-72.947 -37.404)" fill="#29c4bb"/>
        <path id="Trazado_127055" data-name="Trazado 127055" d="M215.738,71.78c.266,1.15-.26,1.544-1.338,1.362-1.168-.2-1.644.282-1.438,1.443.2,1.123-.286,1.392-1.374,1.4-1.123.01-1.545-.321-1.35-1.414.209-1.164-.277-1.643-1.432-1.426-1.2.225-1.3-.4-1.348-1.409-.053-1.183.406-1.491,1.436-1.311,1.12.2,1.537-.268,1.347-1.362-.182-1.046.156-1.47,1.321-1.428,1.028.037,1.621.182,1.4,1.36s.291,1.621,1.44,1.428c1.079-.181,1.6.205,1.336,1.355" transform="translate(-71.179 -24.093)" fill="#010000"/>
        <path id="Trazado_127056" data-name="Trazado 127056" d="M60.052,189.178c.252,1.073-.278,1.467-1.351,1.274-1.26-.228-1.558.428-1.377,1.489.2,1.18-.371,1.363-1.407,1.357-.991-.006-1.523-.23-1.315-1.3.273-1.4-.428-1.746-1.636-1.54-1.239.211-1.181-.571-1.186-1.42,0-.822.018-1.52,1.137-1.3,1.506.3,1.891-.425,1.687-1.773-.195-1.29.788-.919,1.445-.958.7-.042,1.47-.131,1.267.988-.25,1.384.235,2.025,1.7,1.744,1.222-.235,1.073.618,1.037,1.436" transform="translate(-24.861 -42.86)" fill="#010000"/>
        <path id="Trazado_127057" data-name="Trazado 127057" d="M121.826,19.9c-.288-1.225.389-1.463,1.391-1.315,1.042.155,1.451-.276,1.293-1.3s.146-1.492,1.326-1.467c1.084.022,1.58.3,1.392,1.416-.193,1.142.334,1.513,1.4,1.352.992-.148,1.489.089,1.494,1.3.006,1.241-.462,1.574-1.543,1.4-1.143-.182-1.53.338-1.353,1.4.2,1.2-.444,1.334-1.45,1.355-1.076.022-1.427-.382-1.269-1.37.173-1.082-.227-1.577-1.357-1.388-1.1.184-1.574-.269-1.327-1.389" transform="translate(-45.862 -15.817)" fill="#29c4bb"/>
      </g>
    </g>
    <g id="Grupo_157664" data-name="Grupo 157664" transform="translate(298 10939.999)">
      <g id="Grupo_157664-2" data-name="Grupo 157664" clip-path="url(#clip-path)">
        <path id="Trazado_130721" data-name="Trazado 130721" d="M25.173,123.173q-3.014-3.048-6.027-6.095c-1.215-1.225-1.219-1.221-.037-2.433.852-1.647,1.344-1.74,2.611-.485.992.983,1.984,1.965,2.958,2.964.418.427.769.474,1.208.026.641-.654,1.453-1.121,2.044-1.834,3.543-3.523,7.325-6.794,10.848-10.337.826-.83.858-.829-.171-1.31a55.439,55.439,0,0,1-12.061-7.56,48.928,48.928,0,0,1-7.119-7.1c-.47-.647-1.07-1.189-1.5-1.864s-.814-.529-1.332-.044c-3.033,2.837-6.1,5.638-9.037,8.577a18.3,18.3,0,0,1-1.465,1.236c-.642.518-.657.983-.048,1.574,1.521,1.474,3,2.988,4.5,4.486q3.222,3.224,6.443,6.446c1.257,1.265,1.154,1.823-.464,2.646-1.279,1.1-1.279,1.1-2.5-.121-4.5-4.5-8.983-9.014-13.51-13.486-.643-.635-.713-.944,0-1.606C5.233,92.475,9.9,88.028,14.6,83.632c.555-.518.681-.854.256-1.563C8.222,70.988,5.6,58.955,7.748,46.266,11.355,24.913,23.511,10.12,44.02,3.12,62.394-3.151,79.674.112,94.931,12.169c11.56,9.134,18.156,21.285,19.84,35.967a53,53,0,0,1-7.35,33.919c-.294.494-.424.813.1,1.3,4.944,4.615,9.853,9.266,14.777,13.9a1.746,1.746,0,0,0,.393.214v.24a5.571,5.571,0,0,1-1.023,1.312Q110.1,110.58,98.545,122.149a5.586,5.586,0,0,1-1.313,1.024h-.24a39.042,39.042,0,0,1-4.646-4.131c-4.431-4.216-8.906-8.384-13.338-12.6a1.6,1.6,0,0,0-1.763-.3,60.744,60.744,0,0,1-7.949,1.82c-.237.037-.471.088-.711.114-2.15.236-2.294.113-2.42-2.077-.124-1.849-.037-1.885,1.792-2.144a48.589,48.589,0,0,0,14.724-4.4,48.937,48.937,0,0,0,25.45-27.9,49.429,49.429,0,0,0,3-15.348A49.7,49.7,0,0,0,94.223,16.663,49.455,49.455,0,0,0,68.836,4.732,48.945,48.945,0,0,0,40.6,8.559a50.231,50.231,0,0,0-23.261,70.1A49.84,49.84,0,0,0,54.722,103.9c1.292.159,1.392.33,1.276,2.118a5.749,5.749,0,0,1-.039.718c-.183,1.35-.406,1.545-1.792,1.372a48.045,48.045,0,0,1-8.9-1.919,1.876,1.876,0,0,0-2.136.51c-4.656,4.441-9.36,8.831-14.026,13.262a20.183,20.183,0,0,1-3.693,3.216Z"/>
        <path id="Trazado_130722" data-name="Trazado 130722" d="M28.037,115.5c-.016.036-.023.083-.051.108-.882.809-1.7,2.156-2.667,2.263-.878.1-1.638-1.43-2.483-2.208-.353-.325-.681-.676-1.02-1.016-1.358-1.356-1.358-1.356-2.708,0q-1.292-1.29-2.587-2.577c1.262-1.453,1.262-1.453-.136-2.85Q11,103.838,5.626,98.452c-.319-.321-.94-.567-.259-1.2,4-3.733,7.972-7.5,12-11.295l2.213,2.88c-.628,1.321-1.881,2.067-2.838,3.086a20.437,20.437,0,0,1-2.195,2.2A41.311,41.311,0,0,1,11.528,97.2c-.7.636-.692,1.062-.01,1.736,5.346,5.291,10.645,10.629,15.974,15.937a1.947,1.947,0,0,1,.545.628" fill="#3d6de9"/>
        <path id="Trazado_130723" data-name="Trazado 130723" d="M16.285,31.389a44.954,44.954,0,0,1,9.289-12.856A49.041,49.041,0,0,1,53.657,4.381c13.906-2,26.7,1.086,37.835,9.7C105.6,25,112.515,39.6,111.333,57.439c-1.254,18.9-10.7,32.823-27.409,41.79a10.556,10.556,0,0,1-.986.412,42.164,42.164,0,0,1-12.4,3.035,53.356,53.356,0,0,1-19.015-1.461,22.034,22.034,0,0,1-5.4-1.913c-.174-.2-.1-.365.087-.507a2.734,2.734,0,0,1,1.865.194A46.545,46.545,0,0,0,102.5,75.659a45.364,45.364,0,0,0,5.168-24.335,45.155,45.155,0,0,0-10.135-26.2,38.57,38.57,0,0,0-5.605-5.9c-1.231-.994-1.189-1.046-2.315,0a1.094,1.094,0,0,1-.4.249c-1.028-.88-2.343-1.42-3.113-2.61.723-1.6.722-1.594-.849-2.553a44.38,44.38,0,0,0-19.9-6.517c-12.857-1-24.389,2.5-34.293,10.882a46.506,46.506,0,0,0-14.8,48.269,2.326,2.326,0,0,1,.169,1.519c-.121.192-.267.309-.5.16a3.5,3.5,0,0,1-.864-1.688,53.651,53.651,0,0,1-2.531-15.329A51.429,51.429,0,0,1,14.52,35.963c.475-1.567,1.14-3.063,1.765-4.574" fill="#f9ee92"/>
        <path id="Trazado_130724" data-name="Trazado 130724" d="M85.645,102.454a56.66,56.66,0,0,0,15.01-11.391,50.466,50.466,0,0,0,3.827-4.611c.334-.461.541-.539.994-.108q5.736,5.457,11.515,10.868c.322.3.538.522.1.952q-8.859,8.775-17.689,17.577a10.776,10.776,0,0,1-2.654-2.2c-1.741-1.65-3.554-3.228-5.23-4.942s-3.6-3.182-5.216-4.96c-.307-.337-.8-.591-.661-1.184" fill="#6e90ee"/>
        <path id="Trazado_130725" data-name="Trazado 130725" d="M28.037,115.5c-.5-.037-.749-.431-1.052-.735-5.316-5.305-10.615-10.626-15.956-15.9-.642-.635-.659-.967,0-1.578,1.168-1.079,2.235-2.265,3.345-3.407a18.716,18.716,0,0,1,1.687,1.669c.494.512.87.5,1.394.013,1.5-1.387,1.517-1.374.066-2.818a7.531,7.531,0,0,1-.991-1.021l3.052-2.887a55.189,55.189,0,0,0,20.66,15.237c-4.138,3.875-8.174,7.653-12.208,11.432" fill="#6e90ee"/>
        <path id="Trazado_130726" data-name="Trazado 130726" d="M46.09,99.127a50.657,50.657,0,0,0,14.246,3.3A51.895,51.895,0,0,0,82.23,99.715a2.991,2.991,0,0,1,.708-.073,42.134,42.134,0,0,1-10.887,3.816c-1.242.286-2.5.508-3.763.695-1.87.277-1.873.252-1.841,1.987a20.063,20.063,0,0,1-3.488.232c-.535-.412-.373-1.4-1.5-1.407a1.948,1.948,0,0,0-2.218,1.4l-3.522-.238c.049-1.737.049-1.737-1.725-1.96-20.343-2.558-37.839-18.77-42.076-38.917a50.392,50.392,0,0,1,3.621-32.509c.216-.464.493-.9.742-1.348-.618,2.052-1.3,4.088-1.839,6.159A47.071,47.071,0,0,0,12.9,47.779a53.232,53.232,0,0,0,2.632,19.4c.167.489.351.973.528,1.459.834.634.8,1.748,1.4,2.513.887,1.421,1.455,3,2.233,4.482A47.59,47.59,0,0,0,39.131,95.4a42.339,42.339,0,0,0,5.05,2.377,2.225,2.225,0,0,0,1.179.735,1.343,1.343,0,0,1,.73.612" fill="#f5e13d"/>
        <path id="Trazado_130727" data-name="Trazado 130727" d="M85.645,102.454c2.347,2.733,5.178,4.968,7.729,7.492,1.982,1.961,4.019,3.866,6.032,5.795-.015.037-.02.084-.047.11-.737.73-1.4,1.914-2.238,2.051-.769.126-1.486-1.151-2.206-1.826q-6.088-5.7-12.133-11.457c-.17-.161-.321-.342-.569-.609l3.432-1.556" fill="#3d6de9"/>
        <path id="Trazado_130728" data-name="Trazado 130728" d="M59.245,106.362a5.439,5.439,0,0,0,.053-.832c-.055-.648.154-.984.864-.882a5.809,5.809,0,0,0,.835.012c1.813,0,1.813,0,1.962,1.712-.067,1.908-.067,1.908-1.979,1.9-1.665-.007-1.665-.007-1.735-1.909" fill="#010101"/>
        <path id="Trazado_130729" data-name="Trazado 130729" d="M16.532,91.722c1.17.362,1.7,1.46,2.541,2.207.182.163.026.37-.117.514q-.921.93-1.85,1.853c-.187.186-.414.293-.613.054-.692-.835-1.765-1.345-2.117-2.472q1.078-1.077,2.156-2.156" fill="#fefefe"/>
        <path id="Trazado_130730" data-name="Trazado 130730" d="M86.282,17c.956.758,2.162,1.21,2.837,2.313a1.988,1.988,0,0,0,.775,2.111,43.5,43.5,0,0,1,11.025,50.647,43.366,43.366,0,0,1-21.094,21.6,4.44,4.44,0,0,1-1.584.529c-2.574.55-5.112,1.24-7.743,1.557A45.486,45.486,0,0,1,27.5,76.28a44.4,44.4,0,0,1-5.67-11.465c-.466-1.418-.228-1.7,1.235-1.77,1.668-.083,3.353.246,5-.213a8.169,8.169,0,0,0,2.362-1.393,5.015,5.015,0,0,0,.8-6.162,1.722,1.722,0,0,1-.055-1.978,5.053,5.053,0,0,0-3.715-7.686c-1.4-.1-2.787-.148-4.182-.152-1.252,0-1.364.113-1.367,1.376-.012,4.631,0,9.263-.011,13.895,0,.584.127,1.21-.335,1.713-.62-.115-.636-.67-.734-1.1a46.916,46.916,0,0,1-1.152-14.007,52.22,52.22,0,0,1,2.994-13.375A6.538,6.538,0,0,1,23.764,31.7C31.273,19.767,41.962,12.678,56,10.931a41.991,41.991,0,0,1,27.63,5.918c.943.571,1.725.853,2.655.149" fill="#e4ebf4"/>
        <path id="Trazado_130731" data-name="Trazado 130731" d="M86.282,17a4.068,4.068,0,0,0-.5.671c-.292.621-.615.5-1.1.187A41.586,41.586,0,0,0,57.4,11.083C42.123,12.6,30.694,20.255,23.05,33.567A.811.811,0,0,0,23,33.8,64.342,64.342,0,0,0,19.348,44.06c-3.223,14.364-.1,27.2,9.425,38.412A41.36,41.36,0,0,0,51.632,96.166a43.255,43.255,0,0,0,22.859-1c1.294-.4,2.569-.861,3.867-1.249a39.142,39.142,0,0,0,13.483-9.159c8.969-9.185,13.249-20.259,12.524-33.06a42.012,42.012,0,0,0-15-30.291c-.873-.759-1.13-1.274-.25-2.092,1.506-1.689,1.525-1.71,3.3-.075,11.018,10.146,16.305,22.737,15.559,37.672A46.9,46.9,0,0,1,46.98,99c-.189-.06-.389-.085-.583-.126-.266-.073-.554,0-.812-.127-.456-.3-1.077-.265-1.446-.732A46.921,46.921,0,0,1,26.962,86.384,49.609,49.609,0,0,1,19.4,75.777c-.79-1.45-1.257-3.039-2.127-4.441a17.594,17.594,0,0,1-.983-2.929,69.788,69.788,0,0,1-1.761-8.544,45.733,45.733,0,0,1,6.756-30.376A45.618,45.618,0,0,1,51.652,8.281a45.979,45.979,0,0,1,34.91,6.461c.638.4.85.736.3,1.353a6.3,6.3,0,0,0-.577.9"/>
        <path id="Trazado_130732" data-name="Trazado 130732" d="M16.289,68.407a11.389,11.389,0,0,1,.983,2.928,10.642,10.642,0,0,1-1.21-2.693l.227-.235" fill="#f8eb83"/>
        <path id="Trazado_130733" data-name="Trazado 130733" d="M45.709,98.638c.25.017.512,0,.688.234l-.308.255-.769-.437a.308.308,0,0,1,.389-.052" fill="#ede17f"/>
        <path id="Trazado_130734" data-name="Trazado 130734" d="M45.709,98.638l-.389.052c-.495-.05-1.007-.069-1.181-.677l1.57.625" fill="#e9de7f"/>
        <path id="Trazado_130735" data-name="Trazado 130735" d="M78.359,93.913A35.494,35.494,0,0,1,66.92,97.178C54.71,98.666,43.66,95.724,34.051,88A42.154,42.154,0,0,1,18.179,59.815a42.382,42.382,0,0,1,4.493-25.536A4.523,4.523,0,0,1,23,33.8c-.563,1.9-1.176,3.784-1.679,5.7a41.772,41.772,0,0,0-1.393,13.1A35.446,35.446,0,0,0,21.534,62.4c1.535.628,3.147.253,4.722.362.618.042,1.29-.143,1.8.4-1.557.519-3.158.157-4.737.222-1.609.066-1.623.02-1.1,1.533A45.309,45.309,0,0,0,30.644,79.8,44.756,44.756,0,0,0,54.212,94.452,42.046,42.046,0,0,0,66.867,95.76a43.576,43.576,0,0,0,10.556-1.73,1.879,1.879,0,0,1,.936-.117" fill="#c9d7ea"/>
        <path id="Trazado_130736" data-name="Trazado 130736" d="M79.2,56.214c0-3.315.027-6.63-.019-9.944-.012-.824.19-1.083,1.047-1.073,2.577.03,2.577-.01,2.577,2.528,0,4.8-.02,9.6.018,14.4.007.84-.146,1.094-1.077,1.189a3.635,3.635,0,0,1-4-2.133,89.619,89.619,0,0,0-5.781-8.668c0,3.1-.07,6.2.034,9.3.043,1.248-.325,1.542-1.515,1.485-2.122-.1-2.125-.027-2.125-2.149,0-4.96.019-9.92-.019-14.879-.007-.835.242-.989,1.055-1.087a3.365,3.365,0,0,1,3.706,1.986c1.829,3.123,3.9,6.1,5.877,9.139l.217-.089"/>
        <path id="Trazado_130737" data-name="Trazado 130737" d="M50.342,57.088c0-1.559-.029-3.118.006-4.676a7.191,7.191,0,0,1,14.379-.2c.122,3.432.033,6.872.037,10.309a.337.337,0,0,1,0,.119c-.562,1.37-1.71.351-2.555.6-.409.12-1.1.267-1.056-.639.037-.757-.018-1.519.015-2.277.023-.526-.189-.7-.7-.695q-2.937.024-5.875,0c-.439,0-.693.115-.652.6a3.155,3.155,0,0,1,0,.6c-.086.777.393,1.877-.207,2.265-.793.513-1.937.144-2.929.158-.654.009-.458-.536-.461-.888-.016-1.758-.007-3.517-.007-5.275Z"/>
        <path id="Trazado_130738" data-name="Trazado 130738" d="M86.4,54.268c0-2.681.024-5.362-.016-8.042-.011-.745.131-1.065.97-1.027,1.877.085,3.768-.046,5.636.113a9,9,0,0,1-.065,17.852c-1.911.143-3.839.048-5.757.113-.676.023-.784-.26-.779-.847.025-2.721.011-5.441.011-8.162"/>
        <path id="Trazado_130739" data-name="Trazado 130739" d="M28.056,63.162c-1.871.027-3.743.025-5.612.1-.678.026-.94-.214-.911-.855.015-5.354.049-10.708.023-16.063,0-.861.15-1.21,1.1-1.145,1.313.09,2.637.005,3.955.026,4.715.075,7.163,4.47,4.726,8.5-.2.335-.369.555-.074.929a5.428,5.428,0,0,1-3.2,8.512"/>
        <path id="Trazado_130740" data-name="Trazado 130740" d="M39.481,57.616c0,1.557-.025,3.114.012,4.67.016.675-.1.989-.9,1-2.723.04-2.723.075-2.723-2.65,0-4.763.022-9.526-.02-14.288-.008-.879.193-1.2,1.122-1.15,1.4.081,2.8,0,4.2.027a5.385,5.385,0,0,1,5.394,4.083,5.267,5.267,0,0,1-2.83,6.121c-.677.363-.578.645-.307,1.173.949,1.844,1.84,3.718,2.8,5.558.4.778.523,1.142-.633,1.129-3.339-.035-3.338.01-4.679-3.059-.392-.9-.794-1.791-1.191-2.686l-.245.072"/>
        <path id="Trazado_130741" data-name="Trazado 130741" d="M62.915,74.033c0,1.481-.02,2.963.01,4.443.011.539-.1.747-.708.774-2.911.129-2.91.152-2.91-2.781,0-2.2.038-4.4-.018-6.6-.022-.847.126-1.19,1.089-1.171,2.536.051,2.537,0,2.537,2.577v2.762" fill="#010101"/>
        <path id="Trazado_130742" data-name="Trazado 130742" d="M68.959,78.985c-.375.1-.546-.071-.611-.541-.424-3.087-.9-6.167-1.315-9.254-.137-1.009.852-.705,1.176-.668.8.091,2.059-1.007,2.314.173.665,3.077.962,6.233,1.426,9.354.072.484-.221.534-.543.584-.79.121-1.581.228-2.447.352"/>
        <path id="Trazado_130743" data-name="Trazado 130743" d="M50.593,77.666c.429-3.1.857-6.105,1.249-9.115.07-.542.3-.626.786-.59,2.9.209,2.912.2,2.543,3.043-.3,2.337-.665,4.666-.963,7-.079.622-.319.821-.932.7-.665-.134-1.343-.2-2.017-.286-.512-.063-.852-.239-.666-.752"/>
        <path id="Trazado_130744" data-name="Trazado 130744" d="M34.482,25.177l.836.9c.514.55,1.331,1.036,1.465,1.668.172.807-1.067.9-1.439,1.558-.581,1.027-1.113.81-1.833.047-1.584-1.679-1.623-1.645.071-3.325.277-.276.57-.536.9-.845" fill="#fefefe"/>
        <path id="Trazado_130745" data-name="Trazado 130745" d="M40.369,20.766c.29-.019.43.2.547.393a6.264,6.264,0,0,1,1.2,2.17c.123,1.135-1.278,1.189-1.878,1.866-.27.306-.647.519-.971,0-.085-.134-.163-.273-.249-.407-.444-.681-1.488-1.264-1.236-2.035.318-.972,1.57-1.245,2.378-1.875a1.433,1.433,0,0,1,.207-.116" fill="#fefefe"/>
        <path id="Trazado_130746" data-name="Trazado 130746" d="M57.507,56.026c-.919,0-1.838-.032-2.753.011-.607.029-.858-.138-.823-.789.052-.915,0-1.835.019-2.752a3.6,3.6,0,0,1,3.494-3.659A3.649,3.649,0,0,1,61.139,52.2c.436,3.827.436,3.827-3.632,3.827" fill="#e4ebf4"/>
        <path id="Trazado_130747" data-name="Trazado 130747" d="M90,54.179c0-1.519,0-3.038,0-4.557,0-.377-.121-.8.532-.834,2.21-.109,4.27.17,5.627,2.181a5.488,5.488,0,0,1,.38,5.9,5.641,5.641,0,0,1-6.112,2.805c-.561-.127-.422-.492-.424-.815C90,57.3,90,55.738,90,54.179" fill="#e4ebf4"/>
        <path id="Trazado_130748" data-name="Trazado 130748" d="M25.143,57.823c.258-.692-.611-1.966,1.144-1.824,1.544.125,2.447.7,2.437,1.851s-.9,1.7-2.464,1.8c-1.733.115-.85-1.152-1.117-1.83" fill="#e2e8f1"/>
        <path id="Trazado_130749" data-name="Trazado 130749" d="M25.179,50.541c.235-.588-.663-1.869,1.089-1.744,1.549.11,2.454.684,2.457,1.825s-.884,1.824-2.448,1.8c-1.289-.023-1.077.317-1.1-1.877" fill="#e2e8f1"/>
        <path id="Trazado_130750" data-name="Trazado 130750" d="M39.451,50.63c.191-.752-.54-1.968,1.176-1.837,1.6.121,2.486.637,2.521,1.782.037,1.181-.893,1.756-2.544,1.877-1.747.127-.922-1.126-1.153-1.822" fill="#e2e9f2"/>
      </g>
    </g>
  </g>
</svg>
