<svg id="_96" data-name="96" xmlns="http://www.w3.org/2000/svg" xmlns:xlink="http://www.w3.org/1999/xlink" width="52.765" height="52.773" viewBox="0 0 52.765 52.773">
  <defs>
    <clipPath id="clip-path">
      <rect id="Rectángulo_37666" data-name="Rectángulo 37666" width="52.765" height="52.773" fill="none"/>
    </clipPath>
  </defs>
  <g id="Grupo_157695" data-name="Grupo 157695" clip-path="url(#clip-path)">
    <path id="Trazado_130873" data-name="Trazado 130873" d="M52.764,94.008c0-.854-.294-1.141-1.162-1.142q-3.463,0-6.925,0c-1.448,0-1.559.108-1.592,1.542,0,.026-.034.051-.068.1l-.541-.345a13.814,13.814,0,0,0-14.852-.023,2.884,2.884,0,0,1-2.02.468c-1.939,0-3.878.043-5.816,0a4.88,4.88,0,0,0-3.6,1.319,4.517,4.517,0,0,0-.539,5.535c-3.07-1.525-6.044-3-9.015-4.481a5.359,5.359,0,0,0-1.711-.552A4.222,4.222,0,0,0,.2,99.313a4.112,4.112,0,0,0,2.294,5.008q5.218,2.611,10.435,5.225a8.463,8.463,0,0,0,3.858.911q17.394-.008,34.788,0c.9,0,1.193-.281,1.193-1.167q0-7.639,0-15.278m-10.2,14.7c-5.4-.016-10.793-.009-16.189-.011-1.024,0-2.048-.012-3.072-.018-2.362,0-4.725.024-7.087,0a5.65,5.65,0,0,1-2.465-.682q-5.192-2.6-10.387-5.2a2.411,2.411,0,0,1-1.374-3.285,2.645,2.645,0,0,1,3.553-1.089c1.927.925,3.832,1.894,5.746,2.844,1.293.642,2.587,1.282,3.877,1.93a2.033,2.033,0,0,0,.946.226q5.44-.011,10.88,0c.091,0,.183,0,.274,0a.879.879,0,0,0,.868-.883.857.857,0,0,0-.88-.866c-1.007-.019-2.015-.007-3.022-.007-1.594,0-3.187.006-4.781,0a2.639,2.639,0,1,1,.009-5.273c2.216-.006,4.433-.022,6.648.01a3.553,3.553,0,0,0,2.019-.528A12.959,12.959,0,0,1,33.1,93.9a11.723,11.723,0,0,1,8.8,2.02,8.117,8.117,0,0,1,1.017.734c.237.16.18.379.18.589,0,3.64-.006,7.28.012,10.921,0,.425-.1.539-.533.537m7.916,0c-1.7-.03-3.406-.023-5.109,0-.389,0-.537-.069-.536-.5q.026-6.538,0-13.075c0-.361.066-.514.473-.508q2.609.033,5.219,0c.4,0,.48.138.478.5-.015,2.179-.007,4.358-.007,6.537,0,2.161-.009,4.322.008,6.483,0,.4-.066.574-.53.566" transform="translate(0 -57.684)"/>
    <path id="Trazado_130874" data-name="Trazado 130874" d="M20.806,36.8c.368-.608.369-.608-.154-1.131q-3.024-3.025-6.045-6.054c-.153-.154-.412-.283-.355-.553l-.021-.021c-.821-.807-1.639-1.617-2.465-2.419-.165-.16-.2-.289-.009-.445a3.117,3.117,0,0,0,.234-.232Q23.872,14.062,35.745,2.178a1.277,1.277,0,0,1,1-.419c3.971.021,7.941.021,11.912.027.585-.006,1.171,0,1.756-.023.269-.01.342.092.339.348-.012.933-.013,1.867,0,2.8,0,.278-.066.416-.365.376a1.386,1.386,0,0,0-.329,0c-.713.076-1.346.045-1.679-.775-.142-.349-.552-.516-.858-.745a2.692,2.692,0,0,0-2.828.352c-1.268,1.027-1.3,2.621-.11,4.03l.028-.037a.789.789,0,0,1,.453.171,2.4,2.4,0,0,0,3.361-.8A1.191,1.191,0,0,1,49.6,6.9c1.288.019,1.288,0,1.288,1.292,0,2.472-.012,4.945.01,7.417a1.752,1.752,0,0,1-.566,1.356Q42.355,24.911,34.4,32.882c-.117.117-.227.24-.351.349-.278.244-.37.49-.064.784a.314.314,0,0,1,.113.344h0c.285.136.359.8.906.245q8.507-8.55,17.052-17.063a1.437,1.437,0,0,0,.456-1.12c-.021-1.227,0-2.455-.015-3.681-.005-.328.062-.442.415-.428.768.03,1.538.022,2.307,0a3.514,3.514,0,0,0-.025-7.026c-.769-.014-1.539-.019-2.308,0-.318.009-.392-.093-.388-.4.017-1.227.008-2.455.006-3.682,0-.933-.273-1.2-1.209-1.2C46.241.009,41.185.015,36.13,0A1.577,1.577,0,0,0,34.921.51Q22.439,13.011,9.943,25.5c-.72.72-.719,1.062,0,1.785L19.661,37c.565.565.565.565,1.131,0h0a.189.189,0,0,1,.014-.205M46.351,7.032a.838.838,0,0,1-.867-.772.825.825,0,0,1,.543-.908c.211-.095.336-.1.328.2-.014.487,0,.974,0,1.483m6.46.007c.8.014,1.61-.014,2.413.013a1.752,1.752,0,0,1,.043,3.5c-.821.036-1.645,0-2.468.017-.253.005-.3-.089-.3-.317.014-.493,0-.987,0-1.481,0-.475.013-.951-.005-1.426-.01-.246.075-.308.311-.3" transform="translate(-5.897 -0.001)"/>
    <path id="Trazado_130875" data-name="Trazado 130875" d="M29.2,85.594c.393-.28.386-.515.01-.839-.5-.427-.938-.919-1.4-1.385l-5.413-5.452c-.057.27.2.4.355.553q3.014,3.035,6.045,6.053c.522.523.522.523.154,1.131a.188.188,0,0,0-.014.2,2.1,2.1,0,0,1,.264-.266" transform="translate(-14.037 -48.861)"/>
    <path id="Trazado_130876" data-name="Trazado 130876" d="M74.647,45.606c-.306-.293-.214-.54.064-.784.123-.109.234-.232.351-.349Q83.026,36.51,91,28.552a1.752,1.752,0,0,0,.566-1.356c-.022-2.472-.01-4.945-.01-7.417,0-1.288,0-1.273-1.288-1.292a1.191,1.191,0,0,0-1.176.588,2.4,2.4,0,0,1-3.361.8.788.788,0,0,0-.453-.171l-.028.037,0,.007c1.443.972,2.991.87,3.823-.417a1.385,1.385,0,0,1,1.508-.7,1.264,1.264,0,0,0,.329,0c.422-.073.511.11.508.512q-.027,4.121,0,8.242a1.215,1.215,0,0,1-.4.955q-8.133,8.108-16.248,16.236c-.7.7-.7.7-.013,1.371a.313.313,0,0,0-.113-.344" transform="translate(-46.56 -11.593)"/>
    <path id="Trazado_130877" data-name="Trazado 130877" d="M24.284,6.17a5.12,5.12,0,0,1,3.729,3.725.852.852,0,0,0,.878.685.841.841,0,0,0,.839-.665A5.135,5.135,0,0,1,33.5,6.16a.84.84,0,0,0,.651-.783.9.9,0,0,0-.709-.932A5.119,5.119,0,0,1,29.746.753a.867.867,0,0,0-.86-.711.853.853,0,0,0-.874.69,5.123,5.123,0,0,1-3.734,3.721.843.843,0,0,0-.672.833.846.846,0,0,0,.678.883m2.7-1.061a6.054,6.054,0,0,0,1.692-1.693c.183-.275.273-.177.415.031A6.594,6.594,0,0,0,30.745,5.1c.142.1.364.175.066.374a6.6,6.6,0,0,0-1.773,1.767c-.039.057-.088.107-.123.15-.163-.009-.189-.136-.248-.219a6.633,6.633,0,0,0-1.661-1.651c-.217-.148-.286-.239-.021-.416" transform="translate(-14.803 -0.026)"/>
    <path id="Trazado_130878" data-name="Trazado 130878" d="M96.341,71.034c-1.019,1.02-1.014,1.014.026,1.986.184.172.285.205.478.011q3.077-3.1,6.173-6.176c.144-.144.23-.238.036-.428-.351-.344-.669-.721-1.012-1.1l-5.7,5.7" transform="translate(-59.937 -40.966)"/>
    <path id="Trazado_130879" data-name="Trazado 130879" d="M77.347,21.641a2.652,2.652,0,0,0-2.727-1.359,1.169,1.169,0,0,1-.986-.315,2.661,2.661,0,0,0-3.6-.008,1.179,1.179,0,0,1-.984.324,2.652,2.652,0,0,0-3.012,2.177.881.881,0,0,1-.484.619,2.652,2.652,0,0,0-1.205,3.557.9.9,0,0,1-.014.838,2.479,2.479,0,0,0,.95,3.309c.813.5.872,1.271,1.077,2.02l.028-.007a1.128,1.128,0,0,1,.451.3,2.714,2.714,0,0,0,2.236.689,1.024,1.024,0,0,1,.894.269A2.682,2.682,0,0,0,73.7,34.05a1.006,1.006,0,0,1,.842-.268,2.63,2.63,0,0,0,3.074-2.162,1.048,1.048,0,0,1,.571-.687,2.722,2.722,0,0,0,1.347-1.788,2.346,2.346,0,0,0-.18-1.6,1.087,1.087,0,0,1-.011-.992,2.59,2.59,0,0,0-1.085-3.373,1.114,1.114,0,0,1-.662-1.139c.013-.026.029-.049.043-.075-.156-.048-.213-.2-.289-.32m.574,3.512a.982.982,0,0,1-.4,1.15.857.857,0,0,0,.014,1.475.98.98,0,0,1,.4,1.105,1.079,1.079,0,0,1-1.019.779c-.794.08-1.041.414-.914,1.207a1.062,1.062,0,0,1-1.081,1.343,1.284,1.284,0,0,1-.679-.227.855.855,0,0,0-1.337.452,1.149,1.149,0,0,1-2.151.007.861.861,0,0,0-1.381-.434,1.154,1.154,0,0,1-1.334-.019,1.073,1.073,0,0,1-.372-1.222.837.837,0,0,0-.865-1.1,1.1,1.1,0,0,1-1.078-.776,1,1,0,0,1,.433-1.143.847.847,0,0,0-.013-1.439.986.986,0,0,1-.412-1.147,1.082,1.082,0,0,1,1.036-.755c.749-.065,1.026-.431.888-1.178a1.031,1.031,0,0,1,.4-1.161,1.142,1.142,0,0,1,1.288-.025c.688.377,1.109.241,1.447-.481a1.136,1.136,0,0,1,2.072-.009c.355.746.743.861,1.49.466a1.128,1.128,0,0,1,1.242.043A1.03,1.03,0,0,1,76,23.219c-.137.757.133,1.122.876,1.187a1.086,1.086,0,0,1,1.042.747" transform="translate(-40.168 -12.078)"/>
    <path id="Trazado_130880" data-name="Trazado 130880" d="M81.466,26.577a1.114,1.114,0,0,0,.662,1.139,2.591,2.591,0,0,1,1.086,3.373,1.088,1.088,0,0,0,.011.992,2.348,2.348,0,0,1,.18,1.6,2.723,2.723,0,0,1-1.347,1.788,1.047,1.047,0,0,0-.57.687,2.63,2.63,0,0,1-3.074,2.162,1.007,1.007,0,0,0-.842.268,2.682,2.682,0,0,1-3.732.008,1.024,1.024,0,0,0-.894-.269,2.713,2.713,0,0,1-2.236-.689,1.124,1.124,0,0,0-.45-.3l-.028.007c0,.015.007.031.012.046a3.009,3.009,0,0,0,2.784,1.085.684.684,0,0,1,.666.2,2.865,2.865,0,0,0,4.013,0,.683.683,0,0,1,.665-.2,2.818,2.818,0,0,0,3.269-2.359.6.6,0,0,1,.389-.464,2.73,2.73,0,0,0,1.263-3.765.641.641,0,0,1,.018-.653,2.683,2.683,0,0,0-.941-3.517,1.376,1.376,0,0,1-.818-1.2.25.25,0,0,1-.043-.016c-.013.026-.03.049-.042.075" transform="translate(-44.04 -16.619)"/>
    <path id="Trazado_130881" data-name="Trazado 130881" d="M74.129,19.922c-.26.037-.36-.087-.505-.22a2.888,2.888,0,0,0-4.06.008.636.636,0,0,1-.618.185,2.828,2.828,0,0,0-3.293,2.332.59.59,0,0,1-.367.479,2.734,2.734,0,0,0-1.278,3.8.513.513,0,0,1,.04.5,2.721,2.721,0,0,0,1.323,3.906.421.421,0,0,1,.268.368,2.987,2.987,0,0,0,.474,1.276l.011,0c-.2-.749-.264-1.524-1.077-2.02a2.479,2.479,0,0,1-.95-3.309.9.9,0,0,0,.014-.838,2.652,2.652,0,0,1,1.205-3.557.883.883,0,0,0,.484-.62,2.652,2.652,0,0,1,3.012-2.177,1.177,1.177,0,0,0,.984-.324,2.662,2.662,0,0,1,3.6.008,1.169,1.169,0,0,0,.986.315A2.65,2.65,0,0,1,77.112,21.4c.077.125.133.272.289.32.005-.01.012-.019.017-.029a2.863,2.863,0,0,0-3.29-1.767" transform="translate(-39.933 -11.835)"/>
    <path id="Trazado_130882" data-name="Trazado 130882" d="M70.2,55.58l.023.044c0-.016-.008-.031-.012-.046l-.012,0" transform="translate(-44.021 -34.851)"/>
    <path id="Trazado_130883" data-name="Trazado 130883" d="M100.472,26.453a.282.282,0,0,0,.042.016c-.008-.016-.017-.029-.025-.045l-.017.029" transform="translate(-63.004 -16.57)"/>
    <path id="Trazado_130884" data-name="Trazado 130884" d="M49.88,58.281c-.769-.759-1.536-1.519-2.29-2.292-.277-.285-.511-.318-.774-.006-.07.084-.156.156-.232.234-.441.449-.444.486-.011.923.593.6,1.193,1.189,1.783,1.79.145.148.348.27.334.522.278.006.42.232.588.4,1.1,1.093,2.206,2.183,3.288,3.3.305.314.51.3.8,0,.755-.786.718-.643.026-1.339-.875-.881-1.758-1.753-2.631-2.637-.151-.153-.368-.28-.345-.543l-.006-.006c-.26.019-.384-.188-.535-.337" transform="translate(-29.003 -34.967)"/>
    <path id="Trazado_130885" data-name="Trazado 130885" d="M54.869,63.982c.872.884,1.755,1.756,2.63,2.637.691.7.729.553-.026,1.338-.294.307-.5.318-.8,0-1.082-1.112-2.187-2.2-3.288-3.3-.169-.167-.31-.394-.588-.4,0,0,0,.008,0,.013q1.717,1.7,3.434,3.4c.882.877.867.866,1.771-.01.295-.285.3-.439,0-.73-1.175-1.15-2.32-2.33-3.477-3.5-.023.263.194.39.345.543" transform="translate(-33.105 -39.781)"/>
    <path id="Trazado_130886" data-name="Trazado 130886" d="M48.073,58.783c-.59-.6-1.191-1.191-1.783-1.789-.433-.437-.43-.474.011-.923.077-.078.161-.15.232-.233.263-.313.5-.279.775.006.753.774,1.521,1.534,2.289,2.292.151.149.275.356.535.337-.766-.753-1.535-1.5-2.3-2.261-.923-.916-.911-.911-1.839.018-.243.244-.279.384-.01.644.819.794,1.608,1.618,2.408,2.431h.013c.014-.252-.189-.374-.334-.522" transform="translate(-28.72 -34.821)"/>
    <path id="Trazado_130887" data-name="Trazado 130887" d="M52.758,65.655l.013.013s0-.008,0-.013h-.013" transform="translate(-33.083 -41.171)"/>
    <path id="Trazado_130888" data-name="Trazado 130888" d="M61.191,55.439c-.318-.311-.565-.351-.851,0-.068.084-.154.154-.229.232-.4.415-.394.446.007.88.186.2.474.34.483.67.282.008.425.237.6.407,1.13,1.121,2.264,2.239,3.373,3.381.321.331.563.348.839-.01a.849.849,0,0,1,.078-.078c.586-.583.586-.583-.013-1.182-.97-.971-1.943-1.938-2.908-2.914-.152-.154-.362-.285-.349-.543h0c-.492-.1-.711-.536-1.025-.843" transform="translate(-37.507 -34.609)"/>
    <path id="Trazado_130889" data-name="Trazado 130889" d="M63.89,58.666c.965.975,1.938,1.943,2.908,2.914.6.6.6.6.013,1.182a.8.8,0,0,0-.077.078c-.276.359-.518.341-.84.01-1.109-1.142-2.243-2.26-3.373-3.381-.171-.17-.314-.4-.6-.407,0,.005,0,.009,0,.015q1.772,1.754,3.543,3.507c.882.876.868.866,1.767-.006.286-.278.315-.43.012-.728-1.252-1.226-2.474-2.483-3.708-3.728-.013.258.2.39.349.543" transform="translate(-38.832 -36.448)"/>
    <path id="Trazado_130890" data-name="Trazado 130890" d="M59.825,56.4c-.4-.435-.409-.465-.007-.88.076-.078.162-.148.23-.232.286-.353.533-.313.851,0s.533.747,1.025.843c-.186-.173-.376-.34-.556-.519-.9-.894-.887-.885-1.8.011-.262.258-.326.423-.016.683a9.334,9.334,0,0,1,.741.765h.013c-.009-.33-.3-.468-.483-.67" transform="translate(-37.215 -34.453)"/>
    <path id="Trazado_130891" data-name="Trazado 130891" d="M61.89,60.639l.015.016c0-.005,0-.01,0-.015H61.89" transform="translate(-38.81 -38.025)"/>
    <path id="Trazado_130892" data-name="Trazado 130892" d="M30.645,69.206a6.115,6.115,0,0,1-.614.626.438.438,0,0,0-.027.735c.7.749.7.759,1.436.021q1.726-1.726,3.452-3.45a1.315,1.315,0,0,1,.6-.453l.009,0c-.007-.221.323-.373.151-.615a3.288,3.288,0,0,0-.772-.774c-.227-.162-.368.06-.5.2-1,.994-1.993,2-3,2.987-.161.16-.289.394-.575.367l-.012.013c.084.138-.069.249-.152.35" transform="translate(-18.698 -40.908)"/>
    <path id="Trazado_130893" data-name="Trazado 130893" d="M35.346,69.113l-.009,0a1.319,1.319,0,0,0-.6.454Q33,71.29,31.28,73.018c-.739.739-.734.729-1.436-.02a.438.438,0,0,1,.027-.735,6.153,6.153,0,0,0,.614-.626c.083-.1.236-.212.152-.351-.142.157-.279.32-.429.47-.867.872-.851.854-.019,1.731.321.339.492.313.807-.008,1.434-1.458,2.9-2.889,4.349-4.329a.178.178,0,0,1,0-.037" transform="translate(-18.537 -43.339)"/>
    <path id="Trazado_130894" data-name="Trazado 130894" d="M33.052,68.123c1-.992,2-1.993,3-2.987.136-.135.277-.357.5-.2a3.3,3.3,0,0,1,.773.774c.172.242-.158.394-.151.615l.039-.008c.458-.526.446-.547-.11-1.1a2.586,2.586,0,0,1-.306-.311c-.253-.356-.443-.269-.719.01-1.187,1.2-2.4,2.383-3.6,3.571.286.027.414-.207.575-.367" transform="translate(-20.366 -40.555)"/>
    <path id="Trazado_130895" data-name="Trazado 130895" d="M45.07,69.1a.178.178,0,0,0,0,.037l.039-.045-.039.008" transform="translate(-28.262 -43.326)"/>
    <path id="Trazado_130896" data-name="Trazado 130896" d="M42.632,73.206c.089-.089.171-.185.238-.258,0-.164-.1-.221-.176-.3-.216-.223-.457-.425-.653-.665-.241-.293-.411-.292-.685-.011-1.329,1.358-2.681,2.694-4.025,4.038-.927.927-.919.919.009,1.843.247.246.387.271.647.007,1.538-1.563,3.1-3.107,4.645-4.659" transform="translate(-22.976 -45.003)"/>
    <path id="Trazado_130897" data-name="Trazado 130897" d="M44.356,83.141c-.88.88-.882.882.015,1.758.113.11.2.266.4.3.1-.09.207-.185.309-.286l4.032-4.031c.9-.9.885-.885,0-1.806-.312-.323-.464-.235-.727.033C47.05,80.459,45.7,81.8,44.356,83.141" transform="translate(-27.402 -49.453)"/>
    <path id="Trazado_130898" data-name="Trazado 130898" d="M126.316,122.645a1.317,1.317,0,1,0,1.306,1.341,1.343,1.343,0,0,0-1.306-1.341" transform="translate(-78.377 -76.908)"/>
    <path id="Trazado_130899" data-name="Trazado 130899" d="M27.883,57.828c-.247-.305-.418-.271-.684,0-1.318,1.345-2.657,2.669-3.988,4-.977.977-.97.97.021,1.92.226.217.35.213.566-.005,1.569-1.585,3.15-3.158,4.726-4.736.076-.076.143-.161.23-.259-.082-.1-.145-.182-.219-.257-.217-.222-.459-.424-.653-.664" transform="translate(-14.099 -36.127)"/>
  </g>
</svg>
