<svg xmlns="http://www.w3.org/2000/svg" width="85.522" height="115.416" viewBox="0 0 85.522 115.416">
  <g id="Grupo_156347" data-name="Grupo 156347" transform="translate(-179.477 -6733)">
    <path id="Trazado_99257" data-name="Trazado 99257" d="M418.688,104.917a2.239,2.239,0,1,1-2.238-2.138A2.19,2.19,0,0,1,418.688,104.917Z" transform="translate(-234.736 6630.222)" fill="#1169e3"/>
    <path id="Trazado_116526" data-name="Trazado 116526" d="M418.688,104.917a2.239,2.239,0,1,1-2.238-2.138A2.19,2.19,0,0,1,418.688,104.917Z" transform="translate(-184.082 6630.222)" fill="#1169e3"/>
    <path id="Trazado_99258" data-name="Trazado 99258" d="M427.134,104.917a2.239,2.239,0,1,1-2.236-2.138A2.189,2.189,0,0,1,427.134,104.917Z" transform="translate(-233.053 6630.222)" fill="#1169e3"/>
    <path id="Trazado_116527" data-name="Trazado 116527" d="M427.134,104.917a2.239,2.239,0,1,1-2.236-2.138A2.189,2.189,0,0,1,427.134,104.917Z" transform="translate(-182.396 6630.222)" fill="#1169e3"/>
    <path id="Trazado_99259" data-name="Trazado 99259" d="M435.58,104.917a2.239,2.239,0,1,1-2.236-2.138A2.189,2.189,0,0,1,435.58,104.917Z" transform="translate(-231.367 6630.222)" fill="#1169e3"/>
    <path id="Trazado_116531" data-name="Trazado 116531" d="M435.58,104.917a2.239,2.239,0,1,1-2.236-2.138A2.189,2.189,0,0,1,435.58,104.917Z" transform="translate(-180.711 6630.222)" fill="#1169e3"/>
    <path id="Trazado_99260" data-name="Trazado 99260" d="M444.027,104.917a2.239,2.239,0,1,1-2.238-2.138A2.19,2.19,0,0,1,444.027,104.917Z" transform="translate(-229.684 6630.222)" fill="#1169e3"/>
    <path id="Trazado_116532" data-name="Trazado 116532" d="M444.027,104.917a2.239,2.239,0,1,1-2.238-2.138A2.19,2.19,0,0,1,444.027,104.917Z" transform="translate(-179.027 6630.222)" fill="#1169e3"/>
    <path id="Trazado_99261" data-name="Trazado 99261" d="M452.473,104.917a2.239,2.239,0,1,1-2.236-2.138A2.189,2.189,0,0,1,452.473,104.917Z" transform="translate(-227.998 6630.222)" fill="#1169e3"/>
    <ellipse id="Elipse_3975" data-name="Elipse 3975" cx="2.237" cy="2.139" rx="2.237" ry="2.139" transform="translate(179.477 6744.114)" fill="#1169e3"/>
    <ellipse id="Elipse_4742" data-name="Elipse 4742" cx="2.237" cy="2.139" rx="2.237" ry="2.139" transform="translate(230.133 6744.114)" fill="#1169e3"/>
    <path id="Trazado_99268" data-name="Trazado 99268" d="M427.134,112.425a2.239,2.239,0,1,1-2.236-2.138A2.19,2.19,0,0,1,427.134,112.425Z" transform="translate(-233.053 6633.826)" fill="#1169e3"/>
    <path id="Trazado_116528" data-name="Trazado 116528" d="M427.134,112.425a2.239,2.239,0,1,1-2.236-2.138A2.19,2.19,0,0,1,427.134,112.425Z" transform="translate(-182.396 6633.826)" fill="#1169e3"/>
    <ellipse id="Elipse_3976" data-name="Elipse 3976" cx="2.237" cy="2.139" rx="2.237" ry="2.139" transform="translate(199.739 6744.114)" fill="#1169e3"/>
    <ellipse id="Elipse_4743" data-name="Elipse 4743" cx="2.237" cy="2.139" rx="2.237" ry="2.139" transform="translate(250.395 6744.114)" fill="#1169e3"/>
    <path id="Trazado_99269" data-name="Trazado 99269" d="M444.027,112.425a2.239,2.239,0,1,1-2.238-2.138A2.191,2.191,0,0,1,444.027,112.425Z" transform="translate(-229.684 6633.826)" fill="#1169e3"/>
    <path id="Trazado_116533" data-name="Trazado 116533" d="M444.027,112.425a2.239,2.239,0,1,1-2.238-2.138A2.191,2.191,0,0,1,444.027,112.425Z" transform="translate(-179.027 6633.826)" fill="#1169e3"/>
    <path id="Trazado_99270" data-name="Trazado 99270" d="M452.473,112.425a2.239,2.239,0,1,1-2.236-2.138A2.19,2.19,0,0,1,452.473,112.425Z" transform="translate(-227.998 6633.826)" fill="#1169e3"/>
    <path id="Trazado_99274" data-name="Trazado 99274" d="M418.688,119.934a2.239,2.239,0,1,1-2.238-2.14A2.191,2.191,0,0,1,418.688,119.934Z" transform="translate(-234.736 6637.433)" fill="#1169e3"/>
    <path id="Trazado_116550" data-name="Trazado 116550" d="M418.688,119.934a2.239,2.239,0,1,1-2.238-2.14A2.191,2.191,0,0,1,418.688,119.934Z" transform="translate(-234.736 6670.775)" fill="#1169e3"/>
    <path id="Trazado_116529" data-name="Trazado 116529" d="M418.688,119.934a2.239,2.239,0,1,1-2.238-2.14A2.191,2.191,0,0,1,418.688,119.934Z" transform="translate(-184.082 6637.433)" fill="#1169e3"/>
    <path id="Trazado_116551" data-name="Trazado 116551" d="M418.688,119.934a2.239,2.239,0,1,1-2.238-2.14A2.191,2.191,0,0,1,418.688,119.934Z" transform="translate(-184.082 6670.775)" fill="#1169e3"/>
    <path id="Trazado_99275" data-name="Trazado 99275" d="M427.134,119.934a2.239,2.239,0,1,1-2.236-2.14A2.19,2.19,0,0,1,427.134,119.934Z" transform="translate(-233.053 6637.433)" fill="#1169e3"/>
    <path id="Trazado_116552" data-name="Trazado 116552" d="M427.134,119.934a2.239,2.239,0,1,1-2.236-2.14A2.19,2.19,0,0,1,427.134,119.934Z" transform="translate(-233.053 6670.775)" fill="#1169e3"/>
    <path id="Trazado_116530" data-name="Trazado 116530" d="M427.134,119.934a2.239,2.239,0,1,1-2.236-2.14A2.19,2.19,0,0,1,427.134,119.934Z" transform="translate(-182.396 6637.433)" fill="#1169e3"/>
    <path id="Trazado_116553" data-name="Trazado 116553" d="M427.134,119.934a2.239,2.239,0,1,1-2.236-2.14A2.19,2.19,0,0,1,427.134,119.934Z" transform="translate(-182.396 6670.775)" fill="#1169e3"/>
    <path id="Trazado_99276" data-name="Trazado 99276" d="M435.58,119.934a2.239,2.239,0,1,1-2.236-2.14A2.191,2.191,0,0,1,435.58,119.934Z" transform="translate(-231.367 6637.433)" fill="#1169e3"/>
    <path id="Trazado_116554" data-name="Trazado 116554" d="M435.58,119.934a2.239,2.239,0,1,1-2.236-2.14A2.191,2.191,0,0,1,435.58,119.934Z" transform="translate(-231.367 6670.775)" fill="#1169e3"/>
    <path id="Trazado_116534" data-name="Trazado 116534" d="M435.58,119.934a2.239,2.239,0,1,1-2.236-2.14A2.191,2.191,0,0,1,435.58,119.934Z" transform="translate(-180.711 6637.433)" fill="#1169e3"/>
    <path id="Trazado_116555" data-name="Trazado 116555" d="M435.58,119.934a2.239,2.239,0,1,1-2.236-2.14A2.191,2.191,0,0,1,435.58,119.934Z" transform="translate(-180.711 6670.775)" fill="#1169e3"/>
    <path id="Trazado_99277" data-name="Trazado 99277" d="M444.027,119.934a2.239,2.239,0,1,1-2.238-2.14A2.191,2.191,0,0,1,444.027,119.934Z" transform="translate(-229.684 6637.433)" fill="#1169e3"/>
    <path id="Trazado_116556" data-name="Trazado 116556" d="M444.027,119.934a2.239,2.239,0,1,1-2.238-2.14A2.191,2.191,0,0,1,444.027,119.934Z" transform="translate(-229.684 6670.775)" fill="#1169e3"/>
    <path id="Trazado_116535" data-name="Trazado 116535" d="M444.027,119.934a2.239,2.239,0,1,1-2.238-2.14A2.191,2.191,0,0,1,444.027,119.934Z" transform="translate(-179.027 6637.433)" fill="#1169e3"/>
    <path id="Trazado_116557" data-name="Trazado 116557" d="M444.027,119.934a2.239,2.239,0,1,1-2.238-2.14A2.191,2.191,0,0,1,444.027,119.934Z" transform="translate(-179.027 6670.775)" fill="#1169e3"/>
    <path id="Trazado_99278" data-name="Trazado 99278" d="M452.473,119.934a2.239,2.239,0,1,1-2.236-2.14A2.19,2.19,0,0,1,452.473,119.934Z" transform="translate(-227.998 6637.433)" fill="#1169e3"/>
    <path id="Trazado_116558" data-name="Trazado 116558" d="M452.473,119.934a2.239,2.239,0,1,1-2.236-2.14A2.19,2.19,0,0,1,452.473,119.934Z" transform="translate(-227.998 6670.775)" fill="#1169e3"/>
    <ellipse id="Elipse_3980" data-name="Elipse 3980" cx="2.237" cy="2.139" rx="2.237" ry="2.139" transform="translate(179.477 6766.344)" fill="#1169e3"/>
    <ellipse id="Elipse_4754" data-name="Elipse 4754" cx="2.237" cy="2.139" rx="2.237" ry="2.139" transform="translate(179.477 6799.686)" fill="#1169e3"/>
    <ellipse id="Elipse_4744" data-name="Elipse 4744" cx="2.237" cy="2.139" rx="2.237" ry="2.139" transform="translate(230.133 6766.344)" fill="#1169e3"/>
    <ellipse id="Elipse_4750" data-name="Elipse 4750" cx="2.237" cy="2.139" rx="2.237" ry="2.139" transform="translate(230.133 6799.686)" fill="#1169e3"/>
    <path id="Trazado_99285" data-name="Trazado 99285" d="M427.134,127.442a2.239,2.239,0,1,1-2.236-2.14A2.189,2.189,0,0,1,427.134,127.442Z" transform="translate(-233.053 6641.04)" fill="#1169e3"/>
    <path id="Trazado_116548" data-name="Trazado 116548" d="M427.134,127.442a2.239,2.239,0,1,1-2.236-2.14A2.189,2.189,0,0,1,427.134,127.442Z" transform="translate(-233.053 6674.382)" fill="#1169e3"/>
    <path id="Trazado_116536" data-name="Trazado 116536" d="M427.134,127.442a2.239,2.239,0,1,1-2.236-2.14A2.189,2.189,0,0,1,427.134,127.442Z" transform="translate(-182.396 6641.04)" fill="#1169e3"/>
    <path id="Trazado_116542" data-name="Trazado 116542" d="M427.134,127.442a2.239,2.239,0,1,1-2.236-2.14A2.189,2.189,0,0,1,427.134,127.442Z" transform="translate(-182.396 6674.382)" fill="#1169e3"/>
    <ellipse id="Elipse_3981" data-name="Elipse 3981" cx="2.237" cy="2.139" rx="2.237" ry="2.139" transform="translate(199.739 6766.344)" fill="#1169e3"/>
    <ellipse id="Elipse_4751" data-name="Elipse 4751" cx="2.237" cy="2.139" rx="2.237" ry="2.139" transform="translate(199.739 6799.686)" fill="#1169e3"/>
    <ellipse id="Elipse_4745" data-name="Elipse 4745" cx="2.237" cy="2.139" rx="2.237" ry="2.139" transform="translate(250.395 6766.344)" fill="#1169e3"/>
    <ellipse id="Elipse_4752" data-name="Elipse 4752" cx="2.237" cy="2.139" rx="2.237" ry="2.139" transform="translate(250.395 6799.686)" fill="#1169e3"/>
    <path id="Trazado_99286" data-name="Trazado 99286" d="M444.027,127.442a2.239,2.239,0,1,1-2.238-2.14A2.189,2.189,0,0,1,444.027,127.442Z" transform="translate(-229.684 6641.04)" fill="#1169e3"/>
    <path id="Trazado_116543" data-name="Trazado 116543" d="M444.027,127.442a2.239,2.239,0,1,1-2.238-2.14A2.189,2.189,0,0,1,444.027,127.442Z" transform="translate(-229.684 6674.382)" fill="#1169e3"/>
    <path id="Trazado_116537" data-name="Trazado 116537" d="M444.027,127.442a2.239,2.239,0,1,1-2.238-2.14A2.189,2.189,0,0,1,444.027,127.442Z" transform="translate(-179.027 6641.04)" fill="#1169e3"/>
    <path id="Trazado_116544" data-name="Trazado 116544" d="M444.027,127.442a2.239,2.239,0,1,1-2.238-2.14A2.189,2.189,0,0,1,444.027,127.442Z" transform="translate(-179.027 6674.382)" fill="#1169e3"/>
    <path id="Trazado_99287" data-name="Trazado 99287" d="M452.473,127.442a2.239,2.239,0,1,1-2.236-2.14A2.189,2.189,0,0,1,452.473,127.442Z" transform="translate(-227.998 6641.04)" fill="#1169e3"/>
    <path id="Trazado_116545" data-name="Trazado 116545" d="M452.473,127.442a2.239,2.239,0,1,1-2.236-2.14A2.189,2.189,0,0,1,452.473,127.442Z" transform="translate(-227.998 6674.382)" fill="#1169e3"/>
    <ellipse id="Elipse_3985" data-name="Elipse 3985" cx="2.237" cy="2.139" rx="2.237" ry="2.139" transform="translate(179.477 6777.457)" fill="#1169e3"/>
    <ellipse id="Elipse_4755" data-name="Elipse 4755" cx="2.237" cy="2.139" rx="2.237" ry="2.139" transform="translate(179.477 6810.799)" fill="#1169e3"/>
    <ellipse id="Elipse_4774" data-name="Elipse 4774" cx="2.237" cy="2.139" rx="2.237" ry="2.139" transform="translate(179.477 6833.025)" fill="#1169e3"/>
    <ellipse id="Elipse_4756" data-name="Elipse 4756" cx="2.237" cy="2.139" rx="2.237" ry="2.139" transform="translate(179.477 6821.912)" fill="#1169e3"/>
    <ellipse id="Elipse_4773" data-name="Elipse 4773" cx="2.237" cy="2.139" rx="2.237" ry="2.139" transform="translate(179.477 6844.138)" fill="#1169e3"/>
    <ellipse id="Elipse_4746" data-name="Elipse 4746" cx="2.237" cy="2.139" rx="2.237" ry="2.139" transform="translate(230.133 6777.457)" fill="#1169e3"/>
    <ellipse id="Elipse_4748" data-name="Elipse 4748" cx="2.237" cy="2.139" rx="2.237" ry="2.139" transform="translate(230.133 6810.799)" fill="#1169e3"/>
    <ellipse id="Elipse_4775" data-name="Elipse 4775" cx="2.237" cy="2.139" rx="2.237" ry="2.139" transform="translate(230.133 6833.025)" fill="#1169e3"/>
    <ellipse id="Elipse_4757" data-name="Elipse 4757" cx="2.237" cy="2.139" rx="2.237" ry="2.139" transform="translate(230.133 6821.912)" fill="#1169e3"/>
    <ellipse id="Elipse_4770" data-name="Elipse 4770" cx="2.237" cy="2.139" rx="2.237" ry="2.139" transform="translate(230.133 6844.138)" fill="#1169e3"/>
    <path id="Trazado_99291" data-name="Trazado 99291" d="M427.134,134.95a2.239,2.239,0,1,1-2.236-2.14A2.189,2.189,0,0,1,427.134,134.95Z" transform="translate(-233.053 6644.647)" fill="#1169e3"/>
    <path id="Trazado_116549" data-name="Trazado 116549" d="M427.134,134.95a2.239,2.239,0,1,1-2.236-2.14A2.189,2.189,0,0,1,427.134,134.95Z" transform="translate(-233.053 6677.989)" fill="#1169e3"/>
    <path id="Trazado_121306" data-name="Trazado 121306" d="M427.134,134.95a2.239,2.239,0,1,1-2.236-2.14A2.189,2.189,0,0,1,427.134,134.95Z" transform="translate(-233.053 6700.215)" fill="#1169e3"/>
    <path id="Trazado_116559" data-name="Trazado 116559" d="M427.134,134.95a2.239,2.239,0,1,1-2.236-2.14A2.189,2.189,0,0,1,427.134,134.95Z" transform="translate(-233.053 6689.102)" fill="#1169e3"/>
    <path id="Trazado_121305" data-name="Trazado 121305" d="M427.134,134.95a2.239,2.239,0,1,1-2.236-2.14A2.189,2.189,0,0,1,427.134,134.95Z" transform="translate(-233.053 6711.328)" fill="#1169e3"/>
    <path id="Trazado_116538" data-name="Trazado 116538" d="M427.134,134.95a2.239,2.239,0,1,1-2.236-2.14A2.189,2.189,0,0,1,427.134,134.95Z" transform="translate(-182.396 6644.647)" fill="#1169e3"/>
    <path id="Trazado_116540" data-name="Trazado 116540" d="M427.134,134.95a2.239,2.239,0,1,1-2.236-2.14A2.189,2.189,0,0,1,427.134,134.95Z" transform="translate(-182.396 6677.989)" fill="#1169e3"/>
    <path id="Trazado_121307" data-name="Trazado 121307" d="M427.134,134.95a2.239,2.239,0,1,1-2.236-2.14A2.189,2.189,0,0,1,427.134,134.95Z" transform="translate(-182.396 6700.215)" fill="#1169e3"/>
    <path id="Trazado_116560" data-name="Trazado 116560" d="M427.134,134.95a2.239,2.239,0,1,1-2.236-2.14A2.189,2.189,0,0,1,427.134,134.95Z" transform="translate(-182.396 6689.102)" fill="#1169e3"/>
    <path id="Trazado_121301" data-name="Trazado 121301" d="M427.134,134.95a2.239,2.239,0,1,1-2.236-2.14A2.189,2.189,0,0,1,427.134,134.95Z" transform="translate(-182.396 6711.328)" fill="#1169e3"/>
    <ellipse id="Elipse_3986" data-name="Elipse 3986" cx="2.237" cy="2.139" rx="2.237" ry="2.139" transform="translate(199.739 6777.457)" fill="#1169e3"/>
    <ellipse id="Elipse_4753" data-name="Elipse 4753" cx="2.237" cy="2.139" rx="2.237" ry="2.139" transform="translate(199.739 6810.799)" fill="#1169e3"/>
    <ellipse id="Elipse_4776" data-name="Elipse 4776" cx="2.237" cy="2.139" rx="2.237" ry="2.139" transform="translate(199.739 6833.025)" fill="#1169e3"/>
    <ellipse id="Elipse_4758" data-name="Elipse 4758" cx="2.237" cy="2.139" rx="2.237" ry="2.139" transform="translate(199.739 6821.912)" fill="#1169e3"/>
    <ellipse id="Elipse_4771" data-name="Elipse 4771" cx="2.237" cy="2.139" rx="2.237" ry="2.139" transform="translate(199.739 6844.138)" fill="#1169e3"/>
    <ellipse id="Elipse_4747" data-name="Elipse 4747" cx="2.237" cy="2.139" rx="2.237" ry="2.139" transform="translate(250.395 6777.457)" fill="#1169e3"/>
    <ellipse id="Elipse_4749" data-name="Elipse 4749" cx="2.237" cy="2.139" rx="2.237" ry="2.139" transform="translate(250.395 6810.799)" fill="#1169e3"/>
    <ellipse id="Elipse_4777" data-name="Elipse 4777" cx="2.237" cy="2.139" rx="2.237" ry="2.139" transform="translate(250.395 6833.025)" fill="#1169e3"/>
    <ellipse id="Elipse_4759" data-name="Elipse 4759" cx="2.237" cy="2.139" rx="2.237" ry="2.139" transform="translate(250.395 6821.912)" fill="#1169e3"/>
    <ellipse id="Elipse_4772" data-name="Elipse 4772" cx="2.237" cy="2.139" rx="2.237" ry="2.139" transform="translate(250.395 6844.138)" fill="#1169e3"/>
    <path id="Trazado_99292" data-name="Trazado 99292" d="M444.027,134.95a2.239,2.239,0,1,1-2.238-2.14A2.189,2.189,0,0,1,444.027,134.95Z" transform="translate(-229.684 6644.647)" fill="#1169e3"/>
    <path id="Trazado_116546" data-name="Trazado 116546" d="M444.027,134.95a2.239,2.239,0,1,1-2.238-2.14A2.189,2.189,0,0,1,444.027,134.95Z" transform="translate(-229.684 6677.989)" fill="#1169e3"/>
    <path id="Trazado_121308" data-name="Trazado 121308" d="M444.027,134.95a2.239,2.239,0,1,1-2.238-2.14A2.189,2.189,0,0,1,444.027,134.95Z" transform="translate(-229.684 6700.215)" fill="#1169e3"/>
    <path id="Trazado_116561" data-name="Trazado 116561" d="M444.027,134.95a2.239,2.239,0,1,1-2.238-2.14A2.189,2.189,0,0,1,444.027,134.95Z" transform="translate(-229.684 6689.102)" fill="#1169e3"/>
    <path id="Trazado_121302" data-name="Trazado 121302" d="M444.027,134.95a2.239,2.239,0,1,1-2.238-2.14A2.189,2.189,0,0,1,444.027,134.95Z" transform="translate(-229.684 6711.328)" fill="#1169e3"/>
    <path id="Trazado_116539" data-name="Trazado 116539" d="M444.027,134.95a2.239,2.239,0,1,1-2.238-2.14A2.189,2.189,0,0,1,444.027,134.95Z" transform="translate(-179.027 6644.647)" fill="#1169e3"/>
    <path id="Trazado_116541" data-name="Trazado 116541" d="M444.027,134.95a2.239,2.239,0,1,1-2.238-2.14A2.189,2.189,0,0,1,444.027,134.95Z" transform="translate(-179.027 6677.989)" fill="#1169e3"/>
    <path id="Trazado_121309" data-name="Trazado 121309" d="M444.027,134.95a2.239,2.239,0,1,1-2.238-2.14A2.189,2.189,0,0,1,444.027,134.95Z" transform="translate(-179.027 6700.215)" fill="#1169e3"/>
    <path id="Trazado_116562" data-name="Trazado 116562" d="M444.027,134.95a2.239,2.239,0,1,1-2.238-2.14A2.189,2.189,0,0,1,444.027,134.95Z" transform="translate(-179.027 6689.102)" fill="#1169e3"/>
    <path id="Trazado_121303" data-name="Trazado 121303" d="M444.027,134.95a2.239,2.239,0,1,1-2.238-2.14A2.189,2.189,0,0,1,444.027,134.95Z" transform="translate(-179.027 6711.328)" fill="#1169e3"/>
    <path id="Trazado_99293" data-name="Trazado 99293" d="M452.473,134.95a2.239,2.239,0,1,1-2.236-2.14A2.189,2.189,0,0,1,452.473,134.95Z" transform="translate(-227.998 6644.647)" fill="#1169e3"/>
    <path id="Trazado_116547" data-name="Trazado 116547" d="M452.473,134.95a2.239,2.239,0,1,1-2.236-2.14A2.189,2.189,0,0,1,452.473,134.95Z" transform="translate(-227.998 6677.989)" fill="#1169e3"/>
    <path id="Trazado_121310" data-name="Trazado 121310" d="M452.473,134.95a2.239,2.239,0,1,1-2.236-2.14A2.189,2.189,0,0,1,452.473,134.95Z" transform="translate(-227.998 6700.215)" fill="#1169e3"/>
    <path id="Trazado_116563" data-name="Trazado 116563" d="M452.473,134.95a2.239,2.239,0,1,1-2.236-2.14A2.189,2.189,0,0,1,452.473,134.95Z" transform="translate(-227.998 6689.102)" fill="#1169e3"/>
    <path id="Trazado_121304" data-name="Trazado 121304" d="M452.473,134.95a2.239,2.239,0,1,1-2.236-2.14A2.189,2.189,0,0,1,452.473,134.95Z" transform="translate(-227.998 6711.328)" fill="#1169e3"/>
  </g>
</svg>
