<svg xmlns="http://www.w3.org/2000/svg" xmlns:xlink="http://www.w3.org/1999/xlink" width="70" height="85" viewBox="0 0 70 85">
  <defs>
    <clipPath id="clip-path">
      <rect id="Rect치ngulo_37631" data-name="Rect치ngulo 37631" width="43.548" height="53.311" fill="none"/>
    </clipPath>
  </defs>
  <g id="_105" data-name="105" transform="translate(-301 -1551.193)">
    <g id="Grupo_156382" data-name="Grupo 156382" transform="translate(-239 -155.807)">
      <rect id="Rect치ngulo_36766" data-name="Rect치ngulo 36766" width="70" height="85" rx="12" transform="translate(540 1707)" fill="#0c487b"/>
    </g>
    <g id="Grupo_156899" data-name="Grupo 156899" transform="translate(301.089 1528.999)">
      <path id="Trazado_126894" data-name="Trazado 126894" d="M17.182,127.264c-.8.178-.987-.2-.979-.947.02-1.875-.011-1.908-1.952-1.9-.722,0-.946-.22-.932-.934.013-.666.135-.975.9-.972,1.946.007,2-.032,1.975-1.974-.009-.879.422-.9,1.073-.9s.989.1.989.883c0,1.967.04,2,1.962,1.995.743,0,.919.265.921.955s-.174.955-.918.951c-1.959-.011-2.006.025-1.963,1.881.02.861-.3,1.113-1.079.962" transform="translate(-8.318 -57.79)" fill="#29c4bb"/>
      <path id="Trazado_126895" data-name="Trazado 126895" d="M214.9,151.177c.717-.137,1.114.1,1,.912-.1.679.136,1.058.888.941s1,.155,1.011.947c.006.83-.333,1.021-1.04.926-.675-.091-.89.2-.876.875.021,1.053-.63,1.457-1.649,1.138-.483-.151-.378-.537-.347-.842.085-.832-.105-1.341-1.087-1.175-.76.129-.807-.347-.8-.931s.025-1.055.8-.936c.831.128,1.224-.175,1.086-1.053-.132-.839.406-.875,1.026-.8" transform="translate(-153.33 -78.505)" fill="#29c4bb"/>
      <path id="Trazado_126896" data-name="Trazado 126896" d="M213.215,70.517c.185.8-.181,1.073-.931.947-.812-.137-1.144.2-1,1,.139.781-.2.968-.956.975-.781.007-1.075-.223-.939-.983.145-.809-.192-1.143-1-.992-.833.156-.906-.279-.937-.98-.037-.822.282-1.037,1-.912.779.136,1.069-.186.937-.947-.127-.728.108-1.022.919-.993.715.025,1.127.127.975.946s.2,1.127,1,.993c.751-.126,1.116.143.929.943" transform="translate(-158.216 -16.577)" fill="#010000"/>
      <path id="Trazado_126897" data-name="Trazado 126897" d="M57.532,187.9c.175.746-.193,1.02-.939.886-.876-.158-1.083.3-.957,1.035.139.821-.258.948-.979.943-.689,0-1.059-.16-.914-.9.19-.975-.3-1.214-1.138-1.071-.862.147-.822-.4-.825-.987,0-.572.012-1.057.791-.9,1.047.207,1.315-.3,1.173-1.233-.136-.9.548-.639,1-.666.483-.029,1.022-.091.881.687-.174.962.163,1.408,1.181,1.213.85-.163.746.43.721,1" transform="translate(-17.924 -94.219)" fill="#010000"/>
      <path id="Trazado_126898" data-name="Trazado 126898" d="M121.806,18.657c-.2-.852.271-1.017.967-.914.724.107,1.009-.192.9-.905s.1-1.037.922-1.02c.754.015,1.1.211.968.985-.134.794.232,1.052.977.94.69-.1,1.035.062,1.039.9,0,.863-.321,1.095-1.073.975-.795-.127-1.064.235-.941.977.138.832-.308.928-1.008.942-.748.015-.992-.266-.882-.952.12-.753-.158-1.1-.943-.965-.767.128-1.094-.187-.923-.966" transform="translate(-106.064 17.184)" fill="#29c4bb"/>
    </g>
    <g id="Grupo_157593" data-name="Grupo 157593" transform="translate(314 1567.194)">
      <g id="Grupo_157593-2" data-name="Grupo 157593" clip-path="url(#clip-path)">
        <path id="Trazado_130326" data-name="Trazado 130326" d="M43.548,28.882q0,10.5,0,20.99A3.146,3.146,0,0,1,40.1,53.311H4.334A4.022,4.022,0,0,1,0,48.991q0-1.25,0-2.5c0-.9.289-1.177,1.2-1.179a7.023,7.023,0,0,1,.943.008c.461.062.527-.139.526-.548Q2.66,26.255,2.667,7.736a3.113,3.113,0,0,1,2.59-3.249,4.269,4.269,0,0,1,.774-.045c4.314,0,8.627-.012,12.941.012.494,0,.622-.118.59-.6a3.557,3.557,0,1,1,7.1-.289c.013.877.013.877.9.877H40.171a3.13,3.13,0,0,1,3.376,3.4q0,10.523,0,21.046" transform="translate(0 0)"/>
        <path id="Trazado_130327" data-name="Trazado 130327" d="M54.988,50.261q0,9.716,0,19.432a2.188,2.188,0,0,1-1.209,2.089,2.091,2.091,0,0,1-2.3-.17,2.123,2.123,0,0,1-.93-1.8c-.009-.944,0-1.888,0-2.832,0-.87-.3-1.165-1.163-1.166q-11.994,0-23.988.01c-.484,0-.636-.092-.635-.614q.026-17.183,0-34.366c0-.514.151-.588.611-.584,2.351.024,4.7.016,7.052,0a.637.637,0,0,1,.688.375,2.526,2.526,0,0,0,2.348,1.4q4.415.019,8.829,0a2.556,2.556,0,0,0,2.386-1.438.562.562,0,0,1,.6-.341c2.406.011,4.812.017,7.219,0,.415,0,.513.1.512.512q-.022,9.743-.01,19.487" transform="translate(-16.772 -20.502)" fill="#e9e8e3"/>
        <path id="Trazado_130328" data-name="Trazado 130328" d="M36.388,150.42H8a2.258,2.258,0,0,1-2.5-2.5c0-.518.02-1.037-.007-1.554-.017-.325.1-.433.406-.388a1.544,1.544,0,0,0,.222,0q14.495,0,28.989-.013c.522,0,.681.148.612.636a5.574,5.574,0,0,0-.006.61,5.077,5.077,0,0,0,.678,3.21" transform="translate(-3.717 -98.886)" fill="#cccbc7"/>
        <path id="Trazado_130329" data-name="Trazado 130329" d="M102.756,64.593a5.039,5.039,0,0,0,.685-2.963q-.014-19.625-.006-39.25c0-1.093-.235-1.326-1.337-1.326-2.628,0-5.256-.008-7.885.008-.406,0-.578-.06-.567-.53.029-1.255,0-1.256,1.276-1.256h8.607c1.209,0,1.684.471,1.684,1.673q0,20.957,0,41.915c0,1.278-.454,1.729-1.739,1.729h-.716" transform="translate(-63.442 -13.059)" fill="#c6820b"/>
        <path id="Trazado_130330" data-name="Trazado 130330" d="M13.779,39.311q0-9.187,0-18.373c0-1.207.471-1.678,1.677-1.678,3.109,0,6.218.007,9.327-.009.413,0,.573.074.562.534-.029,1.25,0,1.251-1.28,1.251H16.792c-.975,0-1.236.265-1.236,1.259q0,17.707.014,35.414c0,.541-.133.68-.666.659-1.124-.044-1.125-.013-1.125-1.129V39.311" transform="translate(-9.335 -13.042)" fill="#c6820b"/>
        <path id="Trazado_130331" data-name="Trazado 130331" d="M60.421,19.258c1.629,0,3.259.012,4.887-.009.364,0,.47.093.454.456-.03.7,0,1.407-.011,2.11a.9.9,0,0,1-1,.995q-4.332.01-8.664,0a.894.894,0,0,1-1-.993c-.01-.7.018-1.408-.011-2.11-.015-.36.086-.462.453-.457,1.629.021,3.258.009,4.887.009" transform="translate(-37.315 -13.04)" fill="#e9e8e3"/>
        <path id="Trazado_130332" data-name="Trazado 130332" d="M67.717,8.168c-.48,0-.96,0-1.44,0-.112,0-.244.059-.31-.133A2.122,2.122,0,0,1,67.1,5.624a1.79,1.79,0,0,1,2.423,1.522c.085,1.022.085,1.022-.916,1.022h-.886" transform="translate(-44.638 -3.728)" fill="#e9e8e3"/>
        <path id="Trazado_130333" data-name="Trazado 130333" d="M43.643,57.308H31.484a1.286,1.286,0,0,1-.7-.112.839.839,0,0,1-.443-.983.856.856,0,0,1,.9-.681c1,0,2-.03,3,.011.46.019.547-.141.528-.553-.032-.665-.015-1.332-.007-2a.906.906,0,0,1,1.033-1.014q1.638-.01,3.276,0a.906.906,0,0,1,1.02,1.028c.008.722.016,1.444-.005,2.165-.009.3.089.361.373.367,1.412.031,1.412.04,1.412-1.375q0-4.052,0-8.1c0-.907.284-1.189,1.193-1.19q1.5,0,3,0c.835,0,1.14.3,1.14,1.132,0,3,.009,6-.009,8.993,0,.416.079.562.531.55,1.255-.032,1.256-.009,1.256-1.258q0-5.884,0-11.769c0-.914.282-1.2,1.18-1.2,1.018,0,2.036,0,3.054,0,.788,0,1.1.316,1.1,1.119,0,4.182.01,8.364-.012,12.546,0,.472.121.609.576.56a8.307,8.307,0,0,1,1.165-.006.887.887,0,1,1-.008,1.77c-1.591.011-3.183,0-4.775,0H43.643" transform="translate(-20.532 -27.988)"/>
        <path id="Trazado_130334" data-name="Trazado 130334" d="M30.313,102.632a6.221,6.221,0,1,1,6.256,6.224,6.228,6.228,0,0,1-6.256-6.224" transform="translate(-20.536 -65.32)"/>
        <path id="Trazado_130335" data-name="Trazado 130335" d="M85.25,123.963q2.107,0,4.214,0c.7,0,1.106.323,1.113.877s-.4.9-1.092.9q-4.241,0-8.483,0c-.684,0-1.1-.351-1.085-.905.011-.535.409-.867,1.064-.869,1.423,0,2.846,0,4.269,0" transform="translate(-54.141 -83.98)"/>
        <path id="Trazado_130336" data-name="Trazado 130336" d="M84.356,114.719c-1.127,0-2.254,0-3.381,0-.652,0-1.051-.339-1.059-.875s.392-.9,1.034-.9q3.408-.007,6.817,0c.64,0,1.041.363,1.032.9s-.409.87-1.062.873c-1.127,0-2.254,0-3.381,0" transform="translate(-54.141 -76.514)"/>
        <path id="Trazado_130337" data-name="Trazado 130337" d="M34.283,54.109c-.979,0-1.958,0-2.937,0-.638,0-1.04-.366-1.029-.9a.9.9,0,0,1,1.008-.869q2.992-.009,5.984,0a.9.9,0,0,1,1,.875c.007.539-.394.894-1.036.9-1,.006-1.995,0-2.992,0" transform="translate(-20.539 -35.452)"/>
        <path id="Trazado_130338" data-name="Trazado 130338" d="M83.466,101.922c.85,0,1.7-.006,2.548,0a.9.9,0,0,1,1.007.869c.011.538-.392.9-1.029.9q-2.521.008-5.041,0c-.641,0-1.042-.36-1.035-.9s.406-.872,1.056-.876c.831-.005,1.662,0,2.493,0" transform="translate(-54.141 -69.047)"/>
        <path id="Trazado_130339" data-name="Trazado 130339" d="M32.985,41.309c.572,0,1.144-.011,1.716,0a.886.886,0,1,1,.02,1.769q-1.743.021-3.487,0a.879.879,0,0,1-.916-.9.891.891,0,0,1,.951-.867c.572-.013,1.144,0,1.716,0" transform="translate(-20.539 -27.983)"/>
        <path id="Trazado_130340" data-name="Trazado 130340" d="M32.98,63.351c.553,0,1.107-.006,1.661,0a.9.9,0,0,1,1.005.871.892.892,0,0,1-.973.9q-1.688.015-3.377,0a.892.892,0,1,1,.023-1.772c.553-.008,1.107,0,1.661,0" transform="translate(-20.54 -42.917)"/>
        <path id="Trazado_130341" data-name="Trazado 130341" d="M93.669,52.968c0-1.9.01-3.808-.008-5.712,0-.363.095-.459.457-.458,1.329,0,1.329-.01,1.329,1.3,0,3.549-.008,7.1.01,10.648,0,.415-.1.523-.515.515-1.273-.023-1.273,0-1.273-1.3V52.968" transform="translate(-63.452 -31.704)" fill="#5ebdf6"/>
        <path id="Trazado_130342" data-name="Trazado 130342" d="M73.4,62.261c0,1.333-.015,2.666.009,4,.006.376-.117.453-.468.453-1.319,0-1.319.011-1.319-1.314,0-2.351.008-4.7-.008-7.052,0-.378.039-.55.494-.541,1.29.026,1.291,0,1.291,1.291v3.165" transform="translate(-48.519 -39.16)" fill="#ed9c0d"/>
        <path id="Trazado_130343" data-name="Trazado 130343" d="M51.377,80.73c0,.933,0,.933-.955.933-.822,0-.822,0-.822-.844,0-.933,0-.933.955-.933.822,0,.822,0,.822.844" transform="translate(-33.602 -54.12)" fill="#f9a5b1"/>
        <path id="Trazado_130344" data-name="Trazado 130344" d="M39.372,102.337c0,1.332,0,2.658-.005,3.984a.891.891,0,0,1-.117.362c-.516,1.041-1.038,2.079-1.556,3.119-.095.19-.157.383-.414.135a4.37,4.37,0,0,1-1.308-4.442,4.289,4.289,0,0,1,3.4-3.158" transform="translate(-24.265 -69.33)" fill="#5ebdf6"/>
        <path id="Trazado_130345" data-name="Trazado 130345" d="M46.061,121.821c.536-1.071,1.056-2.085,1.549-3.112.124-.257.3-.274.533-.273,1,.006,1.993.016,2.989,0,.365-.008.43.069.322.43a4.441,4.441,0,0,1-5.392,2.96" transform="translate(-31.205 -80.233)" fill="#ed9c0d"/>
        <path id="Trazado_130346" data-name="Trazado 130346" d="M53.85,105.748c-.471-.055-1.225.252-1.545-.114-.277-.318-.078-1.054-.083-1.6,0-.48.01-.96-.005-1.44-.009-.27.085-.309.324-.233a4.469,4.469,0,0,1,3.072,3.071c.075.236.043.334-.23.325-.48-.016-.96,0-1.533,0" transform="translate(-35.335 -69.32)" fill="#f9a5b1"/>
      </g>
    </g>
  </g>
</svg>
