<svg xmlns="http://www.w3.org/2000/svg" xmlns:xlink="http://www.w3.org/1999/xlink" width="70" height="85" viewBox="0 0 70 85">
  <defs>
    <clipPath id="clip-path">
      <rect id="Rect치ngulo_37632" data-name="Rect치ngulo 37632" width="46.741" height="46.715" fill="none"/>
    </clipPath>
  </defs>
  <g id="_107" data-name="107" transform="translate(-301 -1551.193)">
    <g id="Grupo_156382" data-name="Grupo 156382" transform="translate(-239 -155.807)">
      <rect id="Rect치ngulo_36766" data-name="Rect치ngulo 36766" width="70" height="85" rx="12" transform="translate(540 1707)" fill="#0c487b"/>
    </g>
    <g id="Grupo_156899" data-name="Grupo 156899" transform="translate(301.089 1528.999)">
      <path id="Trazado_126894" data-name="Trazado 126894" d="M17.182,127.264c-.8.178-.987-.2-.979-.947.02-1.875-.011-1.908-1.952-1.9-.722,0-.946-.22-.932-.934.013-.666.135-.975.9-.972,1.946.007,2-.032,1.975-1.974-.009-.879.422-.9,1.073-.9s.989.1.989.883c0,1.967.04,2,1.962,1.995.743,0,.919.265.921.955s-.174.955-.918.951c-1.959-.011-2.006.025-1.963,1.881.02.861-.3,1.113-1.079.962" transform="translate(-8.318 -57.79)" fill="#29c4bb"/>
      <path id="Trazado_126895" data-name="Trazado 126895" d="M214.9,151.177c.717-.137,1.114.1,1,.912-.1.679.136,1.058.888.941s1,.155,1.011.947c.006.83-.333,1.021-1.04.926-.675-.091-.89.2-.876.875.021,1.053-.63,1.457-1.649,1.138-.483-.151-.378-.537-.347-.842.085-.832-.105-1.341-1.087-1.175-.76.129-.807-.347-.8-.931s.025-1.055.8-.936c.831.128,1.224-.175,1.086-1.053-.132-.839.406-.875,1.026-.8" transform="translate(-153.33 -78.505)" fill="#29c4bb"/>
      <path id="Trazado_126896" data-name="Trazado 126896" d="M213.215,70.517c.185.8-.181,1.073-.931.947-.812-.137-1.144.2-1,1,.139.781-.2.968-.956.975-.781.007-1.075-.223-.939-.983.145-.809-.192-1.143-1-.992-.833.156-.906-.279-.937-.98-.037-.822.282-1.037,1-.912.779.136,1.069-.186.937-.947-.127-.728.108-1.022.919-.993.715.025,1.127.127.975.946s.2,1.127,1,.993c.751-.126,1.116.143.929.943" transform="translate(-158.216 -16.577)" fill="#010000"/>
      <path id="Trazado_126897" data-name="Trazado 126897" d="M57.532,187.9c.175.746-.193,1.02-.939.886-.876-.158-1.083.3-.957,1.035.139.821-.258.948-.979.943-.689,0-1.059-.16-.914-.9.19-.975-.3-1.214-1.138-1.071-.862.147-.822-.4-.825-.987,0-.572.012-1.057.791-.9,1.047.207,1.315-.3,1.173-1.233-.136-.9.548-.639,1-.666.483-.029,1.022-.091.881.687-.174.962.163,1.408,1.181,1.213.85-.163.746.43.721,1" transform="translate(-17.924 -94.219)" fill="#010000"/>
      <path id="Trazado_126898" data-name="Trazado 126898" d="M121.806,18.657c-.2-.852.271-1.017.967-.914.724.107,1.009-.192.9-.905s.1-1.037.922-1.02c.754.015,1.1.211.968.985-.134.794.232,1.052.977.94.69-.1,1.035.062,1.039.9,0,.863-.321,1.095-1.073.975-.795-.127-1.064.235-.941.977.138.832-.308.928-1.008.942-.748.015-.992-.266-.882-.952.12-.753-.158-1.1-.943-.965-.767.128-1.094-.187-.923-.966" transform="translate(-106.064 17.184)" fill="#29c4bb"/>
    </g>
    <g id="Grupo_157594" data-name="Grupo 157594" transform="translate(313 1570.193)">
      <g id="Grupo_157594-2" data-name="Grupo 157594" clip-path="url(#clip-path)">
        <path id="Trazado_130347" data-name="Trazado 130347" d="M18.1,5.269q8.8,0,17.608.005c.319,0,.469-.022.5-.427a5.261,5.261,0,1,1,6.337,5.565c-.272.062-.345.142-.345.413q.013,7.061,0,14.123a.62.62,0,0,0,.243.513c3.683,3.314,5.11,7.43,3.858,12.218a11.533,11.533,0,0,1-9.23,8.765,12.03,12.03,0,0,1-14.273-9.828c-.023-.155-.057-.309-.075-.464-.088-.75-.087-.75-.823-.75q-10.687,0-21.374.012c-.445,0-.519-.131-.519-.538Q.019,20.328,0,5.782c0-.438.122-.523.535-.522q8.78.021,17.561.009" transform="translate(0 0)"/>
        <path id="Trazado_130348" data-name="Trazado 130348" d="M44.676,42.1a12.092,12.092,0,0,0-15.068,2.485c0-.664.012-1.248,0-1.831-.013-.5.214-1.159-.094-1.438-.27-.244-.924-.07-1.408-.072-.894,0-1.789.009-2.683-.007-.265,0-.339.069-.338.336q.014,4.189,0,8.379c0,.267.072.352.338.336.375-.022.753.006,1.129-.01.223-.01.273.079.23.274-.024.107-.038.216-.061.323-.064.289.082.714-.14.847a2.051,2.051,0,0,1-.96.065q-9.793,0-19.585.01c-.4,0-.545-.06-.544-.515q.024-13.064,0-26.127c0-.435.128-.495.518-.494q16.949.016,33.9,0c.35,0,.53.074.636.426a3.058,3.058,0,0,0,.445.874.41.41,0,0,1-.058.652c-1.369,1.339-2.717,2.7-4.064,4.058a.445.445,0,0,1-.565.14,1.744,1.744,0,0,0-1.334,0,.429.429,0,0,1-.561-.151c-.157-.175-.326-.34-.5-.5-.438-.414-.826-.748-.578-1.527a2.016,2.016,0,0,0-1.135-2.181,2.209,2.209,0,0,0-2.472.212,2.1,2.1,0,0,0-.765,2.349.615.615,0,0,1-.2.722q-1.58,1.548-3.13,3.128a.612.612,0,0,1-.724.189,2.173,2.173,0,0,0-2.458.925,2.257,2.257,0,1,0,4.143,1.087.348.348,0,0,0-.013-.139c-.347-.607.042-.951.435-1.331.958-.928,1.9-1.877,2.832-2.827.19-.192.34-.309.638-.182a1.743,1.743,0,0,0,1.334-.016.368.368,0,0,1,.486.115,5.289,5.289,0,0,0,.466.465c.482.438.889.812.652,1.636a2,2,0,0,0,1.166,2.163,2.16,2.16,0,0,0,2.43-.214A2.122,2.122,0,0,0,37.8,32.4a.642.642,0,0,1,.217-.759q2.012-1.983,4-3.994c.2-.2.331-.234.573-.059a4.492,4.492,0,0,0,1.81.743c.212.04.287.094.286.317-.006,4.47,0,8.94,0,13.46" transform="translate(-3.982 -17.896)" fill="#e5e8ec"/>
        <path id="Trazado_130349" data-name="Trazado 130349" d="M103.619,148.695a10.665,10.665,0,0,1-8.528-4.264c-.259-.333-.195-.463.148-.643.638-.333,1.264-.693,1.872-1.079.289-.184.406-.085.594.14a7.49,7.49,0,0,0,11.674.018c.226-.274.371-.316.671-.125.621.394,1.263.756,1.91,1.107.251.136.308.232.119.483a10.466,10.466,0,0,1-7.249,4.258c-.419.055-.843.074-1.21.105" transform="translate(-68.884 -103.482)" fill="#fbd670"/>
        <path id="Trazado_130350" data-name="Trazado 130350" d="M97.681,89.588c0,.376-.017.754.005,1.129.017.279-.082.365-.357.411a7.342,7.342,0,0,0-5.843,4.553,7.121,7.121,0,0,0-.05,5.628c.108.274.083.4-.18.541-.661.356-1.316.729-1.951,1.13-.3.192-.394.1-.524-.189A10.538,10.538,0,0,1,97.268,88.1c.316-.035.451.006.42.362-.033.373-.007.752-.007,1.129" transform="translate(-63.767 -63.917)" fill="#b3dc7e"/>
        <path id="Trazado_130351" data-name="Trazado 130351" d="M138.863,98.742a10.647,10.647,0,0,1-.894,4.045c-.125.29-.221.381-.522.193-.637-.4-1.29-.773-1.951-1.13-.259-.14-.3-.257-.187-.537a7.483,7.483,0,0,0-3.281-9.3,6.814,6.814,0,0,0-2.6-.888c-.275-.033-.37-.124-.363-.406.019-.768.022-1.537,0-2.305-.009-.307.082-.345.369-.324a10.577,10.577,0,0,1,9.049,7.664,11.031,11.031,0,0,1,.384,2.986" transform="translate(-93.647 -63.918)" fill="#fe816e"/>
        <path id="Trazado_130352" data-name="Trazado 130352" d="M116.431,110.328a6.027,6.027,0,1,1-6.017-6.013,6.043,6.043,0,0,1,6.017,6.013" transform="translate(-75.738 -75.693)" fill="#cbd0d8"/>
        <path id="Trazado_130353" data-name="Trazado 130353" d="M141.061,13.01a3.766,3.766,0,1,1,3.8-3.746,3.781,3.781,0,0,1-3.8,3.746" transform="translate(-99.647 -3.975)" fill="#fe816e"/>
        <path id="Trazado_130354" data-name="Trazado 130354" d="M82.376,93.566c0-.892.01-1.784-.006-2.676,0-.264.07-.336.336-.341,1.177-.017,1.176-.027,1.176,1.138a6.893,6.893,0,0,0,.007.985,6.593,6.593,0,0,1-.83,3.72c-.13.289-.329.172-.506.185-.275.021-.172-.208-.174-.335-.009-.892,0-1.784,0-2.676" transform="translate(-59.763 -65.701)" fill="#fbd670"/>
        <path id="Trazado_130355" data-name="Trazado 130355" d="M97.647,36.414a.753.753,0,1,1-.759-.733.767.767,0,0,1,.759.733" transform="translate(-69.762 -25.891)" fill="#fb806c"/>
        <path id="Trazado_130356" data-name="Trazado 130356" d="M113.332,53.656a.753.753,0,1,1,.788-.7.767.767,0,0,1-.788.7" transform="translate(-81.715 -37.841)" fill="#fb806c"/>
        <path id="Trazado_130357" data-name="Trazado 130357" d="M72.182,61.893a.753.753,0,1,1,.756-.738.765.765,0,0,1-.756.738" transform="translate(-51.833 -43.819)" fill="#fb806c"/>
        <path id="Trazado_130358" data-name="Trazado 130358" d="M59.455,80.167c0,1.867-.007,3.734.007,5.6,0,.306-.077.39-.385.386q-1.882-.027-3.765,0c-.31,0-.385-.081-.384-.387q.016-5.648,0-11.3c0-.306.077-.39.385-.386q1.883.027,3.765,0c.31,0,.387.081.384.387-.014,1.9-.007,3.8-.007,5.695" transform="translate(-39.857 -53.757)"/>
        <path id="Trazado_130359" data-name="Trazado 130359" d="M11.006,94.337c0-1.145.008-2.29-.006-3.435,0-.264.068-.341.336-.338q1.929.021,3.859,0c.266,0,.339.07.337.337q-.016,3.435,0,6.871c0,.264-.068.341-.336.338q-1.929-.021-3.859,0c-.266,0-.341-.07-.338-.337.015-1.145.006-2.29.006-3.435" transform="translate(-7.981 -65.714)"/>
        <path id="Trazado_130360" data-name="Trazado 130360" d="M32.972,99.075c0-.894.01-1.788-.006-2.682,0-.265.069-.341.336-.338q1.929.021,3.859,0c.265,0,.339.07.337.337q-.017,2.682,0,5.364c0,.265-.069.341-.336.338q-1.929-.021-3.859,0c-.266,0-.342-.07-.338-.337.016-.894.006-1.788.006-2.682" transform="translate(-23.92 -69.699)"/>
        <path id="Trazado_130361" data-name="Trazado 130361" d="M27.228,31.667c-1.616,0-3.232-.011-4.847.009-.337,0-.41-.09-.406-.414.015-1.1,0-1.1,1.122-1.1,3,0,5.993.008,8.989-.01.376,0,.461.1.454.462-.022,1.054-.006,1.054-1.075,1.054H27.228" transform="translate(-15.945 -21.878)"/>
        <path id="Trazado_130362" data-name="Trazado 130362" d="M27.217,42.655c-1.616,0-3.232-.006-4.848.006-.286,0-.4-.044-.4-.373.008-1.14-.007-1.14,1.132-1.14,3,0,5.993.005,8.989-.007.329,0,.456.046.448.421-.025,1.092,0,1.093-1.086,1.093Z" transform="translate(-15.942 -29.852)"/>
        <path id="Trazado_130363" data-name="Trazado 130363" d="M27.237,53.636c-1.631,0-3.263-.007-4.894.007-.279,0-.37-.053-.37-.355,0-1.158-.013-1.158,1.16-1.158,3,0,5.993.005,8.989-.008.32,0,.422.063.417.4-.016,1.111,0,1.111-1.113,1.111H27.237" transform="translate(-15.944 -37.82)"/>
        <path id="Trazado_130364" data-name="Trazado 130364" d="M27.293,63.114c1.616,0,3.232.007,4.848-.007.3,0,.4.059.393.378-.007,1.135.007,1.135-1.136,1.135-3,0-5.993-.006-8.989.008-.339,0-.449-.061-.442-.427.023-1.087,0-1.088,1.09-1.088h4.236" transform="translate(-15.939 -45.792)"/>
        <path id="Trazado_130365" data-name="Trazado 130365" d="M12.53,30.962c0,.731,0,.731-.729.731-.778,0-.778,0-.778-.776,0-.731,0-.731.729-.731.778,0,.778,0,.778.776" transform="translate(-7.998 -21.903)"/>
        <path id="Trazado_130366" data-name="Trazado 130366" d="M11.822,41.168c.708,0,.708,0,.708.7,0,.8,0,.8-.8.8-.708,0-.708,0-.708-.7,0-.8,0-.8.8-.8" transform="translate(-7.998 -29.872)"/>
        <path id="Trazado_130367" data-name="Trazado 130367" d="M11.739,53.657c-.716,0-.716,0-.716-.744,0-.763,0-.763.744-.763.763,0,.763,0,.763.744,0,.763,0,.763-.791.763" transform="translate(-7.998 -37.841)"/>
        <path id="Trazado_130368" data-name="Trazado 130368" d="M12.53,63.908c0,.731,0,.731-.729.731-.778,0-.778,0-.778-.776,0-.731,0-.731.729-.731.778,0,.778,0,.778.776" transform="translate(-7.998 -45.81)"/>
        <path id="Trazado_130369" data-name="Trazado 130369" d="M114.376,118.846a4.519,4.519,0,1,1,4.533-4.506,4.536,4.536,0,0,1-4.533,4.506" transform="translate(-79.723 -79.678)"/>
        <path id="Trazado_130370" data-name="Trazado 130370" d="M61.93,84.1c0,1.379-.009,2.759.007,4.138,0,.3-.067.394-.382.392-1.132-.005-1.132.008-1.132-1.141,0-2.492.007-4.985-.009-7.477,0-.344.069-.448.431-.441,1.084.021,1.084,0,1.084,1.1V84.1" transform="translate(-43.838 -57.735)" fill="#fbd670"/>
        <path id="Trazado_130371" data-name="Trazado 130371" d="M18,98.352c0,.611-.014,1.222.006,1.832.009.289-.049.4-.375.4-1.138-.006-1.138.009-1.138-1.133,0-1,.01-2-.006-3.007,0-.289.049-.4.375-.4C18,96.05,18,96.035,18,97.177v1.175" transform="translate(-11.966 -69.691)" fill="#fbd670"/>
        <path id="Trazado_130372" data-name="Trazado 130372" d="M38.362,103c0-.141-.008-.282,0-.423.023-.353-.16-.89.075-1.018.327-.179.817-.056,1.236-.071.182-.007.2.1.2.237,0,.845,0,1.69,0,2.535,0,.177-.051.232-.235.249-1.275.12-1.275.125-1.275-1.133V103" transform="translate(-27.804 -73.624)" fill="#fbd670"/>
        <path id="Trazado_130373" data-name="Trazado 130373" d="M118.4,121.323a3.013,3.013,0,1,1,2.991-3.047,3.025,3.025,0,0,1-2.991,3.047" transform="translate(-83.708 -83.661)" fill="#fefefe"/>
      </g>
    </g>
  </g>
</svg>
