<svg xmlns="http://www.w3.org/2000/svg" width="190" height="190" viewBox="0 0 190 190">
  <g id="_104" data-name="104" transform="translate(-7715 5999)">
    <g id="Grupo_157621" data-name="Grupo 157621" transform="translate(-317 610)">
      <path id="Trazado_130463" data-name="Trazado 130463" d="M425.015,239.3h-2.926a1.342,1.342,0,0,1-1.342-1.342v-2.926a1.342,1.342,0,1,1,2.684,0v1.584h1.584a1.342,1.342,0,1,1,0,2.684Z" transform="translate(7646.133 -6701.152)"/>
      <path id="Línea_232" data-name="Línea 232" d="M-1.158,94.381A1.342,1.342,0,0,1-2.5,93.039V87.126a1.342,1.342,0,0,1,1.342-1.342A1.342,1.342,0,0,1,.184,87.126v5.913A1.342,1.342,0,0,1-1.158,94.381Zm0-11.826A1.342,1.342,0,0,1-2.5,81.213V75.3a1.342,1.342,0,0,1,1.342-1.342A1.342,1.342,0,0,1,.184,75.3v5.913A1.342,1.342,0,0,1-1.158,82.555Zm0-11.826A1.342,1.342,0,0,1-2.5,69.387V63.474a1.342,1.342,0,0,1,1.342-1.342A1.342,1.342,0,0,1,.184,63.474v5.913A1.342,1.342,0,0,1-1.158,70.729Zm0-11.826A1.342,1.342,0,0,1-2.5,57.561V51.649a1.342,1.342,0,0,1,1.342-1.342A1.342,1.342,0,0,1,.184,51.649v5.913A1.342,1.342,0,0,1-1.158,58.9Zm0-11.826A1.342,1.342,0,0,1-2.5,45.736V39.823a1.342,1.342,0,0,1,1.342-1.342A1.342,1.342,0,0,1,.184,39.823v5.913A1.342,1.342,0,0,1-1.158,47.078Zm0-11.826A1.342,1.342,0,0,1-2.5,33.91V28a1.342,1.342,0,0,1,1.342-1.342A1.342,1.342,0,0,1,.184,28V33.91A1.342,1.342,0,0,1-1.158,35.252Zm0-11.826A1.342,1.342,0,0,1-2.5,22.084V16.171a1.342,1.342,0,0,1,1.342-1.342A1.342,1.342,0,0,1,.184,16.171v5.913A1.342,1.342,0,0,1-1.158,23.426Zm0-11.826A1.342,1.342,0,0,1-2.5,10.258V4.345A1.342,1.342,0,0,1-1.158,3,1.342,1.342,0,0,1,.184,4.345v5.913A1.342,1.342,0,0,1-1.158,11.6Z" transform="translate(8069.38 -6565.071)"/>
      <path id="Trazado_130464" data-name="Trazado 130464" d="M422.089,46.617a1.342,1.342,0,0,1-1.342-1.342V42.349a1.342,1.342,0,0,1,1.342-1.342h2.926a1.342,1.342,0,0,1,0,2.684h-1.584v1.584A1.342,1.342,0,0,1,422.089,46.617Z" transform="translate(7646.134 -6611.912)"/>
      <g id="Grupo_157615" data-name="Grupo 157615">
        <rect id="Rectángulo_37345" data-name="Rectángulo 37345" width="190" height="190" transform="translate(8032 -6609)" fill="#c9f0ee"/>
        <path id="Trazado_130987" data-name="Trazado 130987" d="M5.586,15H3.242V3.625H5.586Zm4.1-8.453.07.977a2.951,2.951,0,0,1,2.43-1.133,2.453,2.453,0,0,1,2,.789,3.682,3.682,0,0,1,.672,2.359V15H12.6V9.581a1.47,1.47,0,0,0-.312-1.045,1.4,1.4,0,0,0-1.039-.325,1.553,1.553,0,0,0-1.43.814V15H7.563V6.547Zm9.586-2.078V6.547h1.445V8.2H19.273v4.219a1.007,1.007,0,0,0,.18.672.9.9,0,0,0,.688.2,3.6,3.6,0,0,0,.664-.055v1.711a4.648,4.648,0,0,1-1.367.2,2.156,2.156,0,0,1-2.422-2.4V8.2H15.781V6.547h1.234V4.469Zm6.594,10.688a4.15,4.15,0,0,1-3.027-1.141,4.054,4.054,0,0,1-1.168-3.039v-.219a5.106,5.106,0,0,1,.492-2.277,3.612,3.612,0,0,1,1.395-1.547,3.914,3.914,0,0,1,2.059-.543,3.508,3.508,0,0,1,2.73,1.094,4.444,4.444,0,0,1,1,3.1v.922H23.961a2.1,2.1,0,0,0,.66,1.328,2,2,0,0,0,1.395.5,2.437,2.437,0,0,0,2.039-.945l1.109,1.242a3.389,3.389,0,0,1-1.375,1.121A4.511,4.511,0,0,1,25.867,15.156Zm-.258-6.945a1.411,1.411,0,0,0-1.09.455,2.357,2.357,0,0,0-.535,1.3h3.141V9.788a1.681,1.681,0,0,0-.406-1.165A1.456,1.456,0,0,0,25.609,8.211Zm9.766.453a6.134,6.134,0,0,0-.812-.062,1.654,1.654,0,0,0-1.68.867V15H30.625V6.547h2.133l.063,1.008A2.092,2.092,0,0,1,34.7,6.391a2.366,2.366,0,0,1,.7.1Zm5.836,0A6.134,6.134,0,0,0,40.4,8.6a1.654,1.654,0,0,0-1.68.867V15H36.461V6.547h2.133l.063,1.008a2.092,2.092,0,0,1,1.883-1.164,2.366,2.366,0,0,1,.7.1Zm.453,2.031a5.013,5.013,0,0,1,.484-2.242A3.546,3.546,0,0,1,43.543,6.93a4.069,4.069,0,0,1,2.113-.539,3.849,3.849,0,0,1,2.793,1.047,4.2,4.2,0,0,1,1.207,2.844l.016.578a4.418,4.418,0,0,1-1.086,3.121,4.209,4.209,0,0,1-5.832,0,4.5,4.5,0,0,1-1.09-3.187Zm2.258.16a3.16,3.16,0,0,0,.453,1.843,1.628,1.628,0,0,0,2.578.008,3.457,3.457,0,0,0,.461-2.015,3.128,3.128,0,0,0-.461-1.831,1.5,1.5,0,0,0-1.3-.649,1.474,1.474,0,0,0-1.281.646A3.516,3.516,0,0,0,43.922,10.856Zm6.813-.145a4.954,4.954,0,0,1,.926-3.133,3,3,0,0,1,2.5-1.187,2.631,2.631,0,0,1,2.164.953l.094-.8h2.047v8.172a3.613,3.613,0,0,1-.5,1.93,3.236,3.236,0,0,1-1.418,1.25,4.985,4.985,0,0,1-2.141.43,4.635,4.635,0,0,1-1.812-.371A3.217,3.217,0,0,1,51.25,17l1-1.375a2.645,2.645,0,0,0,2.047.945,1.936,1.936,0,0,0,1.4-.48,1.8,1.8,0,0,0,.5-1.363v-.453a2.612,2.612,0,0,1-2.055.883,2.992,2.992,0,0,1-2.465-1.191,4.953,4.953,0,0,1-.941-3.16Zm2.258.161a3.1,3.1,0,0,0,.461,1.809,1.465,1.465,0,0,0,1.266.655,1.567,1.567,0,0,0,1.477-.777V8.988a1.563,1.563,0,0,0-1.461-.777,1.474,1.474,0,0,0-1.277.667A3.5,3.5,0,0,0,52.992,10.872ZM65.094,15a2.507,2.507,0,0,1-.227-.758,2.732,2.732,0,0,1-2.133.914,3,3,0,0,1-2.059-.719,2.312,2.312,0,0,1-.816-1.812,2.389,2.389,0,0,1,1-2.062,4.915,4.915,0,0,1,2.879-.727h1.039V9.352a1.393,1.393,0,0,0-.3-.937,1.183,1.183,0,0,0-.949-.352,1.345,1.345,0,0,0-.895.273.929.929,0,0,0-.324.75H60.047A2.268,2.268,0,0,1,60.5,7.727a3,3,0,0,1,1.281-.98,4.669,4.669,0,0,1,1.859-.355,3.689,3.689,0,0,1,2.48.785,2.747,2.747,0,0,1,.918,2.207v3.664a4.041,4.041,0,0,0,.336,1.82V15Zm-1.867-1.57a1.945,1.945,0,0,0,.922-.223,1.462,1.462,0,0,0,.625-.6V11.156H63.93q-1.7,0-1.8,1.172l-.008.133a.9.9,0,0,0,.3.7A1.153,1.153,0,0,0,63.227,13.43Zm7.625-6.883.07.977a2.951,2.951,0,0,1,2.43-1.133,2.453,2.453,0,0,1,2,.789,3.682,3.682,0,0,1,.672,2.359V15H73.766V9.581a1.47,1.47,0,0,0-.312-1.045,1.4,1.4,0,0,0-1.039-.325,1.553,1.553,0,0,0-1.43.814V15H68.727V6.547Zm9.586-2.078V6.547h1.445V8.2H80.438v4.219a1.007,1.007,0,0,0,.18.672.9.9,0,0,0,.688.2,3.6,3.6,0,0,0,.664-.055v1.711a4.648,4.648,0,0,1-1.367.2,2.156,2.156,0,0,1-2.422-2.4V8.2H76.945V6.547H78.18V4.469Zm6.594,10.688A4.15,4.15,0,0,1,84,14.016a4.054,4.054,0,0,1-1.168-3.039v-.219a5.106,5.106,0,0,1,.492-2.277,3.612,3.612,0,0,1,1.395-1.547,3.914,3.914,0,0,1,2.059-.543,3.508,3.508,0,0,1,2.73,1.094,4.444,4.444,0,0,1,1,3.1v.922H85.125a2.1,2.1,0,0,0,.66,1.328,2,2,0,0,0,1.395.5,2.437,2.437,0,0,0,2.039-.945l1.109,1.242a3.389,3.389,0,0,1-1.375,1.121A4.511,4.511,0,0,1,87.031,15.156Zm-.258-6.945a1.411,1.411,0,0,0-1.09.455,2.357,2.357,0,0,0-.535,1.3h3.141V9.788a1.681,1.681,0,0,0-.406-1.165A1.456,1.456,0,0,0,86.773,8.211Z" transform="translate(8081 -6455)" fill="#12263f"/>
        <rect id="Rectángulo_37639" data-name="Rectángulo 37639" width="70.77" height="70.77" transform="translate(8086.022 -6576.148)" fill="#fff"/>
        <path id="Rectángulo_37640" data-name="Rectángulo 37640" d="M-1.158-2.5h70.77a1.342,1.342,0,0,1,1.342,1.342v70.77a1.342,1.342,0,0,1-1.342,1.342H-1.158A1.342,1.342,0,0,1-2.5,69.613V-1.158A1.342,1.342,0,0,1-1.158-2.5ZM68.27.184H.184V68.27H68.27Z" transform="translate(8087.18 -6574.99)"/>
        <rect id="Rectángulo_37641" data-name="Rectángulo 37641" width="83.449" height="83.449" transform="translate(8079.683 -6558.103)" fill="#29c4bb"/>
        <path id="Rectángulo_37642" data-name="Rectángulo 37642" d="M-1.158-2.5H82.291a1.342,1.342,0,0,1,1.342,1.342V82.292a1.342,1.342,0,0,1-1.342,1.342H-1.158A1.342,1.342,0,0,1-2.5,82.292V-1.158A1.342,1.342,0,0,1-1.158-2.5ZM80.949.184H.184V80.949H80.949Z" transform="translate(8080.841 -6556.945)"/>
        <path id="Trazado_130450" data-name="Trazado 130450" d="M521.7,31.241l6.34,18.045H444.594l6.339-18.045Z" transform="translate(7635.089 -6607.388)" fill="#32e3d9"/>
        <path id="Trazado_130451" data-name="Trazado 130451" d="M449.775,28.741h70.77a1.342,1.342,0,0,1,1.266.9l6.34,18.045a1.342,1.342,0,0,1-1.266,1.787H443.436a1.342,1.342,0,0,1-1.266-1.787l6.339-18.045A1.342,1.342,0,0,1,449.775,28.741Zm69.819,2.684H450.726l-5.4,15.361h79.661Z" transform="translate(7636.247 -6606.23)"/>
        <path id="Trazado_130452" data-name="Trazado 130452" d="M519.736,97.01l-7.8,10.2a18.63,18.63,0,0,0-3.7,7.536,11.446,11.446,0,0,1-2.593,4.879,8.389,8.389,0,0,1-14.628-5.917c0-3.964,1.037-7.282,4.678-11.829l9.685-12.22c2.085-2.6,3.768-5.462,3.768-9.034,0-5.721-4.022-10.14-10.267-10.14a10.249,10.249,0,0,0-7.992,3.117,14.836,14.836,0,0,0-3.25,6.177,12.993,12.993,0,0,1-2.339,4.292c-1.492,1.556-3.451,2.08-5.917,2.08a7.628,7.628,0,0,1-5.653-2.276A8.123,8.123,0,0,1,471.7,77.9c0-4.223,2.276-10.6,7.484-15.406a28.223,28.223,0,0,1,19.5-7.214c15.073,0,27.362,9.426,27.362,25.351,0,7.214-2.339,11.178-6.309,16.38M499.329,128.6a10.206,10.206,0,1,1-10.2,10.209,10.265,10.265,0,0,1,10.2-10.209" transform="translate(7622.534 -6618.521)" fill="#00fff2"/>
        <path id="Trazado_130453" data-name="Trazado 130453" d="M497.525,52.779a33.773,33.773,0,0,1,11.073,1.8,27.318,27.318,0,0,1,9.145,5.241,24.228,24.228,0,0,1,6.214,8.432,27.46,27.46,0,0,1,2.271,11.224,23.463,23.463,0,0,1-1.773,9.469,35.953,35.953,0,0,1-4.811,7.725l-7.8,10.2a17.326,17.326,0,0,0-3.476,7.067l0,.013a12.713,12.713,0,0,1-2.911,5.445l-.01.011a9.564,9.564,0,0,1-7.275,2.877,10.373,10.373,0,0,1-4.12-.8,9.615,9.615,0,0,1-3.147-2.213,9.475,9.475,0,0,1-2.395-6.713,16.956,16.956,0,0,1,1.06-6.17,23.93,23.93,0,0,1,3.91-6.495l9.684-12.218.005-.006a18.557,18.557,0,0,0,2.493-3.871,10.2,10.2,0,0,0,.98-4.323,9.634,9.634,0,0,0-.634-3.511,8.014,8.014,0,0,0-4.552-4.6,10,10,0,0,0-3.739-.683,11.093,11.093,0,0,0-3.983.643,7.975,7.975,0,0,0-3.031,2.051l-.008.009a13.488,13.488,0,0,0-2.936,5.643,14.289,14.289,0,0,1-2.611,4.78l-.042.046a7.51,7.51,0,0,1-3.141,1.969,11.855,11.855,0,0,1-3.745.524,9.691,9.691,0,0,1-3.7-.7,8.453,8.453,0,0,1-2.921-1.988,8.019,8.019,0,0,1-1.823-3.02,11.945,11.945,0,0,1-.571-3.887,20.343,20.343,0,0,1,1.906-8.031,25.893,25.893,0,0,1,6.009-8.361,27.817,27.817,0,0,1,9.086-5.582A31.962,31.962,0,0,1,497.525,52.779Zm8.252,60.464a19.847,19.847,0,0,1,3.931-8l0,0,7.8-10.2a33.61,33.61,0,0,0,4.474-7.146,20.879,20.879,0,0,0,1.559-8.419,24.8,24.8,0,0,0-2.04-10.134,21.562,21.562,0,0,0-5.531-7.5,24.647,24.647,0,0,0-8.253-4.723,31.1,31.1,0,0,0-10.2-1.648,29.289,29.289,0,0,0-10.374,1.816,25.144,25.144,0,0,0-8.213,5.043c-4.871,4.5-7.051,10.484-7.051,14.419a9.338,9.338,0,0,0,.427,3.022,5.391,5.391,0,0,0,1.223,2.031,6.285,6.285,0,0,0,4.682,1.861,9.257,9.257,0,0,0,2.9-.389,4.889,4.889,0,0,0,2.024-1.256,11.732,11.732,0,0,0,2.045-3.775l0-.006a22.812,22.812,0,0,1,1.421-3.641,12.623,12.623,0,0,1,2.138-3.064,10.6,10.6,0,0,1,4.028-2.716,13.708,13.708,0,0,1,4.937-.818,12.667,12.667,0,0,1,4.739.876,10.744,10.744,0,0,1,3.695,2.45,11.516,11.516,0,0,1,3.176,8.155c0,4.262-2.17,7.514-4.061,9.871l-9.683,12.217,0,.005a21.381,21.381,0,0,0-3.5,5.767,14.17,14.17,0,0,0-.887,5.222,6.428,6.428,0,0,0,3.918,6.46,7.607,7.607,0,0,0,3.059.581,6.928,6.928,0,0,0,5.337-2.05A10.079,10.079,0,0,0,505.776,113.243ZM498.171,126.1a11.349,11.349,0,0,1,4.479.916,11.709,11.709,0,0,1,6.151,6.153,11.414,11.414,0,0,1,0,8.961,11.71,11.71,0,0,1-6.151,6.151,11.407,11.407,0,0,1-8.958,0,11.709,11.709,0,0,1-6.151-6.151,11.414,11.414,0,0,1,0-8.961,11.709,11.709,0,0,1,6.151-6.153A11.348,11.348,0,0,1,498.171,126.1Zm0,20.413a8.681,8.681,0,0,0,3.425-.7,9.025,9.025,0,0,0,4.736-4.735,8.73,8.73,0,0,0,0-6.854,9.024,9.024,0,0,0-4.736-4.738,8.722,8.722,0,0,0-6.851,0,9.024,9.024,0,0,0-4.736,4.738,8.73,8.73,0,0,0,0,6.854,9.026,9.026,0,0,0,4.736,4.735A8.681,8.681,0,0,0,498.171,146.508Z" transform="translate(7623.692 -6617.364)"/>
        <path id="Trazado_130454" data-name="Trazado 130454" d="M458.624,75.935a2.949,2.949,0,1,1-2.949-2.948,2.949,2.949,0,0,1,2.949,2.948" transform="translate(7631.322 -6626.723)" fill="#fff"/>
        <path id="Trazado_130455" data-name="Trazado 130455" d="M454.518,70.487a4.291,4.291,0,1,1-4.291,4.291A4.3,4.3,0,0,1,454.518,70.487Zm0,5.9a1.607,1.607,0,1,0-1.606-1.607A1.609,1.609,0,0,0,454.518,76.384Z" transform="translate(7632.48 -6625.565)"/>
        <path id="Trazado_130456" data-name="Trazado 130456" d="M586.813,75.935a2.949,2.949,0,1,1-2.949-2.948,2.949,2.949,0,0,1,2.949,2.948" transform="translate(7571.952 -6626.723)" fill="#fff"/>
        <path id="Trazado_130457" data-name="Trazado 130457" d="M582.707,70.487a4.291,4.291,0,1,1-4.291,4.291A4.3,4.3,0,0,1,582.707,70.487Zm0,5.9a1.607,1.607,0,1,0-1.606-1.607A1.609,1.609,0,0,0,582.707,76.384Z" transform="translate(7573.11 -6625.565)"/>
        <path id="Trazado_130458" data-name="Trazado 130458" d="M458.624,204.124a2.949,2.949,0,1,1-2.949-2.949,2.949,2.949,0,0,1,2.949,2.949" transform="translate(7631.322 -6686.092)" fill="#fff"/>
        <path id="Trazado_130459" data-name="Trazado 130459" d="M454.518,198.675a4.291,4.291,0,1,1-4.291,4.291A4.3,4.3,0,0,1,454.518,198.675Zm0,5.9a1.607,1.607,0,1,0-1.606-1.607A1.609,1.609,0,0,0,454.518,204.573Z" transform="translate(7632.48 -6684.935)"/>
        <path id="Trazado_130460" data-name="Trazado 130460" d="M586.813,204.124a2.949,2.949,0,1,1-2.949-2.949,2.949,2.949,0,0,1,2.949,2.949" transform="translate(7571.952 -6686.092)" fill="#fff"/>
        <path id="Trazado_130461" data-name="Trazado 130461" d="M582.707,198.675a4.291,4.291,0,1,1-4.291,4.291A4.3,4.3,0,0,1,582.707,198.675Zm0,5.9a1.607,1.607,0,1,0-1.606-1.607A1.609,1.609,0,0,0,582.707,204.573Z" transform="translate(7573.11 -6684.935)"/>
        <line id="Línea_225" data-name="Línea 225" x1="20.157" y2="20.157" transform="translate(8133.964 -6511.815)" fill="#fff"/>
        <path id="Línea_226" data-name="Línea 226" d="M-1.158,20.341a1.338,1.338,0,0,1-.949-.393,1.342,1.342,0,0,1,0-1.9L18.05-2.107a1.342,1.342,0,0,1,1.9,0,1.342,1.342,0,0,1,0,1.9L-.209,19.948A1.338,1.338,0,0,1-1.158,20.341Z" transform="translate(8135.122 -6510.657)"/>
        <line id="Línea_227" data-name="Línea 227" x1="7.944" y2="7.944" transform="translate(8146.176 -6502.061)" fill="#fff"/>
        <path id="Línea_228" data-name="Línea 228" d="M-1.158,8.129a1.338,1.338,0,0,1-.949-.393,1.342,1.342,0,0,1,0-1.9L5.838-2.107a1.342,1.342,0,0,1,1.9,0,1.342,1.342,0,0,1,0,1.9L-.209,7.736A1.338,1.338,0,0,1-1.158,8.129Z" transform="translate(8147.334 -6500.903)"/>
        <line id="Línea_229" data-name="Línea 229" x1="11.594" y2="11.594" transform="translate(8094.808 -6517.612)" fill="#fff"/>
        <path id="Línea_230" data-name="Línea 230" d="M-1.158,11.779a1.338,1.338,0,0,1-.949-.393,1.342,1.342,0,0,1,0-1.9L9.488-2.107a1.342,1.342,0,0,1,1.9,0,1.342,1.342,0,0,1,0,1.9L-.209,11.386A1.338,1.338,0,0,1-1.158,11.779Z" transform="translate(8095.965 -6516.454)"/>
        <path id="Trazado_130462" data-name="Trazado 130462" d="M617.7,239.3h-2.926a1.342,1.342,0,1,1,0-2.684h1.584v-1.584a1.342,1.342,0,1,1,2.684,0v2.926A1.342,1.342,0,0,1,617.7,239.3Z" transform="translate(7556.893 -6701.152)"/>
        <path id="Línea_231" data-name="Línea 231" d="M93.04.184H87.127a1.342,1.342,0,0,1-1.342-1.342A1.342,1.342,0,0,1,87.127-2.5H93.04a1.342,1.342,0,0,1,1.342,1.342A1.342,1.342,0,0,1,93.04.184Zm-11.826,0H75.3a1.342,1.342,0,0,1-1.342-1.342A1.342,1.342,0,0,1,75.3-2.5h5.913a1.342,1.342,0,0,1,1.342,1.342A1.342,1.342,0,0,1,81.214.184Zm-11.826,0H63.475a1.342,1.342,0,0,1-1.342-1.342A1.342,1.342,0,0,1,63.475-2.5h5.913a1.342,1.342,0,0,1,1.342,1.342A1.342,1.342,0,0,1,69.388.184Zm-11.826,0H51.65a1.342,1.342,0,0,1-1.342-1.342A1.342,1.342,0,0,1,51.65-2.5h5.913A1.342,1.342,0,0,1,58.9-1.158,1.342,1.342,0,0,1,57.563.184Zm-11.826,0H39.824a1.342,1.342,0,0,1-1.342-1.342A1.342,1.342,0,0,1,39.824-2.5h5.913a1.342,1.342,0,0,1,1.342,1.342A1.342,1.342,0,0,1,45.737.184Zm-11.826,0H28a1.342,1.342,0,0,1-1.342-1.342A1.342,1.342,0,0,1,28-2.5h5.913a1.342,1.342,0,0,1,1.342,1.342A1.342,1.342,0,0,1,33.911.184Zm-11.826,0H16.172A1.342,1.342,0,0,1,14.83-1.158,1.342,1.342,0,0,1,16.172-2.5h5.913a1.342,1.342,0,0,1,1.342,1.342A1.342,1.342,0,0,1,22.085.184Zm-11.826,0H4.346A1.342,1.342,0,0,1,3-1.158,1.342,1.342,0,0,1,4.346-2.5h5.913A1.342,1.342,0,0,1,11.6-1.158,1.342,1.342,0,0,1,10.259.184Z" transform="translate(8072.713 -6462.035)"/>
        <path id="Línea_233" data-name="Línea 233" d="M87.536.184H81.623a1.342,1.342,0,0,1-1.342-1.342A1.342,1.342,0,0,1,81.623-2.5h5.913a1.342,1.342,0,0,1,1.342,1.342A1.342,1.342,0,0,1,87.536.184ZM75.71.184H69.8a1.342,1.342,0,0,1-1.342-1.342A1.342,1.342,0,0,1,69.8-2.5H75.71a1.342,1.342,0,0,1,1.342,1.342A1.342,1.342,0,0,1,75.71.184Zm-11.826,0H57.971a1.342,1.342,0,0,1-1.342-1.342A1.342,1.342,0,0,1,57.971-2.5h5.913a1.342,1.342,0,0,1,1.342,1.342A1.342,1.342,0,0,1,63.884.184Zm-11.826,0H46.146A1.342,1.342,0,0,1,44.8-1.158,1.342,1.342,0,0,1,46.146-2.5h5.913A1.342,1.342,0,0,1,53.4-1.158,1.342,1.342,0,0,1,52.058.184Zm-11.826,0H34.32a1.342,1.342,0,0,1-1.342-1.342A1.342,1.342,0,0,1,34.32-2.5h5.913a1.342,1.342,0,0,1,1.342,1.342A1.342,1.342,0,0,1,40.233.184Zm-11.826,0H22.494a1.342,1.342,0,0,1-1.342-1.342A1.342,1.342,0,0,1,22.494-2.5h5.913a1.342,1.342,0,0,1,1.342,1.342A1.342,1.342,0,0,1,28.407.184Zm-11.826,0H10.668A1.342,1.342,0,0,1,9.326-1.158,1.342,1.342,0,0,1,10.668-2.5h5.913a1.342,1.342,0,0,1,1.342,1.342A1.342,1.342,0,0,1,16.581.184ZM4.755.184H-1.158A1.342,1.342,0,0,1-2.5-1.158,1.342,1.342,0,0,1-1.158-2.5H4.755A1.342,1.342,0,0,1,6.1-1.158,1.342,1.342,0,0,1,4.755.184Z" transform="translate(8078.219 -6568.405)"/>
        <path id="Trazado_130465" data-name="Trazado 130465" d="M617.7,46.617a1.342,1.342,0,0,1-1.342-1.342V43.691h-1.584a1.342,1.342,0,0,1,0-2.684H617.7a1.342,1.342,0,0,1,1.342,1.342v2.926A1.342,1.342,0,0,1,617.7,46.617Z" transform="translate(7556.893 -6611.911)"/>
        <path id="Línea_234" data-name="Línea 234" d="M-1.158,88.878A1.342,1.342,0,0,1-2.5,87.536V81.623a1.342,1.342,0,0,1,1.342-1.342A1.342,1.342,0,0,1,.184,81.623v5.913A1.342,1.342,0,0,1-1.158,88.878Zm0-11.826A1.342,1.342,0,0,1-2.5,75.71V69.8a1.342,1.342,0,0,1,1.342-1.342A1.342,1.342,0,0,1,.184,69.8V75.71A1.342,1.342,0,0,1-1.158,77.052Zm0-11.826A1.342,1.342,0,0,1-2.5,63.884V57.971a1.342,1.342,0,0,1,1.342-1.342A1.342,1.342,0,0,1,.184,57.971v5.913A1.342,1.342,0,0,1-1.158,65.226Zm0-11.826A1.342,1.342,0,0,1-2.5,52.058V46.146A1.342,1.342,0,0,1-1.158,44.8,1.342,1.342,0,0,1,.184,46.146v5.913A1.342,1.342,0,0,1-1.158,53.4Zm0-11.826A1.342,1.342,0,0,1-2.5,40.233V34.32a1.342,1.342,0,0,1,1.342-1.342A1.342,1.342,0,0,1,.184,34.32v5.913A1.342,1.342,0,0,1-1.158,41.575Zm0-11.826A1.342,1.342,0,0,1-2.5,28.407V22.494a1.342,1.342,0,0,1,1.342-1.342A1.342,1.342,0,0,1,.184,22.494v5.913A1.342,1.342,0,0,1-1.158,29.749Zm0-11.826A1.342,1.342,0,0,1-2.5,16.581V10.668A1.342,1.342,0,0,1-1.158,9.326,1.342,1.342,0,0,1,.184,10.668v5.913A1.342,1.342,0,0,1-1.158,17.923Zm0-11.826A1.342,1.342,0,0,1-2.5,4.755V-1.158A1.342,1.342,0,0,1-1.158-2.5,1.342,1.342,0,0,1,.184-1.158V4.755A1.342,1.342,0,0,1-1.158,6.1Z" transform="translate(8175.75 -6559.566)"/>
      </g>
    </g>
  </g>
</svg>
