<svg xmlns="http://www.w3.org/2000/svg" width="190" height="190" viewBox="0 0 190 190">
  <g id="_107" data-name="107" transform="translate(-8032 6395)">
    <g id="Grupo_157617" data-name="Grupo 157617">
      <rect id="Rectángulo_37346" data-name="Rectángulo 37346" width="190" height="190" transform="translate(8032 -6395)" fill="#c9f0ee"/>
      <path id="Trazado_130990" data-name="Trazado 130990" d="M30.207,10.992V15H27.863V3.625H32.3a5.134,5.134,0,0,1,2.254.469,3.454,3.454,0,0,1,1.5,1.332,3.714,3.714,0,0,1,.523,1.965,3.266,3.266,0,0,1-1.145,2.637,4.767,4.767,0,0,1-3.168.965Zm0-1.9H32.3a2.059,2.059,0,0,0,1.418-.437,1.591,1.591,0,0,0,.488-1.25,1.876,1.876,0,0,0-.492-1.352,1.839,1.839,0,0,0-1.359-.531H30.207Zm11.617,6.063A4.15,4.15,0,0,1,38.8,14.016a4.054,4.054,0,0,1-1.168-3.039v-.219a5.106,5.106,0,0,1,.492-2.277,3.612,3.612,0,0,1,1.395-1.547,3.914,3.914,0,0,1,2.059-.543A3.508,3.508,0,0,1,44.3,7.484a4.444,4.444,0,0,1,1,3.1v.922H39.918a2.1,2.1,0,0,0,.66,1.328,2,2,0,0,0,1.395.5,2.437,2.437,0,0,0,2.039-.945l1.109,1.242a3.389,3.389,0,0,1-1.375,1.121A4.511,4.511,0,0,1,41.824,15.156Zm-.258-6.945a1.411,1.411,0,0,0-1.09.455,2.357,2.357,0,0,0-.535,1.3h3.141V9.788a1.681,1.681,0,0,0-.406-1.165A1.456,1.456,0,0,0,41.566,8.211Zm9.766.453A6.134,6.134,0,0,0,50.52,8.6a1.654,1.654,0,0,0-1.68.867V15H46.582V6.547h2.133l.063,1.008A2.092,2.092,0,0,1,50.66,6.391a2.366,2.366,0,0,1,.7.1Zm5.836,0a6.134,6.134,0,0,0-.812-.062,1.654,1.654,0,0,0-1.68.867V15H52.418V6.547h2.133l.063,1.008A2.092,2.092,0,0,1,56.5,6.391a2.366,2.366,0,0,1,.7.1Zm.453,2.031a5.013,5.013,0,0,1,.484-2.242A3.546,3.546,0,0,1,59.5,6.93a4.069,4.069,0,0,1,2.113-.539,3.849,3.849,0,0,1,2.793,1.047,4.2,4.2,0,0,1,1.207,2.844l.016.578a4.418,4.418,0,0,1-1.086,3.121,4.209,4.209,0,0,1-5.832,0,4.5,4.5,0,0,1-1.09-3.187Zm2.258.16a3.16,3.16,0,0,0,.453,1.843,1.628,1.628,0,0,0,2.578.008,3.457,3.457,0,0,0,.461-2.015A3.128,3.128,0,0,0,62.91,8.86a1.5,1.5,0,0,0-1.3-.649,1.474,1.474,0,0,0-1.281.646A3.516,3.516,0,0,0,59.879,10.856Z" transform="translate(8081 -6243)" fill="#12263f"/>
      <path id="Línea_253" data-name="Línea 253" d="M102.992.184H-1.158A1.342,1.342,0,0,1-2.5-1.158,1.342,1.342,0,0,1-1.158-2.5h104.15a1.342,1.342,0,0,1,1.342,1.342A1.342,1.342,0,0,1,102.992.184Z" transform="translate(8077.882 -6276.529)"/>
      <path id="Línea_254" data-name="Línea 254" d="M93.956.184H-1.158A1.342,1.342,0,0,1-2.5-1.158,1.342,1.342,0,0,1-1.158-2.5H93.956A1.342,1.342,0,0,1,95.3-1.158,1.342,1.342,0,0,1,93.956.184Z" transform="translate(8101.413 -6270.764)"/>
      <path id="Línea_255" data-name="Línea 255" d="M28.325.184H-1.158A1.342,1.342,0,0,1-2.5-1.158,1.342,1.342,0,0,1-1.158-2.5H28.325a1.342,1.342,0,0,1,1.342,1.342A1.342,1.342,0,0,1,28.325.184Z" transform="translate(8061.508 -6261.904)"/>
      <path id="Trazado_130528" data-name="Trazado 130528" d="M539.642,507.448v19.1a14.138,14.138,0,0,0,14.138,14.138h4.963V560.1a4.781,4.781,0,0,0,9.562,0V530.452a6.46,6.46,0,0,1-6.46-6.461V507.448" transform="translate(7591.068 -6827.941)" fill="#9f5211"/>
      <path id="Trazado_130529" data-name="Trazado 130529" d="M562.367,565.063a6.123,6.123,0,0,1-6.123-6.123v-18.07h-3.621a15.469,15.469,0,0,1-15.48-15.48v-19.1a1.342,1.342,0,0,1,2.684,0v19.1a12.784,12.784,0,0,0,12.8,12.8h4.963a1.342,1.342,0,0,1,1.342,1.342v19.412a3.439,3.439,0,0,0,6.878,0V530.522a7.807,7.807,0,0,1-6.46-7.688V506.29a1.342,1.342,0,1,1,2.684,0v16.543a5.124,5.124,0,0,0,5.118,5.118,1.342,1.342,0,0,1,1.342,1.342v29.647a6.123,6.123,0,0,1-6.123,6.123Z" transform="translate(7592.226 -6826.783)"/>
      <path id="Trazado_130530" data-name="Trazado 130530" d="M460.969,507.448v9.792a21.273,21.273,0,0,0,4.543,13.139,21.271,21.271,0,0,1,4.543,13.14V559.9a4.914,4.914,0,0,0,4.634,4.979,4.781,4.781,0,0,0,4.928-4.779V515.537" transform="translate(7627.505 -6827.941)" fill="#9f5211"/>
      <path id="Trazado_130531" data-name="Trazado 130531" d="M473.681,565.064l-.191,0a5.97,5.97,0,0,1-4.247-1.973,6.422,6.422,0,0,1-1.688-4.348V542.361A19.929,19.929,0,0,0,463.3,530.05a22.615,22.615,0,0,1-4.829-13.968V506.29a1.342,1.342,0,1,1,2.684,0v9.792a19.931,19.931,0,0,0,4.256,12.31,22.614,22.614,0,0,1,4.83,13.969V558.74a3.571,3.571,0,0,0,3.332,3.638,3.439,3.439,0,0,0,3.546-3.437V514.379a1.342,1.342,0,1,1,2.684,0v44.561a6.123,6.123,0,0,1-6.12,6.123Z" transform="translate(7628.663 -6826.783)"/>
      <path id="Trazado_130532" data-name="Trazado 130532" d="M589.772,489.829s19.016,2.366,27.586-24.988c-8.728,23.674-31.042,18.619-31.042,18.619" transform="translate(7569.451 -6808.208)" fill="#9f5211"/>
      <path id="Trazado_130533" data-name="Trazado 130533" d="M589.768,490.066a11.528,11.528,0,0,1-1.32-.062l.331-2.664h0a14.222,14.222,0,0,0,2.944-.076,21.6,21.6,0,0,0,7.033-2.107,25.458,25.458,0,0,0,7.633-5.891,26.61,26.61,0,0,1-8.648,3.905,31.278,31.278,0,0,1-9.018.892,24.154,24.154,0,0,1-3.857-.452,1.342,1.342,0,1,1,.593-2.618,22.247,22.247,0,0,0,3.494.393,28.528,28.528,0,0,0,8.231-.843,23.683,23.683,0,0,0,9.665-5.025,29.364,29.364,0,0,0,8.1-12.3,1.342,1.342,0,0,1,2.54.866,46.849,46.849,0,0,1-8.171,15.9,28.545,28.545,0,0,1-9.531,7.661A23.282,23.282,0,0,1,589.768,490.066Z" transform="translate(7570.609 -6807.05)"/>
      <path id="Trazado_130534" data-name="Trazado 130534" d="M511.809,472.409H486.56a13.083,13.083,0,0,1-13.083-13.083v-2.538H456.6v26.218a27.74,27.74,0,0,0,33.423,27.287l39.672-7.63V490.295a17.886,17.886,0,0,0-17.886-17.886" transform="translate(7629.528 -6804.478)" fill="#9f5211"/>
      <path id="Trazado_130535" data-name="Trazado 130535" d="M455.442,454.288h16.877a1.342,1.342,0,0,1,1.342,1.342v2.538A11.73,11.73,0,0,0,485.4,469.909h25.248a19.213,19.213,0,0,1,19.228,19.228V501.5a1.342,1.342,0,0,1-1.089,1.318l-39.672,7.63a30.161,30.161,0,0,1-5.681.542,29.823,29.823,0,0,1-15.617-4.394A28.478,28.478,0,0,1,456.9,494.43a29.456,29.456,0,0,1-2.072-6.037,29.788,29.788,0,0,1-.726-6.544V455.63A1.342,1.342,0,0,1,455.442,454.288Zm15.535,2.684H456.784v24.876a27.1,27.1,0,0,0,.66,5.954,26.771,26.771,0,0,0,1.883,5.486,25.8,25.8,0,0,0,9.9,11.025,27.14,27.14,0,0,0,14.212,4,27.462,27.462,0,0,0,5.174-.493l38.583-7.421V489.137a16.529,16.529,0,0,0-16.544-16.544H485.4a14.415,14.415,0,0,1-14.425-14.425Z" transform="translate(7630.686 -6803.32)"/>
      <path id="Trazado_130536" data-name="Trazado 130536" d="M551.4,519.2v19.1a14.138,14.138,0,0,0,14.138,14.138H570.5v19.412a4.781,4.781,0,0,0,9.562,0V542.2a6.461,6.461,0,0,1-6.46-6.461V519.2" transform="translate(7585.624 -6833.384)" fill="#9f5211"/>
      <path id="Trazado_130537" data-name="Trazado 130537" d="M574.12,576.816A6.123,6.123,0,0,1,568,570.694V552.624h-3.621a15.468,15.468,0,0,1-15.48-15.48v-19.1a1.342,1.342,0,0,1,2.684,0v19.1a12.784,12.784,0,0,0,12.8,12.8h4.963a1.342,1.342,0,0,1,1.342,1.342v19.412a3.439,3.439,0,0,0,6.878,0V542.275a7.808,7.808,0,0,1-6.46-7.688V518.043a1.342,1.342,0,0,1,2.684,0v16.543A5.124,5.124,0,0,0,578.9,539.7a1.342,1.342,0,0,1,1.342,1.342v29.647a6.123,6.123,0,0,1-6.123,6.123Z" transform="translate(7586.782 -6832.227)"/>
      <path id="Trazado_130538" data-name="Trazado 130538" d="M472.722,519.2v9.792a21.273,21.273,0,0,0,4.543,13.139,21.271,21.271,0,0,1,4.543,13.14v16.379a4.914,4.914,0,0,0,4.634,4.979,4.781,4.781,0,0,0,4.928-4.779V527.29" transform="translate(7622.062 -6833.384)" fill="#9f5211"/>
      <path id="Trazado_130539" data-name="Trazado 130539" d="M485.434,576.817l-.191,0A5.97,5.97,0,0,1,481,574.841a6.422,6.422,0,0,1-1.688-4.348V554.114a19.929,19.929,0,0,0-4.257-12.311,22.614,22.614,0,0,1-4.83-13.968v-9.792a1.342,1.342,0,0,1,2.684,0v9.792a19.931,19.931,0,0,0,4.256,12.31,22.612,22.612,0,0,1,4.83,13.969v16.379a3.571,3.571,0,0,0,3.332,3.638,3.439,3.439,0,0,0,3.546-3.437V526.132a1.342,1.342,0,0,1,2.684,0v44.561a6.123,6.123,0,0,1-6.12,6.123Z" transform="translate(7623.219 -6832.227)"/>
      <path id="Trazado_130540" data-name="Trazado 130540" d="M459.836,454.445c-2.363,12.211-12.915,20.439-23.569,18.378s-17.375-13.632-15.013-25.843,12.915-20.439,23.569-18.378,17.375,13.632,15.013,25.843" transform="translate(7646.118 -6791.277)" fill="#9f5211"/>
      <path id="Trazado_130541" data-name="Trazado 130541" d="M438.4,473.323a18.743,18.743,0,0,1-11.271-3.775,21.007,21.007,0,0,1-5.571-6.325,24.213,24.213,0,0,1-2.938-8.285,27.026,27.026,0,0,1,3.033-17.309,24.692,24.692,0,0,1,4.922-6.252,21.908,21.908,0,0,1,6.423-4.11,19.272,19.272,0,0,1,7.37-1.483,18.743,18.743,0,0,1,11.271,3.775,21.006,21.006,0,0,1,5.571,6.325,24.212,24.212,0,0,1,2.938,8.285,27.028,27.028,0,0,1-3.033,17.309,24.692,24.692,0,0,1-4.922,6.252,21.908,21.908,0,0,1-6.423,4.11A19.273,19.273,0,0,1,438.4,473.323Zm1.967-44.854a16.6,16.6,0,0,0-6.347,1.28,19.233,19.233,0,0,0-5.636,3.611A22.014,22.014,0,0,0,424,438.935a24.343,24.343,0,0,0-2.73,15.569,21.538,21.538,0,0,0,2.61,7.371,18.337,18.337,0,0,0,4.859,5.525,16.058,16.058,0,0,0,9.663,3.239,16.6,16.6,0,0,0,6.348-1.28,19.232,19.232,0,0,0,5.636-3.611,22.011,22.011,0,0,0,4.386-5.574A24.345,24.345,0,0,0,457.5,444.6a21.539,21.539,0,0,0-2.61-7.371,18.338,18.338,0,0,0-4.859-5.525,16.058,16.058,0,0,0-9.663-3.239Z" transform="translate(7647.276 -6790.12)"/>
      <path id="Trazado_130542" data-name="Trazado 130542" d="M445.539,505.562h0a3.822,3.822,0,0,1-3.026-4.478l2.049-10.59,7.5,1.452-2.049,10.59a3.822,3.822,0,0,1-4.478,3.026" transform="translate(7636.085 -6820.089)" fill="#d85353"/>
      <path id="Trazado_130543" data-name="Trazado 130543" d="M445.11,505.816a5.2,5.2,0,0,1-.985-.095,5.164,5.164,0,0,1-4.089-6.051l2.049-10.589a1.342,1.342,0,0,1,1.573-1.063l7.5,1.452a1.342,1.342,0,0,1,1.063,1.573l-2.049,10.59A5.17,5.17,0,0,1,445.11,505.816Zm-.645-14.908-1.794,9.272a2.48,2.48,0,0,0,1.964,2.906,2.509,2.509,0,0,0,.475.046,2.482,2.482,0,0,0,2.431-2.009l1.794-9.272Z" transform="translate(7637.244 -6818.931)"/>
      <path id="Trazado_130544" data-name="Trazado 130544" d="M457.4,480.687a8.1,8.1,0,0,1-11.6,6.2,18.575,18.575,0,0,0-9.353-1.861,8.105,8.105,0,0,1-8.348-10.168" transform="translate(7642.858 -6812.847)" fill="#9f5211"/>
      <path id="Trazado_130545" data-name="Trazado 130545" d="M448.22,487.9a9.526,9.526,0,0,1-4.177-.97,17.2,17.2,0,0,0-8.675-1.726,9.471,9.471,0,0,1-2.449-.164,9.436,9.436,0,0,1-7.282-11.687,1.342,1.342,0,0,1,2.6.686,6.752,6.752,0,0,0,5.211,8.368,6.779,6.779,0,0,0,1.754.118,19.89,19.89,0,0,1,10.03,2,6.785,6.785,0,0,0,1.665.563,6.758,6.758,0,0,0,8.016-5.736,1.342,1.342,0,0,1,2.66.36,9.443,9.443,0,0,1-9.349,8.193Z" transform="translate(7644.017 -6811.688)"/>
      <path id="Trazado_130546" data-name="Trazado 130546" d="M444.592,473.533c-.65,3.265,2.059,3.483,5.325,4.133s5.851,1.485,6.5-1.78a6.029,6.029,0,0,0-11.825-2.352" transform="translate(7635.134 -6809.986)"/>
      <path id="Trazado_130547" data-name="Trazado 130547" d="M449.342,466.18h0a7.418,7.418,0,0,1,1.445.143,7.371,7.371,0,0,1,5.791,8.667,4.288,4.288,0,0,1-1.473,2.676,4,4,0,0,1-2.572.785,16.844,16.844,0,0,1-3.263-.469c-.251-.052-.511-.106-.771-.158s-.52-.1-.771-.149a20.494,20.494,0,0,1-2.778-.658,4.432,4.432,0,0,1-2.35-1.637,4.205,4.205,0,0,1-.479-3.266,7.372,7.372,0,0,1,7.222-5.933Zm3.191,9.586a1.493,1.493,0,0,0,.913-.212,1.96,1.96,0,0,0,.5-1.089,4.686,4.686,0,0,0-3.682-5.51,4.685,4.685,0,0,0-5.51,3.682,1.725,1.725,0,0,0,.072,1.243c.393.584,1.925.876,3.406,1.159.257.049.522.1.792.153s.535.109.791.162A15.209,15.209,0,0,0,452.533,475.766Z" transform="translate(7636.291 -6808.828)"/>
      <path id="Trazado_130548" data-name="Trazado 130548" d="M420.538,434l-10.869,9.226a5.573,5.573,0,1,1-7.213-8.5l9.212-7.82a11.146,11.146,0,0,1,15.711,1.284" transform="translate(7655.516 -6789.411)" fill="#9f5211"/>
      <path id="Trazado_130549" data-name="Trazado 130549" d="M404.916,444.73q-.286,0-.575-.024a6.915,6.915,0,0,1-3.912-12.164l9.212-7.82a12.479,12.479,0,0,1,17.6,1.439A1.342,1.342,0,0,1,425.2,427.9a9.8,9.8,0,0,0-13.819-1.13l-9.212,7.82a4.231,4.231,0,1,0,5.476,6.451l10.869-9.226a1.342,1.342,0,1,1,1.737,2.046l-10.869,9.226A6.863,6.863,0,0,1,404.916,444.73Z" transform="translate(7656.674 -6788.252)"/>
      <path id="Trazado_130550" data-name="Trazado 130550" d="M482.641,443.807l6.643,12.615a5.573,5.573,0,1,0,9.863-5.194l-5.631-10.693a11.146,11.146,0,0,0-15.056-4.669" transform="translate(7619.404 -6794.193)" fill="#9f5211"/>
      <path id="Trazado_130551" data-name="Trazado 130551" d="M493.065,459.585a6.935,6.935,0,0,1-6.127-3.7l-6.642-12.614a1.342,1.342,0,1,1,2.375-1.251l6.643,12.615a4.231,4.231,0,1,0,7.487-3.943L491.169,440a9.8,9.8,0,0,0-13.243-4.107,1.342,1.342,0,0,1-1.251-2.375,12.479,12.479,0,0,1,16.869,5.231l5.631,10.693a6.921,6.921,0,0,1-6.11,10.141Z" transform="translate(7620.563 -6793.035)"/>
      <path id="Trazado_130552" data-name="Trazado 130552" d="M446.709,449.965a1.9,1.9,0,1,1-1.5-2.227,1.9,1.9,0,0,1,1.5,2.227" transform="translate(7635.854 -6800.271)"/>
      <path id="Trazado_130553" data-name="Trazado 130553" d="M475.15,455.468a1.9,1.9,0,1,1-1.5-2.227,1.9,1.9,0,0,1,1.5,2.227" transform="translate(7622.682 -6802.819)"/>
      <path id="Trazado_130554" data-name="Trazado 130554" d="M603.629,473.969a1.342,1.342,0,0,1-.374-2.631,23.572,23.572,0,0,0,9.286-5.142,29.636,29.636,0,0,0,7.734-11.978,1.342,1.342,0,1,1,2.519.929,32.277,32.277,0,0,1-8.455,13.043A26.234,26.234,0,0,1,604,473.915,1.343,1.343,0,0,1,603.629,473.969Z" transform="translate(7562.054 -6802.881)"/>
      <path id="Trazado_130555" data-name="Trazado 130555" d="M616.174,465.125a1.342,1.342,0,0,1-.935-2.305,26.31,26.31,0,0,0,3.636-4.425,1.342,1.342,0,1,1,2.243,1.475,28.99,28.99,0,0,1-4.01,4.876A1.337,1.337,0,0,1,616.174,465.125Z" transform="translate(7556.244 -6804.942)"/>
    </g>
  </g>
</svg>
