<svg xmlns="http://www.w3.org/2000/svg" xmlns:xlink="http://www.w3.org/1999/xlink" width="70.604" height="70.604" viewBox="0 0 70.604 70.604">
  <defs>
    <clipPath id="clip-path">
      <rect id="Rectángulo_37507" data-name="Rectángulo 37507" width="35.835" height="35.852" transform="translate(0 0)" fill="none"/>
    </clipPath>
  </defs>
  <g id="_13" data-name="13" transform="translate(-0.209 -0.5)">
    <path id="Trazado_127482" data-name="Trazado 127482" d="M35.3,0A35.3,35.3,0,1,1,0,35.3,35.3,35.3,0,0,1,35.3,0Z" transform="translate(0.209 0.5)" fill="#d7e4f6"/>
    <g id="Grupo_156595" data-name="Grupo 156595" transform="translate(-2.488 -0.753)">
      <path id="Trazado_127053" data-name="Trazado 127053" d="M15.791,124.4c.5.111.616-.124.611-.592-.013-1.171.007-1.192,1.219-1.185.451,0,.591-.137.582-.583-.008-.416-.084-.609-.564-.607-1.216,0-1.247-.02-1.234-1.233.006-.549-.263-.559-.67-.563s-.618.064-.618.551c0,1.229-.025,1.251-1.225,1.246-.464,0-.574.166-.575.6s.109.6.573.594c1.224-.007,1.253.016,1.226,1.175-.013.538.186.7.674.6" transform="translate(44.527 -83.657)"/>
      <path id="Trazado_127054" data-name="Trazado 127054" d="M213.8,151.163c-.448-.085-.7.063-.622.57.062.424-.085.661-.555.588s-.628.1-.631.591c0,.518.208.638.649.578.422-.057.556.127.547.546-.013.657.394.91,1.03.711.3-.094.236-.335.216-.526-.053-.52.066-.838.679-.734.475.081.5-.217.5-.581s-.015-.659-.5-.585c-.519.08-.765-.11-.678-.658.082-.524-.254-.547-.641-.5" transform="translate(-190.74 -97.489)" fill="#29c4bb"/>
      <path id="Trazado_127055" data-name="Trazado 127055" d="M207.483,69.434c-.116.5.113.67.581.592.507-.085.714.123.625.627-.087.488.124.6.6.609s.671-.14.586-.614c-.091-.505.12-.714.622-.62.52.1.566-.174.585-.612.023-.514-.176-.648-.623-.57-.486.085-.668-.116-.585-.591.079-.454-.068-.638-.574-.62-.446.016-.7.079-.609.591s-.127.7-.625.62c-.469-.079-.7.089-.58.589" transform="translate(-189.828 -50.058)"/>
      <path id="Trazado_127056" data-name="Trazado 127056" d="M51.807,186.809c-.109.466.121.637.587.553.547-.1.677.186.6.647-.087.513.161.592.611.589.43,0,.661-.1.571-.564-.119-.609.186-.759.711-.669s.513-.248.515-.617-.008-.66-.494-.564c-.654.129-.821-.185-.733-.77.085-.56-.342-.4-.627-.416-.3-.018-.638-.057-.55.429.109.6-.1.88-.738.758-.531-.1-.466.268-.45.624" transform="translate(-7.435 -129.47)"/>
      <path id="Trazado_127057" data-name="Trazado 127057" d="M125.364,17.591c.125-.532-.169-.635-.6-.571-.452.067-.63-.12-.561-.565s-.063-.648-.576-.637c-.471.01-.686.132-.6.615s-.145.657-.61.587c-.431-.064-.647.039-.649.565s.2.684.67.609c.5-.079.665.147.588.61-.086.52.193.579.63.588.467.01.62-.166.551-.595-.075-.47.1-.685.589-.6s.683-.117.577-.6" transform="translate(-79.237 -1.816)" fill="#29c4bb"/>
    </g>
    <g id="Grupo_157380" data-name="Grupo 157380" transform="translate(17.208 17.5)">
      <g id="Grupo_157380-2" data-name="Grupo 157380" transform="translate(0 0)" clip-path="url(#clip-path)">
        <path id="Trazado_129221" data-name="Trazado 129221" d="M7.522,50.418a.606.606,0,0,1,.526,0A5.219,5.219,0,0,0,11,50.8a5.38,5.38,0,0,0,.647-10.485c.117-.239.226-.46.333-.683.777-1.622.771-.979-.014-2.639a.717.717,0,0,0-.732-.457q-1.062.021-2.125,0a.714.714,0,0,0-.729.461c-.176.379-.373.748-.594,1.188-.23-.461-.426-.847-.616-1.237a.659.659,0,0,0-.648-.41q-1.118.009-2.237,0a.66.66,0,0,0-.651.405c-.169.346-.337.691-.516,1.032a.714.714,0,0,0,0,.709c.228.441.426.9.674,1.327.151.262.081.326-.177.417a5.371,5.371,0,1,0,3.914,10m.493-1.684a.312.312,0,0,1-.477-.01,4.185,4.185,0,0,1,0-6.471.328.328,0,0,1,.506.011,4.155,4.155,0,0,1-.024,6.47m1.592-11c.186,0,.372,0,.558,0h.447a.566.566,0,0,1,.544.862c-.214.434-.435.864-.646,1.3a.366.366,0,0,1-.678.008c-.227-.469-.47-.93-.7-1.4a.585.585,0,0,1,.47-.769m3.838,5.177a4.163,4.163,0,0,1-4.437,6.576,5.419,5.419,0,0,0,.021-7.972,4.09,4.09,0,0,1,4.416,1.4M7.781,38.472c.305.607.583,1.162.864,1.715.06.119-.008.139-.1.175-.443.176-.877.417-1.349.063a1.344,1.344,0,0,0-.329-.124l.913-1.829m-2.865-.742c.161,0,.323,0,.484,0h.41a.575.575,0,0,1,.554.9c-.21.422-.427.842-.631,1.267a.367.367,0,0,1-.679-.008c-.216-.447-.445-.888-.664-1.334a.566.566,0,0,1,.524-.829M2.07,48.007A4.17,4.17,0,0,1,2,43.069a4.115,4.115,0,0,1,4.548-1.564,5.411,5.411,0,0,0-.013,7.956A4.094,4.094,0,0,1,2.07,48.007" transform="translate(0 -25.786)"/>
        <path id="Trazado_129222" data-name="Trazado 129222" d="M86.6,47.3c-.286.008-.344-.077-.343-.35q.017-3.635.006-7.27a2.986,2.986,0,0,0-3.142-3.13q-2.777,0-5.555,0a3,3,0,0,0-3.239,3.221c0,2.361-.008,4.722.009,7.083,0,.349-.063.471-.436.449-.562-.034-.764.191-.766.75,0,.659,0,1.317,0,1.976s.177.845.831.845H80.3q3.206,0,6.412,0c.533,0,.74-.211.742-.747,0-.659,0-1.317,0-1.976,0-.684-.169-.867-.857-.849m-1.533-7.838c0,2.51,0,5.02.006,7.531,0,.221-.059.3-.292.305-.905.02-.905.029-.905-.882,0-2.013,0-4.026,0-6.039a3.9,3.9,0,0,0-.53-2.607,1.759,1.759,0,0,1,1.723,1.693m-9.546.128a1.791,1.791,0,0,1,1.828-1.847q1.752-.008,3.5,0a1.787,1.787,0,0,1,1.827,1.846c0,1.205,0,2.411,0,3.616,0,1.243-.007,2.485.006,3.728,0,.264-.048.367-.343.365q-3.244-.019-6.487,0c-.294,0-.344-.1-.344-.364.009-2.448,0-4.9.007-7.344m9.949,10.089c-3.564,0-7.128-.005-10.692.008-.345,0-.477-.062-.462-.44.031-.761.008-.762.765-.762h5.216c1.85,0,3.7.007,5.551-.006.311,0,.435.053.424.4-.025.8-.005.8-.8.8" transform="translate(-51.62 -25.795)"/>
        <path id="Trazado_129223" data-name="Trazado 129223" d="M41.316,13.7a.611.611,0,0,0,1-.008c2.068-2.064,4.144-4.12,6.192-6.2A4.282,4.282,0,0,0,49.726,3.7,4.4,4.4,0,0,0,43.4.487a.6.6,0,0,0-.22.988c.227.311.456.621.7.915a.29.29,0,0,1,.009.442c-.446.566-.866,1.152-1.3,1.724a.652.652,0,0,0-.026.854c.249.357.476.728.729,1.081a.26.26,0,0,1-.04.406c-.405.386-.791.791-1.191,1.183a.663.663,0,0,0-.187.774,9.79,9.79,0,0,0,.336.985c.256.5.017.894-.223,1.413a3.342,3.342,0,0,0-.7-1.859c-.15-.18-.254-.4-.4-.583a.327.327,0,0,1,0-.459c.255-.351.488-.72.727-1.082.281-.427.279-.568-.021-.972C41.2,5.768,40.8,5.238,40.4,4.718c-.119-.154-.1-.235.053-.348q.844-.613,1.67-1.252a.586.586,0,0,0,.073-.961,14.63,14.63,0,0,0-1.092-1.07A4.211,4.211,0,0,0,37.246.129,4.371,4.371,0,0,0,35.124,7.5c2.032,2.1,4.123,4.14,6.191,6.2m2.2-5.395a13.209,13.209,0,0,0,.955-.941c.4-.405.424-.6.115-1.07-.232-.352-.456-.711-.705-1.051a.313.313,0,0,1,.019-.451c.443-.567.862-1.153,1.3-1.724a.657.657,0,0,0,0-.911c-.21-.259-.405-.531-.639-.84a3.111,3.111,0,0,1,2.761.538,3.131,3.131,0,0,1,.508,4.583c-1.367,1.472-2.847,2.839-4.3,4.277a1.864,1.864,0,0,0-.259-1.4.763.763,0,0,1,.244-1.015M37.363,1.331A3.2,3.2,0,0,1,40.755,2.4c.154.165.048.226-.068.312q-.761.569-1.519,1.141a.62.62,0,0,0-.142,1.014c.429.579.854,1.161,1.3,1.727a.314.314,0,0,1,.008.451c-.267.373-.509.765-.769,1.144a.637.637,0,0,0,0,.794c.226.327.429.67.667.988a2.538,2.538,0,0,1,.563,1.5c-.066-.056-.116-.092-.159-.135-1.564-1.564-3.144-3.112-4.688-4.7a3.177,3.177,0,0,1,1.411-5.307" transform="translate(-23.882 0)"/>
        <path id="Trazado_129224" data-name="Trazado 129224" d="M54.674,100.472a1.873,1.873,0,0,0-1.235-1.7c-.751-.321-1.505-.637-2.253-.966a.56.56,0,0,0-.494,0c-.794.348-1.6.661-2.389,1.027a1.836,1.836,0,0,0-1.1,1.6c-.1,1.118-.236,2.233-.353,3.35-.036.344-.058.689-.086,1.034h8.348q-.135-1.326-.269-2.652c-.058-.565-.129-1.129-.169-1.7" transform="translate(-33.01 -69)" fill="#4483d0"/>
        <path id="Trazado_129225" data-name="Trazado 129225" d="M53.158,84.231c-.049-.494-.086-.99-.153-1.482a2.949,2.949,0,0,0-1.791-2.431c-.67-.3-1.35-.585-2.146-.929a6.629,6.629,0,0,0,.533-.429,2.659,2.659,0,0,0,.828-1.629,34.651,34.651,0,0,0,.032-3.761.533.533,0,0,0-.592-.5c-.422-.008-.845-.01-1.268,0a2.924,2.924,0,0,0-2.825,2.412,3.71,3.71,0,0,0,1.072,3.748c.184.155.149.234-.061.319q-.9.366-1.78.757a2.838,2.838,0,0,0-1.8,2.3c-.2,1.5-.319,3.013-.473,4.52-.011.106-.017.2.129.213a3.694,3.694,0,0,0,1.052.054h0c-.2-.309-.041-.634-.012-.939.112-1.162.217-2.324.351-3.483a2,2,0,0,1,1.267-1.7c.729-.316,1.462-.627,2.192-.941a.9.9,0,0,1,.754,0c.777.331,1.564.645,2.327,1a1.861,1.861,0,0,1,1.11,1.494c.18,1.416.289,2.841.441,4.26a.324.324,0,0,1-.081.31,3.287,3.287,0,0,0,.942-.035c.211,0,.257-.1.234-.306-.106-.938-.192-1.878-.285-2.817m-4.882-5.638c-.1.08-.178.194-.307.053a4.192,4.192,0,0,1-.925-1.105,2.776,2.776,0,0,1,.489-2.84,2,2,0,0,1,1.6-.44c.189.013.154.162.155.28,0,.422,0,.845,0,1.267a3.806,3.806,0,0,0,0,.521,2.381,2.381,0,0,1-1.015,2.264" transform="translate(-30.164 -51.571)"/>
        <path id="Trazado_129226" data-name="Trazado 129226" d="M54.955,104.311c-.152-1.419-.261-2.844-.441-4.26a1.861,1.861,0,0,0-1.11-1.494c-.764-.359-1.55-.673-2.327-1a.9.9,0,0,0-.754,0c-.73.314-1.462.625-2.192.942a2,2,0,0,0-1.267,1.7c-.133,1.159-.239,2.322-.351,3.483-.029.3-.188.631.012.939.028-.344.05-.69.086-1.034.116-1.117.249-2.232.353-3.35a1.836,1.836,0,0,1,1.1-1.6c.785-.366,1.594-.679,2.388-1.027a.56.56,0,0,1,.494,0c.748.329,1.5.645,2.254.966a1.873,1.873,0,0,1,1.235,1.7c.04.566.112,1.13.169,1.7q.135,1.326.27,2.652a.324.324,0,0,0,.081-.31" transform="translate(-32.771 -68.801)"/>
        <path id="Trazado_129227" data-name="Trazado 129227" d="M16.053,94.507a16.652,16.652,0,0,1-7.885-7.113c-.407-.708-.4-.7-1.136-.346-.257.123-.3.222-.158.49a18.027,18.027,0,0,0,4.764,5.714,17.648,17.648,0,0,0,4.056,2.4c.076.032.191.162.256.029.154-.31.276-.636.415-.963-.04-.162-.2-.166-.313-.215" transform="translate(-4.795 -61.278)"/>
        <path id="Trazado_129228" data-name="Trazado 129228" d="M91.813,89a4.736,4.736,0,0,1-.485-.275c-.283-.207-.434-.19-.634.152a16.608,16.608,0,0,1-7.3,6.693c-.252.121-.656.151-.716.389s.189.516.276.786c.074.232.165.265.4.163A17.992,17.992,0,0,0,91.8,89.384c.044-.075.086-.151.134-.234.016-.091-.061-.117-.123-.152" transform="translate(-58.358 -62.533)"/>
        <path id="Trazado_129229" data-name="Trazado 129229" d="M92.779,11.4a16.571,16.571,0,0,1,4.674,4.9c.156.248.244.663.488.7s.514-.251.782-.38c.187-.09.211-.178.1-.364a18.07,18.07,0,0,0-5.463-5.915l-.175-.118c-.1.014-.124.093-.164.151a5.812,5.812,0,0,1-.334.492c-.193.228-.175.357.09.539" transform="translate(-65.336 -7.211)"/>
        <path id="Trazado_129230" data-name="Trazado 129230" d="M8.243,16.826a1.67,1.67,0,0,1,.423.232c.177.131.26.082.362-.1a16.7,16.7,0,0,1,5.08-5.512c.068-.047.164-.072.169-.2l-.341-.517c-.287-.434-.287-.434-.721-.126a18.306,18.306,0,0,0-5.139,5.572c-.2.326-.219.505.166.644" transform="translate(-5.604 -7.337)"/>
        <path id="Trazado_129231" data-name="Trazado 129231" d="M15.439,42.767a.368.368,0,0,0,.679.008c.2-.425.42-.845.63-1.267a.575.575,0,0,0-.554-.9H15.3a.566.566,0,0,0-.524.829c.219.446.447.887.663,1.334" transform="translate(-10.384 -28.661)" fill="#81c3b6"/>
        <path id="Trazado_129232" data-name="Trazado 129232" d="M31.667,42.771a.367.367,0,0,0,.679-.008c.211-.435.431-.866.645-1.3a.566.566,0,0,0-.544-.862H32c-.186,0-.372,0-.558,0a.585.585,0,0,0-.47.769c.225.47.469.931.7,1.4" transform="translate(-21.834 -28.658)" fill="#70b4a7"/>
        <path id="Trazado_129233" data-name="Trazado 129233" d="M81.574,50.154q3.243-.019,6.487,0c.3,0,.345-.1.343-.365-.012-1.243-.005-2.485-.006-3.728,0-1.205,0-2.411,0-3.616A1.788,1.788,0,0,0,86.569,40.6q-1.752-.008-3.5,0a1.791,1.791,0,0,0-1.828,1.847c0,2.448,0,4.9-.007,7.344,0,.265.05.366.344.364m4.174-1.8h-.93c-.509,0-1.017-.005-1.526,0-.18,0-.259-.04-.271-.245-.053-.952-.06-.952.9-.952.781,0,1.563.008,2.344,0,.245,0,.347.046.347.322,0,.877.011.877-.867.877m.614-2.4a14.1,14.1,0,0,1-1.562.013c-.509,0-1.017-.007-1.526,0-.386.007-.269-.294-.233-.445.059-.251-.266-.71.231-.735,1.027-.051,2.059-.01,3.088-.018.386,0,.268.294.233.445-.059.251.267.682-.231.737m-3.11-3.568h1.564c.683,0,1.365.009,2.048,0,.244,0,.348.044.348.321,0,.877.012.877-.867.877-1.179,0-2.358-.007-3.537.005-.272,0-.393-.042-.387-.359.016-.84,0-.84.831-.84" transform="translate(-57.338 -28.655)" fill="#81c3b6"/>
        <path id="Trazado_129234" data-name="Trazado 129234" d="M88.686,77.107c-1.85.014-3.7.007-5.551.007H77.919c-.757,0-.734,0-.765.761-.015.377.117.441.462.44,3.564-.012,7.128-.008,10.692-.008.8,0,.776,0,.8-.8.011-.348-.113-.4-.424-.4" transform="translate(-54.46 -54.428)" fill="#71b4a7"/>
        <path id="Trazado_129235" data-name="Trazado 129235" d="M108.378,43.3c.006,2.013,0,4.026,0,6.039,0,.91,0,.9.905.882.234-.005.293-.084.292-.305-.006-2.51,0-5.02-.006-7.531a1.759,1.759,0,0,0-1.723-1.693,3.9,3.9,0,0,1,.53,2.607" transform="translate(-76.127 -28.72)" fill="#6aa99d"/>
        <path id="Trazado_129236" data-name="Trazado 129236" d="M43.5,14.208c.043.043.092.079.159.135a2.535,2.535,0,0,0-.563-1.5c-.238-.318-.441-.661-.667-.988a.637.637,0,0,1,0-.794c.26-.379.5-.77.769-1.144a.313.313,0,0,0-.008-.451c-.446-.566-.871-1.148-1.3-1.727a.62.62,0,0,1,.142-1.014c.5-.383,1.012-.762,1.519-1.142.115-.086.221-.147.068-.312a3.207,3.207,0,1,0-4.8,4.241c1.544,1.584,3.123,3.132,4.688,4.7" transform="translate(-26.744 -2.874)" fill="#f8bda4"/>
        <path id="Trazado_129237" data-name="Trazado 129237" d="M65.954,13.61c1.457-1.438,2.936-2.805,4.3-4.277a3.182,3.182,0,0,0-3.269-5.121c.234.309.43.581.639.84a.657.657,0,0,1,0,.911c-.439.57-.858,1.157-1.3,1.724a.312.312,0,0,0-.02.45c.25.34.473.7.705,1.051.309.469.288.665-.115,1.07a13.145,13.145,0,0,1-.955.941.763.763,0,0,0-.244,1.015,1.864,1.864,0,0,1,.259,1.4" transform="translate(-46.306 -2.892)" fill="#f8bda4"/>
        <path id="Trazado_129238" data-name="Trazado 129238" d="M59.176,79.187a3.756,3.756,0,0,1,0-.521c0-.422,0-.845,0-1.267,0-.118.034-.267-.155-.28a1.994,1.994,0,0,0-1.6.44,2.775,2.775,0,0,0-.489,2.84,4.192,4.192,0,0,0,.925,1.105c.129.141.21.028.307-.053a2.381,2.381,0,0,0,1.015-2.264" transform="translate(-40.05 -54.428)" fill="#4483d0"/>
        <path id="Trazado_129239" data-name="Trazado 129239" d="M85.664,47.879c1.179-.012,2.358-.005,3.537-.005.878,0,.866,0,.867-.877,0-.277-.1-.326-.348-.321-.682.014-1.365,0-2.048,0H86.108c-.831,0-.814,0-.831.84-.006.316.115.362.387.359" transform="translate(-60.195 -32.947)"/>
        <path id="Trazado_129240" data-name="Trazado 129240" d="M90.817,55.227c.036-.151.153-.448-.233-.445-1.029.008-2.061-.033-3.088.018-.5.025-.171.484-.231.735-.036.151-.153.452.233.445.508-.01,1.017,0,1.526,0a14.177,14.177,0,0,0,1.562-.013c.5-.056.172-.486.231-.738" transform="translate(-61.563 -38.663)"/>
        <path id="Trazado_129241" data-name="Trazado 129241" d="M90.52,62.908c-.782.013-1.563,0-2.344,0-.962,0-.955,0-.9.952.011.2.09.247.271.245.509-.008,1.017,0,1.526,0H90c.878,0,.866,0,.867-.877,0-.276-.1-.326-.347-.322" transform="translate(-61.59 -44.405)"/>
      </g>
    </g>
  </g>
</svg>
