<svg xmlns="http://www.w3.org/2000/svg" xmlns:xlink="http://www.w3.org/1999/xlink" width="70.604" height="70.604" viewBox="0 0 70.604 70.604">
  <defs>
    <clipPath id="clip-path">
      <rect id="Rectángulo_37505" data-name="Rectángulo 37505" width="34.372" height="30.947" transform="translate(0 0)" fill="none"/>
    </clipPath>
  </defs>
  <g id="_14" data-name="14" transform="translate(-0.209 -0.5)">
    <path id="Trazado_127482" data-name="Trazado 127482" d="M35.3,0A35.3,35.3,0,1,1,0,35.3,35.3,35.3,0,0,1,35.3,0Z" transform="translate(0.209 0.5)" fill="#d7e4f6"/>
    <g id="Grupo_156595" data-name="Grupo 156595" transform="translate(-2.488 -0.753)">
      <path id="Trazado_127053" data-name="Trazado 127053" d="M15.791,124.4c.5.111.616-.124.611-.592-.013-1.171.007-1.192,1.219-1.185.451,0,.591-.137.582-.583-.008-.416-.084-.609-.564-.607-1.216,0-1.247-.02-1.234-1.233.006-.549-.263-.559-.67-.563s-.618.064-.618.551c0,1.229-.025,1.251-1.225,1.246-.464,0-.574.166-.575.6s.109.6.573.594c1.224-.007,1.253.016,1.226,1.175-.013.538.186.7.674.6" transform="translate(44.527 -83.657)"/>
      <path id="Trazado_127054" data-name="Trazado 127054" d="M213.8,151.163c-.448-.085-.7.063-.622.57.062.424-.085.661-.555.588s-.628.1-.631.591c0,.518.208.638.649.578.422-.057.556.127.547.546-.013.657.394.91,1.03.711.3-.094.236-.335.216-.526-.053-.52.066-.838.679-.734.475.081.5-.217.5-.581s-.015-.659-.5-.585c-.519.08-.765-.11-.678-.658.082-.524-.254-.547-.641-.5" transform="translate(-190.74 -97.489)" fill="#29c4bb"/>
      <path id="Trazado_127055" data-name="Trazado 127055" d="M207.483,69.434c-.116.5.113.67.581.592.507-.085.714.123.625.627-.087.488.124.6.6.609s.671-.14.586-.614c-.091-.505.12-.714.622-.62.52.1.566-.174.585-.612.023-.514-.176-.648-.623-.57-.486.085-.668-.116-.585-.591.079-.454-.068-.638-.574-.62-.446.016-.7.079-.609.591s-.127.7-.625.62c-.469-.079-.7.089-.58.589" transform="translate(-189.828 -50.058)"/>
      <path id="Trazado_127056" data-name="Trazado 127056" d="M51.807,186.809c-.109.466.121.637.587.553.547-.1.677.186.6.647-.087.513.161.592.611.589.43,0,.661-.1.571-.564-.119-.609.186-.759.711-.669s.513-.248.515-.617-.008-.66-.494-.564c-.654.129-.821-.185-.733-.77.085-.56-.342-.4-.627-.416-.3-.018-.638-.057-.55.429.109.6-.1.88-.738.758-.531-.1-.466.268-.45.624" transform="translate(-7.435 -129.47)"/>
      <path id="Trazado_127057" data-name="Trazado 127057" d="M125.364,17.591c.125-.532-.169-.635-.6-.571-.452.067-.63-.12-.561-.565s-.063-.648-.576-.637c-.471.01-.686.132-.6.615s-.145.657-.61.587c-.431-.064-.647.039-.649.565s.2.684.67.609c.5-.079.665.147.588.61-.086.52.193.579.63.588.467.01.62-.166.551-.595-.075-.47.1-.685.589-.6s.683-.117.577-.6" transform="translate(-79.237 -1.816)" fill="#29c4bb"/>
    </g>
    <g id="Grupo_157378" data-name="Grupo 157378" transform="translate(18.209 20.5)">
      <g id="Grupo_157378-2" data-name="Grupo 157378" transform="translate(0 0)" clip-path="url(#clip-path)">
        <path id="Trazado_129190" data-name="Trazado 129190" d="M13.212,1.176c.3-.382.475-.423.919-.215a9.75,9.75,0,0,1,2.409,1.626c.073.066.146.13.221.2.108-.086.112-.206.153-.3A4,4,0,0,1,22.663.573a.424.424,0,0,0,.507.005,3.93,3.93,0,0,1,4.867.611.364.364,0,0,0,.383.107,4.258,4.258,0,0,1,5.307,3.42,4.075,4.075,0,0,1-.551,2.932c-.11.181-.122.282.043.443A3.866,3.866,0,0,1,34.3,10.135c.012.06-.017.14.072.167v.2a1.344,1.344,0,0,0,0,.671v.336a1.553,1.553,0,0,0-.181.556,3.9,3.9,0,0,1-.9,1.549.283.283,0,0,0-.05.4,3.985,3.985,0,0,1-2.645,5.946c-.2.047-.239.13-.249.313a4,4,0,0,1-3.719,3.778c-.207.015-.278.062-.3.279a3.964,3.964,0,0,1-3.661,3.722c-.24.028-.32.09-.356.34a2.842,2.842,0,0,1-4.4,2.076c-.112-.068-.169-.132-.281.033a.843.843,0,0,1-1.417.107q-2.423-2.443-4.839-4.892Q7.189,21.483,3,17.246A10.077,10.077,0,0,1,8.655.089C8.976.05,9.3.035,9.624.013a.569.569,0,0,1,.668.469c.1.471-.142.762-.689.773a7.919,7.919,0,0,0-2.016.311A8.439,8.439,0,0,0,3.705,3.919,8.6,8.6,0,0,0,1.286,9.214a8.5,8.5,0,0,0,2.4,6.939c1.872,1.937,3.746,3.875,5.669,5.764.838.823,1.684,1.639,2.488,2.495,1.417,1.509,2.908,2.943,4.36,4.417a1.417,1.417,0,0,0,.247.226.592.592,0,0,0,.037-.338q0-11.963.008-23.925a1.153,1.153,0,0,0-.358-.891A10.072,10.072,0,0,0,13.68,2.105a1.228,1.228,0,0,1-.46-.328c-.143-.2-.213-.4-.008-.6" transform="translate(0 0)"/>
        <path id="Trazado_129191" data-name="Trazado 129191" d="M128.078,39.875a.755.755,0,0,1,0-.671Z" transform="translate(-93.706 -28.701)" fill="#494949"/>
        <path id="Trazado_129192" data-name="Trazado 129192" d="M16.34,2.491a.592.592,0,0,0,.372.786,9.5,9.5,0,0,1,2.84,2.106.555.555,0,0,1,.176.411q-.006,12.32,0,24.64c0,.044-.006.088-.01.136-.134.037-.176-.08-.238-.143q-6.34-6.406-12.669-12.822a8.623,8.623,0,0,1-2.525-6.641,8.856,8.856,0,0,1,7.392-8.4,9.589,9.589,0,0,1,1.035-.089c.507-.027.685-.192.71-.683.075.126.209.12.324.127a9.435,9.435,0,0,1,2.6.567" transform="translate(-3.128 -1.316)" fill="#ed5e69"/>
        <path id="Trazado_129193" data-name="Trazado 129193" d="M77.882,11.394a2.814,2.814,0,0,1,3.375,1.055A2.862,2.862,0,0,1,79.572,16.8a2.675,2.675,0,0,0-.324.085.567.567,0,0,0-.347.678.559.559,0,0,0,.638.419,3.174,3.174,0,0,0,.925-.288c.167-.087.244-.046.337.11a2.859,2.859,0,1,1-5.022,2.733c-.107-.206-.1-.3.147-.368A3.183,3.183,0,0,0,77.551,19.1a.571.571,0,1,0-.852-.754,2.331,2.331,0,0,1-3.2.357.553.553,0,0,0-.829.094.57.57,0,0,0,.181.842,3.138,3.138,0,0,0,1.364.611.372.372,0,0,1,.319.28A3.88,3.88,0,0,0,77.473,23.1c.2.045.252.11.247.3a2.913,2.913,0,0,1-2.829,2.659c-.167-.008-.224-.081-.278-.224a3.947,3.947,0,0,0-1.954-2.2c-.162-.083-.178-.141-.077-.293a3.33,3.33,0,0,0,.559-1.7c.024-.437-.195-.726-.545-.743s-.565.239-.6.662a2.307,2.307,0,0,1-2.2,2.206c-.425.032-.682.262-.663.594.02.356.311.578.742.547a3.256,3.256,0,0,0,1.379-.378.578.578,0,0,1,.51-.031,2.858,2.858,0,0,1-.87,5.569,2.911,2.911,0,0,1-1.533-.423c-.394-.233-.715-.175-.9.14s-.067.608.332.852a2.953,2.953,0,0,0,.727.338c.158.045.2.144.194.3a1.718,1.718,0,0,1-1.7,1.648,1.69,1.69,0,0,1-1.728-1.609c-.006-.112-.005-.224-.005-.336,0-7.888.011-15.776-.01-23.665a2.923,2.923,0,0,1,2.039-2.906,2.876,2.876,0,0,1,2.029.14c.186.084.222.154.089.338a3.584,3.584,0,0,0-.645,1.566.3.3,0,0,1-.243.276,1.893,1.893,0,0,0-.855.509.571.571,0,0,0-.053.786.58.58,0,0,0,.787.083c.763-.518.968-.517,1.74,0a.588.588,0,0,0,.788-.091.559.559,0,0,0-.061-.785,1.841,1.841,0,0,0-.764-.471c-.187-.057-.211-.152-.175-.32a2.9,2.9,0,0,1,2.415-2.136,2.86,2.86,0,0,1,3.217,2.751c.022.413.263.679.6.664s.547-.28.545-.707a3.255,3.255,0,0,0-.247-1.242c-.1-.241-.033-.3.2-.326A3.159,3.159,0,0,1,80.718,10.2c-.086.147-.161.19-.342.118a3.827,3.827,0,0,0-3.184.089.351.351,0,0,1-.368-.021,2.679,2.679,0,0,0-1.31-.364.572.572,0,1,0-.059,1.141,1.727,1.727,0,0,1,1.706,1.655c.054.454.285.676.651.626.347-.047.531-.358.483-.79a3.226,3.226,0,0,0-.412-1.261" transform="translate(-48.514 -3.142)" fill="#ec8cc1"/>
        <path id="Trazado_129194" data-name="Trazado 129194" d="M15.852,8.594h.235c.411,0,.642.208.643.564a.579.579,0,0,1-.644.577,6.47,6.47,0,0,0-6.35,5.833c-.013.156-.035.311-.051.466a.552.552,0,0,1-.613.561.57.57,0,0,1-.527-.622,7.309,7.309,0,0,1,.518-2.447,7.6,7.6,0,0,1,5.824-4.832,4.181,4.181,0,0,1,.966-.1" transform="translate(-6.255 -6.29)"/>
        <path id="Trazado_129195" data-name="Trazado 129195" d="M10.135,42.758c.567.054.573.562.713.953a.562.562,0,0,1-.284.709.539.539,0,0,1-.757-.272,3.6,3.6,0,0,1-.242-.728.58.58,0,0,1,.571-.662" transform="translate(-6.994 -31.303)"/>
        <path id="Trazado_129196" data-name="Trazado 129196" d="M72.685,38.074a4.058,4.058,0,0,1,3.83-3.854c.457-.016.723.177.741.538s-.2.576-.671.607a2.882,2.882,0,0,0-2.755,2.764c-.031.459-.242.686-.616.661-.348-.023-.54-.282-.529-.717" transform="translate(-53.211 -25.051)"/>
      </g>
    </g>
  </g>
</svg>
