<svg xmlns="http://www.w3.org/2000/svg" xmlns:xlink="http://www.w3.org/1999/xlink" width="70.604" height="70.604" viewBox="0 0 70.604 70.604">
  <defs>
    <clipPath id="clip-path">
      <rect id="Rectángulo_37504" data-name="Rectángulo 37504" width="33.399" height="29.21" fill="none"/>
    </clipPath>
  </defs>
  <g id="_15" data-name="15" transform="translate(-0.209 -0.5)">
    <path id="Trazado_127482" data-name="Trazado 127482" d="M35.3,0A35.3,35.3,0,1,1,0,35.3,35.3,35.3,0,0,1,35.3,0Z" transform="translate(0.209 0.5)" fill="#d7e4f6"/>
    <g id="Grupo_156595" data-name="Grupo 156595" transform="translate(-2.488 -0.753)">
      <path id="Trazado_127053" data-name="Trazado 127053" d="M15.791,124.4c.5.111.616-.124.611-.592-.013-1.171.007-1.192,1.219-1.185.451,0,.591-.137.582-.583-.008-.416-.084-.609-.564-.607-1.216,0-1.247-.02-1.234-1.233.006-.549-.263-.559-.67-.563s-.618.064-.618.551c0,1.229-.025,1.251-1.225,1.246-.464,0-.574.166-.575.6s.109.6.573.594c1.224-.007,1.253.016,1.226,1.175-.013.538.186.7.674.6" transform="translate(44.527 -83.657)"/>
      <path id="Trazado_127054" data-name="Trazado 127054" d="M213.8,151.163c-.448-.085-.7.063-.622.57.062.424-.085.661-.555.588s-.628.1-.631.591c0,.518.208.638.649.578.422-.057.556.127.547.546-.013.657.394.91,1.03.711.3-.094.236-.335.216-.526-.053-.52.066-.838.679-.734.475.081.5-.217.5-.581s-.015-.659-.5-.585c-.519.08-.765-.11-.678-.658.082-.524-.254-.547-.641-.5" transform="translate(-190.74 -97.489)" fill="#29c4bb"/>
      <path id="Trazado_127055" data-name="Trazado 127055" d="M207.483,69.434c-.116.5.113.67.581.592.507-.085.714.123.625.627-.087.488.124.6.6.609s.671-.14.586-.614c-.091-.505.12-.714.622-.62.52.1.566-.174.585-.612.023-.514-.176-.648-.623-.57-.486.085-.668-.116-.585-.591.079-.454-.068-.638-.574-.62-.446.016-.7.079-.609.591s-.127.7-.625.62c-.469-.079-.7.089-.58.589" transform="translate(-189.828 -50.058)"/>
      <path id="Trazado_127056" data-name="Trazado 127056" d="M51.807,186.809c-.109.466.121.637.587.553.547-.1.677.186.6.647-.087.513.161.592.611.589.43,0,.661-.1.571-.564-.119-.609.186-.759.711-.669s.513-.248.515-.617-.008-.66-.494-.564c-.654.129-.821-.185-.733-.77.085-.56-.342-.4-.627-.416-.3-.018-.638-.057-.55.429.109.6-.1.88-.738.758-.531-.1-.466.268-.45.624" transform="translate(-7.435 -129.47)"/>
      <path id="Trazado_127057" data-name="Trazado 127057" d="M125.364,17.591c.125-.532-.169-.635-.6-.571-.452.067-.63-.12-.561-.565s-.063-.648-.576-.637c-.471.01-.686.132-.6.615s-.145.657-.61.587c-.431-.064-.647.039-.649.565s.2.684.67.609c.5-.079.665.147.588.61-.086.52.193.579.63.588.467.01.62-.166.551-.595-.075-.47.1-.685.589-.6s.683-.117.577-.6" transform="translate(-79.237 -1.816)" fill="#29c4bb"/>
    </g>
    <g id="Grupo_157377" data-name="Grupo 157377" transform="translate(19.013 21.197)">
      <g id="Grupo_157377-2" data-name="Grupo 157377" clip-path="url(#clip-path)">
        <path id="Trazado_129180" data-name="Trazado 129180" d="M33.4.572c0-.405-.165-.569-.579-.57-1.489,0-2.978,0-4.468,0a.5.5,0,0,0-.529.3A.5.5,0,0,0,28,.876c.341.335.669.684,1.018,1.011.158.147.153.23,0,.38q-1.028,1-2.029,2.029c-.181.187-.289.213-.529.06a9.682,9.682,0,0,0-10.8-.213.435.435,0,0,1-.539-.005A9.6,9.6,0,0,0,9.291,2.65,9.847,9.847,0,0,0,.247,10.32,5.858,5.858,0,0,1,0,11.473v.587a1.022,1.022,0,0,1,0,.783v.587c.081.033.058.106.065.167a8.606,8.606,0,0,0,.429,1.967A9.752,9.752,0,0,0,8.13,22.219c.213.045.261.118.257.312-.011.5-.009,1,0,1.5,0,.168-.047.227-.221.222-.413-.011-.826-.008-1.239,0-.372,0-.529.165-.532.541q-.007.946,0,1.891c0,.4.165.562.582.566s.8.007,1.207,0c.157,0,.208.047.2.2-.01.391-.008.783,0,1.174.006.415.162.577.569.581q.929.008,1.859,0c.405,0,.564-.168.57-.581.006-.391.008-.783,0-1.174,0-.155.039-.208.2-.2.413.011.826.008,1.239,0,.388-.005.549-.17.552-.563q.006-.929,0-1.859c0-.42-.151-.573-.563-.577s-.8-.009-1.206,0c-.173,0-.225-.053-.222-.222q.013-.766,0-1.533c0-.169.04-.241.226-.273a9.513,9.513,0,0,0,3.581-1.391.32.32,0,0,1,.406-.013,9.75,9.75,0,0,0,6.947,1.423A9.86,9.86,0,0,0,29,6.863c-.107-.155-.116-.236.025-.374q1.084-1.06,2.145-2.144c.119-.121.187-.125.307,0,.353.37.721.724,1.079,1.088a.479.479,0,0,0,.56.145.489.489,0,0,0,.28-.506c0-1.5,0-3,0-4.5M11.765,21.262c-.255.051-.513.092-.77.13-.385.057-.519.192-.521.574q-.008,1.321,0,2.642c0,.392.167.548.561.554s.8.009,1.207,0c.168,0,.231.041.221.217a6.548,6.548,0,0,0,0,.749c.01.18-.061.219-.226.215-.413-.01-.826-.008-1.239,0-.362,0-.514.152-.523.516-.01.38-.013.761,0,1.141.008.216-.039.327-.282.3-.288-.034-.662.122-.846-.066-.167-.172-.04-.54-.049-.821-.006-.184,0-.37,0-.554-.018-.362-.168-.508-.529-.513-.413-.005-.826-.009-1.239,0-.168,0-.233-.041-.224-.217a6.6,6.6,0,0,0,0-.75c-.011-.179.059-.219.223-.214.4.01.8.008,1.207,0s.555-.163.562-.555c.009-.446,0-.891,0-1.337,0-.424,0-.848,0-1.272s-.136-.552-.527-.6a8.969,8.969,0,1,1,3-.131m20.719-17.2c-.263-.263-.479-.48-.7-.7-.359-.357-.554-.362-.9-.015q-1.421,1.416-2.837,2.835c-.321.322-.327.477-.049.843a8.95,8.95,0,0,1-4.767,14.123,8.758,8.758,0,0,1-7.039-1.02c.274-.263.536-.5.782-.754.111-.115.193-.045.285,0a7.4,7.4,0,0,0,4.081.892,7.648,7.648,0,0,0,6.493-4.217c.176-.323.106-.506-.232-.725a.532.532,0,0,0-.6.337,6.762,6.762,0,0,1-6.6,3.689,6.465,6.465,0,0,1-2.529-.677c-.189-.09-.162-.153-.058-.3a9.824,9.824,0,0,0,0-11.748c-.113-.157-.132-.217.068-.319a6.9,6.9,0,0,1,9.7,4.572,6.394,6.394,0,0,1,.188,1.483.535.535,0,0,0,.46.605h0a.537.537,0,0,0,.461-.6A7.781,7.781,0,0,0,17.281,5.615c-.157.082-.258.1-.386-.05a4.318,4.318,0,0,0-.542-.517c-.173-.14-.116-.2.041-.292a8.69,8.69,0,0,1,3.075-1.1A8.852,8.852,0,0,1,26.4,5.421c.343.26.507.249.817-.061Q28.645,3.932,30.073,2.5c.32-.321.318-.531-.007-.854-.223-.222-.455-.433-.675-.641.064-.136.152-.088.216-.089.88,0,1.761,0,2.641-.007.184,0,.241.048.239.236-.009.945,0,1.889,0,2.916" transform="translate(0 0)"/>
        <path id="Trazado_129181" data-name="Trazado 129181" d="M0,55.626v.783a1.86,1.86,0,0,0,0-.783" transform="translate(0 -43.566)" fill="#121212"/>
        <path id="Trazado_129182" data-name="Trazado 129182" d="M0,55.626a1.86,1.86,0,0,1,0,.783,1.021,1.021,0,0,0,0-.783" transform="translate(0 -43.566)" fill="#121212"/>
        <path id="Trazado_129183" data-name="Trazado 129183" d="M21.988,23.636a8.965,8.965,0,1,0-9.918,10.6c.391.052.521.195.527.6s0,.848,0,1.272c0,.446.007.892,0,1.337-.008.392-.171.55-.562.555s-.8.008-1.207,0c-.165,0-.234.036-.223.214a6.6,6.6,0,0,1,0,.75c-.01.176.056.221.224.217.413-.011.826-.007,1.239,0,.361,0,.511.152.529.513.009.185,0,.37,0,.554.01.281-.118.649.049.821.183.188.558.032.846.066.243.029.291-.081.282-.3-.015-.38-.011-.761,0-1.141.009-.364.162-.511.523-.516.413-.006.826-.008,1.239,0,.165,0,.236-.035.226-.215a6.551,6.551,0,0,1,0-.75c.01-.176-.053-.221-.221-.217-.4.011-.8.008-1.207,0s-.558-.162-.561-.554q-.009-1.321,0-2.641c0-.382.136-.517.521-.574.258-.038.515-.079.77-.13a8.967,8.967,0,0,0,6.922-10.464m-7.3,9.349a7.945,7.945,0,0,1-3.613-.14c-.373-.1-.475-.256-.431-.635a7,7,0,0,1-2.583-1.627c-.355.189-.489.165-.755-.131a7.074,7.074,0,0,1-.732-.983c-.208-.333-.159-.53.172-.754-.105-.035-.141-.129-.183-.216a6.939,6.939,0,0,1-.661-2.3c-.013-.129-.034-.257-.052-.386a.543.543,0,0,1-.467-.63,7.8,7.8,0,1,1,9.3,7.8" transform="translate(-3.301 -12.837)" fill="#fe7bb8"/>
        <path id="Trazado_129184" data-name="Trazado 129184" d="M90.745,4.193c-.88.009-1.761,0-2.641.007-.064,0-.152-.048-.216.089.219.208.452.42.675.641.325.323.326.534.007.854Q87.142,7.215,85.71,8.643c-.31.31-.474.321-.817.061a8.853,8.853,0,0,0-6.929-1.77,8.7,8.7,0,0,0-3.075,1.1c-.157.091-.213.153-.041.293a4.317,4.317,0,0,1,.542.516c.128.147.229.132.386.05A7.781,7.781,0,0,1,87.2,15.655a.537.537,0,0,1-.461.6c.088.092.054.2.046.307a6.734,6.734,0,0,1-.4,1.764c-.044.124-.055.321-.28.286.338.219.407.4.232.725a7.648,7.648,0,0,1-6.493,4.217,7.4,7.4,0,0,1-4.081-.892c-.092-.049-.173-.119-.285,0-.246.253-.508.491-.782.754a8.758,8.758,0,0,0,7.039,1.02A8.95,8.95,0,0,0,86.5,10.313c-.278-.366-.272-.521.049-.843q1.416-1.42,2.837-2.835c.349-.348.544-.342.9.015l.7.7c0-1.027,0-1.972,0-2.916,0-.188-.055-.238-.239-.236" transform="translate(-58.496 -3.282)" fill="#969eee"/>
        <path id="Trazado_129185" data-name="Trazado 129185" d="M127.6,61.927a6.743,6.743,0,0,0,.4-1.764c.008-.106.042-.216-.046-.307a11.873,11.873,0,0,1-.205,1.238,2.322,2.322,0,0,1-.431,1.119c.225.036.236-.161.28-.286" transform="translate(-99.713 -46.879)" fill="#969eee"/>
        <path id="Trazado_129186" data-name="Trazado 129186" d="M25.034,27.9A7.8,7.8,0,0,0,9.618,29.38a.543.543,0,0,0,.467.63h0a1.119,1.119,0,0,0,.374-.915,6.965,6.965,0,0,1,9.886-5.886c.377.167.4.255.143.608a9.772,9.772,0,0,0-.061,11.336c.328.475.318.543-.214.768a6.886,6.886,0,0,1-4.434.376,1.085,1.085,0,0,0-.9.108c-.044.379.058.533.431.635a7.945,7.945,0,0,0,3.613.14A7.809,7.809,0,0,0,25.034,27.9M22.1,34.579c-.835.672-.576.717-1.153-.137a8.742,8.742,0,0,1-1.48-4.959,8.979,8.979,0,0,1,1.777-5.3c.144-.2.249-.229.425-.052s.5.332.575.557-.23.429-.366.642a7.742,7.742,0,0,0,.265,8.782c.148.2.149.314-.043.469m.994-1.15c-.137.195-.2.191-.327,0a6.856,6.856,0,0,1-.009-7.772c.134-.2.2-.211.345,0a6.918,6.918,0,0,1-.009,7.777" transform="translate(-7.533 -17.034)"/>
        <path id="Trazado_129187" data-name="Trazado 129187" d="M15.783,74.132a2.136,2.136,0,0,1-.287-.392.9.9,0,0,0-.668-.506c-.331.224-.38.42-.172.754a7.061,7.061,0,0,0,.732.983c.266.3.4.32.755.131a1.024,1.024,0,0,0-.361-.969" transform="translate(-11.381 -57.356)" fill="#010101"/>
        <path id="Trazado_129188" data-name="Trazado 129188" d="M17.154,74.276a6.309,6.309,0,0,1-.676-.908.467.467,0,0,0-.578-.233.9.9,0,0,1,.668.506,2.137,2.137,0,0,0,.287.392,1.024,1.024,0,0,1,.361.969.513.513,0,0,0-.061-.726" transform="translate(-12.453 -57.256)" fill="#010101"/>
        <path id="Trazado_129189" data-name="Trazado 129189" d="M57.443,33.505c.136-.213.448-.411.366-.642s-.384-.365-.575-.557-.281-.146-.426.052a8.978,8.978,0,0,0-1.777,5.3,8.742,8.742,0,0,0,1.48,4.959c.577.854.318.808,1.153.137.193-.155.191-.265.043-.469a7.742,7.742,0,0,1-.265-8.782" transform="translate(-43.1 -25.211)" fill="#969eee"/>
      </g>
    </g>
  </g>
</svg>
