<svg xmlns="http://www.w3.org/2000/svg" xmlns:xlink="http://www.w3.org/1999/xlink" width="250" height="192" viewBox="0 0 250 192">
  <defs>
    <clipPath id="clip-path">
      <rect id="Rectángulo_37516" data-name="Rectángulo 37516" width="5.937" height="2.4" transform="translate(350.231 30.852)" fill="none"/>
    </clipPath>
    <clipPath id="clip-path-2">
      <rect id="Rectángulo_37517" data-name="Rectángulo 37517" width="2.168" height="1.861" transform="translate(365.044 34.467)" fill="none"/>
    </clipPath>
  </defs>
  <g id="Grupo_157395" data-name="Grupo 157395" transform="translate(-255 -4745)">
    <g id="Grupo_157393" data-name="Grupo 157393" transform="translate(6322.563 10962.77)">
      <path id="Trazado_129325" data-name="Trazado 129325" d="M276.01,141.365,261.674,81.644A8.457,8.457,0,0,1,269.9,71.212h65.759a8.457,8.457,0,0,1,8.214,6.441l15.639,63.712Z" transform="translate(-6311 -6192.77)" fill="#2e2e2e"/>
      <path id="Trazado_129326" data-name="Trazado 129326" d="M283.318,141.365,268.982,81.644a8.457,8.457,0,0,1,8.224-10.432h65.759a8.457,8.457,0,0,1,8.214,6.441l15.639,63.712Z" transform="translate(-6311 -6192.77)" fill="#505050"/>
      <path id="Trazado_129327" data-name="Trazado 129327" d="M360.12,141.365,344.862,79.2a1.95,1.95,0,0,0-1.9-1.488H277.206a1.953,1.953,0,0,0-1.9,2.41l14.7,61.239h-.781L274.568,80.3a2.712,2.712,0,0,1,2.638-3.346h65.759a2.706,2.706,0,0,1,2.634,2.066l15.3,62.342Z" transform="translate(-6311 -6192.77)" fill="#2e2e2e"/>
      <path id="Trazado_129328" data-name="Trazado 129328" d="M359.177,81.039l.77,3.071c.259,1,.515,2.007.789,3,.543,2,1.1,3.986,1.672,5.972,1.166,3.969,2.377,7.933,3.726,11.89s2.767,7.923,4.439,11.917c.835,2,1.724,4.01,2.737,6.063a48.8,48.8,0,0,0,3.724,6.435c.406.579.851,1.175,1.375,1.806a19.7,19.7,0,0,0,1.909,2.015,15.6,15.6,0,0,0,1.373,1.123,13.415,13.415,0,0,0,1.938,1.172,11.655,11.655,0,0,0,2.838.98,11.174,11.174,0,0,0,1.8.217l.234.007h.167l.328-.005c.224,0,.419-.018.626-.033a13.7,13.7,0,0,0,3.835-.892,18.158,18.158,0,0,0,2.534-1.217,27.184,27.184,0,0,0,3.558-2.486,52.53,52.53,0,0,0,5.163-4.945c1.526-1.65,2.935-3.305,4.289-4.971s2.647-3.34,3.908-5.024,2.467-3.39,3.605-5.137,2.222-3.525,3.232-5.348q.762-1.365,1.461-2.772c.237-.467.458-.944.682-1.422.114-.238.224-.478.33-.723l.328-.755a5.886,5.886,0,0,0-9.317-6.732l-.251.227c-.342.306-.719.664-1.065,1.009s-.714.7-1.06,1.051q-1.049,1.062-2.069,2.142-2.043,2.158-4,4.353c-1.311,1.457-2.6,2.921-3.875,4.372s-2.578,2.866-3.888,4.23-2.633,2.678-3.955,3.886a37,37,0,0,1-3.838,3.128,9.371,9.371,0,0,1-1.47.866c-.159.066-.27.091-.211.047a2.29,2.29,0,0,1,.894-.219c.081-.009.151-.011.249-.018l.139,0,.213,0a6.34,6.34,0,0,1,2.475.584,5.409,5.409,0,0,1,.659.37c.122.076.2.141.221.145.059.036-.019-.071-.117-.227s-.245-.385-.4-.647c-.3-.527-.648-1.194-.987-1.91s-.685-1.493-1.018-2.3c-.671-1.613-1.31-3.337-1.918-5.1-1.207-3.543-2.331-7.24-3.383-10.981s-2.052-7.54-2.993-11.357c-.476-1.908-.948-3.818-1.4-5.732l-.68-2.866-.646-2.811-.036-.164a10.1,10.1,0,0,0-19.7,4.517l.048.2" transform="translate(-6311 -6192.77)" fill="#bcbcbc"/>
      <path id="Trazado_129329" data-name="Trazado 129329" d="M372.072,60.7a26.071,26.071,0,0,1,7.449,12.619c2.333,9.181,8.2,26.683,8.2,26.683s-16.03,10.033-22.932,9.783Z" transform="translate(-6311 -6192.77)" fill="#6a6a6a"/>
      <path id="Trazado_129330" data-name="Trazado 129330" d="M388.986,118.754l-2.866,1.158c-.5.2-.158.969.343.767l2.866-1.158c.5-.2.158-.969-.343-.767" transform="translate(-6311 -6192.77)" fill="#848484"/>
      <path id="Trazado_129331" data-name="Trazado 129331" d="M390.744,118.173a7.391,7.391,0,0,0-2.186,4.587.453.453,0,0,1-.9-.1,8.365,8.365,0,0,1,2.51-5.187c.417-.408.989.293.576.7" transform="translate(-6311 -6192.77)" fill="#848484"/>
      <path id="Trazado_129332" data-name="Trazado 129332" d="M371.568,80.512c-.075.33-.145.663-.215,1-.615,2.845-1.23,6.107-1.755,9.845-.05.37-.1.745-.15,1.122-.287,2.16-.542,4.475-.75,6.95-.087,1.108-.172,2.243-.242,3.413-.023.342-.045.695-.063,1.047-.005.075-.007.15-.013.225l0,0c-.02.312-.035.629-.05.947-.018.34-.032.682-.047,1.028v0c-.028.748-.06,1.508-.073,2.28-.045,1.437-.07,2.928-.075,4.458-.005,1.34,0,2.717.033,4.132.027,1.448.065,2.933.13,4.46.027.707.062,1.495.1,2.353.018.375.037.76.057,1.162l0,0c.172,3.508.435,7.951.768,12.628v0c.032.487.067.975.1,1.47.058.77.114,1.543.176,2.32h-66.5c-.688-17.569,1.078-39.22,1.078-39.22.253-2.261.395-3.98.635-5.97.092-.78.2-1.6.338-2.508.059-.41.125-.812.182-1.217.3-1.963.62-3.948.945-5.958q.27-1.627.545-3.282c.058-.331.112-.665.17-1,.488-2.91.995-5.89,1.5-8.95q.28-1.683.627-3.245l0-.008a40.413,40.413,0,0,1,3.087-9.179c.1-.21.208-.418.317-.62.131-.253.266-.5.4-.738q.232-.408.475-.8a20.039,20.039,0,0,1,1.523-2.128q.326-.393.662-.757c.158-.17.315-.333.477-.49.053-.055.1-.106.161-.158h0a13.2,13.2,0,0,1,1.15-.992,12.088,12.088,0,0,1,2.275-1.388c.235-.11.47-.21.71-.3a11.487,11.487,0,0,1,3.577-.766q.975-.051,1.883-.152c.267-.03.533-.06.795-.1.5-.062.988-.139,1.455-.222.238-.045.46-.088.685-.135.14-.028.28-.055.418-.088.247-.049.49-.1.727-.162.3-.072.59-.148.87-.222.73-.2,1.4-.413,2.018-.628l.287-.1c.168-.062.33-.119.487-.182s.286-.112.426-.167c.242-.1.474-.2.7-.3a22.091,22.091,0,0,0,3.057-1.565L355,49.452c.117.213.235.42.358.615a.146.146,0,0,0,.027.04,13.013,13.013,0,0,0,3.735,3.88c.268.185.545.365.817.535.211.133.43.253.648.378s.455.247.688.367c.542.278,1.094.538,1.65.783a.053.053,0,0,1,.02.005c.734.319,1.472.615,2.2.9.24.093.474.188.707.28.658.262,1.3.52,1.93.8.235.1.462.2.69.313a10.367,10.367,0,0,1,4.775,3.839,7.97,7.97,0,0,1,.765,1.7,9.929,9.929,0,0,1,.408,2.093,8.287,8.287,0,0,1,.009,1.4c-.2,2.843-1.494,6.973-2.862,13.14" transform="translate(-6311 -6192.77)" fill="#6a6a6a"/>
      <path id="Trazado_129333" data-name="Trazado 129333" d="M308.218,134.847c.008.255.015.51.022.768.061,1.9.161,3.82.28,5.75h-.73c-.119-1.941-.219-3.873-.28-5.783-.007-.258-.015-.513-.022-.77a238.521,238.521,0,0,1,6.765-62.195.358.358,0,0,1,.45-.252.365.365,0,0,1,.255.447,237.783,237.783,0,0,0-6.74,62.035" transform="translate(-6311 -6192.77)" fill="#373737"/>
      <path id="Trazado_129334" data-name="Trazado 129334" d="M365.455,30.806s3.6.91,4.79-1.766-1.78-5.1,2.178-7.605,7.887-8.471,3.821-12.282-6.212,1.559-9.426-3.144-4.8-5.266-9.581-5.94c-4.676-.659-6.379,3.64-11.287,2.887s-8.767,4.771-7.757,8.05c1.419,4.605,1.62,3.887,1.015,7.68s1.947,6.856,4.887,6.753,21.36,5.367,21.36,5.367" transform="translate(-6311 -6192.77)" fill="#161616"/>
      <path id="Trazado_129335" data-name="Trazado 129335" d="M337.589,46.505c.327,3.137,4.548,7.326,7.034,8.447a14.789,14.789,0,0,0,11.463.426l1.161-6.006.237-1.225.449-2.324-12.8-12.329-.738-.712-.5-.48-.291.49-.332.565.027.269c-2.161,5.633-2.772,9.087-5.717,12.879" transform="translate(-6311 -6192.77)" fill="#b6b6b6"/>
      <path id="Trazado_129336" data-name="Trazado 129336" d="M356.506,53.482a16.313,16.313,0,0,1-8.834-10.712c2.442,2.876,5.618,5.049,8.808,5.341a8.555,8.555,0,0,0,1,.034Z" transform="translate(-6311 -6192.77)" fill="#161616"/>
      <path id="Trazado_129337" data-name="Trazado 129337" d="M367.9,29.533a2.612,2.612,0,0,1,1.651,2.832c-.1,2.333-1.968,5.9-4.173,4.99s2.522-7.822,2.522-7.822" transform="translate(-6311 -6192.77)" fill="#848484"/>
      <path id="Trazado_129338" data-name="Trazado 129338" d="M342.883,34.121l0,0c.029.007.057.016.084.024.016.2.04.41.068.616.011.091.023.18.038.272.059.374.141.754.24,1.138,1.543,5.953,7.693,12.712,13.645,13.033a9.576,9.576,0,0,0,1.017,0c5.842-.341,8.392-6.482,8.6-11.422.008-.186.014-.371.014-.554,0,0,.069-.329.2-.9.1-.456.249-1.077.425-1.809.531-2.187,1.368-5.409,2.385-8.552,1.783-5.511-.532-14.495-11.7-18.46-8.9-3.159-14.365,1.108-16.557,6.007a12.777,12.777,0,0,0-1.041,3.756,22.762,22.762,0,0,0,.129,5.1c-1.1-.108-2.372.288-3.326,2.1-1.762,3.352,1.764,8.535,5.784,9.648" transform="translate(-6311 -6192.77)" fill="#b6b6b6"/>
      <path id="Trazado_129339" data-name="Trazado 129339" d="M340.426,22.371a10.325,10.325,0,0,0,3.218,2.045l1.988,3.271,2.868-1.273s-.7-3.609,1.229-4.461,1.395-3.21,1.395-3.21-6.892-5.043-9.786-5.229A12.758,12.758,0,0,0,340.3,17.27a22.754,22.754,0,0,0,.129,5.1" transform="translate(-6311 -6192.77)" fill="#161616"/>
      <path id="Trazado_129340" data-name="Trazado 129340" d="M370.591,19.411s-7.192-6.767-12.184-5.495a12.828,12.828,0,0,0-7.284,4.826s-9.156.23-10.865-2.364,2.43-11.2,9.527-11.829,16.907,3.157,20.806,14.862" transform="translate(-6311 -6192.77)" fill="#161616"/>
      <path id="Trazado_129341" data-name="Trazado 129341" d="M365.416,30.919c-.233.79-.755,1.333-1.165,1.212s-.554-.86-.321-1.65.754-1.333,1.165-1.212.554.86.321,1.65" transform="translate(-6311 -6192.77)" fill="#161616"/>
      <path id="Trazado_129342" data-name="Trazado 129342" d="M363.089,29.685a.22.22,0,0,1-.088-.1.217.217,0,0,1,.117-.285c.093-.039,2.291-.937,3.743.621a.218.218,0,1,1-.319.3c-1.246-1.337-3.236-.525-3.256-.516a.217.217,0,0,1-.2-.015" transform="translate(-6311 -6192.77)" fill="#161616"/>
      <g id="Grupo_157389" data-name="Grupo 157389" transform="translate(-6311 -6192.77)" opacity="0.5">
        <g id="Grupo_157388" data-name="Grupo 157388">
          <g id="Grupo_157387" data-name="Grupo 157387" clip-path="url(#clip-path)">
            <path id="Trazado_129343" data-name="Trazado 129343" d="M356.159,32.768c-.129.532-1.559.643-3.193.248s-2.855-1.147-2.726-1.679,1.558-.643,3.192-.248,2.856,1.147,2.727,1.679" fill="#848484"/>
          </g>
        </g>
      </g>
      <g id="Grupo_157392" data-name="Grupo 157392" transform="translate(-6311 -6192.77)" opacity="0.5">
        <g id="Grupo_157391" data-name="Grupo 157391">
          <g id="Grupo_157390" data-name="Grupo 157390" clip-path="url(#clip-path-2)">
            <path id="Trazado_129344" data-name="Trazado 129344" d="M366.787,36.328c-1.106-.409-1.834-.959-1.734-1.377s.994-.573,2.16-.434c-.177.734-.321,1.353-.426,1.811" fill="#848484"/>
          </g>
        </g>
      </g>
      <path id="Trazado_129345" data-name="Trazado 129345" d="M346,34.146a3.077,3.077,0,0,1-1.07.686,3.944,3.944,0,0,1-1.85.2c-.015-.091-.027-.182-.038-.27-.029-.208-.052-.414-.066-.619l-.085-.023a4.363,4.363,0,0,0,.466.057,3.2,3.2,0,0,0,.8-.04,2.335,2.335,0,0,0,1.236-.618.436.436,0,0,1,.61.624" transform="translate(-6311 -6192.77)" fill="#848484"/>
      <path id="Trazado_129346" data-name="Trazado 129346" d="M357.976,49.205a9.3,9.3,0,0,1-1.016,0c-5.952-.322-12.1-7.081-13.644-13.033a1.9,1.9,0,0,1,1.609-1.34l.706-7.146,2.87-1.274s.9,6.692,3.035,7.432,7.3.957,9.2,2.634c0,0,3.823-.542,5.836,1.3-.2,4.939-2.754,11.081-8.6,11.422" transform="translate(-6311 -6192.77)" fill="#161616"/>
      <path id="Trazado_129347" data-name="Trazado 129347" d="M356.472,35.974s-.76,3.794,2.335,4.794a3.336,3.336,0,0,0,4.226-2Z" transform="translate(-6311 -6192.77)" fill="#fff"/>
      <path id="Trazado_129348" data-name="Trazado 129348" d="M357.813,42.018a1.747,1.747,0,0,1-.809-.826.292.292,0,0,1,.54-.224,1.186,1.186,0,0,0,1.156.648.292.292,0,1,1,.017.584,1.9,1.9,0,0,1-.9-.182" transform="translate(-6311 -6192.77)" fill="#616161"/>
      <path id="Trazado_129349" data-name="Trazado 129349" d="M342.564,31.024a.436.436,0,0,1-.258-.427c.2-3.088-2.973-5.276-3.005-5.3a.436.436,0,0,1,.488-.723c.148.1,3.625,2.486,3.387,6.078a.438.438,0,0,1-.464.407.46.46,0,0,1-.148-.037" transform="translate(-6311 -6192.77)" fill="#848484"/>
      <path id="Trazado_129350" data-name="Trazado 129350" d="M339.324,28.425a.425.425,0,0,1-.137-.1.436.436,0,0,1,.012-.617,2.994,2.994,0,0,1,2.875-.595.436.436,0,0,1-.254.835,2.123,2.123,0,0,0-2.017.388.435.435,0,0,1-.479.085" transform="translate(-6311 -6192.77)" fill="#848484"/>
      <path id="Trazado_129351" data-name="Trazado 129351" d="M361.252,35.569a.436.436,0,0,1,0-.8l2.674-1.162-1.89-1.092a.438.438,0,0,1-.211-.3l-1.014-5.466a.436.436,0,1,1,.857-.159l.978,5.268,2.465,1.424a.437.437,0,0,1-.044.778L361.6,35.571a.437.437,0,0,1-.351,0" transform="translate(-6311 -6192.77)" fill="#848484"/>
      <path id="Trazado_129352" data-name="Trazado 129352" d="M355.244,25.052a1.2,1.2,0,0,1-.254-2.038c.124-.1,3.067-2.366,6.093-.525a1.2,1.2,0,1,1-1.246,2.048,3.188,3.188,0,0,0-3.364.361,1.2,1.2,0,0,1-1.229.154" transform="translate(-6311 -6192.77)" fill="#161616"/>
      <path id="Trazado_129353" data-name="Trazado 129353" d="M367.408,27.873a1.2,1.2,0,0,1-.672-.785c-.264-.979-1.894-1.375-2.316-1.427a1.2,1.2,0,0,1,.294-2.38c1.337.166,3.755,1.022,4.337,3.184a1.2,1.2,0,0,1-1.643,1.408" transform="translate(-6311 -6192.77)" fill="#161616"/>
      <path id="Trazado_129354" data-name="Trazado 129354" d="M358.5,28.965c-.233.79-.755,1.333-1.165,1.212s-.554-.86-.321-1.65.754-1.333,1.165-1.212.554.86.321,1.65" transform="translate(-6311 -6192.77)" fill="#161616"/>
      <path id="Trazado_129355" data-name="Trazado 129355" d="M355.6,27.917a.218.218,0,0,1-.02-.388c.087-.05,2.154-1.218,3.792.143a.218.218,0,0,1-.279.335c-1.406-1.169-3.277-.111-3.295-.1a.22.22,0,0,1-.2.01" transform="translate(-6311 -6192.77)" fill="#161616"/>
      <path id="Trazado_129356" data-name="Trazado 129356" d="M366.841,72.42a27.955,27.955,0,0,0,4.51,9.1c.071-.342.144-.675.216-1a27.284,27.284,0,0,1-3.828-7.726,21.008,21.008,0,0,1,.734-14.441c-.227-.108-.455-.211-.688-.312a21.621,21.621,0,0,0-.944,14.386" transform="translate(-6311 -6192.77)" fill="#8e8e8e"/>
      <path id="Trazado_129357" data-name="Trazado 129357" d="M312.842,59.472a27.562,27.562,0,0,0,9.6,11.164v0q.924.612,1.89,1.147c6.221,3.438,13.408,4.2,20.274,5.529,6.892,1.331,13.3,3.565,18.685,8.2a33.831,33.831,0,0,1,6.156,6.973c.049-.379.1-.754.15-1.123a34.919,34.919,0,0,0-5.566-6.221,36.958,36.958,0,0,0-16.7-8.04c-7.085-1.587-14.547-2.079-21.186-5.236a26,26,0,0,1-4-2.368,26.879,26.879,0,0,1-8.829-10.821c-.162.26-.32.525-.476.8" transform="translate(-6311 -6192.77)" fill="#8e8e8e"/>
      <path id="Trazado_129358" data-name="Trazado 129358" d="M371.94,75.295c-.052.247-.459,2.228-.981,5.039q-.116.62-.236,1.288c-.806,4.471-1.78,10.447-2.141,15.037a.427.427,0,0,0,.756.3l.009-.011c.344-4.581,1.346-10.721,2.163-15.266a.268.268,0,0,0,.013-.08c.641-3.529,1.162-6.083,1.178-6.151a.383.383,0,0,0-.3-.46.387.387,0,0,0-.46.3" transform="translate(-6311 -6192.77)" fill="#373737"/>
      <path id="Trazado_129359" data-name="Trazado 129359" d="M345,70.348a57.551,57.551,0,0,0,1.567-10.084,31.545,31.545,0,0,0-.553-7.385s-5.761-3.305-7.378-7.7c0,0-6.706.878-7.951,5.437,0,0,6.691,15.77,14.315,19.732" transform="translate(-6311 -6192.77)" fill="#373737"/>
      <path id="Trazado_129360" data-name="Trazado 129360" d="M357.021,50.544s4.108-.081,3.582,5.446c-1.044,10.983-8.516,13.3-8.516,13.3l-.949-5.8A36.516,36.516,0,0,1,351,54.826s5.471.219,6.018-4.282" transform="translate(-6311 -6192.77)" fill="#373737"/>
      <path id="Trazado_129361" data-name="Trazado 129361" d="M347.7,62.365a1.173,1.173,0,1,0,1.286-1.047,1.172,1.172,0,0,0-1.286,1.047" transform="translate(-6311 -6192.77)" fill="#373737"/>
      <path id="Trazado_129362" data-name="Trazado 129362" d="M347.622,67.044A1.173,1.173,0,1,0,348.908,66a1.173,1.173,0,0,0-1.286,1.047" transform="translate(-6311 -6192.77)" fill="#373737"/>
      <path id="Trazado_129363" data-name="Trazado 129363" d="M347.358,71.242a1.173,1.173,0,1,0,1.286-1.047,1.172,1.172,0,0,0-1.286,1.047" transform="translate(-6311 -6192.77)" fill="#373737"/>
      <path id="Trazado_129364" data-name="Trazado 129364" d="M344.5,97.986c.149,2.89,3.149,5.218,4.974,7.124q9.49,9.917,18.983,19.831c-.021-.4-.04-.788-.058-1.162l-3.4-3.549q-6.768-7.068-13.529-14.136-1.758-1.834-3.516-3.671a11.022,11.022,0,0,1-2.376-3.231c-.731-1.765.031-3.5,1.994-3.762a8.551,8.551,0,0,1,3.588.517,52.38,52.38,0,0,1,17.167,9.122c.015-.319.03-.636.049-.949l0,0a53.176,53.176,0,0,0-5.149-3.554,54.04,54.04,0,0,0-7.491-3.785c-2.387-.978-5.212-2.279-7.855-2.137-1.872.1-3.488,1.334-3.382,3.345" transform="translate(-6311 -6192.77)" fill="#8e8e8e"/>
      <path id="Trazado_129365" data-name="Trazado 129365" d="M320.111,73.361c5.1,2.5,10.128,5.7,13.194,10.62,2.73,4.381,3.756,10.057,1.212,14.759A11.82,11.82,0,0,1,330,103.418a12.333,12.333,0,0,1-6.475,1.265c-2.621-.022-6.188.03-6.631,3.375-.357,2.695,1.344,5.279,1.373,7.968.051,4.748-5.48,8.2-9.758,6.329-.449-.2-.175-.911.278-.713a6.3,6.3,0,0,0,6.665-1.255c1.963-1.744,2.314-4.009,1.749-6.476-.483-2.109-1.531-4.4-.938-6.592a4.436,4.436,0,0,1,3.214-3.086c2.093-.583,4.314-.173,6.449-.353a9.6,9.6,0,0,0,6.243-3.153c3.7-4.018,3.744-9.772,1.485-14.52-2.744-5.764-8.272-9.4-13.825-12.133-.438-.215-.165-.931.278-.713" transform="translate(-6311 -6192.77)" fill="#8e8e8e"/>
      <path id="Trazado_129366" data-name="Trazado 129366" d="M307.488,134.812c.007.257.015.512.022.77.245.015.488.028.731.032a18.566,18.566,0,0,0,4.224-.37,16.547,16.547,0,0,0,7.4-3.522c2.632-2.245,4.47-5.23,6.327-8.108,1.91-2.96,3.97-5.962,6.955-7.945,3.49-2.312,7.42-2.252,11.133-.452a47.5,47.5,0,0,1,9.537,6.772,89.079,89.079,0,0,1,15.51,17.055c-.037-.494-.072-.982-.1-1.47v0a90.037,90.037,0,0,0-16.092-17.148,41.237,41.237,0,0,0-9.19-6.2,11.312,11.312,0,0,0-9.55-.138,19,19,0,0,0-6.943,6.29c-2.09,2.9-3.767,6.1-6.12,8.805A16,16,0,0,1,313,134.342a17.825,17.825,0,0,1-4.78.505c-.245-.008-.488-.017-.73-.035" transform="translate(-6311 -6192.77)" fill="#8e8e8e"/>
      <path id="Trazado_129367" data-name="Trazado 129367" d="M357.6,141.365a32.23,32.23,0,0,0-10.952-5.6,15.681,15.681,0,0,0-11.045,1.24,29.57,29.57,0,0,0-6.107,4.36h-1.142c.069-.061.136-.124.2-.185,5.022-4.513,10.812-7.818,17.785-6.273a33.067,33.067,0,0,1,12.718,6.458Z" transform="translate(-6311 -6192.77)" fill="#8e8e8e"/>
      <path id="Trazado_129368" data-name="Trazado 129368" d="M368.637,93.289s-1.34-7-.548-9.273.776-6.123,2.345-5.721,1.459,5.139,1.459,5.139Z" transform="translate(-6311 -6192.77)" fill="#bcbcbc"/>
      <path id="Trazado_129369" data-name="Trazado 129369" d="M310.16,78.02l.808,3.221c.271,1.054.541,2.105.828,3.15.569,2.093,1.147,4.18,1.753,6.263,1.223,4.163,2.494,8.321,3.908,12.471s2.9,8.309,4.655,12.5c.876,2.1,1.808,4.205,2.87,6.359a51.156,51.156,0,0,0,3.907,6.749c.426.607.892,1.233,1.441,1.894a20.938,20.938,0,0,0,2,2.114,16.777,16.777,0,0,0,1.441,1.177,14.127,14.127,0,0,0,2.033,1.23,12.233,12.233,0,0,0,2.977,1.027,11.651,11.651,0,0,0,1.89.227l.247.008h.174l.344-.005c.236,0,.44-.019.658-.035a14.385,14.385,0,0,0,4.02-.935,18.84,18.84,0,0,0,2.658-1.277,28.494,28.494,0,0,0,3.732-2.607,54.985,54.985,0,0,0,5.416-5.187c1.6-1.729,3.077-3.466,4.5-5.213s2.776-3.5,4.1-5.269,2.587-3.555,3.781-5.388,2.33-3.7,3.39-5.609q.8-1.431,1.533-2.906c.247-.49.48-.991.715-1.492.118-.249.235-.5.345-.759l.343-.791a6.171,6.171,0,0,0-9.77-7.06l-.264.238c-.358.32-.753.7-1.117,1.058s-.748.73-1.112,1.1q-1.1,1.114-2.17,2.247-2.142,2.264-4.2,4.564c-1.375,1.529-2.724,3.064-4.064,4.586s-2.7,3.006-4.078,4.437-2.761,2.808-4.147,4.075a38.839,38.839,0,0,1-4.025,3.28,9.831,9.831,0,0,1-1.542.909c-.167.07-.283.1-.221.049a2.4,2.4,0,0,1,.938-.23c.085-.009.158-.011.262-.018l.145,0,.223,0a6.754,6.754,0,0,1,1.105.127,6.488,6.488,0,0,1,1.49.486,5.363,5.363,0,0,1,.69.389c.129.079.209.147.232.151.063.038-.019-.075-.122-.238s-.256-.4-.415-.679c-.319-.552-.68-1.251-1.034-2s-.719-1.566-1.069-2.412c-.7-1.691-1.373-3.5-2.01-5.353-1.267-3.715-2.446-7.593-3.55-11.516s-2.151-7.908-3.139-11.911c-.5-2-.994-4-1.468-6.012l-.713-3-.676-2.949-.04-.172a10.6,10.6,0,0,0-20.658,4.738c.012.052.037.156.05.208" transform="translate(-6311 -6192.77)" fill="#bcbcbc"/>
      <path id="Trazado_129370" data-name="Trazado 129370" d="M341.424,117.575l-3.006,1.214c-.526.213-.165,1.017.36.805l3.006-1.214c.526-.213.166-1.017-.36-.805" transform="translate(-6311 -6192.77)" fill="#848484"/>
      <path id="Trazado_129371" data-name="Trazado 129371" d="M343.268,116.966a7.752,7.752,0,0,0-2.292,4.811.475.475,0,0,1-.944-.1,8.772,8.772,0,0,1,2.632-5.44c.437-.428,1.037.308.6.732" transform="translate(-6311 -6192.77)" fill="#848484"/>
      <path id="Trazado_129372" data-name="Trazado 129372" d="M369.07,100.145a6.719,6.719,0,0,0,9.091-2.009,16.456,16.456,0,0,1,3.814-4.093c3.328-2.248,7.884-3.979,9.243-5.59,2.007-2.377-1.344-2.218-1.756-2.141a46.6,46.6,0,0,0-6.172,1.8s5.625-3.864,8.26-4.39,3.762-2.669,1.021-3.584-9.824,2.051-11.564,3.4c0,0,2.855-3.278,6.4-4.109s4.7-1.6,5.782-2.611-1.151-2.959-6.072-1.672a16.087,16.087,0,0,0-8.313,4.689,26.927,26.927,0,0,1,2.911-4.413c2.039-2.6,6.215-3.232,6.63-5.165.424-1.976-4.353-1.034-6.755.663s-4.294,2.729-6.31,5.9A47.4,47.4,0,0,0,370.7,85.3c-.75,2.19-4.444,9.627-3.414,12.8a4.125,4.125,0,0,0,1.787,2.043" transform="translate(-6311 -6192.77)" fill="#bcbcbc"/>
      <path id="Trazado_129373" data-name="Trazado 129373" d="M308.843,74.39A110.761,110.761,0,0,0,309.9,88.4c.032.268.07.533.1.792.752,5.55,1.6,9.723,1.6,9.723,1.922.045,5.437-.695,9.385-1.74.247-.065.5-.132.747-.2,3.145-.855,6.513-1.878,9.53-2.838.463-.147.918-.292,1.36-.435,2.183-.705,4.12-1.355,5.565-1.845h0l1.085-.372c1.01-.348,1.595-.555,1.595-.555s-.725-3.12-1.82-7.458c-.065-.255-.133-.515-.2-.78-.292-1.149-.61-2.375-.942-3.64q-.1-.382-.2-.77c-2.233-8.415-5.148-18.317-7.025-20.525a7.308,7.308,0,0,0-1.29-1.177c-.205-.148-.418-.288-.638-.418a10.726,10.726,0,0,0-1.245-.625,12.608,12.608,0,0,0-10.9.363c-.21.11-.415.232-.615.36a10.7,10.7,0,0,0-2.68,2.41A13.564,13.564,0,0,0,312.3,60.17c-.12.2-.237.4-.352.612a24.742,24.742,0,0,0-2.838,8.51,42.063,42.063,0,0,0-.26,4.388q-.008.353-.007.71" transform="translate(-6311 -6192.77)" fill="#6a6a6a"/>
      <path id="Trazado_129374" data-name="Trazado 129374" d="M309.9,88.4c.032.268.07.533.1.792a16.289,16.289,0,0,1,2.437.728,17.5,17.5,0,0,1,8.543,7.255c.247-.065.5-.132.747-.2a18.367,18.367,0,0,0-8.752-7.645,17.024,17.024,0,0,0-3.08-.93" transform="translate(-6311 -6192.77)" fill="#8e8e8e"/>
      <path id="Trazado_129375" data-name="Trazado 129375" d="M311.948,60.782c.35.088.7.187,1.04.3,4.637,1.5,7.27,5.048,9.58,9.13,1.95,3.453,4.055,7.39,7.828,9.143a7.867,7.867,0,0,0,7.517-.3q-.1-.382-.2-.77c-3.037,2.325-7.447.765-9.977-1.785-3.116-3.143-4.571-7.465-7.225-10.945a14.91,14.91,0,0,0-8.21-5.387c-.12.2-.238.4-.353.612" transform="translate(-6311 -6192.77)" fill="#8e8e8e"/>
      <path id="Trazado_129376" data-name="Trazado 129376" d="M308.843,74.39c3.732-.348,7.14,2.617,9.182,5.622,2.078,3.053,3.495,6.53,5.9,9.36a15.324,15.324,0,0,0,7.34,4.77c.463-.147.918-.292,1.36-.435-4.54-.924-7.877-3.935-10.247-7.807-2.093-3.418-3.733-7.3-6.9-9.9a9.572,9.572,0,0,0-6.628-2.315q-.008.353-.007.71" transform="translate(-6311 -6192.77)" fill="#8e8e8e"/>
      <path id="Trazado_129377" data-name="Trazado 129377" d="M338.191,91.862h0l1.085-.372c-2.6-1.018-5.025-2.805-3.113-5.465a9.237,9.237,0,0,1,2.888-2.548c-.065-.255-.133-.515-.2-.78a8.339,8.339,0,0,0-3.892,3.928c-1.045,2.482.912,4.18,3.227,5.237" transform="translate(-6311 -6192.77)" fill="#8e8e8e"/>
      <path id="Trazado_129378" data-name="Trazado 129378" d="M315.5,55.79c.165.16.33.32.495.475,2.352,2.23,4.907,4.075,8.307,3.823a5.969,5.969,0,0,0,5.093-3.5c.027-.057.052-.113.077-.17a9.032,9.032,0,0,0,.343-5.577c-.238.057-.48.112-.728.162a8.211,8.211,0,0,1-.33,5.168c-1.167,2.647-3.9,3.6-6.62,3a12.041,12.041,0,0,1-5.527-3.263c-.213-.2-.423-.4-.633-.6-.162.157-.32.32-.477.49" transform="translate(-6311 -6192.77)" fill="#8e8e8e"/>
      <path id="Trazado_129379" data-name="Trazado 129379" d="M309.6,78.036a74.592,74.592,0,0,0,2.441,20.638.375.375,0,0,1-.723.2,75.369,75.369,0,0,1-2.468-20.837.375.375,0,0,1,.75,0" transform="translate(-6311 -6192.77)" fill="#373737"/>
      <path id="Trazado_129380" data-name="Trazado 129380" d="M348.892,134.168H455l1.152-2.6c.725-1.639-1.165-3.273-3.786-3.273H354.456c-1.756,0-3.3.757-3.786,1.855Z" transform="translate(-6311 -6192.77)" fill="#fff"/>
      <path id="Trazado_129381" data-name="Trazado 129381" d="M476.176,64.629l-12.787,54.082a3.193,3.193,0,0,1-3.108,2.458H381.509a3.193,3.193,0,0,1-3.108-3.928l12.786-54.082A3.194,3.194,0,0,1,394.3,60.7h78.771a3.194,3.194,0,0,1,3.109,3.928" transform="translate(-6311 -6192.77)" fill="#fff"/>
      <path id="Trazado_129382" data-name="Trazado 129382" d="M437.9,93.05a7.059,7.059,0,0,1-6.843,6.163,5.414,5.414,0,0,1-5.484-6.163,7.059,7.059,0,0,1,6.843-6.163A5.414,5.414,0,0,1,437.9,93.05" transform="translate(-6311 -6192.77)" fill="#2d2d2d"/>
      <path id="Trazado_129383" data-name="Trazado 129383" d="M397.417,60.7,383.8,121.17h-2.294a3.193,3.193,0,0,1-3.108-3.928L391.187,63.16A3.194,3.194,0,0,1,394.3,60.7Z" transform="translate(-6311 -6192.77)" fill="#2d2d2d"/>
      <path id="Trazado_129384" data-name="Trazado 129384" d="M420.233,121.169l-2.685,12.847h7.893l2.684-12.847Z" transform="translate(-6311 -6192.77)" fill="#2d2d2d"/>
      <path id="Trazado_129385" data-name="Trazado 129385" d="M406.032,131.843l1.616-2.271a3.076,3.076,0,0,1,2.506-1.293h21.639a3.075,3.075,0,0,1,2.725,1.65l1.09,2.084a1.464,1.464,0,0,1-1.3,2.142H407.225a1.464,1.464,0,0,1-1.193-2.312" transform="translate(-6311 -6192.77)" fill="#fff"/>
      <path id="Trazado_129386" data-name="Trazado 129386" d="M386.943,50.941h57.979a1.684,1.684,0,0,0,1.684-1.684V16.551H385.259V49.257a1.684,1.684,0,0,0,1.684,1.684" transform="translate(-6311 -6192.77)" fill="#fff"/>
      <path id="Trazado_129387" data-name="Trazado 129387" d="M420.727,34.466A10.784,10.784,0,1,0,441.459,30.3l-9.949,4.168.511-10.77c-.167-.01-.339-.013-.511-.013a10.783,10.783,0,0,0-10.783,10.783" transform="translate(-6311 -6192.77)" fill="#2e2e2e"/>
      <path id="Trazado_129388" data-name="Trazado 129388" d="M433.1,21.917a10.792,10.792,0,0,1,9.437,6.6l-9.948,4.167Z" transform="translate(-6311 -6192.77)" fill="gray"/>
      <rect id="Rectángulo_37518" data-name="Rectángulo 37518" width="1.481" height="1.481" transform="translate(-5916.232 -6165.729)" fill="#505050"/>
      <path id="Trazado_129389" data-name="Trazado 129389" d="M388.463,27.966h5.306a.016.016,0,0,0,.016-.016v-.339a.016.016,0,0,0-.016-.016h-5.306a.016.016,0,0,0-.016.016v.339a.016.016,0,0,0,.016.016" transform="translate(-6311 -6192.77)" fill="#bdbdbd"/>
      <rect id="Rectángulo_37519" data-name="Rectángulo 37519" width="1.481" height="1.481" transform="translate(-5916.232 -6168.369)" fill="gray"/>
      <path id="Trazado_129390" data-name="Trazado 129390" d="M388.463,25.327h5.306a.016.016,0,0,0,.016-.016v-.339a.016.016,0,0,0-.016-.016h-5.306a.016.016,0,0,0-.016.016v.339a.016.016,0,0,0,.016.016" transform="translate(-6311 -6192.77)" fill="#bdbdbd"/>
      <rect id="Rectángulo_37520" data-name="Rectángulo 37520" width="1.481" height="1.481" transform="translate(-5916.232 -6163.091)" fill="#2e2e2e"/>
      <path id="Trazado_129391" data-name="Trazado 129391" d="M388.463,30.6h5.306a.016.016,0,0,0,.016-.016v-.339a.016.016,0,0,0-.016-.016h-5.306a.016.016,0,0,0-.016.016v.339a.016.016,0,0,0,.016.016" transform="translate(-6311 -6192.77)" fill="#bdbdbd"/>
      <path id="Trazado_129392" data-name="Trazado 129392" d="M388.633,35.8h7.431a.185.185,0,0,0,0-.371h-7.431a.185.185,0,0,0,0,.371" transform="translate(-6311 -6192.77)" fill="#bdbdbd"/>
      <path id="Trazado_129393" data-name="Trazado 129393" d="M388.633,37.323h7.431a.186.186,0,0,0,0-.371h-7.431a.186.186,0,0,0,0,.371" transform="translate(-6311 -6192.77)" fill="#bdbdbd"/>
      <path id="Trazado_129394" data-name="Trazado 129394" d="M388.633,38.846h7.431a.186.186,0,0,0,0-.371h-7.431a.186.186,0,0,0,0,.371" transform="translate(-6311 -6192.77)" fill="#bdbdbd"/>
      <path id="Trazado_129395" data-name="Trazado 129395" d="M388.633,40.368h7.431a.185.185,0,0,0,0-.371h-7.431a.185.185,0,0,0,0,.371" transform="translate(-6311 -6192.77)" fill="#bdbdbd"/>
      <path id="Trazado_129396" data-name="Trazado 129396" d="M388.633,41.891h7.431a.185.185,0,0,0,0-.371h-7.431a.185.185,0,0,0,0,.371" transform="translate(-6311 -6192.77)" fill="#bdbdbd"/>
      <path id="Trazado_129397" data-name="Trazado 129397" d="M388.633,43.413h7.431a.185.185,0,0,0,0-.371h-7.431a.185.185,0,0,0,0,.371" transform="translate(-6311 -6192.77)" fill="#bdbdbd"/>
      <path id="Trazado_129398" data-name="Trazado 129398" d="M388.633,44.936h7.431a.186.186,0,0,0,0-.371h-7.431a.186.186,0,0,0,0,.371" transform="translate(-6311 -6192.77)" fill="#bdbdbd"/>
      <path id="Trazado_129399" data-name="Trazado 129399" d="M420.727,34.466A10.743,10.743,0,0,0,423.5,41.69l8.006-7.224.511-10.77c-.167-.01-.339-.013-.511-.013a10.783,10.783,0,0,0-10.783,10.783" transform="translate(-6311 -6192.77)" fill="#505050"/>
      <rect id="Rectángulo_37521" data-name="Rectángulo 37521" width="3.433" height="14.711" transform="translate(-5904.205 -6161.027)" fill="gray"/>
      <path id="Trazado_129400" data-name="Trazado 129400" d="M410.228,42.573A13.4,13.4,0,0,1,406.8,40.8v5.653h3.433Z" transform="translate(-6311 -6192.77)" fill="#505050"/>
      <rect id="Rectángulo_37522" data-name="Rectángulo 37522" width="3.433" height="10.623" transform="translate(-5898.594 -6156.939)" fill="gray"/>
      <path id="Trazado_129401" data-name="Trazado 129401" d="M413.042,42.822a6.04,6.04,0,0,1-.635.058v3.573h3.433V42.914a6.2,6.2,0,0,0-2.8-.092" transform="translate(-6311 -6192.77)" fill="#505050"/>
      <rect id="Rectángulo_37523" data-name="Rectángulo 37523" width="3.433" height="19.106" transform="translate(-5909.817 -6165.422)" fill="gray"/>
      <path id="Trazado_129402" data-name="Trazado 129402" d="M401.183,37.818v8.635h3.433V39.284a6.626,6.626,0,0,0-3.433-1.466" transform="translate(-6311 -6192.77)" fill="#505050"/>
      <path id="Trazado_129403" data-name="Trazado 129403" d="M401.322,21.777l3.1.664-.832.817,4.744,4.835L410,26.461l5.886,6a.581.581,0,1,1-.829.813L409.981,28.1l-1.665,1.633-5.557-5.665-.832.816Z" transform="translate(-6311 -6192.77)" fill="gray"/>
      <path id="Trazado_129404" data-name="Trazado 129404" d="M385.26,17.974h61.346V13.138a.746.746,0,0,0-.747-.747H386.007a.746.746,0,0,0-.747.747Z" transform="translate(-6311 -6192.77)" fill="#161616"/>
      <path id="Trazado_129405" data-name="Trazado 129405" d="M393.7,15.006a.9.9,0,1,0,.9-.9.9.9,0,0,0-.9.9" transform="translate(-6311 -6192.77)" fill="#bdbdbd"/>
      <path id="Trazado_129406" data-name="Trazado 129406" d="M387.682,15.006a.9.9,0,1,0,.9-.9.9.9,0,0,0-.9.9" transform="translate(-6311 -6192.77)" fill="#bdbdbd"/>
      <path id="Trazado_129407" data-name="Trazado 129407" d="M390.6,15.006a.9.9,0,1,0,.9-.9.9.9,0,0,0-.9.9" transform="translate(-6311 -6192.77)" fill="#bdbdbd"/>
    </g>
    <rect id="Rectángulo_37524" data-name="Rectángulo 37524" width="250" height="192" transform="translate(255 4745)" fill="none"/>
  </g>
</svg>
