<svg xmlns="http://www.w3.org/2000/svg" xmlns:xlink="http://www.w3.org/1999/xlink" width="250" height="192" viewBox="0 0 250 192">
  <defs>
    <clipPath id="clip-path">
      <rect id="Rectángulo_37508" data-name="Rectángulo 37508" width="5.937" height="2.4" transform="translate(88.794 30.852)" fill="none"/>
    </clipPath>
    <clipPath id="clip-path-2">
      <rect id="Rectángulo_37509" data-name="Rectángulo 37509" width="2.168" height="1.861" transform="translate(103.608 34.467)" fill="none"/>
    </clipPath>
  </defs>
  <g id="Grupo_157396" data-name="Grupo 157396" transform="translate(6436 6960)">
    <g id="Grupo_157394" data-name="Grupo 157394" transform="translate(-107 -741.23)">
      <path id="Trazado_129242" data-name="Trazado 129242" d="M14.574,141.365.238,81.644A8.457,8.457,0,0,1,8.462,71.212H74.221a8.457,8.457,0,0,1,8.214,6.441l15.639,63.712Z" transform="translate(-6311 -6192.77)" fill="#1c2b74"/>
      <path id="Trazado_129243" data-name="Trazado 129243" d="M21.882,141.365,7.545,81.644a8.458,8.458,0,0,1,8.224-10.432H81.528a8.458,8.458,0,0,1,8.215,6.441l15.639,63.712Z" transform="translate(-6311 -6192.77)" fill="#314fa5"/>
      <path id="Trazado_129244" data-name="Trazado 129244" d="M98.684,141.365,83.426,79.2a1.95,1.95,0,0,0-1.9-1.488H15.77a1.953,1.953,0,0,0-1.9,2.41l14.7,61.239H27.79L13.132,80.3a2.712,2.712,0,0,1,2.638-3.346H81.529a2.706,2.706,0,0,1,2.634,2.066l15.3,62.342Z" transform="translate(-6311 -6192.77)" fill="#1c2b74"/>
      <path id="Trazado_129245" data-name="Trazado 129245" d="M97.74,81.039l.77,3.071c.259,1,.516,2.007.789,3,.543,2,1.095,3.986,1.672,5.972,1.167,3.969,2.378,7.933,3.727,11.89s2.767,7.923,4.438,11.917c.835,2,1.724,4.01,2.737,6.063a48.81,48.81,0,0,0,3.725,6.435c.406.579.851,1.175,1.374,1.806a19.816,19.816,0,0,0,1.909,2.015,15.625,15.625,0,0,0,1.374,1.123,13.362,13.362,0,0,0,1.938,1.172,11.655,11.655,0,0,0,2.838.98,11.175,11.175,0,0,0,1.8.217l.235.007h.166l.328-.005c.225,0,.42-.018.627-.033a13.7,13.7,0,0,0,3.834-.892,18.05,18.05,0,0,0,2.534-1.217,27.267,27.267,0,0,0,3.559-2.486,52.641,52.641,0,0,0,5.163-4.945c1.526-1.65,2.934-3.305,4.289-4.971s2.647-3.34,3.907-5.024,2.467-3.39,3.606-5.137,2.221-3.525,3.232-5.348q.761-1.365,1.461-2.772c.236-.467.458-.944.682-1.422.113-.238.224-.478.329-.723l.328-.755a5.885,5.885,0,0,0-9.316-6.732l-.252.227c-.342.306-.718.664-1.065,1.009s-.713.7-1.061,1.051q-1.047,1.062-2.069,2.142-2.041,2.158-4,4.353c-1.311,1.457-2.6,2.921-3.875,4.372s-2.578,2.866-3.888,4.23-2.633,2.678-3.954,3.886a37.106,37.106,0,0,1-3.839,3.128,9.326,9.326,0,0,1-1.47.866c-.159.066-.269.091-.211.047a2.3,2.3,0,0,1,.9-.219c.081-.009.151-.011.249-.018l.139,0,.212,0a6.33,6.33,0,0,1,2.475.584,5.33,5.33,0,0,1,.659.37c.122.076.2.141.22.145.06.036-.018-.071-.116-.227s-.244-.385-.4-.647c-.3-.527-.649-1.194-.987-1.91s-.685-1.493-1.019-2.3c-.67-1.613-1.309-3.337-1.917-5.1-1.208-3.543-2.331-7.24-3.384-10.981s-2.051-7.54-2.993-11.357c-.475-1.908-.948-3.818-1.4-5.732l-.68-2.866-.645-2.811-.037-.164a10.1,10.1,0,0,0-19.7,4.517l.048.2" transform="translate(-6311 -6192.77)" fill="#eaad8f"/>
      <path id="Trazado_129246" data-name="Trazado 129246" d="M110.636,60.7a26.071,26.071,0,0,1,7.449,12.619c2.333,9.181,8.2,26.683,8.2,26.683s-16.03,10.033-22.932,9.783Z" transform="translate(-6311 -6192.77)" fill="#467b6c"/>
      <path id="Trazado_129247" data-name="Trazado 129247" d="M127.549,118.754l-2.866,1.158c-.5.2-.158.969.343.767l2.866-1.158c.5-.2.158-.969-.343-.767" transform="translate(-6311 -6192.77)" fill="#c6695d"/>
      <path id="Trazado_129248" data-name="Trazado 129248" d="M129.308,118.173a7.391,7.391,0,0,0-2.186,4.587.453.453,0,0,1-.9-.1,8.365,8.365,0,0,1,2.51-5.187c.417-.408.989.293.576.7" transform="translate(-6311 -6192.77)" fill="#c6695d"/>
      <path id="Trazado_129249" data-name="Trazado 129249" d="M110.132,80.512c-.075.33-.145.663-.215,1-.615,2.845-1.23,6.107-1.755,9.845-.05.37-.1.745-.15,1.122-.287,2.16-.542,4.475-.75,6.95-.087,1.108-.172,2.243-.242,3.413-.023.342-.045.695-.063,1.047,0,.075-.007.15-.013.225l0,0c-.02.312-.035.629-.05.947-.018.34-.032.682-.047,1.028v0c-.028.748-.06,1.508-.073,2.28-.045,1.437-.07,2.928-.075,4.458-.005,1.34,0,2.717.033,4.132.027,1.448.065,2.933.13,4.46.027.707.062,1.495.1,2.353.018.375.037.76.057,1.162l0,0c.172,3.508.435,7.951.768,12.628v0c.032.487.067.975.1,1.47.058.77.114,1.543.176,2.32h-66.5c-.688-17.569,1.078-39.22,1.078-39.22.253-2.261.4-3.98.635-5.97.092-.78.2-1.6.338-2.508.059-.41.125-.812.182-1.217.3-1.963.62-3.948.945-5.958q.27-1.627.545-3.282c.058-.331.112-.665.17-1,.488-2.91,1-5.89,1.5-8.95q.281-1.683.627-3.245l0-.008a40.413,40.413,0,0,1,3.087-9.179c.1-.21.208-.418.317-.62.131-.253.266-.5.4-.738q.232-.408.475-.8A20.038,20.038,0,0,1,53.4,56.547q.326-.393.662-.757c.158-.17.315-.333.477-.49.053-.055.1-.106.161-.158h0a13.2,13.2,0,0,1,1.15-.992,12.088,12.088,0,0,1,2.275-1.388c.235-.11.47-.21.71-.3a11.487,11.487,0,0,1,3.577-.766q.975-.051,1.883-.152c.267-.03.533-.06.795-.1.5-.062.988-.139,1.455-.222.238-.045.46-.088.685-.135.14-.028.28-.055.418-.088.247-.049.49-.1.727-.162.3-.072.59-.148.87-.222.73-.2,1.4-.413,2.018-.628l.287-.1c.168-.062.33-.119.487-.182s.286-.112.426-.167c.242-.1.474-.2.695-.3a22.093,22.093,0,0,0,3.057-1.565l17.345,1.78c.117.213.235.42.358.615a.146.146,0,0,0,.027.04,13.013,13.013,0,0,0,3.735,3.88c.268.185.545.365.817.535.211.133.43.253.648.378s.455.247.688.367c.542.278,1.094.538,1.65.783a.053.053,0,0,1,.02.005c.734.319,1.472.615,2.2.9.24.093.474.188.707.28.658.262,1.305.52,1.93.8.235.1.462.2.69.313a10.367,10.367,0,0,1,4.775,3.839,7.971,7.971,0,0,1,.765,1.7,9.931,9.931,0,0,1,.408,2.093,8.291,8.291,0,0,1,.009,1.4c-.2,2.843-1.494,6.973-2.862,13.14" transform="translate(-6311 -6192.77)" fill="#467b6c"/>
      <path id="Trazado_129250" data-name="Trazado 129250" d="M46.782,134.847c.008.255.015.51.022.768.061,1.9.161,3.82.28,5.75h-.73c-.119-1.941-.219-3.873-.28-5.783-.007-.258-.015-.513-.022-.77a238.52,238.52,0,0,1,6.765-62.195.358.358,0,0,1,.45-.252.365.365,0,0,1,.255.447,237.782,237.782,0,0,0-6.74,62.035" transform="translate(-6311 -6192.77)" fill="#253f3d"/>
      <path id="Trazado_129251" data-name="Trazado 129251" d="M104.019,30.806s3.6.91,4.79-1.766-1.78-5.1,2.178-7.605,7.887-8.471,3.821-12.282-6.212,1.559-9.426-3.144S100.585.743,95.8.069c-4.676-.659-6.379,3.64-11.287,2.887s-8.767,4.771-7.757,8.05c1.419,4.605,1.62,3.887,1.015,7.68s1.947,6.856,4.887,6.753,21.36,5.367,21.36,5.367" transform="translate(-6311 -6192.77)" fill="#171612"/>
      <path id="Trazado_129252" data-name="Trazado 129252" d="M76.152,46.505c.328,3.137,4.549,7.326,7.035,8.447a14.789,14.789,0,0,0,11.463.426l1.161-6.006.237-1.225.449-2.324L83.7,33.494l-.738-.712-.5-.48-.291.49-.332.565.027.269c-2.162,5.633-2.772,9.087-5.718,12.879" transform="translate(-6311 -6192.77)" fill="#e9a48e"/>
      <path id="Trazado_129253" data-name="Trazado 129253" d="M95.07,53.482A16.313,16.313,0,0,1,86.236,42.77c2.442,2.876,5.618,5.049,8.809,5.341a8.531,8.531,0,0,0,1,.034Z" transform="translate(-6311 -6192.77)" fill="#171612"/>
      <path id="Trazado_129254" data-name="Trazado 129254" d="M106.464,29.533a2.612,2.612,0,0,1,1.651,2.832c-.1,2.333-1.968,5.9-4.173,4.99s2.522-7.822,2.522-7.822" transform="translate(-6311 -6192.77)" fill="#c6695d"/>
      <path id="Trazado_129255" data-name="Trazado 129255" d="M81.447,34.121l0,0c.029.007.057.016.084.024.016.2.04.41.068.616.011.091.023.18.038.272.059.374.141.754.24,1.138,1.543,5.953,7.693,12.712,13.645,13.033a9.576,9.576,0,0,0,1.017,0c5.842-.341,8.392-6.482,8.6-11.422.008-.186.014-.371.014-.554,0,0,.069-.329.2-.9.1-.456.249-1.077.425-1.809.531-2.187,1.368-5.409,2.385-8.552,1.783-5.511-.532-14.495-11.7-18.46-8.9-3.159-14.365,1.108-16.557,6.007a12.776,12.776,0,0,0-1.041,3.756,22.761,22.761,0,0,0,.129,5.1c-1.1-.108-2.372.288-3.327,2.1-1.761,3.352,1.765,8.535,5.785,9.648" transform="translate(-6311 -6192.77)" fill="#e9a48e"/>
      <path id="Trazado_129256" data-name="Trazado 129256" d="M78.989,22.371a10.325,10.325,0,0,0,3.218,2.045l1.988,3.271,2.868-1.273s-.7-3.609,1.229-4.461,1.395-3.21,1.395-3.21S82.8,13.7,79.9,13.514A12.759,12.759,0,0,0,78.86,17.27a22.753,22.753,0,0,0,.129,5.1" transform="translate(-6311 -6192.77)" fill="#171612"/>
      <path id="Trazado_129257" data-name="Trazado 129257" d="M109.155,19.411s-7.192-6.767-12.184-5.495a12.828,12.828,0,0,0-7.284,4.826s-9.156.23-10.865-2.364,2.43-11.2,9.527-11.829,16.907,3.157,20.806,14.862" transform="translate(-6311 -6192.77)" fill="#171612"/>
      <path id="Trazado_129258" data-name="Trazado 129258" d="M103.98,30.919c-.233.79-.755,1.333-1.165,1.212s-.554-.86-.321-1.65.754-1.333,1.165-1.212.554.86.321,1.65" transform="translate(-6311 -6192.77)" fill="#171612"/>
      <path id="Trazado_129259" data-name="Trazado 129259" d="M101.653,29.685a.215.215,0,0,1-.088-.1.217.217,0,0,1,.117-.285c.093-.039,2.291-.937,3.743.621a.218.218,0,0,1-.319.3c-1.246-1.337-3.236-.525-3.256-.516a.217.217,0,0,1-.2-.015" transform="translate(-6311 -6192.77)" fill="#171612"/>
      <g id="Grupo_157383" data-name="Grupo 157383" transform="translate(-6311 -6192.77)" opacity="0.5">
        <g id="Grupo_157382" data-name="Grupo 157382">
          <g id="Grupo_157381" data-name="Grupo 157381" clip-path="url(#clip-path)">
            <path id="Trazado_129260" data-name="Trazado 129260" d="M94.722,32.768c-.128.532-1.558.643-3.192.248s-2.855-1.147-2.726-1.679,1.558-.643,3.192-.248,2.855,1.147,2.726,1.679" fill="#c6695d"/>
          </g>
        </g>
      </g>
      <g id="Grupo_157386" data-name="Grupo 157386" transform="translate(-6311 -6192.77)" opacity="0.5">
        <g id="Grupo_157385" data-name="Grupo 157385">
          <g id="Grupo_157384" data-name="Grupo 157384" clip-path="url(#clip-path-2)">
            <path id="Trazado_129261" data-name="Trazado 129261" d="M105.351,36.328c-1.107-.409-1.835-.959-1.734-1.377s.993-.573,2.159-.434c-.177.734-.321,1.353-.425,1.811" fill="#c6695d"/>
          </g>
        </g>
      </g>
      <path id="Trazado_129262" data-name="Trazado 129262" d="M84.559,34.146a3.077,3.077,0,0,1-1.07.686,3.944,3.944,0,0,1-1.85.2c-.015-.091-.027-.182-.038-.27-.029-.208-.052-.414-.066-.619l-.085-.023a4.363,4.363,0,0,0,.466.057,3.2,3.2,0,0,0,.8-.04,2.336,2.336,0,0,0,1.236-.618.436.436,0,0,1,.61.624" transform="translate(-6311 -6192.77)" fill="#c6695d"/>
      <path id="Trazado_129263" data-name="Trazado 129263" d="M96.54,49.205a9.3,9.3,0,0,1-1.016,0c-5.952-.322-12.1-7.081-13.644-13.033a1.9,1.9,0,0,1,1.609-1.34l.706-7.146,2.87-1.274s.9,6.692,3.035,7.432,7.3.957,9.2,2.634c0,0,3.823-.542,5.836,1.3-.2,4.939-2.754,11.081-8.6,11.422" transform="translate(-6311 -6192.77)" fill="#171612"/>
      <path id="Trazado_129264" data-name="Trazado 129264" d="M95.036,35.974s-.76,3.794,2.335,4.794a3.336,3.336,0,0,0,4.226-2Z" transform="translate(-6311 -6192.77)" fill="#fff"/>
      <path id="Trazado_129265" data-name="Trazado 129265" d="M96.377,42.018a1.742,1.742,0,0,1-.809-.826.292.292,0,0,1,.54-.224,1.187,1.187,0,0,0,1.156.648.292.292,0,1,1,.017.584,1.9,1.9,0,0,1-.9-.182" transform="translate(-6311 -6192.77)" fill="#5f5f75"/>
      <path id="Trazado_129266" data-name="Trazado 129266" d="M81.128,31.024a.437.437,0,0,1-.258-.427c.2-3.088-2.973-5.276-3.005-5.3a.436.436,0,0,1,.488-.723c.148.1,3.625,2.486,3.387,6.078a.437.437,0,0,1-.464.407.46.46,0,0,1-.148-.037" transform="translate(-6311 -6192.77)" fill="#c6695d"/>
      <path id="Trazado_129267" data-name="Trazado 129267" d="M77.887,28.425a.426.426,0,0,1-.137-.1.436.436,0,0,1,.012-.617,2.994,2.994,0,0,1,2.875-.595.436.436,0,0,1-.254.835,2.123,2.123,0,0,0-2.017.388.435.435,0,0,1-.479.085" transform="translate(-6311 -6192.77)" fill="#c6695d"/>
      <path id="Trazado_129268" data-name="Trazado 129268" d="M99.816,35.569a.436.436,0,0,1,0-.8l2.674-1.162-1.89-1.092a.438.438,0,0,1-.211-.3l-1.014-5.466a.436.436,0,0,1,.857-.159l.978,5.268,2.465,1.424a.437.437,0,0,1-.044.778l-3.467,1.507a.437.437,0,0,1-.351,0" transform="translate(-6311 -6192.77)" fill="#c6695d"/>
      <path id="Trazado_129269" data-name="Trazado 129269" d="M93.808,25.052a1.2,1.2,0,0,1-.254-2.038c.124-.1,3.067-2.366,6.093-.525A1.2,1.2,0,0,1,98.4,24.537a3.188,3.188,0,0,0-3.364.361,1.2,1.2,0,0,1-1.229.154" transform="translate(-6311 -6192.77)" fill="#171612"/>
      <path id="Trazado_129270" data-name="Trazado 129270" d="M105.971,27.873a1.2,1.2,0,0,1-.672-.785c-.264-.979-1.894-1.375-2.316-1.427a1.2,1.2,0,0,1,.294-2.38c1.337.166,3.755,1.022,4.337,3.184a1.2,1.2,0,0,1-1.643,1.408" transform="translate(-6311 -6192.77)" fill="#171612"/>
      <path id="Trazado_129271" data-name="Trazado 129271" d="M97.066,28.965c-.233.79-.755,1.333-1.165,1.212s-.554-.86-.321-1.65.754-1.333,1.165-1.212.554.86.321,1.65" transform="translate(-6311 -6192.77)" fill="#171612"/>
      <path id="Trazado_129272" data-name="Trazado 129272" d="M94.159,27.917a.218.218,0,0,1-.02-.388c.087-.05,2.154-1.218,3.791.143a.218.218,0,1,1-.278.335c-1.406-1.169-3.277-.111-3.295-.1a.22.22,0,0,1-.2.01" transform="translate(-6311 -6192.77)" fill="#171612"/>
      <path id="Trazado_129273" data-name="Trazado 129273" d="M105.4,72.42a27.956,27.956,0,0,0,4.51,9.1c.071-.342.144-.675.216-1a27.284,27.284,0,0,1-3.828-7.726,21.008,21.008,0,0,1,.734-14.441c-.227-.108-.455-.211-.688-.312A21.621,21.621,0,0,0,105.4,72.42" transform="translate(-6311 -6192.77)" fill="#5fa68d"/>
      <path id="Trazado_129274" data-name="Trazado 129274" d="M51.406,59.472a27.562,27.562,0,0,0,9.6,11.164v0q.924.612,1.89,1.147c6.221,3.438,13.408,4.2,20.274,5.529,6.892,1.331,13.3,3.565,18.685,8.2a33.833,33.833,0,0,1,6.156,6.973c.049-.379.1-.754.15-1.123a34.92,34.92,0,0,0-5.566-6.221A36.958,36.958,0,0,0,85.9,77.1c-7.085-1.587-14.547-2.079-21.186-5.236a26,26,0,0,1-4-2.368,26.879,26.879,0,0,1-8.829-10.821c-.162.26-.32.525-.476.8" transform="translate(-6311 -6192.77)" fill="#5fa68d"/>
      <path id="Trazado_129275" data-name="Trazado 129275" d="M110.5,75.295c-.052.247-.459,2.228-.981,5.039q-.116.62-.236,1.288c-.806,4.471-1.78,10.447-2.141,15.037a.427.427,0,0,0,.756.3l.009-.011c.344-4.581,1.346-10.721,2.163-15.266a.268.268,0,0,0,.013-.08c.641-3.529,1.162-6.083,1.178-6.151a.383.383,0,0,0-.3-.46.387.387,0,0,0-.46.3" transform="translate(-6311 -6192.77)" fill="#253f3d"/>
      <path id="Trazado_129276" data-name="Trazado 129276" d="M83.567,70.348a57.552,57.552,0,0,0,1.567-10.084,31.545,31.545,0,0,0-.553-7.385s-5.761-3.305-7.378-7.7c0,0-6.706.878-7.951,5.437,0,0,6.691,15.77,14.315,19.732" transform="translate(-6311 -6192.77)" fill="#253f3d"/>
      <path id="Trazado_129277" data-name="Trazado 129277" d="M95.584,50.544s4.108-.081,3.582,5.446c-1.044,10.983-8.516,13.3-8.516,13.3l-.949-5.8a36.517,36.517,0,0,1-.135-8.667s5.471.219,6.018-4.282" transform="translate(-6311 -6192.77)" fill="#253f3d"/>
      <path id="Trazado_129278" data-name="Trazado 129278" d="M86.268,62.365a1.173,1.173,0,1,0,1.286-1.047,1.172,1.172,0,0,0-1.286,1.047" transform="translate(-6311 -6192.77)" fill="#253f3d"/>
      <path id="Trazado_129279" data-name="Trazado 129279" d="M86.186,67.044A1.173,1.173,0,1,0,87.472,66a1.173,1.173,0,0,0-1.286,1.047" transform="translate(-6311 -6192.77)" fill="#253f3d"/>
      <path id="Trazado_129280" data-name="Trazado 129280" d="M85.922,71.242a1.173,1.173,0,1,0,1.286-1.047,1.172,1.172,0,0,0-1.286,1.047" transform="translate(-6311 -6192.77)" fill="#253f3d"/>
      <path id="Trazado_129281" data-name="Trazado 129281" d="M83.067,97.986c.149,2.89,3.149,5.218,4.974,7.124q9.49,9.917,18.983,19.831c-.021-.4-.04-.788-.058-1.162l-3.4-3.549Q96.8,113.162,90.04,106.094q-1.758-1.834-3.516-3.671a11.023,11.023,0,0,1-2.376-3.231c-.731-1.765.031-3.5,1.994-3.762a8.551,8.551,0,0,1,3.588.517,52.38,52.38,0,0,1,17.167,9.122c.015-.319.03-.636.049-.949l0,0a53.177,53.177,0,0,0-5.149-3.554A54.041,54.041,0,0,0,94.3,96.778c-2.387-.978-5.212-2.279-7.855-2.137-1.872.1-3.488,1.334-3.382,3.345" transform="translate(-6311 -6192.77)" fill="#5fa68d"/>
      <path id="Trazado_129282" data-name="Trazado 129282" d="M58.674,73.361c5.1,2.5,10.128,5.7,13.194,10.62,2.73,4.381,3.756,10.057,1.212,14.759a11.82,11.82,0,0,1-4.513,4.678,12.333,12.333,0,0,1-6.475,1.265c-2.621-.022-6.188.03-6.631,3.375-.357,2.695,1.344,5.279,1.373,7.968.051,4.748-5.48,8.2-9.758,6.329-.449-.2-.175-.911.278-.713a6.3,6.3,0,0,0,6.665-1.255c1.963-1.744,2.314-4.009,1.749-6.476-.483-2.109-1.531-4.4-.938-6.592a4.436,4.436,0,0,1,3.214-3.086c2.093-.583,4.314-.173,6.449-.353a9.6,9.6,0,0,0,6.243-3.153c3.695-4.018,3.744-9.772,1.485-14.52-2.744-5.764-8.272-9.4-13.825-12.133-.438-.215-.165-.931.278-.713" transform="translate(-6311 -6192.77)" fill="#5fa68d"/>
      <path id="Trazado_129283" data-name="Trazado 129283" d="M46.052,134.812c.007.257.015.512.022.77.245.015.488.028.73.032a18.569,18.569,0,0,0,4.225-.37,16.547,16.547,0,0,0,7.4-3.522c2.632-2.245,4.47-5.23,6.327-8.108,1.91-2.96,3.97-5.962,6.955-7.945,3.49-2.312,7.42-2.252,11.133-.452a47.5,47.5,0,0,1,9.537,6.772,89.166,89.166,0,0,1,15.51,17.055c-.037-.494-.072-.982-.1-1.47v0A90.037,90.037,0,0,0,91.7,120.424a41.238,41.238,0,0,0-9.19-6.2,11.312,11.312,0,0,0-9.55-.138,19,19,0,0,0-6.943,6.29c-2.09,2.9-3.767,6.1-6.12,8.805a16,16,0,0,1-8.332,5.163,17.825,17.825,0,0,1-4.78.505c-.245-.008-.488-.017-.73-.035" transform="translate(-6311 -6192.77)" fill="#5fa68d"/>
      <path id="Trazado_129284" data-name="Trazado 129284" d="M96.161,141.365a32.23,32.23,0,0,0-10.952-5.6,15.681,15.681,0,0,0-11.045,1.24,29.57,29.57,0,0,0-6.107,4.36H66.915c.069-.061.136-.124.2-.185,5.022-4.513,10.812-7.818,17.785-6.273a33.067,33.067,0,0,1,12.718,6.458Z" transform="translate(-6311 -6192.77)" fill="#5fa68d"/>
      <path id="Trazado_129285" data-name="Trazado 129285" d="M107.2,93.289s-1.341-7-.549-9.273.776-6.123,2.345-5.721,1.459,5.139,1.459,5.139Z" transform="translate(-6311 -6192.77)" fill="#eaad8f"/>
      <path id="Trazado_129286" data-name="Trazado 129286" d="M48.724,78.02l.808,3.221c.271,1.054.541,2.105.828,3.15.569,2.093,1.147,4.18,1.753,6.263,1.223,4.163,2.494,8.321,3.908,12.471s2.9,8.309,4.655,12.5c.876,2.1,1.808,4.205,2.87,6.359a51.154,51.154,0,0,0,3.907,6.749c.426.607.892,1.233,1.441,1.894a20.956,20.956,0,0,0,2,2.114,16.6,16.6,0,0,0,1.44,1.177,14.128,14.128,0,0,0,2.033,1.23,12.233,12.233,0,0,0,2.977,1.027,11.65,11.65,0,0,0,1.891.227l.246.008h.174L80,136.4c.236,0,.44-.019.658-.035a14.385,14.385,0,0,0,4.02-.935,18.841,18.841,0,0,0,2.658-1.277,28.577,28.577,0,0,0,3.733-2.607,55.078,55.078,0,0,0,5.415-5.187c1.6-1.729,3.077-3.466,4.5-5.213s2.776-3.5,4.1-5.269,2.587-3.555,3.782-5.388,2.329-3.7,3.389-5.609q.8-1.431,1.533-2.906c.247-.49.48-.991.715-1.492.118-.249.235-.5.345-.759l.343-.791a6.172,6.172,0,0,0-9.77-7.06l-.264.238c-.358.32-.753.7-1.117,1.058s-.748.73-1.112,1.1q-1.1,1.114-2.17,2.247-2.142,2.264-4.2,4.564c-1.375,1.529-2.724,3.064-4.064,4.586s-2.7,3.006-4.077,4.437-2.762,2.808-4.148,4.075a38.839,38.839,0,0,1-4.025,3.28,9.83,9.83,0,0,1-1.542.909c-.167.07-.283.1-.221.049a2.4,2.4,0,0,1,.938-.23c.085-.009.158-.011.262-.018l.145,0,.223,0a6.754,6.754,0,0,1,1.1.127,6.488,6.488,0,0,1,1.49.486,5.468,5.468,0,0,1,.691.389c.128.079.208.147.231.151.063.038-.019-.075-.122-.238s-.256-.4-.414-.679c-.32-.552-.681-1.251-1.035-2s-.719-1.566-1.069-2.412c-.7-1.691-1.373-3.5-2.01-5.353-1.267-3.715-2.446-7.593-3.55-11.516s-2.151-7.908-3.139-11.911c-.5-2-.994-4-1.468-6.012l-.713-3-.676-2.949-.04-.172a10.6,10.6,0,0,0-20.658,4.738c.012.052.038.156.05.208" transform="translate(-6311 -6192.77)" fill="#eaad8f"/>
      <path id="Trazado_129287" data-name="Trazado 129287" d="M79.987,117.575l-3.006,1.214c-.526.213-.165,1.017.36.805l3.006-1.214c.526-.213.165-1.017-.36-.805" transform="translate(-6311 -6192.77)" fill="#c6695d"/>
      <path id="Trazado_129288" data-name="Trazado 129288" d="M81.832,116.966a7.752,7.752,0,0,0-2.292,4.811.475.475,0,0,1-.944-.1,8.772,8.772,0,0,1,2.632-5.44c.437-.428,1.037.308.6.732" transform="translate(-6311 -6192.77)" fill="#c6695d"/>
      <path id="Trazado_129289" data-name="Trazado 129289" d="M107.633,100.145a6.719,6.719,0,0,0,9.091-2.009,16.456,16.456,0,0,1,3.814-4.093c3.328-2.248,7.884-3.979,9.243-5.59,2.007-2.377-1.344-2.218-1.756-2.141a46.634,46.634,0,0,0-6.173,1.8s5.625-3.864,8.261-4.39,3.762-2.669,1.021-3.584-9.824,2.051-11.564,3.4c0,0,2.855-3.278,6.4-4.109s4.7-1.6,5.782-2.611-1.151-2.959-6.072-1.672a16.087,16.087,0,0,0-8.313,4.689,26.927,26.927,0,0,1,2.911-4.413c2.039-2.6,6.215-3.232,6.63-5.165.424-1.976-4.353-1.034-6.756.663s-4.293,2.729-6.309,5.9A47.4,47.4,0,0,0,109.26,85.3c-.75,2.19-4.444,9.627-3.414,12.8a4.12,4.12,0,0,0,1.787,2.043" transform="translate(-6311 -6192.77)" fill="#eaad8f"/>
      <path id="Trazado_129290" data-name="Trazado 129290" d="M47.407,74.39A110.766,110.766,0,0,0,48.467,88.4c.032.268.07.533.1.792.752,5.55,1.6,9.723,1.6,9.723,1.922.045,5.437-.695,9.385-1.74.247-.065.5-.132.747-.2,3.145-.855,6.513-1.878,9.53-2.838.463-.147.918-.292,1.36-.435,2.183-.705,4.12-1.355,5.565-1.845h0l1.085-.372c1.01-.348,1.595-.555,1.595-.555s-.725-3.12-1.82-7.458c-.065-.255-.133-.515-.2-.78-.292-1.149-.61-2.375-.942-3.64q-.1-.382-.2-.77c-2.233-8.415-5.148-18.317-7.025-20.525a7.309,7.309,0,0,0-1.29-1.177c-.2-.148-.418-.288-.638-.418a10.724,10.724,0,0,0-1.245-.625,12.608,12.608,0,0,0-10.9.363c-.21.11-.415.232-.615.36a10.7,10.7,0,0,0-2.68,2.41,13.559,13.559,0,0,0-1.018,1.495c-.12.2-.237.4-.352.612a24.741,24.741,0,0,0-2.838,8.51,42.054,42.054,0,0,0-.26,4.388q-.008.353-.007.71" transform="translate(-6311 -6192.77)" fill="#467b6c"/>
      <path id="Trazado_129291" data-name="Trazado 129291" d="M48.467,88.4c.032.268.07.533.1.792a16.289,16.289,0,0,1,2.437.728,17.5,17.5,0,0,1,8.543,7.255c.247-.065.5-.132.747-.2a18.367,18.367,0,0,0-8.752-7.645,17.024,17.024,0,0,0-3.08-.93" transform="translate(-6311 -6192.77)" fill="#5fa68d"/>
      <path id="Trazado_129292" data-name="Trazado 129292" d="M50.512,60.782c.35.088.695.187,1.04.3,4.637,1.5,7.27,5.048,9.58,9.13,1.95,3.453,4.055,7.39,7.827,9.143a7.869,7.869,0,0,0,7.518-.3q-.1-.382-.2-.77c-3.038,2.325-7.448.765-9.978-1.785-3.115-3.143-4.57-7.465-7.225-10.945a14.907,14.907,0,0,0-8.21-5.387c-.12.2-.237.4-.352.612" transform="translate(-6311 -6192.77)" fill="#5fa68d"/>
      <path id="Trazado_129293" data-name="Trazado 129293" d="M47.407,74.39c3.732-.348,7.14,2.617,9.182,5.622,2.078,3.053,3.495,6.53,5.9,9.36a15.324,15.324,0,0,0,7.34,4.77c.463-.147.918-.292,1.36-.435-4.54-.924-7.877-3.935-10.247-7.807-2.093-3.418-3.733-7.3-6.9-9.9a9.572,9.572,0,0,0-6.628-2.315q-.008.353-.007.71" transform="translate(-6311 -6192.77)" fill="#5fa68d"/>
      <path id="Trazado_129294" data-name="Trazado 129294" d="M76.754,91.862h0l1.085-.372c-2.6-1.018-5.025-2.805-3.113-5.465a9.236,9.236,0,0,1,2.888-2.548c-.065-.255-.133-.515-.2-.78a8.339,8.339,0,0,0-3.892,3.928c-1.045,2.482.912,4.18,3.227,5.237" transform="translate(-6311 -6192.77)" fill="#5fa68d"/>
      <path id="Trazado_129295" data-name="Trazado 129295" d="M54.067,55.79c.165.16.33.32.495.475,2.352,2.23,4.907,4.075,8.307,3.823a5.969,5.969,0,0,0,5.093-3.5c.027-.057.052-.113.077-.17a9.032,9.032,0,0,0,.343-5.577c-.238.057-.48.112-.728.162a8.21,8.21,0,0,1-.33,5.168c-1.167,2.647-3.9,3.6-6.62,3A12.041,12.041,0,0,1,55.177,55.9c-.213-.2-.423-.4-.633-.6-.162.157-.32.32-.477.49" transform="translate(-6311 -6192.77)" fill="#5fa68d"/>
      <path id="Trazado_129296" data-name="Trazado 129296" d="M48.16,78.036A74.592,74.592,0,0,0,50.6,98.674a.375.375,0,0,1-.723.2A75.37,75.37,0,0,1,47.41,78.036a.375.375,0,0,1,.75,0" transform="translate(-6311 -6192.77)" fill="#253f3d"/>
      <path id="Trazado_129297" data-name="Trazado 129297" d="M87.456,134.168H193.567l1.152-2.6c.725-1.639-1.165-3.273-3.786-3.273H93.02c-1.756,0-3.3.757-3.786,1.855Z" transform="translate(-6311 -6192.77)" fill="#fff"/>
      <path id="Trazado_129298" data-name="Trazado 129298" d="M214.739,64.629l-12.787,54.082a3.193,3.193,0,0,1-3.108,2.458H120.072a3.194,3.194,0,0,1-3.108-3.928L129.75,63.159a3.194,3.194,0,0,1,3.109-2.458H211.63a3.194,3.194,0,0,1,3.109,3.928" transform="translate(-6311 -6192.77)" fill="#fff"/>
      <path id="Trazado_129299" data-name="Trazado 129299" d="M176.465,93.05a7.059,7.059,0,0,1-6.843,6.163,5.414,5.414,0,0,1-5.484-6.163,7.059,7.059,0,0,1,6.843-6.163,5.414,5.414,0,0,1,5.484,6.163" transform="translate(-6311 -6192.77)" fill="#2b2b39"/>
      <path id="Trazado_129300" data-name="Trazado 129300" d="M135.98,60.7,122.366,121.17h-2.294a3.193,3.193,0,0,1-3.108-3.928L129.75,63.16a3.194,3.194,0,0,1,3.109-2.459Z" transform="translate(-6311 -6192.77)" fill="#2b2b39"/>
      <path id="Trazado_129301" data-name="Trazado 129301" d="M158.8,121.169l-2.685,12.847h7.893l2.684-12.847Z" transform="translate(-6311 -6192.77)" fill="#2b2b39"/>
      <path id="Trazado_129302" data-name="Trazado 129302" d="M144.6,131.843l1.616-2.271a3.076,3.076,0,0,1,2.506-1.293h21.639a3.075,3.075,0,0,1,2.725,1.65l1.09,2.084a1.464,1.464,0,0,1-1.3,2.142H145.789a1.464,1.464,0,0,1-1.193-2.312" transform="translate(-6311 -6192.77)" fill="#fff"/>
      <path id="Trazado_129303" data-name="Trazado 129303" d="M125.507,50.941h57.979a1.684,1.684,0,0,0,1.684-1.684V16.551H123.823V49.257a1.684,1.684,0,0,0,1.684,1.684" transform="translate(-6311 -6192.77)" fill="#fff"/>
      <path id="Trazado_129304" data-name="Trazado 129304" d="M159.291,34.466A10.784,10.784,0,1,0,180.023,30.3l-9.949,4.168.511-10.77c-.167-.01-.339-.013-.511-.013a10.783,10.783,0,0,0-10.783,10.783" transform="translate(-6311 -6192.77)" fill="#1c2b74"/>
      <path id="Trazado_129305" data-name="Trazado 129305" d="M171.659,21.917a10.792,10.792,0,0,1,9.437,6.6l-9.948,4.167Z" transform="translate(-6311 -6192.77)" fill="#5880eb"/>
      <rect id="Rectángulo_37510" data-name="Rectángulo 37510" width="1.481" height="1.481" transform="translate(-6177.669 -6165.729)" fill="#314fa5"/>
      <path id="Trazado_129306" data-name="Trazado 129306" d="M127.027,27.966h5.306a.016.016,0,0,0,.016-.016v-.339a.016.016,0,0,0-.016-.016h-5.306a.016.016,0,0,0-.016.016v.339a.016.016,0,0,0,.016.016" transform="translate(-6311 -6192.77)" fill="#c8baae"/>
      <rect id="Rectángulo_37511" data-name="Rectángulo 37511" width="1.481" height="1.481" transform="translate(-6177.669 -6168.369)" fill="#5880eb"/>
      <path id="Trazado_129307" data-name="Trazado 129307" d="M127.027,25.327h5.306a.016.016,0,0,0,.016-.016v-.339a.016.016,0,0,0-.016-.016h-5.306a.016.016,0,0,0-.016.016v.339a.016.016,0,0,0,.016.016" transform="translate(-6311 -6192.77)" fill="#c8baae"/>
      <rect id="Rectángulo_37512" data-name="Rectángulo 37512" width="1.481" height="1.481" transform="translate(-6177.669 -6163.091)" fill="#1c2b74"/>
      <path id="Trazado_129308" data-name="Trazado 129308" d="M127.027,30.6h5.306a.016.016,0,0,0,.016-.016v-.339a.016.016,0,0,0-.016-.016h-5.306a.016.016,0,0,0-.016.016v.339a.016.016,0,0,0,.016.016" transform="translate(-6311 -6192.77)" fill="#c8baae"/>
      <path id="Trazado_129309" data-name="Trazado 129309" d="M127.2,35.8h7.431a.185.185,0,0,0,0-.371H127.2a.185.185,0,0,0,0,.371" transform="translate(-6311 -6192.77)" fill="#c8baae"/>
      <path id="Trazado_129310" data-name="Trazado 129310" d="M127.2,37.323h7.431a.186.186,0,0,0,0-.371H127.2a.186.186,0,0,0,0,.371" transform="translate(-6311 -6192.77)" fill="#c8baae"/>
      <path id="Trazado_129311" data-name="Trazado 129311" d="M127.2,38.846h7.431a.186.186,0,0,0,0-.371H127.2a.186.186,0,0,0,0,.371" transform="translate(-6311 -6192.77)" fill="#c8baae"/>
      <path id="Trazado_129312" data-name="Trazado 129312" d="M127.2,40.368h7.431a.185.185,0,0,0,0-.371H127.2a.185.185,0,0,0,0,.371" transform="translate(-6311 -6192.77)" fill="#c8baae"/>
      <path id="Trazado_129313" data-name="Trazado 129313" d="M127.2,41.891h7.431a.185.185,0,0,0,0-.371H127.2a.185.185,0,0,0,0,.371" transform="translate(-6311 -6192.77)" fill="#c8baae"/>
      <path id="Trazado_129314" data-name="Trazado 129314" d="M127.2,43.413h7.431a.185.185,0,0,0,0-.371H127.2a.185.185,0,0,0,0,.371" transform="translate(-6311 -6192.77)" fill="#c8baae"/>
      <path id="Trazado_129315" data-name="Trazado 129315" d="M127.2,44.936h7.431a.186.186,0,0,0,0-.371H127.2a.186.186,0,0,0,0,.371" transform="translate(-6311 -6192.77)" fill="#c8baae"/>
      <path id="Trazado_129316" data-name="Trazado 129316" d="M159.291,34.466a10.742,10.742,0,0,0,2.777,7.224l8.006-7.224.511-10.77c-.167-.01-.339-.013-.511-.013a10.783,10.783,0,0,0-10.783,10.783" transform="translate(-6311 -6192.77)" fill="#314fa5"/>
      <rect id="Rectángulo_37513" data-name="Rectángulo 37513" width="3.433" height="14.711" transform="translate(-6165.642 -6161.027)" fill="#5880eb"/>
      <path id="Trazado_129317" data-name="Trazado 129317" d="M148.792,42.573a13.4,13.4,0,0,1-3.433-1.773v5.653h3.433Z" transform="translate(-6311 -6192.77)" fill="#314fa5"/>
      <rect id="Rectángulo_37514" data-name="Rectángulo 37514" width="3.433" height="10.623" transform="translate(-6160.03 -6156.939)" fill="#5880eb"/>
      <path id="Trazado_129318" data-name="Trazado 129318" d="M151.6,42.822a6.04,6.04,0,0,1-.635.058v3.573H154.4V42.914a6.2,6.2,0,0,0-2.8-.092" transform="translate(-6311 -6192.77)" fill="#314fa5"/>
      <rect id="Rectángulo_37515" data-name="Rectángulo 37515" width="3.433" height="19.106" transform="translate(-6171.253 -6165.422)" fill="#5880eb"/>
      <path id="Trazado_129319" data-name="Trazado 129319" d="M139.747,37.818v8.635h3.433V39.284a6.626,6.626,0,0,0-3.433-1.466" transform="translate(-6311 -6192.77)" fill="#314fa5"/>
      <path id="Trazado_129320" data-name="Trazado 129320" d="M139.886,21.777l3.1.664-.832.817,4.744,4.835,1.665-1.632,5.886,6a.581.581,0,0,1-.829.813L148.545,28.1l-1.665,1.633-5.557-5.665-.832.816Z" transform="translate(-6311 -6192.77)" fill="#5880eb"/>
      <path id="Trazado_129321" data-name="Trazado 129321" d="M123.824,17.974h61.345V13.138a.746.746,0,0,0-.746-.747H124.57a.746.746,0,0,0-.746.747Z" transform="translate(-6311 -6192.77)" fill="#171612"/>
      <path id="Trazado_129322" data-name="Trazado 129322" d="M132.262,15.006a.9.9,0,1,0,.905-.9.9.9,0,0,0-.905.9" transform="translate(-6311 -6192.77)" fill="#c8baae"/>
      <path id="Trazado_129323" data-name="Trazado 129323" d="M126.245,15.006a.9.9,0,1,0,.9-.9.9.9,0,0,0-.9.9" transform="translate(-6311 -6192.77)" fill="#c8baae"/>
      <path id="Trazado_129324" data-name="Trazado 129324" d="M129.164,15.006a.9.9,0,1,0,.9-.9.9.9,0,0,0-.9.9" transform="translate(-6311 -6192.77)" fill="#c8baae"/>
    </g>
    <rect id="Rectángulo_37525" data-name="Rectángulo 37525" width="250" height="192" transform="translate(-6436 -6960)" fill="none"/>
  </g>
</svg>
