<svg xmlns="http://www.w3.org/2000/svg" xmlns:xlink="http://www.w3.org/1999/xlink" width="69" height="84" viewBox="0 0 69 84">
  <defs>
    <clipPath id="clip-path">
      <rect id="Rect치ngulo_37603" data-name="Rect치ngulo 37603" width="38" height="40.979" fill="none"/>
    </clipPath>
  </defs>
  <g id="_38" data-name="38" transform="translate(-323 -10916.999)">
    <g id="Grupo_156377" data-name="Grupo 156377" transform="translate(323.373 10917.391)">
      <rect id="Rect치ngulo_36766" data-name="Rect치ngulo 36766" width="69" height="84" rx="12" transform="translate(-0.373 -0.391)" fill="#0c487b"/>
    </g>
    <g id="Grupo_156647" data-name="Grupo 156647" transform="translate(1)">
      <g id="Grupo_156582" data-name="Grupo 156582" transform="translate(-26 6270)">
        <path id="Trazado_127053" data-name="Trazado 127053" d="M15.507,123.96c-.454.1-.559-.113-.555-.537.012-1.063-.007-1.081-1.106-1.075-.409,0-.536-.124-.528-.529.007-.377.077-.553.512-.551,1.1,0,1.131-.018,1.119-1.119-.005-.5.239-.507.608-.511s.56.058.56.5c0,1.115.023,1.135,1.112,1.131.421,0,.521.15.522.541s-.1.541-.52.539c-1.11-.006-1.137.014-1.112,1.066.012.488-.169.631-.611.545" transform="translate(339.683 4573.993)" fill="#29c4bb"/>
        <path id="Trazado_127054" data-name="Trazado 127054" d="M213.642,151.161c.406-.078.632.057.565.517-.056.385.077.6.5.533s.57.088.573.537c0,.47-.189.578-.589.525-.383-.052-.5.115-.5.5.012.6-.357.826-.934.645-.274-.086-.214-.3-.2-.477.048-.472-.06-.76-.616-.666-.431.073-.457-.2-.456-.527s.014-.6.451-.53c.471.073.694-.1.616-.6-.075-.475.23-.5.582-.454" transform="translate(195.806 4552.685)" fill="#29c4bb"/>
        <path id="Trazado_127055" data-name="Trazado 127055" d="M210.718,69.268c.1.453-.1.608-.527.537-.46-.078-.648.111-.567.569s-.113.548-.542.553-.609-.127-.532-.557c.082-.459-.109-.648-.565-.562-.472.089-.513-.158-.531-.555-.021-.466.16-.588.566-.517.441.077.606-.106.531-.537-.072-.412.061-.579.521-.563.4.014.639.072.552.536s.115.639.567.563c.425-.072.632.081.526.534" transform="translate(199.254 4608.526)" fill="#010000"/>
        <path id="Trazado_127056" data-name="Trazado 127056" d="M55.04,186.64c.1.423-.11.578-.532.5-.5-.09-.614.169-.543.587.079.465-.146.537-.555.535-.39,0-.6-.091-.518-.511.108-.553-.169-.688-.645-.607s-.466-.225-.467-.559.007-.6.448-.512c.593.117.745-.168.665-.7-.077-.508.311-.362.569-.377.274-.016.579-.052.5.389-.1.545.092.8.67.687.482-.092.423.243.409.566" transform="translate(311.829 4530.025)" fill="#010000"/>
        <path id="Trazado_127057" data-name="Trazado 127057" d="M121.786,17.426c-.114-.483.153-.577.548-.518.41.061.572-.109.509-.513s.058-.588.522-.578c.427.009.623.119.548.558s.131.6.553.533c.391-.059.587.035.589.513s-.182.62-.608.553c-.45-.072-.6.133-.533.553.078.472-.175.526-.572.534-.424.009-.562-.151-.5-.54.068-.427-.09-.622-.535-.547s-.62-.106-.523-.547" transform="translate(261.153 4643.184)" fill="#29c4bb"/>
      </g>
      <g id="Grupo_157512" data-name="Grupo 157512" transform="translate(338 10939)">
        <g id="Grupo_157512-2" data-name="Grupo 157512" clip-path="url(#clip-path)">
          <path id="Trazado_129699" data-name="Trazado 129699" d="M84.305,0a5.189,5.189,0,0,0,1.23.187,9.336,9.336,0,0,1,7.635,6.47,9.651,9.651,0,0,1,.346,6.232,5.175,5.175,0,0,1-.946,1.776,2.96,2.96,0,0,1,1.743,1.919,3.733,3.733,0,0,1-2.874,4.527,1.174,1.174,0,0,0-.92.694,16.572,16.572,0,0,1-3.888,4.677c-.146.124-.272.223-.24.453q.161,1.168.281,2.341a.327.327,0,0,0,.276.323c.46.132.919.268,1.375.414a.3.3,0,0,0,.4-.1,1.494,1.494,0,0,1,1.688-.506c.971.281,1.946.553,2.9.88A7.37,7.37,0,0,1,98.481,36.5c.189,1.142.4,2.281.607,3.42,0,.026.013.052.017.078.1.539-.037.853-.4.952s-.626-.122-.789-.646a3.769,3.769,0,0,1-.324-1.345c-.164-.877-.3-1.758-.48-2.632a5.983,5.983,0,0,0-4.2-4.795c-.808-.272-1.626-.513-2.445-.752-.7-.2-.812-.112-.843.63,0,.053,0,.106,0,.16q-.114,1.345-.344,2.675a.778.778,0,0,1-.842.718c-.485-.232-.609-.414-.55-.935.08-.714.2-1.425.284-2.139.058-.472.023-.537-.44-.694q-.095-.032-.19-.061c-.55-.166-.55-.166-.8.351a.752.752,0,0,1-.1.123,4.846,4.846,0,0,1-4.355,3.116c-.3.037-.391.118-.388.425.016,1.639.008,3.278.007,4.917a2.333,2.333,0,0,1-.008.359.6.6,0,0,1-1.187.005,1.945,1.945,0,0,1-.007-.319q0-16.691,0-33.382c0-.556.09-.692.545-.826a.583.583,0,0,1,.744.544,4.585,4.585,0,0,1,.024.8c0,.533.011,1.065,0,1.6a.433.433,0,0,0,.427.506,18.9,18.9,0,0,0,2.7.226,7.926,7.926,0,0,1,2.712.416,5.97,5.97,0,0,1,3.334,2.884c.123.278.215.569.332.872.187-.055.249-.209.328-.337a4.537,4.537,0,0,0,.668-2.158,9.613,9.613,0,0,0-3.025-7.866,6.184,6.184,0,0,0-2.719-1.551A14.03,14.03,0,0,0,82.4,1.32c-.275,0-.376.13-.376.391,0,.558,0,1.116,0,1.673a1.73,1.73,0,0,1-.036.436.58.58,0,0,1-.815.438.585.585,0,0,1-.469-.643c0-.861,0-1.722,0-2.583A1.146,1.146,0,0,1,81.422,0h.4a7.71,7.71,0,0,0,1.236.041c.175-.019.356.042.526-.041h.32a.1.1,0,0,0,.16,0Z" transform="translate(-61.135)"/>
          <path id="Trazado_129700" data-name="Trazado 129700" d="M86.622.075A4.1,4.1,0,0,1,85.335,0h1.281c.025.015.034.031.027.048s-.015.027-.022.027" transform="translate(-64.648)" fill="#111"/>
          <path id="Trazado_129701" data-name="Trazado 129701" d="M90.626.075c0-.025,0-.05-.005-.075h.48c-.138.153-.317.051-.475.075" transform="translate(-68.652)" fill="#2b2b2b"/>
          <path id="Trazado_129702" data-name="Trazado 129702" d="M94.084,0c-.053.117-.107.1-.16,0Z" transform="translate(-71.154)" fill="#818181"/>
          <path id="Trazado_129703" data-name="Trazado 129703" d="M5.947,7.344c-.5-.251-.6-.513-.358-.987a6.044,6.044,0,0,1,5.555-3.592,3.273,3.273,0,0,1,1.222.167.687.687,0,0,0,.8-.21A9.389,9.389,0,0,1,16.907.574a1.02,1.02,0,0,1,1.457,1.067q0,19.455,0,38.912c0,.37-.08.679-.473.773-.377.091-.6-.135-.738-.459a.839.839,0,0,1-.1-.576c0-1.516,0-3.032,0-4.548,0-.476,0-.472-.464-.552a5.54,5.54,0,0,1-3.23-1.6,4.164,4.164,0,0,1-.962-1.679c-.166-.547-.161-.549-.721-.391-.874.263-.741.216-.632.979a38.238,38.238,0,0,0,2.024,7.677.863.863,0,0,1,.028.768c-.4.575-.832.544-1.2-.085a.836.836,0,0,1-.26-.441,39.65,39.65,0,0,1-2.084-8.282c-.029-.238-.025-.478-.064-.716-.051-.308-.216-.4-.508-.337A10.194,10.194,0,0,0,7.9,31.4a14.115,14.115,0,0,0-2.854,1.027,6.164,6.164,0,0,0-3.071,4.586c-.177,1.119-.4,2.231-.594,3.346a.625.625,0,0,1-.157.4c-.021.049-.045.1-.062.147a.559.559,0,0,1-.711.417.559.559,0,0,1-.438-.7c.2-1.18.424-2.358.62-3.539a9.054,9.054,0,0,1,.783-2.667,7.422,7.422,0,0,1,4.451-3.769c.92-.308,1.86-.556,2.789-.84a1.539,1.539,0,0,1,1.792.508.276.276,0,0,0,.368.1c.454-.152.913-.291,1.376-.412a.32.32,0,0,0,.278-.322q.127-1.172.282-2.341a.378.378,0,0,0-.171-.368c-.391-.342-.782-.686-1.156-1.046-.394-.379-.39-.641-.018-1.057.326-.248.559-.236.91.087.4.369.777.767,1.211,1.1a8.469,8.469,0,0,0,2.953,1.556c.5.137.567.091.569-.417,0-.706-.007-1.413,0-2.119a.378.378,0,0,0-.376-.45,2.6,2.6,0,0,1-1.82-1.12.672.672,0,0,1,0-.915.714.714,0,0,1,.841-.161,1.134,1.134,0,0,1,.358.313,1.358,1.358,0,0,0,.668.418c.2.056.312-.013.317-.226q.012-.56,0-1.119c-.006-.22-.161-.284-.335-.337a.817.817,0,0,1-.514-.352.679.679,0,0,1,.442-1.035c.394-.055.418-.249.417-.561q-.008-4.217,0-8.434a.465.465,0,0,0-.326-.552,12.948,12.948,0,0,1-1.814-.978c-.266-.192-.532-.385-.789-.591-.509-.4-.506-.4-.769.193a6.356,6.356,0,0,1-2.54,2.943,3.785,3.785,0,0,0-1.955,3.552,19.532,19.532,0,0,0,.053,2.349,16.736,16.736,0,0,0,.156,1.667,6.775,6.775,0,0,0,1.1,2.673,3.268,3.268,0,0,1,.359.575c.1.255.167.515-.112.716-.469.325-.744.28-1.072-.182a9.442,9.442,0,0,1-.96-1.608.46.46,0,0,0-.4-.3,3.774,3.774,0,0,1-3.244-4.113,2.808,2.808,0,0,1,1.3-2.1c.123-.084.252-.121.1-.318A7.34,7.34,0,0,1,4.72,10.337c0-.266.015-.533.032-.8.03-.465.223-.642.712-.664.4.061.553.208.583.615.028.385.013.772.009,1.158a6.222,6.222,0,0,0,.76,3.068,2.16,2.16,0,0,0,.639.74c.126-.05.112-.158.13-.241A4.771,4.771,0,0,1,9.958,11a6.031,6.031,0,0,0,2.575-3.622.736.736,0,0,0,.033-.316c-.093-.833-.18-1.667-.249-2.5-.023-.282-.227-.373-.464-.413a4.462,4.462,0,0,0-3.079.563,5.17,5.17,0,0,0-2,2.177c-.245.476-.437.573-.826.459" transform="translate(0 -0.378)"/>
          <path id="Trazado_129704" data-name="Trazado 129704" d="M44.562,37.153q.005,4.537.01,9.075a.589.589,0,0,1-.024.115,1.723,1.723,0,0,0-.435-.046.555.555,0,0,0-.516.524.516.516,0,0,0,.423.63c.553.056.6.37.559.809a5.969,5.969,0,0,0,0,.959c.018.258-.1.29-.3.246a1.544,1.544,0,0,1-.939-.56c-.29-.369-.637-.442-.924-.218s-.31.574-.025.952a2.537,2.537,0,0,0,1.91,1.024c.227.018.284.085.281.3-.011.906-.021,1.813,0,2.719.009.325-.144.3-.354.262a7.521,7.521,0,0,1-2.851-1.292,11.811,11.811,0,0,1-1.7-1.453.7.7,0,0,0-.86-.2,8.742,8.742,0,0,0-.987-1.222.766.766,0,0,0-.117-.914,7.286,7.286,0,0,1-1.481-4.721,10.163,10.163,0,0,1-.006-1.949,4.518,4.518,0,0,1,.747-1.66,5.238,5.238,0,0,1,1.746-1.927A5.384,5.384,0,0,0,40.73,35.9c.079-.2.14-.4.237-.592.142-.277.345-.4.649-.234l.724.536a13.323,13.323,0,0,0,1.6,1.086c.221.135.49.209.626.461" transform="translate(-27.411 -26.511)" fill="#f1d0a4"/>
          <path id="Trazado_129705" data-name="Trazado 129705" d="M5.049,135.8a37.466,37.466,0,0,1,.928-4.932,5.987,5.987,0,0,1,4.131-4.052c.883-.291,1.779-.545,2.672-.808.413-.122.585-.035.621.354a37.932,37.932,0,0,0,2.308,9.463.337.337,0,0,1,.01.079q-5.083,0-10.166.01a1.4,1.4,0,0,1-.5-.113" transform="translate(-3.825 -95.424)" fill="#f4dd46"/>
          <path id="Trazado_129706" data-name="Trazado 129706" d="M92.6,16.708A6.012,6.012,0,0,0,87.544,13.5a30.1,30.1,0,0,1-3.7-.3c-.334-.069-.5-.165-.477-.55.036-.758.014-1.518.009-2.277,0-.482-.175-.665-.655-.723a3.375,3.375,0,0,0-.076-1.645c.556-.011.729-.186.731-.75,0-.68,0-1.36,0-2.039,0-.133-.021-.268.191-.269a14.882,14.882,0,0,1,4.705.518.364.364,0,0,1,.069.04,7.255,7.255,0,0,1,3.1,2.846,10.221,10.221,0,0,1,1.687,4.656,7.909,7.909,0,0,1-.205,3.367c-.049.146-.036.4-.327.334" transform="translate(-62.611 -3.748)" fill="#7a6d79"/>
          <path id="Trazado_129707" data-name="Trazado 129707" d="M108.925,133.311c.539-.03.7-.182.782-.745.119-.864.231-1.729.345-2.594a.221.221,0,0,1,.155-.023,11.249,11.249,0,0,1,4.04,1.639,7.008,7.008,0,0,1,2.7,4.64c.109.656.241,1.308.346,1.964.051.32.152.529.527.48a.329.329,0,0,1,.326.108.636.636,0,0,1-.389.052q-4.963,0-9.927,0c-.085-.156.013-.283.073-.411a16.262,16.262,0,0,0,.888-2.433.98.98,0,0,0-.243-1.158,3.024,3.024,0,0,1,.379-1.513" transform="translate(-81.662 -98.442)" fill="#f4dd46"/>
          <path id="Trazado_129708" data-name="Trazado 129708" d="M23.021,18.15c.4.029.591-.2.757-.529a4.923,4.923,0,0,1,3.67-2.795,4.208,4.208,0,0,1,1.669.045.428.428,0,0,1,.378.43c.077.848.168,1.7.251,2.544a.7.7,0,0,1-.01.277A6.172,6.172,0,0,1,27.1,21.887a4.675,4.675,0,0,0-2.414,3.6,1.847,1.847,0,0,1-.851-.841A6.658,6.658,0,0,1,23,21.236c0-.253,0-.508.024-.759a.673.673,0,0,0-.488-.8c.1-.017.148-.07.171-.179.1-.452.207-.9.312-1.351" transform="translate(-17.074 -11.184)" fill="#7a6d79"/>
          <path id="Trazado_129709" data-name="Trazado 129709" d="M125.2,135.763c-.276-.044-.635.11-.809-.071s-.138-.516-.2-.784a26.7,26.7,0,0,0-.612-2.95,6.559,6.559,0,0,0-4.31-4.316c-.716-.245-1.442-.459-2.164-.687.017-1.159.183-1.112,1.092-.814.707.232,1.427.427,2.137.649a6.084,6.084,0,0,1,4.456,4.935c.26,1.33.47,2.67.7,4l-.3.033" transform="translate(-88.72 -95.425)" fill="#f2d232"/>
          <path id="Trazado_129710" data-name="Trazado 129710" d="M102.7,131.21l-.339,1.514a.221.221,0,0,1-.191.122.6.6,0,0,0-.5.505,15.075,15.075,0,0,1-1.1,2.977c-.089.191-.045.428-.221.583-.1-.16-.249-.164-.415-.165-.415,0-.449-.057-.231-.428a12.4,12.4,0,0,0,1.043-2.445,22.26,22.26,0,0,0,.983-4.4c.019-.17.06-.338.075-.509.061-.691-.172-.961-.868-1.013.085-.259,0-.652.214-.758.176-.086.494.116.747.194.738.227.742.228.644,1.009-.082.659-.16,1.32-.27,1.976a.7.7,0,0,0,.423.84" transform="translate(-75.435 -96.341)" fill="#efe8e5"/>
          <path id="Trazado_129711" data-name="Trazado 129711" d="M45.5,128.109a4.986,4.986,0,0,0,.1,1.528,28.951,28.951,0,0,0,.669,3.589,16.782,16.782,0,0,0,1.346,3.661,2.171,2.171,0,0,1,.291.653c-.315.034-.641-.076-.945.08a1.2,1.2,0,0,0-.1-.66,39.763,39.763,0,0,1-1.948-7.019c-.071-.406-.111-.818-.189-1.223-.055-.286,0-.455.322-.49a3.086,3.086,0,0,0,.459-.12" transform="translate(-33.866 -97.052)" fill="#efe8e5"/>
          <path id="Trazado_129712" data-name="Trazado 129712" d="M102.754,154.266a.963.963,0,0,1,.089-.578,14.03,14.03,0,0,0,1.129-3.012c.125-.5.272-.6.788-.6a.655.655,0,0,1,.382.88,16.639,16.639,0,0,1-1.14,3.122,1.6,1.6,0,0,1-.3.449c-.326.246-.652.157-.943-.264" transform="translate(-77.837 -113.696)"/>
          <path id="Trazado_129713" data-name="Trazado 129713" d="M93.585,48.11a2.776,2.776,0,0,1,.494,1.614,24.153,24.153,0,0,1-.2,4.544,7.68,7.68,0,0,1-1.612,3.346,13.951,13.951,0,0,1-4.409,4.051,5.989,5.989,0,0,1-2.216.726c0-1.087,0-2.15,0-3.214,0-.175.08-.194.22-.182A1.713,1.713,0,0,1,87,59.5c.338.349.665.387.938.132s.251-.622-.084-.979a2.723,2.723,0,0,0-1.882-.848c-.248-.016-.351-.064-.334-.334.024-.385.016-.773,0-1.159-.007-.214.026-.325.28-.373.574-.111.793-.379.711-.77s-.35-.515-.973-.426V46.12a.777.777,0,0,1,.507.03,14.242,14.242,0,0,0,2.219.263,12.371,12.371,0,0,1,3.128.348,4.1,4.1,0,0,1,2.077,1.349" transform="translate(-64.872 -34.912)" fill="#f1d0a4"/>
          <path id="Trazado_129714" data-name="Trazado 129714" d="M89.185,121.243a2.526,2.526,0,0,1-1.039,1.413,4.335,4.335,0,0,1-2.25.826c-.2.021-.249-.03-.248-.227.012-1.289.013-2.577.017-3.866a.428.428,0,0,1,.3-.176,9.244,9.244,0,0,0,1.662-.422c.632-.192.951.024,1.009.673.024.265.074.527.09.792a.822.822,0,0,0,.334.691c.1.069.2.15.124.3" transform="translate(-64.885 -89.942)" fill="#f1d0a4"/>
          <path id="Trazado_129715" data-name="Trazado 129715" d="M110.4,18.452c.2-.028.186-.214.219-.338a9.134,9.134,0,0,0,.04-4.324,10.5,10.5,0,0,0-2.021-4.361,9.5,9.5,0,0,0-2.494-2.18,6.141,6.141,0,0,1,2.646,1.5,9.664,9.664,0,0,1,3.1,8.055,4.184,4.184,0,0,1-1.116,2.714l-.376-1.07" transform="translate(-80.413 -5.492)" fill="#685e68"/>
          <path id="Trazado_129716" data-name="Trazado 129716" d="M124.243,68.938a20.8,20.8,0,0,0,.3-4.019c.005-.24.134-.209.289-.18a1.73,1.73,0,0,1,1.36,1.445,2.535,2.535,0,0,1-1.952,2.754" transform="translate(-94.123 -49.03)" fill="#f1ba87"/>
          <path id="Trazado_129717" data-name="Trazado 129717" d="M93.616,46.445a6.131,6.131,0,0,0-2.073-1.231,8.535,8.535,0,0,0-1.762-.286,18.6,18.6,0,0,1-3.911-.4,1.957,1.957,0,0,1-.185-.071c-.035-.626-.036-.62.589-.513,1.213.208,2.447.143,3.667.268a4.674,4.674,0,0,1,3.675,2.236" transform="translate(-64.904 -33.247)" fill="#f1ba87"/>
          <path id="Trazado_129718" data-name="Trazado 129718" d="M89.2,117.188c-.166-.252-.528-.346-.553-.714-.02-.3-.081-.6-.093-.9-.032-.779-.263-.957-.994-.692a11.461,11.461,0,0,1-1.88.455c-.035-.712-.037-.72.626-.851a8.829,8.829,0,0,0,2.725-1.112c.11,1.051.222,2.048.315,3.048a1.371,1.371,0,0,1-.146.768" transform="translate(-64.899 -85.887)" fill="#f1ba87"/>
          <path id="Trazado_129719" data-name="Trazado 129719" d="M59.59,5.843v7.5a8.535,8.535,0,0,1-2.1-1.258c-1.235-.96-1.228-.967-1.328-2.545a6.259,6.259,0,0,0-.11-1.071.7.7,0,0,1,.28-.756,8.621,8.621,0,0,1,2.944-1.805c.075-.026.152-.051.229-.071a.278.278,0,0,1,.087.008" transform="translate(-42.443 -4.419)" fill="#7a6d79"/>
          <path id="Trazado_129720" data-name="Trazado 129720" d="M59.512,117.668c0,1.29,0,2.58.019,3.87,0,.213-.081.236-.258.214a4.043,4.043,0,0,1-2.822-1.469,2.5,2.5,0,0,1-.514-1.874c.069-.648.16-1.293.242-1.939a.332.332,0,0,1,.3.051,9.021,9.021,0,0,0,2.822,1.04.381.381,0,0,1,.209.107" transform="translate(-42.363 -88.22)" fill="#f1cfa3"/>
          <path id="Trazado_129721" data-name="Trazado 129721" d="M41.5,33.612a.512.512,0,0,0-.619.41,6.763,6.763,0,0,1-1.6,2.722,6.331,6.331,0,0,1-.947.72,4.969,4.969,0,0,0-1.483,1.84c-.2.358-.363.737-.558,1.1a1.424,1.424,0,0,0-.166.726c.008.519,0,1.038-.009,1.556a13.8,13.8,0,0,1,.051-3.5,3.341,3.341,0,0,1,1.672-2.334,6.677,6.677,0,0,0,2.942-3.6,1.8,1.8,0,0,1,.1-.179l.622.543" transform="translate(-27.3 -25.052)" fill="#f1ba87"/>
          <path id="Trazado_129722" data-name="Trazado 129722" d="M26.332,68.955a2.579,2.579,0,0,1-1.9-2.759,1.75,1.75,0,0,1,1.359-1.45c.229-.046.267.036.267.24a26.251,26.251,0,0,0,.146,3.111c.032.274.079.547.124.858" transform="translate(-18.497 -49.041)" fill="#f1ba87"/>
          <path id="Trazado_129723" data-name="Trazado 129723" d="M60.322,115.52a7.854,7.854,0,0,1-2.885-.943c-.153-.079-.3-.169-.449-.255.023-.224.046-.447.073-.706a9.046,9.046,0,0,0,2.286.971c.1.024.207.046.311.067.7.142.7.142.664.866" transform="translate(-43.173 -86.072)" fill="#f1c494"/>
          <path id="Trazado_129724" data-name="Trazado 129724" d="M63.8,39.064a13.2,13.2,0,0,1-2.033-1.3.4.4,0,0,1-.19-.243,12.889,12.889,0,0,0,2.071,1.076c.258.093.145.3.151.47" transform="translate(-46.653 -28.423)" fill="#ecb786"/>
          <path id="Trazado_129725" data-name="Trazado 129725" d="M54.113,52.414a3.424,3.424,0,0,1,1.329.219.616.616,0,0,1,.447.8.6.6,0,0,1-.827.33,2.969,2.969,0,0,0-1.842-.013c-.463.122-.765-.007-.872-.366-.1-.327.094-.618.512-.771a3.318,3.318,0,0,1,1.254-.2" transform="translate(-39.638 -39.706)"/>
          <path id="Trazado_129726" data-name="Trazado 129726" d="M58.667,65c0,.266.019.533,0,.8a.574.574,0,0,1-.634.571.559.559,0,0,1-.552-.61q-.009-.777,0-1.555a.556.556,0,0,1,.552-.61.571.571,0,0,1,.635.57c.023.277,0,.558,0,.837" transform="translate(-43.539 -48.173)" fill="#010101"/>
          <path id="Trazado_129727" data-name="Trazado 129727" d="M93.627,63.051a.583.583,0,0,1-.651.623c-.24-.023-.262.057-.257.248a2.211,2.211,0,0,1-.036.554.536.536,0,0,1-.623.435.522.522,0,0,1-.523-.506,6.028,6.028,0,0,1-.009-.956.459.459,0,0,0-.355-.564.652.652,0,0,1-.359-.24.563.563,0,0,1-.015-.7.532.532,0,0,1,.665-.225c.634.272,1.257.57,1.877.873a.537.537,0,0,1,.285.463" transform="translate(-68.699 -46.72)"/>
        </g>
      </g>
    </g>
  </g>
</svg>
