<svg xmlns="http://www.w3.org/2000/svg" xmlns:xlink="http://www.w3.org/1999/xlink" width="69" height="84" viewBox="0 0 69 84">
  <defs>
    <clipPath id="clip-path">
      <rect id="Rect치ngulo_37614" data-name="Rect치ngulo 37614" width="51.267" height="48.424" transform="translate(0 0)" fill="none"/>
    </clipPath>
  </defs>
  <g id="_68" data-name="68" transform="translate(-323 -10917.144)">
    <g id="Grupo_156377" data-name="Grupo 156377" transform="translate(323.373 10917.535)">
      <rect id="Rect치ngulo_36766" data-name="Rect치ngulo 36766" width="69" height="84" rx="12" transform="translate(-0.373 -0.391)" fill="#0c487b"/>
    </g>
    <g id="Grupo_156647" data-name="Grupo 156647" transform="translate(1)">
      <g id="Grupo_156582" data-name="Grupo 156582" transform="translate(-26 6270)">
        <path id="Trazado_127053" data-name="Trazado 127053" d="M15.507,123.96c-.454.1-.559-.113-.555-.537.012-1.063-.007-1.081-1.106-1.075-.409,0-.536-.124-.528-.529.007-.377.077-.553.512-.551,1.1,0,1.131-.018,1.119-1.119-.005-.5.239-.507.608-.511s.56.058.56.5c0,1.115.023,1.135,1.112,1.131.421,0,.521.15.522.541s-.1.541-.52.539c-1.11-.006-1.137.014-1.112,1.066.012.488-.169.631-.611.545" transform="translate(339.683 4573.993)" fill="#29c4bb"/>
        <path id="Trazado_127054" data-name="Trazado 127054" d="M213.642,151.161c.406-.078.632.057.565.517-.056.385.077.6.5.533s.57.088.573.537c0,.47-.189.578-.589.525-.383-.052-.5.115-.5.5.012.6-.357.826-.934.645-.274-.086-.214-.3-.2-.477.048-.472-.06-.76-.616-.666-.431.073-.457-.2-.456-.527s.014-.6.451-.53c.471.073.694-.1.616-.6-.075-.475.23-.5.582-.454" transform="translate(195.806 4552.685)" fill="#29c4bb"/>
        <path id="Trazado_127055" data-name="Trazado 127055" d="M210.718,69.268c.1.453-.1.608-.527.537-.46-.078-.648.111-.567.569s-.113.548-.542.553-.609-.127-.532-.557c.082-.459-.109-.648-.565-.562-.472.089-.513-.158-.531-.555-.021-.466.16-.588.566-.517.441.077.606-.106.531-.537-.072-.412.061-.579.521-.563.4.014.639.072.552.536s.115.639.567.563c.425-.072.632.081.526.534" transform="translate(199.254 4608.526)" fill="#010000"/>
        <path id="Trazado_127056" data-name="Trazado 127056" d="M55.04,186.64c.1.423-.11.578-.532.5-.5-.09-.614.169-.543.587.079.465-.146.537-.555.535-.39,0-.6-.091-.518-.511.108-.553-.169-.688-.645-.607s-.466-.225-.467-.559.007-.6.448-.512c.593.117.745-.168.665-.7-.077-.508.311-.362.569-.377.274-.016.579-.052.5.389-.1.545.092.8.67.687.482-.092.423.243.409.566" transform="translate(311.829 4530.025)" fill="#010000"/>
        <path id="Trazado_127057" data-name="Trazado 127057" d="M121.786,17.426c-.114-.483.153-.577.548-.518.41.061.572-.109.509-.513s.058-.588.522-.578c.427.009.623.119.548.558s.131.6.553.533c.391-.059.587.035.589.513s-.182.62-.608.553c-.45-.072-.6.133-.533.553.078.472-.175.526-.572.534-.424.009-.562-.151-.5-.54.068-.427-.09-.622-.535-.547s-.62-.106-.523-.547" transform="translate(261.153 4643.184)" fill="#29c4bb"/>
      </g>
      <g id="Grupo_157555" data-name="Grupo 157555" transform="translate(330.66 10935.101)">
        <g id="Grupo_157555-2" data-name="Grupo 157555" transform="translate(0 0)" clip-path="url(#clip-path)">
          <path id="Trazado_129930" data-name="Trazado 129930" d="M97.666,15c-.139.313-.252.639-.42.936a3.1,3.1,0,0,1-2.052,1.549.512.512,0,0,0-.408.362,6.459,6.459,0,0,1-6.258,4.27c-1.351,0-2.7.006-4.053,0A6.473,6.473,0,0,1,78.3,17.876a.558.558,0,0,0-.436-.4,3.2,3.2,0,0,1-2.423-3.538,1.913,1.913,0,0,1,2.05-1.819c.385.027.39-.115.389-.4-.007-2.285-.015-4.571,0-6.856A4.678,4.678,0,0,1,81.547.136,5.651,5.651,0,0,1,82.787.01q3.753-.017,7.506,0a4.691,4.691,0,0,1,4.82,3.87,6.282,6.282,0,0,1,.071,1.146q.009,3.353,0,6.706c0,.3.02.425.4.4a1.863,1.863,0,0,1,1.987,1.471c.02.075-.007.171.1.205Z" transform="translate(-46.399 0)"/>
          <path id="Trazado_129931" data-name="Trazado 129931" d="M68.93,74.5c.651-.1.84,0,1.1.573a9.159,9.159,0,0,1,.794,3.787c0,.785,0,1.569,0,2.353,0,.163-.025.322.15.441a2.864,2.864,0,0,1,.165,4.062,1.074,1.074,0,0,0-.321.888c.013,1.252.008,2.5,0,3.755,0,.743-.256,1.007-.988,1.008q-8.988,0-17.975,0c-.738,0-.99-.258-.993-1-.005-1.285-.009-2.57,0-3.855a1.008,1.008,0,0,0-.285-.752,3.093,3.093,0,0,1-.745-2.925,1.527,1.527,0,0,1,.623-1,.863.863,0,0,0,.409-.868,18.8,18.8,0,0,1,.245-4.335,8.885,8.885,0,0,1,8.231-6.781,15.9,15.9,0,0,1,4.973.3A8.837,8.837,0,0,1,67.839,72.1c.481.433.512.65.2,1.215a.7.7,0,0,1-1.077.168c-.249-.167-.465-.377-.705-.557a6.843,6.843,0,0,0-4.283-1.417c-.966.01-1.933,0-2.9,0a7.175,7.175,0,0,0-4.9,2.607,7.9,7.9,0,0,0-1.7,5.363c0,.129-.052.376.2.288a7.6,7.6,0,0,1,1.636-.177c.978-.126,1.94-.327,2.9-.517A19.307,19.307,0,0,0,63,76.961a6.84,6.84,0,0,0,.921-.684c.7-.593,1.2-.514,1.666.267a8.334,8.334,0,0,0,2.093,2.517,4.242,4.242,0,0,0,1.146.6c.283.1.4.04.4-.272A9.116,9.116,0,0,0,68.7,76.15a2.451,2.451,0,0,1-.266-.853c0-.359.021-.719.492-.792" transform="translate(-30.605 -42.95)"/>
          <path id="Trazado_129932" data-name="Trazado 129932" d="M14.9,16.993a.756.756,0,0,1,.822-.585q2.878-.009,5.755,0c.455,0,.822.221.825.693a16.4,16.4,0,0,1-.213,4.284,7.543,7.543,0,0,1-2.933,4.338.736.736,0,0,0-.343.7c.021.884.006,1.768.008,2.652,0,.155-.055.3.229.321a2.064,2.064,0,0,1,2.033,2.838A2.97,2.97,0,0,1,18.92,34.5a.747.747,0,0,0-.533.5,6.048,6.048,0,0,1-5.642,3.92c-1.449.053-2.9.059-4.353,0a6.019,6.019,0,0,1-5.6-3.9.794.794,0,0,0-.575-.522,3.057,3.057,0,0,1-2.14-3.624A1.773,1.773,0,0,1,1.933,29.39c.344.009.441-.085.4-.4a2.443,2.443,0,0,1,0-.45,1.163,1.163,0,0,0-.526-1.26,1.669,1.669,0,0,1-.656-1.5c0-1.184-.033-2.37.01-3.552a3.33,3.33,0,0,1,3.425-3.307q1.076-.017,2.152,0a.486.486,0,0,0,.513-.276,4.268,4.268,0,0,1,3.866-2.24c.4-.008.8,0,1.2,0,.706,0,.857.11,1.1.771.09.506-.237.688-.633.817a20.7,20.7,0,0,0-2.241.114,2.628,2.628,0,0,0-2.19,2.605q-.023,1.074,0,2.149a2.618,2.618,0,0,0,2.733,2.691c.25,0,.5.007.75-.005.967,0,1.933,0,2.9,0A6.051,6.051,0,0,0,20.578,20.6a10.911,10.911,0,0,0,.1-1.893c0-.659-.022-.682-.664-.684-1.3,0-2.6,0-3.9,0a4.092,4.092,0,0,1-.549-.018c-.594-.08-.809-.414-.66-1.015" transform="translate(0 -10.091)"/>
          <path id="Trazado_129933" data-name="Trazado 129933" d="M31.609,17.938c0,.7.215.908.93.909,1.516,0,3.031.011,4.547-.007.346,0,.442.091.452.443a7.362,7.362,0,0,1-.96,4.461,6.029,6.029,0,0,1-5.015,2.9c-1.014.038-2.03-.006-3.046-.013a2.89,2.89,0,0,1-1.325-2.395c-.071-.963-.029-1.934-.012-2.9a3.31,3.31,0,0,1,.7-1.893,1.137,1.137,0,0,1,1.136-.574.975.975,0,0,0,.494-.028.966.966,0,0,0,.6-.724c.359,0,.718-.009,1.077,0a.4.4,0,0,0,.414-.184" transform="translate(-16.704 -11.036)" fill="#a97a63"/>
          <path id="Trazado_129934" data-name="Trazado 129934" d="M80.683,76.915a.8.8,0,0,0-.3,1.122,8.806,8.806,0,0,1,.678,4.3,5.448,5.448,0,0,1-3.36-2.564c-.205-.3-.379-.627-.575-.937a.725.725,0,0,0-1.185-.2c-1.959,1.7-4.378,2.334-6.8,2.952a.643.643,0,0,1-.149,0,.682.682,0,0,1-.139-.562,18,18,0,0,1,.9-5.525,6.326,6.326,0,0,1,.61-1.305.9.9,0,0,1,.426-.4,19.228,19.228,0,0,1,4.425.114,6.9,6.9,0,0,1,3.378,1.721.823.823,0,0,0,1.2.09l.891,1.19" transform="translate(-42.358 -45.361)" fill="#dc636e"/>
          <path id="Trazado_129935" data-name="Trazado 129935" d="M27.17,88.8c.014.768-.5,1.1-1.085.875a20.575,20.575,0,0,1-4.44-2.365A21.491,21.491,0,0,1,13.7,77.087c-.03-.078-.057-.157-.082-.236a.75.75,0,1,1,1.4-.527c.178.412.322.838.505,1.248A19.968,19.968,0,0,0,26.457,88.2c.368.154.706.321.713.594" transform="translate(-8.346 -46.629)"/>
          <path id="Trazado_129936" data-name="Trazado 129936" d="M48.129,3.307a20.142,20.142,0,0,1,4.612.5c.54.122.781.455.684.913a.757.757,0,0,1-1.006.546A20.041,20.041,0,0,0,37.871,7.595a.984.984,0,0,1-.8.205.732.732,0,0,1-.555-.643.768.768,0,0,1,.439-.774,21.465,21.465,0,0,1,4.817-2.146,21.217,21.217,0,0,1,6.354-.931" transform="translate(-22.465 -2.034)"/>
          <path id="Trazado_129937" data-name="Trazado 129937" d="M112.524,59.037a21.654,21.654,0,0,1-5.043,13.17.778.778,0,0,1-1.136.2c-.353-.291-.362-.742.01-1.192a20.107,20.107,0,0,0,4.218-8.669,19.576,19.576,0,0,0,.449-3.969c.007-.664.285-1.022.774-1.008s.733.369.727,1.046c0,.117,0,.234,0,.424" transform="translate(-65.264 -35.417)"/>
          <path id="Trazado_129938" data-name="Trazado 129938" d="M93.521,18.412c.416.3.836.6,1.248.911a4.256,4.256,0,0,0,5.447.035c.349-.256.683-.534,1.031-.792a2.161,2.161,0,0,1,3.437,1.716c-.071,2.065-.019,4.135-.024,6.2a4.991,4.991,0,0,1-5.284,5.253c-1.05,0-2.1-.012-3.15-.018a3.614,3.614,0,0,1-1.751-1.413,6.38,6.38,0,0,1-1.1-5.055c.089-.106.212-.074.325-.078a.492.492,0,0,0,.289-.062,1.3,1.3,0,0,0,.389-1.319c-.042-.4-.2-.748-.688-.783a.4.4,0,0,1-.314-.13.81.81,0,0,1-.1-.43c-.012-1.19-.017-2.38,0-3.569,0-.18-.032-.416.246-.468" transform="translate(-57.378 -11.12)" fill="#c28859"/>
          <path id="Trazado_129939" data-name="Trazado 129939" d="M101.859,4.023a3.071,3.071,0,0,1,2.771,2.644c.062.622.01,1.255.01,1.932a4.954,4.954,0,0,0-1.683-.662,3.438,3.438,0,0,0-2.688.819c-.35.281-.705.557-1.074.811a2.736,2.736,0,0,1-3.463-.075,8.541,8.541,0,0,0-2.3-1.479,1.3,1.3,0,0,1-.154-.912,4.144,4.144,0,0,1,1-2.65,1.124,1.124,0,0,1,.9-.467q3.267,0,6.533,0a.4.4,0,0,1,.143.037" transform="translate(-57.384 -2.452)" fill="#365e7c"/>
          <path id="Trazado_129940" data-name="Trazado 129940" d="M88.759,25.2a13.082,13.082,0,0,0,.131,2.881,5.888,5.888,0,0,0,2.667,3.636,5.11,5.11,0,0,1-5.878-5.2c-.008-2.232,0-4.464-.007-6.7a.9.9,0,0,1,.26-.669,3.424,3.424,0,0,1,1.18-.9,1.624,1.624,0,0,1,1.741.165c-.108.083-.1.2-.1.317V22.6c0,.117,0,.234.109.312a.246.246,0,0,1-.043.231,1.583,1.583,0,0,0-.124,1.673.478.478,0,0,1,.064.376" transform="translate(-52.709 -11.116)" fill="#b0794a"/>
          <path id="Trazado_129941" data-name="Trazado 129941" d="M97.16,3.913c-2.018,0-4.037.057-6.053-.01A1.887,1.887,0,0,0,89.285,5.01,4.9,4.9,0,0,0,88.737,7.9a3.591,3.591,0,0,0-2.995.608c-.464-2.417.558-4.555,3.127-4.654,2.633-.1,5.273-.026,7.909-.027a.534.534,0,0,1,.382.082" transform="translate(-52.686 -2.341)" fill="#2b4d66"/>
          <path id="Trazado_129942" data-name="Trazado 129942" d="M126.789,37.636c0-.589,0-1.133,0-1.678,0-.329.146-.559.493-.561s.436.255.478.537a1.639,1.639,0,0,1-.972,1.7" transform="translate(-78.006 -21.778)" fill="#ac7748"/>
          <path id="Trazado_129943" data-name="Trazado 129943" d="M80.232,37.613a1.63,1.63,0,0,1-.908-1.838.438.438,0,0,1,.456-.377.412.412,0,0,1,.451.427c.006.588,0,1.176,0,1.788" transform="translate(-48.773 -21.778)" fill="#af7949"/>
          <path id="Trazado_129944" data-name="Trazado 129944" d="M67.708,93.995a37.93,37.93,0,0,0,4.267-1.2,14.153,14.153,0,0,0,3.213-1.58c.244-.17.345-.115.5.108A7.511,7.511,0,0,0,78.75,94.1c.113.051.2.113.191.257A28.933,28.933,0,0,1,78.8,99.1a4.852,4.852,0,0,1-4.542,3.816c-1.248.077-2.5.02-3.745.028a.713.713,0,0,1-.421-.14,5.74,5.74,0,0,1-2.375-3.625c.011-.168.141-.242.255-.337.393-.329.387-.6-.01-.911-.115-.089-.261-.142-.332-.283a.608.608,0,0,1,.094-.671c.791.062,1.01-.08,1.125-.731a1.137,1.137,0,0,0-.873-1.427c-.129-.032-.266-.044-.342-.176a.61.61,0,0,1,.071-.648" transform="translate(-41.576 -56.056)" fill="#fedccd"/>
          <path id="Trazado_129945" data-name="Trazado 129945" d="M63.206,73.912a9.351,9.351,0,0,0-1.488,3.979A20.562,20.562,0,0,0,61.4,81.7a19.475,19.475,0,0,1-3.483.6,3.36,3.36,0,0,0-1.362.24c-.5-5.674,3.58-8.417,6.647-8.63" transform="translate(-34.772 -45.474)" fill="#ca5769"/>
          <path id="Trazado_129946" data-name="Trazado 129946" d="M63.181,103.706a6.046,6.046,0,0,0,2.327,3.584,1.157,1.157,0,0,0,.741.22c1.129,0,2.258.009,3.387.015a.741.741,0,0,1-.19.052c-1.668,0-3.339.1-5-.057a4.927,4.927,0,0,1-4.368-4.707c-.029-1.15,0-2.3-.018-3.454,0-.275.076-.353.353-.385.893-.1,1.781-.244,2.67-.371q0,.351,0,.7a.317.317,0,0,1-.117.091c-.666.292-.669.3-.134.752.067.056.137.119.138.2,0,.428.2.826.184,1.255-.135.219-.046.459-.066.688-.153.106-.322.043-.483.042a1.678,1.678,0,0,0-.772.159c-.215.108-.4.248-.387.524a.546.546,0,0,0,.4.463,1.618,1.618,0,0,0,.869.157c.162-.024.33-.071.469.069" transform="translate(-36.951 -60.665)" fill="#fecabd"/>
          <path id="Trazado_129947" data-name="Trazado 129947" d="M97.1,113.993q0,1.409,0,2.818c0,.214-.15.226-.31.225-.582,0-1.164,0-1.9,0a6.873,6.873,0,0,0,2.079-3.078l.13.035" transform="translate(-58.383 -70.112)" fill="#d8616b"/>
          <path id="Trazado_129948" data-name="Trazado 129948" d="M58.766,117.075c-.746,0-1.341,0-1.935,0-.183,0-.282-.067-.282-.26,0-.925,0-1.85.065-2.8a7.748,7.748,0,0,0,2.152,3.056" transform="translate(-34.791 -70.149)" fill="#c65566"/>
          <path id="Trazado_129949" data-name="Trazado 129949" d="M101.015,106.035c0-.63-.006-1.191,0-1.752a.445.445,0,0,1,.45-.494c.32-.021.437.186.5.452a1.706,1.706,0,0,1-.949,1.795" transform="translate(-62.147 -63.854)" fill="#f9c6b9"/>
          <path id="Trazado_129950" data-name="Trazado 129950" d="M54.6,105.988a1.582,1.582,0,0,1-.921-1.85.431.431,0,0,1,.476-.349.443.443,0,0,1,.441.452c.008.083,0,.167,0,.25v1.5" transform="translate(-32.99 -63.854)" fill="#f9c6ba"/>
          <path id="Trazado_129951" data-name="Trazado 129951" d="M17.145,43.4a5.728,5.728,0,0,0,1.449-1.048c.131-.147.225-.12.37-.015a4.453,4.453,0,0,0,2.831.793c.934-.026,1.87-.017,2.8,0a8,8,0,0,0,2.858-.385c.255-.091.312-.026.311.229-.011,2,.041,4.007-.028,6.007a4.629,4.629,0,0,1-4.39,4.334c-1.2.038-2.4,0-3.6,0a4.3,4.3,0,0,1-2.132-2.132,4.216,4.216,0,0,1-.577-2.241,1.16,1.16,0,0,0-.011-.91,1.569,1.569,0,0,1,.055-.778c.028-.042.067-.085.116-.082a.7.7,0,0,0,.8-.52,1.383,1.383,0,0,0-.17-1.325c-.174-.239-.509-.137-.71-.326a2.065,2.065,0,0,1,.026-1.6" transform="translate(-10.442 -25.992)" fill="#fedccd"/>
          <path id="Trazado_129952" data-name="Trazado 129952" d="M12.816,50.74a5.325,5.325,0,0,0,2.21,4.112c.13.1.265.2.4.3a4.758,4.758,0,0,1-5.352-3.683,5.683,5.683,0,0,1-.118-1.191c-.014-1.4,0-2.8-.012-4.2,0-.331.056-.482.429-.457a6.068,6.068,0,0,0,2.449-.374,5.06,5.06,0,0,0,.107,1.605,3.17,3.17,0,0,0-.281,1.369c.038.278.238.514.181.808q0,.461-.007.922c-.183.069-.315-.066-.463-.123a1.559,1.559,0,0,0-1.21.015c-.219.092-.444.2-.449.473s.22.4.432.492a1.7,1.7,0,0,0,1.214.033c.155-.046.3-.164.472-.093" transform="translate(-6.116 -27.832)" fill="#fecabd"/>
          <path id="Trazado_129953" data-name="Trazado 129953" d="M25.927,20.289c-.059.027-.122.085-.176.077-1.09-.165-1.426.665-1.8,1.4a2.562,2.562,0,0,0-.235,1.213c.018.784.025,1.569,0,2.352a3.482,3.482,0,0,0,1.022,2.518c.066.073.124.155.186.233a3.158,3.158,0,0,1-2.815-.824,2.754,2.754,0,0,1-.783-1.894c-.016-.717-.008-1.435,0-2.153a2.811,2.811,0,0,1,2.849-2.915c.583-.017,1.168,0,1.752-.005" transform="translate(-13.117 -12.48)" fill="#976b54"/>
          <path id="Trazado_129954" data-name="Trazado 129954" d="M13.147,26.932c.008.783.026,1.566.023,2.348a3.967,3.967,0,0,0,.453,1.975.44.44,0,0,1-.123.636,2.835,2.835,0,0,1-1.809.857c-1.18.143-1.181.143-1.181-1.029,0-.966,0-1.932,0-2.9a2.905,2.905,0,0,1,.414-1.523.751.751,0,0,1,.736-.418,9.1,9.1,0,0,1,1.487.053" transform="translate(-6.466 -16.534)" fill="#a97963"/>
          <path id="Trazado_129955" data-name="Trazado 129955" d="M10.861,26.836c-.451,0-.9.02-1.351-.006a.743.743,0,0,0-.756.454,2.869,2.869,0,0,0-.377,1.428c.012,1.118.026,2.237-.007,3.354-.014.466.127.641.586.576a2.625,2.625,0,0,1,.449.01,7.411,7.411,0,0,1-2.083.045.536.536,0,0,1-.494-.6,31.709,31.709,0,0,1,.049-3.8,1.557,1.557,0,0,1,1.095-1.372,6.349,6.349,0,0,1,2.89-.1" transform="translate(-4.181 -16.438)" fill="#976a53"/>
          <path id="Trazado_129956" data-name="Trazado 129956" d="M48.925,56.109c0-.6,0-1.094,0-1.592,0-.27.095-.456.393-.472s.4.175.427.438a1.616,1.616,0,0,1-.819,1.625" transform="translate(-30.1 -33.25)" fill="#fbc8bb"/>
          <path id="Trazado_129957" data-name="Trazado 129957" d="M4.727,56.095a1.621,1.621,0,0,1-.818-1.619c.026-.25.13-.449.436-.434s.382.209.382.472c0,.5,0,.993,0,1.581" transform="translate(-2.398 -33.248)" fill="#fcc9bc"/>
          <path id="Trazado_129958" data-name="Trazado 129958" d="M101.467,44.737a2.285,2.285,0,0,1-1.541-.586.763.763,0,0,1-.142-1.07.736.736,0,0,1,1.066-.1.84.84,0,0,0,1.169-.008.726.726,0,0,1,1.062.12.738.738,0,0,1-.152,1.063,2.251,2.251,0,0,1-1.461.58" transform="translate(-61.293 -26.331)"/>
          <path id="Trazado_129959" data-name="Trazado 129959" d="M93.087,32.86a1.721,1.721,0,0,1,.1-2.28.61.61,0,0,1,.841.379,1.754,1.754,0,0,1-.042,1.662.568.568,0,0,1-.9.24" transform="translate(-57.037 -18.78)" fill="#010100"/>
          <path id="Trazado_129960" data-name="Trazado 129960" d="M113.48,31.757c0,.708-.336,1.239-.761,1.218-.408-.021-.752-.617-.731-1.266s.361-1.2.755-1.2c.415,0,.741.55.738,1.248" transform="translate(-68.899 -18.77)"/>
          <path id="Trazado_129961" data-name="Trazado 129961" d="M75.818,113.144a2.215,2.215,0,0,1-1.5-.6.755.755,0,0,1-.1-1.034.714.714,0,0,1,1.024-.127.794.794,0,0,0,1.118.007.721.721,0,0,1,1.028.11.749.749,0,0,1-.086,1.035,2.2,2.2,0,0,1-1.476.611" transform="translate(-45.559 -68.428)" fill="#010000"/>
          <path id="Trazado_129962" data-name="Trazado 129962" d="M87.132,100.5c.071,0,.254,0,.436.027a.4.4,0,0,1,.385.389c.019.245-.085.45-.341.467-.3.02-.324.168-.322.418a1.463,1.463,0,0,1-.289.935.547.547,0,0,1-.925.015,1.85,1.85,0,0,1-.015-1.973c.257-.331.614-.273,1.072-.277" transform="translate(-52.777 -61.828)" fill="#010101"/>
          <path id="Trazado_129963" data-name="Trazado 129963" d="M66.659,102.727a3.873,3.873,0,0,1-.255-.641c-.07-.336.094-.773-.484-.832-.139-.014-.174-.227-.159-.384a.37.37,0,0,1,.288-.362c.177-.04.359-.054.539-.079a1.313,1.313,0,0,1,1.156,2c-.245.556-.579.648-1.085.3" transform="translate(-40.457 -61.788)" fill="#010101"/>
          <path id="Trazado_129964" data-name="Trazado 129964" d="M65.136,109.444a2.186,2.186,0,0,1-1.452-.118.689.689,0,0,1-.448-.6c-.014-.32.206-.479.451-.6a1.691,1.691,0,0,1,1.354-.093c.344.107.658.247.7.667.047.449-.325.562-.606.746" transform="translate(-38.905 -66.403)" fill="#e9a598"/>
          <path id="Trazado_129965" data-name="Trazado 129965" d="M88.668,107.952a1.517,1.517,0,0,1,1.013.346.579.579,0,0,1-.013.911,1.865,1.865,0,0,1-2.1-.037.529.529,0,0,1-.007-.834,1.48,1.48,0,0,1,1.106-.385" transform="translate(-53.749 -66.417)" fill="#e9a598"/>
          <path id="Trazado_129966" data-name="Trazado 129966" d="M24.671,62.733a2.159,2.159,0,0,1-1.455-.583.736.736,0,0,1-.1-1.071.717.717,0,0,1,1.03-.09.768.768,0,0,0,1.077,0,.72.72,0,0,1,1.063.117.762.762,0,0,1-.157,1.067,2.149,2.149,0,0,1-1.457.555" transform="translate(-14.107 -37.414)" fill="#010000"/>
          <path id="Trazado_129967" data-name="Trazado 129967" d="M13.74,57.653a1.767,1.767,0,0,1-1.928.085c-.506-.295-.487-.755.026-1.03a1.654,1.654,0,0,1,1.906.147.654.654,0,0,1,0,.8" transform="translate(-7.041 -34.746)" fill="#e9a498"/>
          <path id="Trazado_129968" data-name="Trazado 129968" d="M38.417,58a1.233,1.233,0,0,1-1.1-.413.467.467,0,0,1,.082-.737A1.844,1.844,0,0,1,39.2,56.7c.219.127.42.283.4.583a.643.643,0,0,1-.469.584,1.507,1.507,0,0,1-.705.126" transform="translate(-22.873 -34.783)" fill="#e9a598"/>
          <path id="Trazado_129969" data-name="Trazado 129969" d="M34.814,50.469c0-.665.3-1.165.706-1.16s.712.524.71,1.169-.329,1.17-.718,1.167-.7-.521-.7-1.175" transform="translate(-21.419 -30.337)" fill="#010101"/>
          <path id="Trazado_129970" data-name="Trazado 129970" d="M16.876,51.527a1.672,1.672,0,0,1,.1-2.177.639.639,0,0,1,.843.471,1.636,1.636,0,0,1-.087,1.476.54.54,0,0,1-.857.23" transform="translate(-10.166 -30.339)" fill="#010101"/>
        </g>
      </g>
    </g>
  </g>
</svg>
