<svg xmlns="http://www.w3.org/2000/svg" xmlns:xlink="http://www.w3.org/1999/xlink" width="69" height="84" viewBox="0 0 69 84">
  <defs>
    <clipPath id="clip-path">
      <rect id="Rect치ngulo_37615" data-name="Rect치ngulo 37615" width="46.385" height="46.382" fill="none"/>
    </clipPath>
  </defs>
  <g id="_69" data-name="69" transform="translate(-632 -10917.144)">
    <g id="Grupo_156378" data-name="Grupo 156378" transform="translate(632.373 10917.535)">
      <rect id="Rect치ngulo_36766" data-name="Rect치ngulo 36766" width="69" height="84" rx="12" transform="translate(-0.373 -0.391)" fill="#0c487b"/>
    </g>
    <g id="Grupo_156652" data-name="Grupo 156652" transform="translate(4)">
      <g id="Grupo_156651" data-name="Grupo 156651" transform="translate(280 6270)">
        <path id="Trazado_127053" data-name="Trazado 127053" d="M15.507,123.96c-.454.1-.559-.113-.555-.537.012-1.063-.007-1.081-1.106-1.075-.409,0-.536-.124-.528-.529.007-.377.077-.553.512-.551,1.1,0,1.131-.018,1.119-1.119-.005-.5.239-.507.608-.511s.56.058.56.5c0,1.115.023,1.135,1.112,1.131.421,0,.521.15.522.541s-.1.541-.52.539c-1.11-.006-1.137.014-1.112,1.066.012.488-.169.631-.611.545" transform="translate(339.683 4573.993)" fill="#29c4bb"/>
        <path id="Trazado_127054" data-name="Trazado 127054" d="M213.642,151.161c.406-.078.632.057.565.517-.056.385.077.6.5.533s.57.088.573.537c0,.47-.189.578-.589.525-.383-.052-.5.115-.5.5.012.6-.357.826-.934.645-.274-.086-.214-.3-.2-.477.048-.472-.06-.76-.616-.666-.431.073-.457-.2-.456-.527s.014-.6.451-.53c.471.073.694-.1.616-.6-.075-.475.23-.5.582-.454" transform="translate(195.806 4552.685)" fill="#29c4bb"/>
        <path id="Trazado_127055" data-name="Trazado 127055" d="M210.718,69.268c.1.453-.1.608-.527.537-.46-.078-.648.111-.567.569s-.113.548-.542.553-.609-.127-.532-.557c.082-.459-.109-.648-.565-.562-.472.089-.513-.158-.531-.555-.021-.466.16-.588.566-.517.441.077.606-.106.531-.537-.072-.412.061-.579.521-.563.4.014.639.072.552.536s.115.639.567.563c.425-.072.632.081.526.534" transform="translate(199.254 4608.526)" fill="#010000"/>
        <path id="Trazado_127056" data-name="Trazado 127056" d="M55.04,186.64c.1.423-.11.578-.532.5-.5-.09-.614.169-.543.587.079.465-.146.537-.555.535-.39,0-.6-.091-.518-.511.108-.553-.169-.688-.645-.607s-.466-.225-.467-.559.007-.6.448-.512c.593.117.745-.168.665-.7-.077-.508.311-.362.569-.377.274-.016.579-.052.5.389-.1.545.092.8.67.687.482-.092.423.243.409.566" transform="translate(311.829 4530.025)" fill="#010000"/>
        <path id="Trazado_127057" data-name="Trazado 127057" d="M121.786,17.426c-.114-.483.153-.577.548-.518.41.061.572-.109.509-.513s.058-.588.522-.578c.427.009.623.119.548.558s.131.6.553.533c.391-.059.587.035.589.513s-.182.62-.608.553c-.45-.072-.6.133-.533.553.078.472-.175.526-.572.534-.424.009-.562-.151-.5-.54.068-.427-.09-.622-.535-.547s-.62-.106-.523-.547" transform="translate(261.153 4643.184)" fill="#29c4bb"/>
      </g>
      <g id="Grupo_157556" data-name="Grupo 157556" transform="translate(639 10936.145)">
        <g id="Grupo_157556-2" data-name="Grupo 157556" clip-path="url(#clip-path)">
          <path id="Trazado_129971" data-name="Trazado 129971" d="M45.852,10.046A3.47,3.47,0,0,0,45.13,10Q38.9,10,32.675,10c-.61,0-.638-.029-.639-.639,0-1.661,0-3.321,0-4.982,0-1.147,0-2.295,0-3.442,0-.436-.093-.817-.595-.937H14.948a.748.748,0,0,0-.59.8c-.009.2-.008.392-.008.588q0,4.008,0,8.017c0,.554-.039.584-.593.594-.136,0-.272,0-.408,0H1.39c-.2,0-.392,0-.589.008a.748.748,0,0,0-.8.59V25.637c.1.218.151.451.269.665.992,1.8,2,3.583,2.989,5.377a1.864,1.864,0,0,1,.241.946c-.008,1.237-.015,2.474,0,3.71a12.469,12.469,0,0,1-.216,2.472c-.407,2.179-.809,4.359-1.186,6.544-.1.6.016.819.528,1.031H4.62a.975.975,0,0,0,.57-.471q1.61-2.428,3.229-4.85c.275-.412.279-.412.555,0q1.618,2.423,3.229,4.85a.975.975,0,0,0,.57.471h1.993c.51-.21.634-.429.532-1.031-.274-1.606-.591-3.2-.864-4.811a22.617,22.617,0,0,1-.525-3.258c-.036-1.568-.008-3.138-.01-4.707a2.287,2.287,0,0,1,.2-.965c.561-1.236,1.1-2.482,1.662-3.718.046-.1.05-.244.222-.272.272.484.464,1.007.7,1.511,1.308,2.825,1.285,2.826,1.315,5.844a23.182,23.182,0,0,1-.424,4.99c-.372,1.786-.675,3.588-.982,5.387-.1.6.022.821.531,1.031h1.993a.974.974,0,0,0,.57-.471q1.61-2.428,3.23-4.85c.275-.412.279-.412.555,0q1.618,2.423,3.23,4.85a.975.975,0,0,0,.57.471h1.993c.51-.21.634-.429.531-1.031-.274-1.606-.591-3.2-.864-4.811a22.653,22.653,0,0,1-.525-3.258c-.036-1.568-.008-3.138-.01-4.707a2.287,2.287,0,0,1,.2-.965c.561-1.236,1.1-2.482,1.662-3.718.046-.1.05-.244.222-.272.272.484.464,1.007.7,1.511,1.309,2.825,1.286,2.826,1.315,5.844a23.182,23.182,0,0,1-.424,4.99c-.372,1.786-.675,3.588-.982,5.387-.1.6.022.821.532,1.031h1.993a.975.975,0,0,0,.57-.471q1.61-2.428,3.229-4.85c.275-.412.279-.412.555,0q1.618,2.423,3.229,4.85a.975.975,0,0,0,.57.471h1.993c.512-.211.632-.426.528-1.031-.274-1.605-.586-3.2-.864-4.809a22.536,22.536,0,0,1-.522-3.211c-.042-1.6-.011-3.2-.011-4.8a1.376,1.376,0,0,1,.151-.7c.61-1.093,1.227-2.182,1.819-3.284a22.2,22.2,0,0,0,1.526-2.916V10.6a.7.7,0,0,0-.533-.554M10.528,27.468a2.137,2.137,0,0,0-.794-2.511,1.768,1.768,0,0,0-2.084.006,2.076,2.076,0,0,0-.7,2.578L2.613,23.209h11.7l-3.787,4.259m14.461.039c.19-1.836-.417-2.822-1.719-2.862a1.863,1.863,0,0,0-1.686.877,2.589,2.589,0,0,0-.258,1.9l-3.745-4.211H28.8l-3.815,4.291m14.451.02a2.087,2.087,0,0,0-.635-2.516,1.766,1.766,0,0,0-2-.142,2.149,2.149,0,0,0-.984,2.556l-3.743-4.21H43.753L39.44,27.526"/>
          <path id="Trazado_129972" data-name="Trazado 129972" d="M61.131,15.678c0-3.246.006-6.491-.009-9.737,0-.345.09-.415.422-.413q6.839.018,13.678,0c.347,0,.413.093.413.422q-.016,9.737,0,19.474c0,.347-.092.419-.423.413-1.177-.022-2.355-.025-3.532,0-.353.008-.413-.1-.411-.426.016-1.962.009-3.925.007-5.888,0-.7-.242-.943-.955-.944q-1.97,0-3.94,0c-.648,0-.9.254-.9.906,0,1.978-.01,3.955.008,5.933,0,.341-.083.423-.419.417q-1.766-.034-3.532,0c-.346.007-.415-.091-.414-.422.013-3.246.008-6.491.008-9.737" transform="translate(-45.186 -4.085)" fill="#e9e6e3"/>
          <path id="Trazado_129973" data-name="Trazado 129973" d="M12.107,44.451c2.022,0,4.045.009,6.067-.009.34,0,.431.082.418.42-.028.723-.021,1.449,0,2.173.007.263-.08.328-.33.321-.588-.017-1.177-.012-1.766,0a.728.728,0,0,0-.807.815q-.012,1.358,0,2.716a.729.729,0,0,0,.811.813c.588.009,1.177.015,1.765,0,.255-.008.332.066.326.324-.017.724-.027,1.449,0,2.173.014.345-.087.417-.421.416C15,54.591,11.832,54.6,8.663,54.6c-.936,0-1.871-.009-2.807.006-.256,0-.331-.069-.325-.325q.025-1.131,0-2.263c-.006-.261.077-.329.329-.322.588.017,1.177.013,1.766,0a.731.731,0,0,0,.808-.816q.013-1.358,0-2.716a.729.729,0,0,0-.812-.812c-.6-.009-1.208-.011-1.811,0-.217,0-.282-.061-.279-.279.012-.754.02-1.51,0-2.263-.009-.3.086-.37.375-.368,2.067.012,4.135.007,6.2.007" transform="translate(-4.087 -32.855)" fill="#ddd6cb"/>
          <path id="Trazado_129974" data-name="Trazado 129974" d="M135.8,44.478q4.572-.007,9.144-.019c.216,0,.283.059.279.278q-.018,1.177,0,2.354c0,.221-.068.281-.282.276-.588-.013-1.177-.009-1.766,0s-.852.267-.855.86q-.008,1.312,0,2.626c0,.591.266.854.855.86s1.177.01,1.766,0c.214,0,.285.055.282.276q-.019,1.177,0,2.354c0,.218-.063.278-.279.278q-4.572-.017-9.144-.019a.768.768,0,0,1-.148-.6q-.006-4.461,0-8.922a.767.767,0,0,1,.148-.6" transform="translate(-100.28 -32.868)" fill="#ddd6cb"/>
          <path id="Trazado_129975" data-name="Trazado 129975" d="M130.69,141.763H133.9c.176,0,.366-.043.368.251a25.09,25.09,0,0,0,.565,3.651c.194,1.232.448,2.455.674,3.682.021.115.086.283-.02.337-.172.088-.213-.116-.28-.217q-1.925-2.875-3.84-5.755a.881.881,0,0,0-.658-.494.813.813,0,0,0-.768.458q-1.862,2.807-3.736,5.606l-.177.263c-.049.074-.091.184-.194.158-.15-.037-.088-.176-.072-.265.124-.711.258-1.42.388-2.13q.427-2.33.853-4.659c.005-.029.007-.06.009-.09.075-.795.075-.795.867-.795h2.806" transform="translate(-92.958 -104.801)" fill="#09597c"/>
          <path id="Trazado_129976" data-name="Trazado 129976" d="M75.06,141.717h3.259c.186,0,.354-.022.359.263a25.9,25.9,0,0,0,.588,3.738c.2,1.216.441,2.426.659,3.64.017.1.072.239-.038.288-.154.069-.192-.1-.254-.194q-1.886-2.819-3.766-5.641c-.583-.874-1.052-.88-1.625-.019l-3.684,5.532c-.042.063-.084.125-.128.186s-.092.184-.2.146c-.136-.049-.077-.182-.062-.274.089-.534.186-1.067.284-1.6q.474-2.573.951-5.146c.005-.029.008-.06.013-.089.043-.263-.124-.631.09-.768s.551-.059.836-.06c.905,0,1.81,0,2.716,0" transform="translate(-51.857 -104.756)" fill="#09597c"/>
          <path id="Trazado_129977" data-name="Trazado 129977" d="M19.452,141.763q1.629,0,3.259,0c.175,0,.367-.045.369.25a24.3,24.3,0,0,0,.558,3.606c.2,1.247.454,2.485.679,3.727.022.119.113.295-.058.351-.135.044-.177-.134-.24-.228q-1.923-2.876-3.839-5.756a.9.9,0,0,0-.613-.491.8.8,0,0,0-.813.453q-1.861,2.808-3.736,5.606c-.05.075-.1.152-.153.224-.068.089-.106.262-.257.182-.1-.051-.047-.194-.029-.294.125-.7.256-1.39.384-2.085q.427-2.33.853-4.659c.005-.029.007-.06.009-.09.076-.8.076-.8.866-.8h2.761" transform="translate(-10.756 -104.801)" fill="#09597c"/>
          <path id="Trazado_129978" data-name="Trazado 129978" d="M125.928,44.479V54.6c-1.116,0-2.231,0-3.347.019-.211,0-.288-.054-.285-.276q.018-1.176,0-2.352c0-.22.068-.283.283-.278.588.013,1.176.009,1.764,0s.851-.27.855-.861q.009-1.312,0-2.624c0-.593-.266-.855-.855-.861s-1.176-.01-1.764,0c-.214,0-.286-.059-.283-.278q.018-1.176,0-2.352c0-.222.073-.279.285-.276,1.116.013,2.231.014,3.347.019" transform="translate(-90.412 -32.869)" fill="#c0b39a"/>
          <path id="Trazado_129979" data-name="Trazado 129979" d="M5.6,92.959C7.237,94.6,8.829,96.192,10.41,97.79c.391.4.76.794,1.451.612-.353,1.23-.65,2.4-1.029,3.534a1.642,1.642,0,0,0,.282,1.794,4.259,4.259,0,0,1,.334.5c-.72,0-1.377-.011-2.033,0-.278.007-.228-.166-.228-.325,0-1.012-.008-2.023,0-3.035a1.655,1.655,0,0,0-.224-.859C7.931,98.168,6.914,96.3,5.86,94.458a2.218,2.218,0,0,1-.264-1.5" transform="translate(-4.115 -68.723)" fill="#afddf6"/>
          <path id="Trazado_129980" data-name="Trazado 129980" d="M148.642,104.251c.077-.125.114-.186.153-.246.853-1.324.765-.834.34-2.4-.28-1.031-.586-2.054-.9-3.158.868.179,1.253-.463,1.729-.936,1.5-1.489,2.985-2.987,4.526-4.532a2.086,2.086,0,0,1-.179,1.336c-1.079,1.9-2.127,3.816-3.194,5.721a1.654,1.654,0,0,0-.223.859c.012,1.011,0,2.023.01,3.034,0,.256-.068.333-.325.325-.618-.018-1.237-.006-1.936-.006" transform="translate(-109.586 -68.739)" fill="#afddf6"/>
          <path id="Trazado_129981" data-name="Trazado 129981" d="M42.708,93.618a2.168,2.168,0,0,1-.163,1.26c-.851,1.876-1.68,3.763-2.523,5.643a2.021,2.021,0,0,0-.188.871c.012,1-.006,1.991.011,2.987,0,.277-.063.361-.347.35-.615-.023-1.23-.007-1.922-.007.188-.285.323-.534.5-.749a1.235,1.235,0,0,0,.194-1.264c-.357-1.148-.665-2.313-1-3.467-.062-.21-.1-.354.2-.318a1.027,1.027,0,0,0,.93-.445c1.414-1.606,2.839-3.2,4.314-4.86" transform="translate(-27.518 -69.21)" fill="#afddf6"/>
          <path id="Trazado_129982" data-name="Trazado 129982" d="M63.97,93.6c1.479,1.663,2.9,3.259,4.319,4.865a1.024,1.024,0,0,0,.929.446c.3-.037.259.11.2.318-.319,1.083-.586,2.182-.948,3.249a1.579,1.579,0,0,0,.29,1.708,5.33,5.33,0,0,1,.352.521H67c-.235,0-.157-.18-.158-.3-.005-1-.012-1.992,0-2.987a2.209,2.209,0,0,0-.2-.959c-.838-1.866-1.661-3.739-2.508-5.6A2.235,2.235,0,0,1,63.97,93.6" transform="translate(-47.275 -69.195)" fill="#afddf6"/>
          <path id="Trazado_129983" data-name="Trazado 129983" d="M98.323,93.608a2.2,2.2,0,0,1-.161,1.257c-.846,1.862-1.668,3.735-2.508,5.6a2.3,2.3,0,0,0-.207,1c.014.965,0,1.931.011,2.9,0,.264-.043.37-.339.358-.616-.026-1.233-.008-1.932-.008.229-.345.42-.642.621-.933a.927.927,0,0,0,.129-.853c-.363-1.226-.693-2.462-1.058-3.687-.08-.27-.042-.358.238-.326a.994.994,0,0,0,.886-.44c1.416-1.606,2.842-3.2,4.321-4.868" transform="translate(-68.636 -69.203)" fill="#afddf6"/>
          <path id="Trazado_129984" data-name="Trazado 129984" d="M119.576,93.663l2.706,3.037c.452.507.91,1.007,1.351,1.524.379.444.73.919,1.48.689-.361,1.257-.665,2.438-1.045,3.593a1.574,1.574,0,0,0,.273,1.71,4.606,4.606,0,0,1,.356.538c-.722,0-1.379-.01-2.035,0-.28.006-.225-.17-.225-.327,0-.981-.011-1.961,0-2.942a2.3,2.3,0,0,0-.215-1c-.818-1.826-1.62-3.659-2.448-5.48a2.1,2.1,0,0,1-.2-1.346" transform="translate(-88.373 -69.243)" fill="#afddf6"/>
          <path id="Trazado_129985" data-name="Trazado 129985" d="M86.278,64.05c0,.846-.011,1.691.007,2.536.006.276-.064.363-.35.355-.739-.021-1.48-.015-2.219,0-.238,0-.345-.037-.343-.314q.018-2.581,0-5.163c0-.254.064-.337.326-.331q1.132.025,2.265,0c.269-.006.323.094.319.338-.013.86,0,1.721,0,2.582" transform="translate(-61.636 -45.192)" fill="#1ca8e3"/>
          <path id="Trazado_129986" data-name="Trazado 129986" d="M142.831,122c.193.667.388,1.334.576,2a3.028,3.028,0,0,1-.582,1.03.154.154,0,0,1-.083,0,3,3,0,0,1-.581-1.03c.187-.668.383-1.335.576-2h.1" transform="translate(-105.095 -90.195)" fill="#1ca7e2"/>
          <path id="Trazado_129987" data-name="Trazado 129987" d="M87.233,122.006c.193.667.388,1.334.576,2a3.033,3.033,0,0,1-.582,1.03.154.154,0,0,1-.083,0,3,3,0,0,1-.581-1.03c.187-.668.383-1.334.576-2h.1" transform="translate(-63.993 -90.196)" fill="#1ca7e2"/>
          <path id="Trazado_129988" data-name="Trazado 129988" d="M31.821,122.028c.19.657.383,1.313.568,1.972a2.824,2.824,0,0,1-.556,1.042c-.069.041-.1.008-.15-.032a1.455,1.455,0,0,1-.436-1.352c.157-.543.317-1.085.475-1.628l.1,0" transform="translate(-23.075 -90.213)" fill="#1ca7e2"/>
          <path id="Trazado_129989" data-name="Trazado 129989" d="M6.283,62.6c-.723,0-.723,0-.723-.738,0-.711,0-.711.7-.711.746,0,.746,0,.746.76,0,.689,0,.689-.726.689" transform="translate(-4.11 -45.211)" fill="#1ca8e3"/>
          <path id="Trazado_129990" data-name="Trazado 129990" d="M168.242,61.9c0,.707,0,.707-.709.707-.741,0-.741,0-.741-.72s0-.729.732-.729.718,0,.718.743" transform="translate(-123.306 -45.211)" fill="#1ca8e3"/>
          <path id="Trazado_129991" data-name="Trazado 129991" d="M123.764,61.9c0,.7,0,.7-.713.7-.737,0-.737,0-.737-.724s0-.725.736-.725c.714,0,.714,0,.714.747" transform="translate(-90.425 -45.21)" fill="#1ca8e3"/>
          <path id="Trazado_129992" data-name="Trazado 129992" d="M51.487,61.9c0,.7,0,.7-.715.7-.734,0-.734,0-.734-.727s0-.723.738-.723c.712,0,.712,0,.712.749" transform="translate(-36.991 -45.211)" fill="#1ca8e3"/>
          <path id="Trazado_129993" data-name="Trazado 129993" d="M87.2,100.633c0-.313.139-.514.443-.521a.407.407,0,0,1,.46.48c-.068.518-.186,1.029-.283,1.543a.15.15,0,0,1-.149.137.161.161,0,0,1-.182-.154c-.1-.5-.194-1-.289-1.486" transform="translate(-64.467 -74.01)" fill="#f9e433"/>
          <path id="Trazado_129994" data-name="Trazado 129994" d="M32.529,100.607q-.146.751-.291,1.5c-.019.1-.059.168-.171.168s-.152-.069-.171-.167c-.093-.485-.2-.967-.276-1.454a.424.424,0,0,1,.447-.539c.3,0,.447.2.462.494" transform="translate(-23.37 -74.012)" fill="#f9e433"/>
          <path id="Trazado_129995" data-name="Trazado 129995" d="M142.795,100.625c0-.313.147-.511.452-.513a.409.409,0,0,1,.453.488c-.07.518-.188,1.029-.286,1.543a.148.148,0,0,1-.155.13c-.112,0-.157-.062-.176-.161-.1-.5-.194-1-.289-1.486" transform="translate(-105.566 -74.011)" fill="#f9e433"/>
          <path id="Trazado_129996" data-name="Trazado 129996" d="M69.49,13.244c0-.437-.006-.874,0-1.311a.727.727,0,0,1,.8-.823q1.378-.014,2.757,0a.718.718,0,0,1,.79.784q.016,1.378,0,2.757a.729.729,0,0,1-.819.8q-1.356.012-2.712,0a.73.73,0,0,1-.813-.809c-.009-.467,0-.934,0-1.4" transform="translate(-51.371 -8.208)"/>
          <path id="Trazado_129997" data-name="Trazado 129997" d="M93.894,15.453c-.467,0-.934.01-1.4,0a.711.711,0,0,1-.767-.761c-.012-.949-.013-1.9,0-2.847a.7.7,0,0,1,.746-.733q1.424-.019,2.847,0a.7.7,0,0,1,.744.736q.021,1.424,0,2.847a.712.712,0,0,1-.771.757c-.467.012-.934,0-1.4,0" transform="translate(-67.805 -8.207)"/>
          <path id="Trazado_129998" data-name="Trazado 129998" d="M71.656,33.349c.467,0,.934-.009,1.4,0a.71.71,0,0,1,.77.757q.019,1.424,0,2.847a.7.7,0,0,1-.745.736q-1.424.019-2.847,0a.7.7,0,0,1-.746-.734q-.021-1.424,0-2.847a.709.709,0,0,1,.768-.759c.467-.012.934,0,1.4,0" transform="translate(-51.364 -24.652)"/>
          <path id="Trazado_129999" data-name="Trazado 129999" d="M96.07,35.561c0,.452.009.9,0,1.356a.712.712,0,0,1-.759.77q-1.424.018-2.847,0a.7.7,0,0,1-.734-.745q-.019-1.424,0-2.847a.7.7,0,0,1,.734-.745c.949-.014,1.9-.013,2.847,0a.711.711,0,0,1,.759.768c.012.482,0,.964,0,1.446" transform="translate(-67.805 -24.646)"/>
          <path id="Trazado_130000" data-name="Trazado 130000" d="M24.4,55.587c.467,0,.934-.009,1.4,0a.71.71,0,0,1,.77.758q.018,1.423,0,2.847a.7.7,0,0,1-.745.735q-1.424.02-2.847,0a.7.7,0,0,1-.745-.735q-.021-1.423,0-2.847A.709.709,0,0,1,23,55.59c.467-.012.934,0,1.4,0" transform="translate(-16.427 -41.092)"/>
          <path id="Trazado_130001" data-name="Trazado 130001" d="M141.112,59.931c-.437,0-.874.007-1.311,0a.73.73,0,0,1-.817-.8q-.013-1.379,0-2.757a.716.716,0,0,1,.791-.783q1.378-.014,2.757,0a.718.718,0,0,1,.794.78q.016,1.4,0,2.8a.713.713,0,0,1-.768.761c-.482.012-.964,0-1.446,0" transform="translate(-102.744 -41.089)"/>
          <path id="Trazado_130002" data-name="Trazado 130002" d="M75.759,18.128c-.7,0-.7,0-.7-.713,0-.736,0-.736.724-.736s.725,0,.725.736c0,.714,0,.714-.747.714" transform="translate(-55.488 -12.33)" fill="#1ca8e3"/>
          <path id="Trazado_130003" data-name="Trazado 130003" d="M98.745,17.408c0,.72,0,.72-.741.72-.709,0-.709,0-.709-.707,0-.743,0-.743.763-.743.686,0,.686,0,.686.729" transform="translate(-71.928 -12.33)" fill="#1ca8e3"/>
          <path id="Trazado_130004" data-name="Trazado 130004" d="M76.506,39.656c0,.71,0,.71-.706.71-.744,0-.744,0-.744-.763,0-.687,0-.687.683-.687h.045c.721,0,.721,0,.721.74" transform="translate(-55.488 -28.77)" fill="#1ca8e3"/>
          <path id="Trazado_130005" data-name="Trazado 130005" d="M97.3,39.623c0-.706,0-.706.709-.706.74,0,.74,0,.74.721s0,.729-.732.729-.717,0-.717-.744" transform="translate(-71.929 -28.771)" fill="#1ca8e3"/>
          <path id="Trazado_130006" data-name="Trazado 130006" d="M28.549,61.154c.7,0,.7,0,.7.717s0,.732-.728.732-.721,0-.721-.74c0-.71,0-.71.751-.71" transform="translate(-20.551 -45.21)" fill="#1ca8e3"/>
          <path id="Trazado_130007" data-name="Trazado 130007" d="M145.26,62.6c-.707,0-.707,0-.707-.709,0-.74,0-.74.72-.74s.729,0,.729.731,0,.718-.743.718" transform="translate(-106.865 -45.211)" fill="#1ca8e3"/>
        </g>
      </g>
    </g>
  </g>
</svg>
