<svg xmlns="http://www.w3.org/2000/svg" xmlns:xlink="http://www.w3.org/1999/xlink" width="69" height="84" viewBox="0 0 69 84">
  <defs>
    <clipPath id="clip-path">
      <rect id="Rect치ngulo_37613" data-name="Rect치ngulo 37613" width="49.571" height="49.554" fill="none"/>
    </clipPath>
  </defs>
  <g id="_70" data-name="70" transform="translate(-941 -10917.144)">
    <g id="Grupo_156379" data-name="Grupo 156379" transform="translate(941.373 10917.535)">
      <rect id="Rect치ngulo_36766" data-name="Rect치ngulo 36766" width="69" height="84" rx="12" transform="translate(-0.373 -0.391)" fill="#0c487b"/>
    </g>
    <g id="Grupo_156657" data-name="Grupo 156657">
      <g id="Grupo_156656" data-name="Grupo 156656" transform="translate(593 6270)">
        <path id="Trazado_127053" data-name="Trazado 127053" d="M15.507,123.96c-.454.1-.559-.113-.555-.537.012-1.063-.007-1.081-1.106-1.075-.409,0-.536-.124-.528-.529.007-.377.077-.553.512-.551,1.1,0,1.131-.018,1.119-1.119-.005-.5.239-.507.608-.511s.56.058.56.5c0,1.115.023,1.135,1.112,1.131.421,0,.521.15.522.541s-.1.541-.52.539c-1.11-.006-1.137.014-1.112,1.066.012.488-.169.631-.611.545" transform="translate(339.683 4573.993)" fill="#29c4bb"/>
        <path id="Trazado_127054" data-name="Trazado 127054" d="M213.642,151.161c.406-.078.632.057.565.517-.056.385.077.6.5.533s.57.088.573.537c0,.47-.189.578-.589.525-.383-.052-.5.115-.5.5.012.6-.357.826-.934.645-.274-.086-.214-.3-.2-.477.048-.472-.06-.76-.616-.666-.431.073-.457-.2-.456-.527s.014-.6.451-.53c.471.073.694-.1.616-.6-.075-.475.23-.5.582-.454" transform="translate(195.806 4552.685)" fill="#29c4bb"/>
        <path id="Trazado_127055" data-name="Trazado 127055" d="M210.718,69.268c.1.453-.1.608-.527.537-.46-.078-.648.111-.567.569s-.113.548-.542.553-.609-.127-.532-.557c.082-.459-.109-.648-.565-.562-.472.089-.513-.158-.531-.555-.021-.466.16-.588.566-.517.441.077.606-.106.531-.537-.072-.412.061-.579.521-.563.4.014.639.072.552.536s.115.639.567.563c.425-.072.632.081.526.534" transform="translate(199.254 4608.526)" fill="#010000"/>
        <path id="Trazado_127056" data-name="Trazado 127056" d="M55.04,186.64c.1.423-.11.578-.532.5-.5-.09-.614.169-.543.587.079.465-.146.537-.555.535-.39,0-.6-.091-.518-.511.108-.553-.169-.688-.645-.607s-.466-.225-.467-.559.007-.6.448-.512c.593.117.745-.168.665-.7-.077-.508.311-.362.569-.377.274-.016.579-.052.5.389-.1.545.092.8.67.687.482-.092.423.243.409.566" transform="translate(311.829 4530.025)" fill="#010000"/>
        <path id="Trazado_127057" data-name="Trazado 127057" d="M121.786,17.426c-.114-.483.153-.577.548-.518.41.061.572-.109.509-.513s.058-.588.522-.578c.427.009.623.119.548.558s.131.6.553.533c.391-.059.587.035.589.513s-.182.62-.608.553c-.45-.072-.6.133-.533.553.078.472-.175.526-.572.534-.424.009-.562-.151-.5-.54.068-.427-.09-.622-.535-.547s-.62-.106-.523-.547" transform="translate(261.153 4643.184)" fill="#29c4bb"/>
      </g>
      <g id="Grupo_157554" data-name="Grupo 157554" transform="translate(951 10934.145)">
        <g id="Grupo_157554-2" data-name="Grupo 157554" clip-path="url(#clip-path)">
          <path id="Trazado_129885" data-name="Trazado 129885" d="M128.834,109a2.159,2.159,0,0,0-2.5-1.555,2.2,2.2,0,0,0-1.771,2.314c0,.838-.022,1.676.009,2.513.015.415-.066.583-.532.558-.835-.044-1.675-.01-2.512-.013a2.238,2.238,0,0,0-1.818.73,2.065,2.065,0,0,0-.381,2.294,2.128,2.128,0,0,0,2.107,1.331c1.24.01,2.481.008,3.721,0a3.747,3.747,0,0,0,2.488-.884,4.154,4.154,0,0,0,1.274-2.26v-4.936c-.03-.03-.075-.055-.089-.092m-1.368,4.542a2.1,2.1,0,0,1-2.046,2.147c-1.351.051-2.706.03-4.058.017a.712.712,0,1,1,0-1.42c1.176-.018,2.352-.006,3.528-.01.931,0,1.124-.2,1.125-1.144q0-1.619,0-3.238c0-.7.244-1.032.737-1.024s.713.34.714,1.047q0,.87,0,1.74h0c0,.628.014,1.257,0,1.885" transform="translate(-79.352 -71.538)"/>
          <path id="Trazado_129886" data-name="Trazado 129886" d="M128.853,14.564a3.589,3.589,0,0,0-2.954-2.815,36.046,36.046,0,0,0-4.828-.022,1.933,1.933,0,0,0-1.6,1.031,2.149,2.149,0,0,0,1.64,3.248c.224.023.45.03.675.032.916.011,1.833.017,2.749.025.1.929.018,1.862.044,2.793.006.209-.009.421.017.628a2.087,2.087,0,0,0,1.387,1.817,2.127,2.127,0,0,0,2.285-.457,4.1,4.1,0,0,0,.667-1.079V14.83c-.029-.089-.065-.175-.086-.266m-1.368,4.561c-.007.543-.265.851-.7.862-.461.012-.741-.3-.744-.869-.007-1.16,0-2.32,0-3.48,0-.828-.223-1.051-1.067-1.056-1.063-.005-2.126,0-3.189,0-.129,0-.258.005-.387,0a.716.716,0,1,1-.023-1.428c.08-.007.161-.006.241-.006,1.16,0,2.32-.007,3.48,0a2.194,2.194,0,0,1,2.4,2.4c0,.548,0,1.1,0,1.643,0,.645.006,1.289,0,1.933" transform="translate(-79.368 -7.764)"/>
          <path id="Trazado_129887" data-name="Trazado 129887" d="M131.925,69.225a2.058,2.058,0,0,0-2-1.532c-1.383-.034-2.769-.04-4.15.018a2.084,2.084,0,0,0-1.961,1.919,2.024,2.024,0,0,0,1.541,2.262,17.158,17.158,0,0,0,5.136,0c.839-.122,1.216-.851,1.536-1.563v-.968c-.082-.011-.081-.079-.1-.138m-2.2,1.338q-1.812.018-3.625,0c-.528-.005-.85-.3-.842-.728s.327-.695.866-.705c.612-.012,1.224,0,1.837,0,.58,0,1.16-.009,1.74,0,.539.011.858.282.866.705s-.314.723-.842.728" transform="translate(-82.456 -45.069)"/>
          <path id="Trazado_129888" data-name="Trazado 129888" d="M69.673,8.213a2.024,2.024,0,0,0,2.262-1.541,17.139,17.139,0,0,0,0-5.136C71.815.7,71.086.32,70.374,0h-.968c-.01.082-.079.081-.138.1a2.059,2.059,0,0,0-1.532,2c-.034,1.383-.04,2.769.018,4.15a2.085,2.085,0,0,0,1.919,1.961m-.5-5.9c.011-.534.292-.854.717-.854s.711.321.716.854q.016,1.812,0,3.625c-.006.522-.317.846-.74.83s-.68-.323-.692-.83c-.014-.612,0-1.224,0-1.837,0-.6-.01-1.192,0-1.788" transform="translate(-45.097)"/>
          <path id="Trazado_129889" data-name="Trazado 129889" d="M59.179,56.082a.825.825,0,0,0-.727-.966c-.626.192-.736.331-.723,1.1.006.348-.075.49-.45.465-.574-.038-1.152-.026-1.728-.036-.917.01-1.835.011-2.752.035-.337.009-.3-.2-.3-.411-.008-1.321,0-2.642-.03-3.963a7.838,7.838,0,0,0-1.33-4.174c-.178-.272-.184-.4.145-.507a4.079,4.079,0,0,1,1.648-.3A4.656,4.656,0,0,1,57.72,52.1c0,.145,0,.29,0,.435a.824.824,0,0,0,.732.963.755.755,0,0,0,.711-.724,6.27,6.27,0,0,0-2.071-5.384,13.74,13.74,0,0,0-1.405-.975,4.425,4.425,0,0,0,.823-6.2A4.288,4.288,0,0,0,52.9,38.5a4.439,4.439,0,0,0-3.537,1.909,5.367,5.367,0,0,0-4.748-5.335,5.112,5.112,0,0,0-4.145,1.339,5.461,5.461,0,0,0-1.792,4,4.415,4.415,0,1,0-6.328,6c-.987.689-.995.7-.773,1.383a.871.871,0,0,0,1.167.1,3.959,3.959,0,0,1,2.184-.567,4.008,4.008,0,0,1,1.917.329c.206.08.283.17.128.38-.178.243-.328.507-.49.762a10.357,10.357,0,0,0-.933,5.066c.027.8,0,1.61.009,2.415,0,.272-.046.4-.364.4-1.5-.015-2.995-.01-4.492,0-.25,0-.379-.041-.376-.338.017-1.513.012-3.026.022-4.54a3.964,3.964,0,0,1,.376-1.683.86.86,0,0,0-.2-1.127c-.647-.154-.866-.044-1.131.558a5.1,5.1,0,0,0-.478,2c-.022,1.821-.028,3.643-.036,5.465,0,.915.194,1.111,1.1,1.111,1.725,0,3.45.008,5.176-.006.315,0,.418.086.406.4-.023.612-.021,1.226,0,1.838a.74.74,0,0,0,.822.8c.419.014.838,0,1.257.005a.816.816,0,0,0,.925-.718c-.172-.613-.331-.758-1-.725-.437.021-.57-.1-.563-.552.031-2.321-.026-4.645.047-6.965a7,7,0,0,1,13.487-2.1,7.07,7.07,0,0,1,.489,2.644q0,3.266,0,6.532c0,.273-.014.442-.377.44-3.241-.018-6.483-.016-9.725-.019a.791.791,0,0,0-.717.742.8.8,0,0,0,.917.722q5.226,0,10.452,0c.645,0,.9-.259.909-.917.011-.58.016-1.162,0-1.742-.009-.287.062-.428.373-.385a2.872,2.872,0,0,0,.387,0c1.661,0,3.322.005,4.984,0,.692,0,.924-.244.939-.934.008-.371-.008-.742,0-1.113M35.02,45.826a2.94,2.94,0,1,1,2.948-2.945,2.94,2.94,0,0,1-2.948,2.945m3.242.7c-.252.239-.39-.017-.589-.1a4.536,4.536,0,0,0,1.749-3.374,6.3,6.3,0,0,0,1.624,1.731,8.628,8.628,0,0,0-2.783,1.745m5.758-2.289A3.868,3.868,0,1,1,47.9,40.358a3.915,3.915,0,0,1-3.877,3.874m5.658,2.18A8.578,8.578,0,0,0,47,44.779a6.078,6.078,0,0,0,1.62-1.72,4.545,4.545,0,0,0,1.731,3.325c-.368.3-.374.3-.676.029m.412-3.565a2.94,2.94,0,1,1,2.866,2.975,2.941,2.941,0,0,1-2.866-2.975" transform="translate(-19.236 -23.334)"/>
          <path id="Trazado_129890" data-name="Trazado 129890" d="M57.573,81.12c2.562-.007,5.124,0,7.686-.009.147-.067.205-.212.2-.5-.025-2.222.062-4.448-.03-6.666a7.576,7.576,0,0,0-3.954-6.483,1.382,1.382,0,0,0-.214-.1,1.794,1.794,0,0,0-.328-.007,6.8,6.8,0,0,0-6.2,3.33,5.883,5.883,0,0,0-.952,3.2q-.006,3.261,0,6.522c0,.641,0,.641.635.719a.721.721,0,0,1,.739.857l1.646,0h0c-.05-.508.162-.743.774-.857m-1.018-7.15a.685.685,0,0,1,.607-.412,1,1,0,0,1,.712.358c.775.774,1.568,1.531,2.322,2.325.291.306.411.236.62-.073.893-1.32,1.81-2.624,2.718-3.934a.914.914,0,0,1,.633-.477.705.705,0,0,1,.768.931,1.81,1.81,0,0,1-.24.416q-1.649,2.383-3.3,4.763c-.47.675-.878.716-1.45.15q-1.581-1.564-3.153-3.136a.754.754,0,0,1-.234-.911" transform="translate(-35.818 -44.857)" fill="#0086d4"/>
          <path id="Trazado_129891" data-name="Trazado 129891" d="M54.043,80.865c-.634-.078-.635-.078-.635-.719q0-3.261,0-6.522a5.88,5.88,0,0,1,.952-3.2,6.8,6.8,0,0,1,6.2-3.33,1.792,1.792,0,0,1,.328.007c-.118-.045-.24-.083-.358-.129a6.946,6.946,0,0,0-7.266,6.506c-.074,2.319-.016,4.643-.047,6.965-.006.452.127.573.563.552.666-.032.826.112,1,.725a.722.722,0,0,0-.739-.857" transform="translate(-35.446 -44.598)" fill="#0086d4"/>
          <path id="Trazado_129892" data-name="Trazado 129892" d="M63.527,108.676c.153-.136.339-.077.509-.078,2.287,0,4.574-.013,6.86.006a.9.9,0,0,0,.373-.053c-2.562.008-5.124,0-7.686.009-.612.114-.824.349-.774.857h0a.791.791,0,0,1,.717-.742" transform="translate(-41.829 -72.299)" fill="#0086d4"/>
          <path id="Trazado_129893" data-name="Trazado 129893" d="M34.225,74.375a.456.456,0,0,1-.02.239c-.695,1.577-.347,3.245-.424,4.875-.019.4-.009.807,0,1.21.01.508.059.565.552.568q1.863.011,3.726,0c.5,0,.543-.052.555-.562.029-1.24-.016-2.48.078-3.722a8.769,8.769,0,0,1,.891-3.338c.027-.048.056-.1.084-.144a6.285,6.285,0,0,0-1.31-1.25c-.063,0-.126,0-.189,0a4.418,4.418,0,0,0-2.195.573c-.579.275-.841.2-1.143-.245a5.141,5.141,0,0,0-1.054,1.2h0c.348.049.411.315.449.6" transform="translate(-22.485 -48.12)" fill="#00e6fe"/>
          <path id="Trazado_129894" data-name="Trazado 129894" d="M38.1,72.554a4.418,4.418,0,0,1,2.195-.573c.063,0,.126,0,.189,0-.059-.045-.117-.091-.177-.135a3.96,3.96,0,0,0-2.184.567.871.871,0,0,1-1.167-.1c.3.448.564.52,1.143.245" transform="translate(-24.617 -47.846)" fill="#00e6fe"/>
          <path id="Trazado_129895" data-name="Trazado 129895" d="M33.617,77.4a3.964,3.964,0,0,0-.376,1.683c-.01,1.513,0,3.026-.022,4.54,0,.3.126.34.376.338,1.5-.008,2.995-.012,4.492,0,.318,0,.369-.128.364-.4-.013-.8.017-1.611-.009-2.415a10.357,10.357,0,0,1,.933-5.066c-.021-.031-.047-.056-.068-.086-.028.048-.057.1-.084.144a8.757,8.757,0,0,0-.891,3.337c-.095,1.242-.049,2.482-.079,3.722-.012.509-.053.559-.555.562q-1.863.011-3.726,0c-.494,0-.542-.059-.552-.568-.008-.4-.018-.807,0-1.21.077-1.63-.27-3.3.424-4.875a.459.459,0,0,0,.02-.239c-.038-.282-.1-.547-.45-.6a.86.86,0,0,1,.2,1.127" transform="translate(-22.125 -50.617)" fill="#00e6fe"/>
          <path id="Trazado_129896" data-name="Trazado 129896" d="M.033,17.1c0,.77,0,1.4,0,2.028a2.182,2.182,0,1,0,4.354-.015c.005-.9.016-1.807-.007-2.71-.008-.311.093-.371.38-.365.871.018,1.742.009,2.613.005A2.687,2.687,0,0,0,8.55,15.83a2.189,2.189,0,0,0,1.229-2.306,2.092,2.092,0,0,0-1.933-1.8,37.738,37.738,0,0,0-4.5,0,3.54,3.54,0,0,0-3.26,3.044A21.313,21.313,0,0,0,.033,17.1m1.454-1.722a2.127,2.127,0,0,1,2.135-2.215c1.3-.043,2.609-.022,3.914-.011a.729.729,0,0,1,.813.706c.005.424-.317.718-.847.723-1.144.012-2.287,0-3.431,0-.936,0-1.134.2-1.135,1.134,0,1.112,0,2.223,0,3.335,0,.612-.26.939-.726.938s-.72-.328-.723-.942,0-1.224,0-1.837-.009-1.225,0-1.837" transform="translate(-0.018 -7.767)"/>
          <path id="Trazado_129897" data-name="Trazado 129897" d="M7.837,112.858c-1.01-.077-2.03-.049-3.046-.035-.33,0-.438-.069-.429-.414q.036-1.427,0-2.855A2.163,2.163,0,0,0,2.2,107.4a2.153,2.153,0,0,0-2.177,2.133c-.028,1.354-.036,2.71,0,4.064a3.572,3.572,0,0,0,2.827,3.47,11.565,11.565,0,0,0,2.749.066c.757,0,1.517.033,2.272-.009A1.945,1.945,0,0,0,9.5,116.058a2.128,2.128,0,0,0-1.661-3.2m-.068,2.818a2.172,2.172,0,0,1-.432.035c-1.16,0-2.32.009-3.48,0A2.194,2.194,0,0,1,1.467,113.3c0-.564,0-1.128,0-1.692,0-.629-.006-1.257,0-1.885.007-.54.271-.849.71-.857.458-.008.735.309.738.876.006,1.192,0,2.384,0,3.576,0,.68.244.94.927.949,1.127.015,2.255,0,3.383.006a3.035,3.035,0,0,1,.529.034.7.7,0,0,1,.01,1.368" transform="translate(0 -71.533)"/>
          <path id="Trazado_129898" data-name="Trazado 129898" d="M2.01,67.657A2.146,2.146,0,0,0,2,71.931c.72.053,1.447.01,2.172.009s1.451.043,2.171-.01a2.146,2.146,0,0,0,.014-4.27,33.908,33.908,0,0,0-4.344,0m4.808,2.152c-.009.424-.328.693-.868.7-.6.012-1.192,0-1.788,0s-1.192.009-1.788,0c-.538-.011-.857-.283-.864-.707s.315-.721.844-.726q1.812-.017,3.625,0c.527.005.849.306.84.73" transform="translate(-0.035 -45.016)"/>
          <path id="Trazado_129899" data-name="Trazado 129899" d="M69.95,123.761a2.124,2.124,0,0,0-2.159,1.927c-.054.72-.01,1.447-.01,2.171h0c0,.74-.045,1.484.011,2.22a2.146,2.146,0,0,0,4.264,0,33.284,33.284,0,0,0,0-4.392,2.115,2.115,0,0,0-2.11-1.927m.692,5.923c-.005.528-.3.85-.728.842s-.695-.327-.705-.867c-.012-.612,0-1.224,0-1.837,0-.58-.009-1.16,0-1.74.011-.539.282-.858.705-.866s.723.314.728.842q.018,1.812,0,3.625" transform="translate(-45.133 -82.428)"/>
          <path id="Trazado_129900" data-name="Trazado 129900" d="M106,77.823a2.531,2.531,0,0,1-.128-1.1,4.505,4.505,0,0,0-3.648-4.433,3.185,3.185,0,0,0-.785-.038,6.556,6.556,0,0,1,1.6,1.655,5.3,5.3,0,0,1,.826,2.78c.036,1.528.014,3.058.013,4.586h0c.448-.011.9-.025,1.343,0,.426.026.669-.093.681-.562a.963.963,0,0,1,.239-.616.534.534,0,0,1,.636-.2V78.285c-.422.122-.635-.127-.777-.462" transform="translate(-67.561 -48.121)" fill="#00c9e0"/>
          <path id="Trazado_129901" data-name="Trazado 129901" d="M111,95.285a.964.964,0,0,0-.239.616c-.011.469-.254.587-.681.561-.446-.027-.9-.013-1.343,0h0c0,.051,0,.1,0,.153.576.009,1.154,0,1.728.036.375.025.456-.116.45-.465-.013-.77.1-.909.723-1.1a.534.534,0,0,0-.636.2" transform="translate(-72.421 -63.302)" fill="#00c9e0"/>
          <path id="Trazado_129902" data-name="Trazado 129902" d="M105.685,77.041c0-.145,0-.29,0-.435a4.655,4.655,0,0,0-4.786-4.771c.062.045.12.094.18.14a3.185,3.185,0,0,1,.785.038,4.505,4.505,0,0,1,3.648,4.433,2.526,2.526,0,0,0,.128,1.1c.142.335.354.584.777.462a.825.825,0,0,1-.732-.963" transform="translate(-67.202 -47.839)" fill="#00c9e0"/>
          <path id="Trazado_129903" data-name="Trazado 129903" d="M130.391,114.571q0-.87,0-1.74c0-.708-.229-1.04-.714-1.047s-.736.329-.737,1.024q0,1.619,0,3.238c0,.941-.194,1.141-1.125,1.144-1.176,0-2.352-.008-3.528.01a.712.712,0,1,0,0,1.42c1.353.012,2.707.034,4.058-.017a2.1,2.1,0,0,0,2.046-2.147c.017-.628,0-1.256,0-1.885Z" transform="translate(-82.272 -74.451)" fill="#fe5a51"/>
          <path id="Trazado_129904" data-name="Trazado 129904" d="M130.391,18.5a2.194,2.194,0,0,0-2.4-2.4c-1.16-.009-2.32,0-3.48,0-.08,0-.161,0-.241.006a.716.716,0,1,0,.023,1.429c.128.01.257,0,.387,0,1.063,0,2.126,0,3.189,0,.844,0,1.066.228,1.067,1.056,0,1.16,0,2.32,0,3.48,0,.566.284.881.744.869.438-.011.7-.319.7-.862.008-.644,0-1.289,0-1.933,0-.548,0-1.1,0-1.643" transform="translate(-82.272 -10.72)" fill="#fe5a51"/>
          <path id="Trazado_129905" data-name="Trazado 129905" d="M132.607,72.034c-.58-.012-1.16,0-1.74,0-.612,0-1.225-.009-1.837,0-.539.01-.858.281-.866.705s.314.723.842.728q1.812.018,3.625,0c.528-.005.85-.3.842-.728s-.327-.695-.866-.705" transform="translate(-85.361 -47.973)" fill="#fe7a48"/>
          <path id="Trazado_129906" data-name="Trazado 129906" d="M72.078,8.849c.012.507.283.815.691.83s.734-.308.74-.83q.02-1.812,0-3.625c-.005-.533-.292-.854-.716-.854s-.706.32-.717.854c-.013.6,0,1.192,0,1.788,0,.612-.011,1.225,0,1.837" transform="translate(-48.001 -2.911)" fill="#fe7a48"/>
          <path id="Trazado_129907" data-name="Trazado 129907" d="M66.505,39.411a3.868,3.868,0,1,0,3.884,3.862,3.9,3.9,0,0,0-3.884-3.862" transform="translate(-41.728 -26.249)" fill="#fed580"/>
          <path id="Trazado_129908" data-name="Trazado 129908" d="M81.346,74.46c.011,2.063,0,4.126,0,6.188,0,.357-.005.536-.1.625.4,0,.808,0,1.212,0,.725,0,.731-.007.731-.721,0-2.061-.041-4.124.01-6.184a6.841,6.841,0,0,0-5.416-6.693c-.117-.024-.234-.051-.352-.077a4.669,4.669,0,0,1,1.157.812,7.834,7.834,0,0,1,2.756,6.053" transform="translate(-51.573 -45.021)" fill="#006eca"/>
          <path id="Trazado_129909" data-name="Trazado 129909" d="M69.486,67.275A6.841,6.841,0,0,1,74.9,73.968c-.051,2.06-.009,4.123-.01,6.184,0,.714-.006.717-.732.721-.4,0-.808,0-1.212,0-.094.088-.276.09-.632.09q-3.409,0-6.817,0a1.45,1.45,0,0,0-.527.032c3.242,0,6.483,0,9.725.019.364,0,.378-.167.377-.44q-.009-3.266,0-6.532a7.074,7.074,0,0,0-.489-2.644A7,7,0,0,0,68.36,67a2.261,2.261,0,0,1,.773.2c.118.026.235.053.352.077" transform="translate(-43.273 -44.623)" fill="#006eca"/>
          <path id="Trazado_129910" data-name="Trazado 129910" d="M80.521,80.509c0-2.063.01-4.126,0-6.188a7.834,7.834,0,0,0-2.757-6.053,4.666,4.666,0,0,0-1.157-.812,3.628,3.628,0,0,0-.414-.07,1.382,1.382,0,0,1,.214.1,7.576,7.576,0,0,1,3.954,6.482c.092,2.219,0,4.444.03,6.666,0,.288-.055.433-.2.5h.233c.1-.09.1-.268.1-.625" transform="translate(-50.746 -44.881)" fill="#006eca"/>
          <path id="Trazado_129911" data-name="Trazado 129911" d="M65.5,108.644q3.409,0,6.817,0c.356,0,.538,0,.632-.09h-.233a.909.909,0,0,1-.373.053c-2.287-.019-4.573-.01-6.86-.006-.171,0-.357-.058-.51.078a1.443,1.443,0,0,1,.527-.032" transform="translate(-43.273 -72.299)" fill="#006eca"/>
          <path id="Trazado_129912" data-name="Trazado 129912" d="M75.891,67.2a2.269,2.269,0,0,0-.773-.2c.118.046.24.083.358.129a3.646,3.646,0,0,1,.415.07" transform="translate(-50.031 -44.624)" fill="#006eca"/>
          <path id="Trazado_129913" data-name="Trazado 129913" d="M100.075,80.812c0-1.255,0-2.509,0-3.764a5.367,5.367,0,0,0-2.184-4.511c-.1-.075-.231-.133-.278-.253l-.06,0a3.7,3.7,0,0,0-1.193.156c-.468.137-.517.259-.267.682a8.191,8.191,0,0,1,1.121,3.169,30.669,30.669,0,0,1,.142,3.859c0,1.285-.151,1.135,1.122,1.146.548,0,1.1,0,1.644,0a1.333,1.333,0,0,1-.045-.489" transform="translate(-63.9 -48.143)" fill="#00e6fe"/>
          <path id="Trazado_129914" data-name="Trazado 129914" d="M97.961,80.992c-1.273-.011-1.125.139-1.122-1.146a30.676,30.676,0,0,0-.142-3.859,8.2,8.2,0,0,0-1.121-3.169c-.25-.423-.2-.545.267-.682a3.7,3.7,0,0,1,1.193-.156l.06,0a.279.279,0,0,1-.014-.146,4.073,4.073,0,0,0-1.648.3c-.329.111-.323.235-.145.507a7.838,7.838,0,0,1,1.33,4.174c.029,1.321.022,2.642.03,3.963,0,.21-.038.42.3.411.917-.024,1.834-.025,2.752-.035a.5.5,0,0,1-.094-.154c-.548-.005-1.1,0-1.644,0" transform="translate(-63.384 -47.837)" fill="#00e6fe"/>
          <path id="Trazado_129915" data-name="Trazado 129915" d="M101.219,72.528a5.366,5.366,0,0,1,2.184,4.511q0,1.882,0,3.764a1.333,1.333,0,0,0,.046.489h.094c0-1.529.022-3.058-.013-4.586a5.3,5.3,0,0,0-.826-2.78,6.566,6.566,0,0,0-1.6-1.655l-.166.005c.047.12.179.178.278.253" transform="translate(-67.23 -48.134)" fill="#00e6fe"/>
          <path id="Trazado_129916" data-name="Trazado 129916" d="M108.453,99.284a.5.5,0,0,0,.094.154c0-.051,0-.1,0-.153h-.095" transform="translate(-72.233 -66.126)" fill="#00e6fe"/>
          <path id="Trazado_129917" data-name="Trazado 129917" d="M100.906,72l.166-.005c-.061-.046-.119-.095-.18-.14a.278.278,0,0,0,.014.146" transform="translate(-67.195 -47.854)" fill="#00e6fe"/>
          <path id="Trazado_129918" data-name="Trazado 129918" d="M41.4,49.74a2.94,2.94,0,1,0,2.957,2.936A2.939,2.939,0,0,0,41.4,49.74" transform="translate(-25.629 -33.128)" fill="#fed580"/>
          <path id="Trazado_129919" data-name="Trazado 129919" d="M98.263,52.742a2.94,2.94,0,1,0-3.012,2.875,2.938,2.938,0,0,0,3.012-2.875" transform="translate(-61.531 -33.128)" fill="#fed580"/>
          <path id="Trazado_129920" data-name="Trazado 129920" d="M49.084,73.326a.514.514,0,0,1,.051.077c.074-.126.147-.253.222-.378.214-.358.182-.434-.217-.586a3.394,3.394,0,0,0-1.248-.191,3.911,3.911,0,0,1,1.192,1.078" transform="translate(-31.897 -48.119)" fill="#00c8df"/>
          <path id="Trazado_129921" data-name="Trazado 129921" d="M48.541,72.137c.4.152.432.228.217.586-.075.126-.148.252-.222.378a.188.188,0,0,1,.011.183c.162-.255.312-.519.49-.762.154-.21.078-.3-.128-.38a4,4,0,0,0-1.917-.328,2.228,2.228,0,0,1,.3.133,3.4,3.4,0,0,1,1.248.191" transform="translate(-31.299 -47.818)" fill="#00c8df"/>
          <path id="Trazado_129922" data-name="Trazado 129922" d="M48.838,73.326a3.911,3.911,0,0,0-1.192-1.078l-.124,0a6.284,6.284,0,0,1,1.31,1.25l.057-.1a.514.514,0,0,0-.051-.077" transform="translate(-31.651 -48.119)" fill="#00c8df"/>
          <path id="Trazado_129923" data-name="Trazado 129923" d="M51.5,75.706l-.057.1c.022.03.047.055.068.086a.188.188,0,0,0-.011-.183" transform="translate(-34.264 -50.422)" fill="#00c8df"/>
          <path id="Trazado_129924" data-name="Trazado 129924" d="M47.294,71.984a2.229,2.229,0,0,0-.3-.133c.059.044.118.09.176.135l.124,0" transform="translate(-31.299 -47.855)" fill="#00c8df"/>
          <path id="Trazado_129925" data-name="Trazado 129925" d="M66.785,86.643q1.656-2.378,3.3-4.763a1.8,1.8,0,0,0,.24-.416.705.705,0,0,0-.768-.931.915.915,0,0,0-.633.477c-.908,1.31-1.825,2.614-2.718,3.934-.209.309-.329.38-.62.073-.755-.793-1.548-1.55-2.322-2.325a1,1,0,0,0-.712-.358.686.686,0,0,0-.607.412.754.754,0,0,0,.234.911q1.577,1.567,3.152,3.135c.572.566.981.525,1.451-.15" transform="translate(-41.211 -53.633)"/>
          <path id="Trazado_129926" data-name="Trazado 129926" d="M4.385,21.992c0,.614.257.941.723.942s.725-.326.726-.939c0-1.111,0-2.223,0-3.335,0-.932.2-1.131,1.135-1.134,1.144,0,2.288.007,3.432,0,.53-.005.852-.3.847-.723a.729.729,0,0,0-.813-.706c-1.3-.011-2.611-.032-3.914.011a2.127,2.127,0,0,0-2.135,2.215c-.011.612,0,1.224,0,1.837s0,1.224,0,1.837" transform="translate(-2.918 -10.708)" fill="#fe5a51"/>
          <path id="Trazado_129927" data-name="Trazado 129927" d="M10.679,117.226a3.034,3.034,0,0,0-.529-.034c-1.128,0-2.256.009-3.383-.006-.684-.009-.925-.269-.927-.949,0-1.192,0-2.384,0-3.576,0-.567-.28-.884-.738-.876-.439.008-.7.317-.71.856-.008.628,0,1.257,0,1.885,0,.564,0,1.128,0,1.692a2.194,2.194,0,0,0,2.391,2.411c1.16.009,2.32,0,3.48,0a2.172,2.172,0,0,0,.432-.034.7.7,0,0,0-.01-1.368" transform="translate(-2.92 -74.452)" fill="#fe5a51"/>
          <path id="Trazado_129928" data-name="Trazado 129928" d="M5.257,72.032c-.529.005-.851.3-.844.726s.326.7.864.707c.6.012,1.192,0,1.788,0s1.192.009,1.788,0c.54-.01.859-.279.868-.7s-.313-.725-.84-.73q-1.812-.018-3.625,0" transform="translate(-2.939 -47.969)" fill="#fe7a48"/>
          <path id="Trazado_129929" data-name="Trazado 129929" d="M72.782,128.122c-.424.008-.695.327-.705.866-.012.58,0,1.16,0,1.74,0,.613-.009,1.225,0,1.837.01.539.281.858.705.866s.723-.314.728-.842q.018-1.812,0-3.625c-.005-.528-.3-.85-.728-.842" transform="translate(-48.001 -85.333)" fill="#fe7a48"/>
        </g>
      </g>
    </g>
  </g>
</svg>
