<svg xmlns="http://www.w3.org/2000/svg" xmlns:xlink="http://www.w3.org/1999/xlink" width="69" height="84" viewBox="0 0 69 84">
  <defs>
    <clipPath id="clip-path">
      <rect id="Rect치ngulo_37647" data-name="Rect치ngulo 37647" width="43.26" height="43.26" fill="none"/>
    </clipPath>
  </defs>
  <g id="_80" data-name="80" transform="translate(-941 -10917)">
    <g id="Grupo_156379" data-name="Grupo 156379" transform="translate(941.373 10917.391)">
      <rect id="Rect치ngulo_36766" data-name="Rect치ngulo 36766" width="69" height="84" rx="12" transform="translate(-0.373 -0.391)" fill="#0c487b"/>
    </g>
    <g id="Grupo_156657" data-name="Grupo 156657">
      <g id="Grupo_156656" data-name="Grupo 156656" transform="translate(593 6270)">
        <path id="Trazado_127053" data-name="Trazado 127053" d="M15.507,123.96c-.454.1-.559-.113-.555-.537.012-1.063-.007-1.081-1.106-1.075-.409,0-.536-.124-.528-.529.007-.377.077-.553.512-.551,1.1,0,1.131-.018,1.119-1.119-.005-.5.239-.507.608-.511s.56.058.56.5c0,1.115.023,1.135,1.112,1.131.421,0,.521.15.522.541s-.1.541-.52.539c-1.11-.006-1.137.014-1.112,1.066.012.488-.169.631-.611.545" transform="translate(339.683 4573.993)" fill="#29c4bb"/>
        <path id="Trazado_127054" data-name="Trazado 127054" d="M213.642,151.161c.406-.078.632.057.565.517-.056.385.077.6.5.533s.57.088.573.537c0,.47-.189.578-.589.525-.383-.052-.5.115-.5.5.012.6-.357.826-.934.645-.274-.086-.214-.3-.2-.477.048-.472-.06-.76-.616-.666-.431.073-.457-.2-.456-.527s.014-.6.451-.53c.471.073.694-.1.616-.6-.075-.475.23-.5.582-.454" transform="translate(195.806 4552.685)" fill="#29c4bb"/>
        <path id="Trazado_127055" data-name="Trazado 127055" d="M210.718,69.268c.1.453-.1.608-.527.537-.46-.078-.648.111-.567.569s-.113.548-.542.553-.609-.127-.532-.557c.082-.459-.109-.648-.565-.562-.472.089-.513-.158-.531-.555-.021-.466.16-.588.566-.517.441.077.606-.106.531-.537-.072-.412.061-.579.521-.563.4.014.639.072.552.536s.115.639.567.563c.425-.072.632.081.526.534" transform="translate(199.254 4608.526)" fill="#010000"/>
        <path id="Trazado_127056" data-name="Trazado 127056" d="M55.04,186.64c.1.423-.11.578-.532.5-.5-.09-.614.169-.543.587.079.465-.146.537-.555.535-.39,0-.6-.091-.518-.511.108-.553-.169-.688-.645-.607s-.466-.225-.467-.559.007-.6.448-.512c.593.117.745-.168.665-.7-.077-.508.311-.362.569-.377.274-.016.579-.052.5.389-.1.545.092.8.67.687.482-.092.423.243.409.566" transform="translate(311.829 4530.025)" fill="#010000"/>
        <path id="Trazado_127057" data-name="Trazado 127057" d="M121.786,17.426c-.114-.483.153-.577.548-.518.41.061.572-.109.509-.513s.058-.588.522-.578c.427.009.623.119.548.558s.131.6.553.533c.391-.059.587.035.589.513s-.182.62-.608.553c-.45-.072-.6.133-.533.553.078.472-.175.526-.572.534-.424.009-.562-.151-.5-.54.068-.427-.09-.622-.535-.547s-.62-.106-.523-.547" transform="translate(261.153 4643.184)" fill="#29c4bb"/>
      </g>
      <g id="Grupo_157651" data-name="Grupo 157651" transform="translate(954 10937)">
        <g id="Grupo_157651-2" data-name="Grupo 157651" clip-path="url(#clip-path)">
          <path id="Trazado_130585" data-name="Trazado 130585" d="M.007,70.286l.695-.6c.441.361.669.01.991-.24a2.62,2.62,0,0,0,1.095-2.63A10.755,10.755,0,0,1,2.775,65.3a1.764,1.764,0,0,1,.536-1.29q2.775-2.78,5.555-5.554c.384-.384.555-.34.722.179a2.809,2.809,0,0,1-.733,2.989c-.616.638-1.253,1.255-1.879,1.884-.349.351-.347.359-.016.707a2.133,2.133,0,0,1,.013,3.1c-.117.124-.354.242-.222.445a1.509,1.509,0,0,0,.666.623c.116.047.2-.071.282-.151a3.33,3.33,0,0,0,.755-3.877c-.22-.486-.207-.53.16-.923A12.081,12.081,0,0,0,10.4,61.468c.109-.185.267-.192.424-.051.272.245.529.506.777.775a.325.325,0,0,1-.009.488c-.056.063-.12.12-.172.185-.136.17-.431.281-.373.523.069.29.361.453.58.647a.2.2,0,0,0,.271-.014c.045-.034.084-.075.126-.113.682-.621.977-.576,1.511.218a.309.309,0,0,1-.011.42c-.1.119-.212.225-.321.336-.375.379-.375.379.007.763.437.439.437.439.879,0,.478-.474.5-.474.971-.008.588.584.588.584,0,1.186-.316.325-.316.349,0,.677.089.09.18.178.27.267a.27.27,0,0,0,.438-.009c.058-.061.12-.119.18-.178.515-.509.538-.509,1.038-.012.08.08.161.158.238.24.3.32.3.423-.011.739q-2.292,2.306-4.6,4.6a1.407,1.407,0,0,1-.573.343c-.709.233-1.414.478-2.125.7a1.81,1.81,0,0,0-.778.483c-.4.414-.8.839-1.228,1.219-.322.284-.487.556-.212.95-.138.288-.445.432-.6.7-2.274,0-4.548,0-6.822.007-.234,0-.281-.048-.28-.281.011-2.33.007-4.66.007-6.99" transform="translate(0 -34.297)" fill="#feddce"/>
          <path id="Trazado_130586" data-name="Trazado 130586" d="M66.74.7l.6-.7c2.337,0,4.674,0,7.011-.005.211,0,.26.048.259.259C74.6,2.539,74.6,4.82,74.6,7.1c-.272.158-.415.466-.7.6-.4-.273-.659-.094-.953.215-.765.806-1.56,1.584-2.354,2.361a1.737,1.737,0,0,0-.5.86c-.032.137-.089.269-.11.407-.279,1.755-1.494,2.874-2.707,3.995a.408.408,0,0,1-.631,0c-.1-.1-.2-.2-.3-.3L59.716,8.62c-.4-.4-.4-.4-.8,0Q57.783,9.75,56.65,10.885a2.928,2.928,0,0,1-2.99.774c-.547-.143-.6-.348-.206-.74q2.637-2.646,5.279-5.287A1.024,1.024,0,0,1,59.52,5.3c.956.011,1.914-.007,2.87.009a1.041,1.041,0,0,0,.818-.344q1.629-1.654,3.283-3.283c.3-.29.616-.541.249-.984" transform="translate(-31.351 0)" fill="#feddce"/>
          <path id="Trazado_130587" data-name="Trazado 130587" d="M35.887,1.154c.4.479.4.479-.064.94-1.134,1.134-2.276,2.26-3.395,3.409a1.041,1.041,0,0,1-.847.34c-1-.02-2,0-3-.012a.7.7,0,0,0-.553.228Q25.309,8.8,22.571,11.518c-.23.228-.228.325.085.436a2.682,2.682,0,0,0,2.958-.611q1.26-1.216,2.474-2.479c.277-.29.425-.335.738-.017,2.311,2.344,4.652,4.658,6.966,7,.271.275.4.252.643-.011a14.446,14.446,0,0,0,1.886-1.977,11.746,11.746,0,0,0,.915-2.562,1.264,1.264,0,0,1,.327-.526c.861-.85,1.715-1.706,2.572-2.561.447-.446.447-.447.913-.052.475.578.475.579-.071,1.123-.738.735-1.473,1.472-2.216,2.2a1.364,1.364,0,0,0-.355.559,12.027,12.027,0,0,1-.921,2.562,12.158,12.158,0,0,1-1.865,1.941c-.556.561-.556.561-.011,1.106,1.8,1.8,3.6,3.608,5.409,5.4.235.232.2.333-.011.545Q34.192,32.386,25.4,41.2c-.252.253-.366.193-.579-.021-1.873-1.888-3.762-3.76-5.631-5.652-.239-.242-.354-.215-.577.011-1.6,1.623-3.219,3.228-4.825,4.846a1.243,1.243,0,0,1-.561.351c-.122.034-.239.083-.362.11a6.175,6.175,0,0,0-3.77,2.325c-.259.342-.465.311-.7-.01A.967.967,0,0,0,8.2,43c-.392-.47-.35-.436.043-.92A6.648,6.648,0,0,1,12.2,39.652a2.046,2.046,0,0,0,1.059-.637q2.2-2.244,4.443-4.454c.212-.21.2-.317,0-.52-.7-.687-.706-.705-1.377-.01-.213.22-.35.272-.552.006s-.616-.43-.6-.7c.014-.235.367-.47.6-.666.255-.211.238-.362-.009-.553s-.427-.62-.7-.6c-.237.02-.466.376-.661.614s-.338.234-.545,0a8.051,8.051,0,0,0-.744-.663c.313-.3.542-.552.8-.766.216-.177.181-.3-.012-.45-.261-.208-.445-.648-.738-.631-.245.014-.485.384-.7.623-.181.2-.306.221-.487,0-.207-.247-.6-.448-.629-.7-.036-.276.37-.491.608-.7.255-.222.214-.356-.014-.555-.285-.249-.539-.533-.839-.835a10.665,10.665,0,0,1-2.075,2.38.331.331,0,0,0-.073.462,3.44,3.44,0,0,1-.887,4.337c-.154.131-.222.093-.333-.027-.229-.248-.591-.45-.673-.736-.089-.31.366-.463.55-.714A2.054,2.054,0,0,0,7.39,30.43c-.419-.434-.419-.434.015-.868.656-.657,1.324-1.3,1.966-1.975a2.612,2.612,0,0,0,.371-3.242l-4.087,4.1c-.527.528-1.046,1.065-1.587,1.577a2.257,2.257,0,0,0-.733,1.77c.015.816-.005,1.632.009,2.449a.723.723,0,0,1-.247.589c-.389.367-.777.737-1.131,1.136-.228.256-.4.307-.6.006a.726.726,0,0,0-.161-.129c-.471-.567-.5-.606.092-1.11A1.786,1.786,0,0,0,2,33.014a11.045,11.045,0,0,1-.01-1.35A3.486,3.486,0,0,1,3.077,29.1c1.529-1.517,3.044-3.049,4.58-4.557.237-.232.207-.342-.009-.555-1.413-1.394-2.807-2.806-4.219-4.2-.214-.212-.276-.323-.022-.577q8.822-8.8,17.617-17.62c.239-.24.345-.193.553.017,1.483,1.5,2.979,2.992,4.514,4.529.451-.464.9-.91,1.327-1.375a.8.8,0,0,1,.657-.283c1.028.016,2.056,0,3.083.013a.789.789,0,0,0,.626-.263c1.058-1.073,2.139-2.122,3.182-3.208.3-.314.5-.359.76,0a.747.747,0,0,0,.162.129" transform="translate(-0.498 -0.453)"/>
          <path id="Trazado_130588" data-name="Trazado 130588" d="M40.156,93.691c-.058.07-.107.138-.165.2q-1.831,1.833-3.662,3.668c-.147.148-.242.187-.4.008-.228-.264-.642-.485-.68-.765-.036-.259.407-.488.642-.726,1.029-1.037,2.069-2.064,3.094-3.1.172-.175.281-.228.458-.012s.373.381.561.57c.049.049.093.1.149.165" transform="translate(-20.774 -54.696)"/>
          <path id="Trazado_130589" data-name="Trazado 130589" d="M49.743,98.615a2.088,2.088,0,0,1-.136.166c-.565.567-1.134,1.131-1.7,1.7-.122.124-.193.137-.336.011-.846-.748-.851-.743-.068-1.526.367-.368.74-.73,1.1-1.106.143-.149.244-.191.4-.011.182.213.394.4.592.6.049.049.093.1.147.165" transform="translate(-27.657 -57.594)" fill="#010101"/>
          <path id="Trazado_130590" data-name="Trazado 130590" d="M1.531,59.2c-.137-.151-.292-.332-.459-.5-.417-.423-.419-.421,0-.836.913-.913,1.831-1.82,2.734-2.742.181-.185.288-.2.458,0,.214.256.622.477.641.736s-.408.49-.643.728c-.8.809-1.6,1.609-2.41,2.412a.482.482,0,0,1-.317.205" transform="translate(-0.446 -32.395)"/>
          <path id="Trazado_130591" data-name="Trazado 130591" d="M1.59,50.7c-.1-.118-.2-.256-.314-.375-.57-.577-.573-.575.017-1.163l.03-.03c.819-.817.818-.816,1.55.08.064.078.147.14.044.243q-.58.58-1.161,1.158a.876.876,0,0,1-.166.087" transform="translate(-0.501 -28.599)" fill="#010101"/>
          <path id="Trazado_130592" data-name="Trazado 130592" d="M29.905,17.178a3.974,3.974,0,0,0,2.835-1.207c.55-.545,1.1-1.085,1.638-1.645.191-.2.3-.2.491,0q5.544,5.562,11.107,11.1c.247.245.186.345-.039.536Q40.5,30.584,35.074,35.215q-3.052,2.6-6.1,5.206c-.214.184-.323.2-.535-.01q-5.273-5.3-10.566-10.571a.717.717,0,0,1-.232-.549,4.184,4.184,0,0,0-1.49-3.1c-.114-.106-.2-.143-.308-.007a.615.615,0,0,1-.09.089c-.257.212-.447.662-.735.625-.269-.035-.5-.418-.734-.655-.947-.944-1.885-1.9-2.841-2.83-.2-.195-.189-.293,0-.484q7.889-7.874,15.761-15.764c.221-.222.324-.18.52.018q1.627,1.657,3.285,3.283c.221.217.237.326.005.554-1.435,1.411-2.849,2.844-4.28,4.258-.191.188-.205.285-.009.487a4.183,4.183,0,0,0,3.177,1.412" transform="translate(-6.658 -4.134)" fill="#fe8965"/>
          <path id="Trazado_130593" data-name="Trazado 130593" d="M57.784,71.531c-.125-.108-.2-.167-.267-.234-.4-.4-.786-.806-1.2-1.188-.2-.182-.182-.268.021-.439q3.349-2.835,6.682-5.688,5.058-4.31,10.126-8.608c.167-.141.323-.6.645-.271.344.348-.144.467-.293.616q-7.726,7.761-15.474,15.5a3.023,3.023,0,0,0-.24.312" transform="translate(-33.107 -32.405)" fill="#fe7043"/>
          <path id="Trazado_130594" data-name="Trazado 130594" d="M57.542,57.27c-.064.07-.119.134-.178.193q-3.624,3.628-7.247,7.257c-.148.149-.235.171-.4.007Q48.016,63,46.29,61.3c-.153-.152-.167-.238-.005-.4q3.634-3.618,7.252-7.251c.156-.156.246-.161.4,0,1.138,1.15,2.285,2.291,3.428,3.435.059.059.112.123.174.192" transform="translate(-27.208 -31.543)"/>
          <path id="Trazado_130595" data-name="Trazado 130595" d="M28.66,38.122c-.062.071-.112.136-.169.193Q26.3,40.505,24.116,42.7c-.172.173-.262.158-.429-.005-.754-.739-.76-.733-.011-1.482,1.261-1.261,2.527-2.518,3.779-3.788.2-.2.33-.249.524-.009a7.572,7.572,0,0,0,.531.54c.048.049.092.1.149.168" transform="translate(-13.624 -21.953)" fill="#fefefe"/>
          <path id="Trazado_130596" data-name="Trazado 130596" d="M33.738,45.1c-.077.086-.139.161-.207.23-.8.805-1.613,1.606-2.41,2.418-.159.162-.248.188-.428.013-.753-.733-.76-.726-.007-1.48.626-.625,1.26-1.244,1.873-1.882.2-.2.326-.254.52-.009.147.186.335.34.5.511.057.058.1.127.159.2" transform="translate(-17.752 -26.061)" fill="#fefefe"/>
          <path id="Trazado_130597" data-name="Trazado 130597" d="M52.688,65.679c-.122,0-.16-.084-.216-.139-.52-.515-1.033-1.037-1.559-1.546-.143-.139-.146-.219,0-.365q2.7-2.679,5.375-5.374c.142-.143.223-.149.367,0q.763.789,1.552,1.553c.146.141.143.228,0,.37q-2.693,2.681-5.377,5.372c-.049.049-.1.094-.142.131" transform="translate(-29.94 -34.265)" fill="#e1fb84"/>
        </g>
      </g>
    </g>
  </g>
</svg>
