<svg xmlns="http://www.w3.org/2000/svg" xmlns:xlink="http://www.w3.org/1999/xlink" width="207" height="170" viewBox="0 0 207 170">
  <defs>
    <clipPath id="clip-path">
      <rect id="Rect치ngulo_37649" data-name="Rect치ngulo 37649" width="105.214" height="96.532" fill="none"/>
    </clipPath>
  </defs>
  <g id="_82" data-name="82" transform="translate(-256 -10917)">
    <g id="Grupo_156377" data-name="Grupo 156377" transform="translate(255.949 10917)">
      <rect id="Rect치ngulo_36766" data-name="Rect치ngulo 36766" width="207" height="170" rx="12" transform="translate(0.051 -0.001)" fill="#0c487b"/>
    </g>
    <g id="Grupo_156647" data-name="Grupo 156647" transform="translate(318.278 10926.153)">
      <g id="Grupo_156582" data-name="Grupo 156582" transform="translate(-32.13 0.687)">
        <path id="Trazado_127053" data-name="Trazado 127053" d="M18.874,130.6c-1.152.257-1.419-.286-1.407-1.362.029-2.7-.016-2.744-2.807-2.727-1.038.006-1.361-.316-1.341-1.343.019-.957.194-1.4,1.3-1.4,2.8.01,2.87-.046,2.84-2.839-.013-1.264.607-1.287,1.544-1.3s1.422.147,1.422,1.269c0,2.829.057,2.88,2.821,2.869,1.069,0,1.322.381,1.324,1.374s-.25,1.373-1.32,1.367c-2.817-.016-2.884.037-2.823,2.705.029,1.239-.428,1.6-1.552,1.383" transform="translate(-13.318 -31.769)" fill="#29c4bb"/>
        <path id="Trazado_127054" data-name="Trazado 127054" d="M216.176,151.193c1.031-.2,1.6.144,1.432,1.311-.142.977.2,1.521,1.277,1.354s1.445.224,1.454,1.362c.009,1.193-.479,1.468-1.5,1.331-.971-.131-1.279.291-1.26,1.258.031,1.514-.907,2.1-2.371,1.636-.7-.217-.543-.772-.5-1.211.122-1.2-.151-1.929-1.564-1.69-1.093.186-1.16-.5-1.157-1.338s.035-1.517,1.145-1.346c1.195.184,1.761-.252,1.562-1.515-.189-1.206.584-1.259,1.476-1.153" transform="translate(-72.947 -37.404)" fill="#29c4bb"/>
        <path id="Trazado_127055" data-name="Trazado 127055" d="M215.738,71.78c.266,1.15-.26,1.544-1.338,1.362-1.168-.2-1.644.282-1.438,1.443.2,1.123-.286,1.392-1.374,1.4-1.123.01-1.545-.321-1.35-1.414.209-1.164-.277-1.643-1.432-1.426-1.2.225-1.3-.4-1.348-1.409-.053-1.183.406-1.491,1.436-1.311,1.12.2,1.537-.268,1.347-1.362-.182-1.046.156-1.47,1.321-1.428,1.028.037,1.621.182,1.4,1.36s.291,1.621,1.44,1.428c1.079-.181,1.6.205,1.336,1.355" transform="translate(-71.179 -24.093)" fill="#010000"/>
        <path id="Trazado_127056" data-name="Trazado 127056" d="M60.052,189.178c.252,1.073-.278,1.467-1.351,1.274-1.26-.228-1.558.428-1.377,1.489.2,1.18-.371,1.363-1.407,1.357-.991-.006-1.523-.23-1.315-1.3.273-1.4-.428-1.746-1.636-1.54-1.239.211-1.181-.571-1.186-1.42,0-.822.018-1.52,1.137-1.3,1.506.3,1.891-.425,1.687-1.773-.195-1.29.788-.919,1.445-.958.7-.042,1.47-.131,1.267.988-.25,1.384.235,2.025,1.7,1.744,1.222-.235,1.073.618,1.037,1.436" transform="translate(-24.861 -42.86)" fill="#010000"/>
        <path id="Trazado_127057" data-name="Trazado 127057" d="M121.826,19.9c-.288-1.225.389-1.463,1.391-1.315,1.042.155,1.451-.276,1.293-1.3s.146-1.492,1.326-1.467c1.084.022,1.58.3,1.392,1.416-.193,1.142.334,1.513,1.4,1.352.992-.148,1.489.089,1.494,1.3.006,1.241-.462,1.574-1.543,1.4-1.143-.182-1.53.338-1.353,1.4.2,1.2-.444,1.334-1.45,1.355-1.076.022-1.427-.382-1.269-1.37.173-1.082-.227-1.577-1.357-1.388-1.1.184-1.574-.269-1.327-1.389" transform="translate(-45.862 -15.817)" fill="#29c4bb"/>
      </g>
    </g>
    <g id="Grupo_157661" data-name="Grupo 157661" transform="translate(304.186 10953.733)">
      <g id="Grupo_157661-2" data-name="Grupo 157661" clip-path="url(#clip-path)">
        <path id="Trazado_130630" data-name="Trazado 130630" d="M105.214,82.85a3.021,3.021,0,0,1-2.977,1.511q-49.58-.037-99.159.006A3.065,3.065,0,0,1,0,82.85V24.485a2.95,2.95,0,0,1,2.874-1.512q49.683.039,99.365-.005a3.022,3.022,0,0,1,2.975,1.517ZM4.568,79.858h96.1V27.489H4.568Z" transform="translate(0 -5.404)"/>
        <path id="Trazado_130631" data-name="Trazado 130631" d="M42.174,8.806h5.738q18.178,0,36.356.009a4.066,4.066,0,0,1,1.5.239,2.123,2.123,0,0,1,1.207,2.282,2.16,2.16,0,0,1-1.845,1.8,6.743,6.743,0,0,1-.922.045q-23.517,0-47.035-.012c-.24,0-.48,0-.719-.015a2.036,2.036,0,0,1-1.9-1.329,1.988,1.988,0,0,1,.4-2.284c2.961-2.993,5.927-5.982,8.934-8.93A2.093,2.093,0,0,1,46.926.7a2.152,2.152,0,0,1-.011,3.053c-1.248,1.316-2.549,2.582-3.846,3.851a13.18,13.18,0,0,1-1.112.885l.216.315" transform="translate(-8.084 0)"/>
        <path id="Trazado_130632" data-name="Trazado 130632" d="M79.462,113.36H37.285c-.239,0-.479.008-.719-.005A2.2,2.2,0,0,1,34.4,111.2a2.112,2.112,0,0,1,2.11-2.189c1.744-.06,3.49-.043,5.235-.041q20.327.019,40.654.056a22.37,22.37,0,0,1,2.964.222,1.835,1.835,0,0,1,1.29,2.982,16.144,16.144,0,0,1-1.815,2.086c-2.317,2.329-4.66,4.633-6.991,6.948-.609.606-1.347,1.15-2.177.8A3.64,3.64,0,0,1,74,120.6a1.923,1.923,0,0,1,.583-2.32l4.88-4.918" transform="translate(-8.094 -25.638)"/>
        <path id="Trazado_130633" data-name="Trazado 130633" d="M5.974,28.88h96.1V81.249H5.974Zm48.148,4.181v-.011h-34.3c-2.265,0-2.926.584-3.2,2.811a4.232,4.232,0,0,1-3.863,3.755c-1.939.165-2.7.927-2.7,2.868q-.015,12.583.02,25.165c.005,1.948.754,2.708,2.7,2.866a4.205,4.205,0,0,1,3.8,3.582c.307,2.455.9,2.985,3.353,2.984l68.2-.015c2.386,0,2.987-.535,3.3-2.927a4.243,4.243,0,0,1,3.761-3.635c2.088-.2,2.751-.909,2.755-3.021.007-3.492-.012-6.985-.015-10.477,0-4.862.01-9.724-.008-14.586-.007-1.876-.75-2.66-2.537-2.793A4.2,4.2,0,0,1,91.4,35.772c-.252-2.1-.944-2.709-3.076-2.709q-17.1,0-34.2,0" transform="translate(-1.406 -6.795)" fill="#0d7300"/>
        <path id="Trazado_130634" data-name="Trazado 130634" d="M55.374,34.344q17.1,0,34.2,0c2.133,0,2.826.613,3.077,2.71a4.2,4.2,0,0,0,3.976,3.857c1.787.134,2.53.918,2.537,2.793.018,4.862,0,9.724.008,14.586,0,3.492.021,6.984.015,10.477,0,2.111-.667,2.821-2.755,3.021a4.242,4.242,0,0,0-3.76,3.635c-.314,2.392-.915,2.927-3.3,2.927l-68.2.014c-2.454,0-3.047-.528-3.353-2.984a4.205,4.205,0,0,0-3.8-3.582c-1.945-.158-2.695-.918-2.7-2.866Q11.291,56.35,11.3,43.767c0-1.942.763-2.7,2.7-2.868a4.234,4.234,0,0,0,3.864-3.755c.275-2.227.937-2.81,3.2-2.81q17.152,0,34.3,0Zm-.036,4.617A17.389,17.389,0,1,0,72.645,55.646,17.336,17.336,0,0,0,55.338,38.96M68.746,73.8h9.026c3.32,0,6.639.01,9.958-.019a.985.985,0,0,0,.77-.433,9.072,9.072,0,0,1,6.122-5.829V45.155a8.729,8.729,0,0,1-5.9-5.36,1.223,1.223,0,0,0-1.407-.931c-5.852.031-11.7.017-17.555.019-.289,0-.578.025-.962.044A22.27,22.27,0,0,1,68.746,73.8M15.9,45.152a3.625,3.625,0,0,0-.051.388c0,7.087.021,14.173,0,21.26,0,.639.3.8.785.977a8.438,8.438,0,0,1,5.192,5.059,1.235,1.235,0,0,0,1.389.959c5.853-.028,11.707,0,17.561,0,.288,0,.576-.026.964-.044-11.01-8.7-11.4-25.841-.113-34.765-.018-.024-.037-.07-.055-.07-6.3-.015-12.6-.032-18.893-.013a.969.969,0,0,0-.686.544,9.075,9.075,0,0,1-6.088,5.7" transform="translate(-2.658 -8.078)"/>
        <path id="Trazado_130635" data-name="Trazado 130635" d="M63.517,40.384A17.388,17.388,0,1,1,46.069,58.566,17.374,17.374,0,0,1,63.517,40.384m2.225,10.887v.008c1.438,0,2.875.019,4.313-.005a2.308,2.308,0,0,0,2.29-2.068,2.238,2.238,0,0,0-1.895-2.419,18.928,18.928,0,0,0-2.758-.132c-1.861-.018-1.861-.005-1.924-1.807a3.679,3.679,0,0,0-.034-.512A2.384,2.384,0,0,0,63.387,42.3a2.314,2.314,0,0,0-2.244,2.132,6.751,6.751,0,0,0-.018,1.333c.051.628-.183.915-.823,1.033A6.669,6.669,0,0,0,54.56,53.88,6.829,6.829,0,0,0,61.6,60.107c1.37,0,2.739-.034,4.107,0a2.033,2.033,0,0,1,.459,4,4.542,4.542,0,0,1-1.212.144c-2.7.009-5.408-.014-8.112,0a2.3,2.3,0,0,0-2.3,2.059,2.238,2.238,0,0,0,1.884,2.425,17.644,17.644,0,0,0,2.656.134c1.944.018,1.944.005,2.038,1.9,0,.1,0,.206.016.307a2.4,2.4,0,0,0,2.354,2.149,2.363,2.363,0,0,0,2.252-2.138,6.635,6.635,0,0,0,.019-1.333c-.051-.631.19-.911.829-1.026a6.685,6.685,0,0,0,5.735-7.094,6.815,6.815,0,0,0-6.942-6.215c-1.233,0-2.465.016-3.7.013-1.585,0-2.5-.778-2.487-2.081.016-1.259.989-2.068,2.536-2.082,1.335-.012,2.67,0,4,0" transform="translate(-10.836 -9.502)" fill="#0dd200"/>
        <path id="Trazado_130636" data-name="Trazado 130636" d="M86.422,75.2a22.27,22.27,0,0,0,.055-34.875c.384-.018.673-.043.962-.044,5.852,0,11.7.012,17.555-.018a1.223,1.223,0,0,1,1.407.931,8.728,8.728,0,0,0,5.9,5.36V68.914a9.073,9.073,0,0,0-6.122,5.829.985.985,0,0,1-.77.433c-3.319.029-6.638.019-9.958.019H86.422m19.429-17.442a2.225,2.225,0,1,0-2.216,2.241,2.26,2.26,0,0,0,2.216-2.241" transform="translate(-20.334 -9.472)" fill="#0dac00"/>
        <path id="Trazado_130637" data-name="Trazado 130637" d="M17.3,46.557a9.071,9.071,0,0,0,6.088-5.7.972.972,0,0,1,.687-.544c6.3-.018,12.595,0,18.892.013.018,0,.037.046.055.07-11.284,8.923-10.9,26.062.113,34.765-.387.018-.675.044-.964.044-5.854-.006-11.707-.031-17.561,0a1.235,1.235,0,0,1-1.389-.959,8.437,8.437,0,0,0-5.191-5.06c-.483-.178-.787-.339-.785-.977.024-7.086.008-14.173,0-21.26a3.6,3.6,0,0,1,.05-.388m6.434,11.217a2.324,2.324,0,0,0,2.306,2.26,2.284,2.284,0,0,0,2.231-2.221,2.269,2.269,0,1,0-4.538-.039" transform="translate(-4.058 -9.483)" fill="#0dac00"/>
        <path id="Trazado_130638" data-name="Trazado 130638" d="M68.349,51.86c-1.335,0-2.67-.01-4,0-1.547.015-2.52.823-2.536,2.082-.016,1.3.9,2.077,2.487,2.081,1.232,0,2.464-.017,3.7-.013a6.815,6.815,0,0,1,6.942,6.215A6.685,6.685,0,0,1,69.2,69.322c-.639.115-.88.4-.829,1.026a6.635,6.635,0,0,1-.019,1.333A2.363,2.363,0,0,1,66.1,73.819a2.4,2.4,0,0,1-2.354-2.149c-.013-.1-.011-.2-.016-.307-.094-1.893-.094-1.881-2.038-1.9a17.645,17.645,0,0,1-2.656-.134,2.238,2.238,0,0,1-1.884-2.425,2.3,2.3,0,0,1,2.3-2.059c2.7-.018,5.408.005,8.112,0a4.542,4.542,0,0,0,1.212-.144,2.033,2.033,0,0,0-.459-4c-1.368-.034-2.738,0-4.107,0a6.829,6.829,0,0,1-7.038-6.227,6.669,6.669,0,0,1,5.742-7.084c.64-.118.874-.405.823-1.033a6.751,6.751,0,0,1,.018-1.333A2.314,2.314,0,0,1,66,42.888a2.384,2.384,0,0,1,2.345,2.038,3.679,3.679,0,0,1,.034.512c.063,1.8.063,1.789,1.924,1.807a18.928,18.928,0,0,1,2.758.132A2.238,2.238,0,0,1,74.952,49.8a2.308,2.308,0,0,1-2.29,2.068c-1.438.024-2.875.005-4.313.005V51.86" transform="translate(-13.444 -10.091)"/>
        <path id="Trazado_130639" data-name="Trazado 130639" d="M110.46,62.436a2.224,2.224,0,1,1-2.175-2.279,2.266,2.266,0,0,1,2.175,2.279" transform="translate(-24.944 -14.154)"/>
        <path id="Trazado_130640" data-name="Trazado 130640" d="M25.73,62.444a2.269,2.269,0,1,1,4.538.039A2.284,2.284,0,0,1,28.036,64.7a2.324,2.324,0,0,1-2.306-2.26" transform="translate(-6.054 -14.153)"/>
      </g>
    </g>
  </g>
</svg>
