<svg xmlns="http://www.w3.org/2000/svg" xmlns:xlink="http://www.w3.org/1999/xlink" width="207" height="170" viewBox="0 0 207 170">
  <defs>
    <clipPath id="clip-path">
      <rect id="Rect치ngulo_37653" data-name="Rect치ngulo 37653" width="107.205" height="107.205" fill="none"/>
    </clipPath>
  </defs>
  <g id="_86" data-name="86" transform="translate(-256 -10917)">
    <g id="Grupo_156377" data-name="Grupo 156377" transform="translate(255.949 10917)">
      <rect id="Rect치ngulo_36766" data-name="Rect치ngulo 36766" width="207" height="170" rx="12" transform="translate(0.051 -0.001)" fill="#0c487b"/>
    </g>
    <g id="Grupo_156647" data-name="Grupo 156647" transform="translate(318.278 10926.153)">
      <g id="Grupo_156582" data-name="Grupo 156582" transform="translate(-32.13 0.687)">
        <path id="Trazado_127053" data-name="Trazado 127053" d="M18.874,130.6c-1.152.257-1.419-.286-1.407-1.362.029-2.7-.016-2.744-2.807-2.727-1.038.006-1.361-.316-1.341-1.343.019-.957.194-1.4,1.3-1.4,2.8.01,2.87-.046,2.84-2.839-.013-1.264.607-1.287,1.544-1.3s1.422.147,1.422,1.269c0,2.829.057,2.88,2.821,2.869,1.069,0,1.322.381,1.324,1.374s-.25,1.373-1.32,1.367c-2.817-.016-2.884.037-2.823,2.705.029,1.239-.428,1.6-1.552,1.383" transform="translate(-13.318 -31.769)" fill="#29c4bb"/>
        <path id="Trazado_127054" data-name="Trazado 127054" d="M216.176,151.193c1.031-.2,1.6.144,1.432,1.311-.142.977.2,1.521,1.277,1.354s1.445.224,1.454,1.362c.009,1.193-.479,1.468-1.5,1.331-.971-.131-1.279.291-1.26,1.258.031,1.514-.907,2.1-2.371,1.636-.7-.217-.543-.772-.5-1.211.122-1.2-.151-1.929-1.564-1.69-1.093.186-1.16-.5-1.157-1.338s.035-1.517,1.145-1.346c1.195.184,1.761-.252,1.562-1.515-.189-1.206.584-1.259,1.476-1.153" transform="translate(-72.947 -37.404)" fill="#29c4bb"/>
        <path id="Trazado_127055" data-name="Trazado 127055" d="M215.738,71.78c.266,1.15-.26,1.544-1.338,1.362-1.168-.2-1.644.282-1.438,1.443.2,1.123-.286,1.392-1.374,1.4-1.123.01-1.545-.321-1.35-1.414.209-1.164-.277-1.643-1.432-1.426-1.2.225-1.3-.4-1.348-1.409-.053-1.183.406-1.491,1.436-1.311,1.12.2,1.537-.268,1.347-1.362-.182-1.046.156-1.47,1.321-1.428,1.028.037,1.621.182,1.4,1.36s.291,1.621,1.44,1.428c1.079-.181,1.6.205,1.336,1.355" transform="translate(-71.179 -24.093)" fill="#010000"/>
        <path id="Trazado_127056" data-name="Trazado 127056" d="M60.052,189.178c.252,1.073-.278,1.467-1.351,1.274-1.26-.228-1.558.428-1.377,1.489.2,1.18-.371,1.363-1.407,1.357-.991-.006-1.523-.23-1.315-1.3.273-1.4-.428-1.746-1.636-1.54-1.239.211-1.181-.571-1.186-1.42,0-.822.018-1.52,1.137-1.3,1.506.3,1.891-.425,1.687-1.773-.195-1.29.788-.919,1.445-.958.7-.042,1.47-.131,1.267.988-.25,1.384.235,2.025,1.7,1.744,1.222-.235,1.073.618,1.037,1.436" transform="translate(-24.861 -42.86)" fill="#010000"/>
        <path id="Trazado_127057" data-name="Trazado 127057" d="M121.826,19.9c-.288-1.225.389-1.463,1.391-1.315,1.042.155,1.451-.276,1.293-1.3s.146-1.492,1.326-1.467c1.084.022,1.58.3,1.392,1.416-.193,1.142.334,1.513,1.4,1.352.992-.148,1.489.089,1.494,1.3.006,1.241-.462,1.574-1.543,1.4-1.143-.182-1.53.338-1.353,1.4.2,1.2-.444,1.334-1.45,1.355-1.076.022-1.427-.382-1.269-1.37.173-1.082-.227-1.577-1.357-1.388-1.1.184-1.574-.269-1.327-1.389" transform="translate(-45.862 -15.817)" fill="#29c4bb"/>
      </g>
    </g>
    <g id="Grupo_157665" data-name="Grupo 157665" transform="translate(306 10947.999)">
      <g id="Grupo_157665-2" data-name="Grupo 157665" clip-path="url(#clip-path)">
        <path id="Trazado_130751" data-name="Trazado 130751" d="M52.974,0H60.3c1.506.221,3.04.137,4.541.429A53.887,53.887,0,0,1,70.526,1.8c1.416.439,2.9.183,4.354.391A26.829,26.829,0,0,1,88.533,8.27a15.274,15.274,0,0,1,2.233,2.041,2.121,2.121,0,0,1,.063,2.85c-1.15.727-1.845.681-2.958-.41a23.562,23.562,0,0,0-4.365-3.566c-4.377-2.608-9.03-4.07-14.179-3.223a12.013,12.013,0,0,0-9.475,7.133,9.22,9.22,0,0,1,5.977-.409c3.278.878,6.975,4.427,6.727,8.683-.172,2.956-.077,5.93-.025,8.9A38.174,38.174,0,0,0,82.4,55.744,39.082,39.082,0,0,0,98.7,66.555a.682.682,0,0,0,.1.033c.494.12,1.1.565,1.465.122.4-.489-.241-.932-.507-1.336a32.337,32.337,0,0,1-5.368-14.914c-.042-.453-.034-.906-.034-1.36,0-6.246-.012-12.492,0-18.738A26.4,26.4,0,0,0,91.772,18.1a1.836,1.836,0,1,1,3.207-1.69A23.745,23.745,0,0,1,97.634,24.3a49.279,49.279,0,0,1,.439,8.652c-.013,1.331.016,1.322,1.312,1.712a11.3,11.3,0,0,1,7.394,6.87,22.536,22.536,0,0,1,.426,2.441v3.35a10.543,10.543,0,0,1-6.9,8.7c-.726.3-.816.654-.557,1.359a31.474,31.474,0,0,0,3.665,6.791,3.85,3.85,0,0,1,.366,4.412,3.518,3.518,0,0,1-3.177,2.033c-.866-.018-1,.347-.817,1.093a23.646,23.646,0,0,0,1.883,4.974c1.778,3.5.664,6.8-2.8,8.624a89.178,89.178,0,0,1-19.836,7.7c-.742.185-.987.446-.686,1.223,1.434,3.7,1.377,7.575,1.278,11.452a1.55,1.55,0,0,1-1.312,1.524H35.176a1.975,1.975,0,0,1-1.3-2.049,30.647,30.647,0,0,1,1.32-10.7c.382-1.109.383-1.107-.729-1.425-.8-.228-1.623-.4-2.409-.678-.918-.319-1.723-.8-1.684-1.965.51-1.5,1.138-1.881,2.675-1.57,1.128.228,2.221.6,3.339.879a1.153,1.153,0,0,0,1.425-.524A22.291,22.291,0,0,1,41.731,84.7c.679-.6.367-.746-.25-1A42.422,42.422,0,0,1,30.56,77.192,39.841,39.841,0,0,1,20.423,64.683a6.172,6.172,0,0,0-.553-1.007,1.232,1.232,0,0,0-1.344-.328c-.509.106-.447.557-.456.933-.042,1.637,0,3.268-.176,4.909a24.485,24.485,0,0,1-2.419,8.5c-.157.312-.322.62-.463.939a2.287,2.287,0,0,0,1.108,3.25,82.737,82.737,0,0,0,10.165,4.666c1.433.554,1.876,1.272,1.608,2.6a1.865,1.865,0,0,1-2.536.97A73.827,73.827,0,0,1,13.964,84.91a5.65,5.65,0,0,1-2.3-7.683,26.133,26.133,0,0,0,2.728-13.354c-.03-.766-.4-.993-1.046-1.16A17.763,17.763,0,0,1,1.991,54.149,15.891,15.891,0,0,1,0,47.949V43.133a15.607,15.607,0,0,1,3.377-8.29A17.71,17.71,0,0,1,13.536,28.26a1.949,1.949,0,0,0,1.483-1.269A44.832,44.832,0,0,1,34.067,5.808,44.381,44.381,0,0,1,49.881.293C50.908.14,51.955.219,52.974,0"/>
        <path id="Trazado_130752" data-name="Trazado 130752" d="M100.6,70.773c1.325.956,2.637,1.933,3.984,2.857.381.262.393.416.167.8-4.077,6.914-13.125,13.672-20.989,15.6a31.213,31.213,0,0,0,.23-6.117A6.33,6.33,0,0,0,77.323,77.2c-2.929-.031-5.859.02-8.788-.016a7.35,7.35,0,0,0-4.3,1.355c-.289.11-.468-.073-.619-.262a32.574,32.574,0,0,1-5.041-8.591,5.264,5.264,0,0,1,.4-1.391,4.889,4.889,0,0,0-1.187-4.918c-.354-.365-.816-.676-.832-1.27.731-1.475.47-3.051.416-4.592-.034-.953-.846-1.166-1.6-1.362-.654-.207-.635-.762-.643-1.285a40.816,40.816,0,0,1,1.636-12.173,38.415,38.415,0,0,1,6.169-12.375,2.562,2.562,0,0,1,1.06-.977,43.44,43.44,0,0,1,13.094-.774,50.82,50.82,0,0,1,7.306,1.22c.74.167.972.472.977,1.25.023,3.658-.168,7.319.15,10.976a41.621,41.621,0,0,0,3.424,13.275c.226.511.425.9-.163,1.321a1.246,1.246,0,0,0-.329,1.063c.01.941.035,1.884-.008,2.823a2.082,2.082,0,0,0,.691,1.668c.1.349-.188.494-.374.679-3.388,3.4-1.721,7.408,1.78,9.023a8.9,8.9,0,0,0,9.038-.652c.314-.2.586-.515,1.021-.441" transform="translate(-16.251 -8.373)" fill="#fed3bc"/>
        <path id="Trazado_130753" data-name="Trazado 130753" d="M115.479,15.28q.919,1.251,1.838,2.5a1.718,1.718,0,0,0-.506,2.467,24.173,24.173,0,0,1,2.6,11.5c-.016,5.894.056,11.788-.019,17.682a31.6,31.6,0,0,0,5.575,18.3c.3.449,1.028.894.561,1.525-.5.671-1.183.127-1.718-.067Q101.9,61.238,97.524,38.339a44.971,44.971,0,0,1-.483-8.863c.02-1.953-.111-3.914.028-5.857.311-4.378-3.7-7.958-7.371-8.6a9.383,9.383,0,0,0-5.552.856,11.952,11.952,0,0,1,4.636-5.891c3.911-2.542,8.179-2.751,12.572-1.738a22.872,22.872,0,0,1,11.557,6.566c.766.8,1.552,1.175,2.567.471" transform="translate(-24.809 -2.263)" fill="#c67464"/>
        <path id="Trazado_130754" data-name="Trazado 130754" d="M25.564,55.145c-.082,4.33-.082,8.652,1.248,12.846,3.345,10.546,10.257,17.676,20.615,21.49,1.714.631,2.433.144,2.677-1.691a3.119,3.119,0,0,1,2.948-2.766q4.917-.084,9.837-.007a2.977,2.977,0,0,1,2.933,2.632,23.859,23.859,0,0,1-.016,5.739,3.08,3.08,0,0,1-2.795,2.565A37.713,37.713,0,0,1,25.342,77.227c-.58-1.03-1.123-2.086-1.611-3.162a1.918,1.918,0,0,0-1.955-1.25,24.894,24.894,0,0,1-6.755-.506A14.362,14.362,0,0,1,4.467,57.642,14.549,14.549,0,0,1,16.444,44.407a22.7,22.7,0,0,1,5.008-.171,4.573,4.573,0,0,1,4.111,4.629c0,.07,0,.14,0,.209v6.07" transform="translate(-1.312 -13.025)" fill="#53a2eb"/>
        <path id="Trazado_130755" data-name="Trazado 130755" d="M72.023,5.172a17.608,17.608,0,0,0-5.277,4.146,15.408,15.408,0,0,0-3.568,7.892c-.115.849-.457,1.048-1.258,1.081a45.3,45.3,0,0,0-15.048,3.22,14.912,14.912,0,0,0-7.834,7.214,13.307,13.307,0,0,1-3.921,4.694c-.475.35-.729.449-1.1-.185a7.492,7.492,0,0,0-6.931-3.887c-1.17.011-1.193-.016-.681-1.1A40.836,40.836,0,0,1,44.554,9.479,41.757,41.757,0,0,1,66.4,4.492a30.358,30.358,0,0,1,5.621.68" transform="translate(-7.689 -1.314)" fill="#ab6757"/>
        <path id="Trazado_130756" data-name="Trazado 130756" d="M36.654,116.524c-.831-.748-1.967-.744-2.923-1.185.164-1.233-.119-1.69-1.393-2.18a92.521,92.521,0,0,1-10.076-4.572c-1.855-.982-2.292-2.194-1.32-4.022a27.284,27.284,0,0,0,2.891-13.853c-.013-.465-.433-1.253.379-1.4s1.594-.218,2.142.868a40.345,40.345,0,0,0,21.869,19.829c.222.088.482.1.625.393a22.943,22.943,0,0,0-5.045,5.658c-.262.422-.523.434-.946.314-1.272-.36-2.556-.68-3.837-1.007s-1.878-.038-2.368,1.161" transform="translate(-6.026 -26.306)" fill="#ab6757"/>
        <path id="Trazado_130757" data-name="Trazado 130757" d="M59.186,29.734a39.537,39.537,0,0,0-7.612,16.019,42.09,42.09,0,0,0-.975,9.788c.007.364,0,.712.47.789-1.071.924-1.077,2.156-1.019,3.421a2.788,2.788,0,0,1-.183,1.534c-.393.386-.855.193-1.279.116A8.653,8.653,0,0,0,41.043,63.4c-.228.2-.47.439-.824.236a23.752,23.752,0,0,1-1.342-7.369c-.058-3.661-.011-7.323-.053-10.984a1.146,1.146,0,0,1,.716-1.119,13.4,13.4,0,0,0,5.428-5.52,14.361,14.361,0,0,1,9.968-7.876,40.321,40.321,0,0,1,4.25-1.03" transform="translate(-11.447 -8.767)" fill="#febe9c"/>
        <path id="Trazado_130758" data-name="Trazado 130758" d="M100.257,112.14a43.247,43.247,0,0,0,8.028-3.943,40.406,40.406,0,0,0,12.256-12.1c.4-.614.695-.817,1.381-.388a8.973,8.973,0,0,0,2.268,1.053,1.844,1.844,0,0,1,1.46,1.824,23.079,23.079,0,0,0,2.52,7.808c.934,1.813.559,3.027-1.218,3.981a87.776,87.776,0,0,1-20.328,7.776,1.1,1.1,0,0,1-1.433-.568,22.125,22.125,0,0,0-4.934-5.44" transform="translate(-29.559 -28.15)" fill="#ab6757"/>
        <path id="Trazado_130759" data-name="Trazado 130759" d="M82.814,128.867c4.361,1.611,9.181-.518,10.46-6a14.222,14.222,0,0,1,3.115,3.056,20,20,0,0,1,4.28,13.741c-.017.4-.039.646-.548.635-1.359-.031-2.719-.034-4.078,0-.565.014-.6-.267-.6-.706q.022-2.562,0-5.124c-.009-1.219-.608-1.93-1.573-1.915s-1.549.726-1.56,1.955c-.015,1.673-.027,3.347.008,5.019.012.57-.113.783-.735.775-2.683-.035-5.368-.016-8.052-.013-.385,0-.739.076-.735-.546.025-3.616.012-7.233.012-10.879" transform="translate(-24.413 -36.226)" fill="#acd7fe"/>
        <path id="Trazado_130760" data-name="Trazado 130760" d="M40.8,76.684a14.586,14.586,0,0,1,3.3-2.1,10.438,10.438,0,0,1,6.214-.212,2.541,2.541,0,0,0,2.5,1.206c.372.407.749.81,1.116,1.221a5.147,5.147,0,0,1,.963,5.4c-.107.326-.25.64-.376.96A6.068,6.068,0,0,1,51.4,85.908a9.717,9.717,0,0,1-4.848.833A26.873,26.873,0,0,1,40.8,76.684" transform="translate(-12.03 -21.818)" fill="#fe8d9d"/>
        <path id="Trazado_130761" data-name="Trazado 130761" d="M66.04,129.422A7.655,7.655,0,0,0,74,130.707v1.168c0,3.168-.015,6.337.013,9.5.006.608-.1.845-.785.834-2.68-.043-5.361-.035-8.042,0-.6.006-.767-.183-.755-.767.035-1.671-.008-3.342.021-5.013a2.125,2.125,0,0,0-.7-1.766.835.835,0,0,1-.168-.784,15.224,15.224,0,0,1,1.781-4.213c.142-.237.346-.464.679-.245" transform="translate(-18.736 -38.132)" fill="#acd7fe"/>
        <path id="Trazado_130762" data-name="Trazado 130762" d="M113.784,84.19a9.214,9.214,0,0,1-11.385.621,5.431,5.431,0,0,1-.386-8.956c.106-.087.2-.184.306-.276,1.509.432,2.094.076,2.564-1.674a44.969,44.969,0,0,0,8.9,10.284" transform="translate(-29.436 -21.79)" fill="#fe8d9d"/>
        <path id="Trazado_130763" data-name="Trazado 130763" d="M62.914,127.54c-.593.121-.616.693-.83,1.093a11.15,11.15,0,0,0-1.463,4.148c-1.568-.468-2.426.145-2.444,1.778-.018,1.673-.03,3.347.009,5.019.014.606-.187.765-.767.747-1.254-.039-2.51-.025-3.764,0-.455.008-.68-.069-.7-.613a20.046,20.046,0,0,1,6.663-16.254c.181-.164.374-.314.57-.46.046-.034.126-.023.27-.044a8.474,8.474,0,0,0,2.452,4.59" transform="translate(-15.611 -36.25)" fill="#87c4fc"/>
        <path id="Trazado_130764" data-name="Trazado 130764" d="M139.134,68.888a28.369,28.369,0,0,1-.549-6.67c.006-2.613.018-5.227-.011-7.84-.006-.6.116-.8.748-.63a8.031,8.031,0,0,1,5.6,7.42,7.876,7.876,0,0,1-5.376,7.655,3.293,3.293,0,0,1-.408.066" transform="translate(-40.856 -15.83)" fill="#febe9c"/>
        <path id="Trazado_130765" data-name="Trazado 130765" d="M48.958,90.571a16.473,16.473,0,0,1,3.032-.48,9.665,9.665,0,0,0,4.933-3.1,41.766,41.766,0,0,0,5.055,8.4,4.686,4.686,0,0,0,.439.421,6.233,6.233,0,0,0-1.637,2.122c-.283.869-.705.662-1.289.408a29.283,29.283,0,0,1-8.323-5.435,16.542,16.542,0,0,1-2.211-2.336" transform="translate(-14.435 -25.647)" fill="#febe9c"/>
        <path id="Trazado_130766" data-name="Trazado 130766" d="M75.256,123.388c.326,1.12-.355,1.608-1.2,2a4.4,4.4,0,0,1-6.067-3.5c-.057-.635.1-.74.735-.594a25.059,25.059,0,0,0,5.252.706c1.018.015,1.657.205,1.281,1.385" transform="translate(-20.042 -35.745)" fill="#87c4fb"/>
        <path id="Trazado_130767" data-name="Trazado 130767" d="M82.846,123.37c-.311-1.108.2-1.364,1.226-1.365a27.705,27.705,0,0,0,5.478-.716c.542-.111.585.066.549.508a4.429,4.429,0,0,1-5.825,3.713c-.948-.373-1.817-.86-1.429-2.139" transform="translate(-24.398 -35.751)" fill="#87c4fb"/>
        <path id="Trazado_130768" data-name="Trazado 130768" d="M93.147,24.776a55.036,55.036,0,0,0-7.774-1.213c2.086-1.986,5.878-1.427,7.774,1.213" transform="translate(-25.171 -6.596)" fill="#aa6656"/>
        <path id="Trazado_130769" data-name="Trazado 130769" d="M78.022,77.146a7.419,7.419,0,0,1-5.375-2.322,1.6,1.6,0,0,1-.138-2.4,1.559,1.559,0,0,1,2.314.141q3.209,2.92,6.475-.012a1.573,1.573,0,1,1,2.231,2.2,7.432,7.432,0,0,1-5.507,2.387" transform="translate(-21.238 -21.222)"/>
        <path id="Trazado_130770" data-name="Trazado 130770" d="M56.792,73.646c-1.414.456-1.98.183-2.5-1.206.011-.97.068-1.943.019-2.91a1.86,1.86,0,0,1,1.319-2.079c1.453.216,1.827.647,1.834,2.12,0,.766-.03,1.533.009,2.3a2.177,2.177,0,0,1-.681,1.778" transform="translate(-16.007 -19.887)" fill="#010101"/>
        <path id="Trazado_130771" data-name="Trazado 130771" d="M90.447,139.765a1.521,1.521,0,0,1-1.647,1.5,1.564,1.564,0,0,1-1.476-1.585,1.617,1.617,0,0,1,1.561-1.531,1.578,1.578,0,0,1,1.562,1.616" transform="translate(-25.746 -40.731)" fill="#020303"/>
      </g>
    </g>
  </g>
</svg>
