<svg xmlns="http://www.w3.org/2000/svg" xmlns:xlink="http://www.w3.org/1999/xlink" width="99" height="99" viewBox="0 0 99 99">
  <defs>
    <clipPath id="clip-path">
      <rect id="Rectángulo_37654" data-name="Rectángulo 37654" width="60.116" height="60.125" fill="none"/>
    </clipPath>
  </defs>
  <g id="_87" data-name="87" transform="translate(-1171 -5097)">
    <circle id="Elipse_4760" data-name="Elipse 4760" cx="49.5" cy="49.5" r="49.5" transform="translate(1171 5097)" fill="#1169e3"/>
    <g id="Grupo_156593" data-name="Grupo 156593" transform="translate(833.421 454)">
      <path id="Trazado_127053" data-name="Trazado 127053" d="M15.507,123.96c-.454.1-.559-.113-.555-.537.012-1.063-.007-1.081-1.106-1.075-.409,0-.536-.124-.528-.529.007-.377.077-.553.512-.551,1.1,0,1.131-.018,1.119-1.119-.005-.5.239-.507.608-.511s.56.058.56.5c0,1.115.023,1.135,1.112,1.131.421,0,.521.15.522.541s-.1.541-.52.539c-1.11-.006-1.137.014-1.112,1.066.012.488-.169.631-.611.545" transform="translate(339.683 4578.363)" fill="#29c4bb"/>
      <path id="Trazado_127054" data-name="Trazado 127054" d="M213.642,151.161c.406-.078.632.057.565.517-.056.385.077.6.5.533s.57.088.573.537c0,.47-.189.578-.589.525-.383-.052-.5.115-.5.5.012.6-.357.826-.934.645-.274-.086-.214-.3-.2-.477.048-.472-.06-.76-.616-.666-.431.073-.457-.2-.456-.527s.014-.6.451-.53c.471.073.694-.1.616-.6-.075-.475.23-.5.582-.454" transform="translate(205.528 4558.239)" fill="#29c4bb"/>
      <path id="Trazado_127055" data-name="Trazado 127055" d="M210.718,69.268c.1.453-.1.608-.527.537-.46-.078-.648.111-.567.569s-.113.548-.542.553-.609-.127-.532-.557c.082-.459-.109-.648-.565-.562-.472.089-.513-.158-.531-.555-.021-.466.16-.588.566-.517.441.077.606-.106.531-.537-.072-.412.061-.579.521-.563.4.014.639.072.552.536s.115.639.567.563c.425-.072.632.081.526.534" transform="translate(208.976 4610.651)" fill="#010000"/>
      <path id="Trazado_127056" data-name="Trazado 127056" d="M55.04,186.64c.1.423-.11.578-.532.5-.5-.09-.614.169-.543.587.079.465-.146.537-.555.535-.39,0-.6-.091-.518-.511.108-.553-.169-.688-.645-.607s-.466-.225-.467-.559.007-.6.448-.512c.593.117.745-.168.665-.7-.077-.508.311-.362.569-.377.274-.016.579-.052.5.389-.1.545.092.8.67.687.482-.092.423.243.409.566" transform="translate(313.711 4536.959)" fill="#010000"/>
      <path id="Trazado_127057" data-name="Trazado 127057" d="M121.786,17.426c-.114-.483.153-.577.548-.518.41.061.572-.109.509-.513s.058-.588.522-.578c.427.009.623.119.548.558s.131.6.553.533c.391-.059.587.035.589.513s-.182.62-.608.553c-.45-.072-.6.133-.533.553.078.472-.175.526-.572.534-.424.009-.562-.151-.5-.54.068-.427-.09-.622-.535-.547s-.62-.106-.523-.547" transform="translate(266.46 4643.184)" fill="#29c4bb"/>
    </g>
    <g id="Grupo_157666" data-name="Grupo 157666" transform="translate(1185.687 5116.438)">
      <g id="Grupo_157666-2" data-name="Grupo 157666" clip-path="url(#clip-path)">
        <path id="Trazado_130772" data-name="Trazado 130772" d="M60.114,94.29c0-.973-.335-1.3-1.324-1.3q-3.945,0-7.89,0c-1.649,0-1.776.123-1.814,1.757,0,.03-.038.059-.078.116l-.616-.393a15.739,15.739,0,0,0-16.921-.027,3.286,3.286,0,0,1-2.3.533c-2.209.006-4.419.048-6.627.005a5.56,5.56,0,0,0-4.1,1.5,5.146,5.146,0,0,0-.614,6.306c-3.5-1.738-6.886-3.419-10.271-5.105a6.106,6.106,0,0,0-1.949-.629,4.811,4.811,0,0,0-5.389,3.28,4.685,4.685,0,0,0,2.613,5.705q5.945,2.974,11.888,5.953a9.642,9.642,0,0,0,4.4,1.038q19.817-.009,39.634,0c1.03,0,1.359-.32,1.36-1.329q0-8.7,0-17.406M48.5,111.034c-6.148-.018-12.3-.011-18.444-.013-1.167,0-2.333-.013-3.5-.02-2.692,0-5.383.028-8.074,0a6.437,6.437,0,0,1-2.809-.777Q9.757,107.258,3.838,104.3c-1.633-.817-2.254-2.307-1.566-3.743A3.013,3.013,0,0,1,6.32,99.318c2.195,1.054,4.366,2.158,6.547,3.241,1.473.731,2.948,1.46,4.417,2.2a2.316,2.316,0,0,0,1.077.258q6.2-.012,12.4-.005c.1,0,.209.005.313,0A1,1,0,0,0,32.059,104a.976.976,0,0,0-1-.987c-1.148-.022-2.3-.008-3.443-.008-1.816,0-3.631.007-5.447,0A3.006,3.006,0,1,1,22.177,97c2.525-.007,5.05-.025,7.575.011a4.048,4.048,0,0,0,2.3-.6,14.764,14.764,0,0,1,5.653-2.236,13.356,13.356,0,0,1,10.022,2.3,9.248,9.248,0,0,1,1.159.836c.27.182.206.432.206.671,0,4.147-.006,8.294.014,12.442,0,.484-.113.614-.608.612m9.018,0c-1.94-.034-3.88-.026-5.82,0-.444.005-.612-.079-.61-.574q.029-7.448,0-14.9c0-.412.075-.585.539-.579q2.972.038,5.946,0c.459-.006.547.158.544.575-.017,2.483-.009,4.966-.009,7.448,0,2.462-.01,4.924.009,7.386,0,.46-.075.654-.6.645" transform="translate(0 -52.905)"/>
        <path id="Trazado_130773" data-name="Trazado 130773" d="M31.864,53.747a5.4,5.4,0,0,1,3.1-1.014c2.085,0,4.17,0,6.255,0a1.152,1.152,0,0,1,.836.167,33.167,33.167,0,0,1,2.959-2.927c-.78-.767-.78-.767.015-1.562q9.252-9.252,18.511-18.5A1.383,1.383,0,0,0,64,28.829q-.03-4.7,0-9.391c0-.458-.1-.667-.579-.584a1.421,1.421,0,0,1-.375,0,1.578,1.578,0,0,0-1.718.794c-.948,1.467-2.711,1.583-4.355.475,0,.485-.41.726-.642,1.07-.216.318-.467.612-.7.916a1.569,1.569,0,0,0,.933,1.366,3.057,3.057,0,0,1,1.072,4.007.73.73,0,0,0-.02.744,3.111,3.111,0,0,1-1.439,4.29.677.677,0,0,0-.443.529A3.211,3.211,0,0,1,52,35.736a.779.779,0,0,0-.758.229,3.264,3.264,0,0,1-4.573,0,.778.778,0,0,0-.758-.229A3.428,3.428,0,0,1,42.74,34.5l-1.7,1.027v0c1.405,1.419,2.8,2.851,4.225,4.248.346.339.313.512-.013.829-1.024.994-1.008,1.006-2.013.007q-2.015-2-4.037-4a5.464,5.464,0,0,1-1.909,1.16v.011c1.317,1.332,2.622,2.676,3.961,3.986.339.331.333.506,0,.831-1.029,1-1.012,1.01-2.018.011q-1.953-1.939-3.912-3.872c-.33.47-.9.549-1.352.813a10.322,10.322,0,0,1-1.328.654c-.172.07-.391.3-.6.029-1.655,1.641-3.321,3.271-4.955,4.932-.359.365-.554.4-.92.009-.947-1-.967-.978.021-1.972.17-.171.326-.356.489-.535l-.006-.011c-.893.127-1.7.542-2.573.749-.566.134-1.117.325-1.674.492,0,.011-.01.024-.012.036q3.083,3.106,6.167,6.212c.527.531,1.031,1.09,1.6,1.578.428.369.437.636-.012.956a2.392,2.392,0,0,0-.3.3,8.393,8.393,0,0,1,1.476,1.424,1.057,1.057,0,0,1,.532-.665M39.9,47.516c.244-.259.392-.245.646,0,1.125,1.081,1.134,1.073.02,2.186q-.795.795-1.59,1.588c-.1.1-.215.189-.344.3-.152-.139-.291-.259-.422-.388-1-.986-1-.987-.026-1.959.574-.574,1.159-1.137,1.716-1.727m-2.284-2.938c1.012,1.049,1.032,1.03,0,2.058q-2.3,2.3-4.593,4.593c-.116.116-.241.224-.352.326-.233-.035-.329-.212-.458-.337-1.021-1-1.02-1-.017-2,1.531-1.531,3.069-3.055,4.587-4.6.3-.305.474-.406.829-.037m-7.63,3.7c-.3.3-.456.272-.738-.008-1.056-1.053-1.066-1.043-.009-2.1,1.531-1.531,3.071-3.053,4.586-4.6.313-.32.506-.322.78.013.223.272.5.5.744.757.083.085.2.151.2.337-.077.084-.17.193-.271.294-1.766,1.767-3.54,3.526-5.292,5.308" transform="translate(-12.887 -10.834)" fill="#3085cc"/>
        <path id="Trazado_130774" data-name="Trazado 130774" d="M47.513,98.791c2.208.043,4.417,0,6.627-.005a1.155,1.155,0,0,0-.837-.167c-2.085-.005-4.17,0-6.255,0a5.406,5.406,0,0,0-3.1,1.014,1.059,1.059,0,0,0-.532.665h0a5.562,5.562,0,0,1,4.1-1.5" transform="translate(-24.969 -56.716)" fill="#3085cc"/>
        <path id="Trazado_130775" data-name="Trazado 130775" d="M22.395,41.921c.42-.693.42-.693-.175-1.288q-3.445-3.447-6.887-6.9c-.174-.175-.469-.322-.4-.63l-.024-.024c-.935-.92-1.867-1.843-2.808-2.756-.188-.183-.23-.329-.01-.506a3.551,3.551,0,0,0,.267-.264Q25.887,16.021,39.415,2.481A1.455,1.455,0,0,1,40.554,2c4.524.024,9.048.024,13.572.031.667-.007,1.334,0,2-.026.307-.011.39.1.386.4-.013,1.063-.015,2.127,0,3.19,0,.317-.075.474-.416.428a1.579,1.579,0,0,0-.375,0c-.813.087-1.534.051-1.912-.882-.161-.4-.629-.588-.978-.849a3.068,3.068,0,0,0-3.222.4c-1.444,1.171-1.486,2.986-.126,4.591l.031-.042a.9.9,0,0,1,.516.2,2.735,2.735,0,0,0,3.829-.913,1.357,1.357,0,0,1,1.339-.67c1.468.021,1.468,0,1.468,1.472,0,2.817-.014,5.634.011,8.45a2,2,0,0,1-.645,1.544q-9.089,9.059-18.154,18.14c-.133.133-.259.274-.4.4-.317.277-.421.558-.073.893a.358.358,0,0,1,.129.392h0c.324.155.409.906,1.032.28Q48.263,29.683,58,19.985a1.637,1.637,0,0,0,.52-1.276c-.023-1.4.006-2.8-.017-4.194-.006-.373.07-.5.473-.488.875.034,1.753.025,2.629.005a4,4,0,0,0-.029-8.005c-.876-.016-1.753-.022-2.629,0-.362.011-.447-.106-.442-.452.019-1.4.009-2.8.007-4.195C58.509.32,58.2.011,57.132.011c-5.76,0-11.52.006-17.279-.01a1.8,1.8,0,0,0-1.377.58Q24.255,14.824,10.018,29.052c-.82.82-.819,1.21,0,2.033L21.09,42.152c.643.643.643.643,1.289,0h0a.215.215,0,0,1,.016-.234M51.5,8.012a.955.955,0,0,1-.988-.879A.94.94,0,0,1,51.129,6.1c.24-.108.383-.109.374.224-.016.555,0,1.11,0,1.689m7.36.008c.916.016,1.834-.016,2.749.014a2,2,0,0,1,.049,3.985c-.936.041-1.875,0-2.811.02-.288.006-.347-.1-.339-.361.016-.562,0-1.125,0-1.687,0-.542.015-1.084-.006-1.625-.011-.28.086-.351.354-.347" transform="translate(-5.409 -0.001)"/>
        <path id="Trazado_130776" data-name="Trazado 130776" d="M30.145,86.663c.448-.32.44-.587.012-.956-.565-.487-1.069-1.046-1.6-1.578q-3.085-3.1-6.167-6.212c-.065.308.23.455.4.63q3.434,3.457,6.887,6.9c.6.6.595.6.175,1.289a.214.214,0,0,0-.016.233,2.39,2.39,0,0,1,.3-.3" transform="translate(-12.874 -44.813)"/>
        <path id="Trazado_130777" data-name="Trazado 130777" d="M74.7,49.384c-.349-.334-.244-.615.073-.893.141-.124.267-.264.4-.4q9.073-9.073,18.154-18.14a2,2,0,0,0,.645-1.544c-.025-2.816-.011-5.633-.011-8.45,0-1.468,0-1.451-1.468-1.472a1.357,1.357,0,0,0-1.34.67,2.735,2.735,0,0,1-3.829.913.9.9,0,0,0-.516-.2l-.031.042.006.008c1.644,1.108,3.408.992,4.355-.475a1.578,1.578,0,0,1,1.718-.794,1.44,1.44,0,0,0,.375,0c.481-.083.582.126.579.584q-.031,4.7,0,9.391a1.384,1.384,0,0,1-.453,1.088q-9.266,9.238-18.511,18.5c-.795.795-.795.795-.015,1.562a.357.357,0,0,0-.129-.392" transform="translate(-42.703 -10.632)"/>
        <path id="Trazado_130778" data-name="Trazado 130778" d="M24.379,7.023a5.834,5.834,0,0,1,4.249,4.244.971.971,0,0,0,1,.781.959.959,0,0,0,.956-.758,5.85,5.85,0,0,1,4.292-4.278.957.957,0,0,0,.741-.892,1.023,1.023,0,0,0-.807-1.062A5.832,5.832,0,0,1,30.6.852a.987.987,0,0,0-.979-.81.972.972,0,0,0-1,.786,5.836,5.836,0,0,1-4.254,4.239.961.961,0,0,0-.765.95.964.964,0,0,0,.772,1.007m3.077-1.209a6.9,6.9,0,0,0,1.927-1.929c.208-.314.311-.2.473.035A7.513,7.513,0,0,0,31.74,5.808c.161.114.415.2.075.426A7.517,7.517,0,0,0,29.8,8.247c-.045.065-.1.122-.141.171-.186-.01-.216-.155-.283-.249a7.557,7.557,0,0,0-1.892-1.88c-.248-.168-.326-.272-.024-.474" transform="translate(-13.576 -0.024)"/>
        <path id="Trazado_130779" data-name="Trazado 130779" d="M96.446,71.829c-1.161,1.162-1.155,1.155.03,2.262.209.2.325.234.544.013q3.506-3.528,7.033-7.037c.164-.164.262-.271.041-.487-.4-.392-.762-.822-1.154-1.251l-6.495,6.5" transform="translate(-54.971 -37.572)"/>
        <path id="Trazado_130780" data-name="Trazado 130780" d="M117.4,58.678l-.088.088c-.821.82-.817.817-.011,1.635.189.192.346.415.5.605a1.569,1.569,0,0,0,.252-.147q.862-.857,1.719-1.718c.156-.157.015-.248-.077-.359-1.089-1.315-1.088-1.315-2.3-.106" transform="translate(-67.117 -33.233)" fill="#010101"/>
        <path id="Trazado_130781" data-name="Trazado 130781" d="M44.2,105.27a52.656,52.656,0,0,0,4.706-4.355c.533-.549,1.02-1.144,1.527-1.719a13.356,13.356,0,0,0-10.022-2.3,14.767,14.767,0,0,0-5.653,2.236,4.05,4.05,0,0,1-2.3.6c-2.525-.037-5.05-.019-7.575-.011a3.006,3.006,0,1,0-.01,6.007c1.815.009,3.631,0,5.446,0,1.148,0,2.3-.014,3.443.008a.976.976,0,0,1,1,.987,1,1,0,0,1-.989,1.006c-.1.009-.209,0-.313,0q-6.2,0-12.4.005a2.317,2.317,0,0,1-1.077-.258c-1.469-.739-2.944-1.468-4.417-2.2-2.181-1.083-4.352-2.187-6.547-3.241a3.013,3.013,0,0,0-4.048,1.241c-.688,1.436-.068,2.926,1.565,3.743q5.916,2.962,11.834,5.921a6.435,6.435,0,0,0,2.808.777c2.691.028,5.383,0,8.074,0,2.218-.935,4.459-1.817,6.585-2.96a53.848,53.848,0,0,0,8.355-5.5" transform="translate(-2.701 -55.629)" fill="#fdc8a2"/>
        <path id="Trazado_130782" data-name="Trazado 130782" d="M84.832,103.378a9.364,9.364,0,0,0-1.159-.836c.094.226-.079.349-.2.482a50.087,50.087,0,0,1-6.369,6.063,51.68,51.68,0,0,1-10.2,6.268,20.844,20.844,0,0,1-4.41,1.716c1.167.007,2.333.02,3.5.02,6.148,0,12.3-.006,18.444.013.494,0,.61-.129.608-.613-.02-4.147-.011-8.295-.014-12.442,0-.239.065-.489-.206-.671" transform="translate(-35.945 -58.974)" fill="#fdbf92"/>
        <path id="Trazado_130783" data-name="Trazado 130783" d="M77.106,109.088a50.055,50.055,0,0,0,6.369-6.063c.119-.133.291-.257.2-.482-.508.574-.994,1.169-1.527,1.719a52.59,52.59,0,0,1-4.706,4.355,53.8,53.8,0,0,1-8.355,5.5c-2.125,1.143-4.366,2.025-6.585,2.96a20.844,20.844,0,0,0,4.41-1.716,51.68,51.68,0,0,0,10.2-6.268" transform="translate(-35.945 -58.974)" fill="#fdbf92"/>
        <path id="Trazado_130784" data-name="Trazado 130784" d="M127.263,107.058c0-2.483-.009-4.966.009-7.448,0-.418-.085-.581-.544-.575q-2.973.037-5.946,0c-.464-.006-.54.167-.539.579q.018,7.448,0,14.9c0,.495.166.579.61.574,1.94-.022,3.881-.03,5.82,0,.529.009.607-.185.6-.645-.02-2.462-.009-4.924-.009-7.386m-3.549,5.008a1.5,1.5,0,1,1,1.542-1.472,1.533,1.533,0,0,1-1.542,1.472" transform="translate(-69.152 -56.957)" fill="#4d5e78"/>
        <path id="Trazado_130785" data-name="Trazado 130785" d="M39.1,26.549a3.408,3.408,0,0,1-.54-1.454.48.48,0,0,0-.305-.42c-1.881-1.084-2.372-2.525-1.507-4.45a.584.584,0,0,0-.045-.572,3.115,3.115,0,0,1,1.456-4.334.672.672,0,0,0,.418-.546,3.223,3.223,0,0,1,3.752-2.657.724.724,0,0,0,.7-.211A3.291,3.291,0,0,1,47.66,11.9c.166.152.28.293.576.251a3.262,3.262,0,0,1,3.748,2.013,16.688,16.688,0,0,1,1.367-1.94,2.768,2.768,0,0,1-1.073-2.991,3.208,3.208,0,0,1,4.5-2.115A13.4,13.4,0,0,0,57.916,5.12C53.41,5.083,48.9,5.12,44.4,5.1a1.379,1.379,0,0,0-1.035.485c-1.321,1.334-2.653,2.658-3.981,3.986L16.764,32.188c-.133.133-.258.274-.4.4-.323.283-.308.535,0,.834.676.651,1.335,1.321,1.994,1.99.172.175.391.324.411.6L18.808,36a.524.524,0,0,1,.031-.091,24.889,24.889,0,0,1,4.123-1.244.383.383,0,0,1,.093.1l.02,0c1.371-1.354,2.751-2.7,4.1-4.069.314-.318.531-.418.819-.012a3.045,3.045,0,0,0,.348.354c.633.633.647.656.125,1.256a10.572,10.572,0,0,0,2.375-1.038c.285-.121.54-.3.826-.424h.021c-.912-.926-1.81-1.866-2.744-2.771-.306-.3-.265-.457.012-.734,1.056-1.058,1.043-1.064,2.094-.02.868.863,1.745,1.717,2.617,2.575l.008,0c0-.011,0-.021,0-.033a19.408,19.408,0,0,1,1.88-1.147h.01a10.633,10.633,0,0,0-.844-.872c-.353-.3-.28-.485.017-.778,1.037-1.021,1.025-1.031,2.048-.013.2.2.422.395.633.592h0c0-.015,0-.028,0-.044A3.778,3.778,0,0,1,39.1,26.549M25.712,29c-1.8,1.8-3.6,3.59-5.385,5.4-.246.249-.388.253-.645.006-1.129-1.083-1.137-1.074-.024-2.187C21.174,30.7,22.7,29.19,24.2,27.658c.3-.31.5-.348.78,0,.221.274.5.5.744.757.084.086.156.182.249.292-.1.113-.176.209-.263.3m8.495-4.019c-1.1,1.2-1.1,1.211-2.262.045-.147-.147-.3-.286-.44-.444-.269-.311-.889-.635-.771-.895a5.3,5.3,0,0,1,1.161-1.278.5.5,0,0,1,.1-.065c.144,0,.218.11.3.2.635.631,1.258,1.275,1.906,1.894.223.213.2.331,0,.547" transform="translate(-9.276 -2.933)" fill="#348ed8"/>
        <path id="Trazado_130786" data-name="Trazado 130786" d="M48.317,65.652c-.286.122-.54.3-.826.424a10.572,10.572,0,0,1-2.375,1.038l-.044.051c.209.271.428.04.6-.029A10.4,10.4,0,0,0,47,66.482c.454-.265,1.022-.343,1.352-.813l-.015-.016h-.021" transform="translate(-25.923 -37.758)" fill="#348ed8"/>
        <path id="Trazado_130787" data-name="Trazado 130787" d="M100.517,23.8c.009.018.02.033.029.051.235-.3.486-.6.7-.916.233-.344.644-.585.642-1.07l-.007-.005a16.673,16.673,0,0,0-1.367,1.94" transform="translate(-57.81 -12.57)" fill="#348ed8"/>
        <path id="Trazado_130788" data-name="Trazado 130788" d="M26.588,74.691a24.836,24.836,0,0,0-4.123,1.244.562.562,0,0,0-.031.091c.557-.167,1.109-.357,1.674-.492.871-.206,1.68-.622,2.573-.748a.4.4,0,0,0-.093-.1" transform="translate(-12.902 -42.957)" fill="#348ed8"/>
        <path id="Trazado_130789" data-name="Trazado 130789" d="M66.259,56.615c0,.016,0,.029,0,.044l1.7-1.026-.027-.05a3.777,3.777,0,0,0-1.674,1.032" transform="translate(-38.107 -31.967)" fill="#348ed8"/>
        <path id="Trazado_130790" data-name="Trazado 130790" d="M59.319,60.637a19.538,19.538,0,0,0-1.88,1.146c0,.012,0,.022,0,.033a5.461,5.461,0,0,0,1.909-1.16l-.017-.018h-.01" transform="translate(-33.033 -34.874)" fill="#348ed8"/>
        <path id="Trazado_130791" data-name="Trazado 130791" d="M17.922,35.187c-.659-.669-1.318-1.338-1.994-1.99-.31-.3-.325-.551,0-.834.141-.124.266-.265.4-.4L38.943,9.349C40.27,8.021,41.6,6.7,42.923,5.363a1.379,1.379,0,0,1,1.035-.485c4.506.02,9.013-.017,13.519.02l.077-.153c-4.524-.007-9.048-.006-13.572-.031a1.455,1.455,0,0,0-1.139.478Q29.322,18.738,15.781,32.266a3.467,3.467,0,0,1-.267.263c-.22.178-.178.324.01.507.942.913,1.873,1.836,2.809,2.756-.02-.281-.239-.43-.411-.6" transform="translate(-8.837 -2.711)" fill="#348ed8"/>
        <path id="Trazado_130792" data-name="Trazado 130792" d="M101.093,11.506a2.767,2.767,0,0,0,1.073,2.991l0,0c-1.36-1.6-1.318-3.421.126-4.591a3.068,3.068,0,0,1,3.222-.4c.028-.036.051-.075.078-.111a3.208,3.208,0,0,0-4.5,2.115" transform="translate(-58.092 -5.21)" fill="#348ed8"/>
        <path id="Trazado_130793" data-name="Trazado 130793" d="M103.734,21.854l.007.006-.006-.008,0,0" transform="translate(-59.66 -12.568)" fill="#348ed8"/>
        <path id="Trazado_130794" data-name="Trazado 130794" d="M79.2,21.973a3.021,3.021,0,0,0-3.107-1.548,1.332,1.332,0,0,1-1.123-.359,3.032,3.032,0,0,0-4.106-.009,1.343,1.343,0,0,1-1.121.369,3.022,3.022,0,0,0-3.432,2.48,1,1,0,0,1-.551.706,3.021,3.021,0,0,0-1.373,4.053,1.023,1.023,0,0,1-.016.954,2.824,2.824,0,0,0,1.082,3.77c.926.566.994,1.448,1.227,2.3l.031-.008a1.286,1.286,0,0,1,.514.345,3.092,3.092,0,0,0,2.547.785,1.166,1.166,0,0,1,1.019.307,3.056,3.056,0,0,0,4.251-.009,1.146,1.146,0,0,1,.96-.305,3,3,0,0,0,3.5-2.463,1.194,1.194,0,0,1,.65-.783,3.1,3.1,0,0,0,1.535-2.037,2.673,2.673,0,0,0-.205-1.828,1.239,1.239,0,0,1-.012-1.13,2.951,2.951,0,0,0-1.236-3.843,1.27,1.27,0,0,1-.754-1.3c.014-.03.034-.056.048-.085-.178-.055-.242-.223-.33-.365m.654,4a1.118,1.118,0,0,1-.458,1.31.976.976,0,0,0,.016,1.681,1.117,1.117,0,0,1,.458,1.259,1.229,1.229,0,0,1-1.161.888c-.9.091-1.186.471-1.041,1.375a1.21,1.21,0,0,1-1.232,1.53,1.463,1.463,0,0,1-.774-.258.975.975,0,0,0-1.523.515,1.31,1.31,0,0,1-2.451.008.981.981,0,0,0-1.573-.495,1.315,1.315,0,0,1-1.52-.021,1.222,1.222,0,0,1-.424-1.393.954.954,0,0,0-.985-1.256,1.251,1.251,0,0,1-1.229-.885,1.141,1.141,0,0,1,.493-1.3.966.966,0,0,0-.015-1.64,1.124,1.124,0,0,1-.469-1.307,1.233,1.233,0,0,1,1.18-.86c.853-.074,1.168-.491,1.011-1.342a1.174,1.174,0,0,1,.457-1.323,1.3,1.3,0,0,1,1.468-.029c.784.43,1.263.274,1.649-.548a1.294,1.294,0,0,1,2.361-.01c.4.85.846.981,1.7.531a1.285,1.285,0,0,1,1.415.048,1.174,1.174,0,0,1,.467,1.32c-.156.862.151,1.279,1,1.352a1.237,1.237,0,0,1,1.187.851" transform="translate(-36.84 -11.077)"/>
        <path id="Trazado_130795" data-name="Trazado 130795" d="M83.032,26.587a1.269,1.269,0,0,0,.754,1.3,2.952,2.952,0,0,1,1.237,3.843,1.239,1.239,0,0,0,.012,1.131,2.675,2.675,0,0,1,.205,1.828A3.1,3.1,0,0,1,83.7,36.724a1.193,1.193,0,0,0-.65.783,3,3,0,0,1-3.5,2.463,1.147,1.147,0,0,0-.96.305,3.056,3.056,0,0,1-4.252.009,1.167,1.167,0,0,0-1.019-.307,3.091,3.091,0,0,1-2.547-.785,1.28,1.28,0,0,0-.513-.345l-.031.008c0,.017.008.035.014.053a3.429,3.429,0,0,0,3.172,1.236.779.779,0,0,1,.758.229,3.264,3.264,0,0,0,4.572,0,.778.778,0,0,1,.758-.23,3.211,3.211,0,0,0,3.724-2.688.678.678,0,0,1,.443-.529,3.111,3.111,0,0,0,1.439-4.29.73.73,0,0,1,.02-.744,3.057,3.057,0,0,0-1.072-4.007,1.568,1.568,0,0,1-.932-1.366.285.285,0,0,1-.048-.018c-.014.029-.034.056-.048.085" transform="translate(-40.392 -15.242)"/>
        <path id="Trazado_130796" data-name="Trazado 130796" d="M75.584,20.068c-.3.042-.41-.1-.576-.251a3.291,3.291,0,0,0-4.625.009.724.724,0,0,1-.7.211,3.222,3.222,0,0,0-3.752,2.657.673.673,0,0,1-.418.546,3.114,3.114,0,0,0-1.456,4.334.584.584,0,0,1,.045.572c-.865,1.926-.374,3.366,1.507,4.45a.48.48,0,0,1,.305.42,3.4,3.4,0,0,0,.54,1.454l.013,0c-.233-.854-.3-1.736-1.227-2.3A2.824,2.824,0,0,1,64.154,28.4a1.022,1.022,0,0,0,.016-.955,3.021,3.021,0,0,1,1.373-4.052,1.006,1.006,0,0,0,.551-.706,3.022,3.022,0,0,1,3.432-2.48,1.341,1.341,0,0,0,1.121-.369,3.033,3.033,0,0,1,4.106.009,1.332,1.332,0,0,0,1.123.359,3.02,3.02,0,0,1,3.106,1.547c.088.143.152.31.33.365.006-.011.013-.022.019-.033a3.262,3.262,0,0,0-3.748-2.013" transform="translate(-36.625 -10.854)"/>
        <path id="Trazado_130797" data-name="Trazado 130797" d="M70.2,55.58l.027.05c-.005-.018-.009-.035-.014-.053l-.013,0" transform="translate(-40.374 -31.964)"/>
        <path id="Trazado_130798" data-name="Trazado 130798" d="M100.472,26.458a.322.322,0,0,0,.048.018c-.009-.019-.02-.033-.029-.052-.006.011-.013.022-.019.034" transform="translate(-57.784 -15.197)"/>
        <path id="Trazado_130799" data-name="Trazado 130799" d="M50.386,58.632c-.876-.864-1.75-1.73-2.609-2.612-.316-.325-.582-.363-.882-.007-.08.1-.177.177-.265.266-.5.512-.506.554-.012,1.052.675.682,1.36,1.354,2.032,2.039.166.169.4.308.38.6.317.006.478.264.67.455,1.256,1.245,2.514,2.488,3.747,3.755.348.358.581.345.916,0,.86-.9.817-.732.03-1.525-1-1-2-2-3-3-.172-.174-.42-.319-.393-.618L51,59.016c-.3.021-.438-.214-.61-.384" transform="translate(-26.6 -32.07)"/>
        <path id="Trazado_130800" data-name="Trazado 130800" d="M55.159,64.057c.993,1.007,2,2,3,3,.788.793.83.63-.029,1.525-.335.349-.568.362-.916,0-1.233-1.267-2.491-2.51-3.747-3.755-.193-.191-.354-.449-.67-.455,0,.005,0,.009,0,.014q1.956,1.936,3.912,3.871c1.005,1,.988.986,2.018-.011.336-.325.342-.5,0-.831-1.338-1.31-2.644-2.654-3.961-3.986-.027.3.221.444.393.618" transform="translate(-30.362 -36.485)"/>
        <path id="Trazado_130801" data-name="Trazado 130801" d="M48.39,59.237c-.672-.685-1.357-1.357-2.032-2.039-.493-.5-.489-.54.013-1.052.088-.089.184-.171.264-.266.3-.356.567-.318.882.006.858.882,1.733,1.748,2.608,2.612.172.17.313.405.61.384-.873-.858-1.749-1.713-2.617-2.576-1.051-1.044-1.038-1.038-2.095.02-.277.277-.318.438-.012.734.933.9,1.832,1.844,2.743,2.77h.015c.016-.287-.215-.427-.381-.6" transform="translate(-26.34 -31.936)"/>
        <path id="Trazado_130802" data-name="Trazado 130802" d="M52.758,65.655l.015.015c0-.005,0-.009,0-.014h-.015" transform="translate(-30.342 -37.76)"/>
        <path id="Trazado_130803" data-name="Trazado 130803" d="M61.383,55.474c-.362-.355-.643-.4-.969,0-.077.1-.175.175-.261.265-.458.473-.449.508.008,1,.212.23.54.387.551.764.322.009.484.27.679.464,1.287,1.278,2.579,2.551,3.843,3.852.366.377.642.4.956-.012a.969.969,0,0,1,.088-.089c.668-.664.668-.664-.015-1.347-1.106-1.106-2.214-2.208-3.314-3.32-.173-.175-.413-.324-.4-.619v0c-.56-.109-.81-.61-1.168-.961" transform="translate(-34.4 -31.742)"/>
        <path id="Trazado_130804" data-name="Trazado 130804" d="M64.163,58.742c1.1,1.111,2.208,2.214,3.314,3.32.683.683.683.683.015,1.347a.913.913,0,0,0-.088.089c-.315.409-.591.388-.957.012-1.264-1.3-2.555-2.574-3.843-3.852-.2-.194-.357-.454-.679-.464,0,.006,0,.011,0,.017q2.018,2,4.037,4c1.005,1,.989.987,2.013-.007.326-.317.359-.49.013-.829-1.427-1.4-2.819-2.829-4.225-4.248-.015.294.224.444.4.619" transform="translate(-35.615 -33.428)"/>
        <path id="Trazado_130805" data-name="Trazado 130805" d="M59.892,56.6c-.457-.5-.466-.53-.008-1,.087-.089.184-.169.262-.264.326-.4.607-.357.969,0s.608.851,1.168.961c-.212-.2-.429-.388-.633-.592-1.023-1.018-1.011-1.008-2.048.013-.3.294-.371.482-.018.778a10.634,10.634,0,0,1,.844.872l.015,0c-.011-.376-.339-.534-.551-.764" transform="translate(-34.132 -31.598)"/>
        <path id="Trazado_130806" data-name="Trazado 130806" d="M61.89,60.639l.017.018c0-.006,0-.011,0-.017H61.89" transform="translate(-35.594 -34.875)"/>
        <path id="Trazado_130807" data-name="Trazado 130807" d="M30.76,69.759a6.967,6.967,0,0,1-.7.713.5.5,0,0,0-.031.837c.8.854.794.865,1.636.023Q33.632,69.367,35.6,67.4a1.5,1.5,0,0,1,.689-.517l.011,0c-.008-.252.368-.425.172-.7a3.746,3.746,0,0,0-.88-.882c-.259-.184-.419.068-.575.223-1.14,1.133-2.271,2.274-3.413,3.4-.184.182-.329.449-.655.418l-.014.015c.1.158-.079.283-.173.4" transform="translate(-17.149 -37.519)"/>
        <path id="Trazado_130808" data-name="Trazado 130808" d="M36.152,69.113l-.011,0a1.5,1.5,0,0,0-.689.517q-1.97,1.962-3.933,3.93c-.842.842-.836.83-1.636-.023a.5.5,0,0,1,.031-.837,7.01,7.01,0,0,0,.7-.713c.094-.116.269-.241.173-.4-.162.179-.318.364-.489.535-.988.993-.969.973-.021,1.972.366.386.561.356.92-.009,1.634-1.662,3.3-3.292,4.955-4.932a.2.2,0,0,1,0-.042" transform="translate(-17.002 -39.749)"/>
        <path id="Trazado_130809" data-name="Trazado 130809" d="M33.133,68.6c1.142-1.13,2.274-2.271,3.413-3.4.155-.154.316-.407.574-.223a3.764,3.764,0,0,1,.881.882c.2.276-.18.449-.173.7l.045-.009c.521-.6.508-.623-.125-1.256a2.947,2.947,0,0,1-.348-.354c-.288-.406-.505-.306-.819.012-1.352,1.372-2.733,2.715-4.1,4.069.326.031.471-.236.656-.418" transform="translate(-18.678 -37.195)"/>
        <path id="Trazado_130810" data-name="Trazado 130810" d="M45.071,69.1a.2.2,0,0,0,0,.042l.044-.051-.045.009" transform="translate(-25.921 -39.737)"/>
        <path id="Trazado_130811" data-name="Trazado 130811" d="M43.466,73.406c.1-.1.195-.211.271-.294,0-.187-.118-.252-.2-.337-.246-.254-.52-.484-.744-.757-.274-.334-.468-.332-.78-.012-1.514,1.547-3.054,3.07-4.586,4.6-1.056,1.057-1.046,1.047.01,2.1.281.28.441.309.737.008,1.752-1.781,3.526-3.54,5.292-5.308" transform="translate(-21.073 -41.274)"/>
        <path id="Trazado_130812" data-name="Trazado 130812" d="M44.448,83.736c-1,1-1,1,.017,2,.128.126.224.3.458.337.111-.1.236-.21.352-.326q2.3-2.3,4.593-4.593c1.027-1.027,1.008-1.008,0-2.058-.355-.368-.529-.267-.829.038-1.518,1.544-3.056,3.068-4.587,4.6" transform="translate(-25.131 -45.356)"/>
        <path id="Trazado_130813" data-name="Trazado 130813" d="M58.588,89.766c.131.129.27.249.421.389.129-.112.243-.2.344-.3q.8-.792,1.591-1.588c1.114-1.114,1.105-1.1-.02-2.186-.254-.244-.4-.258-.646,0-.557.59-1.142,1.153-1.716,1.727-.973.973-.973.973.026,1.959" transform="translate(-33.263 -49.398)" fill="#000001"/>
        <path id="Trazado_130814" data-name="Trazado 130814" d="M112.321,6.965a.848.848,0,0,1-.184.266,4.158,4.158,0,0,1,1.15,1.112,2.028,2.028,0,0,0,1.935.393.455.455,0,0,0,.185-.437c.011-.9.008-1.793,0-2.689a.4.4,0,0,0-.462-.455c-.542,0-1.084.005-1.626,0h-.052a.628.628,0,0,1-.1.3c-.263.515-.54,1.023-.844,1.515" transform="translate(-64.493 -2.962)" fill="#3085cc"/>
        <path id="Trazado_130815" data-name="Trazado 130815" d="M112.971,4.905h.051c.542.01,1.084,0,1.626,0a.4.4,0,0,1,.462.455c.006.9.008,1.793,0,2.689a.455.455,0,0,1-.185.437,2.028,2.028,0,0,1-1.935-.392,4.171,4.171,0,0,0-1.15-1.113.24.24,0,0,1-.221.023c.349.26.817.451.978.849.379.933,1.1.969,1.912.882a1.58,1.58,0,0,1,.375,0c.341.046.421-.111.416-.428-.017-1.063-.014-2.127,0-3.19,0-.292-.079-.408-.386-.4-.666.025-1.333.019-2,.026a.249.249,0,0,1,.06.154" transform="translate(-64.194 -2.717)" fill="#3085cc"/>
        <path id="Trazado_130816" data-name="Trazado 130816" d="M111.943,7.23a.843.843,0,0,0,.184-.266c.3-.492.582-1,.844-1.515a.628.628,0,0,0,.1-.3h-.137A13.418,13.418,0,0,1,111.8,7.142l.028.011c.04.024.076.052.115.077" transform="translate(-64.299 -2.961)" fill="#3085cc"/>
        <path id="Trazado_130817" data-name="Trazado 130817" d="M111.838,9.928c-.039-.025-.075-.054-.115-.077l-.028-.011c-.027.037-.05.075-.078.111a.243.243,0,0,0,.221-.023" transform="translate(-64.194 -5.659)" fill="#3085cc"/>
        <path id="Trazado_130818" data-name="Trazado 130818" d="M114.618,4.941a.249.249,0,0,0-.06-.154l-.077.153h.137" transform="translate(-65.841 -2.753)" fill="#3085cc"/>
        <path id="Trazado_130819" data-name="Trazado 130819" d="M106.759,14.266a.939.939,0,0,0-.619,1.034.955.955,0,0,0,.988.879c0-.58-.011-1.135,0-1.689.01-.333-.133-.332-.373-.224" transform="translate(-61.038 -8.167)" fill="#fafafa"/>
        <path id="Trazado_130820" data-name="Trazado 130820" d="M32.424,11.231a7.553,7.553,0,0,1,1.892,1.881c.067.093.1.239.283.249.041-.049.1-.107.14-.171a7.528,7.528,0,0,1,2.02-2.012c.34-.226.086-.312-.075-.426A7.508,7.508,0,0,1,34.8,8.863c-.162-.236-.265-.348-.473-.034A6.908,6.908,0,0,1,32.4,10.758c-.3.2-.223.305.024.473" transform="translate(-18.522 -4.967)" fill="#feb431"/>
        <path id="Trazado_130821" data-name="Trazado 130821" d="M126.5,122.645a1.5,1.5,0,1,0,1.487,1.527,1.531,1.531,0,0,0-1.487-1.527" transform="translate(-71.884 -70.536)"/>
        <path id="Trazado_130822" data-name="Trazado 130822" d="M28.635,57.858c-.281-.348-.476-.309-.78,0-1.5,1.533-3.027,3.041-4.544,4.558-1.113,1.114-1.1,1.1.024,2.188.257.247.4.243.645-.006,1.787-1.806,3.589-3.6,5.385-5.4.086-.087.163-.183.263-.3-.093-.11-.165-.207-.249-.293-.248-.253-.523-.483-.744-.757" transform="translate(-12.931 -33.134)"/>
        <path id="Trazado_130823" data-name="Trazado 130823" d="M52.049,45.886c-.085-.085-.159-.2-.3-.2a.469.469,0,0,0-.1.065,5.312,5.312,0,0,0-1.161,1.278c-.118.26.5.583.771.895.136.158.293.3.44.444,1.166,1.166,1.16,1.16,2.262-.045.2-.216.223-.334,0-.547-.648-.619-1.271-1.262-1.906-1.894" transform="translate(-29.024 -26.278)" fill="#000001"/>
        <path id="Trazado_130824" data-name="Trazado 130824" d="M80.161,26.277a1.173,1.173,0,0,0-.467-1.319,1.285,1.285,0,0,0-1.415-.049c-.851.45-1.294.319-1.7-.531a1.294,1.294,0,0,0-2.361.01c-.385.823-.864.978-1.649.548a1.3,1.3,0,0,0-1.468.029,1.174,1.174,0,0,0-.457,1.323c.157.852-.158,1.268-1.011,1.342a1.233,1.233,0,0,0-1.18.86,1.124,1.124,0,0,0,.469,1.308.965.965,0,0,1,.015,1.639,1.142,1.142,0,0,0-.493,1.3,1.25,1.25,0,0,0,1.229.884.954.954,0,0,1,.986,1.256,1.222,1.222,0,0,0,.424,1.393,1.315,1.315,0,0,0,1.52.021.98.98,0,0,1,1.573.495,1.309,1.309,0,0,0,2.451-.008.974.974,0,0,1,1.523-.515,1.466,1.466,0,0,0,.774.258,1.209,1.209,0,0,0,1.232-1.53c-.144-.9.136-1.284,1.041-1.375a1.229,1.229,0,0,0,1.161-.888,1.117,1.117,0,0,0-.458-1.259.976.976,0,0,1-.016-1.68,1.119,1.119,0,0,0,.458-1.311,1.238,1.238,0,0,0-1.187-.851c-.847-.073-1.155-.489-1-1.352" transform="translate(-39.333 -13.584)" fill="#feb431"/>
      </g>
    </g>
  </g>
</svg>
