<svg xmlns="http://www.w3.org/2000/svg" xmlns:xlink="http://www.w3.org/1999/xlink" width="99" height="99" viewBox="0 0 99 99">
  <defs>
    <clipPath id="clip-path">
      <rect id="Rectángulo_37655" data-name="Rectángulo 37655" width="59.948" height="59.917" fill="none"/>
    </clipPath>
  </defs>
  <g id="_88" data-name="88" transform="translate(-1171 -5097)">
    <circle id="Elipse_4760" data-name="Elipse 4760" cx="49.5" cy="49.5" r="49.5" transform="translate(1171 5097)" fill="#1169e3"/>
    <g id="Grupo_156593" data-name="Grupo 156593" transform="translate(833.421 454)">
      <path id="Trazado_127053" data-name="Trazado 127053" d="M15.507,123.96c-.454.1-.559-.113-.555-.537.012-1.063-.007-1.081-1.106-1.075-.409,0-.536-.124-.528-.529.007-.377.077-.553.512-.551,1.1,0,1.131-.018,1.119-1.119-.005-.5.239-.507.608-.511s.56.058.56.5c0,1.115.023,1.135,1.112,1.131.421,0,.521.15.522.541s-.1.541-.52.539c-1.11-.006-1.137.014-1.112,1.066.012.488-.169.631-.611.545" transform="translate(339.683 4578.363)" fill="#29c4bb"/>
      <path id="Trazado_127054" data-name="Trazado 127054" d="M213.642,151.161c.406-.078.632.057.565.517-.056.385.077.6.5.533s.57.088.573.537c0,.47-.189.578-.589.525-.383-.052-.5.115-.5.5.012.6-.357.826-.934.645-.274-.086-.214-.3-.2-.477.048-.472-.06-.76-.616-.666-.431.073-.457-.2-.456-.527s.014-.6.451-.53c.471.073.694-.1.616-.6-.075-.475.23-.5.582-.454" transform="translate(205.528 4558.239)" fill="#29c4bb"/>
      <path id="Trazado_127055" data-name="Trazado 127055" d="M210.718,69.268c.1.453-.1.608-.527.537-.46-.078-.648.111-.567.569s-.113.548-.542.553-.609-.127-.532-.557c.082-.459-.109-.648-.565-.562-.472.089-.513-.158-.531-.555-.021-.466.16-.588.566-.517.441.077.606-.106.531-.537-.072-.412.061-.579.521-.563.4.014.639.072.552.536s.115.639.567.563c.425-.072.632.081.526.534" transform="translate(208.976 4610.651)" fill="#010000"/>
      <path id="Trazado_127056" data-name="Trazado 127056" d="M55.04,186.64c.1.423-.11.578-.532.5-.5-.09-.614.169-.543.587.079.465-.146.537-.555.535-.39,0-.6-.091-.518-.511.108-.553-.169-.688-.645-.607s-.466-.225-.467-.559.007-.6.448-.512c.593.117.745-.168.665-.7-.077-.508.311-.362.569-.377.274-.016.579-.052.5.389-.1.545.092.8.67.687.482-.092.423.243.409.566" transform="translate(313.711 4536.959)" fill="#010000"/>
      <path id="Trazado_127057" data-name="Trazado 127057" d="M121.786,17.426c-.114-.483.153-.577.548-.518.41.061.572-.109.509-.513s.058-.588.522-.578c.427.009.623.119.548.558s.131.6.553.533c.391-.059.587.035.589.513s-.182.62-.608.553c-.45-.072-.6.133-.533.553.078.472-.175.526-.572.534-.424.009-.562-.151-.5-.54.068-.427-.09-.622-.535-.547s-.62-.106-.523-.547" transform="translate(266.46 4643.184)" fill="#29c4bb"/>
    </g>
    <g id="Grupo_157667" data-name="Grupo 157667" transform="translate(1191 5117)">
      <g id="Grupo_157667-2" data-name="Grupo 157667" clip-path="url(#clip-path)">
        <path id="Trazado_130825" data-name="Trazado 130825" d="M30.433,0a7.291,7.291,0,0,1,3.11,1.742,3.709,3.709,0,0,0,3.948.786,10.486,10.486,0,0,1,2.047-.456A3.48,3.48,0,0,1,42.96,3.506,22.612,22.612,0,0,1,44.45,5.875a2.93,2.93,0,0,0,2.3,1.5c.522.062,1.038.165,1.559.232,2.538.325,3.677,1.463,4.013,4,.087.655.211,1.306.316,1.959a2.475,2.475,0,0,0,1.215,1.769c.677.421,1.367.822,2.033,1.258a3.659,3.659,0,0,1,1.846,4.471.533.533,0,0,0,.352.706,3.168,3.168,0,0,1,1.841,2.955c.025,1.714-.007,3.43.014,5.145a1.022,1.022,0,0,1-.827,1.157.809.809,0,0,1-1.027-.58,2.48,2.48,0,0,1-.1-.867c0-1.443,0-2.887,0-4.33s-.454-1.884-1.9-1.884q-22.673,0-45.346,0c-.312,0-.624.015-.935-.015q-2.953,0-5.907,0c-1.281,0-1.709.342-1.964,1.6A1.134,1.134,0,0,1,.936,26,.9.9,0,0,1,0,25.283v-1.17a3.237,3.237,0,0,1,1.7-2.439.623.623,0,0,0,.319-.732,4.989,4.989,0,0,1-.1-1.68,3.879,3.879,0,0,1,1.464-2.384A17.7,17.7,0,0,1,5.548,15.5,3.089,3.089,0,0,0,7.236,13.12c.086-.675.162-1.355.31-2.02a4.093,4.093,0,0,1,3.969-3.634c.6-.081,1.194-.183,1.791-.27a2.861,2.861,0,0,0,2.073-1.464c.464-.743.866-1.526,1.4-2.223a3.67,3.67,0,0,1,3.712-1.571,16.806,16.806,0,0,1,2.394.533A3.147,3.147,0,0,0,26,1.824c.47-.378.962-.731,1.458-1.076A4,4,0,0,1,29.5,0Z"/>
        <path id="Trazado_130826" data-name="Trazado 130826" d="M0,55.018a.494.494,0,0,0,.107-.025.942.942,0,0,1,.2.765Q.316,58.53.3,61.3a.935.935,0,0,1-.2.765A.212.212,0,0,0,0,62.04Z" transform="translate(0 -26.223)" fill="#050505"/>
        <path id="Trazado_130827" data-name="Trazado 130827" d="M18.4,44.3c.155-.008.31-.022.466-.022h46.07c1.053,0,1.63.355,1.851,1.159a2.659,2.659,0,0,1,.069.692c.006,1.618,0,3.235,0,4.852,0,.766.179.981.935,1.162q0,1.154,0,2.307a1.906,1.906,0,0,0-.774,1.764,1.757,1.757,0,0,1-1.963,1.839c-3.452.01-6.9,0-10.357,0H30.537a7.184,7.184,0,0,1-1.05-.034,21.881,21.881,0,0,1-5.15-2.4c-.214-.137-.439-.269-.393-.583.069-.217.265-.332.4-.493a2.6,2.6,0,0,0,0-3.56.741.741,0,0,1-.162-.9,2.345,2.345,0,0,0-2.3-3.311,17.367,17.367,0,0,1-1.755.006.842.842,0,0,0-.91.58c-.184.439.092.973-.248,1.384a.546.546,0,0,1-.346-.408,9.467,9.467,0,0,1-.368-3.733.517.517,0,0,1,.147-.31" transform="translate(-8.686 -21.111)" fill="#fdf4e5"/>
        <path id="Trazado_130828" data-name="Trazado 130828" d="M20.7,62.422c.292.008.583.025.875.025,11.463,0,22.926-.02,34.388.021,1.839.007,2.427-.751,2.319-2.307-.053-.765.2-1.014.927-1.148a.985.985,0,0,1,.828,1.09c.055,1.329-.111,2.645-1.32,3.358a1.485,1.485,0,0,0-.774,1.877,3.283,3.283,0,0,1-1.427,3.3,24.861,24.861,0,0,1-2.42,1.523,2.891,2.891,0,0,0-1.441,2.213c-.088.656-.177,1.314-.3,1.963-.468,2.381-1.481,3.323-3.889,3.652-.56.076-1.117.171-1.677.246a2.833,2.833,0,0,0-2.206,1.45c-.369.641-.753,1.274-1.159,1.892a3.677,3.677,0,0,1-4.487,1.833c-.779-.17-1.556-.353-2.331-.54a2.477,2.477,0,0,0-2.109.4c-.683.485-1.355.986-2.038,1.471a3.787,3.787,0,0,1-4.764.009c-.668-.473-1.327-.957-1.991-1.436a2.67,2.67,0,0,0-2.214-.448c-.991.2-1.953.523-2.962.659a3.438,3.438,0,0,1-3.5-1.506c-.527-.745-1-1.53-1.465-2.319A2.884,2.884,0,0,0,13.3,78.234c-.637-.082-1.275-.17-1.906-.292-2.432-.472-3.374-1.5-3.7-3.98-.082-.637-.206-1.268-.308-1.9a2.52,2.52,0,0,0-1.255-1.811c-.68-.417-1.37-.819-2.036-1.258a3.65,3.65,0,0,1-1.811-4.439.528.528,0,0,0-.341-.712A2.969,2.969,0,0,1,.2,61.522l0-7.073c.077-.39.4-.473.713-.574a.829.829,0,0,1,1.043.641,2.863,2.863,0,0,1,.076.87c0,1.676,0,3.352,0,5.029.006,1.346.494,1.831,1.838,1.832q7.572,0,15.144,0a6.418,6.418,0,0,1,1.676.178" transform="translate(-0.096 -25.679)"/>
        <path id="Trazado_130829" data-name="Trazado 130829" d="M50.771,18.083a18.621,18.621,0,0,1,6.847,2.192A20.637,20.637,0,0,1,66.429,29.2c.1.188.168.39.251.586a.139.139,0,0,1-.111.174,2.9,2.9,0,0,1-.467.012q-13.9,0-27.791,0c-.307,0-.741.12-.588-.47.124-.328.4-.243.641-.221a3.708,3.708,0,0,0,2.539-.637,2.185,2.185,0,0,0,.3-3.541c-.122-.122-.276-.218-.325-.4a.756.756,0,0,1,.624-.583c.185.026.29.188.445.266a.742.742,0,0,0,1.122-.753,8.527,8.527,0,0,1-.167-.859,1.454,1.454,0,0,1,.679-.912,21.674,21.674,0,0,1,5.9-3.508,2.52,2.52,0,0,1,1.291-.273" transform="translate(-17.973 -8.616)" fill="#f8f19c"/>
        <path id="Trazado_130830" data-name="Trazado 130830" d="M45.155,5.912a27.053,27.053,0,0,0,2.8-1.906c1.247-.871,1.833-.867,3.079,0,.56.389,1.105.8,1.65,1.21A4.547,4.547,0,0,0,56.716,6c.85-.211,1.69-.461,2.561-.588a1.771,1.771,0,0,1,1.756.686A8.919,8.919,0,0,1,62.1,7.771a5.268,5.268,0,0,0,4.687,3.074,13.867,13.867,0,0,1,1.557.248,1.9,1.9,0,0,1,1.629,1.679c.159.921.3,1.845.472,2.764A4.1,4.1,0,0,0,72.3,18.325c.718.468,1.467.887,2.185,1.355,1.387.9,1.318,1.539.974,3.076-.05.224-.2.252-.391.251-1.483,0-2.965-.015-4.448.007-.385.006-.429-.254-.537-.5a21.791,21.791,0,0,0-8.039-9.595A22.207,22.207,0,0,0,41.5,10.532c-.183.064-.366.125-.549.188.007-.577.494-.858.8-1.23.891-1.077,1.845-2.1,2.816-3.109a6.87,6.87,0,0,1,.589-.469" transform="translate(-19.526 -1.599)" fill="#8fd9a9"/>
        <path id="Trazado_130831" data-name="Trazado 130831" d="M21.348,57.856c-.408.008-.816.024-1.224.024q-7.828,0-15.656,0c-1.408,0-1.963-.563-1.963-1.985q0-2.717,0-5.433c0-.77-.189-1-.935-1.154q0-1.155,0-2.31a.944.944,0,0,0,.951-1.023,1.7,1.7,0,0,1,1.823-1.7c2.041,0,4.081.014,6.121.021a10.452,10.452,0,0,0,.527,4.359c.143-.507-.081-1,.146-1.441.28.24.2.571.205.871.009,2.021,0,4.042.006,6.063,0,1.039.154,1.19,1.171,1.195.68,0,1.362-.025,2.04.007.54.025.981-.382,1.523-.287.3.572.909.742,1.408,1.035a30.809,30.809,0,0,0,3.858,1.756" transform="translate(-0.747 -21.113)" fill="#faeace"/>
        <path id="Trazado_130832" data-name="Trazado 130832" d="M29.084,7.759c-.732.8-1.472,1.592-2.2,2.4a24.9,24.9,0,0,0-2.01,2.407,24.653,24.653,0,0,0-5.952,3.651,22.154,22.154,0,0,0-6.072,8.117.742.742,0,0,1-.82.529c-1.325-.028-2.652-.025-3.977,0-.4.007-.573-.085-.666-.509-.337-1.543-.138-2.093,1.2-2.932.561-.352,1.13-.691,1.7-1.026a4.614,4.614,0,0,0,2.3-3.6c.091-.694.224-1.383.331-2.075a1.967,1.967,0,0,1,1.78-1.8c.884-.143,1.767-.29,2.647-.449a4.145,4.145,0,0,0,2.873-1.924c.5-.788.987-1.587,1.493-2.373a1.824,1.824,0,0,1,2.1-.878c.606.141,1.221.251,1.82.416a5.676,5.676,0,0,0,3.445.051" transform="translate(-3.456 -3.446)" fill="#5ec682"/>
        <path id="Trazado_130833" data-name="Trazado 130833" d="M30.033,29.138c-.161.455-.005.578.473.577q13.866-.02,27.732-.013c.205,0,.435.073.6-.127.088.071.132.178.01.22a1.291,1.291,0,0,1-.406.016l-36.751,0h-.445a10.5,10.5,0,0,1,1.05-2.06,20.622,20.622,0,0,1,15.8-10,15.872,15.872,0,0,1,4.829.123,20.484,20.484,0,0,0-7.143,3.93c-.245.2-.55.386-.609.752-.265.05-.31-.193-.418-.332a2.243,2.243,0,0,0-2.391-.854,2.182,2.182,0,0,0-1.742,1.768,2.842,2.842,0,0,1-.2.731c-.451.355-1.043.389-1.528.7a2.251,2.251,0,0,0,.012,3.973,5.325,5.325,0,0,1,1.118.6" transform="translate(-10.132 -8.402)" fill="#f8f19c"/>
        <path id="Trazado_130834" data-name="Trazado 130834" d="M71.119,54c0-1.424,0-2.727,0-4.03a2.153,2.153,0,0,1,.037-.58.813.813,0,0,1,.908-.656.768.768,0,0,1,.792.778q.071,3.536.089,7.073a.932.932,0,0,1-.7.968.969.969,0,0,1-1.144-.481q-1.54-2.228-3.081-4.462c-.206.116-.12.29-.121.425-.008,1.189,0,2.377-.007,3.566-.006.7-.324,1.07-.884,1.069s-.865-.356-.867-1.074c-.006-2.261,0-4.522-.005-6.782,0-.466.1-.872.586-1.03a.933.933,0,0,1,1.129.487c1.059,1.555,2.138,3.1,3.266,4.728" transform="translate(-31.538 -23.239)"/>
        <path id="Trazado_130835" data-name="Trazado 130835" d="M24.786,57.179a3.9,3.9,0,0,1-2.353.487c-.525-.018-1.051.011-1.576,0-.716-.014-1.034-.317-1.035-1.039,0-2.433.011-4.866.018-7.3a.955.955,0,0,1,1.015-.618c.642.016,1.285-.008,1.927.008a2.515,2.515,0,0,1,2.31,3.575c-.084.2-.183.321.017.55,1.284,1.472,1.159,2.987-.324,4.334" transform="translate(-9.452 -23.228)"/>
        <path id="Trazado_130836" data-name="Trazado 130836" d="M36.478,54.68c0,.783.009,1.4,0,2.015s-.323.959-.852.966a.854.854,0,0,1-.894-.938q-.02-3.535,0-7.07a.852.852,0,0,1,.958-.934c.681-.013,1.364-.02,2.044.01a2.778,2.778,0,0,1,2.588,2.149,2.653,2.653,0,0,1-1.528,3.028c-.389.181-.455.283-.135.609.5.514.967,1.068,1.432,1.618a.864.864,0,0,1-.019,1.336c-.431.359-.871.3-1.317-.2-.723-.812-1.438-1.632-2.276-2.585" transform="translate(-16.556 -23.226)"/>
        <path id="Trazado_130837" data-name="Trazado 130837" d="M82.174,53.441c0-1.071-.007-2.142,0-3.213.008-.816.319-1.121,1.142-1.135.526-.009,1.052-.014,1.577,0a3.574,3.574,0,0,1,3.7,3.058,5.322,5.322,0,0,1-.322,3.536,3.445,3.445,0,0,1-3.318,2.147c-.545,0-1.09.014-1.636.013-.794,0-1.131-.325-1.142-1.134-.014-1.09,0-2.181,0-3.272" transform="translate(-39.182 -23.405)"/>
        <path id="Trazado_130838" data-name="Trazado 130838" d="M56.161,56.749a.83.83,0,0,1-.608.888.775.775,0,0,1-.965-.337,2.851,2.851,0,0,1-.2-.418c-.386-.973-.385-.974-1.4-.974a5.121,5.121,0,0,1-.817-.006,1.3,1.3,0,0,0-1.735,1.125.819.819,0,0,1-1.138.6.9.9,0,0,1-.456-1.266c.656-1.744,1.325-3.484,1.987-5.225.214-.563.421-1.127.64-1.688a.992.992,0,0,1,.957-.72,1.008,1.008,0,0,1,1.029.708q1.321,3.483,2.635,6.972a2.163,2.163,0,0,1,.077.339" transform="translate(-23.244 -23.237)"/>
        <path id="Trazado_130839" data-name="Trazado 130839" d="M66.668,73.875a19.125,19.125,0,0,1-4.6,6.337,20.778,20.778,0,0,1-10.729,5.321,5.794,5.794,0,0,1-.581.047,4.043,4.043,0,0,1-1.929-.549,17.584,17.584,0,0,1-3.563-1.969c-.184-.133-.618-.244-.272-.639a2.464,2.464,0,0,1,.865-.074q3.4,0,6.811,0c.213,0,.427.007.64-.012.392-.035.741-.156.825-.595s-.166-.691-.555-.833a1.837,1.837,0,0,0-.806-.093c-3.174,0-6.349-.014-9.523.01a1.769,1.769,0,0,1-1.525-.682c-.411-.519-.9-.971-1.282-1.516-.319-.457-.218-.665.329-.71.213-.017.428-.007.642-.007q7.946,0,15.892,0a1.605,1.605,0,0,0,.856-.119.682.682,0,0,0,.439-.8c-.085-.357-.374-.476-.69-.546a4.754,4.754,0,0,0-1.048-.062q-8.479,0-16.958,0a1.97,1.97,0,0,1-1.03-.135,7.318,7.318,0,0,1-1.154-2.087c-.129-.29-.034-.5.338-.473.117.008.234,0,.351,0q13.811,0,27.622.01c.206,0,.515-.2.635.176" transform="translate(-17.962 -35.118)" fill="#f8f19c"/>
        <path id="Trazado_130840" data-name="Trazado 130840" d="M47.777,87.052a23.444,23.444,0,0,0,5.168.495c9.418-.407,16.161-4.894,20.271-13.353a.835.835,0,0,1,.9-.576c1.326.031,2.653.021,3.979,0,.348,0,.5.077.589.451.365,1.594.155,2.153-1.236,3.024a10.374,10.374,0,0,1-1,.6,5.222,5.222,0,0,0-3.057,4.693c-.035.483-.153.961-.232,1.441a1.921,1.921,0,0,1-1.715,1.727c-.9.152-1.805.3-2.706.461a4.139,4.139,0,0,0-2.87,1.929c-.438.691-.843,1.4-1.289,2.088a2.054,2.054,0,0,1-2.661,1.1c-.494-.105-.991-.215-1.473-.364a4.884,4.884,0,0,0-4.611.644.969.969,0,0,1-.888-.116,62.3,62.3,0,0,1-6.716-3.614,1.917,1.917,0,0,1-.547-.428c-.066-.089-.13-.225.094-.2" transform="translate(-22.708 -35.104)" fill="#8fd9a9"/>
        <path id="Trazado_130841" data-name="Trazado 130841" d="M28.519,87.054c.075.363.427.432.671.59a61.259,61.259,0,0,0,6.5,3.5,2.15,2.15,0,0,0,.882.274c-.592.441-1.185.88-1.776,1.323a2.126,2.126,0,0,1-2.792-.012c-.469-.349-.957-.673-1.409-1.043a4.866,4.866,0,0,0-4.707-.98,18.433,18.433,0,0,1-2.217.514,1.742,1.742,0,0,1-1.839-.737A12.065,12.065,0,0,1,20.8,88.856a5.285,5.285,0,0,0-4.749-3.07,13.33,13.33,0,0,1-1.44-.235,1.9,1.9,0,0,1-1.671-1.637c-.173-.938-.307-1.882-.483-2.82a4.086,4.086,0,0,0-1.86-2.786c-.72-.464-1.467-.887-2.185-1.355-1.405-.915-1.307-1.577-.968-3.075.05-.222.2-.25.395-.249,1.482,0,2.964.013,4.445-.006.385-.005.429.26.536.5a22.253,22.253,0,0,0,6.121,8.155,21.862,21.862,0,0,0,9.421,4.695.649.649,0,0,1,.152.08" transform="translate(-3.45 -35.107)" fill="#5ec682"/>
        <path id="Trazado_130842" data-name="Trazado 130842" d="M58.822,73.823c-.167-.2-.4-.127-.6-.127q-13.867,0-27.734,0c-.642,0-.643,0-.351.595.31.626.623,1.25.935,1.875-.223.2-.512.156-.776.2-.656.1-.923.339-.869.8.067.577.517.555.927.558,1.324.011,2.648,0,3.971,0q7.535,0,15.069.005c.336,0,.71-.1.984.216-.21.157-.453.085-.679.085q-8.3.006-16.592.007c-.186,0-.446-.1-.545.076-.115.207.16.313.273.453.365.453.748.89,1.112,1.343a1.784,1.784,0,0,0,1.548.709c3.232-.041,6.465-.019,9.7-.015.207,0,.431-.067.619.087-.24.28-.571.206-.872.206q-4.843.011-9.687,0a5.907,5.907,0,0,0-.758.024.619.619,0,0,0-.627.636.647.647,0,0,0,.591.684,10.712,10.712,0,0,0,1.572.052c.341.017.707-.085,1,.182a7.268,7.268,0,0,0,1.99,1.38,17.155,17.155,0,0,0,3.889,1.674,14.387,14.387,0,0,1-4.247.185A20.7,20.7,0,0,1,23.11,76.921a16.6,16.6,0,0,1-1.9-3.33h.582q18.287,0,36.574.008c.139,0,.5-.239.454.224" transform="translate(-10.115 -35.066)" fill="#f4e972"/>
        <path id="Trazado_130843" data-name="Trazado 130843" d="M35.792,34.818a2.752,2.752,0,0,1-2.466-2.673,2.657,2.657,0,0,1,1.944-2.374c.292-.1.6-.16.9-.238.109-.014.175.057.248.12.486.413.7.427,1.219.075a.583.583,0,0,1,.253-.129,1.214,1.214,0,0,1,.946.521,2.369,2.369,0,0,1,.3,3.949,3.771,3.771,0,0,1-3.346.748" transform="translate(-15.892 -14.082)" fill="#f8f19c"/>
        <path id="Trazado_130844" data-name="Trazado 130844" d="M72.245,29.529a10.264,10.264,0,0,1,1.319.432,2.452,2.452,0,0,1,1.513,2,2.314,2.314,0,0,1-1.2,2.348,3.833,3.833,0,0,1-4.143.076,2.387,2.387,0,0,1-.014-4.318c.262-.161.547-.284.821-.424.13-.021.207.075.3.138a.778.778,0,0,0,1.124-.088c.076-.082.152-.174.285-.159" transform="translate(-32.594 -14.08)" fill="#f8f19c"/>
        <path id="Trazado_130845" data-name="Trazado 130845" d="M71.257,27.057c-.514.817-1.109.855-1.709.11a3.872,3.872,0,0,0-.073-.519.726.726,0,0,0-1.4-.008c-.022.074-.031.152-.046.228-.121.6-.476.879-1,.8a.9.9,0,0,1-.73-1.083,2.495,2.495,0,0,1,4.973.122c.008.116,0,.233-.006.35" transform="translate(-31.606 -11.607)" fill="#f8f19c"/>
        <path id="Trazado_130846" data-name="Trazado 130846" d="M40.469,27.156c-.6.737-1.189.7-1.705-.115a2.5,2.5,0,0,1,1.779-2.622,2.555,2.555,0,0,1,2.989,1.319c.052.206.1.411.156.617a.942.942,0,0,1-.478,1.233.9.9,0,0,1-1.187-.44c-.143-.1-.149-.265-.194-.411a.591.591,0,0,0-1.16.014c-.045.144-.046.313-.2.4" transform="translate(-18.484 -11.59)" fill="#f8f19c"/>
        <path id="Trazado_130847" data-name="Trazado 130847" d="M54.872,33.533a3.035,3.035,0,0,1-2.206-.956.878.878,0,1,1,1.181-1.294,1.393,1.393,0,0,0,2.164-.012.876.876,0,1,1,1.2,1.277,3.1,3.1,0,0,1-2.337.984" transform="translate(-24.957 -14.791)" fill="#f8f19c"/>
        <path id="Trazado_130848" data-name="Trazado 130848" d="M42.024,28.776a3.788,3.788,0,0,1,.054-.457.734.734,0,0,1,1.448-.007,3.473,3.473,0,0,1,.052.457l-.593.48-.961-.473" transform="translate(-20.039 -13.21)" fill="#f8f19c"/>
        <path id="Trazado_130849" data-name="Trazado 130849" d="M23.191,58.459a4.438,4.438,0,0,1,1.765-.041,1.046,1.046,0,0,1-.128,2.068,6.513,6.513,0,0,1-1.614-.04,7.84,7.84,0,0,1-.023-1.986" transform="translate(-11.034 -27.824)" fill="#fcf3e5"/>
        <path id="Trazado_130850" data-name="Trazado 130850" d="M23.844,53.623c-.185-.053-.584.142-.636-.1a5.4,5.4,0,0,1,0-1.381c0-.028.168-.066.258-.069.31-.007.622-.012.931,0a.72.72,0,0,1,.753.787.73.73,0,0,1-.735.753c-.173.016-.349,0-.573,0" transform="translate(-11.044 -24.83)" fill="#fdf4e5"/>
        <path id="Trazado_130851" data-name="Trazado 130851" d="M23.184,58.559q.012.993.023,1.986a7.039,7.039,0,0,1-.023-1.986" transform="translate(-11.027 -27.924)" fill="#e9dac0"/>
        <path id="Trazado_130852" data-name="Trazado 130852" d="M38.678,52.009a6.3,6.3,0,0,1,.663.041.962.962,0,0,1,.865.883.939.939,0,0,1-.71,1,3.685,3.685,0,0,1-1.151.086c-.257.013-.271-.152-.269-.342a7.127,7.127,0,0,0-.008-.928c-.076-.6.1-.9.61-.745" transform="translate(-18.144 -24.781)" fill="#faf2e3"/>
        <path id="Trazado_130853" data-name="Trazado 130853" d="M86.43,57.675c-.886.014-.886.014-.888-.779,0-1.324.008-2.648-.02-3.971-.008-.391.111-.49.492-.491,1.372,0,1.947.284,2.325,1.23a3.56,3.56,0,0,1-.521,3.567,1.749,1.749,0,0,1-1.388.444" transform="translate(-40.781 -25.003)" fill="#fdf4e5"/>
        <path id="Trazado_130854" data-name="Trazado 130854" d="M55.919,56.913H54.133l.889-2.351.9,2.351" transform="translate(-25.813 -26.018)" fill="#faf1e3"/>
        <path id="Trazado_130855" data-name="Trazado 130855" d="M57.6,80.336q-10.065.007-20.13.012c-.711,0-1.089-.3-1.1-.845-.015-.567.379-.887,1.114-.91.272-.008.543-.024.815-.037.232.013.464.036.7.037q8.876,0,17.752,0c.156,0,.312,0,.467,0,.489.009.894.156,1.007.694a.86.86,0,0,1-.616,1.047" transform="translate(-17.342 -37.459)" fill="#010100"/>
        <path id="Trazado_130856" data-name="Trazado 130856" d="M48.344,88.992c-.779-.008-1.558-.013-2.337-.026-.694-.012-1.071-.328-1.072-.886s.363-.866,1.071-.866q5.557-.007,11.115-.01a.851.851,0,0,1,.711,1.032c-.1.564-.516.731-1.033.731q-3.908,0-7.816,0c-.213,0-.426.015-.639.024" transform="translate(-21.427 -41.583)"/>
      </g>
    </g>
  </g>
</svg>
