<svg xmlns="http://www.w3.org/2000/svg" xmlns:xlink="http://www.w3.org/1999/xlink" width="99" height="99" viewBox="0 0 99 99">
  <defs>
    <clipPath id="clip-path">
      <rect id="Rectángulo_37656" data-name="Rectángulo 37656" width="64.58" height="65.607" fill="none"/>
    </clipPath>
  </defs>
  <g id="Grupo_157185" data-name="Grupo 157185" transform="translate(-1171 -5097)">
    <circle id="Elipse_4760" data-name="Elipse 4760" cx="49.5" cy="49.5" r="49.5" transform="translate(1171 5097)" fill="#1169e3"/>
    <g id="Grupo_157668" data-name="Grupo 157668" transform="translate(1188.56 5113.616)">
      <g id="Grupo_157668-2" data-name="Grupo 157668" transform="translate(0 0)" clip-path="url(#clip-path)">
        <path id="Trazado_130857" data-name="Trazado 130857" d="M27.03,65.606a12.84,12.84,0,0,0-2.653-.478A29.061,29.061,0,0,1,10.12,58.235,28.982,28.982,0,0,1,.429,40.96,29.646,29.646,0,0,1,22.95,7.04a1.536,1.536,0,0,1,.247-.065c.48-.028.528-.173.281-.606a4.247,4.247,0,0,1,6.58-5.22,29.559,29.559,0,0,1,4.858,5.336.784.784,0,0,0,.564.35,28.9,28.9,0,0,1,7.234,2.454.649.649,0,0,0,.749-.092c1.418-.947,2.83-1.9,4.266-2.822a4.715,4.715,0,0,1,7.293,2.99,4.341,4.341,0,0,1-.267,2.7c-.149.337-.093.426.265.551a4.7,4.7,0,0,1,2.9,6.252c-.083.223-.263.385.168.545A4.67,4.67,0,0,1,60.983,25.9a1.655,1.655,0,0,0-.048.2,4.694,4.694,0,0,1,3.5,3.539,4.621,4.621,0,0,1-1.931,4.985c-.89.623-1.8,1.22-2.718,1.8a.919.919,0,0,0-.494.863,27.329,27.329,0,0,1-.4,3.815c-.086.541-.29.985-.9,1.09-.779.3-1.278-.345-1.271-1.048a17.388,17.388,0,0,1,.214-1.84c.023-.2.139-.463-.065-.6-.183-.12-.35.092-.5.194-2.7,1.837-5.469,3.565-8.163,5.409-.782.48-1.515,1.035-2.31,1.5a6.485,6.485,0,0,1-4.166.9,5.305,5.305,0,0,0-4.152,1.085c-.3.243-.443.438-.288.852a2.9,2.9,0,0,1-1.234,3.712c-4.689,3.084-9.341,6.223-14.044,9.284a1.876,1.876,0,0,0-.6.483,26.127,26.127,0,0,0,6.135,1.2,19.6,19.6,0,0,0,3.7.046,27.464,27.464,0,0,0,7.557-1.53,27.182,27.182,0,0,0,10.329-6.553A28.424,28.424,0,0,0,54.5,47.7c.339-.69.586-1.419.887-2.124a1.708,1.708,0,0,1,.737-.935A.656.656,0,0,1,57,44.7c.667.5.788.8.5,1.515Q51.213,61.905,34.634,65.2c-.9.181-1.842.148-2.735.4h-.384c-.077-.084-.179-.061-.275-.066H31.02c-.1,0-.2-.018-.273.066H29.465a.982.982,0,0,0-.769,0h-.641a.291.291,0,0,0-.384,0Z" transform="translate(0 0)"/>
        <path id="Trazado_130858" data-name="Trazado 130858" d="M76.373,71.695c-.868-.117-1.122.072-1.517,1.069a27.678,27.678,0,0,1-27.407,17.76,4.881,4.881,0,0,1-.563-.089.367.367,0,0,1,.332-.16,11.44,11.44,0,0,0,4.91-1.512A28.551,28.551,0,0,0,67.215,71.789a1.927,1.927,0,0,1,.315-.621l7.8-5.207a2.439,2.439,0,0,1,.374-.243c.262-.113.494-.526.752-.335.2.149.053.563.018.856-.063.528-.167,1.051-.227,1.579-.11.96.156,1.275,1.117,1.364-.158.114-.392.1-.452.372-.161.717-.355,1.427-.536,2.14" transform="translate(-19.369 -26.99)" fill="#7570d5"/>
        <path id="Trazado_130859" data-name="Trazado 130859" d="M74.8,22.827a2.384,2.384,0,0,1,1.777,1.96,2.535,2.535,0,0,1-1.07,2.741c-.933.666-1.909,1.272-2.861,1.911s-.966,1.331-.031,1.995a2.812,2.812,0,0,0,2.076-.262c.83-.421,1.627-.9,2.464-1.311a1.689,1.689,0,0,1,.712-.246,2.394,2.394,0,0,1,1.879,2.029,2.556,2.556,0,0,1-1.18,2.767c-2.074,1.386-4.156,2.759-6.235,4.137-3.234,2.143-6.476,4.275-9.7,6.434a5.106,5.106,0,0,1-3.741.936,6.9,6.9,0,0,0-5.374,1.563c-.421.323-.607.279-.9-.172q-5.271-8.016-10.589-16a1.151,1.151,0,0,1-.192-1c.974-4.147,1.974-8.289,2.855-12.457A14.12,14.12,0,0,0,42.8,7.288a2.972,2.972,0,0,1-.576-1.4,2.119,2.119,0,0,1,1.193-2.155,2.06,2.06,0,0,1,2.446.281,22.74,22.74,0,0,1,7.015,9.748c.245.726.522,1.441.793,2.157.363.961.985,1.168,1.843.6Q60.742,13.064,65.964,9.6a2.752,2.752,0,0,1,2.294-.5,2.558,2.558,0,0,1,2.007,2.014,2.507,2.507,0,0,1-.99,2.724c-.946.691-1.93,1.334-2.924,1.953a1.228,1.228,0,0,0-.642,1.5c-.188.8.06,1.068.94,1.019a2.588,2.588,0,0,0,1.081-.354c1.072-.57,2.127-1.168,3.216-1.706a1.183,1.183,0,0,1,.778-.214,2.436,2.436,0,0,1,1.744,2.137,2.514,2.514,0,0,1-1.12,2.544c-.936.66-1.907,1.269-2.86,1.906-.727.486-.823.778-.551,1.6-.316.386-.122.6.254.751a1.883,1.883,0,0,0,1.7-.207c1.122-.606,2.24-1.218,3.376-1.795.164-.083.32-.218.529-.149" transform="translate(-17.263 -1.427)" fill="#fcd6bc"/>
        <path id="Trazado_130860" data-name="Trazado 130860" d="M18,61.076c-.57.666-.583.968-.056,1.754Q23.267,70.769,28.6,78.7c.315.465.286.654-.19.963-2.575,1.669-5.128,3.371-7.677,5.079a.76.76,0,0,1-.862.064,27.589,27.589,0,0,1-15.7-20.272.6.6,0,0,1,.319-.728q4.683-3.058,9.337-6.159c.333-.221.524-.277.737.129.2.375.489.7.7,1.067a1.218,1.218,0,0,0,1.446.657.177.177,0,0,1,.229-.034A2.641,2.641,0,0,1,18,61.076" transform="translate(-1.713 -23.743)" fill="#86dafe"/>
        <path id="Trazado_130861" data-name="Trazado 130861" d="M24.333,33.29c-1.624-1.089-2.459-1.086-4.054-.029L4.166,43.927c-.173.114-.353.219-.614.38A24.173,24.173,0,0,1,3.5,40.8,27.7,27.7,0,0,1,24.38,15.363c1.95-.481,1.947-.48,2.4,1.523a14.4,14.4,0,0,1-.216,6.773c-.789,3.183-1.487,6.39-2.234,9.632" transform="translate(-1.429 -6.238)" fill="#927de1"/>
        <path id="Trazado_130862" data-name="Trazado 130862" d="M26.394,57.237c-.412-.542-.644-1.231-1.292-1.579.721-.6.784-.973.281-1.744-.268-.411-.528-.828-.818-1.222-.172-.234-.121-.355.1-.5,1.943-1.273,3.875-2.562,5.822-3.829.514-.334.853-.207,1.258.4q3.464,5.221,6.922,10.445,3.211,4.851,6.419,9.7c.56.847.513,1.064-.352,1.638-1.723,1.143-3.459,2.266-5.162,3.436-.43.3-.6.212-.87-.188Q33.369,65.8,28,57.81c-.494-.737-.779-.834-1.607-.572" transform="translate(-10.106 -19.904)" fill="#6fc6fe"/>
        <path id="Trazado_130863" data-name="Trazado 130863" d="M63,75.275a25.761,25.761,0,0,1-3.818,8.012,28.524,28.524,0,0,1-9.453,8.667,31.864,31.864,0,0,1-5.6,2.447,9.469,9.469,0,0,1-1.772.14,22.682,22.682,0,0,1-6.431-1.291c.07-.2.261-.259.407-.356q7.031-4.661,14.066-9.315c1.858-1.228,2.155-2.079,1.4-4.169-.086-.239.022-.293.159-.4a5.81,5.81,0,0,1,4.689-1.379,5.851,5.851,0,0,0,3.981-.857c.8-.478,1.582-1,2.372-1.5" transform="translate(-14.842 -31.097)" fill="#927de1"/>
        <path id="Trazado_130864" data-name="Trazado 130864" d="M62.182,15.63a25.372,25.372,0,0,1,4.581,1.6l-3.092,2.054c-.482-1.207-.877-2.393-1.489-3.649" transform="translate(-25.688 -6.457)" fill="#746fd5"/>
        <path id="Trazado_130865" data-name="Trazado 130865" d="M88.241,24.738c-1.366.726-2.727,1.463-4.1,2.172a2.016,2.016,0,0,1-1.949.07c-.432-.224-.619-.441-.1-.779.065-.042.094-.138.141-.208.639.68.975.724,1.755.216.638-.416,1.261-.855,1.91-1.252a2.378,2.378,0,0,1,2.349-.218" transform="translate(-33.782 -10.13)" fill="#f8c3a9"/>
        <path id="Trazado_130866" data-name="Trazado 130866" d="M93.6,36.335c-1.38.753-2.751,1.525-4.146,2.248a1.678,1.678,0,0,1-1.709-.038c-.586-.35-.593-.423-.008-.812.651.541.961.566,1.647.12.64-.417,1.268-.855,1.915-1.261a2.43,2.43,0,0,1,2.3-.258" transform="translate(-36.065 -14.936)" fill="#f8c4a9"/>
        <path id="Trazado_130867" data-name="Trazado 130867" d="M99.56,47.915a31.99,31.99,0,0,1-3.741,1.98,1.574,1.574,0,0,1-1.512-.16,1.558,1.558,0,0,0,1.2-.315q.913-.646,1.866-1.235a2.369,2.369,0,0,1,2.19-.269" transform="translate(-38.959 -19.729)" fill="#f8c3a9"/>
      </g>
    </g>
    <g id="Grupo_156593" data-name="Grupo 156593" transform="translate(833.421 454)">
      <path id="Trazado_127053" data-name="Trazado 127053" d="M15.507,123.96c-.454.1-.559-.113-.555-.537.012-1.063-.007-1.081-1.106-1.075-.409,0-.536-.124-.528-.529.007-.377.077-.553.512-.551,1.1,0,1.131-.018,1.119-1.119-.005-.5.239-.507.608-.511s.56.058.56.5c0,1.115.023,1.135,1.112,1.131.421,0,.521.15.522.541s-.1.541-.52.539c-1.11-.006-1.137.014-1.112,1.066.012.488-.169.631-.611.545" transform="translate(339.683 4578.363)" fill="#29c4bb"/>
      <path id="Trazado_127054" data-name="Trazado 127054" d="M213.642,151.161c.406-.078.632.057.565.517-.056.385.077.6.5.533s.57.088.573.537c0,.47-.189.578-.589.525-.383-.052-.5.115-.5.5.012.6-.357.826-.934.645-.274-.086-.214-.3-.2-.477.048-.472-.06-.76-.616-.666-.431.073-.457-.2-.456-.527s.014-.6.451-.53c.471.073.694-.1.616-.6-.075-.475.23-.5.582-.454" transform="translate(205.528 4558.239)" fill="#29c4bb"/>
      <path id="Trazado_127055" data-name="Trazado 127055" d="M210.718,69.268c.1.453-.1.608-.527.537-.46-.078-.648.111-.567.569s-.113.548-.542.553-.609-.127-.532-.557c.082-.459-.109-.648-.565-.562-.472.089-.513-.158-.531-.555-.021-.466.16-.588.566-.517.441.077.606-.106.531-.537-.072-.412.061-.579.521-.563.4.014.639.072.552.536s.115.639.567.563c.425-.072.632.081.526.534" transform="translate(208.976 4610.651)" fill="#010000"/>
      <path id="Trazado_127056" data-name="Trazado 127056" d="M55.04,186.64c.1.423-.11.578-.532.5-.5-.09-.614.169-.543.587.079.465-.146.537-.555.535-.39,0-.6-.091-.518-.511.108-.553-.169-.688-.645-.607s-.466-.225-.467-.559.007-.6.448-.512c.593.117.745-.168.665-.7-.077-.508.311-.362.569-.377.274-.016.579-.052.5.389-.1.545.092.8.67.687.482-.092.423.243.409.566" transform="translate(313.711 4536.959)" fill="#010000"/>
      <path id="Trazado_127057" data-name="Trazado 127057" d="M121.786,17.426c-.114-.483.153-.577.548-.518.41.061.572-.109.509-.513s.058-.588.522-.578c.427.009.623.119.548.558s.131.6.553.533c.391-.059.587.035.589.513s-.182.62-.608.553c-.45-.072-.6.133-.533.553.078.472-.175.526-.572.534-.424.009-.562-.151-.5-.54.068-.427-.09-.622-.535-.547s-.62-.106-.523-.547" transform="translate(266.46 4643.184)" fill="#29c4bb"/>
    </g>
  </g>
</svg>
