<svg xmlns="http://www.w3.org/2000/svg" xmlns:xlink="http://www.w3.org/1999/xlink" width="53.609" height="53.597" viewBox="0 0 53.609 53.597">
  <defs>
    <clipPath id="clip-path">
      <rect id="Rectángulo_37667" data-name="Rectángulo 37667" width="53.609" height="53.597" fill="none"/>
    </clipPath>
  </defs>
  <g id="_97" data-name="97" transform="translate(-371.745 -8685.739)">
    <g id="Grupo_157697" data-name="Grupo 157697" transform="translate(371.745 8685.739)">
      <g id="Grupo_157696" data-name="Grupo 157696" transform="translate(0 0)" clip-path="url(#clip-path)">
        <path id="Trazado_130900" data-name="Trazado 130900" d="M52.95,19.027a11.529,11.529,0,0,1-8.8-10.1A.517.517,0,0,1,44.46,8.3a2.483,2.483,0,0,0,1.354-2.292c.009-1.152.017-2.305,0-3.457A2.558,2.558,0,0,0,43.257.012q-5.213-.024-10.426,0a2.564,2.564,0,0,0-2.57,2.581c-.015,1.152,0,2.305,0,3.457a2.337,2.337,0,0,0,.6,1.631.931.931,0,0,1,.24.777,11.7,11.7,0,0,1-1.714,5.391,11.5,11.5,0,0,1-4.3,4.087,9.314,9.314,0,0,0-.345-1.394,4.34,4.34,0,0,0-4.162-2.706c-.7,0-.7,0-.7-.71,0-1.188.009-2.377,0-3.565a2.581,2.581,0,0,0-2.628-2.637c-1.116-.011-2.233-.009-3.349,0a2.583,2.583,0,0,0-2.662,2.657c-.009,1.134,0,2.269,0,3.4,0,.843,0,.843-.823.853a4.288,4.288,0,0,0-4.3,3.648A18.3,18.3,0,0,0,6.063,20.4c0,.276-.066.379-.357.361-.412-.025-.828-.008-1.242-.006A2.6,2.6,0,0,0,1.734,23.5q-.006,1.485,0,2.971A.585.585,0,0,1,1.541,27,4.36,4.36,0,0,0,0,30.524C.011,36.7,0,42.877.006,49.053A4.321,4.321,0,0,0,4.55,53.595q21.393,0,42.786,0a6.523,6.523,0,0,0,1.6-.174,6.038,6.038,0,0,0,4.654-6.094q.006-13.722.015-27.443a.727.727,0,0,0-.659-.858M31.988,2.766A1.142,1.142,0,0,1,33.6,1.736c.2.083.111.244.112.367.009.9.016,1.8,0,2.7-.006.294.061.392.377.4,1.358.017,1.358.029,1.358-1.3,0-.612.011-1.225-.006-1.836-.007-.252.059-.328.324-.339,1.41-.056,1.41-.065,1.41,1.355,0,.594.012,1.189-.006,1.783-.007.256.065.325.327.336,1.408.055,1.407.064,1.407-1.357,0-.594.013-1.189-.006-1.783-.008-.259.071-.323.33-.333,1.405-.054,1.4-.062,1.4,1.359,0,.594.013,1.188-.006,1.782-.009.263.077.321.332.331,1.4.052,1.4.06,1.4-1.307,0-.612.013-1.225-.006-1.836-.009-.266.081-.32.334-.328,1.134-.035,1.4.214,1.4,1.358,0,.937,0,1.873,0,2.809,0,.7-.321,1.022-1.023,1.024-1.674.006-3.349,0-5.023,0-1.657,0-3.313,0-4.97,0-.775,0-1.079-.3-1.082-1.074,0-1.026-.007-2.053,0-3.079M27.075,18.737a13.154,13.154,0,0,0,5.679-9.62c.038-.347.123-.481.509-.478,2.9.019,5.8.013,8.692.006.285,0,.453.018.49.375a13.143,13.143,0,0,0,5.875,9.843.587.587,0,0,0,.144.052L48.4,19H26.809c.02-.153.167-.191.266-.262m-14.1-9.154a.855.855,0,0,1,.945-.93q1.643-.016,3.287,0a.856.856,0,0,1,.946.931c.012,1.311,0,2.623.01,3.934,0,.268-.086.328-.337.323-.772-.015-1.545-.006-2.317-.006-.737,0-1.473-.01-2.209.006-.251.005-.339-.057-.336-.324.014-1.311,0-2.623.01-3.934m-5.188,8.57a2.569,2.569,0,0,1,2.567-2.583q5.21-.022,10.421,0a2.624,2.624,0,0,1,2.574,2.911.318.318,0,0,1-.275.328,9.074,9.074,0,0,1-1.033.295c-.384.054-.435.246-.433.583.013,2.194.007,4.388.007,6.542-3.869-.575-7.737-.181-11.592-.28-.428-.011-.54-.117-.518-.532.035-.664.014-1.331.008-2a2.51,2.51,0,0,0-1.42-2.359.5.5,0,0,1-.314-.533c.018-.792,0-1.584.009-2.376M3.472,23.324a.791.791,0,0,1,.816-.834c.881-.03,1.763-.026,2.645,0a.794.794,0,0,1,.839.812c.034.79,0,1.583.018,2.374.007.282-.148.265-.338.265q-1.458,0-2.915,0a3.492,3.492,0,0,0-1.072.106c0-.958-.017-1.838.007-2.718M23.1,51.867q-9.263,0-18.526,0A2.612,2.612,0,0,1,1.734,49q0-4.618,0-9.236,0-4.645,0-9.29a2.6,2.6,0,0,1,2.832-2.812q7.157,0,14.313,0a6.906,6.906,0,0,1,7.053,7.022q.012,7.184,0,14.367A2.609,2.609,0,0,1,23.1,51.867m28.768-4.7a4.351,4.351,0,0,1-4.708,4.7H26.786a3.308,3.308,0,0,0,.6-1.136c.1-.544.4-.606.894-.6q9.858.028,19.716.013c1.52,0,2.14-.612,2.14-2.114q0-11.721,0-23.442c0-1.478-.623-2.1-2.1-2.1H28c-1.423,0-2.066.647-2.067,2.077q0,2.106,0,4.213v.626a9.093,9.093,0,0,0-2.428-2.181c-.176-.1-.166-.253-.165-.416,0-1.908.006-3.816-.005-5.725,0-.263.076-.361.333-.325a1.982,1.982,0,0,0,.27,0q13.665,0,27.331-.012c.488,0,.609.116.608.606q-.024,12.91-.012,25.819m-24.2-10.855c0-3.872.007-7.743-.01-11.614,0-.4.092-.5.5-.5q9.886.021,19.771,0c.4,0,.5.092.5.5q-.021,11.614,0,23.228c0,.4-.091.5-.5.5q-9.885-.022-19.771,0c-.4,0-.5-.092-.5-.5.017-3.872.01-7.743.01-11.614" transform="translate(0 0)"/>
        <path id="Trazado_130901" data-name="Trazado 130901" d="M75.466,89.856c.832,0,.832,0,.832-.842,0-.887,0-.887-.9-.887-.832,0-.832,0-.832.842,0,.887,0,.887.9.887" transform="translate(-36.533 -43.175)"/>
        <path id="Trazado_130902" data-name="Trazado 130902" d="M82.17,89.856c.907,0,.907,0,.907-.875,0-.853,0-.853-.876-.853-.853,0-.853,0-.853.875,0,.853,0,.853.822.853" transform="translate(-39.854 -43.175)"/>
        <path id="Trazado_130903" data-name="Trazado 130903" d="M89.013,89.856c.842,0,.842,0,.842-.832,0-.9,0-.9-.887-.9-.842,0-.842,0-.842.832,0,.9,0,.9.887.9" transform="translate(-43.175 -43.175)"/>
        <path id="Trazado_130904" data-name="Trazado 130904" d="M24.717,74.571q-7.562,0-15.123,0a2.6,2.6,0,0,0-2.807,2.784q-.005,3.24,0,6.482A2.609,2.609,0,0,0,9.6,86.67q3.78,0,7.562,0t7.562,0a2.6,2.6,0,0,0,2.807-2.785q.005-3.24,0-6.482a2.6,2.6,0,0,0-2.813-2.833M25.8,83.832c0,.812-.294,1.109-1.1,1.11q-3.779,0-7.557,0-3.751,0-7.5,0c-.84,0-1.126-.29-1.127-1.137q0-3.184,0-6.369c0-.848.286-1.136,1.127-1.136q7.53,0,15.06,0c.805,0,1.1.3,1.1,1.109q0,3.211,0,6.423" transform="translate(-3.324 -36.533)"/>
        <path id="Trazado_130905" data-name="Trazado 130905" d="M23.893,64.529c1.385.008,2.771,0,4.157,0,1.439,0,2.879.007,4.318,0a1.728,1.728,0,0,0,1.8-1.848A5.176,5.176,0,0,0,29.2,57.628c-1.762-.041-3.527-.018-5.29-.011a3.457,3.457,0,1,0-.013,6.912m.05-5.183c1.69,0,3.38-.013,5.07,0a3.472,3.472,0,0,1,3.413,3c.049.328.006.469-.388.461-1.384-.027-2.769-.01-4.153-.01-1.312,0-2.625,0-3.937,0a1.733,1.733,0,1,1-.005-3.455" transform="translate(-9.968 -28.222)"/>
      </g>
    </g>
  </g>
</svg>
