<svg id="_98" data-name="98" xmlns="http://www.w3.org/2000/svg" xmlns:xlink="http://www.w3.org/1999/xlink" width="52.871" height="52.882" viewBox="0 0 52.871 52.882">
  <defs>
    <clipPath id="clip-path">
      <rect id="Rectángulo_37668" data-name="Rectángulo 37668" width="52.871" height="52.882" fill="none"/>
    </clipPath>
  </defs>
  <g id="Grupo_157698" data-name="Grupo 157698" clip-path="url(#clip-path)">
    <path id="Trazado_130906" data-name="Trazado 130906" d="M48.375,33.519c.906-.195,1.753-.376,2.6-.559.831-.18,1.117,0,1.3.829.186.85.374,1.7.549,2.551.155.75-.046,1.054-.806,1.218q-4.45.961-8.9,1.915-6.647,1.434-13.293,2.874c-.105.023-.209.052-.308.078A9.319,9.319,0,1,1,17.53,34.677q-.56-2.621-1.123-5.252Q13.814,17.4,11.23,5.38c-.108-.5-.276-.68-.819-.674-3.076.031-6.153.016-9.229.014C.223,4.72,0,4.5,0,3.543,0,2.69,0,1.838.005.985.013.291.293,0,.992,0Q7.526,0,14.059,0c.648,0,.865.21,1.021.932q1.3,6.025,2.593,12.05c.054.252.115.5.192.836.515-.1,1.016-.188,1.511-.3q11.178-2.415,22.355-4.835c1.022-.222,1.263-.068,1.488.98q2.516,11.67,5.029,23.34c.031.143.071.284.126.507M19.607,21.728a.972.972,0,0,0-.009.18q1.318,6.131,2.631,12.263c.072.341.272.43.552.51a8.883,8.883,0,0,1,4.473,2.852.91.91,0,0,0,1.04.332c4.39-.962,8.785-1.9,13.179-2.851,1.769-.382,3.537-.767,5.362-1.162l-3.711-17.2-7.951,1.721c.053.267.089.466.132.664.33,1.537.685,3.07.97,4.616a1.056,1.056,0,0,1-.3.894c-.216.145-.647.045-.955-.046a2.874,2.874,0,0,1-.694-.451L32.2,22.612c-.606.894-1.172,1.739-1.748,2.577-.287.417-.5.975-1.172.821-.629-.145-.607-.723-.712-1.2-.351-1.586-.692-3.174-1.044-4.791l-7.916,1.707M12.528,43.578a7.736,7.736,0,1,0,7.755-7.7,7.734,7.734,0,0,0-7.755,7.7m8.154-9.25L13.625,1.6H1.6V3.164h.692q4.558,0,9.116,0c.76,0,.967.163,1.12.871q2.853,13.239,5.7,26.479c.276,1.278.555,2.556.828,3.812ZM34.394,22.206l-2.132-9.871-4.583.995,2.157,9.984c.514-.757.946-1.4,1.384-2.037.419-.61.768-.676,1.4-.263.554.365,1.1.739,1.777,1.192m-.61-10.2c.359,1.656.7,3.222,1.051,4.842L42.8,15.131l-1.046-4.84-7.968,1.716M19.235,20.216,27.2,18.5l-1.045-4.842-7.963,1.718c.35,1.625.691,3.208,1.044,4.845m9.935,20.675L51.2,36.135l-.35-1.552L28.562,39.391l.607,1.5" transform="translate(0 0)"/>
    <path id="Trazado_130907" data-name="Trazado 130907" d="M89.27,104.732a.74.74,0,0,1-.643.715c-1.279.285-2.559.56-3.844.818a.769.769,0,1,1-.315-1.5q1.915-.441,3.839-.837a.779.779,0,0,1,.963.8" transform="translate(-56.805 -70.441)"/>
    <path id="Trazado_130908" data-name="Trazado 130908" d="M107.4,102.126c-.119.116-.3.425-.565.524a7.294,7.294,0,0,1-1.51.34.766.766,0,0,1-.366-1.479,10.143,10.143,0,0,1,1.623-.349c.471-.062.823.3.818.964" transform="translate(-70.802 -68.574)"/>
    <path id="Trazado_130909" data-name="Trazado 130909" d="M57.448,125.078a4.9,4.9,0,0,1-9.8-.008,4.9,4.9,0,1,1,9.8.008m-1.557-.024a3.337,3.337,0,0,0-3.353-3.346,3.344,3.344,0,0,0,.006,6.688,3.317,3.317,0,0,0,3.347-3.342" transform="translate(-32.3 -81.453)"/>
  </g>
</svg>
